<?xml version="1.0" encoding="UTF-8" standalone="no"?>
<!-- Created with Inkscape (http://www.inkscape.org/) -->

<svg
   width="362.47916mm"
   height="155.04584mm"
   viewBox="0 0 362.47916 155.04584"
   version="1.1"
   id="svg1"
   xml:space="preserve"
   xmlns="http://www.w3.org/2000/svg"
   xmlns:svg="http://www.w3.org/2000/svg"><defs
     id="defs1" /><g
     id="layer1"
     transform="matrix(1.0000025,0,0,1.0000025,72.091448,-65.750589)"><path
       style="fill:#000000"
       d="m -72.047297,219.96946 c -0.08994,-0.14552 -0.03743,-0.26458 0.116677,-0.26458 0.154109,0 0.280198,0.11906 0.280198,0.26458 0,0.14552 -0.0525,0.26458 -0.116676,0.26458 -0.06417,0 -0.190262,-0.11906 -0.280199,-0.26458 z m 114.432289,-8.06979 c 0,-0.21828 0.09922,-0.39688 0.220486,-0.39688 0.121267,0 0.220486,0.1786 0.220486,0.39688 0,0.21828 -0.09922,0.39687 -0.220486,0.39687 -0.121267,0 -0.220486,-0.17859 -0.220486,-0.39687 z M 13.60926,205.2857 c 0.107878,-0.11908 0.06353,-0.37629 -0.09854,-0.57158 -0.185274,-0.22325 -0.194931,-0.35508 -0.02601,-0.35508 0.413161,0 0.607476,0.75344 0.247586,0.95999 -0.175545,0.10075 -0.230909,0.0857 -0.123031,-0.0333 z m 17.266357,-9.12874 c 0.08994,-0.14552 0.216026,-0.26458 0.280198,-0.26458 0.06417,0 0.116677,0.11906 0.116677,0.26458 0,0.14552 -0.126089,0.26458 -0.280198,0.26458 -0.154109,0 -0.206614,-0.11906 -0.116677,-0.26458 z m 0.651988,-1.01485 c 0.17431,-0.33988 0.38949,-0.54541 0.478179,-0.45672 0.08869,0.0887 -0.05393,0.36678 -0.316927,0.61797 -0.457135,0.43662 -0.464232,0.42953 -0.161252,-0.16125 z m 0.80322,-0.51635 c 0,-0.11455 0.240699,-0.22641 0.534886,-0.24857 0.294186,-0.0222 0.465753,0.0716 0.38126,0.20828 -0.185868,0.30074 -0.916146,0.33286 -0.916146,0.0403 z m 1.114048,-1.48482 c 0.187638,-0.20361 0.382849,-0.33059 0.433801,-0.28219 0.156937,0.14908 -0.240808,0.65238 -0.515562,0.65238 -0.14267,0 -0.105877,-0.16659 0.08176,-0.37019 z m 6.173293,-5.96153 c -0.08372,-0.13547 -0.03122,-0.32109 0.116677,-0.41249 0.147894,-0.0914 0.268899,0.0194 0.268899,0.2463 0,0.46475 -0.158765,0.53318 -0.385576,0.16619 z m 42.983491,-6.1037 c 0,-0.14552 0.119063,-0.26458 0.264584,-0.26458 0.145521,0 0.264583,0.11906 0.264583,0.26458 0,0.14552 -0.119062,0.26458 -0.264583,0.26458 -0.145521,0 -0.264584,-0.11906 -0.264584,-0.26458 z m -39.036919,-1.86969 c -0.27148,-0.43926 -0.02781,-0.50017 0.35204,-0.088 0.187638,0.2036 0.22443,0.37019 0.08176,0.37019 -0.14267,0 -0.33788,-0.12699 -0.4338,-0.28219 z m 0.286761,-0.75786 c -0.08372,-0.13547 -0.03122,-0.32109 0.116677,-0.41249 0.147894,-0.0914 0.268899,0.0194 0.268899,0.2463 0,0.46475 -0.158764,0.53318 -0.385576,0.16619 z m 42.586617,-0.28287 c -0.08994,-0.14552 -0.03743,-0.26458 0.116676,-0.26458 0.154109,0 0.280199,0.11906 0.280199,0.26458 0,0.14552 -0.0525,0.26459 -0.116677,0.26459 -0.06417,0 -0.190262,-0.11907 -0.280198,-0.26459 z m -1.719792,-0.52916 c 0,-0.14553 0.119062,-0.26459 0.264583,-0.26459 0.145521,0 0.264584,0.11906 0.264584,0.26459 0,0.14552 -0.119063,0.26458 -0.264584,0.26458 -0.145521,0 -0.264583,-0.11906 -0.264583,-0.26458 z m -40.460361,-1.21268 c 0.0127,-0.30822 0.07539,-0.37092 0.159853,-0.15985 0.07643,0.191 0.06703,0.4192 -0.02089,0.50712 -0.08792,0.0879 -0.150453,-0.0684 -0.138965,-0.34727 z m 41.254111,0.15434 c 0,-0.14552 0.119062,-0.26458 0.264583,-0.26458 0.145521,0 0.264584,0.11906 0.264584,0.26458 0,0.14552 -0.119063,0.26459 -0.264584,0.26459 -0.145521,0 -0.264583,-0.11907 -0.264583,-0.26459 z m -48.418749,-4.21128 c 0,-0.1334 0.148828,-0.30259 0.330729,-0.37599 0.208715,-0.0842 0.170235,-0.14116 -0.104302,-0.15434 -0.291394,-0.014 -0.422433,-0.23607 -0.396875,-0.6726 0.02955,-0.50469 0.108069,-0.5793 0.348077,-0.33073 0.309507,0.32056 0.442075,0.82102 0.382886,1.44546 -0.03571,0.3767 -0.560515,0.45928 -0.560515,0.0882 z m 170.763405,-0.35278 c -0.50403,-0.59531 -0.50403,-0.59531 0.0913,-0.0913 0.55945,0.47367 0.71576,0.6866 0.50403,0.6866 -0.0502,0 -0.3181,-0.26789 -0.59531,-0.59531 z M 8.871104,171.43006 c 0,-0.21188 0.101161,-0.32272 0.224802,-0.24631 0.123641,0.0764 0.156302,0.24978 0.07258,0.38524 -0.213948,0.34618 -0.297381,0.3072 -0.297382,-0.13893 z m 49.145192,-0.56286 c 0.0127,-0.30822 0.07539,-0.37092 0.159853,-0.15985 0.07643,0.191 0.06703,0.4192 -0.02089,0.50712 -0.08792,0.0879 -0.150452,-0.0683 -0.138963,-0.34727 z m 0.864488,-1.10901 c 0.271855,-0.27185 0.514367,-0.30745 0.84273,-0.12369 0.388521,0.21743 0.328485,0.27747 -0.381695,0.3817 -0.734197,0.10776 -0.793572,0.0745 -0.461035,-0.25801 z m 2.421916,-0.85331 c 0.08994,-0.14553 0.216026,-0.26459 0.280198,-0.26459 0.06417,0 0.116677,0.11906 0.116677,0.26459 0,0.14552 -0.12609,0.26458 -0.280199,0.26458 -0.154109,0 -0.206613,-0.11906 -0.116676,-0.26458 z m 4.472777,-2.87294 c 0.539244,-0.60624 0.686597,-0.68472 0.686597,-0.36571 0,0.11052 -0.26789,0.36551 -0.595312,0.56665 -0.593198,0.3644 -0.593523,0.36369 -0.09128,-0.20094 z m 5.567141,-0.0605 c -0.239955,-0.38825 0.118097,-0.6723 1.072581,-0.85089 0.79375,-0.14851 0.79375,-0.14851 0.05847,0.15191 -0.426114,0.1741 -0.679917,0.44468 -0.603617,0.64352 0.159181,0.41482 -0.276997,0.46069 -0.527438,0.0555 z m 1.998623,0.0231 c 0,-0.14552 0.119062,-0.26458 0.264583,-0.26458 0.145521,0 0.264584,0.11906 0.264584,0.26458 0,0.14552 -0.119063,0.26458 -0.264584,0.26458 -0.145521,0 -0.264583,-0.11906 -0.264583,-0.26458 z m -4.159421,-1.35105 c -0.32315,-0.59516 -0.442213,-0.96052 -0.264583,-0.81191 0.470328,0.39348 1.316187,1.89876 1.065525,1.89619 -0.117368,-0.001 -0.477792,-0.48913 -0.800942,-1.08428 z m 5.746921,0.5573 c 0.218281,-0.14107 0.515937,-0.25648 0.661458,-0.25648 0.145521,0 0.08599,0.11541 -0.132291,0.25648 -0.218282,0.14106 -0.515938,0.25648 -0.661459,0.25648 -0.145521,0 -0.08599,-0.11542 0.132292,-0.25648 z m 1.719792,-0.52917 c 0.727362,-0.31256 1.145107,-0.31256 0.661458,0 -0.218281,0.14107 -0.575469,0.24994 -0.79375,0.24194 -0.261688,-0.01 -0.216625,-0.092 0.132292,-0.24194 z m -14.684375,-0.80936 c 0,-0.15411 0.119062,-0.20662 0.264583,-0.11668 0.145521,0.0899 0.264584,0.21603 0.264584,0.2802 0,0.0642 -0.119063,0.11668 -0.264584,0.11668 -0.145521,0 -0.264583,-0.12609 -0.264583,-0.2802 z m 50.667712,0.0156 c -0.0899,-0.14552 0.0151,-0.26458 0.23335,-0.26458 0.21828,0 0.47046,0.11906 0.5604,0.26458 0.0899,0.14552 -0.0151,0.26459 -0.23335,0.26459 -0.21828,0 -0.47046,-0.11907 -0.5604,-0.26459 z m -1.90548,-0.58892 c -0.58777,-0.75894 -0.64602,-1.08979 -0.0912,-0.51806 0.32707,0.33704 0.54014,0.66734 0.47349,0.73399 -0.0667,0.0667 -0.23869,-0.0305 -0.38229,-0.21593 z m -59.738298,-0.63251 c -0.295214,-0.45056 -0.336841,-0.65336 -0.119219,-0.58082 0.440409,0.14681 1.182871,1.27309 0.839237,1.27309 -0.146534,0 -0.470542,-0.31153 -0.720018,-0.69227 z m 64.203918,0.1975 c -0.28438,-0.1803 -0.27193,-0.30044 0.0661,-0.63851 0.22904,-0.22904 0.41643,-0.55102 0.41643,-0.71552 0,-0.16451 0.12484,-0.22194 0.27743,-0.12764 0.18996,0.1174 0.18062,0.28811 -0.0296,0.54141 -0.16887,0.20348 -0.23792,0.55006 -0.15344,0.7702 0.17039,0.44405 -0.0448,0.50747 -0.57696,0.17006 z m -34.5037,-0.34355 c 0.15375,-0.15375 0.435721,-0.22749 0.626602,-0.16386 0.198158,0.0661 0.07823,0.18598 -0.279546,0.27954 -0.440093,0.11509 -0.543395,0.0807 -0.347056,-0.11568 z m 2.443275,-1.43067 c 4.18e-4,-0.13451 0.349149,-0.47797 0.774958,-0.76325 0.425809,-0.28528 0.704727,-0.6311 0.619818,-0.76848 -0.08491,-0.13739 -0.01692,-0.16484 0.151083,-0.061 0.168005,0.10383 0.305463,0.36738 0.305463,0.58566 0,0.21828 -0.127876,0.31785 -0.28417,0.22125 -0.156293,-0.0966 -0.573012,0.0957 -0.926041,0.42738 -0.35303,0.33166 -0.64153,0.49296 -0.641111,0.35845 z m 8.81507,-1.8982 c -0.27407,-0.87864 -0.26634,-0.93342 0.0675,-0.4786 0.31586,0.43025 0.53481,1.47079 0.30948,1.47079 -0.0371,0 -0.20681,-0.44649 -0.37703,-0.99219 z m 5.68664,0.81144 c 0.191,-0.0764 0.4192,-0.067 0.50712,0.0209 0.0879,0.0879 -0.0683,0.15046 -0.34727,0.13897 -0.30822,-0.0127 -0.37091,-0.0754 -0.15985,-0.15986 z m 44.102745,-0.0838 c -0.0899,-0.14552 -0.0374,-0.26458 0.11667,-0.26458 0.15411,0 0.2802,0.11906 0.2802,0.26458 0,0.14552 -0.0525,0.26459 -0.11668,0.26459 -0.0642,0 -0.19026,-0.11907 -0.28019,-0.26459 z m -41.67188,-0.52548 c 0.21828,-0.14309 0.68461,-0.26199 1.03629,-0.26422 0.84921,-0.005 0.63397,0.14506 -0.50712,0.35445 -0.651525,0.11955 -0.808395,0.0928 -0.52917,-0.0902 z m 33.49341,0.0345 c -0.0769,-0.1245 0.15416,-0.17015 0.51356,-0.10145 0.35939,0.0687 0.65345,0.17057 0.65345,0.22636 0,0.20472 -1.03152,0.0943 -1.16701,-0.12491 z m -59.951746,-0.41949 c 0,-0.20969 0.09355,-0.43907 0.207887,-0.50974 0.114338,-0.0707 0.207887,0.10091 0.207887,0.38126 0,0.28036 -0.09355,0.50974 -0.207887,0.50974 -0.114338,0 -0.207887,-0.17156 -0.207887,-0.38126 z m 63.235416,-0.51238 c 0,-0.0549 0.18132,-0.25038 0.40294,-0.4343 0.3369,-0.27961 0.37562,-0.26324 0.23627,0.0999 -0.14232,0.37087 -0.63921,0.63082 -0.63921,0.3344 z m -18.9177,-0.42927 c 0.0899,-0.14552 0.21602,-0.26459 0.28019,-0.26459 0.0642,0 0.11668,0.11907 0.11668,0.26459 0,0.14552 -0.12609,0.26458 -0.2802,0.26458 -0.15411,0 -0.20661,-0.11906 -0.11667,-0.26458 z m -8.33438,-0.2052 c 0,-0.2755 0.71203,-1.11772 0.94494,-1.11772 0.21043,0 0.11555,0.18113 -0.41577,0.79375 -0.29104,0.33558 -0.52917,0.48136 -0.52917,0.32397 z m -18.520835,-0.33958 c 0,-0.15411 0.11906,-0.20662 0.26458,-0.11668 0.14552,0.0899 0.26459,0.21603 0.26459,0.2802 0,0.0642 -0.11907,0.11667 -0.26459,0.11667 -0.14552,0 -0.26458,-0.12608 -0.26458,-0.28019 z m 40.371045,-0.15455 c -0.24308,-0.63344 -0.0536,-0.68208 0.3209,-0.0824 0.17763,0.28442 0.21563,0.51713 0.0844,0.51713 -0.13118,0 -0.31359,-0.19563 -0.40534,-0.43474 z m 6.67518,-0.0106 c 0.191,-0.0764 0.4192,-0.067 0.50712,0.0209 0.0879,0.0879 -0.0684,0.15045 -0.34727,0.13896 -0.30822,-0.0127 -0.37092,-0.0754 -0.15985,-0.15985 z m 2.16628,-0.19723 c 0,-0.22868 0.11532,-0.41578 0.25628,-0.41578 0.14095,0 0.18025,-0.19812 0.0873,-0.44028 -0.11361,-0.29604 -0.0675,-0.3776 0.14059,-0.24897 0.41933,0.25916 0.38916,0.64743 -0.0873,1.12392 -0.35278,0.35278 -0.39687,0.35068 -0.39687,-0.0189 z m -60.584283,-0.28988 c 0.184076,-0.2218 0.389171,-0.34878 0.455766,-0.28219 0.183488,0.18349 -0.189321,0.68546 -0.509084,0.68546 -0.175443,0 -0.155371,-0.15181 0.05332,-0.40327 z m 49.237893,-0.33286 c -0.0202,-0.39636 0.17385,-0.68606 0.56462,-0.84313 0.32742,-0.1316 0.44648,-0.24683 0.26458,-0.25605 -0.1819,-0.009 -0.33073,-0.15042 -0.33073,-0.31376 0,-0.20518 0.12267,-0.19517 0.39688,0.0324 0.46629,0.38699 0.5463,1.18192 0.0906,0.90028 -0.21372,-0.13208 -0.25767,0.003 -0.14545,0.44741 0.14831,0.58719 0.13277,0.59921 -0.19984,0.15464 -0.3489,-0.46634 -0.36471,-0.46634 -0.48532,0 -0.0986,0.3811 -0.13109,0.3556 -0.15535,-0.12179 z m 17.88985,-0.0788 c 0.0936,-0.35777 0.2135,-0.4777 0.27955,-0.27955 0.0636,0.19088 -0.0101,0.47286 -0.16386,0.62661 -0.19634,0.19633 -0.23077,0.093 -0.11569,-0.34706 z m -95.322053,0.004 c -0.09592,-0.15521 -0.117656,-0.33894 -0.0483,-0.40829 0.06936,-0.0694 0.196603,0.0576 0.282774,0.28219 0.178907,0.46622 0.02642,0.54823 -0.234473,0.1261 z m 24.242902,-0.51157 c -0.008,-0.21828 0.100871,-0.57547 0.241935,-0.79375 0.312558,-0.48365 0.312558,-0.0659 0,0.66146 -0.149934,0.34892 -0.232345,0.39398 -0.241935,0.13229 z m 43.369021,0.0815 c 0,-0.14581 0.23813,-0.53966 0.52917,-0.87524 0.37492,-0.43228 0.52916,-0.4946 0.52916,-0.21378 0,0.21799 -0.23812,0.61185 -0.52916,0.87524 -0.29104,0.26339 -0.52917,0.35959 -0.52917,0.21378 z m -52.30739,-0.55554 c -0.184407,-0.11723 -0.227383,-0.34599 -0.102853,-0.54749 0.158565,-0.25656 0.251225,-0.20341 0.358138,0.20543 0.07933,0.30334 0.12561,0.54971 0.102853,0.54748 -0.02276,-0.002 -0.183918,-0.0947 -0.358138,-0.20542 z m -15.161362,-0.33579 c 0,-0.15411 0.119063,-0.20662 0.264584,-0.11668 0.14552,0.0899 0.264583,0.21603 0.264583,0.2802 0,0.0642 -0.119063,0.11667 -0.264583,0.11667 -0.145521,0 -0.264584,-0.12608 -0.264584,-0.28019 z m 25.708544,-1.00995 c -0.284145,-0.18012 -0.271257,-0.25505 0.06615,-0.38452 0.265126,-0.10174 0.41906,-0.0181 0.41906,0.22776 0,0.44971 -0.01527,0.45465 -0.485206,0.15676 z m 1.229346,-1.00726 c 0.190996,-0.0764 0.419199,-0.067 0.507118,0.0209 0.08792,0.0879 -0.06835,0.15045 -0.347265,0.13896 -0.308225,-0.0127 -0.37092,-0.0754 -0.159853,-0.15985 z m 26.009472,-0.66671 c -0.0407,-0.5978 0.51736,-1.79839 0.83596,-1.79839 0.1389,0 0.0738,0.27286 -0.14475,0.60635 -0.21851,0.33348 -0.45651,0.8395 -0.5289,1.12447 -0.10453,0.4115 -0.13793,0.4254 -0.16231,0.0676 z m 0.63077,-0.21089 c 0.0899,-0.14552 0.21602,-0.26458 0.28019,-0.26458 0.0642,0 0.11668,0.11906 0.11668,0.26458 0,0.14553 -0.12609,0.26459 -0.2802,0.26459 -0.15411,0 -0.20661,-0.11906 -0.11667,-0.26459 z m -22.004522,-0.62261 c 0,-0.4336 0.878869,-0.87977 1.166467,-0.59217 0.08605,0.0861 9.04e-4,0.15645 -0.189208,0.15645 -0.190112,0 -0.487768,0.19435 -0.661458,0.43188 -0.289354,0.39572 -0.315801,0.39604 -0.315801,0.004 z m 10.780607,-0.0609 c 0.0127,-0.30823 0.0754,-0.37092 0.15986,-0.15985 0.0764,0.19099 0.067,0.41919 -0.0209,0.50711 -0.0879,0.0879 -0.15045,-0.0684 -0.13897,-0.34726 z m 53.821825,0.15434 c 0.0899,-0.14552 0.21603,-0.26459 0.2802,-0.26459 0.0642,0 0.11668,0.11907 0.11668,0.26459 0,0.14552 -0.12609,0.26458 -0.2802,0.26458 -0.15411,0 -0.20661,-0.11906 -0.11668,-0.26458 z m -9.65729,-0.80937 c 0,-0.15411 0.11906,-0.20661 0.26458,-0.11667 0.14552,0.0899 0.26459,0.21602 0.26459,0.28019 0,0.0642 -0.11907,0.11668 -0.26459,0.11668 -0.14552,0 -0.26458,-0.12609 -0.26458,-0.2802 z m -21.31528,-0.8029 c 0.10963,-0.35018 0.35982,-1.35107 0.55599,-2.22419 l 0.35666,-1.5875 -0.0747,1.64585 c -0.0411,0.90522 -0.005,1.68937 0.081,1.74257 0.0856,0.0532 0.007,0.0605 -0.17504,0.0161 -0.1819,-0.0443 -0.33073,0.0872 -0.33073,0.29234 0,0.20512 -0.13782,0.45813 -0.30626,0.56223 -0.21793,0.13469 -0.24877,0.006 -0.10694,-0.4474 z m -11.49305,0.13276 c 0,-0.0238 0.16469,-0.17988 0.36597,-0.34693 0.27885,-0.23142 0.39768,-0.22114 0.49911,0.0432 0.0808,0.21062 -0.063,0.34693 -0.36598,0.34693 -0.2745,0 -0.4991,-0.0194 -0.4991,-0.0432 z m 35.18958,-0.12361 c 0,-0.15411 0.11906,-0.20661 0.26458,-0.11667 0.14552,0.0899 0.26459,0.21602 0.26459,0.28019 0,0.0642 -0.11907,0.11668 -0.26459,0.11668 -0.14552,0 -0.26458,-0.12609 -0.26458,-0.2802 z m 18.25625,-0.11667 c -0.18985,-0.22876 -0.21557,-0.39688 -0.0607,-0.39688 0.14777,0 0.3372,0.1786 0.42096,0.39688 0.0838,0.21828 0.11108,0.39687 0.0607,0.39687 -0.0504,0 -0.23981,-0.17859 -0.42097,-0.39687 z m -89.781947,-0.30868 c -0.09701,-0.097 -0.176389,-0.29942 -0.176389,-0.4498 0,-0.16578 0.123236,-0.15016 0.313091,0.0397 0.172199,0.1722 0.251574,0.37461 0.176389,0.44979 -0.07519,0.0752 -0.216077,0.0573 -0.313091,-0.0397 z m 25.814162,-0.61737 c 0,-0.50932 0.0545,-0.71768 0.121,-0.46302 0.0665,0.25467 0.0665,0.67138 0,0.92605 -0.0666,0.25466 -0.121,0.0463 -0.121,-0.46303 z m 54.178205,0.26459 c 0.15576,-0.29104 0.41653,-0.52917 0.57948,-0.52917 0.16295,0 0.0808,0.23813 -0.18261,0.52917 -0.26339,0.29104 -0.52415,0.52916 -0.57948,0.52916 -0.0553,0 0.0268,-0.23812 0.18261,-0.52916 z m -42.66847,-0.29742 c 0.17947,-0.18082 0.39297,-0.26211 0.47443,-0.18065 0.0815,0.0815 -0.0654,0.22941 -0.32632,0.32877 -0.37709,0.14358 -0.40748,0.11319 -0.14811,-0.14812 z m 50.00624,-0.79375 c 0.17948,-0.18082 0.39297,-0.26211 0.47444,-0.18065 0.0815,0.0815 -0.0654,0.22941 -0.32632,0.32877 -0.37709,0.14358 -0.40748,0.11319 -0.14812,-0.14812 z m -89.127775,-0.43019 c -0.329107,-0.41964 -0.319749,-0.429 0.0999,-0.0999 0.254662,0.19972 0.463021,0.40808 0.463021,0.46302 0,0.21776 -0.217272,0.0776 -0.562916,-0.36313 z m 40.779585,0.22675 c 0,-0.12995 0.17253,-0.30248 0.3834,-0.3834 0.25626,-0.0983 0.33461,-0.02 0.23628,0.23627 -0.1606,0.4185 -0.61968,0.5275 -0.61968,0.14713 z m 10.10575,-0.42518 c 0.005,-0.43657 0.0647,-0.58313 0.13177,-0.3257 0.0671,0.25743 0.0627,0.61462 -0.01,0.79375 -0.0725,0.17913 -0.12736,-0.0315 -0.12197,-0.46805 z m 17.41092,0.39687 c -0.23847,-0.15411 -0.2711,-0.2581 -0.0818,-0.26053 0.17331,-0.002 0.3887,0.11501 0.47863,0.26053 0.20302,0.32849 0.11142,0.32849 -0.39687,0 z m 15.48942,0.0183 c -0.0837,-0.13546 -0.0128,-0.33245 0.15756,-0.43775 0.18464,-0.11411 0.23916,-0.0772 0.13496,0.0914 -0.0961,0.15558 -0.0252,0.34317 0.15755,0.41687 0.2379,0.0959 0.24281,0.13994 0.0173,0.15489 -0.17331,0.0115 -0.38362,-0.09 -0.46734,-0.22542 z m -10.44145,-0.96637 c 0.0127,-0.30822 0.0754,-0.37092 0.15985,-0.15985 0.0764,0.19099 0.067,0.4192 -0.0209,0.50712 -0.0879,0.0879 -0.15045,-0.0683 -0.13896,-0.34727 z m -110.219849,-0.904 c 0.08994,-0.14552 0.216026,-0.26459 0.280198,-0.26459 0.06417,0 0.116676,0.11907 0.116676,0.26459 0,0.14552 -0.126089,0.26458 -0.280198,0.26458 -0.154109,0 -0.206613,-0.11906 -0.116676,-0.26458 z m 78.802399,-0.15008 c -0.0875,-0.22806 -0.0242,-0.54953 0.1406,-0.71437 0.22323,-0.22323 0.29971,-0.11742 0.29971,0.41466 0,0.79605 -0.1981,0.9309 -0.44031,0.29971 z m -77.978729,-0.16292 c 0.07641,-0.12364 0.249771,-0.1563 0.385237,-0.0726 0.346176,0.21395 0.307196,0.29738 -0.138936,0.29738 -0.21188,0 -0.322715,-0.10116 -0.246301,-0.2248 z m 109.417069,-0.21617 c 0,-0.3638 0.06,-0.51263 0.13345,-0.33073 0.0734,0.1819 0.0734,0.47956 0,0.66146 -0.0734,0.1819 -0.13345,0.0331 -0.13345,-0.33073 z m -31.74499,-1.85185 c -0.30492,-0.85596 -0.29724,-0.89325 0.10171,-0.49429 0.23733,0.23733 0.38574,0.65394 0.3298,0.92581 -0.0754,0.36648 -0.18699,0.25491 -0.43151,-0.43152 z m 9.02472,-0.66169 c 0.002,-0.7276 0.0534,-0.99386 0.11418,-0.59167 0.0608,0.40218 0.0592,0.99749 -0.004,1.32291 -0.0628,0.32542 -0.11256,-0.004 -0.11057,-0.73124 z m 29.11979,0.78234 c -0.0862,-0.22456 -0.0976,-0.46741 -0.0253,-0.53966 0.0723,-0.0723 0.19488,0.11147 0.2725,0.40828 0.16488,0.63049 -0.0183,0.72784 -0.2472,0.13138 z m 6.65558,-0.91463 c -0.0899,-0.14552 -0.0374,-0.26459 0.11667,-0.26459 0.15411,0 0.2802,0.11907 0.2802,0.26459 0,0.14552 -0.0525,0.26458 -0.11668,0.26458 -0.0642,0 -0.19026,-0.11906 -0.28019,-0.26458 z m -6.95988,-0.66146 c 0.005,-0.43656 0.0647,-0.58313 0.13177,-0.32569 0.0671,0.25743 0.0627,0.61461 -0.01,0.79375 -0.0725,0.17913 -0.12736,-0.0315 -0.12197,-0.46806 z m -27.39186,-0.30868 c -0.097,-0.097 -0.17277,-0.36491 -0.16834,-0.59531 0.007,-0.34404 0.0582,-0.33261 0.28883,0.0639 0.2849,0.48992 0.20231,0.85416 -0.12049,0.53137 z m 20.482,-0.24254 c 0.0127,-0.30822 0.0754,-0.37091 0.15985,-0.15985 0.0764,0.191 0.067,0.4192 -0.0209,0.50712 -0.0879,0.0879 -0.15045,-0.0684 -0.13896,-0.34727 z m -76.600756,-0.1878 c 0.09936,-0.26093 0.247304,-0.40778 0.328765,-0.32632 0.08146,0.0815 1.68e-4,0.29496 -0.180653,0.47444 -0.261307,0.25936 -0.291698,0.22897 -0.148112,-0.14812 z m -25.549302,-0.46722 c 0,-0.15411 -0.117699,-0.20746 -0.261553,-0.11855 -0.149034,0.0921 -0.19489,-0.0121 -0.106593,-0.24217 0.132973,-0.34652 0.207622,-0.35115 0.526136,-0.0326 0.436898,0.4369 0.47435,0.67356 0.106593,0.67356 -0.145521,0 -0.264583,-0.12609 -0.264583,-0.2802 z m 75.674888,-1.10886 c 0.002,-0.67449 0.0896,-0.98967 0.21786,-0.7876 0.20122,0.31706 0.10141,1.91207 -0.11965,1.91207 -0.0562,0 -0.10044,-0.50601 -0.0982,-1.12447 z m 6.12085,-1.12448 c -10e-4,-0.87313 0.094,-1.82563 0.21177,-2.11667 0.12442,-0.30757 0.1629,0.24643 0.0919,1.32292 -0.15958,2.41949 -0.30079,2.78859 -0.30367,0.79375 z m 25.24712,0.24568 c -0.6048,-0.6048 -0.51011,-0.80995 0.11339,-0.24568 0.29105,0.26339 0.52917,0.51996 0.52917,0.57017 0,0.19662 -0.24534,0.0727 -0.64256,-0.32449 z m -65.552885,-0.55872 c 0.190996,-0.0764 0.419199,-0.067 0.507118,0.0209 0.08792,0.0879 -0.06835,0.15045 -0.347266,0.13897 -0.308224,-0.0127 -0.370919,-0.0754 -0.159852,-0.15986 z m 7.14375,-0.79375 c 0.190996,-0.0764 0.419199,-0.067 0.507118,0.0209 0.08792,0.0879 -0.06835,0.15045 -0.347266,0.13897 -0.308225,-0.0127 -0.370919,-0.0754 -0.159852,-0.15986 z m -21.385253,-1.95797 c -0.002,-0.93376 -0.07772,-1.9954 -0.168287,-2.3592 -0.133568,-0.53651 -0.09937,-0.60046 0.181021,-0.33853 0.348634,0.32567 0.473633,3.91272 0.147705,4.23865 -0.08625,0.0863 -0.158452,-0.60716 -0.160439,-1.54092 z m 32.148363,1.34839 c 0.24,-0.38831 1.19275,-0.8551 1.19275,-0.58437 0,0.12728 -0.30524,0.3705 -0.67832,0.54048 -0.38744,0.17654 -0.60804,0.19536 -0.51443,0.0439 z m 37.705255,-0.53259 c 0,-0.14552 0.11203,-0.26459 0.24897,-0.26459 0.13693,0 0.32255,0.11907 0.41249,0.26459 0.0899,0.14552 -0.0221,0.26458 -0.24897,0.26458 -0.22687,0 -0.41249,-0.11906 -0.41249,-0.26458 z m -1.01656,-2.64584 c 0,-0.3638 0.0601,-0.51263 0.13345,-0.33072 0.0734,0.1819 0.0734,0.47955 0,0.66145 -0.0734,0.1819 -0.13345,0.0331 -0.13345,-0.33073 z m 4.52229,-1.22969 c -0.47295,-0.23315 -0.8599,-0.54654 -0.8599,-0.69644 0,-0.1499 0.21774,-0.0755 0.48386,0.16534 0.26611,0.24083 0.65307,0.4397 0.85989,0.44193 0.20682,0.002 0.55464,0.11947 0.77292,0.26053 0.68876,0.44511 -0.27196,0.31412 -1.25677,-0.17136 z m -18.20436,-0.64544 c -0.0978,-0.1582 -0.0708,-0.39463 0.06,-0.52539 0.14061,-0.14061 0.23775,-0.0231 0.23775,0.28764 0,0.60119 -0.049,0.64028 -0.29774,0.23775 z m -55.722096,-0.37382 c -0.08965,-0.29105 -0.259137,-0.7673 -0.376645,-1.05834 -0.203549,-0.50415 -0.191587,-0.50729 0.253025,-0.0666 0.256672,0.25442 0.426162,0.73067 0.376645,1.05833 -0.08498,0.5623 -0.09918,0.56604 -0.253025,0.0666 z m 49.010366,-0.0221 c 0.0127,-0.30823 0.0754,-0.37092 0.15985,-0.15986 0.0764,0.191 0.067,0.4192 -0.0209,0.50712 -0.0879,0.0879 -0.15045,-0.0684 -0.13896,-0.34726 z m -0.36777,-1.00141 c -0.0839,-0.21866 -0.0104,-0.44543 0.1633,-0.50392 0.22154,-0.0746 0.23521,-0.21798 0.0458,-0.48012 -0.14855,-0.20556 -0.20625,-0.96907 -0.12822,-1.69667 0.14185,-1.32292 0.14185,-1.32292 0.35555,0.6289 0.12851,1.17372 0.11453,2.05099 -0.0351,2.2006 -0.15532,0.15532 -0.30609,0.0994 -0.40134,-0.14879 z m 6.96146,-0.69634 c 0,-0.29104 0.10792,-0.52916 0.23981,-0.52916 0.1319,0 0.17755,0.23812 0.10144,0.52916 -0.0761,0.29105 -0.18403,0.52917 -0.23982,0.52917 -0.0558,0 -0.10143,-0.23812 -0.10143,-0.52917 z m -167.845438,-0.14252 c -0.255317,-0.66534 -0.179999,-0.83702 0.131904,-0.30065 0.154435,0.26557 0.225054,0.5386 0.156932,0.60672 -0.06812,0.0681 -0.198098,-0.0696 -0.288836,-0.30607 z m 168.110018,-1.14916 c 0,-0.14552 0.11907,-0.33817 0.26459,-0.42811 0.14552,-0.0899 0.26458,-0.0445 0.26458,0.10106 0,0.14553 -0.11906,0.33817 -0.26458,0.42811 -0.14552,0.0899 -0.26459,0.0445 -0.26459,-0.10106 z m 0,-1.07395 c 0,-0.13693 0.11907,-0.32255 0.26459,-0.41249 0.14552,-0.0899 0.26458,0.0221 0.26458,0.24897 0,0.22687 -0.11906,0.41249 -0.26458,0.41249 -0.14552,0 -0.26459,-0.11204 -0.26459,-0.24897 z m -28.839585,-0.80937 c -0.23846,-0.1541 -0.2711,-0.25809 -0.0818,-0.26053 0.17331,-0.002 0.3887,0.11501 0.47864,0.26053 0.20301,0.32849 0.11142,0.32849 -0.39688,0 z m 2.38125,-1.5875 c 0,-0.14552 0.12609,-0.26458 0.2802,-0.26458 0.15411,0 0.20661,0.11906 0.11668,0.26458 -0.0899,0.14552 -0.21603,0.26459 -0.2802,0.26459 -0.0642,0 -0.11668,-0.11907 -0.11668,-0.26459 z m 22.761835,0.0103 c -0.21407,-0.13538 -0.32033,-0.31503 -0.23614,-0.39922 0.0842,-0.0842 0.30368,0.0284 0.48775,0.2502 0.38169,0.4599 0.30851,0.50325 -0.25161,0.14902 z m -26.569985,-0.69343 c -0.23744,-0.61877 -0.19494,-2.22732 0.0589,-2.22732 0.1207,0 0.23301,0.59531 0.24959,1.32291 0.0316,1.38677 -0.0413,1.60053 -0.30844,0.90441 z m 6.30612,-2.34502 c 0.28247,-0.22631 0.62974,-0.41147 0.7717,-0.41147 0.33616,0 0.18606,0.12221 -0.62383,0.50792 -0.6237,0.29704 -0.63214,0.29153 -0.14787,-0.0964 z m 5.174955,-2.1004 c 0,-0.0558 0.23829,-0.16375 0.52953,-0.23991 0.29124,-0.0762 0.46281,-0.0305 0.38126,0.10143 -0.14241,0.23043 -0.91079,0.34725 -0.91079,0.13848 z m 7.62331,-1.66681 c 0.19099,-0.0764 0.41919,-0.067 0.50711,0.0209 0.0879,0.0879 -0.0684,0.15045 -0.34726,0.13896 -0.30823,-0.0127 -0.37092,-0.0754 -0.15985,-0.15985 z m 3.75377,-0.61301 c -0.23847,-0.15411 -0.2711,-0.2581 -0.0818,-0.26053 0.17331,-0.002 0.3887,0.11501 0.47864,0.26053 0.20301,0.32849 0.11142,0.32849 -0.39688,0 z m 23.71447,-0.403 c -0.12617,-0.32878 -0.0583,-0.35143 0.36857,-0.12298 0.61332,0.32824 0.67146,0.52598 0.15464,0.52598 -0.20271,0 -0.43815,-0.18135 -0.52321,-0.403 z M 91.712455,117.283 c -0.13373,-0.21638 -0.0845,-0.24896 0.1537,-0.10173 0.24931,0.15408 0.30499,0.0982 0.19297,-0.19376 -0.11779,-0.30695 -0.0265,-0.37608 0.36241,-0.27438 0.28592,0.0748 0.48537,0.15451 0.44322,0.17721 -0.0421,0.0227 -0.2744,0.19195 -0.51611,0.37612 -0.34004,0.2591 -0.48396,0.26284 -0.63619,0.0165 z m 23.631395,0.11739 c 0.1819,-0.0734 0.47956,-0.0734 0.66146,0 0.1819,0.0734 0.0331,0.13345 -0.33073,0.13345 -0.3638,0 -0.51263,-0.0601 -0.33073,-0.13345 z m 18.05781,-0.61852 -0.66146,-0.21184 0.66146,-0.0223 c 0.3638,-0.0123 0.84005,0.0931 1.05833,0.23416 0.35278,0.22798 0.35278,0.254 0,0.23416 -0.21828,-0.0123 -0.69453,-0.11765 -1.05833,-0.23416 z m -5.75469,-0.44697 c 0.25467,-0.0666 0.67138,-0.0666 0.92605,0 0.25466,0.0665 0.0463,0.121 -0.46303,0.121 -0.50932,0 -0.71768,-0.0545 -0.46302,-0.121 z m 2.2655,0.002 c 0.19099,-0.0764 0.4192,-0.067 0.50712,0.0209 0.0879,0.0879 -0.0683,0.15045 -0.34727,0.13897 -0.30822,-0.0127 -0.37092,-0.0754 -0.15985,-0.15986 z M 28.511378,114.58773 c 0.09936,-0.26093 0.247304,-0.40778 0.328766,-0.32632 0.08146,0.0815 1.68e-4,0.29496 -0.180654,0.47444 -0.261306,0.25936 -0.291697,0.22897 -0.148112,-0.14812 z m 69.700697,-0.21321 c 0,-0.29237 1.06839,-0.30793 1.5184,-0.0221 0.19809,0.12581 -0.0375,0.21854 -0.59531,0.23435 -0.5077,0.0144 -0.92309,-0.0811 -0.92309,-0.21223 z m 2.452435,-1.2155 c 0.25743,-0.0671 0.61462,-0.0627 0.79375,0.01 0.17913,0.0725 -0.0315,0.12737 -0.46806,0.12197 -0.43656,-0.005 -0.58312,-0.0647 -0.32569,-0.13177 z m 1.97934,0.008 c 0.1819,-0.0734 0.47956,-0.0734 0.66146,0 0.1819,0.0734 0.0331,0.13345 -0.33073,0.13345 -0.3638,0 -0.51263,-0.0601 -0.33073,-0.13345 z m 6.79744,-1.02382 c 0.66848,-0.50561 1.0992,-0.50026 0.67704,0.008 -0.18116,0.21828 -0.52316,0.39309 -0.76,0.38846 -0.36177,-0.007 -0.34851,-0.0705 0.083,-0.39688 z m -2.23338,0.0393 c 0,-0.24059 1.03142,-0.34281 1.35978,-0.13478 0.24477,0.15509 0.0847,0.2294 -0.49988,0.23216 -0.47295,0.002 -0.8599,-0.0416 -0.8599,-0.0974 z m 10.98021,-0.69232 c -0.0899,-0.14552 0.0291,-0.26458 0.26458,-0.26458 0.23546,0 0.35452,0.11906 0.26459,0.26458 -0.0899,0.14552 -0.209,0.26458 -0.26459,0.26458 -0.0556,0 -0.17464,-0.11906 -0.26458,-0.26458 z m 1.93477,0.0838 c 0.19099,-0.0764 0.41919,-0.067 0.50711,0.0209 0.0879,0.0879 -0.0684,0.15045 -0.34726,0.13897 -0.30823,-0.0127 -0.37092,-0.0754 -0.15985,-0.15986 z M -61.331672,100.89134 c 0,-0.15411 0.119063,-0.20661 0.264583,-0.11667 0.145521,0.0899 0.264584,0.21602 0.264584,0.28019 0,0.0642 -0.119063,0.11668 -0.264584,0.11668 -0.14552,0 -0.264583,-0.12609 -0.264583,-0.2802 z m 83.079164,-3.672935 c 0,-0.136933 0.117699,-0.32171 0.261553,-0.410617 0.149982,-0.09269 0.194339,0.01351 0.103984,0.248968 -0.175892,0.458369 -0.365537,0.542234 -0.365537,0.161649 z m 3.704167,-2.609047 c 0,-0.165207 -0.179944,-0.231326 -0.399876,-0.14693 -0.286132,0.109799 -0.35334,0.03218 -0.236275,-0.272888 0.08998,-0.234483 0.27366,-0.426333 0.408179,-0.426333 0.308821,0 0.613484,0.761016 0.39295,0.981549 -0.09074,0.09074 -0.164978,0.02981 -0.164978,-0.135398 z m -0.624243,-1.960136 c -0.08926,-0.333194 -0.151947,-0.843932 -0.139317,-1.134974 0.01263,-0.291041 0.131941,-0.06471 0.265134,0.502956 0.257952,1.099395 0.147718,1.653138 -0.125817,0.632018 z m 8.868102,-4.442266 c 0,-0.363802 0.06005,-0.51263 0.133453,-0.330729 0.0734,0.181901 0.0734,0.479558 0,0.661459 -0.0734,0.181901 -0.133453,0.03307 -0.133453,-0.33073 z m 29.895594,-0.70555 c -0.196581,-0.213177 -0.302844,-0.442171 -0.23614,-0.508874 0.0667,-0.0667 0.274275,0.06307 0.461269,0.288383 0.441633,0.532134 0.24229,0.727371 -0.225129,0.220491 z M 33.786034,86.88404 c 0.08994,-0.145521 0.216026,-0.264584 0.280198,-0.264584 0.06417,0 0.116677,0.119063 0.116677,0.264584 0,0.145521 -0.126089,0.264583 -0.280199,0.264583 -0.154109,0 -0.206613,-0.119062 -0.116676,-0.264583 z m -0.111706,-1.190625 c -0.03525,-0.291042 -0.114723,-0.886354 -0.176596,-1.322917 -0.09278,-0.654616 -0.06291,-0.711589 0.170386,-0.325027 0.155586,0.257798 0.235055,0.85311 0.176597,1.322917 -0.05846,0.469806 -0.135132,0.616068 -0.170387,0.325027 z M 11.999686,83.70904 c 0,-0.363802 0.06005,-0.512631 0.133452,-0.330729 0.0734,0.181901 0.0734,0.479557 0,0.661458 -0.0734,0.181901 -0.133452,0.03307 -0.133452,-0.330729 z m 16.649621,0.132291 c 0.02755,-0.50118 0.468513,-1.345101 0.483871,-0.926041 0.008,0.218281 -0.100872,0.575468 -0.241936,0.79375 -0.141064,0.218281 -0.249935,0.277812 -0.241935,0.132291 z m -48.798409,-0.785276 c -0.08197,-0.213621 -0.0599,-0.443498 0.04906,-0.510837 0.108957,-0.06734 0.21542,0.107441 0.236585,0.388401 0.04577,0.607633 -0.07894,0.66109 -0.285645,0.122436 z m 53.325258,-1.595974 c 0.0054,-0.436562 0.06469,-0.583124 0.131773,-0.325693 0.06708,0.257431 0.06267,0.614618 -0.0098,0.79375 -0.07247,0.179131 -0.127362,-0.03149 -0.121969,-0.468057 z m -3.079187,0.156727 c -0.08163,-0.132081 -0.04046,-0.519035 0.09149,-0.859896 0.219971,-0.568247 0.238654,-0.548291 0.224832,0.240148 -0.01584,0.903316 -0.07248,1.014292 -0.31632,0.619748 z m -89.691838,-2.218659 c 0.09936,-0.260937 0.247303,-0.407781 0.328765,-0.326319 0.08146,0.08146 1.68e-4,0.294956 -0.180653,0.474432 -0.261307,0.259362 -0.291698,0.228971 -0.148112,-0.148113 z M 32.88088,78.527616 c 0.0127,-0.308225 0.07539,-0.370919 0.159853,-0.159853 0.07643,0.190997 0.06703,0.4192 -0.02089,0.507119 -0.08792,0.08792 -0.150453,-0.06835 -0.138965,-0.347266 z m -92.095885,-0.359212 c 0,-0.136932 0.117698,-0.32171 0.261552,-0.410616 0.149982,-0.09269 0.194339,0.01351 0.103985,0.248968 -0.175893,0.458369 -0.365537,0.542234 -0.365537,0.161648 z m -10.297862,-1.757455 c 0.0127,-0.308224 0.07539,-0.370919 0.159853,-0.159852 0.07643,0.190996 0.06703,0.419199 -0.02089,0.507118 -0.08792,0.08792 -0.150452,-0.06835 -0.138963,-0.347266 z m 101.070831,0 c 0.0127,-0.308224 0.07539,-0.370919 0.159852,-0.159852 0.07643,0.190996 0.06703,0.419199 -0.02089,0.507118 -0.08792,0.08792 -0.150453,-0.06835 -0.138964,-0.347266 z m 1.302028,-0.343596 c 0,-0.291042 0.119063,-0.602752 0.264583,-0.692689 0.145521,-0.08994 0.264584,0.0746 0.264584,0.365646 0,0.291041 -0.119063,0.602751 -0.264584,0.692688 -0.14552,0.08994 -0.264583,-0.0746 -0.264583,-0.365645 z m -50.006248,-0.280199 c 0,-0.136932 0.117698,-0.32171 0.261552,-0.410616 0.149982,-0.09269 0.194339,0.01351 0.103984,0.248968 -0.175892,0.458369 -0.365536,0.542234 -0.365536,0.161648 z m -52.040929,-1.735406 c 0.0015,-0.873125 0.05088,-1.198415 0.109765,-0.722866 0.05889,0.475549 0.05767,1.189924 -0.0027,1.5875 -0.06037,0.397576 -0.108551,0.0085 -0.107065,-0.864634 z m 100.745149,0.242534 c 0.0127,-0.308224 0.07539,-0.370919 0.159852,-0.159852 0.07643,0.190996 0.06703,0.419199 -0.02089,0.507118 -0.08792,0.08792 -0.150453,-0.06835 -0.138964,-0.347266 z m -47.360416,-1.5875 c 0.0127,-0.308224 0.07539,-0.370919 0.159853,-0.159852 0.07643,0.190996 0.06703,0.419199 -0.02089,0.507118 -0.08792,0.08792 -0.150453,-0.06835 -0.138965,-0.347266 z m 27.235246,-2.160763 c 0.0022,-0.109141 0.119468,-0.377032 0.260532,-0.595313 0.2074,-0.320929 0.257256,-0.282956 0.260532,0.198437 0.0022,0.327422 -0.115011,0.595313 -0.260532,0.595313 -0.145521,0 -0.26276,-0.0893 -0.260532,-0.198437 z M 61.54386,70.377798 c -0.158403,-0.172308 -0.207102,-0.543924 -0.108221,-0.825815 0.15207,-0.433517 0.203064,-0.391305 0.330788,0.273827 0.177169,0.922617 0.159177,0.96724 -0.222567,0.551988 z m 24.782852,-0.316849 c 0.0127,-0.308224 0.07539,-0.370919 0.159853,-0.159852 0.07643,0.190996 0.06703,0.419199 -0.02089,0.507118 -0.08792,0.08792 -0.150452,-0.06835 -0.138963,-0.347266 z m -1.608388,-0.507118 c 0,-0.218281 0.04679,-0.396875 0.103984,-0.396875 0.05719,0 0.172517,0.178594 0.25628,0.396875 0.08376,0.218281 0.03697,0.396875 -0.103985,0.396875 -0.140953,0 -0.256279,-0.178594 -0.256279,-0.396875 z m 0.173984,-1.045093 c -0.09175,-0.239095 0.02723,-0.307956 0.374978,-0.217018 0.607937,0.158979 0.631326,0.232656 0.134393,0.423347 -0.206238,0.07914 -0.435455,-0.01371 -0.509371,-0.206329 z m 2.207266,-0.3945 c 0,-0.136933 0.117699,-0.321711 0.261553,-0.410617 0.149981,-0.09269 0.194338,0.01351 0.103984,0.248968 -0.175893,0.458369 -0.365537,0.542234 -0.365537,0.161649 z M -68.719117,66.621366 c 0.0127,-0.308225 0.07539,-0.37092 0.159853,-0.159853 0.07643,0.190996 0.06703,0.419199 -0.02089,0.507118 -0.08792,0.08792 -0.150452,-0.06835 -0.138963,-0.347265 z m 55.971172,-0.252764 c -0.255318,-0.665346 -0.179999,-0.837024 0.131903,-0.300656 0.154435,0.265576 0.225055,0.538602 0.156933,0.606724 -0.06812,0.06812 -0.198098,-0.06961 -0.288836,-0.306068 z"
       id="path3" /></g></svg>
