<?xml version="1.0" encoding="UTF-8" standalone="no"?>
<!-- Created with Inkscape (http://www.inkscape.org/) -->

<svg
   width="362.47916mm"
   height="155.04584mm"
   viewBox="0 0 362.47916 155.04584"
   version="1.1"
   id="svg1"
   xml:space="preserve"
   xmlns="http://www.w3.org/2000/svg"
   xmlns:svg="http://www.w3.org/2000/svg"><defs
     id="defs1" /><g
     id="layer1"
     transform="translate(72.52259,-65.897597)"><path
       style="fill:#000000"
       d="m -72.517726,146.18533 c 0.0032,-49.086373 0.09449,-74.702803 0.265867,-74.596883 0.143551,0.0887 0.261002,0.0423 0.261002,-0.10328 0,-0.14552 -0.119062,-0.33817 -0.264583,-0.4281 -0.146159,-0.0903 -0.264584,-1.28157 -0.264584,-2.66145 v -2.49793 h 7.14375 c 7.14375,0 7.14375,0 7.161657,0.59531 0.01791,0.59532 0.01791,0.59532 0.305016,0 0.287108,-0.59531 0.287108,-0.59531 55.5445907,-0.59531 52.4465803,0 55.2579113,0.0236 55.2658983,0.46302 0.008,0.44098 0.02515,0.44098 0.359897,0 0.26761,-0.35253 0.739126,-0.46302 1.97596,-0.46302 1.46361,0 1.624478,0.054 1.624478,0.54478 0,0.29963 0.113862,0.47441 0.253028,0.38841 0.139165,-0.086 0.186398,-0.33002 0.104961,-0.54224 -0.129509,-0.3375 8.822788,-0.38631 71.426648,-0.3895 57.1409,-0.003 71.60169,0.0633 71.70852,0.32819 0.10658,0.26428 0.13807,0.26451 0.15471,10e-4 0.0166,-0.2632 9.15133,-0.33073 44.73547,-0.33073 h 44.71458 v 77.522913 77.52292 H 108.71828 -72.52259 Z M 37.54664,205.48102 c 0,-0.0642 -0.119062,-0.19026 -0.264583,-0.2802 -0.145521,-0.0899 -0.264584,-0.0374 -0.264584,0.11668 0,0.15411 0.119063,0.2802 0.264584,0.2802 0.145521,0 0.264583,-0.0525 0.264583,-0.11668 z m -11.187615,-1.35795 c -0.227783,-0.74218 -0.215171,-0.9918 0.05866,-1.16104 0.669616,-0.41385 0.05799,-0.77363 -0.778441,-0.45791 -0.543186,0.20503 -0.792606,0.47887 -0.792606,0.87023 0,0.63301 0.599594,1.27097 0.906289,0.96428 0.107878,-0.10788 0.172121,-0.0771 0.142761,0.0684 -0.09746,0.48308 0.0054,0.66146 0.381394,0.66146 0.30447,0 0.319364,-0.17186 0.08194,-0.94546 z m 4.933879,-0.77281 c -0.08344,-0.21745 -0.258299,-0.32948 -0.388571,-0.24897 -0.373572,0.23088 -0.276222,0.64432 0.151712,0.64432 0.23603,0 0.329014,-0.1552 0.236859,-0.39535 z m -2.218634,-5.70072 c -0.161761,-0.30226 -0.119904,-0.43032 0.140648,-0.43032 0.20402,0 0.293796,0.12899 0.199503,0.28663 -0.09429,0.15765 0.04855,0.10804 0.317424,-0.11024 0.453381,-0.36807 0.455686,-0.40335 0.03176,-0.48608 -0.425376,-0.083 -0.423645,-0.11458 0.02494,-0.45461 0.378434,-0.28686 0.396741,-0.36531 0.08517,-0.36501 -0.506653,5e-4 -1.418321,0.75979 -1.825287,1.52021 -0.295409,0.55198 -0.265487,0.58567 0.470325,0.52961 0.635895,-0.0485 0.741871,-0.14197 0.555508,-0.49019 z m 9.799338,0.0768 c 0.01271,-0.6227 0.476287,-0.90465 1.01413,-0.6168 0.48696,0.26061 0.57719,0.21454 0.72379,-0.36956 0.09211,-0.36701 0.273633,-0.66729 0.403378,-0.66729 0.129745,0 0.236428,-0.20835 0.237074,-0.46302 6.45e-4,-0.25466 0.950187,-1.47505 2.110093,-2.71198 1.159906,-1.23692 2.115665,-2.48708 2.123908,-2.77812 0.0209,-0.73775 0.582368,-1.39513 1.056492,-1.23697 0.339198,0.11316 0.344509,0.069 0.03655,-0.30413 -0.427364,-0.51775 -0.188362,-1.3519 0.330319,-1.15286 0.199322,0.0765 0.495974,0.006 0.659228,-0.15776 0.368177,-0.36817 0.390916,-1.24932 0.03224,-1.24932 -0.14552,0 -0.264583,-0.1318 -0.264583,-0.29289 0,-0.16109 0.182052,-0.22303 0.404561,-0.13765 0.294337,0.11295 0.45045,-0.0742 0.572991,-0.68691 0.147453,-0.73726 0.196558,-0.77779 0.394247,-0.32538 0.167983,0.38443 0.19431,0.30644 0.102798,-0.30452 -0.06766,-0.45173 0.01837,-0.9627 0.191169,-1.1355 0.242525,-0.24253 0.22417,-0.37771 -0.08048,-0.59271 -0.329875,-0.2328 -0.318653,-0.25408 0.06836,-0.12958 0.254661,0.0819 0.463021,0.0336 0.463021,-0.10733 0,-0.14096 0.234388,-0.25628 0.520862,-0.25628 0.377109,0 0.474234,-0.12152 0.351913,-0.44028 -0.10523,-0.27422 -0.06355,-0.37514 0.110515,-0.26756 0.468067,0.28928 0.600735,-0.91266 0.188687,-1.70947 -0.34932,-0.67551 -0.341466,-0.79703 0.08031,-1.24262 1.270738,-1.34245 1.395157,-1.60329 1.087169,-2.27925 -0.297169,-0.65222 -0.297169,-0.65222 -0.789864,-0.0259 -0.270982,0.3445 -0.420103,0.81553 -0.33138,1.04674 0.100785,0.26264 0.02016,0.42038 -0.214864,0.42038 -0.382256,0 -1.267937,1.56476 -1.267937,2.24011 0,0.20353 -0.233988,0.44433 -0.519975,0.5351 -0.341506,0.10839 -0.580257,0.50046 -0.69561,1.14231 -0.188711,1.05003 -0.883613,2.43248 -1.222711,2.43248 -0.114145,0 -0.210184,0.14883 -0.21342,0.33073 -0.0032,0.1819 -0.23678,0.62839 -0.518987,0.99219 -0.507348,0.65404 -0.507359,0.66591 -10e-4,1.05833 0.389712,0.30205 0.444532,0.4917 0.229445,0.79375 -0.237976,0.3342 -0.259086,0.32375 -0.133663,-0.0661 0.08192,-0.25467 0.03362,-0.46303 -0.107333,-0.46303 -0.140954,0 -0.25628,0.12609 -0.25628,0.2802 0,0.15411 -0.121004,0.20542 -0.268899,0.11401 -0.147895,-0.0914 -0.18903,-0.29542 -0.09141,-0.45337 0.09967,-0.16127 0.05561,-0.21186 -0.100505,-0.11537 -0.152896,0.0945 -0.253431,0.65286 -0.223412,1.2408 0.05349,1.04762 -0.369636,1.77708 -0.856322,1.47629 -0.49175,-0.30391 -1.162901,0.82613 -0.981412,1.65244 0.15076,0.68641 0.09299,0.80242 -0.437063,0.87767 -0.390442,0.0554 -0.772751,0.42078 -1.059745,1.01275 -0.447729,0.92351 -1.437014,2.02264 -3.050209,3.3889 -0.644156,0.54555 -0.813674,0.86473 -0.696745,1.31187 0.140442,0.53705 0.880993,0.86339 0.890608,0.39246 z m -14.556134,-1.80155 c 0,-0.22687 -0.119063,-0.33891 -0.264584,-0.24897 -0.14552,0.0899 -0.264583,0.27556 -0.264583,0.41249 0,0.13693 0.119063,0.24897 0.264583,0.24897 0.145521,0 0.264584,-0.18562 0.264584,-0.41249 z m 143.404166,-4.35001 c 0,-0.14552 -0.21967,-0.26459 -0.48816,-0.26459 -0.26848,0 -0.7062,-0.24093 -0.9727,-0.53541 -0.32527,-0.35942 -0.57213,-0.44784 -0.75098,-0.269 -0.30731,0.30731 -0.32801,0.28723 0.88893,0.86221 1.10592,0.52252 1.32291,0.55644 1.32291,0.20679 z m 30.95625,-8.63019 c 0,-0.21828 -0.11906,-0.32329 -0.26458,-0.23335 -0.14552,0.0899 -0.26459,0.34211 -0.26459,0.56039 0,0.21828 0.11907,0.32329 0.26459,0.23336 0.14552,-0.0899 0.26458,-0.34212 0.26458,-0.5604 z M 56.969473,177.35342 c -0.117535,-0.40018 -0.229693,-1.29318 -0.249241,-1.98444 -0.05141,-1.81791 -0.289545,-1.78893 -0.498805,0.0607 -0.18858,1.66682 -0.05606,2.25644 0.438458,1.95081 0.187427,-0.11583 0.231032,-0.023 0.122313,0.26027 -0.09313,0.2427 -0.04107,0.44028 0.116012,0.44028 0.186285,0 0.210962,-0.25196 0.07126,-0.72761 z m -4.87075,-2.84427 c 0.272161,-0.71583 1.058333,-0.91238 1.058333,-0.26458 0,0.21828 0.115326,0.39687 0.25628,0.39687 0.140953,0 0.187228,-0.17994 0.102833,-0.39987 -0.110723,-0.28854 -0.03231,-0.35339 0.281643,-0.23292 0.384648,0.14761 0.397574,0.0789 0.111498,-0.59231 -0.177976,-0.4176 -0.420041,-0.87238 -0.537923,-1.01062 -0.347695,-0.40776 -0.2455,-1.13528 0.182544,-1.29954 0.218282,-0.0838 0.396875,-0.44666 0.396875,-0.80644 0,-0.35978 0.121005,-0.72893 0.268899,-0.82034 0.147895,-0.0914 0.195447,-0.28504 0.105671,-0.4303 -0.08978,-0.14526 0.08688,-0.32951 0.392559,-0.40945 0.363565,-0.0951 0.555788,-0.35804 0.555788,-0.76032 0,-0.33825 0.109902,-0.68291 0.244227,-0.76593 0.134325,-0.083 0.322379,-0.50676 0.417898,-0.94166 0.109606,-0.49903 0.339295,-0.79071 0.62266,-0.79071 0.35933,0 0.43008,-0.1983 0.354293,-0.99299 -0.06891,-0.72264 0.05525,-1.16588 0.456029,-1.62799 0.302899,-0.34924 0.562805,-0.70607 0.577569,-0.79294 0.01476,-0.0869 0.06877,-0.62377 0.120016,-1.19309 0.05125,-0.56932 0.229098,-1.11914 0.395229,-1.22181 0.166131,-0.10268 0.314314,-0.61913 0.329296,-1.14768 0.01498,-0.52855 0.122706,-0.961 0.239387,-0.961 0.11668,0 0.212146,-0.22539 0.212146,-0.50086 0,-0.27547 0.178594,-0.56939 0.396875,-0.65316 0.218281,-0.0838 0.396875,-0.38713 0.396875,-0.67415 0,-0.28702 0.121004,-0.59664 0.268899,-0.68804 0.147894,-0.0914 0.195442,-0.28505 0.10566,-0.43032 -0.28047,-0.45381 -1.745323,1.4246 -1.620987,2.07862 0.06141,0.32302 0.0098,0.52436 -0.11471,0.44741 -0.124499,-0.0769 -0.226362,-0.001 -0.226362,0.16861 0,0.16967 -0.174773,0.24144 -0.388384,0.15947 -0.299933,-0.1151 -0.380352,0.0646 -0.353121,0.78893 0.01939,0.51588 -0.08241,1.01669 -0.226228,1.11291 -0.299042,0.20008 -0.356706,0.33728 -1.574313,3.74587 -0.493645,1.38192 -0.897537,2.72988 -0.897537,2.99546 0,0.26558 -0.179689,0.66257 -0.399307,0.88219 -0.219619,0.21961 -0.331655,0.50877 -0.248969,0.64255 0.08269,0.13379 -0.03301,0.24326 -0.25711,0.24326 -0.224097,0 -0.482156,0.29765 -0.573465,0.66146 -0.20665,0.82336 -0.554798,0.86709 -0.526533,0.0661 0.0162,-0.4592 -0.145353,-0.61445 -0.706596,-0.67903 -0.400182,-0.0461 -0.727604,0.0321 -0.727604,0.17367 0,0.14156 0.224688,0.19863 0.499306,0.12681 0.274619,-0.0718 0.579302,-0.001 0.677074,0.15706 0.09777,0.1582 0.05168,0.28764 -0.102431,0.28764 -0.154109,0 -0.280199,0.16605 -0.280199,0.36901 0,0.2841 -0.210037,0.32164 -0.912795,0.16314 -0.502038,-0.11323 -0.978288,-0.14038 -1.058333,-0.0603 -0.08005,0.08 -0.145538,0.0231 -0.145538,-0.12645 0,-0.1496 -0.297657,-0.21509 -0.661459,-0.14555 -0.520364,0.0995 -0.661458,0.28653 -0.661458,0.87691 0,1.76924 1.182778,2.73915 1.913486,1.5691 0.181759,-0.29104 0.595749,-0.52917 0.91998,-0.52917 0.441135,0 0.546986,-0.11081 0.420559,-0.44027 -0.113601,-0.29604 -0.06754,-0.37761 0.140595,-0.24897 0.421784,0.26067 0.390349,2.01471 -0.05563,3.10433 -0.538498,1.31565 -0.749237,2.08283 -0.572142,2.08283 0.08617,0 0.269839,-0.29766 0.408156,-0.66146 z m -28.481371,-0.82441 c 0.409957,-0.85969 0.415835,-1.01833 0.05797,-1.56451 -0.219037,-0.33429 -0.784663,-0.69267 -1.256947,-0.7964 -0.502541,-0.11038 -1.331668,-0.67526 -1.99904,-1.36193 -0.815854,-0.83945 -1.280559,-1.12883 -1.633099,-1.01694 -0.375767,0.11927 -0.541278,-0.0183 -0.697134,-0.57929 -0.112408,-0.40463 -0.263386,-0.91428 -0.335506,-1.13256 -0.183611,-0.55572 -0.153308,-2.46559 0.05211,-3.28402 0.09452,-0.3766 0.341153,-0.68473 0.548074,-0.68473 0.568043,0 0.682451,-0.36404 0.411414,-1.30909 -0.209984,-0.73217 -0.184454,-0.83192 0.177381,-0.69307 0.352229,0.13516 0.366939,0.095 0.08826,-0.24074 -0.276113,-0.3327 -0.259576,-0.40293 0.09487,-0.40293 0.2361,0 0.429272,-0.17012 0.429272,-0.37804 0,-0.5138 1.775409,-2.36553 1.902494,-1.98427 0.06616,0.19848 0.225397,0.15404 0.459704,-0.12828 0.31206,-0.37601 0.297567,-0.40857 -0.111919,-0.25143 -0.335378,0.12869 -0.434349,0.0735 -0.344802,-0.19238 0.06908,-0.20509 0.412747,-0.38204 0.763706,-0.39323 1.14947,-0.0366 1.699236,-0.35952 2.202187,-1.29345 0.272489,-0.50598 0.586487,-0.86369 0.697774,-0.79491 0.111287,0.0688 0.143821,-0.0987 0.0723,-0.37223 -0.118446,-0.45294 -1.093193,-1.09095 -1.66674,-1.09095 -0.128552,0 -0.271778,0.26789 -0.318279,0.59531 -0.0531,0.37392 -0.267744,0.59532 -0.57714,0.59532 -0.270925,0 -1.312722,0.78667 -2.315104,1.74815 -1.002382,0.96149 -1.822957,1.67586 -1.823501,1.5875 -5.44e-4,-0.0884 -0.249033,0.25606 -0.552196,0.76539 -0.303164,0.50932 -0.690017,1.0451 -0.859673,1.19062 -1.454555,1.24763 -2.125896,6.73518 -0.984919,8.05074 0.281952,0.32509 0.455127,0.74095 0.384834,0.92413 -0.202176,0.52687 0.513522,0.94424 2.213911,1.29109 0.865867,0.17662 1.772301,0.48545 2.014297,0.68629 0.408428,0.33896 0.402647,0.42846 -0.0806,1.24749 -0.297488,0.50421 -0.412896,0.94889 -0.269296,1.03764 0.138211,0.0854 0.251293,0.0292 0.251293,-0.12489 0,-0.15411 0.178594,-0.2802 0.396875,-0.2802 0.218281,0 0.396875,0.17185 0.396875,0.38188 0,0.40316 0.975158,1.20562 1.465076,1.20562 0.15895,0 0.494298,-0.43051 0.745218,-0.9567 z m -7.590156,-6.09885 c -0.308376,-0.30838 -0.199857,-2.99861 0.120958,-2.99861 0.198348,0 0.257512,0.48035 0.177702,1.44276 -0.07519,0.90674 -0.02303,1.38304 0.140409,1.28203 0.144915,-0.0896 0.176468,-0.0255 0.07127,0.14474 -0.219043,0.35442 -0.271678,0.36774 -0.510335,0.12908 z m 0.749653,-1.14653 c -0.08994,-0.14552 -0.03743,-0.26458 0.116677,-0.26458 0.154109,0 0.280198,0.11906 0.280198,0.26458 0,0.14552 -0.05251,0.26458 -0.116677,0.26458 -0.06417,0 -0.190261,-0.11906 -0.280198,-0.26458 z m 1.719792,-7.01146 c 0,-0.21828 0.119062,-0.39687 0.264583,-0.39687 0.145521,0 0.264583,0.17859 0.264583,0.39687 0,0.21828 -0.119062,0.39688 -0.264583,0.39688 -0.145521,0 -0.264583,-0.1786 -0.264583,-0.39688 z m 4.894791,-3.04271 c 0.08994,-0.14552 0.282584,-0.26458 0.428105,-0.26458 0.145521,0 0.190999,0.11906 0.101062,0.26458 -0.08994,0.14552 -0.282584,0.26459 -0.428105,0.26459 -0.145521,0 -0.190999,-0.11907 -0.101062,-0.26459 z M 54.660714,171.946 c -0.08446,-0.21107 -0.147157,-0.14837 -0.159853,0.15985 -0.01149,0.27892 0.05105,0.43519 0.138964,0.34727 0.08792,-0.0879 0.09732,-0.31612 0.02089,-0.50712 z M 220.333,171.31245 c -0.21874,-0.21867 -0.4958,-0.2697 -0.71811,-0.13225 -0.28877,0.17853 -0.23588,0.34986 0.26155,0.84729 0.57531,0.57532 0.63081,0.58554 0.71811,0.13225 0.052,-0.27019 -0.0657,-0.65147 -0.26155,-0.84729 z m -53.93427,0.15399 c 0,-0.14552 -0.20836,-0.26276 -0.46303,-0.26053 -0.39569,0.003 -0.40531,0.0413 -0.0661,0.26053 0.49932,0.32269 0.52917,0.32269 0.52917,0 z m 25.04606,-0.59531 c -0.0734,-0.1819 -0.13346,-0.0331 -0.13346,0.33073 0,0.3638 0.0601,0.51263 0.13346,0.33073 0.0734,-0.1819 0.0734,-0.47956 0,-0.66146 z m 15.96435,-1.34278 c 0,-0.48706 -0.0474,-0.50818 -0.37946,-0.16912 -0.20871,0.21308 -0.45513,0.74461 -0.54761,1.18117 -0.16814,0.79375 -0.16814,0.79375 0.37947,0.16913 0.30118,-0.34354 0.5476,-0.87507 0.5476,-1.18118 z m -139.841258,0.63448 c 0.637709,-0.25537 0.712087,-0.36426 0.396875,-0.58099 -0.304216,-0.20918 -0.272834,-0.23484 0.145452,-0.11894 0.382341,0.10595 0.607891,-0.0203 0.796579,-0.44568 0.14477,-0.32642 0.469023,-0.57716 0.720562,-0.55721 0.251539,0.0199 0.392068,-0.0693 0.312285,-0.19844 -0.13479,-0.21809 0.778384,-0.34966 1.767968,-0.25472 0.476171,0.0457 1.182271,-1.36941 0.906197,-1.8161 -0.537747,-0.8701 -5.22568,0.4989 -5.584979,1.63095 -0.254481,0.8018 -0.911933,1.26349 -1.799206,1.26349 -0.469824,0 -0.997101,-0.14287 -1.171726,-0.3175 -0.246944,-0.24694 -0.3175,-0.21754 -0.3175,0.1323 0,0.24738 -0.127086,0.44979 -0.282413,0.44979 -0.162239,0 -0.210769,-0.22573 -0.114048,-0.53047 0.11932,-0.37595 0.02817,-0.57426 -0.3129,-0.68077 -0.264695,-0.0827 -0.689623,-0.26169 -0.944284,-0.39782 -0.537447,-0.28729 -0.575627,-0.15406 -0.171984,0.60015 0.272652,0.50946 0.230275,0.53672 -0.670838,0.43152 -1.21997,-0.14243 -1.197792,0.44069 0.04202,1.1048 0.469063,0.25126 0.77245,0.53723 0.674193,0.63548 -0.30143,0.30143 4.77176,-0.0151 5.607749,-0.34984 z m -3.033743,-0.0293 c 0,-0.21551 -0.309951,-0.2612 -0.992187,-0.14625 -0.77471,0.13053 -0.889698,0.10455 -0.524606,-0.11855 0.557525,-0.34068 2.442835,-0.23346 2.442835,0.13893 0,0.14353 -0.208359,0.30109 -0.463021,0.35013 -0.254661,0.049 -0.463021,-0.0519 -0.463021,-0.22426 z m 7.408333,-1.31287 c 0.218282,-0.14106 0.277813,-0.25648 0.132292,-0.25648 -0.145521,0 -0.443177,0.11542 -0.661458,0.25648 -0.218281,0.14107 -0.277813,0.25648 -0.132292,0.25648 0.145521,0 0.443177,-0.11541 0.661458,-0.25648 z m 3.64733,-2.31167 c 0.395062,-0.25278 0.876408,-0.61074 1.069656,-0.79549 0.193248,-0.18474 0.580201,-0.45836 0.859896,-0.60805 0.635791,-0.34026 0.672633,-0.82526 0.04551,-0.59916 -0.254661,0.0918 -0.08111,-0.17981 0.385678,-0.60362 0.466785,-0.4238 0.969854,-1.09797 1.117931,-1.49816 0.148077,-0.40018 0.450772,-0.7276 0.672655,-0.7276 0.238538,0 0.403424,-0.23651 0.403424,-0.57867 0,-0.56372 -0.01917,-0.5603 -0.742082,0.13229 -0.842378,0.80705 -1.374585,0.91436 -1.374585,0.27717 0,-0.24933 -0.292465,0.004 -0.68776,0.59531 -0.780276,1.16754 -2.229805,2.7489 -2.519742,2.7489 -0.106304,0 -0.247731,-0.20836 -0.314281,-0.46302 -0.06655,-0.25466 -0.134811,0.22159 -0.151692,1.05833 -0.03333,1.652 0.114433,1.77899 1.235388,1.06177 z m -14.156744,-1.13841 c -0.07762,-0.29681 -0.200243,-0.48054 -0.2725,-0.40828 -0.143137,0.14313 0.109694,0.94794 0.297799,0.94794 0.0637,0 0.05232,-0.24284 -0.0253,-0.53966 z m 20.828164,-0.25409 c 0,-0.14552 -0.09355,-0.26458 -0.207887,-0.26458 -0.114338,0 -0.207887,-0.22938 -0.207887,-0.50974 0,-0.28036 0.113783,-0.43942 0.25285,-0.35347 0.145449,0.0899 0.178847,-0.0366 0.07863,-0.29775 -0.100586,-0.26213 -0.06695,-0.38773 0.07957,-0.29717 0.139588,0.0863 0.329725,-0.14567 0.422527,-0.51542 0.0928,-0.36976 0.334418,-0.67228 0.536924,-0.67228 0.498188,0 0.46395,-0.16883 -0.160975,-0.79375 -0.411574,-0.41158 -0.529167,-0.44097 -0.529167,-0.13229 0,0.21828 -0.238125,0.635 -0.529166,0.92604 -0.291042,0.29104 -0.529167,0.60534 -0.529167,0.69843 0,0.0931 -0.178585,0.30146 -0.396856,0.46302 -0.348041,0.25762 -0.332247,0.39953 0.128402,1.15365 0.506972,0.82996 1.062204,1.14114 1.062204,0.59531 z m -20.340084,-1.92268 c -0.261307,-0.25937 -0.291698,-0.22898 -0.148113,0.14811 0.09936,0.26094 0.247304,0.40778 0.328766,0.32632 0.08146,-0.0815 1.68e-4,-0.29496 -0.180653,-0.47443 z m 25.170329,-0.92164 c 0.17654,-0.40018 0.548366,-0.89522 0.82628,-1.10009 0.488897,-0.3604 0.489535,-0.38402 0.01965,-0.72761 -0.557971,-0.40799 -1.552693,-0.48232 -1.315343,-0.0983 0.0873,0.14125 -0.142975,0.33255 -0.511723,0.4251 -0.368748,0.0925 -0.613053,0.26114 -0.542901,0.37465 0.07015,0.11351 -0.04973,0.35351 -0.266412,0.53334 -0.568724,0.472 -0.489572,0.71231 0.333643,1.01298 1.062546,0.38807 1.105787,0.3756 1.456807,-0.42009 z m 17.659343,-2.44739 c -0.1691,-0.31597 -0.36559,-0.51636 -0.43664,-0.4453 -0.0711,0.0711 0.0234,0.37349 0.20986,0.67208 0.44093,0.70606 0.62664,0.52036 0.22678,-0.22678 z m 3.19312,0.10443 c 1.87086,-0.55293 1.96543,-0.62399 1.37797,-1.03546 -0.66142,-0.46328 -2.17842,-0.33356 -2.58388,0.22095 -0.17917,0.24502 -0.44872,0.44549 -0.59901,0.44549 -0.15029,0 -0.34178,0.1786 -0.42555,0.39688 -0.19957,0.52008 0.40193,0.51257 2.23047,-0.0279 z m 17.97355,0.16015 c 0,-0.14552 0.12822,-0.26458 0.28493,-0.26458 0.28275,0 1.83173,-1.42255 1.83173,-1.68222 0,-0.0745 0.12104,-0.45377 0.26897,-0.84286 0.21688,-0.57044 0.34141,-0.64732 0.64301,-0.39701 0.29888,0.24805 0.43384,0.18737 0.67167,-0.30198 0.29092,-0.5986 0.28774,-0.60047 -0.14121,-0.0832 -0.42961,0.51803 -0.43483,0.51525 -0.24825,-0.1323 0.10482,-0.3638 0.45402,-0.89958 0.776,-1.19062 0.32198,-0.29104 0.90028,-0.96365 1.2851,-1.49467 0.57361,-0.79153 0.63546,-1.01882 0.34324,-1.26134 -0.50064,-0.4155 -1.19256,-0.0804 -1.38053,0.66853 -0.0873,0.34775 -0.25041,0.63227 -0.3625,0.63227 -0.11209,0 -0.35112,0.35567 -0.53119,0.79039 -0.18006,0.43471 -0.41993,0.73319 -0.53304,0.66328 -0.11311,-0.0699 -0.27467,0.1479 -0.35903,0.484 -0.0844,0.33611 -0.44795,0.76876 -0.80799,0.96144 -0.38915,0.20827 -0.68711,0.63031 -0.73474,1.04072 -0.0572,0.49309 -0.25745,0.71548 -0.70063,0.77823 -0.4865,0.0689 -0.58888,0.20874 -0.47409,0.64769 0.0805,0.30791 0.0177,0.71486 -0.13951,0.90434 -0.20594,0.24814 -0.20284,0.34449 0.0111,0.34449 0.16334,0 0.29698,-0.11906 0.29698,-0.26458 z m -46.663064,-0.39524 0.757848,-0.39525 -0.809326,-0.002 c -0.44513,-9e-4 -1.040442,0.17318 -1.322917,0.38683 -0.503322,0.38069 -0.502293,0.38863 0.05148,0.39688 0.310788,0.005 0.906101,-0.16945 1.322917,-0.38683 z m 35.381654,-1.05997 c -0.0838,-0.21828 -0.27135,-0.39687 -0.41687,-0.39687 -0.14553,0 -0.20162,-0.16409 -0.12466,-0.36464 0.0769,-0.20055 3.9e-4,-0.51567 -0.17013,-0.70027 -0.23878,-0.25848 -0.23402,-0.29271 0.0207,-0.14892 0.35859,0.20245 0.42426,-0.0867 0.17013,-0.74891 -0.20407,-0.53179 -0.89773,-0.54851 -0.89773,-0.0216 0,0.21828 -0.12609,0.39688 -0.2802,0.39688 -0.15465,0 -0.1899,0.1461 -0.0787,0.32607 0.35099,0.56792 0.28342,1.23377 -0.14177,1.39692 -0.62043,0.23809 0.146,0.6491 1.21994,0.65421 0.64918,0.003 0.81539,-0.0903 0.69929,-0.39283 z m 4.40224,-0.39687 c 0,-0.14552 -0.11906,-0.26459 -0.26458,-0.26459 -0.14552,0 -0.26459,0.11907 -0.26459,0.26459 0,0.14552 0.11907,0.26458 0.26459,0.26458 0.14552,0 0.26458,-0.11906 0.26458,-0.26458 z m 36.30195,-0.26459 c 0.15556,0 0.11737,-0.1915 -0.0878,-0.44019 -0.32927,-0.39915 -0.30763,-0.41062 0.23218,-0.12298 0.32743,0.17446 0.59532,0.2067 0.59532,0.0716 0,-0.13507 -0.1786,-0.31411 -0.39688,-0.39788 -0.21828,-0.0838 -0.39687,-0.33624 -0.39687,-0.56106 0,-0.38678 0.0753,-0.58367 0.71057,-1.8568 0.32441,-0.65017 0.16824,-1.19062 -0.34404,-1.19062 -0.27314,0 -0.36526,0.26511 -0.32091,0.92359 0.0641,0.95168 -0.63208,1.82604 -1.27499,1.60132 -0.17048,-0.0596 -0.41865,0.34833 -0.56664,0.93139 -0.14483,0.57057 -0.18125,0.98668 -0.0809,0.92468 0.10032,-0.062 0.35531,-0.003 0.56664,0.13161 0.21134,0.13439 0.54281,0.18607 0.73661,0.11484 0.19381,-0.0712 0.47628,-0.12952 0.62771,-0.12952 z m -34.70573,-0.92604 c 0.35905,-0.48948 0.35343,-0.50193 -0.0749,-0.16604 -0.25466,0.19972 -0.46302,0.48746 -0.46302,0.63941 0,0.15196 0.0337,0.22668 0.0749,0.16604 0.0412,-0.0606 0.24954,-0.34837 0.46302,-0.63941 z m 26.18503,0.39688 c 0,-0.14552 -0.14883,-0.2737 -0.33073,-0.28483 -0.1819,-0.0111 -0.53909,-0.0601 -0.79375,-0.10888 -0.46684,-0.0894 -0.61269,0.15584 -0.28663,0.4819 0.27698,0.27698 1.41111,0.2061 1.41111,-0.0882 z m -46.14631,-0.66087 c 0.0912,-0.36348 0.0972,-0.83973 0.0133,-1.05833 -0.28017,-0.73012 -0.64163,-0.4089 -0.743646,0.66086 -0.11471,1.20289 0.450896,1.51072 0.730296,0.39747 z m 15.82409,-0.0157 c -0.15546,-0.61936 -0.10555,-0.66969 0.59027,-0.59531 0.53534,0.0572 0.76008,-0.0361 0.76008,-0.31562 0,-0.22334 -0.17354,-0.35069 -0.39688,-0.29124 -0.21828,0.0581 -0.73375,0.1623 -1.14549,0.23155 -0.93498,0.15726 -1.19492,0.75969 -0.54134,1.25461 0.72836,0.55155 0.92404,0.47577 0.73336,-0.28399 z m -33.451677,-0.0998 c 0.37922,-0.70858 0.348916,-0.81114 -0.239659,-0.81114 -0.608864,0 -0.913982,0.40407 -0.708823,0.93871 0.205449,0.53539 0.623789,0.47913 0.948482,-0.12757 z m 26.467647,-0.28198 c 0,-0.84072 -0.44768,-0.82755 -0.4716,0.0139 -0.0123,0.43417 0.0887,0.7207 0.22458,0.63673 0.13586,-0.084 0.24702,-0.37674 0.24702,-0.65061 z m 38.23929,0.31569 c -0.0815,-0.0815 -0.29495,-1.7e-4 -0.47443,0.18065 -0.25936,0.26131 -0.22897,0.2917 0.14811,0.14811 0.26094,-0.0994 0.40778,-0.2473 0.32632,-0.32876 z m 1.04946,0.21651 c 0.0927,-0.14998 -0.0135,-0.19434 -0.24897,-0.10398 -0.45837,0.17589 -0.54223,0.36553 -0.16165,0.36553 0.13694,0 0.32171,-0.11769 0.41062,-0.26155 z m -29.04359,-0.29985 c 0.41109,-0.4111 0.12107,-1.0261 -0.48388,-1.0261 -0.52623,0 -0.60598,0.21197 -0.34026,0.90441 0.18964,0.4942 0.41791,0.52791 0.82414,0.12169 z m -39.605869,-0.47179 c 0.0055,0.25499 0.09563,0.22116 0.28693,-0.10772 0.206555,-0.35511 0.170158,-0.70859 -0.140337,-1.36291 -0.525384,-1.10716 -0.522931,-1.19768 0.0438,-1.61638 0.370974,-0.27408 0.397273,-0.40875 0.132292,-0.6774 -0.181901,-0.18442 -0.330729,-0.61618 -0.330729,-0.95947 0,-0.38207 -0.11156,-0.55521 -0.287634,-0.44639 -0.158198,0.0978 -0.228876,0.40246 -0.157062,0.67707 0.170306,0.65125 -0.144326,0.63491 -0.754374,-0.0392 -0.268034,-0.29617 -0.628856,-0.48419 -0.801828,-0.41781 -0.172972,0.0664 -0.442475,-0.16021 -0.598896,-0.50351 -0.349768,-0.76766 -1.55394,-1.52054 -1.276784,-0.79828 0.09483,0.24711 0.172411,0.61815 0.172411,0.82453 0,0.20638 0.208359,0.37727 0.463021,0.37975 0.519512,0.005 1.398391,1.88242 1.947129,4.15922 0.316933,1.315 0.35841,1.36347 0.813983,0.95118 0.383726,-0.34727 0.481648,-0.35985 0.488079,-0.0627 z m 68.254459,0.14817 c 0,-0.0502 -0.25545,-0.3181 -0.56767,-0.59531 -0.56462,-0.50133 -0.56599,-0.50084 -0.25527,0.0913 0.25791,0.49149 0.82294,0.83755 0.82294,0.50403 z m -8.73125,-0.93765 c 0,-0.55936 -0.12146,-0.7545 -0.45288,-0.72761 -0.58509,0.0475 -0.75181,-0.7829 -0.3194,-1.59087 0.24463,-0.45708 0.25823,-0.71205 0.0491,-0.92113 -0.35302,-0.35302 -0.86437,-0.0789 -0.86437,0.46332 0,0.21828 -0.11483,0.3259 -0.25518,0.23916 -0.14035,-0.0867 -0.0676,0.29319 0.16166,0.84428 1.05117,2.52677 1.68102,3.16105 1.68102,1.69285 z m -58.208338,0.23518 c 0,-0.14552 -0.126089,-0.26458 -0.280198,-0.26458 -0.154109,0 -0.206614,0.11906 -0.116677,0.26458 0.08994,0.14552 0.216026,0.26459 0.280198,0.26459 0.06417,0 0.116677,-0.11907 0.116677,-0.26459 z m 40.058438,-0.83167 c -0.0565,-0.0936 0.22271,-0.25188 0.62043,-0.3517 0.75251,-0.18887 1.11434,-0.55835 1.12125,-1.14496 0.007,-0.55418 -1.93421,-0.23131 -2.59768,0.43215 -0.3153,0.3153 -0.46711,0.57327 -0.33737,0.57327 0.12975,0 0.31114,0.29974 0.40308,0.66609 0.13767,0.5485 0.23125,0.60689 0.53008,0.33073 0.1996,-0.18445 0.31669,-0.41196 0.26021,-0.50558 z m 35.64475,0.24999 c -0.24765,-0.66948 -0.8261,-0.96309 -0.8261,-0.41932 0,0.39479 0.50758,1.001 0.83814,1.001 0.11173,0 0.10631,-0.26176 -0.012,-0.58168 z m -73.44793,-0.57744 c 0.200957,-0.20096 0.285198,-0.44556 0.187201,-0.54356 -0.098,-0.098 -0.003,-0.28894 0.211037,-0.42432 0.320132,-0.20246 0.300469,-0.24686 -0.110786,-0.25019 -0.588977,-0.005 -1.217323,0.75285 -1.029761,1.24163 0.166264,0.43328 0.289377,0.42937 0.742309,-0.0236 z m 3.696025,-0.64756 c 0.150107,-0.33241 0.417939,-0.52227 0.624771,-0.44291 0.237327,0.0911 0.310295,0.004 0.211835,-0.25247 -0.08261,-0.21528 -0.02669,-0.46774 0.124271,-0.56104 0.150957,-0.0933 0.200516,-0.46427 0.110132,-0.82439 -0.105717,-0.42121 -0.06618,-0.59409 0.110853,-0.48469 0.151354,0.0935 0.275188,0.0539 0.275188,-0.0881 0,-0.68616 -1.561616,-0.37949 -2.394171,0.47016 -0.225388,0.23002 -0.642106,0.55597 -0.926041,0.72433 -0.283935,0.16836 -0.482303,0.44878 -0.440817,0.62316 0.04149,0.17438 -0.05179,0.47035 -0.207284,0.6577 -0.218222,0.26294 -0.05436,0.40091 0.718321,0.60479 1.26916,0.33488 1.470745,0.28692 1.792942,-0.42657 z m 14.909945,-2.16207 c 0.14955,-0.3638 0.28127,-0.48286 0.29272,-0.26458 0.0185,0.35278 0.0493,0.35278 0.27731,0 0.39403,-0.60972 0.31828,-1.5875 -0.12299,-1.5875 -0.5128,0 -0.93535,0.82882 -0.93535,1.83469 0,0.44613 -0.10615,0.81114 -0.23591,0.81114 -0.4201,0 -0.60037,1.34975 -0.23851,1.78589 0.29337,0.3536 0.36698,0.24631 0.51648,-0.75291 0.0959,-0.6409 0.29671,-1.46292 0.44625,-1.82673 z m 47.66586,2.64584 c 0,-0.14552 0.17057,-0.26459 0.37904,-0.26459 0.61622,0 0.78639,-1.03061 0.26526,-1.60646 -0.56294,-0.62204 -0.99197,-0.64132 -1.84423,-0.0829 -0.62685,0.41073 -0.90656,1.61135 -0.47576,2.04214 0.27872,0.27872 1.67569,0.2052 1.67569,-0.0882 z m -38.49687,-0.26459 c 0.0899,-0.14552 -0.0291,-0.26458 -0.26459,-0.26458 -0.23546,0 -0.35452,0.11906 -0.26458,0.26458 0.0899,0.14552 0.209,0.26459 0.26458,0.26459 0.0556,0 0.17465,-0.11907 0.26459,-0.26459 z m 45.9052,-0.26458 c -0.20985,-0.1297 -0.44108,-0.17628 -0.51384,-0.10352 -0.0728,0.0728 0.0394,0.23841 0.24926,0.3681 0.20985,0.1297 0.44108,0.17628 0.51384,0.10352 0.0728,-0.0728 -0.0394,-0.2384 -0.24926,-0.3681 z M 27.919846,153.33307 c 0.303322,-0.46292 0.348707,-0.75141 0.154945,-0.98488 -0.191988,-0.23133 -0.164559,-0.52797 0.09162,-0.99086 0.505413,-0.91322 0.47257,-1.21775 -0.07862,-0.729 -0.254661,0.22581 -0.700949,0.45422 -0.99175,0.50757 -0.380347,0.0698 -0.595092,0.41158 -0.765197,1.21794 -0.130057,0.61651 -0.338613,1.12094 -0.463458,1.12094 -0.124845,0 -0.226991,0.0998 -0.226991,0.22171 0,0.12194 0.416359,0.23737 0.925241,0.2565 0.71457,0.0269 1.022916,-0.11429 1.354215,-0.61992 z m 33.041113,-0.38151 c 0.09517,-0.4333 0.09658,-1.02869 0.0031,-1.3231 -0.108767,-0.3427 0.03659,-0.82528 0.403997,-1.34125 0.315641,-0.44328 0.633262,-1.2486 0.705825,-1.78959 0.07256,-0.541 0.34815,-1.25065 0.612417,-1.577 0.421026,-0.51995 0.573271,-0.55641 1.230291,-0.29462 0.412394,0.16432 1.326328,0.27785 2.030964,0.25229 0.840157,-0.0305 1.22185,0.0495 1.108864,0.23229 -0.09476,0.15333 -0.06403,0.27878 0.0683,0.27878 0.132327,0 0.262335,-0.72454 0.288907,-1.6101 0.02727,-0.9089 0.221494,-1.87441 0.445973,-2.21701 0.357272,-0.54526 0.354189,-0.62359 -0.03035,-0.77115 -0.84366,-0.32374 -1.113389,-0.14945 -1.281297,0.82795 -0.25627,1.49176 -0.978778,2.20476 -2.194771,2.16591 -0.555337,-0.0178 -1.247771,0.009 -1.538742,0.0585 -0.39758,0.0682 -0.548365,-0.0736 -0.606814,-0.57073 -0.06147,-0.52282 -0.02076,-0.57827 0.194258,-0.26458 0.190716,0.27824 0.28313,0.29801 0.309157,0.0661 0.02042,-0.1819 0.07325,-0.65815 0.11741,-1.05834 0.04416,-0.40018 0.160958,-2.87073 0.259559,-5.4901 0.24085,-6.39827 0.212765,-6.08493 0.585645,-6.53422 0.259862,-0.31311 0.75852,-0.37035 2.341532,-0.26876 1.834608,0.11774 2.00322,0.0871 1.918782,-0.34902 -0.09215,-0.47593 -1.380721,-1.39078 -2.010803,-1.42762 -0.181901,-0.0106 -0.330729,0.19894 -0.330729,0.46573 0,0.26679 -0.07237,0.55744 -0.160817,0.64589 -0.228203,0.2282 -1.1621,-0.40082 -1.1621,-0.78273 0,-0.17502 -0.259564,-0.50003 -0.576809,-0.72224 -0.52326,-0.3665 -0.652216,-0.35868 -1.389062,0.0842 -0.44674,0.26854 -0.961082,0.43367 -1.142983,0.36696 -0.181901,-0.0667 -0.330729,0.0635 -0.330729,0.28932 0,0.24638 0.150564,0.35285 0.376417,0.26618 0.20703,-0.0794 0.633677,0.11281 0.948104,0.42724 0.505931,0.50593 0.555553,0.77456 0.431419,2.33556 -0.07715,0.97013 -0.327339,2.2778 -0.555982,2.90593 -0.228643,0.62813 -0.342301,1.26084 -0.252574,1.40602 0.08973,0.14518 0.20737,1.11954 0.26143,2.16524 0.05406,1.0457 0.174892,2.28822 0.268518,2.76116 0.10838,0.54748 0.06566,0.8599 -0.117591,0.8599 -0.1583,0 -0.46947,0.35128 -0.691488,0.78061 -0.436404,0.84391 -0.553108,2.25339 -0.166811,2.01465 0.130273,-0.0805 0.312899,0.0518 0.405836,0.29396 0.09294,0.24219 0.02775,0.52763 -0.144852,0.63431 -0.172606,0.10667 -0.414574,0.93061 -0.537705,1.83096 -0.129,0.94327 -0.447048,1.92073 -0.750497,2.3065 -0.366373,0.46577 -0.476138,0.88119 -0.360717,1.36519 0.325799,1.36619 0.756046,1.49506 1.017479,0.30477 z m 28.676671,-0.17212 c 0.471374,-0.33016 0.53325,-0.48127 0.264972,-0.64707 -0.192508,-0.11898 -0.255235,-0.3111 -0.139394,-0.42694 0.115841,-0.11584 0.324328,-0.007 0.463305,0.2409 0.209482,0.37433 0.364611,0.40053 0.907315,0.15326 0.360047,-0.16405 0.595629,-0.35727 0.523516,-0.42939 -0.07211,-0.0721 -0.01117,-0.27563 0.135418,-0.45226 0.196331,-0.23657 0.05112,-0.36424 -0.551337,-0.48473 -1.096782,-0.21935 -2.127377,0.50737 -1.922274,1.3555 0.11391,0.47103 0.054,0.5635 -0.28162,0.43471 -0.283033,-0.10861 -0.426309,-0.0207 -0.426309,0.26159 0,0.5381 0.252162,0.53673 1.026408,-0.006 z m 25.13666,-0.59383 c -0.0259,-0.36332 -0.0496,-0.35825 -0.1517,0.0324 -0.0665,0.25466 -0.23133,0.46302 -0.36618,0.46302 -0.13485,0 -0.24518,0.13364 -0.24518,0.29698 0,0.20518 0.12267,0.19517 0.39687,-0.0324 0.21828,-0.18116 0.38307,-0.52316 0.36619,-0.76 z m 29.73999,0.20097 c -0.44657,-0.44656 -0.97722,-0.0216 -0.57628,0.46151 0.22141,0.26678 0.40359,0.30007 0.59493,0.10873 0.19134,-0.19134 0.18563,-0.36596 -0.0187,-0.57024 z m -31.75231,-0.15478 c -0.4629,-0.70647 -0.73235,-0.64027 -0.49086,0.12061 0.0882,0.27775 0.3269,0.50501 0.53053,0.50501 0.30609,0 0.29922,-0.10842 -0.0397,-0.62562 z m -83.263073,-0.0799 c 0.206155,0 0.374827,-0.12325 0.374827,-0.27389 0,-0.1857 -0.170394,-0.1827 -0.529167,0.009 -0.291042,0.15576 -0.519767,0.42784 -0.508279,0.60462 0.01574,0.24226 0.05375,0.23997 0.154341,-0.009 0.0734,-0.1819 0.302124,-0.33073 0.508278,-0.33073 z m -4.065764,-0.57767 c -0.404154,-0.40416 -0.702373,-0.10594 -0.478213,0.47821 0.132352,0.34491 0.247098,0.37908 0.482477,0.1437 0.23538,-0.23538 0.234366,-0.38328 -0.0043,-0.62191 z m 131.705177,0.0485 c 0,-0.14552 -0.17157,-0.26458 -0.38126,-0.26458 -0.20969,0 -0.45485,0.11906 -0.54478,0.26458 -0.0899,0.14552 0.0816,0.26459 0.38126,0.26459 0.29963,0 0.54478,-0.11907 0.54478,-0.26459 z m -20.17254,-0.998 c 0.16915,-0.50746 -0.93252,-0.38484 -1.24072,0.13811 -0.21869,0.37106 -0.31911,0.39289 -0.50561,0.10992 -0.1799,-0.27296 -0.26391,-0.23382 -0.37016,0.17251 -0.12975,0.49617 -0.0774,0.50821 0.93537,0.21499 0.59005,-0.17084 1.12155,-0.45682 1.18112,-0.63553 z m 20.97132,0.59507 c 0.2796,-0.3369 0.26323,-0.37562 -0.0999,-0.23627 -0.23886,0.0917 -0.4343,0.27298 -0.4343,0.40293 0,0.34024 0.15316,0.29246 0.5342,-0.16666 z m -127.798783,0.0217 c 0,-0.0642 -0.119063,-0.19026 -0.264583,-0.28019 -0.145521,-0.0899 -0.264584,-0.0374 -0.264584,0.11667 0,0.15411 0.119063,0.2802 0.264584,0.2802 0.14552,0 0.264583,-0.0525 0.264583,-0.11668 z m 1.736265,-0.17456 c 0.099,-0.16018 0.492978,-0.23289 0.875511,-0.16158 0.382534,0.0713 0.933641,0.0235 1.224682,-0.10629 0.360825,-0.16089 0.0018,-0.20924 -1.128418,-0.15198 -0.911671,0.0462 -1.798687,0.22507 -1.971146,0.39753 -0.241692,0.24169 -0.183726,0.31356 0.252908,0.31356 0.311557,0 0.647466,-0.13106 0.746463,-0.29124 z m 82.334368,-0.71783 c 0.10005,-0.8762 0.10005,-0.8762 -0.4457,-0.33044 -0.66505,0.66505 -0.72291,1.41243 -0.10006,1.29248 0.28391,-0.0547 0.48202,-0.40391 0.54576,-0.96204 z m 44.43303,0.43029 c -0.0845,-0.21106 -0.14716,-0.14837 -0.15986,0.15986 -0.0115,0.27891 0.0511,0.43518 0.13897,0.34726 0.0879,-0.0879 0.0973,-0.31612 0.0209,-0.50712 z m -64.820185,-1.00879 c 0.01098,-0.7276 -0.09237,-1.32292 -0.229668,-1.32292 -0.137294,0 -0.17604,-0.11906 -0.0861,-0.26458 0.184325,-0.29824 -0.148266,-0.34338 -0.77059,-0.10457 -0.229347,0.088 -0.364091,0.24562 -0.29943,0.35024 0.06466,0.10463 -0.464886,0.33951 -1.17677,0.52196 -1.53526,0.39347 -2.154404,0.94424 -1.309761,1.16512 0.371189,0.0971 0.514457,0.038 0.431576,-0.178 -0.08064,-0.21014 0.120439,-0.30794 0.574413,-0.2794 1.394251,0.0877 1.520682,0.13712 0.963063,0.37673 -0.516134,0.22179 -0.515303,0.22785 0.03375,0.24599 0.309603,0.0102 0.711135,0.19719 0.892292,0.41547 0.626095,0.7544 0.956604,0.4412 0.97723,-0.92604 z m -1.77098,-0.52917 c 0,-0.14552 0.126089,-0.26458 0.280198,-0.26458 0.154109,0 0.206614,0.11906 0.116677,0.26458 -0.08994,0.14552 -0.216026,0.26459 -0.280198,0.26459 -0.06417,0 -0.116677,-0.11907 -0.116677,-0.26459 z m 35.614675,0.11042 c -0.1553,-0.40473 -0.95425,-0.52487 -0.95425,-0.14349 0,0.12733 0.0776,0.61954 0.17246,1.0938 l 0.17245,0.8623 0.37662,-0.71881 c 0.20715,-0.39534 0.31187,-0.88755 0.23272,-1.0938 z m -11.53023,1.14635 c 0.004,-0.1819 0.36124,-0.79842 0.79375,-1.37004 0.78421,-1.03643 1.02359,-1.65205 0.52181,-1.34193 -0.14552,0.0899 -0.26458,0.0374 -0.26458,-0.11668 0,-0.15411 -0.1318,-0.2802 -0.29289,-0.2802 -0.16109,0 -0.22436,0.17859 -0.1406,0.39688 0.0838,0.21828 0.037,0.39687 -0.10398,0.39687 -0.14096,0 -0.26465,-0.44648 -0.27488,-0.99219 -0.0143,-0.76208 -0.0665,-0.86946 -0.2251,-0.46302 -0.11358,0.29104 -0.31357,0.4994 -0.44443,0.46302 -0.13085,-0.0364 -0.2528,0.0529 -0.27099,0.19844 -0.0182,0.14552 -0.0631,0.29435 -0.0999,0.33073 -0.0761,0.0753 -0.19937,0.68514 -0.42794,2.11667 -0.14906,0.93351 -0.1176,0.99218 0.53198,0.99218 0.37972,0 0.69372,-0.14882 0.69776,-0.33073 z m -86.52611,-0.19843 c 0,-0.14552 -0.126089,-0.26459 -0.280198,-0.26459 -0.154109,0 -0.206614,0.11907 -0.116677,0.26459 0.08994,0.14552 0.216026,0.26458 0.280199,0.26458 0.06417,0 0.116676,-0.11906 0.116676,-0.26458 z m 3.367926,-0.15986 c -0.08792,-0.0879 -0.316122,-0.0973 -0.507119,-0.0209 -0.211066,0.0845 -0.148372,0.14715 0.159853,0.15985 0.278915,0.0115 0.435184,-0.0511 0.347266,-0.13897 z m 104.052914,-0.36931 c 0,-0.14552 -0.12609,-0.26458 -0.2802,-0.26458 -0.15411,0 -0.20662,0.11906 -0.11668,0.26458 0.0899,0.14552 0.21603,0.26458 0.2802,0.26458 0.0642,0 0.11668,-0.11906 0.11668,-0.26458 z m 23.28333,-1.88336 c 0,-0.17816 -0.17575,-0.51813 -0.39055,-0.75549 -0.21481,-0.23736 -0.43407,-0.71669 -0.48726,-1.06519 -0.0532,-0.34851 -0.24034,-0.68152 -0.4159,-0.74004 -0.50548,-0.1685 -0.27439,3.2023 0.23538,3.4333 0.3344,0.15153 0.32788,0.18277 -0.0414,0.19843 -0.30811,0.0131 -0.39626,0.17917 -0.29685,0.55933 0.12741,0.48719 0.20353,0.44929 0.76898,-0.38284 0.34517,-0.50796 0.62758,-1.06934 0.62758,-1.2475 z m -64.293755,0.77839 c 0,-0.14405 0.477517,-0.18029 1.124479,-0.0853 0.953994,0.14001 1.174962,0.0823 1.457451,-0.38066 0.368136,-0.60333 0.102258,-0.73164 -0.44542,-0.21497 -0.214108,0.20199 -0.390869,0.22774 -0.454092,0.0661 -0.293647,-0.75052 -0.602902,-0.99079 -1.052987,-0.81807 -0.409426,0.15711 -0.423457,0.2223 -0.09285,0.43138 0.333234,0.21074 0.327291,0.24688 -0.04116,0.25035 -0.236843,0.002 -0.578844,-0.17455 -0.760001,-0.39283 -0.883833,-1.06495 -1.729001,0.31228 -1.18282,1.92745 0.08894,0.26303 0.265712,0.24117 0.78118,-0.0966 0.366423,-0.24009 0.666223,-0.54919 0.666223,-0.68689 z m -21.043473,-0.12576 c 0.18782,0.0721 0.482117,-0.008 0.653992,-0.17901 0.239504,-0.23763 0.274385,-0.20987 0.149326,0.11883 -0.09798,0.25753 -0.0019,0.49075 0.240435,0.58375 0.52102,0.19994 0.814698,-0.27313 0.445627,-0.71784 -0.156786,-0.18891 -0.196801,-0.44091 -0.08892,-0.55999 0.107878,-0.11908 0.02925,-0.11971 -0.174726,-0.001 -0.24035,0.13942 -0.495828,0.0442 -0.725946,-0.27047 -0.229144,-0.31337 -0.747674,-0.50776 -1.46202,-0.54807 -0.646201,-0.0365 -0.963163,0.0264 -0.761511,0.15101 0.189987,0.11742 0.263619,0.34586 0.163627,0.50765 -0.09999,0.16179 -0.03587,0.29417 0.142492,0.29417 0.178362,0 0.254842,0.0695 0.169955,0.15434 -0.08489,0.0849 0.0441,0.35618 0.286632,0.60288 0.343731,0.34964 0.460661,0.36967 0.53026,0.0908 0.04911,-0.19675 0.242959,-0.29876 0.43078,-0.22669 z m 2.941321,-0.33267 c -0.25762,-0.28467 -0.635806,-0.45334 -0.840415,-0.37482 -0.615333,0.23612 -0.41952,0.6153 0.31775,0.6153 0.547683,0 0.653456,0.0954 0.513491,0.46302 -0.139553,0.36657 -0.10817,0.39543 0.150649,0.13855 0.25932,-0.25738 0.230064,-0.43151 -0.141475,-0.84205 z m 49.937057,-1.10327 c -0.19221,-0.22974 -0.34948,-0.56566 -0.34948,-0.7465 0,-0.23175 -0.11715,-0.21165 -0.39688,0.0681 -0.55186,0.55186 -0.49634,1.07111 0.19844,1.85594 l 0.59531,0.67247 0.15105,-0.71614 c 0.0881,-0.41782 0.005,-0.89014 -0.19844,-1.13385 z m 36.8513,1.20878 c -0.0322,-0.21975 -0.21783,-0.54717 -0.4124,-0.7276 -0.28746,-0.26656 -0.32323,-0.24126 -0.19084,0.13497 0.22169,0.63001 -0.14549,0.58608 -0.55281,-0.0661 -0.27563,-0.44135 -0.26424,-0.52916 0.0686,-0.52916 0.21951,0 0.39912,-0.14116 0.39912,-0.31368 0,-0.3757 -1.05059,-1.53841 -1.39006,-1.53841 -0.40885,0 0.092,1.67579 0.77104,2.57969 0.67162,0.89407 1.40907,1.15375 1.3073,0.46034 z m -9.41953,-0.13249 c 0,-0.14711 0.25103,-0.80152 0.55784,-1.45424 0.30682,-0.65272 0.48261,-1.38284 0.39065,-1.62248 -0.21843,-0.56922 -0.4394,-0.32402 -0.65412,0.72582 -0.14512,0.70958 -0.41917,1.01776 -1.31072,1.47395 -0.0497,0.0254 -0.0119,0.2933 0.084,0.59531 0.17525,0.55218 0.93237,0.78088 0.93237,0.28164 z m -55.432086,-0.25867 c 0.0927,-0.14998 -0.0135,-0.19434 -0.24897,-0.10399 -0.458371,0.1759 -0.542236,0.36554 -0.161651,0.36554 0.136931,0 0.321711,-0.1177 0.410621,-0.26155 z m 60.922186,-0.94892 c 0,-0.45771 -0.0875,-0.59379 -0.26664,-0.41466 -0.14666,0.14666 -0.19504,0.45324 -0.10752,0.6813 0.23319,0.6077 0.37416,0.50724 0.37416,-0.26664 z m -90.685941,-0.11245 c 0.300368,-0.19411 0.18398,-0.25746 -0.478636,-0.26053 -0.51714,-0.002 -0.808577,0.10425 -0.711989,0.26053 0.205426,0.33239 0.676295,0.33239 1.190625,0 z m 49.209481,-0.19109 c 0.2927,-0.25062 0.53219,-0.71891 0.53219,-1.04064 0,-0.46892 -0.14656,-0.58079 -0.73883,-0.56395 -0.40635,0.0115 -0.99304,-0.11505 -1.30375,-0.28133 -0.3107,-0.16629 -0.75214,-0.2305 -0.98096,-0.14269 -0.45502,0.17461 -0.57065,0.6322 -0.15976,0.6322 0.14095,0 0.18774,0.1786 0.10398,0.39688 -0.2261,0.58922 0.10367,1.26258 0.49776,1.0164 0.56641,-0.35383 1.02046,-0.32942 1.17103,0.0629 0.18292,0.47669 0.23379,0.47207 0.87834,-0.0798 z m -59.398297,-0.40422 c -0.03432,-0.32742 -0.07759,-0.68461 -0.09617,-0.79375 -0.01857,-0.10914 -0.268155,-0.19844 -0.554629,-0.19844 -0.382551,0 -0.477032,0.12296 -0.355803,0.46302 0.404102,1.13357 1.108781,1.50402 1.006599,0.52917 z m 37.633824,0.43546 c -0.08792,-0.0879 -0.316122,-0.0973 -0.507118,-0.0209 -0.211067,0.0845 -0.148372,0.14716 0.159852,0.15986 0.278915,0.0115 0.435185,-0.0511 0.347266,-0.13897 z m 56.427913,-0.64951 c 0,-0.4722 -0.11022,-0.74125 -0.26458,-0.64584 -0.14552,0.0899 -0.26459,0.45415 -0.26459,0.80936 0,0.35521 0.11907,0.64584 0.26459,0.64584 0.14552,0 0.26458,-0.36421 0.26458,-0.80936 z m -78.95864,-0.18912 c -0.457135,-0.43662 -0.464231,-0.42953 -0.161252,0.16125 0.17431,0.33988 0.389491,0.54541 0.478179,0.45672 0.08869,-0.0887 -0.05393,-0.36678 -0.316927,-0.61797 z m 69.96281,0.46932 c 0,-0.14552 -0.20836,-0.26276 -0.46302,-0.26053 -0.3957,0.003 -0.40532,0.0413 -0.0661,0.26053 0.49932,0.32269 0.52917,0.32269 0.52917,0 z m -201.25224,-0.39688 c -0.08376,-0.21828 -0.199088,-0.39687 -0.25628,-0.39687 -0.05719,0 -0.103984,0.17859 -0.103984,0.39687 0,0.21828 0.115326,0.39688 0.256279,0.39688 0.140954,0 0.187747,-0.1786 0.103985,-0.39688 z m 184.78932,-1.94589 c -0.049,-1.62724 -0.0983,-1.762 -0.65658,-1.79676 -0.50275,-0.0313 -0.57822,0.0634 -0.45184,0.5669 0.0834,0.33247 0.023,0.68403 -0.13431,0.78125 -0.35993,0.22245 -0.37741,1.20388 -0.0214,1.20388 0.14552,0 0.26459,0.21828 0.26459,0.48507 0,0.62311 0.22227,0.83747 0.68446,0.66011 0.27125,-0.10409 0.35419,-0.60428 0.31512,-1.90045 z m 17.05554,0.3154 c -0.25663,-0.73915 -0.26037,-0.73541 -0.2419,0.2419 0.0113,0.5997 0.11452,0.89689 0.26066,0.75075 0.14614,-0.14614 0.13871,-0.53909 -0.0188,-0.99265 z m 11.75895,0.12567 c -0.0845,-0.21106 -0.14716,-0.14837 -0.15985,0.15986 -0.0115,0.27891 0.051,0.43518 0.13896,0.34726 0.0879,-0.0879 0.0973,-0.31612 0.0209,-0.50712 z m -2.29741,-1.40559 c 0,-0.91857 -0.51208,-1.35143 -0.54776,-0.46303 -0.0159,0.39594 -0.0515,0.38635 -0.24599,-0.0661 -0.21542,-0.50131 -0.22837,-0.49724 -0.24598,0.0773 -0.0182,0.5929 0.44612,1.34779 0.8413,1.36783 0.10914,0.006 0.19843,-0.40665 0.19843,-0.91597 z m -84.026135,-0.27541 c 0.09695,-0.38628 0.289665,-0.59754 0.453002,-0.49659 0.156349,0.0966 0.07963,-0.13663 -0.170478,-0.51835 -0.437764,-0.66811 -1.394905,-0.92774 -1.82705,-0.49559 -0.10914,0.10914 -0.327421,0.19844 -0.485069,0.19844 -0.157648,0 -0.336268,0.1489 -0.396935,0.3309 -0.06321,0.18963 0.04035,0.27379 0.242535,0.19713 0.196983,-0.0747 0.586579,0.21707 0.882004,0.66052 0.647348,0.97169 1.078842,1.01264 1.301991,0.12354 z m 85.349055,-0.91522 c 0,-0.14552 -0.11906,-0.26458 -0.26458,-0.26458 -0.14552,0 -0.26459,0.11906 -0.26459,0.26458 0,0.14552 0.11907,0.26458 0.26459,0.26458 0.14552,0 0.26458,-0.11906 0.26458,-0.26458 z m -83.956944,-0.89566 c -0.07735,-0.20158 0.207567,-0.7001 0.633151,-1.10784 0.425584,-0.40773 0.773789,-0.89765 0.773789,-1.08871 0,-0.19106 0.0893,-0.33327 0.198437,-0.31604 0.527145,0.0832 0.573858,-0.0997 0.233497,-0.91428 -0.235189,-0.56288 -0.283243,-1.03603 -0.132567,-1.30527 0.139349,-0.249 0.138324,-0.48292 -0.0025,-0.56995 -0.131366,-0.0812 -0.316829,0.26806 -0.41214,0.77611 -0.15688,0.83624 -0.721233,1.24153 -1.009943,0.72529 -0.06104,-0.10914 -0.05745,-0.0198 0.008,0.19843 0.06542,0.21828 0.176301,0.59547 0.246402,0.8382 0.08932,0.30925 -0.05822,0.4676 -0.493038,0.52916 -0.675664,0.0957 -1.08072,1.2751 -0.440461,1.28253 0.281444,0.003 0.283275,0.0458 0.0094,0.21959 -0.370857,0.23531 -0.163359,1.09927 0.264014,1.09927 0.14552,0 0.201296,-0.16492 0.123945,-0.36649 z m 84.014704,-0.23294 c -0.13911,-0.53427 -0.58693,-0.89632 -0.58693,-0.47451 0,0.1541 -0.23812,0.28019 -0.52916,0.28019 -0.50249,0 -0.69099,0.27915 -0.39105,0.5791 0.076,0.076 0.47352,0.12557 0.88344,0.11024 0.57543,-0.0215 0.7176,-0.13437 0.6237,-0.49502 z m -28.39686,-0.87653 c 0.23553,-2.19461 0.17485,-2.87461 -0.26427,-2.96179 -0.34173,-0.0678 -0.45943,0.24934 -0.59937,1.61527 -0.0958,0.93482 -0.0981,1.89781 -0.005,2.13997 0.28202,0.73493 0.75074,0.30688 0.86883,-0.79345 z m -84.921166,0.4044 c 0.01446,0.29839 0.08915,0.31309 0.336096,0.0661 0.44917,-0.44917 0.737766,-0.39387 0.75943,0.14552 0.0158,0.39333 0.04955,0.38373 0.224289,-0.0638 0.210077,-0.53808 1.945294,-1.74575 3.274867,-2.27924 0.406795,-0.16322 0.694001,-0.43206 0.638236,-0.59742 -0.05577,-0.16536 0.0498,-0.41972 0.234597,-0.56524 0.405696,-0.31948 0.581902,-2.06298 0.227289,-2.24896 -0.138737,-0.0728 -0.381047,0.26619 -0.538467,0.75322 -0.262126,0.81098 -0.321776,0.84995 -0.708705,0.46302 -0.537608,-0.53761 -0.776866,-0.53101 -1.470053,0.0405 -0.308862,0.25466 -0.969948,0.79286 -1.46908,1.196 -0.862772,0.69684 -2.040312,2.71663 -2.000473,3.43133 0.01023,0.18348 0.120922,0.0955 0.245987,-0.19556 0.14143,-0.32912 0.23442,-0.38414 0.245987,-0.14552 z m 1.341513,-2.50031 c 0.181157,-0.21828 0.430124,-0.39688 0.553259,-0.39688 0.123136,0 0.15535,0.1786 0.07159,0.39688 -0.08376,0.21828 -0.33273,0.39687 -0.55326,0.39687 -0.326414,0 -0.339724,-0.0738 -0.07159,-0.39687 z m 85.643773,0.99722 c -0.0671,-0.25743 -0.12638,-0.11087 -0.13177,0.3257 -0.005,0.43656 0.0495,0.64718 0.12197,0.46805 0.0725,-0.17913 0.0769,-0.53632 0.01,-0.79375 z m 0.38445,-2.42151 c 0.017,-0.75486 -0.0443,-1.44766 -0.13615,-1.53955 -0.0919,-0.0919 -0.16707,0.587 -0.16707,1.50863 0,1.98725 0.25855,2.01361 0.30322,0.0309 z m -55.684984,0.44864 c -0.08446,-0.21107 -0.147156,-0.14837 -0.159852,0.15985 -0.01149,0.27891 0.05105,0.43518 0.138964,0.34727 0.08792,-0.0879 0.09732,-0.31613 0.02089,-0.50712 z m -22.383983,-0.678 c 0.01197,-0.10914 0.07557,-0.52586 0.141343,-0.92604 0.137193,-0.83472 -0.08121,-0.93291 -0.588538,-0.26458 -0.474826,0.6255 -0.459126,1.38906 0.02856,1.38906 0.218282,0 0.406666,-0.0893 0.418632,-0.19844 z m 22.977566,-2.65547 c -0.183864,-0.76929 -0.416003,-1.26651 -0.515863,-1.10493 -0.124196,0.20095 -0.323235,0.1521 -0.629949,-0.15461 -0.42146,-0.42146 -0.43734,-0.40438 -0.264445,0.28449 0.136744,0.54484 0.100544,0.68134 -0.141082,0.53201 -0.208437,-0.12882 -0.174824,0.0896 0.0937,0.60886 0.2303,0.44535 0.418728,0.97178 0.418728,1.16985 0,0.19807 0.267891,0.64895 0.595313,1.00197 0.595312,0.64183 0.595312,0.64183 0.686603,-0.14855 0.05021,-0.43471 -0.05914,-1.41981 -0.243009,-2.18909 z m 73.962741,1.34688 c 0.10509,-0.56017 0.0504,-1.06029 -0.14121,-1.29115 -0.35259,-0.42485 -0.89695,-0.5202 -0.6453,-0.11304 0.10752,0.17398 -0.064,0.17745 -0.50394,0.0102 -0.61538,-0.23397 -0.68703,-0.18087 -0.92653,0.68653 -0.22472,0.81386 -0.1816,1.0202 0.32111,1.53657 0.79195,0.81347 1.65884,0.43435 1.89587,-0.82912 z m -75.762566,-0.41561 c -0.261307,-0.25936 -0.291698,-0.22897 -0.148112,0.14811 0.09936,0.26094 0.247303,0.40778 0.328765,0.32632 0.08146,-0.0815 1.68e-4,-0.29495 -0.180653,-0.47443 z m 55.744726,-0.65512 c 0.0607,-0.62924 -0.0114,-0.82182 -0.27059,-0.72237 -0.48076,0.18448 -1.2611,-1.20094 -1.29375,-2.29694 -0.0241,-0.80913 -0.0426,-0.82836 -0.21534,-0.22376 -0.25537,0.89391 -0.0548,3.47915 0.30336,3.91074 0.15891,0.19147 0.53746,0.31261 0.84124,0.26921 0.40873,-0.0584 0.57384,-0.30196 0.63508,-0.93688 z m 21.13235,0.41148 c -0.0845,-0.21106 -0.14715,-0.14837 -0.15985,0.15986 -0.0115,0.27891 0.0511,0.43518 0.13897,0.34726 0.0879,-0.0879 0.0973,-0.31612 0.0209,-0.50712 z m -92.766157,-1.25825 c 0.440995,-1.02512 0.70987,-1.32541 1.243722,-1.38906 0.767212,-0.0915 0.963928,-0.42301 0.596328,-1.00503 -0.198517,-0.31432 -0.316148,-0.32778 -0.577783,-0.0661 -0.180684,0.18069 -0.54283,0.32852 -0.804767,0.32852 -0.261938,0 -0.47625,0.17859 -0.47625,0.39687 0,0.22049 -0.235185,0.39688 -0.529167,0.39688 -0.291041,0 -0.529166,0.17098 -0.529166,0.37995 0,0.20897 -0.47625,0.64761 -1.058334,0.97476 -0.582083,0.32715 -1.058333,0.70653 -1.058333,0.84307 0,0.13655 0.172421,0.10517 0.383157,-0.0697 0.300924,-0.24974 0.54226,-0.23433 1.124479,0.0718 1.074586,0.56506 1.071588,0.5666 1.686114,-0.86191 z m 73.216357,-4.1161 c -0.007,-1.13348 -0.037,-1.20925 -0.2101,-0.52916 -0.11109,0.43656 -0.20016,1.62719 -0.19793,2.64583 0.004,1.84536 0.005,1.84728 0.2101,0.52917 0.11333,-0.72761 0.2024,-1.91823 0.19793,-2.64584 z m -58.687076,3.10886 c -0.01281,-0.62735 -1.586414,-1.54607 -2.227058,-1.30023 -0.654642,0.25121 -0.484217,0.90002 0.312881,1.19115 0.88191,0.3221 1.919734,0.38124 1.914177,0.10908 z m 2.682717,-0.66587 c -0.261307,-0.25936 -0.291698,-0.22897 -0.148113,0.14811 0.09936,0.26094 0.247304,0.40778 0.328766,0.32632 0.08146,-0.0815 1.68e-4,-0.29495 -0.180653,-0.47443 z m 54.570569,-0.72319 c 0.10925,-0.75245 0.0839,-1.05472 -0.0688,-0.82134 -0.1329,0.2031 -0.43225,0.29613 -0.66522,0.20674 -0.31953,-0.12262 -0.42357,0.002 -0.42357,0.50622 0,0.40659 0.1107,0.60035 0.28239,0.49425 0.15604,-0.0964 0.34865,0.0788 0.43048,0.39175 0.19157,0.73258 0.23694,0.65324 0.44469,-0.77762 z m -0.6284,-1.5875 c -0.20985,-0.1297 -0.44108,-0.17628 -0.51384,-0.10352 -0.0728,0.0728 0.0394,0.2384 0.24926,0.3681 0.20985,0.1297 0.44108,0.17628 0.51384,0.10352 0.0728,-0.0728 -0.0394,-0.23841 -0.24926,-0.3681 z m -66.278217,-2.31511 c -0.115768,-1.41883 -0.237947,-4.22615 -0.271509,-6.2385 -0.06834,-4.09746 -0.39373,-5.04606 -0.863825,-2.51826 -0.167603,0.90125 -0.429904,1.71599 -0.582891,1.81054 -0.188633,0.11658 -0.156745,0.46373 0.09908,1.0786 0.207479,0.49868 0.437356,1.62106 0.510838,2.49418 0.07348,0.87313 0.281143,2.10544 0.461471,2.73847 0.24744,0.86863 0.252643,1.19746 0.02121,1.34049 -0.372859,0.23044 0.116851,1.87417 0.558365,1.87417 0.189349,0 0.210758,-0.82107 0.06726,-2.57969 z m 5.68097,2.04019 c -0.503127,-0.31819 -1.05067,-0.32239 -1.05067,-0.008 0,0.24205 1.07155,0.52335 1.315254,0.34528 0.06855,-0.0501 -0.05052,-0.20183 -0.264584,-0.33721 z m 34.312467,-3.55289 c -0.16821,-0.35905 -0.34686,-0.53364 -0.397,-0.38798 -0.0501,0.14565 0.0537,0.43942 0.23083,0.65281 0.46448,0.55966 0.51484,0.47941 0.16617,-0.26483 z m -32.092457,-9.00449 c -0.08376,-0.21828 -0.199088,-0.39687 -0.25628,-0.39687 -0.05719,0 -0.103984,0.17859 -0.103984,0.39687 0,0.21829 0.115326,0.39688 0.25628,0.39688 0.140953,0 0.187746,-0.17859 0.103984,-0.39688 z m -30.594421,-0.29214 c -0.08792,-0.0879 -0.316122,-0.0973 -0.507118,-0.0209 -0.211067,0.0845 -0.148372,0.14716 0.159852,0.15985 0.278915,0.0115 0.435185,-0.051 0.347266,-0.13896 z m 22.456686,-1.96631 c 0.05666,-0.94066 0.129983,-2.21631 0.162931,-2.83477 0.03295,-0.61847 0.152354,-1.12448 0.265347,-1.12448 0.112994,0 0.205443,0.10632 0.205443,0.23627 0,0.12995 0.173437,0.30283 0.385416,0.38418 0.319259,0.12251 0.334677,0.0365 0.08982,-0.50086 -0.369894,-0.81183 -0.958529,-0.84029 -1.105577,-0.0534 -0.06119,0.32742 -0.310829,1.5142 -0.554754,2.63727 -0.434091,1.99865 -0.362127,3.23628 0.177714,3.05634 0.148848,-0.0496 0.316994,-0.85984 0.373658,-1.8005 z m -98.585026,1.06783 c 0,-0.14552 -0.119062,-0.26458 -0.264583,-0.26458 -0.145521,0 -0.264584,0.11906 -0.264584,0.26458 0,0.14552 0.119063,0.26458 0.264584,0.26458 0.145521,0 0.264583,-0.11906 0.264583,-0.26458 z m 105.409153,-3.01845 c -0.250974,-0.65403 -0.578363,-0.24855 -0.429226,0.5316 0.106316,0.55616 0.180985,0.61676 0.361813,0.29364 0.125318,-0.22393 0.155654,-0.59529 0.06741,-0.82524 z m 0.599406,-1.8102 c -0.0734,-0.1819 -0.133452,-0.0331 -0.133452,0.33073 0,0.3638 0.06005,0.51263 0.133452,0.33073 0.0734,-0.1819 0.0734,-0.47956 0,-0.66146 z m -0.175229,-1.78593 c 0,-0.29399 -0.176388,-0.52917 -0.396874,-0.52917 -0.478418,0 -0.511494,0.30871 -0.07937,0.74083 0.42698,0.42698 0.476249,0.40509 0.476249,-0.21166 z m 0.709908,-0.0496 c -0.08446,-0.21107 -0.147157,-0.14838 -0.159853,0.15985 -0.01149,0.27891 0.05105,0.43518 0.138965,0.34726 0.08792,-0.0879 0.09732,-0.31612 0.02089,-0.50711 z m 2.86833,-0.37405 c -0.219988,-0.42183 -0.400711,-0.61653 -0.401608,-0.43265 -0.0018,0.36303 0.588822,1.41238 0.720691,1.28051 0.04449,-0.0445 -0.0991,-0.42603 -0.319083,-0.84786 z M 51.569556,107.1727 c 0,-0.14552 -0.119062,-0.26458 -0.264583,-0.26458 -0.145521,0 -0.264583,0.11906 -0.264583,0.26458 0,0.14552 0.119062,0.26459 0.264583,0.26459 0.145521,0 0.264583,-0.11907 0.264583,-0.26459 z m 21.66276,-1.71979 c 0.08008,-0.32031 -0.332036,-0.22759 -0.440972,0.0992 -0.0667,0.20009 -0.0022,0.28939 0.143316,0.19844 0.145521,-0.0909 0.279466,-0.2249 0.297656,-0.29766 z M 52.80863,103.94809 c -0.08446,-0.21106 -0.147156,-0.14837 -0.159852,0.15986 -0.01149,0.27891 0.05105,0.43518 0.138964,0.34726 0.08792,-0.0879 0.09732,-0.31612 0.02089,-0.50712 z m 0.93051,-1.5908 c -0.246945,-0.24695 -0.3175,-0.17639 -0.3175,0.3175 0,0.49388 0.07055,0.56444 0.3175,0.3175 0.246944,-0.24695 0.246944,-0.38806 0,-0.635 z m -0.05292,-1.41791 c 0,-0.22687 -0.119063,-0.33891 -0.264583,-0.24897 -0.145521,0.0899 -0.264584,0.27556 -0.264584,0.41249 0,0.13693 0.119063,0.24897 0.264584,0.24897 0.14552,0 0.264583,-0.18562 0.264583,-0.41249 z m 19.424255,-1.531643 c 0.131034,-0.55471 0.08769,-0.72384 -0.164278,-0.64108 -0.188248,0.0618 -0.380524,0.51997 -0.427279,1.01809 -0.09903,1.055023 0.315722,0.790703 0.591557,-0.37701 z m -21.540919,-2.15692 c 0,-0.74965 -0.100793,-0.92604 -0.529166,-0.92604 -0.293982,0 -0.529167,0.17639 -0.529167,0.39687 0,0.21828 0.111039,0.39688 0.246754,0.39688 0.135714,0 0.322331,0.23812 0.414704,0.52916 0.250402,0.78895 0.396875,0.64248 0.396875,-0.39687 z m 5.55625,-1.29461 c 0,-0.0572 -0.184777,-0.17489 -0.410617,-0.26155 -0.235459,-0.0904 -0.341662,-0.046 -0.248968,0.10398 0.155379,0.25141 0.659585,0.37186 0.659585,0.15757 z m -2.994259,-0.73938 c -0.08446,-0.21106 -0.147157,-0.14837 -0.159853,0.15986 -0.01149,0.27891 0.05105,0.43518 0.138965,0.34726 0.08792,-0.0879 0.09732,-0.31612 0.02089,-0.50712 z m -1.801314,-0.67799 c 0.01819,-0.10914 -0.08599,-0.23813 -0.23151,-0.28663 -0.145521,-0.0485 -0.264583,0.11024 -0.264583,0.35277 0,0.41613 0.425163,0.35944 0.496093,-0.0662 z m 19.703541,0.0547 c -0.08617,-0.22456 -0.213419,-0.35154 -0.282774,-0.28219 -0.06935,0.0693 -0.04762,0.25309 0.0483,0.40829 0.260893,0.42213 0.41338,0.34012 0.234473,-0.1261 z m -31.485,-0.85706 c -0.08353,-0.31943 -0.257727,-0.51536 -0.387097,-0.43541 -0.132367,0.0818 -0.109841,0.37964 0.05152,0.68114 0.355601,0.66445 0.538561,0.53047 0.33558,-0.24573 z m -3.085977,-0.37176 c -0.08446,-0.21107 -0.147156,-0.14837 -0.159852,0.15985 -0.01149,0.27892 0.05105,0.43519 0.138964,0.34727 0.08792,-0.0879 0.09732,-0.31612 0.02089,-0.50712 z m 24.870833,-1.85208 c -0.08446,-0.21107 -0.147157,-0.14838 -0.159852,0.15985 -0.01149,0.27891 0.05105,0.43518 0.138964,0.34726 0.08792,-0.0879 0.09732,-0.31612 0.02089,-0.50711 z m -17.907823,-0.84558 c 0,-0.67266 -0.131535,-0.92958 -0.529167,-1.03356 -0.632995,-0.16553 -0.625853,-0.21936 -0.128741,0.97039 0.498545,1.19319 0.657908,1.20849 0.657908,0.0632 z M 72.5253,90.258247 c 0.08027,-0.54695 0.01466,-0.72075 -0.235803,-0.62464 -0.190863,0.0732 -0.347025,0.30605 -0.347025,0.51735 0,0.22595 -0.127492,0.30539 -0.309546,0.19287 -0.211045,-0.13043 -0.253141,-0.0443 -0.132292,0.27061 0.09749,0.25406 0.177255,0.58582 0.177255,0.73726 0,0.59077 0.740447,-0.36466 0.847411,-1.09345 z m -18.134682,-0.34965 c -0.0734,-0.1819 -0.133452,-0.0331 -0.133452,0.33073 0,0.3638 0.06005,0.51263 0.133452,0.33073 0.0734,-0.1819 0.0734,-0.47956 0,-0.66146 z m 18.874771,-0.7276 c 0,-0.14552 -0.126089,-0.26459 -0.280198,-0.26459 -0.154109,0 -0.206614,0.11907 -0.116677,0.26459 0.08994,0.14552 0.216026,0.26458 0.280198,0.26458 0.06417,0 0.116677,-0.11906 0.116677,-0.26458 z m -4.846343,-0.84336 c -0.08446,-0.21107 -0.147156,-0.14838 -0.159852,0.15985 -0.01149,0.27891 0.05105,0.43518 0.138964,0.34726 0.08792,-0.0879 0.09732,-0.31612 0.02089,-0.50711 z m 6.16926,-0.0827 c 0,-0.21829 -0.178594,-0.39688 -0.396875,-0.39688 -0.688567,0 -0.465427,0.52145 0.330729,0.77286 0.03638,0.0115 0.06615,-0.1577 0.06615,-0.37598 z m -30.237574,-1.91823 c -0.06062,-0.40019 -0.110223,-0.0728 -0.110223,0.7276 0,0.80036 0.0496,1.12779 0.110223,0.7276 0.06062,-0.40018 0.06062,-1.05502 0,-1.4552 z m 14.281345,0.5342 c -0.06708,-0.25743 -0.126382,-0.11087 -0.131774,0.32569 -0.0054,0.43656 0.04949,0.64719 0.12197,0.46806 0.07248,-0.17913 0.07689,-0.53632 0.0098,-0.79375 z m 9.522386,-0.64996 c -0.08446,-0.21107 -0.147157,-0.14837 -0.159852,0.15985 -0.01149,0.27892 0.05105,0.43519 0.138964,0.34727 0.08792,-0.0879 0.09732,-0.31612 0.02089,-0.50712 z m -27.316182,-1.38224 c 0.04135,-0.37665 0.03621,-0.68482 -0.01142,-0.68482 -0.236141,0 -0.636683,1.10515 -0.487833,1.34599 0.235665,0.38131 0.410193,0.15019 0.499257,-0.66117 z m 18.404192,0.6381 c 0,-0.14552 -0.05251,-0.26458 -0.116677,-0.26458 -0.06417,0 -0.190261,0.11906 -0.280198,0.26458 -0.08994,0.14552 -0.03743,0.26458 0.116677,0.26458 0.154109,0 0.280198,-0.11906 0.280198,-0.26458 z m 13.526581,-0.59972 c -0.261307,-0.25937 -0.291698,-0.22897 -0.148112,0.14811 0.09936,0.26094 0.247303,0.40778 0.328765,0.32632 0.08146,-0.0815 1.68e-4,-0.29496 -0.180653,-0.47443 z m -19.744289,-0.1976 c 0,-0.56714 -0.768792,-0.48522 -0.8803,0.0938 -0.06809,0.35358 0.03966,0.46134 0.393251,0.39325 0.267877,-0.0516 0.487049,-0.27076 0.487049,-0.48705 z m 4.725888,-0.65784 c -0.08376,-0.21828 -0.199088,-0.39687 -0.256279,-0.39687 -0.05719,0 -0.103984,0.17859 -0.103984,0.39687 0,0.21828 0.115325,0.39688 0.256279,0.39688 0.140954,0 0.187747,-0.1786 0.103984,-0.39688 z m -7.344161,-0.85438 c -0.268953,-0.26896 -0.490868,0.13596 -0.270197,0.49302 0.166697,0.26972 0.229017,0.26993 0.318638,0.001 0.06128,-0.18383 0.03948,-0.40617 -0.04844,-0.49409 z m 10.448317,-0.62212 c -0.240429,-0.60152 -0.25689,-0.58506 -0.272649,0.27265 -0.01151,0.62654 0.06873,0.8273 0.255878,0.64016 0.18054,-0.18054 0.186206,-0.48891 0.01677,-0.91281 z m -8.023884,-0.77269 c -0.390375,-0.62509 -0.493459,-0.55261 -0.294752,0.20725 0.08353,0.31943 0.254966,0.51707 0.380962,0.4392 0.125997,-0.0779 0.0872,-0.36877 -0.08621,-0.64645 z m -9.02364,-0.85966 c -0.0734,-0.1819 -0.133452,-0.0331 -0.133452,0.33073 0,0.3638 0.06005,0.51263 0.133452,0.33072 0.0734,-0.1819 0.0734,-0.47955 0,-0.66145 z m 16.79705,-0.50016 c -0.181256,-0.62985 -0.262758,-0.72172 -0.279667,-0.31523 -0.02677,0.64351 0.244835,1.49478 0.420783,1.31883 0.06308,-0.0631 -4.24e-4,-0.5147 -0.141116,-1.0036 z m -7.531121,-0.27706 c -0.08446,-0.21106 -0.147157,-0.14837 -0.159853,0.15986 -0.01149,0.27891 0.05105,0.43518 0.138964,0.34726 0.08792,-0.0879 0.09732,-0.31612 0.02089,-0.50712 z m -9.260417,-0.26458 c -0.08446,-0.21107 -0.147157,-0.14837 -0.159852,0.15985 -0.01149,0.27892 0.05105,0.43519 0.138964,0.34727 0.08792,-0.0879 0.09732,-0.31612 0.02089,-0.50712 z m -102.970008,-1.53362 c -0.07824,-0.24652 0.03828,-0.88028 0.258924,-1.40837 0.498348,-1.19271 0.514637,-1.79783 0.04353,-1.61705 -0.212176,0.0814 -0.309661,0.38828 -0.239668,0.75443 0.06489,0.33946 -0.01229,0.69771 -0.171515,0.79611 -0.159225,0.0984 -0.281953,0.8565 -0.272729,1.68466 0.01375,1.23425 0.06247,1.39149 0.270243,0.87208 0.139409,-0.34851 0.189456,-0.83535 0.111215,-1.08186 z m 107.551767,1.31865 c 0,-0.14553 -0.126089,-0.26459 -0.280198,-0.26459 -0.154109,0 -0.206613,0.11906 -0.116677,0.26459 0.08994,0.14552 0.216026,0.26458 0.280199,0.26458 0.06417,0 0.116676,-0.11906 0.116676,-0.26458 z m -4.698351,-4.83262 c -0.225725,-0.7033 -0.272684,-0.36054 -0.263348,1.9222 l 0.01136,2.77812 0.263348,-1.92219 c 0.179154,-1.30766 0.175521,-2.19584 -0.01136,-2.77813 z m 10.779716,3.13487 c 0.0054,-0.67692 -0.146027,-0.46573 -0.36364,0.50712 -0.129665,0.57968 -0.105117,0.68672 0.09102,0.39688 0.147713,-0.21829 0.270392,-0.62508 0.27262,-0.904 z m 6.089468,-0.8158 c 0,-0.94588 -0.116088,-1.71979 -0.257973,-1.71979 -0.146344,0 -0.23592,0.74418 -0.207008,1.71979 0.02803,0.94589 0.14412,1.7198 0.257974,1.7198 0.113854,0 0.207007,-0.77391 0.207007,-1.7198 z m -7.762271,0.59532 c -0.0734,-0.1819 -0.133452,-0.0331 -0.133452,0.33073 0,0.3638 0.06005,0.51263 0.133452,0.33072 0.0734,-0.1819 0.0734,-0.47955 0,-0.66145 z m 5.150155,0.49987 c 0.206886,-0.2838 -0.02308,-1.22748 -0.299129,-1.22748 -0.112032,0 -0.255058,0.34996 -0.317835,0.77769 -0.108089,0.73646 0.228898,0.98213 0.616964,0.44979 z m 14.589301,-1.32118 c -0.128369,-0.20396 -0.219048,-0.16095 -0.277094,0.13144 -0.05473,0.27569 -0.263761,0.38819 -0.571659,0.30767 -0.266957,-0.0698 -0.577877,0.0227 -0.690933,0.20567 -0.144772,0.23425 -0.07536,0.28264 0.234723,0.16365 0.304085,-0.11669 0.443001,-0.0283 0.449081,0.28576 0.0073,0.37513 0.09964,0.34569 0.527748,-0.16815 0.28542,-0.34258 0.433081,-0.7593 0.328134,-0.92604 z m -131.015936,-4.33351 c -0.222633,-0.38238 -0.273703,-0.29073 -0.280283,0.50297 -0.01195,1.44138 0.366662,2.20736 0.470675,0.95224 0.04501,-0.54319 -0.04066,-1.19804 -0.190392,-1.45521 z m -1.196816,-0.53822 c -0.31087,-0.31087 -0.391705,0.13363 -0.207837,1.14287 l 0.190283,1.04444 0.0837,-1.01873 c 0.04603,-0.56031 0.01627,-1.08616 -0.06615,-1.16858 z m 114.439547,0.91566 c -0.34553,-0.34553 -0.393592,0.0374 -0.09878,0.78699 0.183854,0.46745 0.194127,0.46722 0.289396,-0.007 0.05433,-0.27012 -0.03145,-0.62136 -0.19062,-0.78052 z m 2.537178,0.56058 c -0.08446,-0.21107 -0.147157,-0.14837 -0.159853,0.15985 -0.01149,0.27892 0.05105,0.43519 0.138965,0.34727 0.08792,-0.0879 0.09732,-0.31612 0.02089,-0.50712 z m 0.608958,-1.33945 c 0.0022,-0.10914 -0.115011,-0.19844 -0.260532,-0.19844 -0.145521,0 -0.26276,0.26789 -0.260532,0.59531 0.0033,0.48139 0.05313,0.51937 0.260532,0.19844 0.141064,-0.21828 0.258303,-0.48617 0.260532,-0.59531 z m 14.180568,-0.18321 c -0.04641,-1.38519 -0.354006,-1.62995 -0.745375,-0.5931 -0.174894,0.46335 -0.410948,0.84245 -0.524565,0.84245 -0.113618,0 -0.206577,0.12133 -0.206577,0.26963 0,0.15548 0.280023,0.19934 0.661458,0.10361 0.407565,-0.1023 0.661458,-0.0534 0.661458,0.12725 0,0.16129 0.04242,0.29326 0.09427,0.29326 0.05185,0 0.07855,-0.46939 0.05933,-1.0431 z M 60.1862,70.606037 c -0.108039,-1.00634 -0.380242,-1.92746 -0.687682,-2.3271 -0.50855,-0.66105 -0.508866,-0.66109 -0.514745,-0.0662 -0.0032,0.32742 0.113179,0.59531 0.2587,0.59531 0.145521,0 0.264583,0.1786 0.264583,0.39688 0,0.21828 -0.10418,0.39687 -0.23151,0.39687 -0.375171,0 -0.603181,1.6543 -0.271226,1.96784 0.21774,0.20567 0.249351,0.12133 0.117769,-0.31419 -0.133132,-0.44065 -0.07212,-0.59531 0.234846,-0.59531 0.232422,0 0.414704,0.22308 0.414704,0.50753 0,0.27914 0.07424,0.70099 0.164978,0.93745 0.315985,0.82344 0.427209,0.15537 0.249583,-1.49914 z m -118.422775,-0.84984 c 0.0054,-0.67692 -0.146028,-0.46574 -0.36364,0.50712 -0.129666,0.57968 -0.105118,0.68671 0.09102,0.39687 0.147713,-0.21828 0.270392,-0.62508 0.272621,-0.90399 z m 116.33136,-0.48507 c -0.0734,-0.1819 -0.133453,-0.0331 -0.133453,0.33073 0,0.3638 0.06005,0.51263 0.133453,0.33073 0.0734,-0.1819 0.0734,-0.47956 0,-0.66146 z m -116.416664,-1.05833 c -0.0734,-0.1819 -0.133452,-0.0331 -0.133452,0.33073 0,0.3638 0.06005,0.51263 0.133452,0.33072 0.0734,-0.1819 0.0734,-0.47955 0,-0.66145 z m 111.87581,0.0661 c 0.08994,-0.14552 0.03743,-0.26459 -0.116676,-0.26459 -0.15411,0 -0.280199,0.11907 -0.280199,0.26459 0,0.14552 0.0525,0.26458 0.116677,0.26458 0.06417,0 0.190261,-0.11906 0.280198,-0.26458 z m 0.132292,-1.20624 c 0,-0.22687 -0.121005,-0.33771 -0.268899,-0.2463 -0.147895,0.0914 -0.200399,0.27702 -0.116677,0.41248 0.226811,0.36699 0.385576,0.29856 0.385576,-0.16618 z m -3.96875,-0.11668 c 0,-0.14552 -0.126089,-0.26458 -0.280198,-0.26458 -0.154109,0 -0.206614,0.11906 -0.116677,0.26458 0.08994,0.14552 0.216026,0.26458 0.280198,0.26458 0.06417,0 0.116677,-0.11906 0.116677,-0.26458 z"
       id="path3" /></g></svg>
