<?xml version="1.0" encoding="UTF-8" standalone="no"?>
<!-- Created with Inkscape (http://www.inkscape.org/) -->

<svg
   width="362.47916mm"
   height="155.04584mm"
   viewBox="0 0 362.47916 155.04584"
   version="1.1"
   id="svg1"
   xml:space="preserve"
   xmlns="http://www.w3.org/2000/svg"
   xmlns:svg="http://www.w3.org/2000/svg"><defs
     id="defs1" /><g
     id="layer1"
     transform="translate(72.538877,-65.680821)"><path
       style="fill:#000000"
       d="m -72.51694,146.36283 c 0.0055,-68.298229 0.04113,-74.417579 0.437392,-75.022349 0.342118,-0.52214 0.354912,-0.6421 0.06179,-0.57936 -0.292708,0.0627 -0.385426,-0.4579 -0.445389,-2.50056 l -0.07573,-2.57969 h 6.888748 c 6.377238,0 6.890128,0.0344 6.907344,0.46302 0.0159,0.39593 0.05154,0.38635 0.245987,-0.0662 0.197901,-0.46054 0.233452,-0.42623 0.274133,0.26458 l 0.04674,0.79375 0.287512,-0.7276 0.287513,-0.7276 h 54.4310404 c 43.2972696,0 54.4583386,0.0677 54.5644936,0.33072 0.106761,0.26459 0.137629,0.26459 0.15434,0 0.01149,-0.1819 0.309084,-0.33072 0.661324,-0.33072 0.495919,0 0.679625,0.17842 0.814106,0.79071 0.21182,0.96441 0.603544,1.25731 0.843886,0.63099 0.102394,-0.26684 0.0454,-0.50814 -0.13416,-0.56799 -0.171702,-0.0572 -0.312185,-0.27273 -0.312185,-0.47889 0,-0.28493 0.412439,-0.37482 1.719792,-0.37482 1.534263,0 1.719792,0.0562 1.719792,0.52086 0,0.38145 0.120346,0.47468 0.449643,0.34832 0.281244,-0.10793 0.330789,-0.21217 0.132291,-0.27833 -0.174543,-0.0582 -0.317351,-0.21378 -0.317351,-0.34578 0,-0.14301 28.948176,-0.23964 71.635928,-0.23912 46.46689,5.7e-4 71.4965,0.0912 71.23906,0.25799 -0.31952,0.20701 -0.27781,0.25791 0.21405,0.26117 0.34067,0.002 0.53859,-0.11299 0.44741,-0.26053 -0.10877,-0.17599 14.81392,-0.26458 44.56667,-0.26458 h 44.7302 v 77.522919 77.52292 H 108.71828 -72.522878 Z M 37.546953,205.2642 c 0,-0.0642 -0.119063,-0.19026 -0.264583,-0.2802 -0.145521,-0.0899 -0.264584,-0.0374 -0.264584,0.11668 0,0.1541 0.119063,0.28019 0.264584,0.28019 0.14552,0 0.264583,-0.0525 0.264583,-0.11667 z m -11.156352,-1.21831 c -0.228648,-0.6559 -0.198269,-0.89713 0.163291,-1.29665 0.550219,-0.60798 0.213876,-0.85094 -0.803567,-0.58045 -1.003782,0.26686 -1.160583,1.1844 -0.34988,2.04735 0.871901,0.9281 1.344702,0.8468 0.990156,-0.17025 z m 5.010302,-0.83129 c -0.163532,-0.4906 -0.733117,-0.57197 -0.733117,-0.10473 0,0.2304 0.188516,0.41892 0.418924,0.41892 0.230408,0 0.371795,-0.14139 0.314193,-0.31419 z m 1.648133,-1.27331 c 0,-0.14552 -0.112035,-0.26458 -0.248968,-0.26458 -0.136933,0 -0.322553,0.11906 -0.41249,0.26458 -0.08994,0.14552 0.0221,0.26458 0.248968,0.26458 0.22687,0 0.41249,-0.11906 0.41249,-0.26458 z m -5.953125,-1.85208 c 0.08994,-0.14552 0.03743,-0.26459 -0.116676,-0.26459 -0.154109,0 -0.280198,0.11907 -0.280198,0.26459 0,0.14552 0.0525,0.26458 0.116676,0.26458 0.06417,0 0.190262,-0.11906 0.280198,-0.26458 z m 1.967362,-2.10056 c 0.330094,-0.20887 0.330094,-0.30367 0,-0.72355 -0.346429,-0.44066 -0.339759,-0.45176 0.07578,-0.12618 0.490389,0.38423 0.647728,0.29264 1.524171,-0.88721 0.38117,-0.51312 0.37682,-0.51497 -0.153125,-0.0651 -0.667538,0.56667 -1.087727,0.61037 -0.636066,0.0661 0.620751,-0.74796 -0.478515,-0.44988 -1.325324,0.35937 -0.851112,0.81337 -0.985957,1.23779 -0.460613,1.44978 0.485714,0.19599 0.558313,0.19053 0.975174,-0.0733 z m 10.02756,-0.68749 c 0.251497,-0.55198 0.394793,-0.62381 0.805706,-0.4039 0.42101,0.22532 0.608894,0.10264 1.191776,-0.77815 0.380584,-0.5751 0.691971,-1.21221 0.691971,-1.41579 0,-0.20358 0.178594,-0.51837 0.396875,-0.69953 0.295751,-0.24545 0.396875,-0.24973 0.396875,-0.0168 0,0.17193 0.113863,0.24222 0.253028,0.15621 0.139165,-0.086 0.185958,-0.33116 0.103984,-0.54478 -0.08197,-0.21362 -0.01724,-0.3884 0.143847,-0.3884 0.16109,0 0.292891,-0.12841 0.292891,-0.28536 0,-0.15695 0.469421,-0.76424 1.043158,-1.34954 0.573738,-0.5853 1.118979,-1.40939 1.211648,-1.83131 0.09267,-0.42192 0.285118,-0.76712 0.427665,-0.76712 0.142546,0 0.169762,-0.14883 0.06048,-0.33073 -0.114755,-0.19101 0.0093,-0.16307 0.293591,0.0661 0.464761,0.37469 0.482765,0.3488 0.321987,-0.46302 -0.123158,-0.62186 -0.07362,-0.85989 0.178953,-0.85989 0.400981,0 1.2936,-0.90156 1.092111,-1.10305 -0.226197,-0.2262 0.433137,-1.81657 0.687847,-1.65915 0.131345,0.0812 0.23881,-0.26913 0.23881,-0.77845 0,-0.50932 0.119062,-0.99963 0.264583,-1.08956 0.145521,-0.0899 0.264584,-0.0214 0.264584,0.15236 0,0.47367 0.94235,-0.81781 1.405444,-1.92615 0.40451,-0.96813 0.332715,-2.18701 -0.112608,-1.91179 -0.128977,0.0797 -0.234503,-0.0407 -0.234503,-0.26756 0,-0.22687 0.119062,-0.41249 0.264583,-0.41249 0.145521,0 0.264583,-0.17859 0.264583,-0.39687 0,-0.21828 0.09042,-0.39688 0.200939,-0.39688 0.469578,0 0.8694,-1.07069 0.592811,-1.5875 -0.20008,-0.37385 -0.183441,-0.67975 0.0601,-1.10491 0.635945,-1.11021 0.833284,-1.24065 1.177126,-0.77804 0.291545,0.39224 0.356499,0.38974 0.78257,-0.0302 0.442919,-0.43651 0.436656,-0.5077 -0.133998,-1.52304 -0.598634,-1.06513 -0.598634,-1.06513 -0.06988,-1.73732 0.290813,-0.36971 0.608344,-1.03459 0.705626,-1.47751 0.132106,-0.60148 0.295669,-0.77424 0.64621,-0.68257 0.350897,0.0918 0.43727,1.1e-4 0.342271,-0.36316 -0.152327,-0.5825 0.862382,-2.78183 1.374044,-2.97817 0.259088,-0.0994 0.320874,-0.44422 0.217589,-1.21427 -0.08369,-0.62392 -0.03541,-1.07542 0.114993,-1.07542 0.401741,0 1.927104,-4.19567 1.927104,-5.3007 0,-0.19767 0.283942,-0.78252 0.630982,-1.29966 0.719595,-1.07231 1.104576,-2.39547 0.696976,-2.39547 -0.148294,0 -0.269624,0.11906 -0.269624,0.26458 0,0.14552 -0.170888,0.26458 -0.379749,0.26458 -0.208862,0 -0.530437,0.41672 -0.714611,0.92604 -0.184173,0.50933 -0.437031,0.92605 -0.561907,0.92605 -0.124876,0 -0.158546,0.11083 -0.07482,0.2463 0.08372,0.13546 0.03122,0.32108 -0.116677,0.41249 -0.147894,0.0914 -0.270722,0.0103 -0.272951,-0.18016 -0.0029,-0.25141 -0.07381,-0.23756 -0.258543,0.0505 -0.13997,0.21828 -0.187434,0.61224 -0.105474,0.87545 0.08196,0.26322 -0.05234,0.90291 -0.298447,1.42154 -0.683166,1.43967 -2.243901,5.97347 -2.243901,6.51835 0,0.26558 -0.179688,0.66257 -0.399306,0.88218 -0.219619,0.21962 -0.320286,0.52717 -0.223703,0.68344 0.100104,0.16198 0.05213,0.20783 -0.111578,0.10665 -0.15795,-0.0976 -0.36012,-0.0595 -0.449267,0.0848 -0.09322,0.15083 -0.66306,0.19359 -1.341199,0.10065 -0.656523,-0.09 -1.179113,-0.054 -1.179113,0.0812 0,0.13353 -0.528946,0.39897 -1.175436,0.58985 -0.967899,0.28579 -1.189797,0.47117 -1.256771,1.04995 -0.103747,0.89657 0.575783,2.15425 1.165129,2.15642 0.248993,9.2e-4 0.669491,-0.23101 0.934441,-0.5154 0.702269,-0.75379 1.655553,-0.60989 1.655553,0.24993 0,0.37321 -0.185345,0.94319 -0.411877,1.26661 -0.226533,0.32342 -0.354469,0.58804 -0.284301,0.58804 0.206806,0 -0.786394,2.64674 -1.117419,2.97776 -0.166688,0.16669 -0.303069,0.45785 -0.303069,0.64703 0,0.18918 -0.09465,0.34396 -0.210338,0.34396 -0.115686,0 -0.423873,0.5178 -0.684859,1.15068 -0.260987,0.63287 -0.761647,1.48483 -1.112579,1.89324 -0.350932,0.4084 -0.638057,0.90424 -0.638057,1.10186 0,0.42354 -0.393578,1.22895 -1.696621,3.47194 -0.36279,0.62448 -0.592976,1.30909 -0.511524,1.52135 0.08145,0.21226 0.0093,0.38593 -0.160413,0.38593 -0.170001,0 -0.224676,-0.14849 -0.121783,-0.33073 0.137816,-0.24411 0.104008,-0.25472 -0.12908,-0.0405 -0.173691,0.15962 -0.335521,0.7847 -0.359621,1.38907 -0.03563,0.89347 -0.139122,1.09884 -0.553741,1.09884 -0.700255,0 -1.211232,0.75375 -1.221303,1.80156 -0.0053,0.54929 -0.113211,0.81074 -0.28967,0.70168 -0.377878,-0.23354 -1.304739,0.63241 -1.139048,1.06419 0.07233,0.18849 -0.292886,0.75488 -0.811593,1.25864 -0.518707,0.50376 -0.943103,1.05273 -0.943103,1.21993 0,0.1672 -0.156318,0.304 -0.347374,0.304 -0.191056,0 -0.671524,0.33834 -1.067708,0.75187 -0.617863,0.64491 -0.682294,0.85192 -0.452925,1.45521 0.335379,0.88211 0.63899,0.89153 1.030637,0.032 z m 12.164843,-28.61353 c 0.190997,-0.0764 0.4192,-0.067 0.507118,0.0209 0.08792,0.0879 -0.06835,0.15045 -0.347265,0.13896 -0.308225,-0.0127 -0.370919,-0.0754 -0.159853,-0.15985 z m -26.937889,27.02034 c 0,-0.22687 -0.119063,-0.33891 -0.264584,-0.24897 -0.145521,0.0899 -0.264583,0.27556 -0.264583,0.41249 0,0.13693 0.119062,0.24897 0.264583,0.24897 0.145521,0 0.264584,-0.18562 0.264584,-0.41249 z m 143.668743,-4.35001 c 0,-0.14552 -0.29091,-0.26459 -0.64646,-0.26459 -0.36693,0 -0.82349,-0.25275 -1.05588,-0.58453 -0.31703,-0.45263 -0.48063,-0.51333 -0.72497,-0.269 -0.17354,0.17355 -0.26394,0.3473 -0.20089,0.3861 1.60632,0.9885 2.6282,1.27312 2.6282,0.73202 z m 28.83958,-7.51232 c 0,-0.0572 -0.18478,-0.17489 -0.41062,-0.26155 -0.23546,-0.0904 -0.34166,-0.046 -0.24896,0.10398 0.15537,0.25141 0.65958,0.37186 0.65958,0.15757 z m 1.84803,-1.30069 c -0.003,-0.47129 -0.052,-0.50548 -0.26053,-0.18283 -0.33686,0.52126 -0.33686,1.13424 0,0.92604 0.14552,-0.0899 0.26276,-0.42438 0.26053,-0.74321 z M 56.967209,177.1366 c -0.118952,-0.40018 -0.238381,-1.20385 -0.265398,-1.78594 -0.02702,-0.58208 -0.07535,-1.23692 -0.107417,-1.4552 -0.08215,-0.55928 -0.492955,1.53587 -0.51136,2.60799 -0.01221,0.71128 0.06967,0.85562 0.411086,0.7246 0.305064,-0.11706 0.382686,-0.0498 0.272887,0.23628 -0.0844,0.21993 -0.02521,0.39988 0.131516,0.39988 0.186909,0 0.210544,-0.25036 0.06869,-0.72761 z m -33.377027,-3.52884 c 0.254662,-0.44744 0.463021,-0.96401 0.463021,-1.14795 0,-0.45572 -0.739017,-1.04937 -1.852083,-1.48778 -0.509323,-0.20061 -1.286948,-0.72623 -1.728056,-1.16805 -1.285304,-1.28739 -1.973785,-1.76968 -1.992882,-1.39604 -0.01601,0.31332 -0.45854,-0.55371 -0.710284,-1.39165 -0.1693,-0.56352 -0.11622,-2.86673 0.08034,-3.48604 0.09215,-0.29035 0.320771,-0.46134 0.516429,-0.38626 0.430031,0.16502 0.727589,-0.52329 0.51533,-1.19206 -0.08587,-0.27054 -0.04194,-0.49189 0.09761,-0.49189 0.139552,0 0.334995,-0.32742 0.434319,-0.7276 0.207688,-0.8368 1.169494,-1.96813 1.499706,-1.76405 0.122702,0.0758 0.158192,-0.0312 0.07887,-0.23796 -0.08287,-0.21596 0.05911,-0.44662 0.33376,-0.54221 1.192152,-0.41494 3.520693,-2.4137 3.520693,-3.02209 0,-0.19355 0.119063,-0.27832 0.264584,-0.18838 0.14552,0.0899 0.264583,-0.0816 0.264583,-0.38126 0,-0.29963 -0.04499,-0.54478 -0.09998,-0.54478 -0.05499,0 -0.533691,-0.18122 -1.063782,-0.40271 -0.963803,-0.4027 -0.963803,-0.4027 -1.125097,0.40377 -0.120175,0.60088 -0.274585,0.77052 -0.605683,0.66543 -0.283118,-0.0899 -0.728042,0.17169 -1.226014,0.72071 -0.429895,0.47397 -1.256214,1.28372 -1.836264,1.79946 -1.381599,1.22842 -2.496549,2.71954 -3.255277,4.35359 -0.851878,1.83466 -0.886128,5.02232 -0.07309,6.80243 0.683328,1.49612 0.787725,1.56857 2.779927,1.92918 1.900399,0.34399 2.340732,0.84882 1.707325,1.95738 -0.271626,0.4754 -0.346888,0.89146 -0.202489,1.11942 0.180888,0.28555 0.230684,0.26421 0.233873,-0.10023 0.0057,-0.64611 0.209017,-0.5828 1.062384,0.33073 0.936116,1.00212 1.337464,0.99728 1.918229,-0.0231 z m -7.438448,-7.6498 c -0.02379,-0.21829 -0.117359,-0.69454 -0.20793,-1.05834 -0.127178,-0.51084 -0.09152,-0.59349 0.156589,-0.36296 0.176695,0.16417 0.270263,0.64042 0.20793,1.05833 -0.06233,0.41791 -0.132799,0.58125 -0.156589,0.36297 z m 2.366108,-6.76893 c 0.0127,-0.30822 0.07539,-0.37092 0.159852,-0.15985 0.07643,0.191 0.06703,0.4192 -0.02089,0.50712 -0.08792,0.0879 -0.150453,-0.0684 -0.138964,-0.34727 z m 36.222976,12.47952 c 0.0054,-0.67693 -0.146028,-0.46574 -0.36364,0.50711 -0.129666,0.57968 -0.105118,0.68672 0.09102,0.39688 0.147713,-0.21828 0.270392,-0.62508 0.272621,-0.90399 z m 151.602192,-0.28664 c 0,-0.14552 -0.11542,-0.086 -0.25648,0.1323 -0.14107,0.21828 -0.25648,0.51593 -0.25648,0.66145 0,0.14553 0.11541,0.086 0.25648,-0.13229 0.14106,-0.21828 0.25648,-0.51593 0.25648,-0.66146 z m 13.99029,-0.28628 c -0.21874,-0.21867 -0.4958,-0.2697 -0.71811,-0.13225 -0.28877,0.17853 -0.23588,0.34986 0.26155,0.84729 0.57531,0.57531 0.63081,0.58553 0.71811,0.13225 0.052,-0.2702 -0.0657,-0.65148 -0.26155,-0.84729 z m -53.93427,0.15399 c 0,-0.14552 -0.18562,-0.26458 -0.41249,-0.26458 -0.22687,0 -0.33891,0.11906 -0.24897,0.26458 0.0899,0.14552 0.27556,0.26459 0.41249,0.26459 0.13693,0 0.24897,-0.11907 0.24897,-0.26459 z m 25.24477,-0.36125 c -0.0727,-0.18937 -0.29421,-0.3443 -0.49232,-0.3443 -0.27825,0 -0.29371,0.10645 -0.0679,0.46795 0.3237,0.51833 0.76891,0.42007 0.56027,-0.12365 z M 55.908888,170.29751 c 0.212506,-0.55378 -0.459554,-0.44768 -0.819982,0.12946 -0.269374,0.43133 -0.24421,0.48242 0.182636,0.3708 0.272281,-0.0712 0.559086,-0.29632 0.637346,-0.50026 z m 151.464222,-0.6449 c 0.14812,-0.4249 0.17043,-0.83365 0.0496,-0.90835 -0.22876,-0.14138 -1.07157,1.41784 -1.07157,1.98243 0,0.54923 0.71984,-0.20729 1.022,-1.07408 z m -141.094105,0.84333 c -0.07632,-0.12349 0.507851,-0.37964 1.298155,-0.56923 0.790304,-0.18959 1.395481,-0.41598 1.344837,-0.50309 -0.05064,-0.0871 0.0057,-0.41701 0.125308,-0.73313 0.16205,-0.42845 0.37304,-0.54047 0.828831,-0.44007 0.488349,0.10757 0.531545,0.0776 0.214566,-0.14879 -0.304991,-0.21786 -0.109383,-0.28443 0.844893,-0.28754 0.968709,-0.003 1.329571,-0.12941 1.641062,-0.57412 0.58263,-0.83182 0.120205,-1.5466 -1.000574,-1.5466 -1.787687,0 -5.057256,1.44697 -5.057256,2.23811 0,0.37895 -0.249017,0.57061 -0.926042,0.71276 -0.773387,0.16238 -1.001399,0.0987 -1.383179,-0.38603 -0.251425,-0.31925 -0.459785,-0.78882 -0.463021,-1.04348 -0.0072,-0.56637 -0.494433,-0.61215 -0.703953,-0.0661 -0.18099,0.47165 -0.801778,0.52754 -0.949142,0.0854 -0.189345,-0.56804 -0.782551,0.0821 -0.629892,0.69036 0.131189,0.52269 0.06226,0.57334 -0.64002,0.47027 -1.03366,-0.15171 -1.01438,0.2959 0.05481,1.27245 0.759168,0.6934 1.051514,0.77759 2.976563,0.85728 1.174091,0.0486 2.231035,0.11259 2.348764,0.14221 0.117729,0.0296 0.15161,-0.0472 0.07529,-0.17066 z m -1.619403,-0.82226 c 0.08601,-0.13917 0.331161,-0.18596 0.544782,-0.10399 0.546923,0.20988 0.482474,0.35702 -0.15638,0.35702 -0.29963,0 -0.474411,-0.11387 -0.388402,-0.25303 z m -4.027754,0.60696 c -0.181901,-0.0734 -0.479557,-0.0734 -0.661458,0 -0.181901,0.0734 -0.03307,0.13346 0.330729,0.13346 0.363802,0 0.51263,-0.0601 0.330729,-0.13346 z m -1.215781,-0.76222 c 0.238127,-0.62055 -0.01891,-0.69341 -0.383977,-0.10885 -0.204407,0.32731 -0.221963,0.51714 -0.04783,0.51714 0.151321,0 0.345633,-0.18373 0.431803,-0.40829 z m 12.65901,-0.91463 c 0.19341,-0.31295 -0.06549,-0.31295 -0.79375,0 -0.510179,0.21923 -0.508366,0.22806 0.05053,0.24599 0.318834,0.0102 0.653282,-0.10047 0.743219,-0.24599 z m 3.307291,-2.11667 c 0,-0.14552 0.09401,-0.23482 0.208916,-0.19843 0.358124,0.11338 2.436918,-1.81393 2.436918,-2.25934 0,-0.23245 0.221044,-0.57822 0.491209,-0.76837 0.270166,-0.19015 0.575845,-0.61362 0.679288,-0.94104 0.103443,-0.32743 0.358649,-0.59532 0.567124,-0.59532 0.227926,0 0.379045,-0.26371 0.379045,-0.66146 0,-0.80936 -0.186182,-0.82735 -0.967378,-0.0935 -0.486489,0.45703 -0.680055,0.50538 -0.990789,0.2475 -0.314369,-0.26091 -0.445992,-0.20663 -0.707839,0.29189 -0.176913,0.33682 -0.482873,0.70761 -0.67991,0.82398 -0.197038,0.11637 -0.35825,0.36279 -0.35825,0.5476 0,0.36737 -1.180942,1.48978 -1.567464,1.48978 -0.132287,0 -0.300576,-0.14883 -0.373974,-0.33073 -0.0734,-0.1819 -0.142852,0.35388 -0.154341,1.19062 -0.01856,1.35193 0.03804,1.52136 0.508279,1.52136 0.291041,0 0.529166,-0.11907 0.529166,-0.26459 z m -13.835402,-1.32436 c -0.278952,-0.39826 -0.430309,-0.46183 -0.51323,-0.21555 -0.06468,0.19211 0.07125,0.48838 0.302077,0.65838 0.584529,0.43051 0.681063,0.22806 0.211153,-0.44283 z m 20.714569,-0.41104 c 0,-0.22687 -0.123105,-0.33641 -0.273567,-0.24342 -0.150462,0.093 -0.03184,-0.2274 0.263594,-0.71199 0.295439,-0.48458 0.537607,-1.10216 0.538151,-1.37239 6.6e-4,-0.32785 0.133042,-0.44066 0.397864,-0.33903 0.241752,0.0928 0.396875,4.1e-4 0.396875,-0.23628 0,-0.21371 -0.1229,-0.38857 -0.27311,-0.38857 -0.15021,0 -0.380788,-0.26789 -0.512395,-0.59531 -0.220511,-0.5486 -0.241263,-0.55379 -0.264472,-0.0662 -0.03024,0.63526 -0.610435,1.45521 -1.029713,1.45521 -0.165858,0 -0.30156,0.17486 -0.30156,0.38857 0,0.2476 -0.15369,0.3296 -0.423614,0.22602 -0.37727,-0.14478 -0.373652,-0.0643 0.03307,0.7359 0.782183,1.53885 1.448879,2.06684 1.448879,1.14744 z m -19.322897,-0.84428 c -0.01076,-0.2569 -1.314602,-1.20963 -1.314602,-0.96059 0,0.24319 0.865075,1.12274 1.124479,1.1433 0.10914,0.009 0.194696,-0.0736 0.190123,-0.18271 z m 24.409098,-1.91823 c -0.05399,-0.48801 0.136615,-0.80023 0.726843,-1.19063 0.802333,-0.5307 1.031569,-0.92604 0.536956,-0.92604 -0.145521,0 -0.264584,0.12325 -0.264584,0.27389 0,0.1888 -0.158994,0.1888 -0.511772,0 -0.636154,-0.34046 -1.424001,-0.35877 -1.219792,-0.0284 0.08346,0.13505 -0.117414,0.33097 -0.44639,0.43538 -1.146921,0.36402 -1.707065,1.80402 -0.798608,2.05304 0.254661,0.0698 0.820208,0.1083 1.256771,0.0855 0.680934,-0.0355 0.78335,-0.13539 0.720576,-0.70283 z m 17.403374,-2.38125 c -0.1691,-0.31597 -0.36559,-0.51636 -0.43664,-0.4453 -0.071,0.0711 0.0234,0.37349 0.20986,0.67208 0.44094,0.70606 0.62664,0.52035 0.22678,-0.22678 z m 21.16667,0.37482 c 0,-0.23041 0.13871,-0.37269 0.30824,-0.31617 0.33073,0.11024 1.80843,-1.20285 1.80843,-1.60699 0,-0.54851 0.74504,-1.65495 0.9218,-1.36894 0.21699,0.3511 0.93563,-0.13289 0.92186,-0.62085 -0.005,-0.16408 -0.18322,-0.0672 -0.39687,0.21526 -0.21365,0.28247 -0.38846,0.4369 -0.38846,0.34318 0,-0.36527 0.62538,-1.51823 0.82351,-1.51823 0.30637,0 1.94971,-2.43933 1.98305,-2.9436 0.0222,-0.33534 -0.12066,-0.39018 -0.64856,-0.24899 -0.60162,0.16089 -1.27153,0.95467 -1.80122,2.13426 -0.19375,0.43146 -0.64216,0.9776 -1.70137,2.07218 -0.37573,0.38827 -0.76495,1.03336 -0.86494,1.43354 -0.12186,0.4877 -0.35462,0.72761 -0.70593,0.72761 -0.3214,0 -0.52552,0.17909 -0.52774,0.46302 -0.002,0.25466 -0.0754,0.73091 -0.16315,1.05833 -0.0957,0.35719 -0.0414,0.59532 0.13591,0.59532 0.16249,0 0.29544,-0.18852 0.29544,-0.41893 z m -17.97354,-0.27039 c 1.88212,-0.55626 2.00461,-0.6482 1.42659,-1.07086 -0.71537,-0.5231 -1.69226,-0.43608 -2.68097,0.23882 -1.78636,1.21937 -1.25306,1.57312 1.25438,0.83204 z m -28.476406,-0.24514 c 0.487051,-0.36839 0.471079,-0.38846 -0.30909,-0.38846 -0.975915,0 -1.659709,0.22968 -1.659709,0.55747 0,0.37739 1.405961,0.2567 1.968799,-0.16901 z m 74.322496,-0.79675 c -0.0862,-0.22455 -0.21342,-0.35154 -0.28277,-0.28218 -0.0694,0.0694 -0.0476,0.25308 0.0483,0.40828 0.26089,0.42214 0.41338,0.34013 0.23447,-0.1261 z m -39.12736,-0.13709 c -0.0954,-0.15444 -0.2249,-0.66046 -0.28767,-1.12448 -0.22514,-1.66446 -0.37652,-2.0343 -0.83183,-2.03224 -0.46211,0.002 -1.18798,1.16412 -0.90434,1.44775 0.29881,0.29882 0.27997,1.0537 -0.0313,1.25514 -0.17383,0.11249 -0.67325,0.13129 -1.10981,0.0418 -1.15846,-0.2375 -0.6828,0.10761 0.54487,0.39533 1.49113,0.34946 2.83104,0.358 2.62011,0.0167 z m 3.43063,-0.18223 c -0.1317,-0.10914 -0.32831,-0.3175 -0.43692,-0.46302 -0.11269,-0.15099 -0.1992,-0.0658 -0.20152,0.19844 -0.002,0.25739 0.1918,0.46302 0.43693,0.46302 0.24253,0 0.33321,-0.0893 0.20151,-0.19844 z m 0.94501,-0.33072 c 0,-0.14553 -0.18562,-0.26459 -0.41249,-0.26459 -0.22687,0 -0.3389,0.11906 -0.24897,0.26459 0.0899,0.14552 0.27556,0.26458 0.41249,0.26458 0.13694,0 0.24897,-0.11906 0.24897,-0.26458 z m 36.39242,-0.46048 c -0.10378,-0.27043 -0.0263,-0.34455 0.24937,-0.23875 0.21993,0.0844 0.39988,0.10739 0.39988,0.0511 0,-0.0563 0.0802,-0.31135 0.17822,-0.56679 0.13742,-0.35809 0.0768,-0.42554 -0.26458,-0.29453 -0.52729,0.20234 -0.58109,-0.27882 -0.13953,-1.24793 0.40052,-0.87905 0.7464,-0.62101 0.79109,0.59018 0.0227,0.61533 0.0784,0.75636 0.15069,0.38126 0.0631,-0.32742 0.2349,-0.59531 0.38187,-0.59531 0.15924,0 0.19676,-0.3207 0.0929,-0.79375 -0.10968,-0.4994 -0.0684,-0.79375 0.11127,-0.79375 0.4317,0 0.34221,-0.71542 -0.11127,-0.88943 -0.25464,-0.0977 -0.40436,0.0107 -0.41776,0.30242 -0.0128,0.27869 -0.0728,0.32605 -0.15489,0.12234 -0.0737,-0.18281 -0.24289,-0.26508 -0.37599,-0.18283 -0.13309,0.0823 -0.24198,0.0235 -0.24198,-0.13064 0,-0.15411 -0.17859,-0.2802 -0.39688,-0.2802 -0.39067,0 -0.49748,0.38441 -0.41219,1.48347 0.0305,0.39253 -0.19516,0.65618 -0.76271,0.89127 -0.60787,0.25179 -0.87571,0.59283 -1.08969,1.38751 -0.15605,0.57952 -0.21637,1.12102 -0.13405,1.20335 0.0823,0.0823 0.14969,0.0178 0.14969,-0.14331 0,-0.19718 0.22706,-0.17518 0.69437,0.0673 0.80841,0.4194 1.51941,0.24308 1.30221,-0.32294 z m -8.62304,-0.31406 c 0.11987,-0.19395 0.4298,-0.27079 0.72032,-0.17858 0.28435,0.0902 0.73789,-0.015 1.02522,-0.23781 0.47956,-0.37195 0.46211,-0.38062 -0.2517,-0.12511 -0.67745,0.2425 -0.72742,0.22687 -0.42802,-0.13389 0.18645,-0.22465 0.53159,-0.7869 0.767,-1.24945 0.55957,-1.09949 1.04971,-1.25216 0.92355,-0.28767 -0.0965,0.73809 -0.0965,0.73809 0.13574,0.0417 0.12776,-0.383 0.48447,-0.94855 0.79269,-1.25677 0.73915,-0.73915 0.70953,-1.44951 -0.078,-1.87099 -1.25268,-0.67041 -2.87153,0.65902 -2.37575,1.95102 0.0882,0.22984 0.27371,0.4179 0.41225,0.4179 0.13854,0 0.17831,0.11906 0.0884,0.26458 -0.0899,0.14552 -0.38759,0.26459 -0.66145,0.26459 -0.60842,0 -0.97662,0.51721 -0.55411,0.77833 0.69528,0.42971 -0.18031,1.27055 -1.13756,1.09241 -0.13005,-0.0242 -0.59936,0.0357 -1.04291,0.13312 l -0.80646,0.17713 0.77833,0.32531 c 0.92531,0.38675 1.40667,0.35665 1.6925,-0.10584 z m -25.72315,-1.01117 c 0.17955,-0.31605 0.26743,-0.7284 0.19531,-0.91636 -0.0721,-0.18795 0.12086,-0.4991 0.42885,-0.69145 0.46446,-0.29006 0.52542,-0.28997 0.35734,5.5e-4 -0.11145,0.19264 0.11422,0.0616 0.50148,-0.29118 0.38727,-0.35278 0.70413,-0.8588 0.70413,-1.12447 0,-0.67365 -1.569,-0.64959 -2.44243,0.0375 -0.36394,0.28627 -0.74973,0.4351 -0.8573,0.33073 -0.10758,-0.10438 0.10436,0.35057 0.47097,1.01099 0.65953,1.1881 0.66128,1.20765 0.16604,1.85209 -0.27528,0.35822 -0.50316,0.74912 -0.5064,0.86865 -0.008,0.28388 0.5669,-0.34628 0.98201,-1.077 z m 22.8463,0.76791 c -0.17992,-0.33619 -0.16632,-0.58383 0.0436,-0.79375 0.23043,-0.23044 0.16264,-0.30512 -0.27697,-0.30512 -0.69562,0 -0.71014,0.0878 -0.15478,0.93535 0.49898,0.76154 0.76909,0.87533 0.38814,0.16352 z m -43.30938,-0.19447 c 0.3884,-1.01215 0.0358,-1.96273 -0.727936,-1.96273 -0.0283,0 -0.0484,0.5354 -0.0445,1.18978 0.007,1.18249 0.446506,1.62233 0.772436,0.77295 z m 16.0356,-0.11065 c 0,-0.65089 0.23206,-0.67479 0.67467,-0.0695 0.29878,0.40861 0.35699,0.34845 0.52395,-0.5415 0.20852,-1.11154 0.0482,-1.46234 -0.47121,-1.03124 -0.18905,0.15689 -0.69066,0.33172 -1.1147,0.38851 -0.98923,0.13247 -1.42104,0.76726 -0.91236,1.34121 0.53735,0.6063 1.29965,0.55498 1.29965,-0.0875 z m -33.465754,-0.27728 c 0.09459,-0.29803 0.04336,-0.69685 -0.113848,-0.88627 -0.211676,-0.25505 -0.15,-0.50101 0.237742,-0.94808 0.470985,-0.54305 0.676869,-0.58666 2.049907,-0.43422 1.435938,0.15943 1.575503,0.12317 2.356506,-0.61234 0.456593,-0.43 0.885762,-0.72623 0.953709,-0.65828 0.06795,0.0679 0.835386,-0.22964 1.705421,-0.66131 1.552802,-0.77043 2.114406,-1.60764 1.078409,-1.60764 -0.370781,0 -0.481189,-0.15689 -0.418923,-0.59531 0.0465,-0.32742 0.20361,-0.5393 0.349131,-0.47084 0.145521,0.0685 0.231988,0.26641 0.192149,0.43989 -0.0466,0.20293 0.133291,0.26163 0.504395,0.16458 0.366396,-0.0958 0.51414,-0.0494 0.404991,0.1272 -0.192542,0.31154 1.027524,0.7044 1.42489,0.45881 0.159,-0.0983 0.151013,-0.34725 -0.02148,-0.66955 -0.151035,-0.28221 -0.181122,-0.53074 -0.06686,-0.55229 0.114261,-0.0215 0.386341,-0.0645 0.604622,-0.0954 0.928301,-0.13161 1.5875,-0.48272 1.5875,-0.84555 0,-0.30812 0.222543,-0.35167 1.067484,-0.20892 0.607341,0.10261 1.206102,0.0665 1.389062,-0.0837 0.176869,-0.14522 0.609909,-0.30521 0.962313,-0.35554 0.778624,-0.11118 1.073684,-0.73959 0.320628,-0.68286 -0.290304,0.0219 -0.484235,0.11029 -0.430955,0.1965 0.05328,0.0862 -0.312156,0.15674 -0.81208,0.15674 -0.606176,0 -0.908952,-0.12438 -0.908952,-0.3734 0,-0.2856 -0.233312,-0.33307 -0.992188,-0.20185 -0.715992,0.1238 -0.881709,0.0963 -0.595312,-0.0988 0.44566,-0.30358 0.158333,-0.34913 -0.718841,-0.11398 -0.576358,0.15452 -1.033835,0.97062 -0.908932,1.62147 0.104856,0.54638 -0.440035,0.37232 -0.621185,-0.19844 -0.191971,-0.60484 -0.726653,-0.68643 -1.237872,-0.18889 -0.192296,0.18715 -0.825878,0.48515 -1.407962,0.66223 -0.582083,0.17707 -1.348852,0.54754 -1.70393,0.82327 -0.645598,0.50132 -0.645598,0.50132 0.06615,0.36526 0.418942,-0.0801 0.711744,-0.0179 0.711744,0.15107 0,0.15792 -0.169907,0.22192 -0.37757,0.14223 -0.275699,-0.10579 -0.33876,0.004 -0.233725,0.40518 0.08225,0.31451 0.01732,0.55007 -0.151597,0.55007 -0.162493,0 -0.295442,-0.11906 -0.295442,-0.26458 0,-0.14553 -0.178593,-0.26459 -0.396875,-0.26459 -0.218281,0 -0.396875,-0.12055 -0.396875,-0.2679 0,-0.33598 -1.959183,0.88689 -3.031719,1.89232 -0.442606,0.41491 -1.064522,0.75493 -1.382035,0.75561 -0.752495,0.002 -1.695221,1.30919 -1.495234,2.07394 0.08762,0.33508 0.02716,0.57312 -0.145569,0.57312 -0.319028,0 -0.408071,0.85751 -0.119053,1.14652 0.347187,0.34719 0.849271,0.16698 1.018265,-0.36547 z m 0.872403,-3.07846 c 0.190996,-0.0764 0.419199,-0.067 0.507118,0.0209 0.08792,0.0879 -0.06835,0.15045 -0.347266,0.13896 -0.308224,-0.0127 -0.370919,-0.0754 -0.159852,-0.15985 z m 5.605859,-1.67134 c 0,-0.14553 0.126089,-0.26459 0.280198,-0.26459 0.154109,0 0.206614,0.11906 0.116677,0.26459 -0.08994,0.14552 -0.216026,0.26458 -0.280198,0.26458 -0.06417,0 -0.116677,-0.11906 -0.116677,-0.26458 z m 20.198822,4.94118 c 0.0958,0.0958 0.17409,-0.0711 0.17409,-0.37086 0,-0.45097 -0.45427,-0.86616 -0.94768,-0.86616 -0.0609,0 -0.11065,0.37177 -0.11065,0.82615 0,0.66113 0.0709,0.76728 0.35507,0.53146 0.19529,-0.16208 0.43342,-0.21634 0.52917,-0.12059 z m -30.091253,-0.17868 c -0.112434,0.21828 0.0785,0.0911 0.424297,-0.28261 0.345797,-0.37372 0.772121,-0.63169 0.947387,-0.57327 0.175265,0.0584 0.318664,-0.0228 0.318664,-0.18041 0,-0.15765 -0.153788,-0.28663 -0.34175,-0.28663 -0.187963,0 -0.523583,-0.40117 -0.745822,-0.89148 -0.364349,-0.80385 -0.363265,-0.91815 0.01102,-1.1627 0.345098,-0.22548 0.359324,-0.36455 0.08436,-0.82472 -0.181901,-0.30443 -0.330729,-0.78051 -0.330729,-1.05795 0,-0.27745 -0.165117,-0.56781 -0.366928,-0.64526 -0.263066,-0.10094 -0.326602,0.0134 -0.224461,0.40399 0.07836,0.29964 0.03512,0.48989 -0.09609,0.42277 -0.131208,-0.0671 -0.625512,-0.28775 -1.098455,-0.4903 -0.472943,-0.20256 -0.859896,-0.51486 -0.859896,-0.694 0,-0.17915 -0.196988,-0.43596 -0.437751,-0.5707 -0.283825,-0.15884 -0.37416,-0.41069 -0.256905,-0.71626 0.167911,-0.43756 0.218882,-0.43044 0.712641,0.0995 0.292488,0.31395 0.670032,0.57082 0.838989,0.57082 0.22704,0 0.229745,-0.0774 0.01037,-0.29683 -0.163254,-0.16325 -0.243088,-0.43685 -0.177411,-0.60801 0.06568,-0.17115 -0.181751,-0.59411 -0.549842,-0.93992 -0.368091,-0.3458 -0.669257,-0.50151 -0.669257,-0.34602 0,0.1555 -0.287642,0.26555 -0.639206,0.24456 -0.351563,-0.021 -0.590721,-0.0867 -0.531462,-0.1461 0.05926,-0.0594 -0.02725,-0.27061 -0.192247,-0.46942 -0.164995,-0.19881 -0.227011,-0.43445 -0.137813,-0.52364 0.224191,-0.22419 -0.844022,-1.67806 -1.229267,-1.67307 -0.239311,0.003 -0.238967,0.0509 0.0015,0.20382 0.172797,0.10988 0.441474,0.53459 0.59706,0.94381 0.278375,0.73218 0.269082,0.74218 -0.583036,0.62735 -0.911883,-0.12289 -2.047992,0.17308 -2.047992,0.53353 0,0.11711 0.40973,0.43359 0.910513,0.70328 0.500782,0.26969 0.973295,0.65395 1.050029,0.85392 0.07673,0.19996 0.275054,0.36357 0.440711,0.36357 0.170133,0 0.228929,-0.18832 0.135121,-0.43278 -0.149457,-0.38948 -0.107603,-0.39396 0.418305,-0.0448 0.321408,0.21341 0.71912,0.79511 0.883805,1.29268 0.164684,0.49756 0.546365,1.01674 0.84818,1.15373 0.700318,0.31786 1.479912,1.94287 1.937947,4.03952 0.306498,1.40299 0.416601,1.59607 0.75438,1.32292 0.323102,-0.26129 0.358081,-0.24719 0.191077,0.077 z m 39.960643,-0.0615 c 0.36339,-0.58798 0.29953,-1.29527 -0.10301,-1.1408 -0.20633,0.0792 -0.48448,0.14396 -0.6181,0.14396 -0.13362,0 -0.24294,0.29766 -0.24294,0.66146 0,0.70079 0.60758,0.91216 0.96405,0.33538 z m 19.93803,-0.84291 c 0,-0.20638 0.0775,-0.5773 0.17232,-0.82428 0.13821,-0.36017 0.0639,-0.41463 -0.37554,-0.27517 -0.41364,0.13129 -0.59192,0.035 -0.72776,-0.39297 -0.099,-0.31177 -0.049,-0.69775 0.11095,-0.85772 0.31058,-0.31059 0.3951,-1.31552 0.13271,-1.57792 -0.30034,-0.30034 -0.90018,0.12817 -0.90018,0.64305 0,0.28407 -0.11483,0.44551 -0.25518,0.35877 -0.25556,-0.15795 0.2499,1.20747 0.95281,2.57387 0.39976,0.77712 0.88987,0.97119 0.88987,0.35237 z M 27.889661,155.11004 c -0.08994,-0.14552 -0.282584,-0.26458 -0.428104,-0.26458 -0.145521,0 -0.190999,0.11906 -0.101062,0.26458 0.08994,0.14552 0.282584,0.26458 0.428105,0.26458 0.14552,0 0.190998,-0.11906 0.101061,-0.26458 z m 74.039319,-1.87368 c -0.0779,-0.38939 -0.0105,-0.78897 0.14965,-0.88797 0.16018,-0.099 0.29306,-0.44086 0.29529,-0.7597 0.003,-0.3989 0.071,-0.4742 0.21869,-0.24146 0.35575,0.56061 0.90114,-0.91199 0.56818,-1.53413 -0.52665,-0.98405 -1.48783,0.16728 -1.38492,1.65892 0.0176,0.25466 -0.0743,0.46302 -0.20421,0.46302 -0.41557,0 -0.61457,1.82189 -0.24733,2.26438 0.45428,0.54737 0.79743,8.2e-4 0.60465,-0.96306 z m -74.004627,0.0843 c 0.193924,-0.25278 0.291552,-0.76063 0.21695,-1.12856 -0.09391,-0.46315 0.0494,-0.86759 0.465806,-1.31455 0.535665,-0.57497 0.611437,-0.5937 0.692795,-0.17124 0.05024,0.26089 -0.09794,0.6835 -0.329295,0.93915 -0.695809,0.76886 -0.165516,0.83729 1.132748,0.14617 0.671922,-0.35769 1.361531,-0.65035 1.532463,-0.65035 0.170932,0 0.357613,-0.14048 0.414847,-0.31219 0.06771,-0.20313 0.283364,-0.23514 0.617361,-0.0916 0.607273,0.26093 1.470484,0.19074 1.822987,-0.14823 0.224169,-0.21557 -0.654918,-0.36189 -1.054754,-0.17557 -0.07807,0.0364 -0.249979,-0.10866 -0.382023,-0.32231 -0.20562,-0.3327 -0.403617,-0.30437 -1.379412,0.19734 -1.139331,0.5858 -1.139331,0.5858 -1.586018,0.0486 -0.491386,-0.59097 -1.527482,-0.50737 -2.088399,0.16849 -0.169308,0.204 -0.516801,0.37092 -0.772206,0.37092 -0.54132,0 -1.170665,0.66252 -0.957295,1.00776 0.08063,0.13046 -0.02592,0.46309 -0.236777,0.73919 -0.327284,0.42856 -0.420603,0.44524 -0.637848,0.114 -0.165124,-0.25176 -0.158892,-0.50317 0.01775,-0.71601 0.28941,-0.34872 0.09731,-0.88036 -0.318111,-0.88036 -0.136933,0 -0.248969,0.2311 -0.248969,0.51355 0,0.28245 -0.119062,0.58714 -0.264583,0.67707 -0.400846,0.24774 -0.316619,0.73805 0.09936,0.57842 0.213244,-0.0818 0.482761,0.12111 0.650886,0.4901 0.245053,0.53784 0.429427,0.61152 1.263042,0.5048 0.536857,-0.0687 1.134768,-0.33179 1.328692,-0.58456 z m 83.912907,0.24275 c 0.0758,-0.22771 -0.0514,-0.32306 -0.35302,-0.26459 -0.25936,0.0503 -0.52491,0.25162 -0.59011,0.44742 -0.0758,0.2277 0.0514,0.32305 0.35302,0.26458 0.25937,-0.0503 0.52492,-0.25161 0.59011,-0.44741 z M 61.07588,151.8061 c -0.02201,-0.63392 0.187591,-1.48399 0.520226,-2.10982 0.306403,-0.57647 0.557096,-1.31386 0.557096,-1.63864 0,-0.32478 0.237368,-0.75677 0.527484,-0.95998 0.290116,-0.2032 0.438944,-0.46566 0.330729,-0.58323 -0.108215,-0.11758 0.100902,-0.12093 0.464704,-0.007 0.363802,0.11348 0.98888,0.20767 1.389062,0.20933 0.400183,0.002 0.727604,0.10498 0.727604,0.22962 0,0.12463 0.483277,0.22661 1.073949,0.22661 0.590671,0 1.010232,-0.1031 0.932356,-0.2291 -0.07787,-0.12601 -0.471855,-0.18775 -0.875511,-0.13721 -0.710031,0.0889 -0.71239,0.0853 -0.07246,-0.11228 0.563019,-0.17378 0.673331,-0.38648 0.74124,-1.42921 0.04388,-0.67377 0.252239,-1.36817 0.463021,-1.5431 0.210781,-0.17493 0.383239,-0.47789 0.383239,-0.67323 0,-0.45262 -0.861449,-0.92357 -1.25005,-0.68341 -0.243305,0.15038 -0.684124,1.31663 -0.724213,1.91602 -0.0056,0.0832 -0.237041,0.37812 -0.514398,0.65548 -0.599795,0.59979 -3.534579,0.81435 -3.043382,0.2225 0.153918,-0.18546 0.309961,-2.25903 0.359668,-4.77942 0.106273,-5.38856 0.38333,-8.5052 0.777765,-8.74914 0.161462,-0.0999 1.156771,-0.14557 2.211797,-0.10159 1.76525,0.0736 1.918229,0.038 1.918229,-0.44641 0,-0.32112 -0.361114,-0.73945 -0.926041,-1.07276 -0.509323,-0.30051 -0.926042,-0.72899 -0.926042,-0.95218 0,-0.22319 -0.178594,-0.40579 -0.396875,-0.40579 -0.218281,0 -0.367109,0.14175 -0.330729,0.31501 0.105578,0.50281 -0.816151,0.55979 -1.765785,0.10916 -0.873671,-0.41459 -0.873671,-0.41459 -1.079728,-3.52824 -0.30561,-4.61795 -0.342558,-11.97724 -0.06545,-13.03552 0.133367,-0.50932 0.264416,-1.2237 0.291221,-1.5875 0.03309,-0.44913 0.195971,-0.64966 0.507413,-0.62471 0.543969,0.0436 0.544039,0.0432 0.151625,-0.81805 -0.573299,-1.25825 -1.280447,-0.69792 -1.280447,1.01461 0,0.46832 -0.106517,0.96459 -0.236706,1.10284 -0.419141,0.44508 -0.764455,2.66825 -0.490485,3.15781 0.392025,0.70051 -0.01903,3.91527 -0.4781,3.73911 -0.200894,-0.0771 -0.447003,-0.008 -0.546908,0.15374 -0.117776,0.19057 -0.05958,0.21848 0.165497,0.0794 0.260365,-0.16092 0.308437,-0.0665 0.19231,0.37753 -0.08516,0.32564 0.01386,1.14793 0.220041,1.82731 0.20618,0.67938 0.38522,1.77101 0.397866,2.42586 0.01265,0.65484 0.174839,1.60734 0.360427,2.11666 0.231734,0.63596 0.257018,1.10495 0.08072,1.49717 -0.18606,0.41392 -0.139997,0.80509 0.167357,1.4212 0.513972,1.03028 0.376912,1.31497 -0.633076,1.31497 -0.575592,0 -0.731405,0.10014 -0.617536,0.39687 0.08376,0.21828 0.418102,0.39688 0.742977,0.39688 1.227794,0 1.447225,2.29165 0.50669,5.29167 -0.270517,0.86286 -0.308391,1.53474 -0.137581,2.44069 0.12963,0.68755 0.181603,1.53302 0.115496,1.87884 -0.06611,0.34582 0.0082,1.09297 0.165074,1.66034 0.255176,0.92276 0.22682,1.07576 -0.268782,1.45035 -0.65183,0.49267 -1.068688,2.88853 -0.502578,2.88853 0.22102,0 0.268228,0.19641 0.14308,0.59531 -0.102725,0.32742 -0.28766,1.24047 -0.410967,2.029 -0.123308,0.78852 -0.484304,1.7855 -0.802216,2.21549 -0.525164,0.71033 -0.54835,0.88085 -0.253559,1.86477 0.306826,1.0241 0.345008,1.05486 0.702486,0.56598 0.207914,-0.28434 0.361434,-0.99474 0.341155,-1.57866 z m 3.717705,-21.30568 c -0.302576,-0.187 -0.317227,-0.30895 -0.06716,-0.55902 0.250069,-0.25007 0.357726,-0.22113 0.493495,0.13268 0.221073,0.57611 0.06635,0.73084 -0.426338,0.42634 z m 48.688775,22.09608 c 0,-0.41158 -0.14993,-0.66146 -0.39687,-0.66146 -0.21828,0 -0.39688,-0.18562 -0.39688,-0.41249 0,-0.22687 -0.11906,-0.33891 -0.26458,-0.24897 -0.46263,0.28592 -0.28549,1.1115 0.33073,1.54135 0.76814,0.53583 0.7276,0.548 0.7276,-0.21843 z m 1.34719,-0.44223 c 0.23104,-0.43169 0.21758,-0.51804 -0.0647,-0.41521 -0.19604,0.0714 -0.32666,0.26378 -0.29028,0.42749 0.0364,0.16371 -0.0529,0.29766 -0.19844,0.29766 -0.14552,0 -0.26458,0.12608 -0.26458,0.28019 0,0.39648 0.47239,0.0557 0.81802,-0.59013 z m 30.13823,0.59342 c 0,-0.13513 -0.19475,-0.44044 -0.43278,-0.67847 -0.502,-0.502 -1.0546,-0.15063 -0.80128,0.50949 0.16879,0.43986 1.23406,0.58572 1.23406,0.16898 z m 12.89675,-1.23326 c 0.23879,0.23879 0.86201,-0.39244 0.85753,-0.86856 -0.002,-0.26346 -0.0795,-0.32116 -0.19844,-0.14864 -0.10691,0.15509 -0.65181,0.26317 -1.21089,0.24018 -0.67179,-0.0276 -1.06621,0.0877 -1.16304,0.34004 -0.20391,0.5314 0.45941,0.87639 1.06347,0.55311 0.27497,-0.14716 0.56808,-0.19942 0.65137,-0.11613 z m -43.853,-0.15265 c 0,-0.12127 0.17859,-0.22049 0.39688,-0.22049 0.21828,0 0.39687,-0.12709 0.39687,-0.28241 0,-0.15974 0.22445,-0.21118 0.51671,-0.11842 0.40739,0.1293 0.62721,-0.0526 1.039,-0.85977 0.28725,-0.56307 0.70958,-1.1792 0.93849,-1.36919 0.22892,-0.18998 0.41622,-0.4967 0.41622,-0.68159 0,-0.4819 -0.84312,-0.7393 -1.09928,-0.3356 -0.13582,0.21405 -0.21704,0.01 -0.21959,-0.55261 -0.003,-0.70309 0.069,-0.83167 0.34045,-0.60638 0.18947,0.15725 0.61838,0.21428 0.95312,0.12675 0.37524,-0.0981 0.69351,-0.0218 0.82998,0.19899 0.32425,0.52466 1.31198,-0.43912 1.31198,-1.28018 0,-0.51231 -0.10856,-0.62292 -0.5087,-0.51828 -0.27978,0.0732 -0.85298,-0.0763 -1.27378,-0.33225 -0.62512,-0.38016 -0.84752,-0.405 -1.21569,-0.13578 -0.26632,0.19474 -0.38304,0.50554 -0.28541,0.75998 0.12213,0.31827 0.0114,0.43049 -0.42467,0.43049 -0.49827,0 -0.53794,0.0626 -0.25547,0.40293 0.28043,0.3379 0.26256,0.37536 -0.11071,0.23212 -0.24482,-0.0939 -0.42276,-0.0669 -0.39543,0.0601 0.0273,0.127 -0.0451,0.7527 -0.1609,1.39046 -0.14427,0.79438 -0.36482,1.19989 -0.70033,1.28763 -0.26936,0.0704 -0.48974,0.23325 -0.48974,0.36179 0,0.12855 -0.11066,0.20396 -0.24591,0.16758 -0.13525,-0.0364 -0.41379,0.15897 -0.61899,0.43412 -0.27777,0.37244 -0.30314,0.64847 -0.0993,1.08038 0.26243,0.55607 0.96421,0.81783 0.96421,0.35964 z m 0.26458,-1.14653 c 0,-0.39442 0.11393,-0.62228 0.26459,-0.52917 0.14552,0.0899 0.26458,0.32806 0.26458,0.52917 0,0.2011 -0.11906,0.43923 -0.26458,0.52916 -0.15066,0.0931 -0.26459,-0.13475 -0.26459,-0.52916 z m 22.23537,0.79098 c 0.55568,-0.12164 0.6683,-0.2942 0.65141,-0.99819 -0.0135,-0.56103 -0.15226,-0.85113 -0.40724,-0.85113 -0.21276,0 -0.38683,0.17573 -0.38683,0.39051 0,0.21477 -0.35719,0.51088 -0.79375,0.65802 -0.77828,0.2623 -1.17851,0.60202 -1.18657,1.00717 -0.004,0.19155 0.55204,0.13752 2.12298,-0.20638 z m -8.87745,-1.99276 c -0.0904,-0.28491 -0.26842,-0.51801 -0.39555,-0.51801 -0.42659,0 -0.55395,0.51307 -0.37032,1.49189 0.1823,0.97173 0.1823,0.97173 0.55629,0.25794 0.2057,-0.39259 0.30001,-0.94691 0.20958,-1.23182 z m 6.75042,1.74656 c 0,-0.0642 -0.11907,-0.19026 -0.26459,-0.2802 -0.14552,-0.0899 -0.26458,-0.0374 -0.26458,0.11668 0,0.15411 0.11906,0.2802 0.26458,0.2802 0.14552,0 0.26459,-0.0525 0.26459,-0.11668 z m 8.54158,-0.22608 c 0.0768,-0.20026 -0.0764,-0.35843 -0.36857,-0.38044 -0.276,-0.0208 -0.5001,0.13281 -0.5001,0.34276 0,0.47364 0.68989,0.50356 0.86867,0.0377 z m 17.86108,-3.59188 c -0.16781,-0.0613 -0.15344,-0.16946 0.0383,-0.28794 0.22015,-0.13605 0.18695,-0.28943 -0.11728,-0.54192 -0.3395,-0.28176 -0.40812,-0.2837 -0.34325,-0.01 0.0446,0.18835 -0.0687,0.39733 -0.25172,0.4644 -0.20408,0.0748 -0.39596,-0.19384 -0.4961,-0.69453 -0.11519,-0.57598 -0.31468,-0.81649 -0.67722,-0.81649 -0.41508,0 -0.47594,0.1145 -0.31644,0.59531 0.10861,0.32743 0.21962,1.30969 0.24668,2.18282 0.0271,0.87312 0.0653,1.69514 0.0849,1.82671 0.0197,0.13157 0.50041,-0.40421 1.06834,-1.19062 0.56793,-0.78642 0.91164,-1.47402 0.76381,-1.52802 z m -81.435992,2.37544 c 0,-0.12995 -0.195434,-0.31127 -0.434298,-0.40293 -0.363133,-0.13935 -0.379502,-0.10063 -0.0999,0.23628 0.381033,0.45911 0.534193,0.5069 0.534193,0.16665 z m 63.151572,-0.3425 c -0.0845,-0.21106 -0.14716,-0.14837 -0.15986,0.15986 -0.0115,0.27891 0.0511,0.43518 0.13897,0.34726 0.0879,-0.0879 0.0973,-0.31612 0.0209,-0.50712 z m 0.79375,0 c -0.0845,-0.21106 -0.14716,-0.14837 -0.15986,0.15986 -0.0115,0.27891 0.0511,0.43518 0.13897,0.34726 0.0879,-0.0879 0.0973,-0.31612 0.0209,-0.50712 z m 25.41218,-0.11024 c -0.0879,-0.0879 -0.31612,-0.0973 -0.50712,-0.0209 -0.21106,0.0845 -0.14837,0.14716 0.15985,0.15985 0.27892,0.0115 0.43519,-0.051 0.34727,-0.13896 z m -40.55307,-1.57972 c 0.0704,-0.7514 0.0288,-1.14872 -0.0989,-0.94223 -0.14566,0.23567 -0.27941,0.26201 -0.39345,0.0775 -0.095,-0.15375 0.0677,-0.40823 0.36152,-0.5655 0.46553,-0.24914 0.52726,-0.51937 0.47962,-2.09978 -0.044,-1.46101 -0.12924,-1.78522 -0.43799,-1.66674 -0.24457,0.0939 -0.31475,0.0361 -0.19389,-0.15942 0.12484,-0.202 0.0456,-0.25134 -0.23229,-0.14469 -0.23195,0.089 -0.39872,0.35554 -0.37059,0.59228 0.0281,0.23675 -0.0719,0.72811 -0.22221,1.09191 -0.16417,0.39727 -0.18015,0.83945 -0.04,1.10709 0.31486,0.60138 0.29582,1.53875 -0.0313,1.53875 -0.14552,0 -0.26458,0.42374 -0.26458,0.94165 0,0.52724 0.1106,0.8733 0.25131,0.78634 0.13822,-0.0854 0.38599,0.0963 0.5506,0.40392 0.39576,0.73948 0.49689,0.58811 0.64211,-0.96107 z m 27.52292,0.0905 c 0.24907,-0.76149 0.73903,-1.67069 1.08879,-2.02046 0.67335,-0.67334 0.75664,-1.15749 0.34733,-2.01898 -0.2343,-0.49312 -0.24373,-0.48861 -0.13847,0.0661 0.0621,0.32742 0.005,0.59531 -0.12686,0.59531 -0.1319,0 -0.23981,-0.13364 -0.23981,-0.29698 0,-0.20519 -0.12268,-0.19517 -0.39688,0.0324 -0.21828,0.18115 -0.39687,0.49339 -0.39687,0.69385 0,0.20046 -0.11907,0.36448 -0.26459,0.36448 -0.14552,0 -0.26458,0.40284 -0.26458,0.8952 0,0.74477 -0.11115,0.91644 -0.66146,1.02164 -0.59755,0.11423 -0.66146,0.042 -0.66146,-0.74729 0,-0.48056 -0.11906,-0.94732 -0.26458,-1.03726 -0.34475,-0.21306 -0.34475,1.98008 0,2.51354 0.14106,0.21828 0.2583,0.29152 0.26053,0.16276 0.002,-0.12877 0.25082,0.0796 0.55242,0.46302 0.30161,0.38343 0.58556,0.69714 0.63101,0.69714 0.0454,0 0.28641,-0.62304 0.53548,-1.38452 z m 9.12901,0.78921 c -0.002,-0.1819 -0.13036,-0.50933 -0.28473,-0.72761 -0.21235,-0.30026 -0.31348,-0.31596 -0.41542,-0.0645 -0.14827,0.36573 -0.61872,0.18985 -0.61872,-0.23131 0,-0.14552 0.11906,-0.191 0.26459,-0.10106 0.52544,0.32474 0.2492,-0.81089 -0.37333,-1.53472 -1.2345,-1.43541 -1.22491,0.50646 0.0105,2.13003 0.6559,0.86197 1.42468,1.14905 1.41709,0.52917 z m -19.8397,-0.99219 c 0,-0.14552 -0.20836,-0.26276 -0.46302,-0.26053 -0.3957,0.003 -0.40532,0.0413 -0.0661,0.26053 0.49933,0.32269 0.52917,0.32269 0.52917,0 z m -84.931244,-0.77211 c 0,-0.85753 -0.297767,-1.34456 -0.822058,-1.34456 -0.626231,0 -0.641483,0.51013 -0.03784,1.2656 0.572354,0.71631 0.859896,0.74271 0.859896,0.079 z m 10.451041,0.25466 c 0.486753,-0.19838 0.470895,-0.23099 -0.197846,-0.40681 -0.808126,-0.21247 -1.521946,-0.0311 -1.521946,0.38679 0,0.31891 0.95905,0.33007 1.719792,0.02 z m 27.048133,-0.17157 c -0.08792,-0.0879 -0.316122,-0.0973 -0.507118,-0.0209 -0.211067,0.0845 -0.148372,0.14716 0.159852,0.15985 0.278915,0.0115 0.435185,-0.051 0.347266,-0.13896 z m 47.58629,-0.27529 c -0.0933,-0.24302 0.0249,-0.64717 0.26763,-0.91538 0.46976,-0.51907 0.31462,-1.98383 -0.17787,-1.67945 -0.1761,0.10883 -0.15392,0.30615 0.0639,0.56862 0.27332,0.32933 0.25174,0.4618 -0.11944,0.73321 -0.24917,0.1822 -0.45303,0.46697 -0.45303,0.63283 0,0.16586 -0.14883,0.30535 -0.33073,0.30998 -0.1863,0.005 -0.10644,0.17806 0.18286,0.39687 0.65943,0.49877 0.77241,0.48947 0.56667,-0.0467 z m -201.406448,-0.4909 c -0.08376,-0.21828 -0.199088,-0.39687 -0.256279,-0.39687 -0.05719,0 -0.103984,0.17859 -0.103984,0.39687 0,0.21828 0.115326,0.39688 0.256279,0.39688 0.140954,0 0.187747,-0.1786 0.103984,-0.39688 z m 211.336858,-2.18281 c 0.0168,-0.25466 0.01,-0.66923 -0.0158,-0.92126 -0.0255,-0.25204 0.0763,-0.66876 0.22607,-0.92605 0.24583,-0.42223 0.27314,-0.41062 0.28041,0.11921 0.005,0.39517 0.13018,0.54014 0.38178,0.4436 0.22127,-0.0849 0.41988,0.0534 0.48688,0.33903 0.0622,0.26535 0.0937,-0.14713 0.0698,-0.91661 -0.0282,-0.90949 -0.19853,-1.55428 -0.48688,-1.84263 -0.41505,-0.41505 -0.44358,-0.41494 -0.44358,0.002 0,0.30415 -0.13764,0.39245 -0.43433,0.2786 -0.37319,-0.14321 -0.40823,-0.0276 -0.24897,0.82133 0.17325,0.92352 0.14548,0.98242 -0.42557,0.90257 -0.79094,-0.11059 -0.9487,0.74085 -0.28996,1.56501 0.57029,0.71351 0.85924,0.75701 0.90013,0.13551 z m -84.034447,-0.86374 c 0.09304,-0.29315 0.267185,-0.47243 0.38698,-0.39839 0.119796,0.074 0.288454,-0.0495 0.374796,-0.27449 0.08634,-0.225 0.0567,-0.34711 -0.06588,-0.27136 -0.313479,0.19374 -0.838508,-1.05264 -0.562177,-1.33457 0.125965,-0.12851 0.05824,-0.45861 -0.152752,-0.74448 -0.334036,-0.45258 -0.382992,-0.46044 -0.412136,-0.0661 -0.01819,0.2461 -0.04796,0.59465 -0.06615,0.77455 -0.01819,0.17991 -0.271198,0.37228 -0.56224,0.42749 -0.291041,0.0552 -0.61664,0.23543 -0.723552,0.4005 -0.130249,0.20109 -0.19706,0.16917 -0.202489,-0.0968 -0.0072,-0.35278 -0.0366,-0.35278 -0.264584,0 -0.361108,0.55878 -0.325602,0.79375 0.11994,0.79375 0.211488,0 0.598441,0.29392 0.859896,0.65315 0.58011,0.79705 1.044894,0.84708 1.270342,0.13676 z m 57.726387,-1.63327 c -0.0845,-0.21106 -0.14715,-0.14837 -0.15985,0.15986 -0.0115,0.27891 0.0511,0.43518 0.13897,0.34726 0.0879,-0.0879 0.0973,-0.31612 0.0209,-0.50712 z m -56.076874,-0.28602 c 0.180299,-0.13942 0.259615,-0.36384 0.176259,-0.49872 -0.08336,-0.13487 0.157213,-0.4881 0.5346,-0.78496 0.377388,-0.29685 0.618466,-0.64926 0.535731,-0.78312 -0.08273,-0.13387 0.03519,-0.2434 0.262063,-0.2434 0.226869,0 0.421337,-0.0893 0.432151,-0.19844 0.148019,-1.49393 0.448987,-2.25144 0.806691,-2.03037 0.218133,0.13481 0.258192,-0.24273 0.145607,-1.37229 -0.283168,-2.84102 -0.613299,-4.09608 -1.232861,-4.687 -0.603347,-0.57544 -0.603347,-0.57544 -0.01326,0.25188 0.32455,0.45502 0.548771,1.04184 0.498271,1.30402 -0.08539,0.44333 -0.122432,0.44609 -0.529142,0.0394 -0.350075,-0.35008 -0.464718,-0.36594 -0.574637,-0.0795 -0.07552,0.19681 0.0022,0.50887 0.172739,0.69348 0.241987,0.26195 0.227577,0.28854 -0.06564,0.12113 -0.280245,-0.16002 -0.330659,-0.10266 -0.198437,0.22576 0.09749,0.24216 0.249524,0.61888 0.337854,0.83716 0.101331,0.25041 0.01035,0.39687 -0.246534,0.39687 -0.414971,0 -0.470157,0.90178 -0.09257,1.51272 0.101877,0.16484 0.04597,0.60536 -0.124241,0.97893 -0.240457,0.52774 -0.388718,0.61345 -0.66482,0.3843 -0.459471,-0.38132 -0.501521,0.31163 -0.04652,0.76663 0.23538,0.23538 0.188186,0.35147 -0.198437,0.48815 -0.512628,0.18122 -1.416577,1.12585 -1.427423,1.49167 -0.0032,0.10914 0.262008,0.20026 0.58943,0.20249 0.345865,0.002 0.471673,0.0855 0.300244,0.19843 -0.162288,0.10692 -0.378433,0.46153 -0.480322,0.78804 -0.15452,0.49516 -0.105567,0.56516 0.295068,0.42195 0.264177,-0.0944 0.627839,-0.28577 0.808138,-0.42519 z m 1.501017,-4.42687 c 0.08157,-0.3638 0.149942,-0.75075 0.151929,-0.85989 0.002,-0.10914 0.122676,-0.19844 0.268196,-0.19844 0.397374,0 0.318511,0.62611 -0.151929,1.2062 -0.402,0.4957 -0.411344,0.49054 -0.268196,-0.14787 z m 53.960017,2.66589 c 0.23735,-2.01541 0.0466,-2.61341 -0.73774,-2.31245 -0.31718,0.12171 -0.41466,0.56027 -0.41466,1.86558 0,3.17768 0.79453,3.48578 1.1524,0.44687 z m -84.108575,0.7737 c 0.07788,0 0.151001,0.20835 0.162489,0.46302 0.01646,0.36484 0.05353,0.37987 0.174814,0.0709 0.249193,-0.63486 0.691704,-0.97641 2.525268,-1.94914 0.954006,-0.50611 1.667596,-0.98716 1.585756,-1.069 -0.08184,-0.0818 -0.0044,-0.32279 0.172089,-0.53545 0.342049,-0.41214 0.592867,-2.53655 0.299478,-2.53655 -0.34151,0 -0.809543,0.64246 -0.809543,1.11125 0,0.56216 -0.101872,0.58234 -0.785211,0.15559 -0.436558,-0.27263 -0.68366,-0.19854 -1.650056,0.49479 -1.471043,1.05537 -2.932958,2.94411 -2.767757,3.57584 0.06963,0.26625 0.01863,0.41737 -0.113317,0.33582 -0.13195,-0.0815 -0.239909,0.051 -0.239909,0.29465 0,0.40994 0.04855,0.4111 0.652149,0.0156 0.358683,-0.23502 0.71587,-0.4273 0.79375,-0.4273 z m 86.053725,-1.1214 c -0.0633,-0.32912 -0.11747,-0.12215 -0.12041,0.45994 -0.003,0.58208 0.0489,0.85136 0.11507,0.59839 0.0662,-0.25296 0.0686,-0.72921 0.005,-1.05833 z m -1.20089,-1.5857 c -0.19634,-0.19634 -0.23078,-0.093 -0.11569,0.34705 0.0936,0.35777 0.21349,0.47771 0.27955,0.27955 0.0636,-0.19088 -0.0101,-0.47285 -0.16386,-0.6266 z m 1.57818,-0.83001 c 0.0191,-0.82948 -0.0405,-1.58344 -0.13253,-1.67545 -0.092,-0.092 -0.16731,0.64629 -0.16731,1.64068 0,2.16098 0.25015,2.18998 0.29984,0.0348 z m -1.44201,-0.48125 c -0.0845,-0.21107 -0.14716,-0.14838 -0.15986,0.15985 -0.0115,0.27891 0.0511,0.43518 0.13897,0.34726 0.0879,-0.0879 0.0973,-0.31612 0.0209,-0.50711 z m 19.57595,0.0345 c 0.70374,-0.49292 1.09158,-2.20248 0.57384,-2.52944 -0.19497,-0.12312 -0.68019,-0.2418 -1.07826,-0.26373 -0.61887,-0.0341 -0.76294,0.0994 -0.99402,0.92117 -0.23282,0.82789 -0.19892,1.02008 0.24462,1.38726 0.36563,0.30268 0.43283,0.50827 0.23184,0.70927 -0.42608,0.42608 0.33037,0.25989 1.02198,-0.22453 z m -96.00607,-0.71253 c 0.09617,-0.99747 -0.272046,-1.11364 -0.861656,-0.27186 -0.592452,0.84585 -0.521484,1.31642 0.183434,1.2163 0.456275,-0.0648 0.614677,-0.28538 0.678222,-0.94444 z m 97.94521,-0.7276 c 0,-0.45512 -0.14444,-0.6602 -0.46302,-0.65741 -0.34599,0.003 -0.3759,0.0593 -0.11833,0.22268 0.18959,0.12025 0.32431,0.32679 0.2994,0.45897 -0.0669,0.35501 -6.3e-4,0.63722 0.14966,0.63722 0.0728,0 0.13229,-0.29766 0.13229,-0.66146 z m -21.16667,-0.91774 c 0,-0.74132 -0.099,-1.01204 -0.33674,-0.92081 -0.1852,0.0711 -0.54912,-0.23032 -0.8087,-0.66976 -0.25959,-0.43944 -0.43548,-0.80783 -0.39087,-0.81865 1.07359,-0.26025 1.27173,-0.20884 1.27173,0.33001 0,0.8936 0.17924,0.47203 0.37598,-0.88429 0.17243,-1.18874 0.15622,-1.23034 -0.42912,-1.10153 -0.41312,0.0909 -0.49963,0.0562 -0.26962,-0.10805 0.27215,-0.19439 0.25947,-0.39386 -0.0645,-1.01514 l -0.40321,-0.77321 -0.002,0.93339 c -0.001,0.62322 -0.18871,1.09357 -0.56463,1.41544 -0.50817,0.43511 -0.54556,0.6523 -0.38391,2.23013 0.20128,1.96458 0.466,2.4325 1.37618,2.4325 0.55669,0 0.62906,-0.12081 0.62906,-1.05003 z m -1.5875,-3.1833 c 0,-0.14553 0.11907,-0.26459 0.26459,-0.26459 0.14552,0 0.26458,0.11906 0.26458,0.26459 0,0.14552 -0.11906,0.26458 -0.26458,0.26458 -0.14552,0 -0.26459,-0.11906 -0.26459,-0.26458 z m -70.053532,2.45256 c 0.41049,-0.85568 0.803447,-1.29739 1.242258,-1.39636 0.724478,-0.1634 0.910958,-0.49156 0.57813,-1.01738 -0.17761,-0.28059 -0.349562,-0.29225 -0.794917,-0.0539 -0.312556,0.16728 -0.684885,0.23208 -0.827398,0.144 -0.142513,-0.0881 -0.259115,0.0925 -0.259115,0.40127 0,0.42957 -0.139046,0.54197 -0.592074,0.47863 -0.440166,-0.0615 -0.592904,0.0512 -0.595312,0.43926 -0.0021,0.34258 -0.276111,0.61427 -0.796989,0.79032 -0.795419,0.26884 -1.178997,0.60347 -1.186574,1.03515 -0.0022,0.12696 0.168369,0.0877 0.379106,-0.0872 0.300924,-0.24974 0.54226,-0.23433 1.124479,0.0718 1.071721,0.56356 1.071531,0.56365 1.728406,-0.80565 z m 73.328072,-5.0984 c 0.10324,-1.11315 0.0687,-1.33837 -0.14676,-0.95816 -0.15496,0.27337 -0.31957,2.05931 -0.36582,3.96875 -0.0841,3.4717 -0.0841,3.4717 0.14677,0.95816 0.12696,-1.38245 0.29158,-3.16838 0.36581,-3.96875 z m -57.514115,5.55625 c 0,-0.14552 -0.119062,-0.26458 -0.264583,-0.26458 -0.145521,0 -0.264583,0.11906 -0.264583,0.26458 0,0.14552 0.119062,0.26459 0.264583,0.26459 0.145521,0 0.264583,-0.11907 0.264583,-0.26459 z m -1.438628,-1.82002 c -0.583764,-1.12887 -2.295618,-1.55396 -2.640334,-0.65565 -0.20222,0.52698 -0.282104,0.46112 1.168546,0.96335 1.786359,0.61846 1.934689,0.58745 1.471788,-0.3077 z m -3.687485,-2.81891 c -0.16598,-0.43254 -1.223887,-0.53935 -1.223887,-0.12357 0,0.14552 0.182331,0.26459 0.405179,0.26459 0.222849,0 0.482824,0.20233 0.577723,0.44964 0.112878,0.29415 0.210132,0.33688 0.281238,0.12356 0.05978,-0.17934 0.04167,-0.50074 -0.04025,-0.71422 z m 4.596947,0.81809 c 0,-0.0642 -0.119063,-0.19026 -0.264584,-0.2802 -0.145521,-0.0899 -0.264583,-0.0374 -0.264583,0.11668 0,0.15411 0.119062,0.2802 0.264583,0.2802 0.145521,0 0.264584,-0.0525 0.264584,-0.11668 z m -8.466667,-0.67707 c 0,-0.14553 -0.119062,-0.26459 -0.264583,-0.26459 -0.145521,0 -0.264584,0.11906 -0.264584,0.26459 0,0.14552 0.119063,0.26458 0.264584,0.26458 0.145521,0 0.264583,-0.11906 0.264583,-0.26458 z m 38.157748,-3.50573 c -0.1494,-0.18191 -0.32636,-0.62839 -0.39324,-0.99219 -0.12162,-0.66146 -0.12162,-0.66146 -0.15765,0.0132 -0.0198,0.37108 0.10685,0.81756 0.28147,0.99218 0.41846,0.41846 0.61599,0.40876 0.26942,-0.0132 z m -41.861914,-1.36076 c 0,-0.0572 -0.178594,-0.17252 -0.396875,-0.25628 -0.218282,-0.0838 -0.396875,-0.037 -0.396875,0.10399 0,0.14095 0.178593,0.25627 0.396875,0.25627 0.218281,0 0.396875,-0.0468 0.396875,-0.10398 z m 88.202504,-6.90595 c -0.0834,-0.21745 -0.27101,-0.32163 -0.41682,-0.23151 -0.16301,0.10074 -0.12686,0.25144 0.0939,0.3913 0.48176,0.30526 0.49827,0.29708 0.32295,-0.15979 z M 41.43186,116.43126 c -0.08446,-0.21106 -0.147157,-0.14837 -0.159852,0.15985 -0.01149,0.27892 0.05105,0.43519 0.138964,0.34727 0.08792,-0.0879 0.09732,-0.31612 0.02089,-0.50712 z m 28.955724,-0.65815 c -0.230599,-0.39655 -0.282229,-0.40798 -0.288836,-0.0639 -0.0086,0.44558 0.269661,0.84677 0.457179,0.65925 0.06185,-0.0618 -0.01391,-0.32973 -0.168343,-0.59531 z m -0.826049,0.0619 c 0,-0.0642 -0.119062,-0.19026 -0.264583,-0.2802 -0.145521,-0.0899 -0.264583,-0.0374 -0.264583,0.11668 0,0.15411 0.119062,0.28019 0.264583,0.28019 0.145521,0 0.264583,-0.0525 0.264583,-0.11667 z m -29.70499,-0.30776 c -0.08792,-0.0879 -0.316122,-0.0973 -0.507118,-0.0209 -0.211067,0.0845 -0.148372,0.14716 0.159852,0.15985 0.278915,0.0115 0.435185,-0.051 0.347266,-0.13896 z m -75.901367,-1.29857 c 0.08698,-0.44881 0.06009,-0.45394 -0.330729,-0.0631 -0.508363,0.50836 -0.552101,0.81407 -0.09468,0.66177 0.181901,-0.0606 0.373336,-0.32996 0.425411,-0.59865 z m 95.684483,-1.18741 c 0.08994,-0.14552 0.03743,-0.26459 -0.116677,-0.26459 -0.154109,0 -0.280198,0.11907 -0.280198,0.26459 0,0.14552 0.0525,0.26458 0.116676,0.26458 0.06417,0 0.190262,-0.11906 0.280199,-0.26458 z m 9.717621,-1.38538 c -0.06831,-0.26122 -0.220668,-0.53457 -0.338568,-0.60744 -0.352246,-0.2177 -0.576859,0.38946 -0.401925,1.08645 0.132212,0.52677 0.230342,0.58853 0.514051,0.3235 0.192855,-0.18015 0.294754,-0.54128 0.226442,-0.80251 z m 0.464785,-1.72348 c -0.0029,-0.52953 -0.06831,-0.62609 -0.240104,-0.35472 -0.129829,0.20509 -0.174799,0.53251 -0.09993,0.72761 0.214699,0.55949 0.344437,0.41722 0.340037,-0.37289 z m 0.0041,-1.60307 c 0,-0.11771 -0.16042,-0.4334 -0.356488,-0.70154 -0.403459,-0.55177 -0.80357,-0.18657 -0.542105,0.4948 0.1643,0.42816 0.898593,0.5971 0.898593,0.20674 z m 0.445324,-0.36476 c -0.08446,-0.21107 -0.147157,-0.14838 -0.159853,0.15985 -0.01149,0.27891 0.05105,0.43518 0.138964,0.34726 0.08792,-0.0879 0.09732,-0.31612 0.02089,-0.50711 z m 2.893266,-0.39003 c -0.223843,-0.41304 -0.411754,-0.59434 -0.41758,-0.40287 -0.0139,0.45689 0.523937,1.4545 0.693007,1.28543 0.07236,-0.0724 -0.05158,-0.46951 -0.275427,-0.88256 z m -21.59484,-0.6187 c 0,-0.14552 -0.119062,-0.26458 -0.264583,-0.26458 -0.145521,0 -0.264584,0.11906 -0.264584,0.26458 0,0.14552 0.119063,0.26458 0.264584,0.26458 0.145521,0 0.264583,-0.11906 0.264583,-0.26458 z m 21.95762,-1.71642 c 0.360727,-0.43465 0.12883,-1.43633 -0.240723,-1.0398 -0.364277,0.39086 -0.608557,1.4333 -0.335874,1.4333 0.137509,0 0.396977,-0.17707 0.576597,-0.3935 z m 1.24187,-0.71444 c -0.08446,-0.21107 -0.147157,-0.14837 -0.159852,0.15985 -0.01149,0.27892 0.05105,0.43519 0.138964,0.34727 0.08792,-0.0879 0.09732,-0.31612 0.02089,-0.50712 z m -21.880673,-0.67797 c -0.0029,-0.52954 -0.06831,-0.6261 -0.240104,-0.35473 -0.129829,0.20509 -0.174798,0.53251 -0.09993,0.72761 0.214698,0.55949 0.344436,0.41722 0.340036,-0.37288 z m 1.141055,-1.14476 c 0.116029,-0.0873 0.02673,-0.31162 -0.198438,-0.4985 -0.352833,-0.29282 -0.409399,-0.23781 -0.409399,0.39819 0,0.40587 0.0893,0.63019 0.198438,0.49849 0.109141,-0.1317 0.29337,-0.31088 0.409399,-0.39818 z m -0.343253,-1.9641 c 0,-0.21828 -0.119063,-0.39687 -0.264584,-0.39687 -0.14552,0 -0.264583,0.17859 -0.264583,0.39687 0,0.21828 0.119063,0.39688 0.264583,0.39688 0.145521,0 0.264584,-0.1786 0.264584,-0.39688 z M 73.08448,99.400931 c 0.116528,-0.71808 0.0309,-1.06205 -0.362257,-1.4552 -0.405213,-0.40522 -0.514854,-0.43034 -0.514854,-0.11798 0,0.21828 0.09244,0.39687 0.205429,0.39687 0.112986,0 0.160012,0.47625 0.104501,1.05833 -0.124886,1.309559 0.35753,1.409909 0.567181,0.11798 z m -9.977675,-0.3109 c -0.268953,-0.26895 -0.490868,0.13597 -0.270198,0.49302 0.166697,0.26972 0.229018,0.26993 0.318639,0.001 0.06128,-0.18383 0.03948,-0.40617 -0.04844,-0.49409 z m -11.536936,-2.05603 c 0,-0.74966 -0.100794,-0.92605 -0.529167,-0.92605 -0.617545,0 -0.647171,0.16958 -0.198437,1.13582 0.452957,0.97533 0.727604,0.89614 0.727604,-0.20977 z m 5.671407,-1.48294 c -0.244956,-0.39634 -0.90488,-0.26964 -0.746415,0.14331 0.08024,0.20909 0.313941,0.31568 0.519343,0.23686 0.205403,-0.0788 0.307585,-0.24989 0.227072,-0.38017 z m -3.109416,-0.55105 c -0.08446,-0.21107 -0.147157,-0.14837 -0.159853,0.15985 -0.01149,0.27892 0.05105,0.43519 0.138965,0.34727 0.08792,-0.0879 0.09732,-0.31612 0.02089,-0.50712 z m -1.774849,-0.85658 c -0.355881,-0.35588 -0.620561,0.005 -0.40872,0.55664 0.152003,0.39611 0.215548,0.40822 0.418544,0.0798 0.144363,-0.23359 0.140465,-0.48612 -0.0098,-0.63641 z m 19.472972,-0.0923 c -0.457135,-0.43662 -0.464231,-0.42953 -0.161252,0.16125 0.17431,0.33989 0.389491,0.54541 0.478179,0.45672 0.08869,-0.0887 -0.05393,-0.36677 -0.316927,-0.61797 z m -31.29453,-0.65516 c -0.137982,-0.71828 -0.446434,-0.93728 -0.712893,-0.50614 -0.133404,0.21585 0.607849,1.48249 0.770724,1.317 0.04507,-0.0458 0.01904,-0.41068 -0.05783,-0.81086 z m -3.094333,-0.35719 c -0.09416,-0.24538 -0.230738,-0.38662 -0.303498,-0.31386 -0.07276,0.0728 -0.05525,0.33306 0.03891,0.57845 0.09416,0.24538 0.230737,0.38662 0.303498,0.31386 0.07276,-0.0728 0.05525,-0.33306 -0.03891,-0.57845 z m 24.976666,-1.42875 c 0,-0.29104 -0.107916,-0.52916 -0.239814,-0.52916 -0.131897,0 -0.177542,0.23812 -0.101433,0.52916 0.07611,0.29104 0.184025,0.52917 0.239814,0.52917 0.05579,0 0.101433,-0.23813 0.101433,-0.52917 z m 9.758081,0.19844 c -0.09111,-0.55088 0.341888,-1.88915 0.770971,-2.38287 0.687464,-0.79102 0.161466,-0.79405 -0.703471,-0.004 -0.766301,0.69991 -0.801807,0.81228 -0.547572,1.73305 0.253448,0.91791 0.602331,1.3931 0.480072,0.65387 z m -27.749748,-1.3582 c 0,-0.67267 -0.131535,-0.92958 -0.529166,-1.03356 -0.632996,-0.16553 -0.625854,-0.21937 -0.128741,0.97039 0.498545,1.19319 0.657907,1.20849 0.657907,0.0632 z m 9.964812,-0.75846 c -0.0734,-0.1819 -0.133452,-0.0331 -0.133452,0.33073 0,0.3638 0.06005,0.51263 0.133452,0.33073 0.0734,-0.18191 0.0734,-0.47956 0,-0.66146 z m 227.285579,0.48507 c -0.0525,-0.15765 -0.19476,-0.28663 -0.31603,-0.28663 -0.12126,0 -0.26348,0.12898 -0.31603,0.28663 -0.0525,0.15764 0.0897,0.28663 0.31603,0.28663 0.22637,0 0.36858,-0.12899 0.31603,-0.28663 z M 68.450246,87.763011 c -0.369665,-0.81132 -0.471799,-0.73888 -0.2903,0.20592 0.07655,0.39849 0.24014,0.66213 0.363534,0.58587 0.123393,-0.0763 0.09044,-0.43257 -0.07323,-0.79179 z m 6.161065,0.10863 c -0.484146,-0.39249 -0.688067,-0.43807 -0.842438,-0.18829 -0.22718,0.36758 -0.04444,0.82645 0.255348,0.64117 0.106033,-0.0655 0.362249,-0.0144 0.569368,0.11359 0.66495,0.41096 0.678763,-0.0306 0.01772,-0.56647 z m -30.258023,-1.87926 c -0.05889,-0.47555 -0.108281,-0.15026 -0.109766,0.72287 -0.0015,0.87312 0.04669,1.26221 0.107066,0.86463 0.06037,-0.39758 0.06159,-1.11195 0.0027,-1.5875 z m 14.439501,0.78308 c 0.09187,-0.59513 0.05357,-0.936 -0.09484,-0.84428 -0.136901,0.0846 -0.248911,0.58337 -0.248911,1.10836 0,1.17108 0.138666,1.06455 0.343753,-0.26408 z m -15.921871,0.15807 c -0.311903,-0.53637 -0.387221,-0.36469 -0.131904,0.30065 0.09074,0.23646 0.220714,0.37419 0.288836,0.30607 0.06812,-0.0681 -0.0025,-0.34115 -0.156932,-0.60672 z m 25.286471,-1.07315 c -0.06708,-0.25743 -0.126381,-0.11086 -0.131773,0.3257 -0.0054,0.43656 0.04949,0.64719 0.121969,0.46805 0.07248,-0.17913 0.07689,-0.53631 0.0098,-0.79375 z m 4.041877,-0.73263 c 0,-0.14553 -0.115417,-0.086 -0.256481,0.13229 -0.141064,0.21828 -0.25648,0.51593 -0.25648,0.66146 0,0.14552 0.115416,0.086 0.25648,-0.1323 0.141064,-0.21828 0.256481,-0.51593 0.256481,-0.66145 z m -143.131477,0 c 0,-0.21829 -0.115325,-0.39688 -0.256279,-0.39688 -0.140954,0 -0.187747,0.17859 -0.103984,0.39688 0.08376,0.21828 0.199088,0.39687 0.256279,0.39687 0.05719,0 0.103984,-0.17859 0.103984,-0.39687 z m 111.803264,-0.49671 c 0.06921,-0.38166 0.06816,-0.69392 -0.0023,-0.69392 -0.267417,0 -0.69281,1.08157 -0.529391,1.34599 0.228582,0.36985 0.380101,0.18404 0.531716,-0.65207 z m 18.371733,0.629 c 0,-0.14552 -0.119063,-0.26459 -0.264584,-0.26459 -0.145521,0 -0.264583,0.11907 -0.264583,0.26459 0,0.14552 0.119062,0.26458 0.264583,0.26458 0.145521,0 0.264584,-0.11906 0.264584,-0.26458 z m -6.089468,-0.99219 c 0.0055,-0.44758 -0.651487,-0.41919 -1.036557,0.0448 -0.246181,0.29663 -0.211941,0.43132 0.162985,0.64114 0.4945,0.27673 0.865346,-0.0145 0.873572,-0.68593 z m 19.616049,0.39246 c -0.261307,-0.25936 -0.291698,-0.22897 -0.148113,0.14812 0.09936,0.26093 0.247304,0.40778 0.328766,0.32632 0.08146,-0.0815 1.68e-4,-0.29496 -0.180653,-0.47444 z m -135.499495,0.0706 c 0,-0.14552 -0.0525,-0.26458 -0.116676,-0.26458 -0.06417,0 -0.190262,0.11906 -0.280199,0.26458 -0.08994,0.14552 -0.03743,0.26459 0.116677,0.26459 0.154109,0 0.280198,-0.11907 0.280198,-0.26459 z m 120.417712,-0.97238 c -0.230598,-0.39655 -0.282229,-0.40798 -0.288836,-0.0639 -0.0086,0.44558 0.269661,0.84677 0.457179,0.65925 0.06185,-0.0619 -0.01391,-0.32974 -0.168343,-0.59531 z m -7.176048,-0.61516 c 0,-0.29104 -0.106324,-0.52917 -0.236276,-0.52917 -0.297402,0 -0.574817,0.68822 -0.362855,0.90018 0.318495,0.31849 0.599131,0.14471 0.599131,-0.37101 z m 10.346879,-1.07073 c -0.243128,-0.60888 -0.260209,-0.59037 -0.275942,0.29903 -0.0092,0.52145 0.07253,1.03877 0.181667,1.1496 0.312693,0.31753 0.380915,-0.73077 0.09427,-1.44863 z m 6.883335,0.89214 c -0.230598,-0.39655 -0.282228,-0.40798 -0.288836,-0.0639 -0.0086,0.44558 0.269662,0.84677 0.45718,0.65925 0.06185,-0.0618 -0.01391,-0.32974 -0.168344,-0.59531 z m -18.432138,0.19687 c 0.08372,-0.13546 0.03122,-0.32108 -0.116677,-0.41249 -0.147894,-0.0914 -0.268899,0.0194 -0.268899,0.2463 0,0.46475 0.158764,0.53318 0.385576,0.16619 z m -7.084002,-0.59706 c -0.08446,-0.21106 -0.147157,-0.14837 -0.159852,0.15986 -0.01149,0.27891 0.05105,0.43518 0.138964,0.34726 0.08792,-0.0879 0.09732,-0.31612 0.02089,-0.50712 z m 10.927708,-0.5457 c -0.0054,-0.44264 -0.461425,-1.14407 -0.632527,-0.97297 -0.205002,0.205 0.134505,1.3037 0.402853,1.3037 0.128549,0 0.231902,-0.14883 0.229674,-0.33073 z m -9.356729,-4.14517 c -0.01756,-2.02518 -0.121225,-3.77143 -0.230365,-3.88055 -0.242789,-0.24276 -0.26171,3.70472 -0.02845,5.93639 0.09349,0.89447 0.197156,1.62631 0.230366,1.62631 0.03321,0 0.04601,-1.65697 0.02845,-3.68215 z m 16.799853,2.20073 c -0.194803,-0.83025 -0.247366,-0.89404 -0.268745,-0.32616 -0.02759,0.73275 0.225963,1.64323 0.407146,1.46205 0.05707,-0.0571 -0.0052,-0.56822 -0.138401,-1.13589 z m -7.528428,-0.17223 c -0.0734,-0.1819 -0.133452,-0.0331 -0.133452,0.33073 0,0.36381 0.06005,0.51263 0.133452,0.33073 0.0734,-0.1819 0.0734,-0.47955 0,-0.66146 z m -112.131853,-1.76643 c -0.03043,-0.22901 0.08404,-0.89263 0.254379,-1.47471 0.411063,-1.40466 0.39286,-1.73396 -0.0857,-1.55032 -0.219101,0.0841 -0.476041,0.63862 -0.570977,1.23232 -0.162062,1.01348 -0.188071,1.04001 -0.425565,0.43414 -0.159399,-0.40664 -0.300762,-0.51733 -0.382216,-0.29927 -0.07109,0.19032 0.06155,0.55688 0.294764,0.81458 0.233215,0.2577 0.431574,0.93542 0.440798,1.50605 0.01522,0.94133 0.04055,0.97799 0.273313,0.39554 0.141097,-0.35308 0.23164,-0.82933 0.201205,-1.05833 z m 107.458708,1.30341 c 0,-0.14552 -0.119062,-0.26458 -0.264583,-0.26458 -0.145521,0 -0.264583,0.11906 -0.264583,0.26458 0,0.14552 0.119062,0.26459 0.264583,0.26459 0.145521,0 0.264583,-0.11907 0.264583,-0.26459 z m 5.866249,-2.44739 c -0.199007,-0.73038 -0.233039,-0.60085 -0.225936,0.85989 0.0071,1.45434 0.04324,1.58707 0.234298,0.8599 0.127221,-0.4842 0.123568,-1.2356 -0.0084,-1.71979 z m -1.445786,0.53225 c -0.06329,-0.32912 -0.117469,-0.12215 -0.120406,0.45993 -0.0029,0.58209 0.04884,0.85137 0.115066,0.5984 0.06622,-0.25296 0.06863,-0.72921 0.0053,-1.05833 z m 7.827404,-0.55617 c 0.06209,-1.49271 0.0064,-1.76202 -0.364588,-1.76202 -0.37709,0 -0.406238,0.16936 -0.209965,1.21995 0.125351,0.67098 0.158961,1.33153 0.07469,1.46788 -0.172856,0.27969 0.10052,1.16226 0.29864,0.96414 0.07036,-0.0704 0.160916,-0.92084 0.201226,-1.88995 z m -2.722867,1.1484 c 0.202896,-0.37912 0.199457,-0.68565 -0.01213,-1.081 -0.360034,-0.67273 -0.4,-0.63329 -0.62622,0.61798 -0.196327,1.08592 0.164796,1.34786 0.638348,0.46302 z m 14.607939,-1.3729 c -0.250864,-0.25086 -0.320439,-0.22815 -0.320439,0.10458 0,0.28629 -0.162983,0.38241 -0.499306,0.29445 -0.274619,-0.0718 -0.579302,-0.001 -0.677074,0.15707 -0.09897,0.16014 0.0051,0.28763 0.234723,0.28763 0.226869,0 0.41249,0.14552 0.41249,0.32338 0,0.17786 0.26326,0.0601 0.585023,-0.26164 0.458,-0.458 0.515448,-0.6546 0.264583,-0.90547 z m -16.085227,0.48472 c -0.170105,-0.44328 -0.639379,-0.60701 -0.639379,-0.22307 0,0.2574 0.590273,0.87375 0.716194,0.74783 0.04951,-0.0495 0.01494,-0.28565 -0.07681,-0.52476 z m 2.800205,-0.28683 c 0,-0.0642 -0.119063,-0.19026 -0.264584,-0.2802 -0.145521,-0.0899 -0.264583,-0.0374 -0.264583,0.11667 0,0.15411 0.119062,0.2802 0.264583,0.2802 0.145521,0 0.264584,-0.0525 0.264584,-0.11667 z m -117.715835,-4.57512 c -0.222633,-0.38238 -0.273704,-0.29074 -0.280283,0.50297 -0.01195,1.44138 0.366662,2.20736 0.470675,0.95224 0.04501,-0.5432 -0.04066,-1.19804 -0.190392,-1.45521 z m 111.466788,1.89993 c 0.09035,-0.23546 0.046,-0.34167 -0.103984,-0.24897 -0.143854,0.0889 -0.261553,0.27368 -0.261553,0.41061 0,0.38059 0.189645,0.29672 0.365537,-0.16164 z m -112.548867,-1.45709 c 0,-0.73619 -0.107769,-1.27192 -0.239488,-1.19051 -0.131718,0.0814 -0.202351,0.65398 -0.156961,1.27238 0.09439,1.28605 0.08822,1.25667 0.264158,1.25667 0.07276,0 0.132291,-0.60234 0.132291,-1.33854 z m 114.452197,-0.18496 c -0.311757,-0.31176 -0.435787,0.16275 -0.234453,0.89696 l 0.208083,0.75883 0.08928,-0.75179 c 0.04911,-0.41349 0.02079,-0.82029 -0.06291,-0.904 z m 2.649724,0.32361 c 0.438179,-1.25903 0.429665,-1.18136 0.129515,-1.18136 -0.133958,0 -0.3263,0.38695 -0.427427,0.85989 -0.101126,0.47294 -0.318946,1.02809 -0.484043,1.23365 -0.231538,0.2883 -0.218199,0.34668 0.05833,0.25533 0.197181,-0.0651 0.522811,-0.59052 0.72362,-1.16751 z m 14.355459,-0.32231 c 0.230433,0.23043 0.305117,0.15881 0.305117,-0.29259 0,-0.32873 -0.117699,-0.52495 -0.261553,-0.43604 -0.149982,0.0927 -0.194339,-0.0135 -0.103984,-0.24897 0.08666,-0.22584 0.278471,-0.41062 0.426241,-0.41062 0.155745,0 0.131246,-0.16559 -0.05829,-0.39396 -0.408463,-0.49217 -0.652132,-0.34624 -1.176288,0.70445 -0.541578,1.08562 -0.522135,1.3537 0.075,1.03412 0.336188,-0.17992 0.583825,-0.16632 0.79375,0.0436 z m -11.727743,-2.61696 c -0.09905,-0.92492 -0.289678,-1.68168 -0.423616,-1.68168 -0.133938,0 -0.243524,-0.17156 -0.243524,-0.38126 0,-0.55913 -0.423435,-0.7264 -0.772904,-0.30531 -0.232872,0.28059 -0.207416,0.46221 0.109158,0.77878 0.349664,0.34966 0.36584,0.59955 0.105688,1.63271 -0.229143,0.91001 -0.230882,1.29614 -0.0068,1.52018 0.224037,0.22404 0.30032,0.1149 0.30032,-0.42967 0,-0.41929 0.112614,-0.66039 0.264583,-0.56647 0.145521,0.0899 0.264583,0.49384 0.264583,0.89756 0,0.85696 0.354122,1.34543 0.489762,0.67556 0.05109,-0.2523 0.01185,-1.21548 -0.08721,-2.1404 z m -7.371078,0.36884 c -0.0734,-0.1819 -0.133452,-0.0331 -0.133452,0.33073 0,0.36381 0.06005,0.51263 0.133452,0.33073 0.0734,-0.1819 0.0734,-0.47956 0,-0.66146 z m -111.035642,-1.31648 c 0,-1.69109 -0.176882,-1.56201 -0.387835,0.28303 -0.107691,0.94189 -0.07016,1.35143 0.113452,1.23795 0.150911,-0.0933 0.274383,-0.77771 0.274383,-1.52098 z m 116.334464,0.12586 c -0.06655,-0.25466 -0.121,-0.0463 -0.121,0.46302 0,0.50932 0.05445,0.71768 0.121,0.46302 0.06655,-0.25466 0.06655,-0.67138 0,-0.92604 z m -4.415717,-1.1401 c 0,-0.13693 -0.119063,-0.24896 -0.264584,-0.24896 -0.14552,0 -0.264583,0.18562 -0.264583,0.41249 0,0.22687 0.119063,0.3389 0.264583,0.24896 0.145521,-0.0899 0.264584,-0.27555 0.264584,-0.41249 z m 6.53074,-0.82774 c -0.08446,-0.21107 -0.147157,-0.14837 -0.159852,0.15985 -0.01149,0.27892 0.05104,0.43519 0.138964,0.34727 0.08792,-0.0879 0.09732,-0.31612 0.02089,-0.50712 z m -9.70574,-0.57516 c 0,-0.24153 -0.217908,-0.31853 -0.661458,-0.23374 -0.363803,0.0696 -0.661459,0.23163 -0.661459,0.36019 0,0.12855 0.297656,0.23374 0.661459,0.23374 0.381627,0 0.661458,-0.15238 0.661458,-0.36019 z"
       id="path3" /></g></svg>
