<?xml version="1.0" encoding="UTF-8" standalone="no"?>
<!-- Created with Inkscape (http://www.inkscape.org/) -->

<svg
   width="362.47916mm"
   height="155.04584mm"
   viewBox="0 0 362.47916 155.04584"
   version="1.1"
   id="svg1"
   xml:space="preserve"
   xmlns="http://www.w3.org/2000/svg"
   xmlns:svg="http://www.w3.org/2000/svg"><defs
     id="defs1" /><g
     id="layer1"
     transform="translate(71.573353,-65.945455)"><path
       style="fill:#000000"
       d="M -71.573353,143.46838 V 65.945455 h 62.6842003 c 49.8997957,0 62.7114167,0.06745 62.8176517,0.330729 0.106761,0.264583 0.137629,0.264583 0.15434,0 0.01668,-0.26406 23.888625,-0.330729 118.421921,-0.330729 H 290.9058 V 143.46838 220.9913 H 109.66622 -71.573353 Z m 98.821873,61.11875 c 0.08994,-0.14552 0.03743,-0.26459 -0.116677,-0.26459 -0.154109,0 -0.280198,0.11907 -0.280198,0.26459 0,0.14552 0.0525,0.26458 0.116676,0.26458 0.06417,0 0.190262,-0.11906 0.280199,-0.26458 z m -0.314541,-1.13917 c -0.07443,-0.12042 0.08496,-0.38584 0.354192,-0.58981 0.699998,-0.53032 0.242793,-0.47458 -0.628569,0.0766 -0.403699,0.25537 -0.770483,0.63271 -0.815074,0.83853 -0.06752,0.31164 -0.01113,0.31618 0.337123,0.0271 0.230009,-0.19089 0.494696,-0.27057 0.588193,-0.17708 0.0935,0.0935 0.03109,0.17 -0.138686,0.17 -0.169774,0 -0.30868,0.20135 -0.30868,0.44744 0,0.39034 0.04766,0.38227 0.373413,-0.0632 0.205377,-0.28087 0.312517,-0.6092 0.238088,-0.72963 z m 2.828082,-5.87229 c 0,-0.3638 -0.115326,-0.66146 -0.256279,-0.66146 -0.140954,0 -0.183136,0.19061 -0.09374,0.42358 0.0894,0.23297 -0.0036,0.5288 -0.206741,0.65741 -0.295585,0.18716 -0.276878,0.23463 0.09374,0.23788 0.318581,0.003 0.463021,-0.2023 0.46302,-0.65741 z m 10.31875,-0.95727 c 0,-0.14552 -0.119063,-0.191 -0.264583,-0.10106 -0.145521,0.0899 -0.264584,0.28258 -0.264584,0.4281 0,0.14552 0.119063,0.191 0.264584,0.10106 0.14552,-0.0899 0.264583,-0.28258 0.264583,-0.4281 z m 1.206201,-0.36062 c 0.44454,-0.33916 0.460232,-0.42755 0.116716,-0.65741 -0.346353,-0.23175 -0.342275,-0.26607 0.03204,-0.26961 0.235904,-0.002 0.708298,-0.41178 1.049766,-0.91012 0.341467,-0.49834 0.712638,-0.84934 0.824824,-0.78001 0.112186,0.0693 0.125137,-0.0794 0.02878,-0.33049 -0.130192,-0.33927 -0.06991,-0.41614 0.234685,-0.29926 0.271542,0.1042 0.513249,-0.0696 0.716149,-0.5149 0.264924,-0.58145 0.248589,-0.65005 -0.121003,-0.50823 -0.234999,0.0902 -0.522709,0.16396 -0.639356,0.16396 -0.116647,0 -0.282046,0.20836 -0.367554,0.46302 -0.341992,1.01853 -1.288572,2.16466 -2.134626,2.58463 -0.302361,0.15009 -0.587794,0.5378 -0.634295,0.86158 -0.09845,0.68549 0.174599,0.74562 0.893874,0.19684 z M 25.17595,195.99981 c 0,-0.21188 -0.09922,-0.32392 -0.220486,-0.24897 -0.121267,0.075 -0.220486,0.2483 -0.220486,0.38524 0,0.13693 0.09922,0.24896 0.220486,0.24896 0.121267,0 0.220486,-0.17335 0.220486,-0.38523 z m 20.461111,-4.62402 c 0,-0.13571 -0.238125,-0.32233 -0.529167,-0.4147 -0.815797,-0.25893 -0.626044,-0.58403 0.264583,-0.45332 0.725687,0.10651 0.793029,0.0515 0.785336,-0.64113 -0.0076,-0.68646 -0.04144,-0.71414 -0.359898,-0.29462 -0.360895,0.47542 -0.842207,0.65874 -0.569028,0.21672 0.08372,-0.13546 0.04916,-0.30999 -0.0768,-0.38784 -0.125962,-0.0779 -0.378183,0.13716 -0.560491,0.47781 -0.251816,0.47052 -0.259161,0.75446 -0.03057,1.18159 0.299181,0.55903 1.076034,0.7868 1.076035,0.31549 z m 1.5875,-3.56122 c 0,-0.18544 -0.162258,-0.33716 -0.360573,-0.33716 -0.218576,0 -0.310926,0.18985 -0.234503,0.48209 0.136079,0.52037 0.595076,0.40858 0.595076,-0.14493 z m 0.733176,-1.96343 c 0.06445,-0.19334 -0.05651,-0.25247 -0.314193,-0.15359 -0.230441,0.0884 -0.418983,0.27702 -0.418983,0.4191 0,0.34777 0.60134,0.13 0.733176,-0.26551 z m 1.247575,-1.54552 c 0.377851,0.0592 0.501771,-0.88972 0.160728,-1.23076 -0.352564,-0.35257 -0.385389,-0.80329 -0.0431,-0.59174 0.135466,0.0837 0.321086,0.0312 0.41249,-0.11668 0.0914,-0.14789 -0.01524,-0.2689 -0.236992,-0.2689 -0.429946,0 -1.09785,0.99965 -0.840111,1.25739 0.08455,0.0846 0.155552,-0.0149 0.15778,-0.2211 0.0033,-0.30863 0.04935,-0.30473 0.260532,0.0221 0.334856,0.51815 0.334856,0.86841 0,0.66146 -0.145521,-0.0899 -0.264583,-0.10671 -0.264583,-0.0373 0,0.0694 -0.07076,0.34437 -0.157251,0.61093 -0.09669,0.29802 -0.07122,0.36703 0.06615,0.1792 0.122868,-0.16801 0.340828,-0.28707 0.484356,-0.26459 z m 0.929665,-2.58934 c 0,-0.27926 -0.507765,-0.39658 -0.658791,-0.15222 -0.0914,0.1479 0.01943,0.2689 0.246301,0.2689 0.22687,0 0.41249,-0.0525 0.41249,-0.11668 z m 1.058334,-0.67707 c 0,-0.14552 -0.119063,-0.26458 -0.264584,-0.26458 -0.145521,0 -0.264583,0.11906 -0.264583,0.26458 0,0.14552 0.119062,0.26458 0.264583,0.26458 0.145521,0 0.264584,-0.11906 0.264584,-0.26458 z m 0.132291,-1.32292 c -0.09933,-0.31297 -0.240139,-0.50951 -0.312899,-0.43675 -0.07276,0.0728 -0.05102,0.38836 0.04832,0.70134 0.09933,0.31297 0.240139,0.50951 0.312899,0.43675 0.07276,-0.0728 0.05102,-0.38836 -0.04832,-0.70134 z m 0.224599,-1.40699 c 0.09475,0.0947 0.172276,0.0334 0.172276,-0.13641 0,-0.16977 -0.178594,-0.30868 -0.396875,-0.30868 -0.218281,0 -0.396875,0.0498 -0.396875,0.11065 0,0.0609 -0.06925,0.32875 -0.153891,0.59532 -0.144951,0.4565 -0.131905,0.458 0.224599,0.0257 0.208169,-0.2524 0.456014,-0.38139 0.550766,-0.28663 z m 0.619315,-1.25974 c -0.108086,-0.41332 -0.04449,-0.51194 0.255833,-0.39669 0.239596,0.0919 0.357707,0.0274 0.294888,-0.16101 -0.163353,-0.49005 -0.651248,-0.5457 -0.824566,-0.094 -0.156921,0.40893 0.02968,1.20181 0.282847,1.20181 0.07416,0 0.07011,-0.24753 -0.009,-0.55007 z m -27.963705,-3.03742 c 0,-0.2097 0.119063,-0.38126 0.264584,-0.38126 0.14552,0 0.264583,-0.35719 0.264583,-0.79375 0,-0.43657 -0.119063,-0.80864 -0.264583,-0.82683 -0.530411,-0.0663 -0.668088,-0.11152 -1.021769,-0.3356 -0.338515,-0.21447 -0.815854,0.18958 -0.826263,0.69941 -0.0082,0.40098 0.490114,0.18389 0.607314,-0.26459 0.114376,-0.43767 0.122681,-0.43779 0.151692,-0.002 0.01688,0.25343 -0.207433,0.60949 -0.498474,0.79125 -0.622882,0.389 -0.688798,0.73235 -0.140596,0.73235 0.226001,0 0.328569,0.15636 0.245156,0.37373 -0.08513,0.22185 0.05265,0.41798 0.339033,0.48262 0.620993,0.14015 0.879323,5.8e-4 0.879323,-0.47509 z m -0.548828,0.34634 c -0.194626,-0.65478 -0.184414,-1.25677 0.02132,-1.25677 0.144608,0 0.262923,0.29766 0.262923,0.66146 0,0.52545 -0.187984,0.91916 -0.284245,0.59531 z m 0.590605,-1.52135 c 0,-0.3638 0.06005,-0.51263 0.133452,-0.33073 0.0734,0.1819 0.0734,0.47956 0,0.66146 -0.0734,0.1819 -0.133452,0.0331 -0.133452,-0.33073 z m 30.006288,0.44575 c 0.07345,-0.19141 0.01773,-0.63789 -0.123825,-0.99219 -0.241397,-0.60422 -0.258406,-0.60901 -0.274136,-0.0772 -0.0092,0.31185 -0.221794,0.64568 -0.472377,0.74183 -0.390291,0.14977 -0.399773,0.21015 -0.06615,0.42114 0.536075,0.33902 0.779821,0.31465 0.936484,-0.0936 z m -31.824689,-1.16319 c 0.133622,-0.699 -0.361478,-1.3824 -1.001501,-1.3824 -0.14552,0 -0.05078,0.16215 0.210539,0.36033 0.342977,0.26011 0.426984,0.55213 0.302046,1.04992 -0.09936,0.39588 -0.06131,0.68959 0.08935,0.68959 0.144332,0 0.324139,-0.32285 0.39957,-0.71744 z m 28.865986,-0.99305 c 0.526012,-0.80279 0.526491,-0.84067 0.01313,-1.03767 -0.319155,-0.12247 -0.375282,-0.0364 -0.244644,0.37522 0.09324,0.29378 0.07126,0.51706 -0.04885,0.49617 -0.576704,-0.1003 -0.849186,0.0613 -0.710932,0.42156 0.217166,0.56592 0.501138,0.4928 0.991293,-0.25528 z m 3.061051,-1.61137 c -0.444486,-0.53557 -0.781663,-0.47581 -0.781663,0.13855 0,0.35429 0.126923,0.47216 0.396874,0.36857 0.278956,-0.10704 0.407581,0.033 0.432907,0.47133 0.03603,0.62362 0.03603,0.62362 0.152602,0.0137 0.06411,-0.33543 -0.02621,-0.78192 -0.20072,-0.99219 z m -33.129951,1.03921 c 0.964191,-0.25843 0.452592,-0.54289 -0.844661,-0.46966 -1.022416,0.0577 -1.202884,-0.006 -1.202884,-0.42636 0,-0.63861 -0.434752,-0.90604 -0.711343,-0.43757 -0.118084,0.2 -0.393292,0.44195 -0.611573,0.53767 -0.221938,0.0973 -0.134194,0.12526 0.199061,0.0634 0.327765,-0.0608 0.684952,0.0436 0.79375,0.23216 0.177118,0.30691 0.776002,0.55582 1.52073,0.63204 0.145521,0.0149 0.531135,-0.0444 0.85692,-0.13168 z m 42.733183,-0.009 c -0.181901,-0.0734 -0.479557,-0.0734 -0.661458,0 -0.181901,0.0734 -0.03307,0.13345 0.330729,0.13345 0.363802,0 0.51263,-0.06 0.330729,-0.13345 z m -13.355984,-0.75081 c -0.03173,-0.38335 -0.219592,-0.66146 -0.446827,-0.66146 -0.289782,0 -0.314637,0.0774 -0.09526,0.29682 0.163253,0.16326 0.233858,0.46091 0.156901,0.66146 -0.07696,0.20055 -0.0095,0.36464 0.150003,0.36464 0.15946,0 0.265293,-0.29766 0.235183,-0.66146 z m 1.84856,0.0661 c -0.417099,-0.6313 -1.523305,-0.96956 -1.523305,-0.4658 0,0.16423 0.101962,0.23558 0.226582,0.15856 0.12462,-0.077 0.452041,0.0875 0.727604,0.36554 0.692754,0.69904 1.04561,0.6629 0.569119,-0.0583 z M 20.16582,169.37775 c 0.0345,-0.45801 -0.02411,-0.49482 -0.353094,-0.22179 -0.352283,0.29237 -0.255873,0.53729 0.301885,0.76691 0.0054,0.002 0.02846,-0.24307 0.05121,-0.54512 z m 0.864991,0.43249 c 0,-0.0642 -0.119062,-0.19026 -0.264583,-0.28019 -0.145521,-0.0899 -0.264583,-0.0374 -0.264583,0.11667 0,0.15411 0.119062,0.2802 0.264583,0.2802 0.145521,0 0.264583,-0.0525 0.264583,-0.11668 z m 42.741087,-0.16551 c 0.271479,-0.43926 0.02781,-0.50017 -0.35204,-0.088 -0.187639,0.20361 -0.224431,0.37019 -0.08176,0.37019 0.14267,0 0.33788,-0.12698 0.4338,-0.28219 z m -8.730941,-0.49346 c -0.08378,-0.13556 0.11755,-0.44787 0.447406,-0.69401 0.443166,-0.3307 0.473209,-0.4045 0.115079,-0.28269 -0.266564,0.0907 -0.580099,0.16485 -0.696746,0.16485 -0.116647,0 -0.274356,0.23813 -0.350465,0.52917 -0.09189,0.35138 -0.0081,0.52916 0.24934,0.52916 0.213245,0 0.319169,-0.11091 0.235386,-0.24648 z m 13.35027,-0.16601 c 0,-0.22687 -0.121005,-0.3377 -0.268899,-0.2463 -0.147895,0.0914 -0.2004,0.27703 -0.116677,0.41249 0.226811,0.36699 0.385576,0.29856 0.385576,-0.16619 z m -49.741666,-0.53245 c 0,-0.0831 -0.179688,-0.33088 -0.399306,-0.55049 -0.219619,-0.21962 -0.331655,-0.50877 -0.248969,-0.64256 0.08269,-0.13379 0.02904,-0.24326 -0.119208,-0.24326 -0.148251,0 -0.244575,0.35695 -0.214053,0.79323 0.03902,0.55768 0.192986,0.79338 0.518516,0.79375 0.254661,2.9e-4 0.46302,-0.0675 0.46302,-0.15067 z m 51.858332,-0.98387 c -0.363802,-0.16803 -0.748932,-0.42786 -0.855844,-0.57741 -0.123261,-0.17241 -0.195868,-0.14777 -0.198437,0.0673 -0.0022,0.18659 0.263839,0.44694 0.591261,0.57855 0.864562,0.34751 1.242642,0.29158 0.46302,-0.0685 z m 2.645834,0.0753 c 0.303884,-0.19748 0.226391,-0.245 -0.33073,-0.20282 -0.400182,0.0303 -0.727604,0.14819 -0.727604,0.26197 0,0.28488 0.578729,0.25253 1.058334,-0.0592 z M 55.871968,166.9669 c -0.08446,-0.21106 -0.147157,-0.14837 -0.159853,0.15986 -0.01149,0.27891 0.05105,0.43518 0.138965,0.34726 0.08792,-0.0879 0.09732,-0.31612 0.02089,-0.50712 z m 17.187265,-0.34726 c 0.218281,-0.21828 0.338577,-0.39688 0.267324,-0.39688 -0.07125,0 -0.319233,-0.0728 -0.551066,-0.16175 -0.320161,-0.12285 -0.378172,-0.0488 -0.24126,0.30799 0.133149,0.34698 0.08868,0.41314 -0.170172,0.25316 -0.23316,-0.1441 -0.287251,-0.11435 -0.161639,0.0889 0.247082,0.39979 0.37977,0.38563 0.856813,-0.0914 z m 3.391078,-0.32803 c 0.369691,-0.39869 0.672166,-0.63009 0.672166,-0.5142 0,0.11588 0.357187,-3.1e-4 0.793749,-0.25819 0.436563,-0.25789 0.79375,-0.56328 0.79375,-0.67866 0,-0.11538 -0.218934,-0.073 -0.486521,0.0941 -0.369203,0.23057 -0.608457,0.22629 -0.992188,-0.0177 -0.495117,-0.31486 -0.495148,-0.31824 -0.0015,-0.16182 0.702643,0.22264 1.855836,-0.85783 1.444522,-1.35344 -0.425893,-0.51317 -0.574029,-0.45884 -1.713227,0.62836 -0.832689,0.79468 -0.940791,1.00046 -0.566177,1.07774 0.254662,0.0525 0.463021,0.186 0.463021,0.2966 0,0.4059 -0.346165,0.52882 -0.80209,0.28481 -0.345903,-0.18512 -0.510109,-0.14051 -0.629671,0.17106 -0.115177,0.30015 -0.04662,0.37732 0.238136,0.26804 0.554453,-0.21276 0.503605,0.27241 -0.06315,0.60251 -0.254661,0.14832 -0.319011,0.2733 -0.142999,0.27773 0.176012,0.004 0.622497,-0.31816 0.992188,-0.71686 z m 1.00157,-2.25166 c 0.05991,-0.1819 0.397249,-0.35271 0.749653,-0.37958 0.385717,-0.0294 0.456448,0.005 0.177713,0.0855 -0.254661,0.0739 -0.463021,0.24474 -0.463021,0.37959 0,0.13485 -0.128984,0.24518 -0.286631,0.24518 -0.157648,0 -0.237619,-0.14883 -0.177714,-0.33073 z m -59.203114,0.36862 c -0.111721,-0.76083 -0.07688,-1.09563 0.102488,-0.98477 0.149466,0.0924 0.402766,-0.0768 0.56289,-0.37604 0.160123,-0.29919 0.404222,-0.47409 0.542441,-0.38867 0.13822,0.0854 0.251309,-0.0373 0.251309,-0.27278 0,-0.24565 -0.124847,-0.35095 -0.292929,-0.24707 -0.191435,0.11831 -0.23822,0.009 -0.135028,-0.31646 0.08685,-0.27363 0.05312,-1.03268 -0.07496,-1.68678 -0.128072,-0.6541 -0.245904,-0.98092 -0.261848,-0.72626 -0.01594,0.25466 -0.148052,0.46302 -0.293573,0.46302 -0.14552,0 -0.264583,0.12609 -0.264583,0.2802 0,0.15411 0.119063,0.20662 0.264583,0.11668 0.307864,-0.19027 0.32614,0.023 0.09922,1.15755 -0.224248,1.12124 -0.628385,1.04739 -0.628385,-0.11483 0,-0.60047 -0.102403,-0.87837 -0.282621,-0.76699 -0.155442,0.0961 -0.221626,0.33362 -0.147076,0.52789 0.07455,0.19428 -0.09659,0.64834 -0.380311,1.00904 -0.37915,0.48201 -0.42782,0.6913 -0.183653,0.78974 0.188676,0.0761 0.11816,0.14297 -0.163215,0.15484 -0.416643,0.0176 -0.441392,0.086 -0.155647,0.43028 0.27287,0.32879 0.386998,0.34181 0.579623,0.0661 0.151103,-0.21625 0.201465,0.20973 0.136107,1.15124 -0.0977,1.4074 -0.07466,1.47678 0.395345,1.19062 0.414532,-0.25238 0.470412,-0.49916 0.32982,-1.4566 z m 38.490487,1.23514 c 0.590537,-0.63387 0.714679,-1.66268 0.236302,-1.95834 -0.21395,-0.13222 -0.2505,0.0225 -0.124197,0.52572 0.225688,0.89922 -0.100299,1.52665 -0.417454,0.80349 -0.197262,-0.44979 -0.210725,-0.43968 -0.11142,0.0837 0.06212,0.32743 0.005,0.59532 -0.126861,0.59532 -0.131898,0 -0.239814,0.11906 -0.239814,0.26458 0,0.39933 0.189184,0.32339 0.783444,-0.31447 z m -40.023975,-1.47147 c -0.06655,-0.25466 -0.121,-0.0463 -0.121,0.46302 0,0.50933 0.05445,0.71769 0.121,0.46302 0.06655,-0.25466 0.06655,-0.67138 0,-0.92604 z m 66.121004,0.42214 c 0.111585,-0.18054 0.07311,-0.23397 -0.09408,-0.13064 -0.155576,0.0961 -0.343166,0.0252 -0.416867,-0.15756 -0.08084,-0.20052 -0.142289,-0.14869 -0.15489,0.13065 -0.02362,0.52359 0.380508,0.61922 0.665835,0.15755 z m 0.582291,-1.9533 c -0.180974,-0.18097 -1.004431,0.6102 -1.004431,0.96506 0,0.14079 0.259226,0.0145 0.576058,-0.28069 0.316832,-0.29518 0.5096,-0.60314 0.428373,-0.68437 z m -25.770226,0.71536 c 0.07495,-0.12126 -0.03185,-0.22048 -0.237329,-0.22048 -0.205479,0 -0.312277,0.0992 -0.23733,0.22048 0.07495,0.12127 0.181746,0.22049 0.23733,0.22049 0.05558,0 0.162382,-0.0992 0.237329,-0.22049 z m 21.546833,-0.54049 c 0.287662,-0.18235 0.280215,-0.25161 -0.04028,-0.37459 -0.40894,-0.15693 -0.70951,0.007 -0.70951,0.38592 0,0.27995 0.297365,0.27546 0.749788,-0.0113 z m -20.27336,-1.951 c 0.07458,-0.40018 0.03306,-0.7276 -0.09228,-0.7276 -0.204195,0 -0.342231,0.59878 -0.259226,1.12448 0.01723,0.10914 -0.08773,0.19843 -0.233251,0.19843 -0.408211,0 -0.312864,-0.95347 0.132292,-1.32291 0.218281,-0.18116 0.396875,-0.43013 0.396875,-0.55326 0,-0.12314 -0.178594,-0.15535 -0.396875,-0.0716 -0.218281,0.0838 -0.397608,0.28838 -0.398505,0.45472 -8.96e-4,0.16633 -0.169713,0.6246 -0.375148,1.01839 -0.205434,0.39378 -0.313782,0.94439 -0.240773,1.22358 0.128377,0.49091 0.152458,0.48912 0.732015,-0.0545 0.329599,-0.30917 0.660296,-0.88955 0.73488,-1.28973 z m 25.344405,0.99219 c 0,-0.0416 -0.178593,-0.14421 -0.396875,-0.22797 -0.239328,-0.0918 -0.396875,-10e-4 -0.396875,0.22797 0,0.22931 0.157547,0.31981 0.396875,0.22797 0.218282,-0.0838 0.396875,-0.18635 0.396875,-0.22797 z m 2.645839,-0.0324 c 0,-0.35157 -0.0718,-0.36965 -0.39688,-0.0999 -0.21828,0.18115 -0.39687,0.37433 -0.39687,0.42927 0,0.0549 0.17859,0.0999 0.39687,0.0999 0.21828,0 0.39688,-0.19317 0.39688,-0.42927 z m 1.98321,-0.89176 c 0.22224,-0.3596 0.093,-0.3377 -0.88423,0.14979 -0.45892,0.22894 -0.8344,0.52965 -0.8344,0.66825 0,0.28677 1.46753,-0.41176 1.71863,-0.81804 z m -69.055089,-0.53127 c 0.08994,-0.14552 0.03743,-0.26458 -0.116676,-0.26458 -0.154109,0 -0.280199,0.11906 -0.280199,0.26458 0,0.14552 0.05251,0.26458 0.116677,0.26458 0.06417,0 0.190262,-0.11906 0.280198,-0.26458 z m 68.323129,-0.15985 c -0.0879,-0.0879 -0.31612,-0.0973 -0.50711,-0.0209 -0.21107,0.0845 -0.14838,0.14716 0.15985,0.15985 0.27891,0.0115 0.43518,-0.051 0.34726,-0.13896 z m 19.049995,0 c -0.0879,-0.0879 -0.31612,-0.0973 -0.50712,-0.0209 -0.21106,0.0845 -0.14837,0.14716 0.15986,0.15985 0.27891,0.0115 0.43518,-0.051 0.34726,-0.13896 z m -27.709584,-0.36101 c 0,-0.14096 -0.178593,-0.18775 -0.396875,-0.10399 -0.218281,0.0838 -0.396875,0.19909 -0.396875,0.25628 0,0.0572 0.178594,0.10399 0.396875,0.10399 0.218282,0 0.396875,-0.11533 0.396875,-0.25628 z m 25.977664,-0.33022 c -0.18985,-0.18985 -0.31309,-0.20547 -0.31309,-0.0397 0,0.35316 0.3129,0.66606 0.48948,0.48948 0.0752,-0.0752 -0.004,-0.2776 -0.17639,-0.4498 z m 3.98145,0.23468 c 1.30607,-0.4549 1.61934,-0.82545 0.52096,-0.61621 -0.54551,0.10391 -0.81263,0.0685 -0.71199,-0.0943 0.27348,-0.44251 -0.67542,-0.28714 -1.14584,0.18762 -0.41588,0.41971 -0.41468,0.43706 0.0189,0.27288 0.26559,-0.10057 0.46302,-0.0519 0.46302,0.11403 0,0.1839 -0.31337,0.22922 -0.8599,0.12435 -0.61146,-0.11732 -0.74523,-0.0898 -0.46302,0.0952 0.52801,0.34613 0.99572,0.32818 2.17787,-0.0836 z m 18.67562,-1.30808 c 0.3182,-0.36733 0.4585,-0.39607 0.64583,-0.13229 0.15534,0.21874 0.18555,0.0894 0.0861,-0.36873 -0.0966,-0.44496 -0.0312,-0.74929 0.17703,-0.82367 0.18165,-0.0649 0.25802,-0.1966 0.16971,-0.29271 -0.27328,-0.2974 -1.02959,0.13493 -1.03847,0.59363 -0.01,0.51732 -0.64305,1.41484 -0.85115,1.20674 -0.0802,-0.0802 -0.22426,-0.0188 -0.32018,0.13641 -0.0959,0.1552 -0.052,0.28218 0.0975,0.28218 0.14954,0 0.20711,0.20836 0.12793,0.46302 -0.10683,0.3436 -0.061,0.32654 0.17763,-0.0661 0.17688,-0.29104 0.50453,-0.74034 0.7281,-0.99844 z M 21.30667,158.2189 c 0.285309,-0.61847 0.446265,-0.84168 0.35768,-0.49604 -0.114782,0.44787 -0.07027,0.57234 0.154916,0.43316 0.173788,-0.1074 0.257222,-0.41997 0.185407,-0.69459 -0.07181,-0.27462 -0.0028,-0.4993 0.153339,-0.4993 0.156151,0 0.219921,-0.064 0.141713,-0.1422 -0.183768,-0.18377 -1.533497,0.42789 -1.533497,0.69493 0,0.11177 -0.207296,0.41052 -0.460658,0.66388 -0.362242,0.36224 -0.384109,0.48617 -0.102354,0.58009 0.300555,0.10019 0.300174,0.15627 -0.0024,0.34794 -0.280454,0.17768 -0.255277,0.2294 0.113203,0.23256 0.301671,0.003 0.662375,-0.40457 0.992613,-1.12043 z m 38.007494,-0.12726 c -0.06708,-0.25743 -0.126381,-0.11087 -0.131773,0.3257 -0.0054,0.43656 0.04949,0.64718 0.121969,0.46805 0.07248,-0.17913 0.07689,-0.53632 0.0098,-0.79375 z m 56.172886,0.67847 c 0,-0.12126 -0.10087,-0.22048 -0.22415,-0.22048 -0.12328,0 -0.36509,-0.26789 -0.53735,-0.59532 -0.17226,-0.32742 -0.2575,-0.3968 -0.18943,-0.15418 0.0709,0.2527 -0.0669,0.51911 -0.32254,0.62371 -0.40069,0.16392 -0.39356,0.20223 0.0697,0.37467 0.68608,0.2554 1.20378,0.24319 1.20378,-0.0284 z m 39.94803,-1.08038 c 0.002,0.1819 0.18265,0.33073 0.40093,0.33073 0.47671,0 0.53927,-0.52017 0.0661,-0.55005 -0.26283,-0.0166 -0.26249,-0.0484 0.002,-0.15489 0.18281,-0.0737 0.25723,-0.25561 0.16537,-0.40424 -0.10552,-0.17073 -0.25226,-0.13806 -0.39852,0.0888 -0.19444,0.30149 -0.26915,0.30058 -0.46652,-0.006 -0.26076,-0.4046 -0.83518,-0.17976 -0.80244,0.31409 0.0149,0.22554 0.059,0.22064 0.15489,-0.0173 0.20053,-0.4974 0.61785,-0.11926 0.44917,0.40699 -0.12373,0.38601 -0.10265,0.39471 0.13979,0.0577 0.19413,-0.26987 0.28679,-0.29104 0.28954,-0.0661 z m -8.54645,-0.51263 c -0.0845,-0.21107 -0.14716,-0.14837 -0.15986,0.15985 -0.0115,0.27892 0.0511,0.43519 0.13897,0.34727 0.0879,-0.0879 0.0973,-0.31612 0.0209,-0.50712 z m -45.58509,-0.10432 c 0.0883,-0.23018 0.15877,-0.67667 0.15654,-0.99219 -0.003,-0.4516 -0.0558,-0.49191 -0.24712,-0.18943 -0.13369,0.21133 -0.18115,0.48444 -0.10546,0.6069 0.0757,0.12247 -0.006,0.39604 -0.18215,0.60795 -0.18858,0.22723 -0.20954,0.38528 -0.0511,0.38528 0.14777,0 0.34094,-0.18833 0.42927,-0.41851 z m -17.640362,-0.36019 c 0.02606,-0.34589 -0.08538,-0.46649 -0.34057,-0.36857 -0.467379,0.17935 -0.491368,0.52879 -0.04857,0.70746 0.181901,0.0734 0.335158,0.14285 0.34057,0.15434 0.0054,0.0115 0.02727,-0.21046 0.04857,-0.49323 z m -59.768901,-0.44094 c 0.132447,0.0819 0.417209,-0.0567 0.632804,-0.30795 0.592333,-0.69024 0.795405,-1.11824 0.530565,-1.11824 -0.130751,0 -0.391513,0.32742 -0.579472,0.7276 -0.194809,0.41477 -0.392848,0.58643 -0.460605,0.39924 -0.06537,-0.1806 0.0693,-0.51653 0.299273,-0.7465 0.452385,-0.45239 0.564404,-1.17409 0.182236,-1.17409 -0.129746,0 -0.310608,0.29766 -0.401916,0.66146 -0.09131,0.3638 -0.342341,0.66146 -0.55785,0.66146 -0.215509,0 -0.391834,0.11906 -0.391834,0.26458 0,0.14552 -0.178594,0.26458 -0.396875,0.26458 -0.218281,0 -0.396875,0.10914 -0.396875,0.24254 0,0.36821 0.620294,0.51264 0.980597,0.22833 0.175527,-0.13851 0.427505,-0.18487 0.559952,-0.10301 z m 56.720897,-0.30605 c -0.174734,-0.0582 -0.317698,-0.21504 -0.317698,-0.34844 0,-0.30564 0.597002,-0.19798 0.855845,0.15434 0.106912,0.14552 0.196209,0.0232 0.198437,-0.27186 0.0054,-0.71936 -0.76276,-1.77947 -1.174872,-1.62132 -0.218549,0.0839 -0.321139,-0.12228 -0.303277,-0.60941 0.01726,-0.47077 0.145669,-0.69081 0.356202,-0.6104 0.181065,0.0691 0.263335,0.23232 0.182823,0.36259 -0.263685,0.42665 0.340234,0.24793 0.712341,-0.2108 0.19972,-0.24622 0.228293,-0.3669 0.0635,-0.26819 -0.164797,0.0987 -0.601139,-0.0577 -0.969648,-0.34756 -0.487635,-0.38358 -0.703898,-0.43661 -0.794487,-0.19483 -0.08668,0.23134 -0.251628,0.17154 -0.543292,-0.19697 -0.230352,-0.29104 -0.422608,-0.42888 -0.427236,-0.30631 -0.0046,0.12256 0.22971,0.52557 0.520752,0.89557 0.291041,0.37 0.529166,1.00702 0.529166,1.41561 0,0.56462 0.111105,0.72177 0.463021,0.65492 0.254662,-0.0484 0.62012,0.0814 0.812129,0.28828 0.296274,0.3193 0.249432,0.35816 -0.309517,0.25681 -0.624016,-0.11316 -0.644482,-0.0789 -0.38948,0.65263 0.159095,0.45638 0.388508,0.6983 0.561068,0.59165 0.207098,-0.12799 0.199609,-0.21119 -0.02577,-0.28631 z m 40.031256,0.20278 c -0.0899,-0.14552 -0.27556,-0.26459 -0.41249,-0.26459 -0.13693,0 -0.24897,0.11907 -0.24897,0.26459 0,0.14552 0.18562,0.26458 0.41249,0.26458 0.22687,0 0.3389,-0.11906 0.24897,-0.26458 z m 10.31082,-1.13073 c 0.12378,0.11258 0.12691,0.0356 0.007,-0.17101 -0.16246,-0.27983 -0.10578,-0.33258 0.22217,-0.20674 0.24215,0.0929 0.4502,0.0834 0.46232,-0.0212 0.0959,-0.82673 0.2037,-1.3189 0.38285,-1.74759 0.15418,-0.36893 0.11133,-0.46713 -0.1643,-0.37647 -0.20509,0.0675 -0.41056,0.44089 -0.45661,0.82985 -0.046,0.38896 -0.24166,0.7072 -0.43471,0.7072 -0.39676,0 -0.70883,0.61014 -0.81196,1.5875 -0.0683,0.64712 -0.0629,0.64555 0.24923,-0.0724 0.17546,-0.40362 0.42029,-0.64175 0.54407,-0.52917 z m 9.57586,0.27083 c -0.0734,-0.1819 -0.13345,-0.0331 -0.13345,0.33073 0,0.3638 0.0601,0.51263 0.13345,0.33073 0.0734,-0.1819 0.0734,-0.47956 0,-0.66146 z M 25.694282,154.70444 c -0.08192,-0.21348 -0.260544,-0.38815 -0.39694,-0.38815 -0.138641,0 -0.113135,0.28786 0.05784,0.65281 0.312851,0.66779 0.608395,0.43712 0.339098,-0.26466 z m 114.167268,0.33505 c -0.26131,-0.25936 -0.2917,-0.22897 -0.14811,0.14811 0.0994,0.26094 0.2473,0.40778 0.32876,0.32632 0.0815,-0.0815 1.7e-4,-0.29496 -0.18065,-0.47443 z m 18.22342,0.0705 c 0,-0.14552 -0.12609,-0.26458 -0.2802,-0.26458 -0.15411,0 -0.20661,0.11906 -0.11668,0.26458 0.0899,0.14552 0.21603,0.26459 0.2802,0.26459 0.0642,0 0.11668,-0.11907 0.11668,-0.26459 z m -70.341495,-1.32291 c 0.14198,0 0.18456,0.11906 0.0946,0.26458 -0.0899,0.14552 -0.0445,0.26458 0.10106,0.26458 0.40181,0 0.64268,-0.52792 0.24528,-0.53758 -0.25842,-0.006 -0.24521,-0.0902 0.052,-0.33073 0.43654,-0.35318 0.63654,-1.87605 0.21193,-1.61362 -0.14275,0.0882 -0.20078,0.38509 -0.12897,0.65971 0.16348,0.62513 -0.0513,0.64042 -0.50991,0.0363 -0.31208,-0.41112 -0.35242,-0.41474 -0.35989,-0.0323 -0.005,0.23692 -0.27631,0.61762 -0.60373,0.84602 -0.49977,0.34862 -0.521,0.4175 -0.13229,0.42915 0.25466,0.008 0.47242,0.1627 0.48391,0.34461 0.0167,0.26458 0.0476,0.26458 0.15434,0 0.0734,-0.18191 0.24962,-0.33073 0.3916,-0.33073 z m -0.39276,-0.41035 c 0.0809,-0.21087 0.25345,-0.3834 0.3834,-0.3834 0.38037,0 0.27138,0.45908 -0.14712,0.61967 -0.25626,0.0983 -0.33461,0.02 -0.23628,-0.23627 z m 36.603005,0.63467 c 0,-0.12338 -0.35719,-0.22432 -0.79375,-0.22432 -0.43656,0 -0.79375,0.1111 -0.79375,0.24688 0,0.13579 0.35719,0.23674 0.79375,0.22432 0.43656,-0.0124 0.79375,-0.12351 0.79375,-0.24688 z m 26.57423,-0.32775 c -0.0873,-0.34793 -0.0301,-0.71214 0.12725,-0.80937 0.1696,-0.10481 0.28602,0.045 0.28602,0.36802 0,0.30786 0.1726,0.54478 0.39687,0.54478 0.21828,0 0.39688,-0.18562 0.39688,-0.41249 0,-0.22687 -0.11906,-0.33891 -0.26458,-0.24897 -0.14553,0.0899 -0.26459,0.0374 -0.26459,-0.11668 0,-0.15411 0.14556,-0.2802 0.32346,-0.2802 0.1779,0 0.0609,-0.18389 -0.25998,-0.40865 -0.4752,-0.33284 -0.69458,-0.34916 -1.18264,-0.088 -0.3899,0.20867 -0.47935,0.36065 -0.25608,0.43508 0.2675,0.0892 0.24672,0.26154 -0.0943,0.78199 -0.24059,0.36719 -0.33011,0.60128 -0.19893,0.5202 0.13119,-0.0811 0.41143,-0.038 0.62276,0.0957 0.53572,0.3389 0.54597,0.32827 0.36785,-0.38142 z m 0.14869,-1.21949 c -0.23847,-0.15411 -0.27111,-0.2581 -0.0818,-0.26053 0.17332,-0.002 0.3887,0.11501 0.47864,0.26053 0.20302,0.32849 0.11142,0.32849 -0.39687,0 z m -11.20294,0.61512 c -0.273,-0.273 -0.6772,0.2034 -0.52005,0.61294 0.14305,0.37277 0.18681,0.36975 0.40958,-0.0283 0.13717,-0.24512 0.18689,-0.5082 0.11047,-0.58462 z m -77.836511,0.43167 c -0.09388,-0.15189 -0.02261,-0.45459 0.15838,-0.67267 0.235527,-0.28379 0.247879,-0.47768 0.04345,-0.68211 -0.157086,-0.15708 -0.21848,-0.47946 -0.136432,-0.71639 0.132981,-0.384 0.09729,-0.38194 -0.328677,0.019 -0.40682,0.38289 -0.424766,0.51371 -0.120722,0.88006 0.300959,0.36264 0.297384,0.46877 -0.02273,0.67474 -0.32802,0.21106 -0.325698,0.27998 0.01701,0.50495 0.51091,0.33539 0.600582,0.33366 0.389712,-0.008 z m 70.925791,-0.26438 c 0.4019,-0.44408 0.41286,-0.51126 0.0615,-0.37641 -0.23526,0.0903 -0.49273,0.33352 -0.57218,0.54055 -0.19767,0.51513 -0.0656,0.47269 0.51071,-0.16414 z M 27.777686,152.99338 c 0.08994,-0.14552 0.03743,-0.26459 -0.116677,-0.26459 -0.154109,0 -0.280198,0.11907 -0.280198,0.26459 0,0.14552 0.05251,0.26458 0.116677,0.26458 0.06417,0 0.190261,-0.11906 0.280198,-0.26458 z m 0.926042,0 c 0,-0.14552 -0.119063,-0.26459 -0.264583,-0.26459 -0.145521,0 -0.264584,0.11907 -0.264584,0.26459 0,0.14552 0.119063,0.26458 0.264584,0.26458 0.14552,0 0.264583,-0.11906 0.264583,-0.26458 z m 58.338747,-0.26156 c 0.0927,-0.14998 -0.0135,-0.19433 -0.24896,-0.10398 -0.45837,0.17589 -0.54224,0.36554 -0.16165,0.36554 0.13693,0 0.32171,-0.1177 0.41061,-0.26156 z m 52.521665,-0.3999 c 0,-0.21828 -0.0468,-0.39688 -0.10399,-0.39688 -0.0572,0 -0.17252,0.1786 -0.25628,0.39688 -0.0838,0.21828 -0.037,0.39687 0.10399,0.39687 0.14095,0 0.25628,-0.17859 0.25628,-0.39687 z M 28.703728,151.52255 c 0,-0.20969 -0.238125,-0.38126 -0.529167,-0.38126 -0.329123,0 -0.527635,0.17504 -0.525115,0.46302 0.0035,0.3957 0.04134,0.40532 0.260532,0.0661 0.217461,-0.3365 0.257097,-0.32406 0.260532,0.0818 0.0022,0.26325 0.123114,0.40505 0.268635,0.31512 0.14552,-0.0899 0.264583,-0.33509 0.264583,-0.54479 z m 60.854167,0.5604 c 0,-0.0642 -0.11906,-0.19026 -0.26458,-0.2802 -0.14553,-0.0899 -0.26459,-0.0374 -0.26459,0.11668 0,0.15411 0.11906,0.2802 0.26459,0.2802 0.14552,0 0.26458,-0.0525 0.26458,-0.11668 z m 2.57417,-0.0432 c -0.0879,-0.0879 -0.31612,-0.0973 -0.50711,-0.0209 -0.21107,0.0845 -0.14838,0.14715 0.15985,0.15985 0.27891,0.0115 0.43518,-0.0511 0.34726,-0.13897 z m -65.809587,-0.36931 c 0,-0.14552 -0.126089,-0.26458 -0.280198,-0.26458 -0.154109,0 -0.206614,0.11906 -0.116677,0.26458 0.08994,0.14552 0.216026,0.26458 0.280198,0.26458 0.06417,0 0.116677,-0.11906 0.116677,-0.26458 z m 66.002687,-0.24702 c 0.084,-0.13586 -0.21381,-0.23661 -0.66172,-0.22387 -0.54,0.0154 -0.69761,0.0972 -0.46779,0.24297 0.46156,0.29272 0.94182,0.28459 1.12951,-0.0191 z m 2.25981,-0.54673 c -0.21828,-0.14106 -0.293,-0.2583 -0.16604,-0.26053 0.28456,-0.005 -0.34668,-0.7978 -0.63521,-0.7978 -0.11401,0 -0.0697,0.29672 0.0985,0.65939 0.16821,0.36267 0.48443,0.6585 0.70271,0.65741 0.35278,-0.002 0.35278,-0.0305 0,-0.25847 z m 9.520945,-0.59531 c 0.002,-0.10914 -0.12204,-0.19844 -0.27615,-0.19844 -0.15411,0 -0.19411,0.1393 -0.0889,0.30955 0.12864,0.20813 0.0471,0.25419 -0.24897,0.14059 -0.24215,-0.0929 -0.44027,-0.0635 -0.44027,0.0653 0,0.65624 1.0408,0.34331 1.05428,-0.31698 z m -25.792819,0.33073 c -0.08994,-0.14552 -0.282584,-0.26459 -0.428104,-0.26459 -0.145521,0 -0.190999,0.11907 -0.101062,0.26459 0.08994,0.14552 0.282584,0.26458 0.428105,0.26458 0.14552,0 0.190998,-0.11906 0.101061,-0.26458 z m 38.648059,-0.77304 c 0,-0.32501 -0.17046,-0.49561 -0.47247,-0.47286 -0.25986,0.0196 -0.47247,0.19587 -0.47247,0.39177 0,0.19591 0.11083,0.28769 0.2463,0.20397 0.13547,-0.0837 0.32109,-0.0312 0.41249,0.11667 0.23545,0.38097 0.28615,0.33853 0.28615,-0.23955 z m -54.321763,-0.84375 c -0.0719,-0.27494 -0.248635,-0.49988 -0.392753,-0.49988 -0.144118,0 -0.189762,0.18833 -0.101433,0.41851 0.08833,0.23019 0.162422,0.61714 0.164651,0.8599 0.0032,0.34953 0.05152,0.36646 0.232154,0.0814 0.125456,-0.19801 0.169278,-0.58496 0.09738,-0.85989 z m 65.819963,0.43547 c -0.33212,-0.40018 -0.80147,-0.32388 -0.80147,0.13029 0,0.13237 0.17859,0.17214 0.39687,0.0884 0.22476,-0.0862 0.39688,-0.006 0.39688,0.1847 0,0.18534 0.0765,0.26049 0.16999,0.16699 0.0935,-0.0935 0.0205,-0.35016 -0.16227,-0.57035 z m -35.726465,-0.44635 c 0,-0.13427 -0.23682,-0.11629 -0.52917,0.0402 -0.29104,0.15576 -0.52917,0.32739 -0.52917,0.38141 0,0.054 0.23813,0.0359 0.52917,-0.0402 0.29104,-0.0761 0.52917,-0.24774 0.52917,-0.38141 z m 1.85208,0.0402 c 0,-0.29105 -0.12609,-0.52917 -0.2802,-0.52917 -0.15411,0 -0.20661,-0.11906 -0.11667,-0.26458 0.0899,-0.14552 0.0247,-0.26459 -0.14499,-0.26459 -0.17261,0 -0.23776,0.18435 -0.1479,0.41852 0.0883,0.23018 0.16059,0.58737 0.16059,0.79375 0,0.20638 0.11907,0.37523 0.26459,0.37523 0.14552,0 0.26458,-0.23812 0.26458,-0.52916 z m 23.658125,-0.43475 c 0.24307,-0.63344 0.0536,-0.68208 -0.32091,-0.0824 -0.17762,0.28443 -0.21562,0.51714 -0.0844,0.51714 0.13119,0 0.31359,-0.19564 0.40535,-0.43475 z m 42.35438,-0.42515 c -0.0715,-0.47294 -0.23525,-1.27661 -0.3638,-1.78594 -0.20515,-0.8128 -0.22949,-0.72731 -0.19903,0.69914 0.0191,0.89385 0.12399,1.57144 0.23313,1.50574 0.10914,-0.0657 0.19844,0.007 0.19844,0.16076 0,0.15411 0.0588,0.2802 0.13067,0.2802 0.0719,0 0.0721,-0.38696 5.9e-4,-0.8599 z m -64.358855,0.11932 c -0.32742,-0.0495 -0.59532,-0.2206 -0.59532,-0.38026 0,-0.15965 -0.0623,-0.22794 -0.13851,-0.15175 -0.35544,0.35543 0.20387,0.94069 0.75091,0.78575 0.57823,-0.16377 0.57823,-0.16377 -0.0171,-0.25374 z m 2.51354,0.29361 c -0.25466,-0.0666 -0.46302,-0.31071 -0.46302,-0.54257 0,-0.23187 -0.0742,-0.34733 -0.16498,-0.2566 -0.3019,0.30191 0.14133,0.98201 0.6197,0.95086 0.44172,-0.0288 0.44224,-0.0383 0.008,-0.15169 z m 66.581595,-0.0381 c 0.0749,-0.12127 -0.0318,-0.22049 -0.23733,-0.22049 -0.20548,0 -0.31228,0.0992 -0.23733,0.22049 0.0749,0.12126 0.18174,0.22048 0.23733,0.22048 0.0556,0 0.16238,-0.0992 0.23733,-0.22048 z M 63.016252,148.13083 c -0.07696,-0.20055 -0.0083,-0.49622 0.152491,-0.65705 0.448983,-0.44899 0.125143,-0.56852 -0.433513,-0.16002 -0.511607,0.37409 -0.429766,1.1817 0.11975,1.1817 0.165658,0 0.23823,-0.16409 0.161272,-0.36463 z m 14.106225,0.10005 c -0.218282,-0.14107 -0.515938,-0.25648 -0.661459,-0.25648 -0.145521,0 -0.08599,0.11541 0.132292,0.25648 0.218281,0.14106 0.515937,0.25648 0.661458,0.25648 0.145521,0 0.08599,-0.11542 -0.132291,-0.25648 z m 40.027663,-0.26871 c -0.0767,-0.29331 -0.26255,-0.60936 -0.41299,-0.70234 -0.15185,-0.0939 -0.19457,-0.0413 -0.096,0.11813 0.0976,0.15795 0.0346,0.37548 -0.13999,0.4834 -0.2216,0.13696 -0.16298,0.25672 0.19412,0.39656 0.28138,0.11019 0.53022,0.20872 0.55298,0.21894 0.0228,0.0102 -0.0214,-0.22138 -0.0981,-0.51469 z m -41.35058,-0.26046 c 0,-0.14552 -0.245152,-0.26458 -0.544782,-0.26458 -0.29963,0 -0.471197,0.11906 -0.38126,0.26458 0.08994,0.14552 0.335089,0.26458 0.544782,0.26458 0.209693,0 0.38126,-0.11906 0.38126,-0.26458 z m 20.830425,0.10473 c -0.0879,-0.0879 -0.31612,-0.0973 -0.50712,-0.0209 -0.21106,0.0845 -0.14837,0.14716 0.15985,0.15986 0.27892,0.0115 0.43519,-0.0511 0.34727,-0.13897 z m 31.208645,-0.68351 c -0.0845,-0.21106 -0.14716,-0.14837 -0.15986,0.15986 -0.0115,0.27891 0.0511,0.43518 0.13897,0.34726 0.0879,-0.0879 0.0973,-0.31612 0.0209,-0.50712 z m 0.52365,-0.28112 c -0.0734,-0.1819 -0.13345,-0.0331 -0.13345,0.33073 0,0.36381 0.0601,0.51263 0.13345,0.33073 0.0734,-0.1819 0.0734,-0.47955 0,-0.66146 z m 36.04979,-0.5058 c -0.19192,-0.35861 -0.37517,-0.48281 -0.4373,-0.29641 -0.0588,0.17648 0.0504,0.49157 0.24277,0.70022 0.48958,0.53106 0.58683,0.3292 0.19453,-0.40381 z M 60.874855,145.91798 c -0.0861,-0.0861 -0.156545,-0.0176 -0.156545,0.15213 0,0.16978 -0.112226,0.30868 -0.249391,0.30868 -0.137166,0 -0.202921,-0.2413 -0.146123,-0.53623 0.0568,-0.29493 -0.0096,-0.4665 -0.147483,-0.38126 -0.346253,0.214 -0.313882,0.74853 0.06849,1.1309 0.249262,0.24926 0.37057,0.22751 0.553419,-0.0992 0.1288,-0.23015 0.163736,-0.4889 0.07764,-0.575 z m 58.950035,0.68043 c -0.13104,-0.21203 -0.0433,-0.25276 0.27843,-0.12929 0.33596,0.12893 0.42956,0.0756 0.32866,-0.18738 -0.0776,-0.2022 -0.002,-0.51873 0.16898,-0.7034 0.2441,-0.26434 0.208,-0.29974 -0.16973,-0.1664 -0.26388,0.0932 -0.82351,-0.008 -1.24363,-0.22564 -0.83998,-0.43438 -2.00299,-0.56857 -1.35155,-0.15595 0.20055,0.12702 0.29358,0.34591 0.20674,0.48642 -0.0868,0.14051 0.12845,0.38595 0.47844,0.54541 0.52815,0.24064 0.65646,0.21349 0.75476,-0.15975 0.0687,-0.26075 0.13132,-0.14398 0.14912,0.27793 0.0169,0.40018 0.15678,0.7276 0.31089,0.7276 0.15411,0 0.19411,-0.1393 0.0889,-0.30955 z m -56.394601,-0.13026 c -0.181901,-0.0734 -0.330729,-0.30213 -0.330729,-0.50828 0,-0.20615 -0.119062,-0.37483 -0.264583,-0.37483 -0.308425,0 -0.320647,0.0752 -0.103984,0.63982 0.08833,0.23019 0.35622,0.40912 0.595312,0.39763 0.274513,-0.0132 0.312833,-0.0701 0.103984,-0.15434 z m 2.579688,-0.0894 c 0,-0.14552 -0.0893,-0.26621 -0.198438,-0.26819 -0.10914,-0.002 -0.466328,-0.0754 -0.79375,-0.16315 -0.338903,-0.0908 -0.595312,-0.0406 -0.595312,0.1165 0,0.25928 0.502671,0.47875 1.256771,0.54873 0.181901,0.0169 0.330729,-0.0884 0.330729,-0.23389 z m 1.698152,-0.1606 c 0.633731,-0.24318 0.501226,-0.69506 -0.143786,-0.49034 -0.37839,0.1201 -0.503088,0.0827 -0.38126,-0.11446 0.09957,-0.16111 0.352607,-0.29293 0.5623,-0.29293 0.209693,0 0.382886,-0.14883 0.384873,-0.33073 0.002,-0.1819 0.07781,-0.62838 0.168501,-0.99219 0.130289,-0.52266 -0.0082,-0.42739 -0.660217,0.45403 -0.473271,0.63983 -0.758694,1.28856 -0.66936,1.52136 0.177439,0.4624 0.175118,0.46163 0.738949,0.24526 z m 60.904941,-1.80187 c -0.0993,-0.39564 -0.0346,-0.69041 0.16975,-0.77287 0.20801,-0.084 0.21983,-0.14103 0.0319,-0.15419 -0.16408,-0.0115 -0.44655,0.15771 -0.62771,0.37599 -0.22757,0.27421 -0.23758,0.39688 -0.0324,0.39688 0.16333,0 0.29698,0.17859 0.29698,0.39687 0,0.21828 0.0724,0.39688 0.16097,0.39688 0.0885,0 0.0887,-0.28781 4.6e-4,-0.63956 z m 0.81306,0.0608 c -0.0845,-0.21107 -0.14716,-0.14837 -0.15986,0.15985 -0.0115,0.27892 0.0511,0.43519 0.13897,0.34727 0.0879,-0.0879 0.0973,-0.31612 0.0209,-0.50712 z m -61.034903,-1.53789 c 0,-0.14552 -0.126089,-0.26458 -0.280198,-0.26458 -0.15411,0 -0.206614,0.11906 -0.116677,0.26458 0.08994,0.14552 0.216026,0.26458 0.280198,0.26458 0.06417,0 0.116677,-0.11906 0.116677,-0.26458 z m 2.966872,-0.57665 c -0.412057,-0.16353 -0.409167,-0.1816 0.03174,-0.1985 0.66193,-0.0254 0.407031,-0.65949 -0.307356,-0.76461 -0.401505,-0.0591 -0.574589,0.0538 -0.574589,0.37468 0,0.62526 0.864538,1.44761 1.11479,1.06039 0.104257,-0.16132 -0.01418,-0.37259 -0.264585,-0.47196 z m -7.555471,-1.47387 c -0.11732,-1.42915 -0.08656,-1.93026 0.101505,-1.65365 0.208702,0.30696 0.241817,0.24702 0.146168,-0.26458 -0.323154,-1.72846 -0.407623,-2.91042 -0.207993,-2.91042 0.12091,0 0.221939,-0.80367 0.224511,-1.78593 0.0026,-0.98227 -0.04919,-1.54782 -0.115024,-1.25678 -0.06583,0.29105 -0.254755,0.61664 -0.419822,0.72356 -0.217905,0.14113 -0.212438,0.19549 0.01996,0.19843 0.190854,0.002 0.297673,0.3243 0.264583,0.79728 -0.03052,0.43627 -0.130347,0.79346 -0.221833,0.79375 -0.09149,2.9e-4 -0.320518,0.37275 -0.50896,0.82769 -0.264026,0.63742 -0.275314,1.07882 -0.04921,1.92421 0.161378,0.60338 0.243546,1.63014 0.182594,2.28169 -0.09105,0.9733 -0.06506,1.06664 0.145669,0.52319 0.231927,-0.59811 0.247569,-0.57277 0.16333,0.26458 -0.09477,0.94206 0.02467,1.5875 0.293784,1.5875 0.08199,0 0.07332,-0.92273 -0.01926,-2.05052 z m -0.68218,-3.66007 c 0.0127,-0.30823 0.07539,-0.37092 0.159853,-0.15985 0.07643,0.19099 0.06703,0.4192 -0.02089,0.50712 -0.08792,0.0879 -0.150453,-0.0684 -0.138965,-0.34727 z m 65.491042,2.87183 c -0.26895,-0.26895 -0.49087,0.13597 -0.2702,0.49302 0.1667,0.26972 0.22902,0.26993 0.31864,0.001 0.0613,-0.18383 0.0395,-0.40617 -0.0484,-0.49409 z m -82.180679,-2.25534 c 0,-0.12584 0.107885,-0.16212 0.239744,-0.0806 0.131859,0.0815 0.173336,0.40212 0.09217,0.7125 -0.106653,0.40784 -0.04474,0.52855 0.223276,0.43531 0.203968,-0.071 0.332154,-0.34119 0.284857,-0.60052 -0.06397,-0.35073 0.03029,-0.42687 0.368003,-0.29728 0.249699,0.0958 0.705115,0.0944 1.012036,-0.003 0.549251,-0.17465 0.549706,-0.18053 0.02887,-0.37374 -0.489643,-0.18163 -0.474821,-0.21774 0.198437,-0.48347 0.400183,-0.15794 0.735205,-0.37941 0.744495,-0.49216 0.0093,-0.11274 0.05485,-0.59033 0.101248,-1.06131 0.0464,-0.47098 -0.02074,-0.79137 -0.149182,-0.71199 -0.128447,0.0794 -0.23354,0.50396 -0.23354,0.9435 0,0.7503 -0.04852,0.7885 -0.79375,0.62482 -0.683362,-0.15009 -0.79375,-0.0978 -0.79375,0.37585 0,0.59283 -0.522349,0.71406 -1.294993,0.30055 -0.383884,-0.20545 -0.457583,-0.1469 -0.416339,0.33073 0.04915,0.56914 -0.859286,1.70281 -1.26012,1.57256 -0.111951,-0.0364 -0.203548,0.043 -0.203548,0.17638 0,0.1334 0.148829,0.29289 0.33073,0.35443 0.318625,0.10779 1.521354,-1.25381 1.521354,-1.72231 z m 27.014962,1.31156 c -0.339589,-0.33959 -0.683962,-0.0771 -0.43255,0.32967 0.09739,0.15758 0.298278,0.21159 0.446423,0.12003 0.180711,-0.11168 0.176146,-0.25968 -0.01387,-0.4497 z m 55.092037,-0.50529 c -0.073,-0.70548 -0.0429,-0.77072 0.15781,-0.34238 0.21038,0.44891 0.25081,0.39108 0.26659,-0.3813 0.0175,-0.85613 -0.005,-0.87982 -0.36987,-0.39687 -0.40743,0.53867 -0.56593,2.36389 -0.18482,2.12835 0.12126,-0.0749 0.17989,-0.52845 0.13029,-1.0078 z m 2.47582,0.26947 c -0.0845,-0.21107 -0.14716,-0.14837 -0.15986,0.15985 -0.0115,0.27892 0.0511,0.43519 0.13897,0.34727 0.0879,-0.0879 0.0973,-0.31612 0.0209,-0.50712 z m -85.905736,-0.74414 c 0,-0.14552 -0.0525,-0.26458 -0.116677,-0.26458 -0.06417,0 -0.190261,0.11906 -0.280198,0.26458 -0.08994,0.14552 -0.03743,0.26458 0.116677,0.26458 0.154109,0 0.280198,-0.11906 0.280198,-0.26458 z m 7.836546,-2.2627 c -0.100313,-0.26141 -0.05006,-0.34417 0.138309,-0.22776 0.178093,0.11007 0.247105,0.0366 0.173359,-0.18469 -0.189575,-0.56873 -0.598111,-0.43429 -0.692137,0.22775 -0.04658,0.32795 0.05526,0.59532 0.226745,0.59532 0.172633,0 0.241107,-0.18291 0.153724,-0.41062 z m -5.058421,-0.11855 c 0.206952,-0.33486 -0.143306,-0.33486 -0.661458,0 -0.342024,0.22103 -0.33504,0.25704 0.05053,0.26053 0.246073,0.002 0.52099,-0.11501 0.610927,-0.26053 z m 101.441321,-0.463 c -0.0264,-0.72761 -0.0264,-0.72761 -0.21217,-0.0661 -0.17405,0.61964 -0.20365,0.62981 -0.46819,0.16086 -0.15532,-0.27533 -0.23599,-0.75158 -0.17927,-1.05833 0.0999,-0.54051 0.0954,-0.5414 -0.1483,-0.0286 -0.35147,0.73975 -0.34222,0.83464 0.12717,1.30402 0.61335,0.61336 0.91049,0.50816 0.88076,-0.31183 z m 0.67258,-1.87239 c -0.45696,-0.41718 -0.46428,-0.41536 -0.12699,0.0315 0.27112,0.3592 0.28365,0.54853 0.0517,0.78052 -0.16846,0.16846 -0.30015,0.6099 -0.29265,0.98097 0.0119,0.59054 0.066,0.54841 0.43327,-0.3378 0.39321,-0.94874 0.3891,-1.04036 -0.0653,-1.45521 z m -73.40661,1.30247 c 0,-0.2599 -0.238125,-0.68805 -0.529167,-0.95144 -0.519508,-0.47014 -0.528785,-0.46244 -0.508278,0.42202 0.01149,0.49549 0.08094,0.75207 0.15434,0.57017 0.230741,-0.57183 0.663798,-0.36103 0.475714,0.23157 -0.120097,0.37839 -0.08266,0.50309 0.114462,0.38126 0.161111,-0.0996 0.292929,-0.39368 0.292929,-0.65358 z m 53.52933,-0.84531 c 0.0799,-0.30544 0.0758,-0.48588 -0.009,-0.40099 -0.0849,0.0849 -0.29646,-0.04 -0.47015,-0.27754 -0.28371,-0.38799 -0.33091,-0.37413 -0.46442,0.13641 -0.1069,0.4088 -0.0256,0.57351 0.28964,0.58688 0.34649,0.0147 0.32745,0.0662 -0.0909,0.24599 -0.51558,0.22155 -0.51467,0.22787 0.0353,0.24599 0.3601,0.0119 0.61704,-0.18247 0.70968,-0.53674 z m -72.37046,-0.34402 c -0.187639,-0.20361 -0.382849,-0.33059 -0.433801,-0.28219 -0.156938,0.14908 0.240807,0.65238 0.515561,0.65238 0.14267,0 0.105878,-0.16659 -0.08176,-0.37019 z m 1.598413,-1.961 c 0.339162,-0.39134 0.540494,-0.56269 0.447406,-0.38079 -0.229197,0.44786 0.251451,0.42097 0.630084,-0.0353 0.235912,-0.28426 0.203726,-0.40435 -0.144138,-0.53784 -0.246329,-0.0945 -0.561532,-0.0582 -0.700452,0.0807 -0.138919,0.13892 -0.436198,0.18212 -0.660619,0.096 -0.26222,-0.10062 -0.341674,-0.0492 -0.222335,0.14389 0.102136,0.16526 -0.0607,0.81057 -0.361847,1.43403 -0.440534,0.91201 -0.455417,1.01406 -0.07615,0.52216 0.259268,-0.33627 0.748892,-0.93158 1.088054,-1.32292 z m 16.629707,0.95866 c -0.08446,-0.21107 -0.147156,-0.14837 -0.159852,0.15985 -0.01149,0.27892 0.05105,0.43519 0.138964,0.34727 0.08792,-0.0879 0.09732,-0.31612 0.02089,-0.50712 z m 53.0005,-0.19936 c 0,-0.13693 -0.11906,-0.32255 -0.26458,-0.41249 -0.14552,-0.0899 -0.26458,0.0221 -0.26458,0.24897 0,0.22687 0.11906,0.41249 0.26458,0.41249 0.14552,0 0.26458,-0.11204 0.26458,-0.24897 z m -63.958132,-1.79966 c -0.08949,-0.23321 -0.38333,-0.33461 -0.760652,-0.26248 -0.338156,0.0646 -0.655089,-0.003 -0.704297,-0.15087 -0.06003,-0.18009 -0.251371,-0.1778 -0.581496,0.007 -0.471666,0.26396 -0.469649,0.28246 0.04873,0.44699 0.33484,0.10627 0.608385,0.49609 0.718349,1.02369 l 0.17759,0.85207 0.6238,-0.76816 c 0.343089,-0.42249 0.558178,-0.93917 0.477975,-1.14818 z m -6.817899,1.25488 c 0.08994,-0.14552 0.03743,-0.26458 -0.116677,-0.26458 -0.154109,0 -0.280198,0.11906 -0.280198,0.26458 0,0.14552 0.0525,0.26458 0.116676,0.26458 0.06417,0 0.190262,-0.11906 0.280199,-0.26458 z m 9.301406,-0.67287 c 0.214263,-0.55836 -0.143364,-0.85982 -0.4482,-0.3778 -0.323904,0.51217 -0.31741,0.78609 0.01864,0.78609 0.150088,0 0.343391,-0.18373 0.429561,-0.40829 z m 64.178285,-1.2268 c 0.0529,-0.5355 0.002,-0.91542 -0.11312,-0.84428 -0.11511,0.0711 -0.19989,0.62833 -0.1884,1.23821 0.0234,1.24465 0.15688,1.07032 0.30152,-0.39393 z m -68.055733,-1.5243 c 0,-0.13693 -0.119063,-0.32255 -0.264583,-0.41249 -0.145521,-0.0899 -0.264584,0.0221 -0.264584,0.24897 0,0.22687 0.119063,0.41249 0.264584,0.41249 0.14552,0 0.264583,-0.11204 0.264583,-0.24897 z m -0.178765,-2.72759 c -0.07072,-0.90951 -0.194412,-1.83224 -0.274868,-2.05052 -0.08046,-0.21829 -0.122135,-0.83125 -0.09262,-1.36215 0.02952,-0.5309 -0.07363,-1.04394 -0.229208,-1.14009 -0.15558,-0.0962 -0.282872,-0.41295 -0.282872,-0.70399 0,-0.29105 0.110163,-0.46109 0.244806,-0.37787 0.14082,0.087 0.240577,-0.58184 0.23485,-1.57465 -0.0055,-0.94927 -0.134036,-1.80263 -0.285687,-1.89635 -0.151652,-0.0937 -0.206731,-0.0588 -0.122398,0.0777 0.181297,0.29335 -0.300286,2.75524 -0.616154,3.14983 -0.120394,0.1504 -0.108469,0.44806 0.0265,0.66146 0.134969,0.2134 0.24722,0.66292 0.249449,0.99893 0.0025,0.37938 0.115288,0.54218 0.297548,0.42953 0.206912,-0.12787 0.240432,0.1327 0.113623,0.88328 -0.11315,0.66973 -0.0732,1.13059 0.107694,1.24239 0.158162,0.0977 0.215677,0.29405 0.12781,0.43622 -0.217491,0.35191 0.147193,2.87994 0.415448,2.87994 0.118066,0 0.156802,-0.74414 0.08608,-1.65364 z M 63.09956,114.23192 c 0,-1.40544 -0.423627,-1.59875 -0.579405,-0.2644 -0.0896,0.7675 0.146673,1.45502 0.50003,1.45502 0.04366,0 0.07937,-0.53578 0.07937,-1.19062 z m 0.180741,-2.56315 c -0.08446,-0.21107 -0.147157,-0.14838 -0.159853,0.15985 -0.01149,0.27891 0.05105,0.43518 0.138965,0.34726 0.08792,-0.0879 0.09732,-0.31612 0.02089,-0.50711 z m 6.995841,-3.72512 c -0.261307,-0.25936 -0.291698,-0.22897 -0.148113,0.14812 0.09936,0.26093 0.247304,0.40778 0.328766,0.32632 0.08146,-0.0815 1.68e-4,-0.29496 -0.180653,-0.47444 z m -15.643248,-7.07319 c 0,-0.14552 -0.05251,-0.26458 -0.116677,-0.26458 -0.06417,0 -0.190261,0.11906 -0.280198,0.26458 -0.08994,0.14552 -0.03743,0.26458 0.116677,0.26458 0.154109,0 0.280198,-0.11906 0.280198,-0.26458 z m 19.314583,-1.61873 c 0,-0.14553 -0.119063,-0.191 -0.264584,-0.10107 -0.145521,0.0899 -0.264583,0.28259 -0.264583,0.42811 0,0.14552 0.119062,0.191 0.264583,0.10106 0.145521,-0.0899 0.264584,-0.28258 0.264584,-0.4281 z M 52.432384,96.8521 c -0.08446,-0.21107 -0.147156,-0.14838 -0.159852,0.15985 -0.01149,0.27891 0.05105,0.43518 0.138964,0.34726 0.08792,-0.0879 0.09732,-0.31612 0.02089,-0.50711 z m 2.645834,-1.5875 c -0.08446,-0.21107 -0.147157,-0.14838 -0.159853,0.15985 -0.01149,0.27891 0.05105,0.43518 0.138965,0.34726 0.08792,-0.0879 0.09732,-0.31612 0.02089,-0.50711 z m -1.900532,-0.47956 c 0.08994,-0.14552 0.03743,-0.26458 -0.116677,-0.26458 -0.154109,0 -0.280198,0.11906 -0.280198,0.26458 0,0.14552 0.0525,0.26458 0.116676,0.26458 0.06417,0 0.190262,-0.11906 0.280199,-0.26458 z m 20.167876,-4.49792 c -0.02192,-0.29104 -0.133586,-0.52917 -0.24814,-0.52917 -0.250432,0 -0.257387,0.0933 -0.04768,0.63982 0.219444,0.57186 0.34373,0.52537 0.29582,-0.11065 z m 2.189415,-2.11667 c 0,-0.14552 -0.112036,-0.26458 -0.248969,-0.26458 -0.136932,0 -0.322553,0.11906 -0.41249,0.26458 -0.08994,0.14553 0.0221,0.26459 0.248969,0.26459 0.226869,0 0.41249,-0.11906 0.41249,-0.26459 z M 53.839144,84.64268 c 0,-0.29104 -0.03369,-0.47956 -0.07487,-0.41893 -0.04118,0.0606 -0.217881,0.29876 -0.392674,0.52917 -0.25547,0.33675 -0.240785,0.41892 0.07487,0.41892 0.216286,0 0.392675,-0.2377 0.392674,-0.52916 z m 8.058492,-1.48103 c 0.08372,-0.13546 0.03122,-0.32108 -0.116677,-0.41249 -0.147894,-0.0914 -0.268899,0.0194 -0.268899,0.2463 0,0.46475 0.158765,0.53318 0.385576,0.16619 z m -0.389627,-4.84692 c -0.0032,-0.4648 -0.05734,-0.51107 -0.247126,-0.21107 -0.13369,0.21133 -0.184372,0.47922 -0.112625,0.59531 0.229491,0.37132 0.363916,0.22775 0.359751,-0.38424 z m -0.04803,-1.52136 c -0.03327,-0.43656 -0.153471,-0.79375 -0.267126,-0.79375 -0.113654,0 -0.156707,0.26789 -0.09567,0.59531 0.06103,0.32743 0.119818,0.68461 0.130632,0.79375 0.01081,0.10914 0.08108,0.19844 0.156155,0.19844 0.07507,0 0.109278,-0.35719 0.07601,-0.79375 z m 12.222909,0.41249 c 0,-0.0642 -0.119062,-0.19026 -0.264583,-0.2802 -0.145521,-0.0899 -0.264583,-0.0374 -0.264583,0.11668 0,0.15411 0.119062,0.2802 0.264583,0.2802 0.145521,0 0.264583,-0.0525 0.264583,-0.11668 z m -0.803059,-5.42218 c 0.414904,-0.77525 0.33085,-0.8681 -0.255274,-0.28198 -0.58559,0.58559 -0.657418,0.79375 -0.273892,0.79375 0.1404,0 0.378525,-0.23029 0.529166,-0.51177 z M 60.899046,69.60001 c -0.08446,-0.211065 -0.147157,-0.14837 -0.159853,0.15985 -0.01149,0.27892 0.05105,0.43519 0.138965,0.34727 0.08792,-0.0879 0.09732,-0.31612 0.02089,-0.50712 z"
       id="path3" /></g></svg>
