<?xml version="1.0" encoding="UTF-8" standalone="no"?>
<!-- Created with Inkscape (http://www.inkscape.org/) -->

<svg
   width="362.47916mm"
   height="155.04584mm"
   viewBox="0 0 362.47916 155.04584"
   version="1.1"
   id="svg1"
   xml:space="preserve"
   xmlns="http://www.w3.org/2000/svg"
   xmlns:svg="http://www.w3.org/2000/svg"><defs
     id="defs1" /><g
     id="layer1"
     transform="translate(71.78576,-66.490751)"><path
       style="fill:#000000"
       d="m -71.763818,147.29936 c 0.0053,-65.779088 0.05163,-74.325511 0.406684,-75.012112 0.303393,-0.586698 0.318395,-0.758158 0.06177,-0.706004 -0.253073,0.05143 -0.358124,-0.584653 -0.414666,-2.510806 l -0.07573,-2.579687 h 6.725597 c 6.725597,0 6.725597,0 6.912304,0.595312 0.186706,0.595313 0.186706,0.595313 0.424004,-0.06614 0.188316,-0.524922 0.210224,-0.443001 0.106137,0.396875 -0.442958,3.574213 -0.468453,4.18042 -0.168003,3.994731 0.168642,-0.104226 0.306623,-0.793741 0.306623,-1.532254 0,-0.738513 0.137908,-1.803048 0.306463,-2.365635 l 0.306464,-1.022884 h 54.4428844 c 51.6278816,0 54.4491406,0.02394 54.5638846,0.463021 0.115238,0.440972 0.122461,0.440972 0.151692,0 0.02034,-0.306885 0.2497,-0.463021 0.680161,-0.463021 0.532771,0 0.680685,0.166393 0.823196,0.926042 0.09555,0.509322 0.302295,0.926041 0.459434,0.926041 0.157139,0 0.05478,0.168859 -0.227468,0.375243 -0.282246,0.206383 -0.41433,0.474086 -0.29352,0.594896 0.299822,0.299822 0.970139,-0.668868 0.970139,-1.401969 0,-0.3274 -0.119063,-0.668858 -0.264583,-0.758795 -0.67144,-0.414973 -0.118484,-0.661458 1.483891,-0.661458 1.748474,0 1.748474,0 1.57406,0.694923 -0.143331,0.571074 -0.09743,0.665382 0.25754,0.529167 0.237575,-0.09117 0.559732,-0.165757 0.715905,-0.165757 0.156173,0 0.06949,-0.236974 -0.192623,-0.526609 -0.47569,-0.525631 -0.34446,-0.526615 70.701728,-0.530265 61.73924,-0.0032 71.22037,0.04703 71.49553,0.378591 0.33192,0.399935 1.17746,0.268742 0.92288,-0.143191 -0.0859,-0.139066 18.32149,-0.236859 44.58381,-0.236859 h 44.73019 v 77.522914 77.52292 H 109.47139 -71.769792 Z m 109.847811,58.56949 c -0.189855,-0.18986 -0.31309,-0.20548 -0.31309,-0.0397 0,0.35316 0.312899,0.66606 0.489479,0.48948 0.07519,-0.0752 -0.0042,-0.27759 -0.176389,-0.44979 z m -10.624177,-0.46151 c -0.214067,-0.13538 -0.307553,-0.32781 -0.207747,-0.42761 0.09981,-0.0998 0.06617,-0.39689 -0.07474,-0.66019 -0.197228,-0.36853 -0.128886,-0.5679 0.296888,-0.86613 0.519075,-0.36357 0.523201,-0.39593 0.06708,-0.52606 -0.267309,-0.0763 -0.783673,-0.11734 -1.147475,-0.0913 -1.460689,0.10465 -0.584746,2.83247 0.906016,2.82147 0.441711,-0.003 0.473021,-0.0522 0.15998,-0.2502 z m 2.770462,-0.80408 c 0.08994,-0.14553 -0.02912,-0.26459 -0.264583,-0.26459 -0.235458,0 -0.35452,0.11906 -0.264583,0.26459 0.08994,0.14552 0.208999,0.26458 0.264583,0.26458 0.05558,0 0.174646,-0.11906 0.264583,-0.26458 z m 1.984375,-0.37524 c 0,-0.0609 -0.07344,-0.30202 -0.16319,-0.53592 -0.126311,-0.32916 -0.2459,-0.35663 -0.529167,-0.12153 -0.522905,0.43397 -0.451916,0.7681 0.16319,0.7681 0.291042,0 0.529167,-0.0498 0.529167,-0.11065 z m 1.702657,-1.50457 c -0.08051,-0.13027 -0.308032,-0.23686 -0.505598,-0.23686 -0.197566,0 -0.419265,-0.14883 -0.492664,-0.33073 -0.0734,-0.1819 -0.142852,-0.0728 -0.15434,0.24253 -0.01149,0.3153 0.12794,0.62518 0.309841,0.68863 0.46266,0.16139 1.018897,-0.0786 0.842761,-0.36357 z m 0.149426,-1.04623 c 0,-0.13693 -0.09922,-0.24896 -0.220486,-0.24896 -0.121267,0 -0.220486,0.17335 -0.220486,0.38523 0,0.21188 0.09922,0.32392 0.220486,0.24897 0.121268,-0.075 0.220486,-0.2483 0.220486,-0.38524 z m -5.917114,-1.10886 c 0.0026,-0.76398 -0.04646,-1.15094 -0.109076,-0.8599 -0.06262,0.29105 -0.298611,0.73753 -0.524423,0.99219 -0.372281,0.41984 -0.369733,0.46302 0.02731,0.46302 0.240835,0 0.437882,0.1786 0.437882,0.39688 0,0.21828 0.03679,0.39687 0.08176,0.39687 0.04497,0 0.08391,-0.62508 0.08654,-1.38906 z m 8.827531,-0.31511 c 0,-0.27927 -0.507765,-0.39659 -0.658791,-0.15223 -0.0914,0.1479 0.01943,0.2689 0.246301,0.2689 0.22687,0 0.41249,-0.0525 0.41249,-0.11667 z m -6.150571,-2.39539 c 0.850557,-0.80543 1.110612,-1.18962 0.805906,-1.19063 -0.247431,-8.1e-4 -0.583842,0.20688 -0.747582,0.46155 -0.283531,0.44097 -0.290852,0.44097 -0.153742,0 0.223335,-0.7183 -0.63823,-0.5668 -1.599764,0.2813 -0.648806,0.57226 -0.778239,0.83603 -0.582165,1.18639 0.397922,0.71105 0.92801,0.53913 2.277347,-0.73861 z m 8.985973,0.41719 c 0.195603,-0.31321 0.507162,-0.4576 0.814154,-0.37732 0.322591,0.0844 0.642521,-0.086 0.910673,-0.48482 0.227356,-0.33817 0.8408,-1.07486 1.363208,-1.63709 0.522407,-0.56222 0.884601,-1.12777 0.804874,-1.25677 -0.07973,-0.129 -0.01887,-0.23454 0.135241,-0.23454 0.154109,0 0.280198,-0.15005 0.280198,-0.33344 0,-0.34092 0.816628,-1.2883 1.819971,-2.11137 0.308703,-0.25324 0.561279,-0.74652 0.561279,-1.09617 0,-0.34966 0.184777,-0.70665 0.410617,-0.79331 0.265698,-0.10196 0.344649,-0.0508 0.223703,0.14486 -0.110376,0.17859 -0.07017,0.23028 0.09819,0.12623 0.156809,-0.0969 0.359726,-0.51594 0.450925,-0.93117 0.0912,-0.41523 0.398016,-1.0042 0.681815,-1.30882 0.283798,-0.30462 0.515997,-0.78722 0.515997,-1.07245 0,-0.80205 0.283723,-1.35562 0.694806,-1.35562 0.263425,0 0.326066,-0.18942 0.212403,-0.64229 -0.08866,-0.35326 -0.03502,-0.85927 0.119206,-1.12448 0.202144,-0.3476 0.282656,-0.3751 0.288456,-0.0985 0.0064,0.30554 0.07493,0.31677 0.336563,0.0551 0.261634,-0.26163 0.248167,-0.38522 -0.06615,-0.60704 -0.326331,-0.2303 -0.312035,-0.25179 0.08257,-0.12413 0.700431,0.22662 1.528607,-1.72487 1.334636,-3.14489 -0.118726,-0.86917 -0.0322,-1.18204 0.47931,-1.73317 0.511003,-0.55058 0.579803,-0.79874 0.379411,-1.36855 -0.18409,-0.52346 -0.132736,-0.86702 0.207128,-1.38572 0.408,-0.62269 0.491715,-0.64989 0.861645,-0.27996 0.36993,0.36993 0.458817,0.34735 0.914875,-0.23244 0.277825,-0.35319 0.505137,-0.83558 0.505137,-1.07196 0,-0.74452 0.751434,-2.26487 1.119416,-2.26487 0.193967,0 0.377303,-0.29766 0.407412,-0.66146 0.03011,-0.3638 -0.03322,-0.66155 -0.14073,-0.66167 -0.10751,-1.2e-4 -0.230838,-0.54825 -0.274061,-1.21808 -0.07777,-1.20517 0.396441,-2.36272 1.153511,-2.81573 0.220482,-0.13193 0.281165,-0.56289 0.182664,-1.29727 -0.08493,-0.63318 -0.04523,-1.0365 0.09358,-0.95071 0.403017,0.24907 1.256069,-2.02114 1.93173,-5.14088 0.115762,-0.53451 0.403586,-1.16495 0.639608,-1.40097 0.236022,-0.23602 0.555405,-0.92979 0.70974,-1.5417 0.154335,-0.61192 0.395606,-1.38607 0.536158,-1.72034 0.140552,-0.33427 0.25555,-1.01931 0.25555,-1.52231 0,-0.503 0.238125,-1.35884 0.529166,-1.90186 0.291042,-0.54302 0.529167,-1.30192 0.529167,-1.68644 0,-1.16732 0.504911,-1.35539 3.095053,-1.15288 l 2.328905,0.18209 0.01564,-1.66567 c 0.0098,-1.0408 0.133842,-1.70506 0.33073,-1.77069 0.428389,-0.1428 0.398411,-0.98532 -0.04825,-1.35602 -0.486154,-0.40347 -1.164029,-0.11182 -1.37581,0.59193 -0.502565,1.67002 -0.967224,2.29066 -1.714966,2.29066 -0.411393,0 -0.826366,-0.12682 -0.922162,-0.28182 -0.116039,-0.18776 -0.322026,-0.14802 -0.617149,0.11907 -0.412741,0.37352 -0.428071,0.21668 -0.224612,-2.29787 0.120101,-1.48432 0.167639,-3.41313 0.105641,-4.28626 -0.062,-0.87312 0.02113,-2.77812 0.184733,-4.23333 l 0.297456,-2.64583 2.246345,-0.1323 c 1.87612,-0.11048 2.261033,-0.20942 2.335466,-0.6003 0.0618,-0.32454 -0.190705,-0.58493 -0.823681,-0.84941 -1.004973,-0.4199 -1.474214,-1.37104 -0.753155,-1.52662 0.753243,-0.16252 1.306099,0.0949 1.472709,0.68569 0.150485,0.53363 0.179321,0.53976 0.442236,0.094 0.453231,-0.76847 -0.160506,-1.25456 -1.485956,-1.1769 -0.62218,0.0365 -1.076777,0.15557 -1.010215,0.26471 0.06656,0.10914 -0.117102,0.19844 -0.408144,0.19844 -0.291042,0 -0.602751,0.11906 -0.692688,0.26458 -0.08994,0.14552 -0.424386,0.25077 -0.743219,0.23389 -0.447621,-0.0237 -0.474204,-0.0583 -0.116677,-0.15169 0.254662,-0.0666 0.463021,-0.24407 0.463021,-0.39449 0,-0.15493 -0.200726,-0.19287 -0.463021,-0.0875 -0.254661,0.10229 -0.601093,0.2427 -0.769847,0.31203 -0.168754,0.0693 -0.368612,-0.0909 -0.444128,-0.35612 -0.511787,-1.79721 -0.66012,-16.11024 -0.172017,-16.59835 0.143832,-0.14383 0.261513,-0.59115 0.261513,-0.99404 0,-0.56569 0.09734,-0.69517 0.427408,-0.56852 0.348019,0.13355 0.39164,0.046 0.234845,-0.47132 -0.462007,-1.52434 -1.456003,-1.34445 -1.456003,0.2635 0,0.57626 -0.153119,1.20507 -0.340265,1.39737 -0.187145,0.19229 -0.369423,0.76011 -0.405061,1.2618 -0.07727,1.08771 -0.253926,1.32808 -0.587925,0.79995 -0.13538,-0.21406 -0.247969,-0.2842 -0.250197,-0.15586 -0.0022,0.12835 0.240573,0.62917 0.539559,1.11294 0.45946,0.74342 0.515696,1.12632 0.363282,2.47348 -0.09918,0.87664 -0.27353,1.5363 -0.387443,1.46589 -0.329365,-0.20356 -0.992648,0.13999 -1.171837,0.60694 -0.130257,0.33945 -0.0433,0.32157 0.421282,-0.0866 0.619234,-0.54404 0.61899,-0.54684 0.07051,0.80858 -0.08833,0.21829 -0.04268,0.39688 0.101433,0.39688 0.144117,0 0.344251,0.26789 0.444741,0.59531 0.231259,0.7535 0.676802,4.33775 0.797566,6.41615 0.05073,0.87312 0.132701,1.76609 0.182154,1.98437 0.06118,0.27004 -0.121492,0.39848 -0.571545,0.40188 -0.363802,0.003 -0.631693,0.0921 -0.595313,0.19844 0.03638,0.10639 0.06615,0.3125 0.06615,0.45802 0,0.14552 0.235068,0.26458 0.522372,0.26458 1.233163,0 1.530391,2.50523 0.626132,5.27743 -0.216317,0.66317 -0.31784,1.58661 -0.232707,2.11667 0.08306,0.51715 0.205636,1.81828 0.272392,2.89141 0.103127,1.65779 0.04282,2.05099 -0.401116,2.61537 -0.58935,0.74923 -0.71718,2.60007 -0.19176,2.77648 0.257916,0.0866 0.262542,0.25165 0.02101,0.74966 -0.170343,0.35123 -0.379636,1.23392 -0.465096,1.96152 -0.08546,0.72761 -0.392573,1.64552 -0.682473,2.03981 -0.59327,0.8069 -0.655074,1.32772 -0.24785,2.08862 0.351262,0.65634 0.06422,1.647 -0.423033,1.46002 -0.231563,-0.0889 -0.476866,0.18325 -0.685614,0.76053 -0.178774,0.49439 -0.42248,0.83867 -0.541569,0.76507 -0.119089,-0.0736 -0.228393,0.1411 -0.242899,0.47711 -0.02602,0.6027 -0.02922,0.60202 -0.238209,-0.0505 -0.234218,-0.73135 -0.201539,-0.86065 -0.401197,1.5875 -0.02967,0.3638 -0.259196,1.12805 -0.510058,1.69834 -0.640252,1.45548 -1.99748,5.49333 -2.007523,5.97252 -0.0046,0.21941 -0.316642,0.74972 -0.693431,1.17846 -0.54629,0.62161 -0.873337,0.76685 -1.614438,0.71694 -0.511153,-0.0344 -1.562293,0.19974 -2.335865,0.52037 -1.564084,0.64827 -1.880304,1.33284 -1.237741,2.67951 0.390747,0.81893 1.375258,0.98842 1.921086,0.33073 0.456909,-0.55054 0.986853,-0.49565 1.325602,0.13731 0.219372,0.4099 0.181968,0.73309 -0.160762,1.38906 -0.821622,1.57257 -0.900256,1.77121 -0.900256,2.2741 0,0.2752 -0.178594,0.64858 -0.396875,0.82974 -0.218282,0.18116 -0.396875,0.55292 -0.396875,0.82615 0,0.27322 -0.104618,0.49677 -0.232484,0.49677 -0.127867,0 -0.390671,0.38189 -0.584011,0.84866 -0.193339,0.46676 -0.751312,1.44274 -1.23994,2.16883 -0.503033,0.74751 -0.834263,1.52725 -0.763581,1.79754 0.06866,0.26255 0.01687,0.41064 -0.115076,0.32909 -0.131949,-0.0815 -0.239908,-0.0202 -0.239908,0.13643 0,0.15659 -0.521079,1.14588 -1.157953,2.19843 -1.027878,1.69876 -1.684144,3.38999 -1.538283,3.96425 0.02772,0.10914 -0.138872,0.19844 -0.370208,0.19844 -0.632586,0 -1.391386,1.08615 -1.261026,1.80504 0.07714,0.42541 0.0051,0.59063 -0.224143,0.51421 -0.381002,-0.127 -1.375096,0.99955 -1.172001,1.32816 0.121306,0.19628 -0.322819,0.68285 -3.068537,3.36178 -0.953109,0.92992 -0.972474,0.98501 -0.564883,1.60708 0.509065,0.77693 0.667611,0.79701 1.079936,0.13677 z m 2.889751,-3.0645 c 0.08376,-0.21828 0.254882,-0.39688 0.380267,-0.39688 0.125385,0 0.159439,0.1786 0.07568,0.39688 -0.08376,0.21828 -0.254883,0.39687 -0.380267,0.39687 -0.125385,0 -0.15944,-0.17859 -0.07568,-0.39687 z m 11.472763,-22.71554 c 0,-0.19703 0.274261,-0.65417 0.609468,-1.01586 0.335208,-0.3617 0.563384,-0.79588 0.507058,-0.96486 -0.06504,-0.19511 0.07462,-0.2459 0.38272,-0.13916 0.427005,0.14793 0.421729,0.11726 -0.04404,-0.25599 -0.445048,-0.35665 -0.460062,-0.42539 -0.09445,-0.43247 0.495518,-0.01 0.933188,0.85853 0.504822,1.00132 -0.154756,0.0516 -0.214074,0.20269 -0.131819,0.33578 0.08226,0.13309 0.03293,0.24198 -0.10962,0.24198 -0.142547,0 -0.337628,0.35719 -0.433513,0.79375 -0.119899,0.5459 -0.333006,0.79375 -0.682481,0.79375 -0.279479,0 -0.508144,-0.1612 -0.508145,-0.35824 z m 11.244792,-41.44592 c -0.08994,-0.14552 -0.03743,-0.26459 0.116676,-0.26459 0.154109,0 0.280199,0.11907 0.280199,0.26459 0,0.14552 -0.05251,0.26458 -0.116677,0.26458 -0.06417,0 -0.190262,-0.11906 -0.280198,-0.26458 z m -40.227965,65.63495 c 0.19567,-0.3166 -0.302055,-0.6303 -0.654475,-0.41249 -0.295899,0.18287 -0.101644,0.65879 0.268899,0.65879 0.128344,0 0.301854,-0.11084 0.385576,-0.2463 z m 143.547754,-4.38391 c 0,-0.24449 -0.24822,-0.39687 -0.64646,-0.39687 -0.35662,0 -0.8208,-0.24892 -1.03532,-0.55519 -0.29124,-0.4158 -0.50067,-0.49263 -0.83417,-0.30599 -0.37113,0.20769 -0.23173,0.36398 0.83689,0.93829 1.51251,0.81287 1.67906,0.84459 1.67906,0.31976 z m 1.5875,-2.63397 c 0,-0.20415 -0.78747,-0.36837 -0.89924,-0.18752 -0.0673,0.10895 0.10744,0.21542 0.3884,0.23658 0.28096,0.0212 0.51084,-9.1e-4 0.51084,-0.0491 z m 27.25208,-5.01064 c 0,-0.0572 -0.17859,-0.17252 -0.39687,-0.25628 -0.21828,-0.0838 -0.39688,-0.037 -0.39688,0.10399 0,0.14095 0.1786,0.25627 0.39688,0.25627 0.21828,0 0.39687,-0.0468 0.39687,-0.10398 z m 1.95762,-1.52681 c -0.23591,-0.38171 -0.63527,0.0355 -0.62629,0.65422 0.008,0.56064 0.0209,0.5632 0.3884,0.0777 0.20899,-0.2761 0.31604,-0.60546 0.23789,-0.73192 z m 0.9528,0.30788 c 0,-0.14552 -0.0525,-0.26459 -0.11668,-0.26459 -0.0642,0 -0.19026,0.11907 -0.2802,0.26459 -0.0899,0.14552 -0.0374,0.26458 0.11668,0.26458 0.15411,0 0.2802,-0.11906 0.2802,-0.26458 z m -142.877335,-6.0925 c -0.18228,-0.55232 -0.261278,-1.28367 -0.17555,-1.62524 0.08573,-0.34157 0.0532,-0.78716 -0.07229,-0.99021 -0.150062,-0.2428 -0.291424,0.22155 -0.412975,1.35658 -0.157009,1.46613 -0.111387,1.8115 0.30326,2.29577 0.627631,0.73302 0.788103,0.26766 0.357558,-1.0369 z m -3.834121,-1.58042 c 0.08994,-0.14552 0.03743,-0.26458 -0.116677,-0.26458 -0.154109,0 -0.280198,0.11906 -0.280198,0.26458 0,0.14552 0.05251,0.26458 0.116677,0.26458 0.06417,0 0.190261,-0.11906 0.280198,-0.26458 z m -29.358396,-1.43965 c 0.23763,-0.50077 0.361071,-1.13414 0.274314,-1.40749 -0.141427,-0.44559 -1.669216,-1.38619 -2.25156,-1.38619 -0.126032,0 -0.628008,-0.39102 -1.115503,-0.86892 -0.487494,-0.47791 -1.194867,-1.10525 -1.571939,-1.39409 -0.99266,-0.7604 -1.299313,-1.48927 -1.294738,-3.07741 0.0043,-1.50521 0.288617,-2.24531 0.75236,-1.9587 0.278955,0.1724 0.67302,-0.80787 0.529383,-1.3169 -0.136436,-0.48351 1.058043,-2.38704 1.720288,-2.74146 0.370034,-0.19804 0.648715,-0.47846 0.619291,-0.62317 -0.02942,-0.1447 0.482282,-0.66387 1.137126,-1.15371 0.654844,-0.48983 1.633668,-1.30687 2.175165,-1.81562 0.541497,-0.50876 1.107044,-0.92502 1.256771,-0.92502 0.149727,0 0.242465,-0.13331 0.206085,-0.29624 -0.03638,-0.16293 0.335938,-0.43651 0.827375,-0.60797 0.491437,-0.17145 1.098417,-0.56477 1.348845,-0.87403 0.606039,-0.74843 2.340054,-1.55356 3.512321,-1.63083 0.254662,-0.0168 0.463021,-0.21012 0.463021,-0.42963 0,-0.3131 0.09979,-0.33724 0.463021,-0.11201 0.338103,0.20966 0.677166,0.19903 1.256771,-0.0394 0.676395,-0.27824 0.717144,-0.34435 0.275611,-0.44718 -0.284976,-0.0664 -0.795419,-0.30234 -1.134318,-0.5244 -0.564091,-0.3696 -0.665675,-0.35998 -1.201654,0.1138 -0.32201,0.28464 -0.764066,0.49796 -0.982348,0.47405 -0.218281,-0.0239 -0.545703,-0.0616 -0.727604,-0.0838 -0.181901,-0.0222 -0.330729,-0.21889 -0.330729,-0.43717 0,-0.57631 -0.491578,-0.48836 -1.478726,0.26458 -0.476969,0.3638 -1.111017,0.66146 -1.408996,0.66146 -0.372482,0 -0.596124,0.22736 -0.715693,0.7276 -0.235024,0.98328 -0.35607,1.16144 -0.661048,0.97295 -0.164088,-0.10141 -0.149026,-0.29285 0.04106,-0.52189 0.35106,-0.423 0.124121,-0.91408 -0.42242,-0.91408 -0.209693,0 -0.38126,0.2311 -0.38126,0.51355 0,0.28246 -0.119062,0.58714 -0.264583,0.67708 -0.41629,0.25728 -0.318115,1.00319 0.110395,0.83876 0.206238,-0.0791 0.445709,0.0404 0.532157,0.26571 0.157339,0.41002 -0.34714,0.38596 -1.544899,-0.0737 -0.315127,-0.12093 -0.464444,0.0485 -0.588199,0.66723 -0.124916,0.62458 -0.276599,0.79414 -0.614475,0.6869 -0.307425,-0.0976 -1.129298,0.50703 -2.611382,1.92103 -1.18952,1.13488 -2.162764,2.19331 -2.162764,2.35206 0,0.15874 -0.175281,0.4341 -0.389514,0.6119 -0.214233,0.1778 -0.700077,0.99605 -1.079653,1.81833 -0.93948,2.03522 -1.007598,5.13617 -0.153201,6.97421 0.695952,1.4972 0.799663,1.56891 2.790025,1.92918 1.929012,0.34918 2.342467,0.84589 1.675476,2.01288 -0.45241,0.79155 -0.420205,1.29442 0.0829,1.29442 0.136932,0 0.234869,-0.0893 0.217636,-0.19843 -0.08517,-0.53941 0.09571,-0.49023 0.80473,0.21879 1.008504,1.0085 1.486904,0.97596 2.01508,-0.13709 z m -5.14884,-14.32511 c 0.0127,-0.30822 0.07539,-0.37092 0.159853,-0.15985 0.07643,0.191 0.06703,0.4192 -0.02089,0.50712 -0.08792,0.0879 -0.150453,-0.0683 -0.138965,-0.34727 z m 9.647703,-7.23571 c -0.08372,-0.13546 -0.03122,-0.32108 0.116676,-0.41249 0.147895,-0.0914 0.2689,0.0194 0.2689,0.2463 0,0.46475 -0.158765,0.53318 -0.385576,0.16619 z m 0.481256,19.95776 c 0.09919,-0.25848 -0.0063,-0.39561 -0.302422,-0.39326 -0.812268,0.006 -1.642987,0.31531 -1.494459,0.55564 0.241552,0.39083 1.632838,0.26511 1.796881,-0.16238 z m 177.832573,-0.62139 c -0.19987,-0.19987 -0.65743,0.27866 -0.65743,0.68758 0,0.36114 0.0614,0.34783 0.37525,-0.0814 0.20638,-0.28224 0.33336,-0.55505 0.28218,-0.60623 z m 13.85394,-0.19406 c -0.24707,-0.24699 -0.47771,-0.27628 -0.75303,-0.0957 -0.33654,0.22081 -0.29632,0.3447 0.26458,0.81499 0.60252,0.50518 0.66962,0.5137 0.75303,0.0956 0.0504,-0.25242 -0.0687,-0.61916 -0.26458,-0.81498 z m -53.93428,0.15399 c 0,-0.14552 -0.18562,-0.26458 -0.41249,-0.26458 -0.22687,0 -0.33891,0.11906 -0.24897,0.26458 0.0899,0.14553 0.27556,0.26459 0.41249,0.26459 0.13693,0 0.24897,-0.11906 0.24897,-0.26459 z m 25.2168,-0.51112 c -0.0769,-0.29387 -0.28563,-0.45222 -0.49188,-0.37308 -0.27994,0.10743 -0.2916,0.2444 -0.0533,0.62604 0.37625,0.60247 0.72635,0.44002 0.54514,-0.25296 z m 15.86261,-1.23081 c 0.0685,-0.35857 0.0266,-0.71253 -0.0932,-0.78657 -0.26083,-0.16121 -1.03412,1.25576 -1.03412,1.89491 0,0.42403 0.03,0.42387 0.50135,-0.003 0.27574,-0.24954 0.55743,-0.74709 0.62598,-1.10565 z m -141.028232,0.83708 c -0.08277,-0.13387 0.04764,-0.16738 0.289796,-0.0744 0.242153,0.0929 0.440278,0.059 0.440278,-0.0753 0,-0.13436 0.410009,-0.32121 0.911132,-0.41522 0.662918,-0.12437 0.933213,-0.32585 0.992187,-0.7396 0.05095,-0.35743 0.303643,-0.60026 0.680293,-0.65372 0.32958,-0.0468 0.549542,-0.16585 0.488804,-0.26459 -0.06074,-0.0987 0.32445,-0.2092 0.855972,-0.24547 1.234378,-0.0842 2.018922,-0.92314 1.598319,-1.70904 -0.245126,-0.45802 -0.485179,-0.51875 -1.664164,-0.42098 -0.757744,0.0628 -1.907038,0.35993 -2.553984,0.66021 -0.646947,0.30028 -1.384627,0.6161 -1.639288,0.70183 -0.277981,0.0936 -0.463021,0.42353 -0.463021,0.82563 0,0.58776 -0.112242,0.66976 -0.916732,0.66976 -0.991428,0 -1.596476,-0.67118 -1.300456,-1.44259 0.129957,-0.33866 -0.0029,-0.41002 -0.668928,-0.35927 -0.551806,0.042 -0.787235,0.17762 -0.700583,0.40343 0.07178,0.18705 0.01518,0.3401 -0.125771,0.3401 -0.140954,0 -0.25628,-0.12171 -0.25628,-0.27046 0,-0.16344 -0.666436,-0.24196 -1.684213,-0.19844 -1.472254,0.063 -1.622095,0.11553 -1.190625,0.41775 0.271474,0.19016 0.493588,0.61437 0.493588,0.94269 0,0.58231 1.11367,1.85385 1.797247,2.05201 0.738034,0.21395 4.760186,0.0883 4.616429,-0.14424 z m -6.149092,-2.64762 c 0,-0.24544 0.226217,-0.41628 0.551215,-0.41628 0.644801,0 0.553659,0.61828 -0.11012,0.74701 -0.261081,0.0506 -0.441095,-0.0843 -0.441095,-0.33073 z M 61.39,171.0922 c -0.179131,-0.0725 -0.536319,-0.0769 -0.79375,-0.01 -0.257431,0.0671 -0.110868,0.12638 0.325694,0.13177 0.436562,0.005 0.647188,-0.0495 0.468056,-0.12197 z m -1.129514,-0.90217 c 0,-0.75373 -0.499416,-1.61973 -0.819873,-1.42167 -0.17148,0.10598 -0.159154,0.28977 0.03513,0.52388 0.16461,0.19834 0.2219,0.60446 0.12731,0.90248 -0.123391,0.38878 -0.05481,0.54187 0.242724,0.54187 0.242715,0 0.414705,-0.22668 0.414705,-0.54656 z m -14.684375,0.0174 c 0.08994,-0.14552 0.04446,-0.26458 -0.101062,-0.26458 -0.145521,0 -0.338168,0.11906 -0.428105,0.26458 -0.08994,0.14552 -0.04446,0.26458 0.101062,0.26458 0.145521,0 0.338168,-0.11906 0.428105,-0.26458 z m 27.252576,-0.79455 c 0.09403,-0.15214 -0.06575,-0.23031 -0.374442,-0.1832 -0.759666,0.11593 -1.017152,0.44858 -0.347222,0.44858 0.306707,0 0.631456,-0.11942 0.721664,-0.26538 z m 4.547477,-2.94705 c 1.377667,-1.186 1.692968,-1.56301 1.529018,-1.82829 -0.05819,-0.0941 0.187789,-0.32832 0.546625,-0.52036 0.358835,-0.19204 0.652428,-0.57832 0.652428,-0.85839 0,-0.28672 0.231228,-0.5697 0.529167,-0.64761 0.675469,-0.17664 0.680178,-0.98399 0.0096,-1.65452 -0.297413,-0.29741 -0.408682,-0.58801 -0.260267,-0.67974 0.142587,-0.0881 0.198409,-0.25866 0.12405,-0.37898 -0.131162,-0.21222 -1.892282,0.0693 -2.169847,0.34688 -0.343124,0.34312 0.307905,0.70493 1.319841,0.7335 1.047391,0.0296 1.06486,0.0425 0.315114,0.23328 -0.545478,0.1388 -0.628235,0.21428 -0.264583,0.24132 0.497496,0.037 0.500626,0.056 0.05229,0.31679 -0.342129,0.19904 -0.5851,0.18762 -0.859896,-0.0404 -0.210662,-0.17484 -0.383022,-0.20378 -0.383022,-0.0643 0,0.29914 -1.807891,2.71061 -2.38125,3.17625 -0.545745,0.44322 -0.734736,0.41649 -0.875949,-0.12387 -0.06655,-0.25466 -0.134811,0.28112 -0.151692,1.19062 -0.02729,1.47052 0.02613,1.65365 0.482383,1.65365 0.282191,0 1.085863,-0.4931 1.785937,-1.09577 z m -15.002086,-0.49749 c -0.226457,-0.42314 -0.389588,-0.50117 -0.602529,-0.28823 -0.212941,0.21294 -0.152692,0.39386 0.222533,0.66823 0.653072,0.47754 0.77414,0.35647 0.379996,-0.38 z m 20.800931,-1.03618 c 0.09163,-0.57305 0.390699,-1.28245 0.664585,-1.57643 0.547215,-0.58737 0.65044,-1.08581 0.224865,-1.08581 -0.15021,0 -0.369172,-0.25968 -0.486583,-0.57707 -0.202481,-0.54736 -0.228174,-0.53491 -0.498964,0.24188 -0.185025,0.53076 -0.614675,0.97517 -1.220924,1.26285 -0.670477,0.31816 -0.859528,0.53068 -0.667446,0.7503 0.147393,0.16853 0.497303,0.69337 0.777576,1.16631 0.672661,1.13507 1.004276,1.08505 1.206891,-0.18203 z m -19.483255,-0.21484 c -0.0108,-0.25781 -1.314602,-1.20916 -1.314602,-0.95923 0,0.27631 0.836955,1.15766 1.099341,1.15766 0.122967,0 0.219834,-0.0893 0.215261,-0.19843 z m 24.312518,-1.12087 c 0.244461,-0.002 0.309619,-0.202 0.203725,-0.62392 -0.110802,-0.44147 0.02008,-0.78543 0.453967,-1.19304 0.335309,-0.31501 0.690117,-0.49228 0.788462,-0.39393 0.09835,0.0983 0.178809,-0.0792 0.178809,-0.39446 0,-0.31529 -0.119063,-0.57326 -0.264583,-0.57326 -0.145521,0 -0.264584,0.0924 -0.264584,0.20543 0,0.11298 -0.46171,0.1614 -1.026021,0.10758 -0.910395,-0.0868 -1.104206,0.005 -1.719792,0.81173 -0.772309,1.01255 -0.900853,1.78567 -0.296895,1.78567 0.218281,0 0.396875,0.13295 0.396875,0.29545 0,0.17726 0.238124,0.23162 0.595312,0.1359 0.327422,-0.0877 0.757048,-0.16116 0.954725,-0.16315 z m 36.213718,0.10112 c -0.0879,-0.0879 -0.31612,-0.0973 -0.50712,-0.0209 -0.21106,0.0845 -0.14837,0.14716 0.15986,0.15985 0.27891,0.0115 0.43518,-0.051 0.34726,-0.13896 z m -0.45751,-0.6339 c 0,-0.14552 -0.11906,-0.26458 -0.26458,-0.26458 -0.14552,0 -0.26458,0.11906 -0.26458,0.26458 0,0.14552 0.11906,0.26458 0.26458,0.26458 0.14552,0 0.26458,-0.11906 0.26458,-0.26458 z m -17.99571,-2.18281 c -0.006,-0.47861 -0.46765,-1.13785 -0.66136,-0.94415 -0.0907,0.0908 -0.009,0.41473 0.18155,0.71995 0.40075,0.64169 0.48541,0.68125 0.47981,0.2242 z m 20.90613,0.0661 c 0,-0.14552 0.11496,-0.26458 0.25546,-0.26458 0.48678,0 1.79987,-1.5126 2.1474,-2.47368 0.22694,-0.62757 0.4395,-0.87521 0.60727,-0.70744 0.16776,0.16776 0.38072,0.15636 0.60837,-0.0326 0.45023,-0.37366 0.46702,-1.11683 0.0195,-0.86405 -0.1819,0.10275 -0.0593,-0.0767 0.27232,-0.39878 0.33168,-0.32208 0.89872,-1.05396 1.26009,-1.62641 0.36137,-0.57245 0.75973,-1.04082 0.88523,-1.04082 0.12551,0 0.22819,-0.28194 0.22819,-0.62654 0,-0.5888 -0.0535,-0.61011 -0.88882,-0.35376 -0.52154,0.16007 -0.95854,0.50097 -1.05754,0.82498 -0.0928,0.30371 -0.5709,1.04848 -1.06247,1.65506 -0.49157,0.60657 -0.89377,1.22492 -0.89377,1.3741 0,0.14918 -0.35954,0.48363 -0.79898,0.74321 -0.43944,0.25959 -0.74083,0.62351 -0.66976,0.80871 0.2103,0.54805 -0.1381,1.13049 -0.67623,1.13049 -0.29925,0 -0.50232,0.18639 -0.50448,0.46302 -0.002,0.25466 -0.0754,0.73091 -0.16315,1.05834 -0.0957,0.35718 -0.0414,0.59531 0.13591,0.59531 0.16249,0 0.29544,-0.11906 0.29544,-0.26459 z m -17.97354,-0.42473 c 0.79039,-0.2336 1.54442,-0.4899 1.6756,-0.56955 0.37854,-0.22984 -0.66774,-0.85864 -1.41357,-0.84954 -0.62696,0.008 -3.11828,1.30531 -2.52911,1.31735 0.14552,0.003 0.086,0.12083 -0.1323,0.26189 -0.64976,0.41991 0.75368,0.32624 2.39938,-0.16015 z m -30.814522,-1.35569 c -0.268953,-0.26895 -0.490868,0.13597 -0.270197,0.49302 0.166696,0.26972 0.229017,0.26993 0.318638,0.001 0.06128,-0.18383 0.03948,-0.40617 -0.04844,-0.49409 z m 77.153992,0.10356 c -0.048,-0.26949 0.0565,-0.3802 0.27845,-0.29504 0.49253,0.189 2.31187,-1.42122 2.31187,-2.04613 0,-0.31937 0.11475,-0.44019 0.30588,-0.32207 0.22006,0.13601 0.26157,-0.084 0.14796,-0.78406 -0.10275,-0.6332 -0.0632,-0.91457 0.11325,-0.80552 0.16356,0.10108 0.23608,-0.0803 0.18276,-0.4571 -0.0664,-0.46926 -0.25296,-0.62258 -0.74985,-0.61625 -0.3638,0.005 -0.72099,-0.12937 -0.79375,-0.29777 -0.0859,-0.19876 -0.33608,-0.22979 -0.71312,-0.0885 -0.51349,0.19249 -0.55213,0.31779 -0.33329,1.08084 0.31481,1.09768 -0.0511,1.54939 -0.85064,1.05007 -0.47992,-0.29972 -0.53926,-0.29386 -0.41095,0.0405 0.0825,0.21496 0.0555,0.49464 -0.0601,0.62151 -0.11554,0.12687 -0.28569,0.73329 -0.37811,1.34759 -0.13969,0.92844 -0.10075,1.09109 0.23075,0.96388 0.25699,-0.0986 0.39879,0.004 0.39879,0.28777 0,0.24244 -0.11906,0.36721 -0.26458,0.27727 -0.29752,-0.18387 -0.36381,0.20946 -0.0827,0.49058 0.30626,0.30626 0.74872,0.009 0.66736,-0.44765 z m 1.84819,-2.17404 c -0.28571,-0.32373 -0.2743,-0.46213 0.0661,-0.80258 0.37214,-0.37214 0.4114,-0.33385 0.4114,0.40125 0,0.92524 -0.009,0.93256 -0.47755,0.40133 z m -41.45891,1.99882 c -0.29718,-0.32837 -0.35701,-0.52917 -0.15768,-0.52917 0.18237,0 0.23643,-0.13716 0.12506,-0.31736 -0.10788,-0.17456 -0.2087,-0.60416 -0.22405,-0.95468 -0.0258,-0.59 -0.74222,-1.37379 -1.25566,-1.37379 -0.24937,0 -0.8081,1.21666 -0.88091,1.91823 -0.0264,0.25466 0.0547,0.46302 0.18041,0.46302 0.12565,0 0.22845,0.11906 0.22845,0.26458 0,0.14553 -0.44648,0.27707 -0.99218,0.29233 l -0.99219,0.0277 1.05833,0.3488 c 0.58209,0.19184 1.5828,0.35795 2.22382,0.36913 1.14911,0.02 1.15876,0.0129 0.6866,-0.50883 z m 4.63021,-0.31924 c 0,-0.11546 -0.10933,-0.20993 -0.24295,-0.20993 -0.13362,0 -0.45194,-0.0802 -0.70739,-0.17822 -0.37197,-0.14274 -0.42669,-0.0798 -0.27484,0.31589 0.18075,0.47103 0.1632,0.47022 -0.37544,-0.0173 -0.31079,-0.28125 -0.68211,-0.73007 -0.82517,-0.99738 -0.23128,-0.43216 -0.19881,-0.45321 0.29302,-0.18999 0.5955,0.3187 0.61674,0.29331 0.92158,-1.1019 0.15012,-0.68705 0.11643,-0.71207 -0.90394,-0.67138 -0.58293,0.0232 -1.05987,0.12312 -1.05987,0.22194 0,0.0988 -0.29766,0.25439 -0.66146,0.34569 -0.3638,0.0913 -0.66146,0.2646 -0.66146,0.38508 0,0.37785 0.97092,1.35796 1.35395,1.36677 0.5946,0.0137 1.3696,0.73034 1.21774,1.12608 -0.11559,0.30124 0.0427,0.31726 0.89286,0.0903 0.56835,-0.1517 1.03337,-0.37029 1.03337,-0.48574 z m 26.45833,0.58382 c 0,-0.14552 -0.0525,-0.26458 -0.11668,-0.26458 -0.0642,0 -0.19026,0.11906 -0.2802,0.26458 -0.0899,0.14553 -0.0374,0.26459 0.11668,0.26459 0.15411,0 0.2802,-0.11906 0.2802,-0.26459 z m 1.32292,-0.42518 c 0,-0.0572 -0.1786,-0.10398 -0.39688,-0.10398 -0.21828,0 -0.39687,0.11532 -0.39687,0.25628 0,0.14095 0.17859,0.18774 0.39687,0.10398 0.21828,-0.0838 0.39688,-0.19909 0.39688,-0.25628 z m -0.36085,-0.76392 c 0.0834,-0.21745 0.26024,-0.32828 0.39289,-0.2463 0.13264,0.082 0.17769,0.25176 0.10011,0.3773 -0.0776,0.12553 0.23068,0.0428 0.68503,-0.18387 0.64106,-0.3198 0.74577,-0.46951 0.46748,-0.66836 -0.26862,-0.19194 -0.23748,-0.21698 0.12406,-0.0998 0.63115,0.20463 1.12452,-0.31453 1.37269,-1.44447 0.11005,-0.50107 0.42223,-1.06662 0.69372,-1.25678 0.71359,-0.49982 0.62517,-1.47883 -0.17209,-1.90551 -0.57169,-0.30596 -0.79587,-0.2942 -1.5875,0.0833 -0.79455,0.3789 -0.92179,0.56799 -0.92179,1.3699 0,0.51168 0.11906,0.93032 0.26458,0.93032 0.14552,0 0.26458,0.12428 0.26458,0.27618 0,0.1519 -0.1537,0.2412 -0.34157,0.19844 -0.18786,-0.0428 -0.79875,0.36614 -1.35754,0.90866 -0.55879,0.54252 -1.11946,0.92244 -1.24593,0.84428 -0.12648,-0.0782 -0.22996,-0.0198 -0.22996,0.12977 0,0.14954 -0.17859,0.20336 -0.39687,0.1196 -0.22802,-0.0875 -0.39688,-0.005 -0.39688,0.19351 0,0.26193 -0.0743,0.27152 -0.30628,0.0395 -0.232,-0.23199 -0.22477,-0.40451 0.0298,-0.71124 0.27727,-0.33409 0.2583,-0.4348 -0.10838,-0.57551 -0.24445,-0.0938 -0.57321,-0.0418 -0.73059,0.11557 -0.42142,0.42143 0.47595,1.706 1.06403,1.52313 0.24656,-0.0767 0.62689,-0.0249 0.84517,0.11508 0.59204,0.37963 1.31947,0.31487 1.49124,-0.13276 z m 1.78775,-1.61066 c 0.0883,-0.23018 0.1606,-0.52784 0.1606,-0.66146 0,-0.13362 0.19133,-0.24294 0.42518,-0.24294 0.27901,0 0.36997,0.14388 0.26458,0.41851 -0.0883,0.23019 -0.1606,0.52784 -0.1606,0.66146 0,0.13362 -0.19133,0.24294 -0.42518,0.24294 -0.27901,0 -0.36997,-0.14388 -0.26458,-0.41851 z m -27.62065,0.81539 c 0,-0.18265 0.18423,-0.48498 0.4094,-0.67185 0.29988,-0.24888 0.32593,-0.39136 0.0974,-0.5326 -0.19938,-0.12322 0.0119,-0.3465 0.58524,-0.61859 0.95864,-0.4549 1.6725,-1.34271 1.41485,-1.7596 -0.25497,-0.41255 -2.14231,-0.29624 -2.51689,0.1551 -0.18665,0.2249 -0.49507,0.34916 -0.68538,0.27614 -0.42516,-0.16315 -0.74068,0.27212 -0.36539,0.50406 0.50549,0.31241 1.0888,1.74533 0.92306,2.26753 -0.23223,0.73167 -0.65604,0.36871 -0.65604,-0.56185 0,-0.42797 -0.0893,-0.77435 -0.19844,-0.76972 -0.45544,0.0193 -1.12448,0.74793 -1.12448,1.22461 0,0.28228 -0.14287,0.6561 -0.3175,0.83073 -0.42362,0.42362 -0.16772,0.40058 0.73131,-0.0658 0.85577,-0.44398 1.22293,-0.32201 0.98031,0.32567 -0.14879,0.39718 -0.11394,0.40872 0.27613,0.0914 0.24553,-0.19972 0.44642,-0.51257 0.44642,-0.69521 z m -20.15688,-0.22368 c 0.0328,-0.48682 -0.11437,-1.22047 -0.32701,-1.63033 l -0.38661,-0.7452 -0.17677,0.70429 c -0.0972,0.38736 -0.0974,1.02042 -4.5e-4,1.4068 0.11461,0.45664 0.0552,0.77932 -0.16975,0.92199 -0.23605,0.1497 -0.13194,0.22077 0.32745,0.22354 0.57649,0.003 0.68212,-0.12348 0.73314,-0.88109 z m 9.50574,0.44636 c 0.14973,0.0925 0.2038,-0.11462 0.13028,-0.49918 -0.24624,-1.28816 -1.38539,-1.49479 -1.38539,-0.2513 0,0.86035 0.49394,1.36666 0.83031,0.8511 0.0929,-0.14234 0.28403,-0.18762 0.4248,-0.10062 z m -26.961617,-0.38613 c 0.251002,-0.40191 0.268998,-0.64131 0.06364,-0.84666 -0.810713,-0.81072 0.565816,-1.59179 2.378686,-1.34973 0.959584,0.12813 1.277139,0.0566 1.755715,-0.3955 0.321337,-0.30355 0.641835,-0.55191 0.712217,-0.55191 0.219774,0 4.656659,-2.15656 4.656659,-2.26338 0,-0.0557 -0.20836,-0.0265 -0.463021,0.0649 -0.271397,0.0974 -0.371398,0.0666 -0.241633,-0.0745 0.121764,-0.13233 0.598014,-0.24059 1.058334,-0.24059 0.69575,0 0.827249,-0.0951 0.779471,-0.56398 -0.04383,-0.43005 0.124149,-0.6003 0.707363,-0.71694 0.420661,-0.0841 1.000718,-0.40616 1.289017,-0.71561 0.414994,-0.44544 0.630747,-0.5056 1.035798,-0.28883 0.571355,0.30578 1.655504,0.1176 1.655504,-0.28735 0,-0.14412 0.167021,-0.19794 0.371158,-0.11961 0.204136,0.0783 0.580679,-0.0108 0.836749,-0.19801 0.56297,-0.41166 0.33752,-1.21249 -0.3397,-1.20666 -0.401088,0.003 -0.412184,0.0423 -0.0744,0.26053 0.3365,0.21746 0.32406,0.25709 -0.0818,0.26053 -0.263257,0.002 -0.405902,0.12175 -0.316995,0.2656 0.09256,0.14978 -0.01319,0.19447 -0.247449,0.10457 -0.225003,-0.0863 -0.343223,-0.26357 -0.26271,-0.39384 0.08051,-0.13028 -0.247593,-0.24523 -0.729124,-0.25546 -0.729513,-0.0155 -0.787269,-0.0565 -0.346344,-0.24599 0.746557,-0.3208 0.121987,-0.31353 -1.416923,0.0165 -1.093406,0.23449 -1.366301,0.41538 -1.646218,1.09116 -0.31453,0.75934 -0.357845,0.77956 -0.691756,0.32291 -0.337199,-0.46115 -0.40185,-0.46362 -1.211076,-0.0463 -0.470173,0.24249 -1.271579,0.62085 -1.780902,0.84081 -1.846413,0.7974 -4.316551,2.24918 -5.125723,3.01257 -0.455071,0.42932 -1.151528,0.85666 -1.547683,0.94965 -0.396155,0.093 -0.946334,0.41171 -1.222622,0.70827 -0.496839,0.53329 -0.969312,2.72755 -0.686007,3.18594 0.251954,0.40767 0.767258,0.26054 1.13178,-0.32316 z m 5.63607,-5.76061 c -0.218056,-0.13817 -0.255791,-0.29124 -0.09613,-0.38991 0.144569,-0.0893 0.409984,0.0148 0.589811,0.23151 0.357024,0.43018 0.07703,0.52002 -0.493686,0.1584 z m -8.433253,5.51136 c 0.176308,-0.28232 0.559812,-0.51726 0.852229,-0.5221 0.510703,-0.008 0.508194,-0.0284 -0.06364,-0.50544 -0.456688,-0.38098 -0.595312,-0.77577 -0.595312,-1.69537 0,-0.65931 -0.119063,-1.27233 -0.264584,-1.36227 -0.14552,-0.0899 -0.264583,-0.44712 -0.264583,-0.79375 0,-0.34662 -0.113862,-0.7006 -0.253028,-0.78661 -0.139165,-0.086 -0.182679,-0.36092 -0.0967,-0.61092 0.121461,-0.35316 0.06475,-0.33669 -0.254262,0.0739 -0.272858,0.35115 -0.324867,0.63171 -0.155039,0.83634 0.144864,0.17455 0.154128,0.37061 0.02139,0.45264 -0.248718,0.15372 -2.437362,-1.69976 -2.437362,-2.0641 0,-0.11823 0.159783,-0.0824 0.355073,0.0797 0.195291,0.16207 0.452386,0.20642 0.571323,0.0985 0.118937,-0.10788 0.152907,-0.0175 0.07549,0.20073 -0.09893,0.27893 0.04104,0.39688 0.470991,0.39688 0.611751,0 0.611751,0 0.05248,-0.59532 -0.644681,-0.68623 -0.350049,-0.81091 0.372037,-0.15743 0.26612,0.24084 0.483854,0.32901 0.483854,0.19594 0,-0.28245 -1.09785,-1.03685 -1.389062,-0.95451 -0.109141,0.0309 -0.184338,-0.0332 -0.167106,-0.14233 0.08524,-0.53984 -0.09117,-0.80222 -0.737317,-1.09662 -0.628156,-0.28621 -0.668336,-0.27631 -0.364478,0.0898 0.426917,0.5144 0.0198,0.53661 -0.664489,0.0362 -0.282246,-0.20638 -0.429213,-0.4592 -0.326595,-0.56182 0.234228,-0.23422 -1.069965,-1.97479 -1.475585,-1.9693 -0.213697,0.003 -0.210715,0.0604 0.01043,0.20109 0.170363,0.10837 0.386786,0.50396 0.480938,0.8791 0.17048,0.67924 0.165336,0.68157 -1.245243,0.5646 -1.30767,-0.10844 -1.416429,-0.074 -1.416429,0.44895 0,0.36221 0.208988,0.61887 0.579671,0.71191 0.31882,0.08 0.850881,0.43418 1.182359,0.78702 0.366943,0.39059 0.780435,0.58512 1.057106,0.4973 0.331286,-0.10514 0.587013,0.12719 0.943757,0.85744 0.269136,0.55092 0.744935,1.1139 1.05733,1.25108 0.651948,0.28628 1.471974,2.01116 1.965678,4.1347 0.36966,1.59 1.028205,2.00151 1.638684,1.02398 z m 20.74693,-0.29833 c -0.0845,-0.21107 -0.14716,-0.14837 -0.15985,0.15985 -0.0115,0.27892 0.051,0.43519 0.13896,0.34727 0.0879,-0.0879 0.0973,-0.31612 0.0209,-0.50712 z m 38.58373,-1.02655 c 0.19636,-1.16228 0.0228,-1.69093 -0.26127,-0.79586 -0.21935,0.69111 -0.58243,0.7057 -0.79625,0.032 -0.0941,-0.29643 0.0286,-0.8113 0.28758,-1.2065 0.40903,-0.62426 0.41275,-0.72834 0.0394,-1.1017 -0.48827,-0.48827 -0.99226,-0.25902 -0.99226,0.45137 0,0.32882 -0.13178,0.45467 -0.37741,0.36042 -0.23053,-0.0885 -0.0177,0.53262 0.54686,1.5958 0.50836,0.95735 1.02492,1.74063 1.14791,1.74063 0.123,0 0.30545,-0.48427 0.40545,-1.07616 z m -111.78947,0.28241 c -0.518153,-0.33486 -0.868411,-0.33486 -0.661458,0 0.08994,0.14552 0.364854,0.26276 0.610927,0.26053 0.385571,-0.003 0.392554,-0.0395 0.05053,-0.26053 z m 30.162499,0 c 0,-0.14552 -0.119062,-0.26458 -0.264583,-0.26458 -0.145521,0 -0.264584,0.11906 -0.264584,0.26458 0,0.14552 0.119063,0.26458 0.264584,0.26458 0.145521,0 0.264583,-0.11906 0.264583,-0.26458 z m 43.871451,-1.54173 c 0.0456,-0.46174 0.19069,-0.83952 0.32242,-0.83952 0.13174,0 0.17099,-0.17859 0.0872,-0.39687 -0.0838,-0.21829 -0.0444,-0.39688 0.0875,-0.39688 0.13186,0 0.39251,-0.42249 0.57923,-0.93886 0.25777,-0.71285 0.26591,-1.02752 0.0338,-1.30719 -0.46051,-0.55488 -0.99874,-0.20244 -1.3445,0.88038 -0.17014,0.53284 -0.41402,1.08191 -0.54196,1.22015 -0.2743,0.29639 -0.31419,2.35701 -0.0507,2.62048 0.36519,0.36519 0.74615,-0.0225 0.82705,-0.84169 z m 9.83896,0.21881 c 0,-0.94761 -0.25793,-1.14636 -0.82349,-0.63454 -0.36346,0.32893 -0.40499,0.52835 -0.1838,0.88253 0.43686,0.69953 1.00729,0.5591 1.00729,-0.24799 z m 1.5875,-1.10243 c 0,-1.58257 0.34383,-1.50809 0.50893,0.11025 0.0437,0.42828 0.47991,0.16455 0.76585,-0.46302 0.2475,-0.5432 0.23144,-0.66146 -0.0898,-0.66146 -0.5446,0 -0.48818,-0.34132 0.11909,-0.72057 0.39863,-0.24894 0.53557,-0.2484 0.62576,0.002 0.0635,0.17666 0.33988,-0.077 0.61418,-0.56361 0.2743,-0.48664 0.88452,-1.37961 1.35605,-1.98438 0.98628,-1.26496 1.08637,-1.63489 0.3333,-1.23186 -0.43075,0.23053 -0.52917,0.20121 -0.52917,-0.1576 0,-0.35391 0.17809,-0.4119 0.90341,-0.2942 0.66046,0.10718 1.01623,0.0219 1.32292,-0.31694 0.54083,-0.59761 0.5559,-1.7889 0.0226,-1.7889 -0.21828,0 -0.39688,0.10023 -0.39688,0.22273 0,0.23814 -1.08149,-0.29401 -1.3536,-0.66604 -0.25435,-0.34775 -1.29223,0.42614 -1.29223,0.96354 0,0.26463 -0.12156,0.40601 -0.27013,0.31419 -0.34139,-0.21099 -1.13556,1.59685 -1.16379,2.64926 -0.0141,0.52689 -0.14351,0.76784 -0.3848,0.71668 -0.45242,-0.0959 -1.5656,1.12933 -2.39678,2.63809 -0.34637,0.62873 -0.54426,1.06635 -0.43976,0.97248 0.27901,-0.25062 1.55847,1.0207 1.35635,1.34773 -0.0945,0.15298 -0.0458,0.27815 0.1083,0.27815 0.16105,0 0.28019,-0.58128 0.28019,-1.36702 z m -0.79375,-1.42672 c 0,-0.22687 0.11907,-0.33891 0.26459,-0.24897 0.14552,0.0899 0.26458,0.27556 0.26458,0.41249 0,0.13693 -0.11906,0.24897 -0.26458,0.24897 -0.14552,0 -0.26459,-0.18562 -0.26459,-0.41249 z m 1.5875,-0.91043 c 0,-0.14552 0.12609,-0.26458 0.2802,-0.26458 0.15411,0 0.20662,0.11906 0.11668,0.26458 -0.0899,0.14552 -0.21603,0.26458 -0.2802,0.26458 -0.0642,0 -0.11668,-0.11906 -0.11668,-0.26458 z m 2.11667,-3.85207 c 0,-0.22687 0.11906,-0.33891 0.26458,-0.24897 0.14552,0.0899 0.26459,0.27556 0.26459,0.41249 0,0.13693 -0.11907,0.24897 -0.26459,0.24897 -0.14552,0 -0.26458,-0.18562 -0.26458,-0.41249 z m 28.33247,6.76249 c 0.27891,0 0.50711,-0.13946 0.50711,-0.3099 0,-0.56125 -0.86365,-1.2776 -1.54031,-1.2776 -0.3655,0 -0.58621,0.0783 -0.49045,0.17409 0.0957,0.0957 0.0263,0.35617 -0.15434,0.57871 -0.2752,0.33902 -0.25382,0.37665 0.13189,0.23212 0.34728,-0.13014 0.50446,0.003 0.64008,0.54374 0.0989,0.39393 0.22907,0.56832 0.28933,0.38753 0.0603,-0.18078 0.33777,-0.32869 0.61669,-0.32869 z M 19.409923,153.08116 c -0.268953,-0.26895 -0.490868,0.13597 -0.270198,0.49302 0.166697,0.26972 0.229018,0.26993 0.318639,10e-4 0.06128,-0.18383 0.03948,-0.40617 -0.04844,-0.49409 z m 149.258067,0.0331 c -0.0879,-0.0879 -0.31612,-0.0973 -0.50712,-0.0209 -0.21106,0.0845 -0.14837,0.14715 0.15986,0.15985 0.27891,0.0115 0.43518,-0.0511 0.34726,-0.13896 z m -30.62001,-0.50161 c -0.18115,-0.21828 -0.46362,-0.39309 -0.62771,-0.38846 -0.16408,0.005 -0.0672,0.18322 0.21526,0.39687 0.65978,0.49904 0.8307,0.49555 0.41245,-0.008 z m 9.44116,-0.1819 c -0.0845,-0.21107 -0.14716,-0.14837 -0.15985,0.15985 -0.0115,0.27892 0.051,0.43518 0.13896,0.34727 0.0879,-0.0879 0.0973,-0.31613 0.0209,-0.50712 z m 11.65936,-0.27105 c 0.1819,-0.15032 0.33073,-0.43496 0.33073,-0.63254 0,-0.19758 0.59117,-1.21471 1.31371,-2.26027 1.19881,-1.73477 1.27408,-1.93001 0.86065,-2.23232 -0.29004,-0.21208 -0.56123,-0.24153 -0.75365,-0.0818 -0.32036,0.26588 -0.74131,-0.42331 -0.4985,-0.81618 0.0716,-0.11584 -0.10649,-0.27251 -0.39575,-0.34816 -0.68333,-0.17869 -0.87262,0.16197 -0.6509,1.17143 0.26783,1.21942 0.21709,3.44701 -0.0956,4.19761 -0.15156,0.3638 -0.28311,0.50844 -0.29233,0.32142 -0.0122,-0.24801 -0.14901,-0.26927 -0.50541,-0.0785 -0.3111,0.1665 -0.58062,0.16952 -0.74182,0.008 -0.40402,-0.40401 -1.21524,0.33131 -0.99596,0.90276 0.14972,0.39015 0.36012,0.44558 1.13888,0.30008 0.52539,-0.0982 1.10407,-0.30147 1.28597,-0.45179 z m -21.25015,-0.76573 c -0.068,-0.10998 -0.002,-0.27495 0.14603,-0.3666 0.41601,-0.2571 -0.1917,-1.19285 -0.77469,-1.19285 -0.36099,0 -0.45845,0.14008 -0.35984,0.51717 0.1589,0.60763 -0.82549,0.96793 -1.90457,0.6971 -0.48813,-0.12251 -0.66146,-0.0607 -0.66146,0.2359 0,0.22106 0.12609,0.40192 0.2802,0.40192 0.1541,0 0.21218,0.11005 0.12905,0.24456 -0.0831,0.1345 0.0587,0.28868 0.31511,0.34261 0.60115,0.12642 2.9926,-0.617 2.83017,-0.87981 z m 5.91755,0.23972 c 0.47792,-0.47792 0.38402,-0.74083 -0.26458,-0.74083 -0.43021,0 -0.50464,-0.0774 -0.28526,-0.29683 0.16325,-0.16325 0.23386,-0.46091 0.1569,-0.66146 -0.077,-0.20054 -0.008,-0.36463 0.15297,-0.36463 0.16109,0 0.29289,0.20241 0.29289,0.44979 0,0.35132 0.0699,0.37987 0.31939,0.1304 0.24946,-0.24946 0.23,-0.40877 -0.0889,-0.72765 -0.35605,-0.35605 -0.44907,-0.35909 -0.72738,-0.0237 -1.03596,1.24825 -0.62719,3.3061 0.44395,2.23496 z m -15.13812,-1.97392 c 0.1985,-0.84977 0.42741,-2.43801 0.50868,-3.52941 0.0813,-1.09141 0.19999,-2.57969 0.26382,-3.30729 0.10115,-1.15298 0.0771,-1.23795 -0.18692,-0.66146 -0.30299,0.66146 -0.30299,0.66146 -0.41463,0.014 -0.16493,-0.95653 0.20668,-3.98273 0.48906,-3.98273 0.13394,0 0.24535,0.20836 0.24758,0.46302 0.003,0.39289 0.0418,0.40324 0.25356,0.0684 0.14872,-0.23523 0.15287,-0.49131 0.0103,-0.6339 -0.13157,-0.13158 -0.18655,-0.60883 -0.12217,-1.06055 0.11298,-0.79263 0.10706,-0.78923 -0.1694,0.0973 -0.24279,0.77855 -0.32533,0.84914 -0.54141,0.46302 -0.34571,-0.61774 -0.9489,-0.57483 -1.15748,0.0823 -0.0939,0.29585 -0.13661,1.87436 -0.0949,3.50779 0.0417,1.63343 -0.02,3.12496 -0.13717,3.31451 -0.11715,0.18955 -0.0726,0.6837 0.0991,1.09811 0.25351,0.61202 0.23709,0.86978 -0.0874,1.37309 -0.40136,0.62244 -0.31776,2.1951 0.10287,1.93514 0.11882,-0.0734 0.28246,-0.026 0.36364,0.1053 0.0812,0.13135 -0.08,0.29833 -0.35811,0.37106 -0.45535,0.11908 -0.47777,0.24227 -0.22522,1.23724 0.35048,1.3808 0.67283,1.11459 1.15626,-0.95491 z m 10.60928,1.44806 c -0.0845,-0.21107 -0.14716,-0.14837 -0.15986,0.15985 -0.0115,0.27892 0.0511,0.43519 0.13897,0.34727 0.0879,-0.0879 0.0973,-0.31612 0.0209,-0.50712 z M 41.2053,150.70068 c -0.30701,-0.21504 -0.622043,-0.32714 -0.700073,-0.24911 -0.242145,0.24214 0.550592,0.91165 0.914228,0.77211 0.243873,-0.0936 0.181519,-0.24586 -0.214155,-0.523 z m 0.534353,-0.60159 c 0,-0.14552 -0.0525,-0.26459 -0.116677,-0.26459 -0.06417,0 -0.190261,0.11907 -0.280198,0.26459 -0.08994,0.14552 -0.03743,0.26458 0.116677,0.26458 0.154109,0 0.280198,-0.11906 0.280198,-0.26458 z m 114.461817,-0.72761 c 0.26366,-1.40795 0.76486,-2.51081 1.40384,-3.08908 0.66238,-0.59945 0.71084,-1.65821 0.11485,-2.5091 -0.23988,-0.34248 -0.42505,-0.99405 -0.41149,-1.44793 0.0282,-0.94498 -0.69227,-2.25637 -0.98208,-1.78746 -0.10136,0.164 -0.50504,0.32474 -0.89707,0.35718 -0.73984,0.0612 -1.01483,0.47275 -0.31591,0.47275 0.21828,0 0.41473,0.11906 0.43656,0.26458 0.11658,0.77722 0.0467,0.92537 -0.43656,0.92569 -0.43314,2.9e-4 -0.54391,0.20396 -0.6104,1.12232 -0.0669,0.92331 -0.009,1.09413 0.32849,0.96473 0.2504,-0.0961 0.4794,0.0243 0.58886,0.30956 0.15671,0.40838 0.20834,0.38779 0.41269,-0.16462 0.17574,-0.47505 0.2879,-0.54349 0.45298,-0.27639 0.12839,0.20773 0.0686,0.64413 -0.14425,1.05196 -0.20001,0.38333 -0.36439,0.96485 -0.36528,1.29227 -9e-4,0.32742 -0.12592,0.59531 -0.27782,0.59531 -0.1519,0 -0.254,-0.14882 -0.22689,-0.33073 0.0819,-0.54975 -0.58963,-2.0605 -0.84561,-1.9023 -0.13135,0.0812 -0.23676,0.76565 -0.23424,1.52104 0.004,1.11528 0.12805,1.49058 0.66146,1.99654 0.77861,0.73855 0.81343,0.97923 0.19386,1.34009 -0.39718,0.23134 -0.36126,0.27083 0.2526,0.27774 0.61964,0.007 0.74053,-0.12502 0.90141,-0.98415 z m 0.36735,-5.60678 c 0,-0.29963 0.11906,-0.54478 0.26458,-0.54478 0.14552,0 0.26458,0.17157 0.26458,0.38126 0,0.20969 -0.11906,0.45485 -0.26458,0.54478 -0.14552,0.0899 -0.26458,-0.0816 -0.26458,-0.38126 z m -116.50051,5.75561 c -0.08446,-0.21107 -0.147156,-0.14837 -0.159852,0.15985 -0.01149,0.27892 0.05104,0.43519 0.138964,0.34727 0.08792,-0.0879 0.09732,-0.31612 0.02089,-0.50712 z m 129.46509,0.15359 c 0,-0.0572 -0.17859,-0.10398 -0.39688,-0.10398 -0.21828,0 -0.39687,0.11533 -0.39687,0.25628 0,0.14095 0.17859,0.18775 0.39687,0.10398 0.21829,-0.0838 0.39688,-0.19908 0.39688,-0.25628 z m -137.125822,7.5e-4 c -0.08792,-0.0879 -0.316121,-0.0973 -0.507118,-0.0209 -0.211066,0.0845 -0.148372,0.14716 0.159853,0.15986 0.278915,0.0115 0.435184,-0.0511 0.347265,-0.13897 z m 133.157072,-0.87958 c 0,-0.28065 -0.17859,-0.68886 -0.39688,-0.90714 -0.21828,-0.21828 -0.39687,-0.52354 -0.39687,-0.67835 0,-0.36958 -1.08235,-1.60841 -1.40525,-1.60841 -0.14089,0 -0.18364,0.41807 -0.0972,0.95064 0.27842,1.7157 2.29622,3.68696 2.29622,2.24326 z m -126.013322,0.0858 c -0.08792,-0.0879 -0.316122,-0.0973 -0.507118,-0.0209 -0.211067,0.0845 -0.148372,0.14716 0.159853,0.15986 0.278915,0.0115 0.435184,-0.0511 0.347265,-0.13897 z m 21.238324,-1.27371 c 0,-1.2469 -0.233447,-1.74144 -0.822057,-1.74144 -0.635377,0 -0.639874,0.54325 -0.0112,1.35339 0.269312,0.34704 0.437984,0.77982 0.374827,0.96172 -0.06316,0.1819 0.01415,0.33073 0.171801,0.33073 0.157648,0 0.286632,-0.40698 0.286632,-0.9044 z m 84.227598,0.57367 c 0.10099,-0.24889 0.20365,-0.23252 0.41487,0.0661 0.24373,0.34464 0.28121,0.33799 0.28473,-0.0505 0.006,-0.6863 -0.34264,-0.75176 -1.06168,-0.19924 -0.50288,0.38642 -0.55213,0.50395 -0.21309,0.50847 0.24254,0.003 0.50136,-0.14294 0.57517,-0.32484 z m -73.261558,-0.70175 c 0.476968,-0.18666 0.467199,-0.21432 -0.132292,-0.37467 -1.372407,-0.36707 -2.720522,-0.0928 -2.183499,0.4442 0.22584,0.22584 1.67196,0.18242 2.315791,-0.0695 z m 74.537298,-1.24314 c 0.32285,-0.66756 0.19744,-1.87946 -0.17522,-1.69313 -0.14552,0.0728 -0.2431,0.31079 -0.21684,0.52895 0.0263,0.21816 -0.12258,0.49197 -0.33073,0.60846 -0.20816,0.11649 -0.37847,0.37455 -0.37847,0.57348 0,0.19892 -0.14882,0.41755 -0.33073,0.48584 -0.19326,0.0726 -0.0558,0.2333 0.33073,0.38674 0.4666,0.18523 0.68665,0.17464 0.74695,-0.036 0.047,-0.16421 0.20646,-0.54868 0.35431,-0.85438 z m -201.824321,0.29124 c -0.08376,-0.21828 -0.199088,-0.39687 -0.256279,-0.39687 -0.05719,0 -0.103984,0.17859 -0.103984,0.39687 0,0.21828 0.115325,0.39688 0.256279,0.39688 0.140954,0 0.187747,-0.1786 0.103984,-0.39688 z m 127.421355,-0.9487 c -0.16243,-0.3035 -0.348016,-0.49914 -0.412411,-0.43474 -0.185182,0.18518 0.190227,0.98657 0.462156,0.98657 0.135157,0 0.112789,-0.24813 -0.04975,-0.55183 z m 89.970456,-0.50651 c 0,-0.14552 -0.0525,-0.26458 -0.11667,-0.26458 -0.0642,0 -0.19027,0.11906 -0.2802,0.26458 -0.0899,0.14552 -0.0374,0.26459 0.11667,0.26459 0.15411,0 0.2802,-0.11907 0.2802,-0.26459 z m -97.22349,-0.28218 c 0.284763,-0.46076 -0.03956,-0.55834 -0.402448,-0.12108 -0.20869,0.25145 -0.228762,0.40326 -0.05332,0.40326 0.154751,0 0.359845,-0.12698 0.455766,-0.28218 z m -20.335347,-0.82576 c -0.08446,-0.21107 -0.147156,-0.14837 -0.159852,0.15985 -0.01149,0.27892 0.05105,0.43519 0.138964,0.34727 0.08792,-0.0879 0.09732,-0.31612 0.02089,-0.50712 z m 27.581316,-0.38208 c 0.332971,-0.38295 0.633683,-0.88896 0.668249,-1.12448 0.03457,-0.23551 0.217115,-0.4282 0.405664,-0.4282 0.188549,0 0.474855,-0.23813 0.636236,-0.52917 0.16138,-0.29104 0.375558,-0.5913 0.47595,-0.66724 0.394793,-0.29865 1.537261,-2.15502 1.537261,-2.49787 0,-0.65138 0.313888,-1.20127 0.588743,-1.0314 0.177064,0.10943 0.219389,-0.45508 0.124097,-1.65517 -0.212845,-2.68054 -0.578461,-4.05687 -1.246937,-4.69399 -0.594736,-0.56683 -0.594736,-0.56683 -0.0046,0.26049 0.32455,0.45503 0.545713,1.05034 0.491474,1.32292 -0.09196,0.46216 -0.133358,0.45543 -0.613642,-0.0997 -0.283264,-0.32742 -0.756455,-0.59349 -1.051536,-0.59126 -0.428943,0.003 -0.459473,0.0528 -0.152269,0.24712 0.211333,0.13369 0.46812,0.19124 0.570637,0.12788 0.102518,-0.0634 0.124082,0.12309 0.04792,0.41433 -0.199373,0.7624 -0.549971,0.65462 -1.143657,-0.35161 -0.285937,-0.48463 -0.80853,-1.03562 -1.161316,-1.22442 -0.845145,-0.45231 -2.005118,-0.16244 -2.005118,0.50106 0,0.37661 0.380177,0.62757 1.521354,1.00426 1.020083,0.33672 1.608532,0.6969 1.785937,1.09313 0.16969,0.37901 0.430648,0.54781 0.727604,0.47068 0.285043,-0.074 0.463021,0.0288 0.463021,0.26744 0,0.21325 -0.11827,0.31463 -0.262822,0.22529 -0.145129,-0.0897 -0.26213,0.11066 -0.261277,0.44741 0.0062,2.43355 -0.02403,2.64332 -0.342856,2.38199 -0.230648,-0.18906 -0.464075,-0.0776 -0.812212,0.38779 -0.453766,0.60661 -0.45572,0.64715 -0.02745,0.56949 0.253602,-0.046 0.513133,0.0652 0.576737,0.24713 0.06845,0.19575 -0.109312,0.33073 -0.435572,0.33073 -0.303168,0 -0.551215,0.11532 -0.551215,0.25628 0,0.14095 -0.153381,0.19742 -0.340846,0.12548 -0.208012,-0.0798 -0.572294,0.3456 -0.934735,1.09161 -0.391048,0.8049 -0.719651,1.17414 -0.962103,1.08111 -0.206284,-0.0792 -0.54764,0.13254 -0.776216,0.48139 -0.390542,0.59604 -0.37548,0.63403 0.351947,0.88761 0.417973,0.14571 0.838737,0.51316 0.935031,0.81655 0.229384,0.72273 0.447691,0.69594 1.178562,-0.14464 z m 0.01919,-2.06624 c 0,-0.22687 0.119063,-0.41249 0.264583,-0.41249 0.145521,0 0.264584,0.11204 0.264584,0.24897 0,0.13693 -0.119063,0.32256 -0.264584,0.41249 -0.14552,0.0899 -0.264583,-0.0221 -0.264583,-0.24897 z m 3.103883,-4.66703 c 0.09356,-0.35777 0.213493,-0.4777 0.279546,-0.27954 0.06363,0.19088 -0.01011,0.47285 -0.16386,0.6266 -0.196339,0.19634 -0.230773,0.093 -0.115686,-0.34706 z m 78.224158,5.96059 c 0.0904,-0.23546 0.046,-0.34166 -0.10399,-0.24896 -0.14385,0.0889 -0.26155,0.27368 -0.26155,0.41061 0,0.38059 0.18964,0.29672 0.36554,-0.16165 z M 44.385486,140.75724 c 0,-0.15636 0.159445,-0.0662 0.354323,0.20027 0.310545,0.4247 0.374055,0.43315 0.514026,0.0684 0.174828,-0.45559 2.655685,-2.12709 3.60358,-2.42794 0.333566,-0.10587 0.536169,-0.33755 0.462674,-0.52908 -0.07191,-0.1874 -0.01323,-0.45825 0.130401,-0.60188 0.296602,-0.2966 0.509696,-2.44916 0.242456,-2.44916 -0.350704,0 -0.809543,0.6482 -0.809543,1.14364 0,0.42016 -0.06845,0.45184 -0.393439,0.18213 -0.574786,-0.47703 -1.426463,-0.15552 -2.856795,1.07844 -1.834021,1.58224 -3.015947,4.0819 -1.77685,3.75787 0.291042,-0.0761 0.529167,-0.26632 0.529167,-0.42268 z m 108.924484,-0.23276 c -0.0845,-0.21107 -0.14715,-0.14837 -0.15985,0.15985 -0.0115,0.27892 0.0511,0.43518 0.13897,0.34727 0.0879,-0.0879 0.0973,-0.31613 0.0209,-0.50712 z m -22.12183,-3.38998 c 0.0521,-1.53173 0.47012,-7.44918 0.63543,-8.99583 0.0983,-0.91933 0.0635,-1.08197 -0.15236,-0.71375 -0.15379,0.26229 -0.38509,2.40541 -0.514,4.7625 -0.12891,2.3571 -0.29238,5.29766 -0.36327,6.53458 -0.1084,1.89161 -0.0905,2.03875 0.11239,0.92605 0.13271,-0.72761 0.25952,-1.8587 0.28181,-2.51355 z m 18.1474,-0.3904 c 0.30796,-0.2157 0.64064,-0.83426 0.74345,-1.3823 0.16429,-0.87574 0.10142,-1.0594 -0.53697,-1.56844 -0.67367,-0.53716 -0.75403,-0.54666 -1.17646,-0.13905 -0.70895,0.68405 -0.89519,1.86993 -0.38263,2.4363 0.2396,0.26476 0.35742,0.60795 0.26182,0.76264 -0.25513,0.4128 0.44572,0.34267 1.09079,-0.10915 z m -96.003603,-0.86637 c 0.09617,-0.99747 -0.272046,-1.11364 -0.861656,-0.27185 -0.592452,0.84584 -0.521484,1.31641 0.183434,1.2163 0.456274,-0.0648 0.614676,-0.28538 0.678222,-0.94445 z m 97.945213,-0.61092 c 0,-0.56624 -0.12609,-0.77704 -0.46302,-0.77409 -0.31011,0.003 -0.35929,0.07 -0.14892,0.20378 0.17276,0.10985 0.2788,0.52143 0.23563,0.91462 -0.0432,0.39319 0.0239,0.65165 0.14892,0.57436 0.12506,-0.0773 0.22739,-0.4907 0.22739,-0.91867 z m -21.67149,0.16294 c 0.13688,0.0846 0.18037,0.26465 0.0967,0.40012 -0.0837,0.13546 -0.0445,0.2463 0.0871,0.2463 0.13166,0 0.25663,-0.68461 0.27772,-1.52135 0.0211,-0.83675 0.11465,-2.2822 0.20791,-3.21213 0.12307,-1.22705 0.0875,-1.64002 -0.12981,-1.50573 -0.17388,0.10746 -0.29938,0.0121 -0.29938,-0.22747 0,-0.22687 -0.11906,-0.41249 -0.26458,-0.41249 -0.14552,0 -0.26459,-0.23812 -0.26459,-0.52916 0,-0.29104 -0.11203,-0.52917 -0.24896,-0.52917 -0.43927,0 -0.55564,0.46616 -0.29048,1.1636 0.21654,0.56955 0.1683,0.72689 -0.29966,0.97734 -0.51994,0.27826 -0.54652,0.44454 -0.39211,2.45222 0.11268,1.46498 0.29372,2.24765 0.56614,2.44747 0.22027,0.16156 0.4143,0.45922 0.43118,0.66146 0.0179,0.21464 0.0813,0.17361 0.15232,-0.0986 0.0669,-0.25644 0.23362,-0.39704 0.3705,-0.31245 z m -0.39053,-2.46243 c -0.0898,-0.25467 -0.2327,-0.61185 -0.31749,-0.79375 -0.097,-0.20809 0.0502,-0.33073 0.39705,-0.33073 0.43607,0 0.55121,0.1658 0.55121,0.79375 0,0.86942 -0.37196,1.06445 -0.63077,0.33073 z m -71.066806,1.24102 c 0.779048,-1.70054 0.98995,-1.96536 1.519883,-1.90843 0.367313,0.0395 0.620521,-0.12924 0.73491,-0.48965 0.231152,-0.72829 -0.202223,-1.15117 -0.84183,-0.82144 -0.270284,0.13934 -0.640254,0.19998 -0.822155,0.13476 -0.200056,-0.0717 -0.33073,0.11053 -0.33073,0.46131 0,0.48589 -0.106848,0.55308 -0.659128,0.41447 -0.563617,-0.14146 -0.649881,-0.081 -0.595313,0.41711 0.04955,0.45233 -0.128388,0.6393 -0.796079,0.83648 -0.472943,0.13966 -0.859896,0.3628 -0.859896,0.49586 0,0.13306 -0.117699,0.16918 -0.261553,0.0803 -0.149982,-0.0927 -0.194338,0.0135 -0.103984,0.24896 0.181045,0.4718 0.415956,0.51895 0.778616,0.15629 0.162718,-0.16272 0.491523,-0.12496 0.912813,0.10483 0.773221,0.42173 1.085435,0.39089 1.324446,-0.13083 z m 15.389835,-4.27491 c -0.189855,-0.18986 -0.31309,-0.20548 -0.31309,-0.0397 0,0.35316 0.312898,0.66606 0.489479,0.48948 0.07519,-0.0752 -0.0042,-0.27759 -0.176389,-0.44979 z m -1.834444,0.14668 c -0.181901,-0.0734 -0.479558,-0.0734 -0.661459,0 -0.181901,0.0734 -0.03307,0.13345 0.330729,0.13345 0.363802,0 0.512631,-0.06 0.33073,-0.13345 z m 58.587505,-1.72647 c -0.0845,-0.21106 -0.14715,-0.14837 -0.15985,0.15986 -0.0115,0.27891 0.0511,0.43518 0.13897,0.34726 0.0879,-0.0879 0.0973,-0.31612 0.0209,-0.50712 z m -26.84784,-2.39778 c -0.15047,-0.1819 -0.3258,-0.68792 -0.38963,-1.12448 l -0.11606,-0.79375 -0.0397,0.80698 c -0.0218,0.44384 0.10324,0.94985 0.27786,1.12448 0.41861,0.41861 0.61658,0.40882 0.26748,-0.0132 z m -41.878574,-1.5875 c 0.01023,-0.10914 -0.159997,-0.19844 -0.378279,-0.19844 -0.435125,0 -0.490591,0.24167 -0.218316,0.9512 0.165695,0.4318 0.192946,0.42859 0.378278,-0.0445 0.109847,-0.28041 0.208089,-0.59912 0.218317,-0.70826 z m 41.475984,-1.98438 c -0.0666,-0.25466 -0.121,-0.0463 -0.121,0.46302 0,0.50933 0.0544,0.71769 0.121,0.46302 0.0665,-0.25466 0.0665,-0.67138 0,-0.92604 z m -42.599564,-0.11575 c -0.08446,-0.21107 -0.147156,-0.14837 -0.159852,0.15985 -0.01149,0.27891 0.05105,0.43518 0.138964,0.34727 0.08792,-0.0879 0.09732,-0.31613 0.02089,-0.50712 z m 8.478851,-3.81441 c -0.08792,-0.0879 -0.316121,-0.0973 -0.507118,-0.0209 -0.211066,0.0845 -0.148372,0.14716 0.159853,0.15985 0.278915,0.0115 0.435184,-0.051 0.347265,-0.13896 z m 81.117713,-0.66794 c -0.33367,-0.33367 -0.6144,-0.44188 -0.71675,-0.27628 -0.0925,0.14972 0.0716,0.34835 0.36477,0.44139 0.29315,0.093 0.53301,0.30006 0.53301,0.46002 0,0.15997 0.0827,0.20817 0.18373,0.10712 0.10106,-0.10106 -0.0631,-0.43057 -0.36476,-0.73225 z M 42.184977,117.24114 c -0.08446,-0.21106 -0.147157,-0.14837 -0.159853,0.15986 -0.01149,0.27891 0.05105,0.43518 0.138965,0.34726 0.08792,-0.0879 0.09732,-0.31612 0.02089,-0.50712 z m 28.205225,-0.5138 c -0.358576,-0.71878 -0.446347,-0.76851 -0.665432,-0.37703 -0.138805,0.24803 -0.211694,0.4718 -0.161975,0.49727 0.04972,0.0255 0.328524,0.18812 0.619565,0.36147 0.291042,0.17334 0.549807,0.32217 0.575034,0.33073 0.02523,0.009 -0.14001,-0.35704 -0.367192,-0.81244 z m 0.747966,-0.3064 c -0.216077,-0.21608 -0.294349,-0.18647 -0.294349,0.11134 0,0.52595 0.355786,0.88174 0.487274,0.48728 0.05578,-0.16735 -0.03103,-0.43673 -0.192925,-0.59862 z m -30.608942,-0.22056 c -0.171466,-0.27744 -0.641656,-0.0547 -0.641656,0.30393 0,0.13237 0.17791,0.1724 0.395355,0.089 0.217445,-0.0835 0.328281,-0.26024 0.246301,-0.39289 z m -75.879001,-0.894 c 0.145824,-0.38001 -0.08613,-1.37785 -0.270202,-1.16235 -0.04886,0.0572 -0.167392,0.43144 -0.263396,0.83162 -0.184523,0.76916 0.259701,1.04449 0.533598,0.33073 z m 106.611297,-1.39536 c -0.455596,-0.43638 -0.461234,-0.43074 -0.126558,0.12655 0.192655,0.32081 0.407233,0.52633 0.47684,0.45673 0.06961,-0.0696 -0.08802,-0.33209 -0.350282,-0.58328 z m -10.736453,0.0724 c 0.269761,-0.32504 0.251681,-0.39687 -0.0999,-0.39687 -0.236099,0 -0.429272,0.17859 -0.429272,0.39687 0,0.21828 0.04495,0.39688 0.09989,0.39688 0.05494,0 0.248115,-0.1786 0.429272,-0.39688 z m 9.510899,-0.7276 c 0.285052,-0.26459 0.318971,-0.26459 0.169593,0 -0.102697,0.1819 -0.07337,0.33073 0.06517,0.33073 0.411793,0 0.501722,-0.56127 0.392132,-2.4474 -0.06534,-1.12454 -0.0021,-1.78594 0.170886,-1.78594 0.15106,0 0.274654,-0.18851 0.274654,-0.41892 0,-0.23041 -0.148828,-0.36879 -0.330729,-0.30751 -0.181901,0.0613 -0.449792,-0.0456 -0.595313,-0.2376 -0.183673,-0.24228 -0.385948,-0.26961 -0.661458,-0.0894 -0.330021,0.21591 -0.336171,0.29879 -0.03651,0.49201 0.198201,0.1278 0.449479,0.7197 0.558396,1.31532 0.16157,0.88356 0.107398,1.16497 -0.294219,1.52843 -0.270738,0.24501 -0.49225,0.78421 -0.49225,1.19822 0,0.817 0.223668,0.93807 0.779649,0.42202 z m 0.03499,-0.88195 c 0.0127,-0.30822 0.07539,-0.37092 0.159852,-0.15985 0.07643,0.191 0.06703,0.4192 -0.02089,0.50712 -0.08792,0.0879 -0.150453,-0.0684 -0.138964,-0.34727 z m 4.212445,-3.36696 c 0,-0.19047 -0.179612,-0.57742 -0.399137,-0.8599 -0.378124,-0.48655 -0.393199,-0.4718 -0.28634,0.28016 0.141602,0.99645 0.1096,0.92604 0.420894,0.92604 0.14552,0 0.264583,-0.15583 0.264583,-0.3463 z m -22.026563,-1.3073 c -0.06063,-0.1819 -0.209462,-0.33073 -0.330729,-0.33073 -0.121267,0 -0.270096,0.14883 -0.330729,0.33073 -0.06063,0.1819 0.08819,0.33073 0.330729,0.33073 0.242535,0 0.391363,-0.14883 0.330729,-0.33073 z m 22.16586,-1.80802 c 0.173516,-0.5467 -0.02467,-1.03625 -0.419496,-1.03625 -0.136933,0 -0.248969,0.2282 -0.248969,0.50711 0,0.27892 -0.140142,0.55384 -0.311428,0.61093 -0.171285,0.0571 -0.227003,0.24041 -0.123818,0.40737 0.256013,0.41424 0.908809,0.12492 1.103711,-0.48916 z m 1.099776,-0.5567 c -0.08446,-0.21106 -0.147157,-0.14837 -0.159853,0.15986 -0.01149,0.27891 0.05105,0.43518 0.138965,0.34726 0.08792,-0.0879 0.09732,-0.31612 0.02089,-0.50712 z m -21.545844,0.13897 c -0.181901,-0.0734 -0.332553,-0.45095 -0.334781,-0.83901 -0.003,-0.52982 -0.06435,-0.61025 -0.246122,-0.32294 -0.287159,0.45389 0.113426,1.34727 0.590212,1.31629 0.242262,-0.0157 0.23997,-0.0538 -0.0093,-0.15434 z m 0.69847,-2.37342 c -0.464369,-0.55953 -0.704188,-0.42953 -0.563668,0.30556 0.102308,0.53519 0.200466,0.60682 0.495739,0.36177 0.278618,-0.23124 0.295141,-0.39356 0.06793,-0.66733 z m -0.344353,-1.88179 c -0.28903,-0.28903 -0.487223,0.17062 -0.279711,0.64871 0.196764,0.45333 0.211028,0.45292 0.320658,-0.009 0.0631,-0.26605 0.04468,-0.55378 -0.04095,-0.63941 z m -90.991603,0.14749 c -0.08446,-0.21107 -0.147157,-0.14837 -0.159853,0.15986 -0.01149,0.27891 0.05105,0.43518 0.138965,0.34726 0.08792,-0.0879 0.09732,-0.31612 0.02089,-0.50712 z m 110.58927,-1.417778 c 0.08824,-0.59748 -0.03229,-0.93966 -0.465988,-1.32292 -0.585017,-0.51698 -0.585017,-0.51698 -0.414801,0.14448 0.09362,0.3638 0.179389,1.256768 0.1906,1.984368 0.01807,1.17266 0.05166,1.24779 0.295772,0.66146 0.151464,-0.3638 0.328952,-1.02413 0.394417,-1.467388 z m -9.963764,0.424668 c 0,-0.28245 -0.119062,-0.587138 -0.264583,-0.677068 -0.150061,-0.0927 -0.264583,0.12954 -0.264583,0.513548 0,0.37239 0.119062,0.67707 0.264583,0.67707 0.145521,0 0.264583,-0.2311 0.264583,-0.51355 z m -11.55833,-2.157798 c 0.203588,-0.77852 -0.05269,-1.2974 -0.64081,-1.2974 -0.58872,0 -0.615277,0.1773 -0.17013,1.13581 0.398374,0.8578 0.61746,0.90146 0.81094,0.16159 z m 5.737497,-1.69427 c 0,-0.22049 -0.235185,-0.39688 -0.529167,-0.39688 -0.527114,0 -0.688214,0.28193 -0.352777,0.61736 0.322243,0.32225 0.881944,0.18232 0.881944,-0.22048 z m 11.028657,-0.1819 c -0.08446,-0.21107 -0.147157,-0.14838 -0.159852,0.15985 -0.01149,0.27891 0.05105,0.43518 0.138964,0.34726 0.08792,-0.0879 0.09732,-0.31612 0.02089,-0.50711 z m -14.107977,-0.34727 c 0.08376,-0.21828 0.03697,-0.39687 -0.103984,-0.39687 -0.140953,0 -0.256279,0.17859 -0.256279,0.39687 0,0.21828 0.04679,0.39688 0.103984,0.39688 0.05719,0 0.172517,-0.1786 0.256279,-0.39688 z m -1.954371,-1.03848 c -0.355881,-0.35588 -0.620561,0.005 -0.40872,0.55663 0.152002,0.39612 0.215548,0.40823 0.418544,0.0798 0.144363,-0.23358 0.140465,-0.48611 -0.0098,-0.6364 z m 19.585774,-0.0199 c -0.186994,-0.22532 -0.399521,-0.35013 -0.472282,-0.27737 -0.07276,0.0728 0.0207,0.31664 0.207699,0.54195 0.186994,0.22532 0.399521,0.35013 0.472281,0.27737 0.07276,-0.0728 -0.0207,-0.31664 -0.207698,-0.54195 z m -31.36893,-0.76253 c -0.173428,-0.69099 -0.491984,-0.89079 -0.751295,-0.47122 -0.151746,0.24554 0.618991,1.47005 0.806965,1.28208 0.065,-0.065 0.03995,-0.42989 -0.05567,-0.81086 z m 22.019159,0.0349 c -0.0734,-0.1819 -0.133452,-0.0331 -0.133452,0.33073 0,0.3638 0.06005,0.51263 0.133452,0.33073 0.0734,-0.1819 0.0734,-0.47956 0,-0.66146 z m -25.324773,-0.55728 c -0.254754,-0.2348 -0.289962,-0.19401 -0.157104,0.18204 0.09418,0.26656 0.185044,0.62375 0.201924,0.79375 0.01688,0.17 0.08758,0.0881 0.157105,-0.18204 0.06953,-0.27012 -0.02134,-0.6273 -0.201925,-0.79375 z m 25.038632,-1.69235 c -0.288226,-0.28823 -0.397622,0.0887 -0.214748,0.73982 0.182517,0.64991 0.182517,0.64991 0.275468,0.0319 0.05112,-0.33991 0.0238,-0.68718 -0.06072,-0.7717 z m 10.090283,-0.33006 c 0.08734,-0.21829 0.134936,-0.50108 0.105762,-0.62843 -0.02917,-0.12736 0.149632,-0.45551 0.397345,-0.72923 0.247714,-0.27372 0.362814,-0.58525 0.255778,-0.69228 -0.107037,-0.10704 -0.31066,0.0128 -0.452498,0.2662 -0.141837,0.25345 -0.4343,0.46082 -0.649917,0.46082 -0.596034,0 -0.725475,0.66257 -0.346771,1.77502 0.256619,0.75383 0.365087,0.87161 0.436486,0.47394 0.05226,-0.29104 0.166472,-0.70776 0.253815,-0.92604 z m -19.852797,0.47955 c -0.08446,-0.21106 -0.147156,-0.14837 -0.159852,0.15986 -0.01149,0.27891 0.05104,0.43518 0.138964,0.34726 0.08792,-0.0879 0.09732,-0.31612 0.02089,-0.50712 z m -8.165579,-1.31242 c -0.04672,-0.31594 -0.293312,-0.60445 -0.547973,-0.64113 -0.562626,-0.081 -0.561642,-0.14074 -0.01832,1.11095 0.451265,1.03962 0.752547,0.78966 0.56629,-0.46982 z m 10.082909,0.10526 c -0.01623,-0.6352 -0.04563,-0.6604 -0.231475,-0.19844 -0.117084,0.29105 -0.16122,0.61847 -0.09808,0.72761 0.22412,0.3874 0.347902,0.18865 0.329555,-0.52917 z m 227.214824,0.0882 c -0.0525,-0.15765 -0.19476,-0.28663 -0.31603,-0.28663 -0.12126,0 -0.26348,0.12898 -0.31603,0.28663 -0.0525,0.15765 0.0897,0.28663 0.31603,0.28663 0.22637,0 0.36858,-0.12898 0.31603,-0.28663 z m -213.526089,-0.9735 c -0.02425,-0.0868 0.08165,-0.32489 0.235345,-0.52916 0.197061,-0.26191 0.188326,-0.8394 -0.02963,-1.9589 l -0.30907,-1.5875 0.02963,2.16058 c 0.01629,1.18832 0.04947,2.14082 0.07373,2.11667 0.02425,-0.0241 0.02425,-0.11491 0,-0.20169 z m -120.877484,-0.64297 c -0.08146,-0.0815 -0.229406,0.0654 -0.328766,0.32632 -0.143585,0.37708 -0.113194,0.40747 0.148113,0.14811 0.180821,-0.17948 0.262115,-0.39297 0.180653,-0.47443 z m 127.844845,-0.11029 c 0,-0.13727 -0.261998,-0.43309 -0.582217,-0.65738 -0.435208,-0.30483 -0.631221,-0.32851 -0.776292,-0.0938 -0.232812,0.37669 -0.02117,0.80247 0.300176,0.60387 0.12541,-0.0775 0.302803,-0.0199 0.394207,0.12797 0.209194,0.33849 0.664126,0.35172 0.664126,0.0193 z m -30.764497,-2.45766 c -0.05889,-0.47555 -0.108281,-0.15026 -0.109766,0.72286 -0.0015,0.87313 0.04669,1.26221 0.107066,0.86464 0.06037,-0.39758 0.06159,-1.11195 0.0027,-1.5875 z m 8.267252,1.92382 c 0.214067,-0.13538 0.320405,-0.31495 0.236307,-0.39905 -0.208426,-0.20842 -1.022395,0.12359 -1.022395,0.41703 0,0.30156 0.291353,0.2949 0.786088,-0.018 z m 1.778516,-0.7329 c -0.06708,-0.25743 -0.126382,-0.11087 -0.131774,0.32569 -0.0054,0.43657 0.0495,0.64719 0.12197,0.46806 0.07248,-0.17913 0.07689,-0.53632 0.0098,-0.79375 z m 4.39277,-0.40191 c 0.08481,-0.54961 0.04251,-0.99219 -0.09484,-0.99219 -0.136372,0 -0.247949,0.4961 -0.247949,1.10243 0,1.30568 0.130789,1.26362 0.342791,-0.11024 z m -15.920908,0.15214 c -0.311903,-0.53637 -0.387221,-0.36469 -0.131904,0.30065 0.09074,0.23646 0.220714,0.37419 0.288836,0.30607 0.06812,-0.0681 -0.0025,-0.34115 -0.156932,-0.60672 z m 13.858326,-0.35058 c 0.08994,-0.14552 -0.0221,-0.26458 -0.248969,-0.26458 -0.226869,0 -0.41249,0.11906 -0.41249,0.26458 0,0.14552 0.112036,0.26459 0.248969,0.26459 0.136932,0 0.322553,-0.11907 0.41249,-0.26459 z m 15.323753,-0.96391 c 0.243073,-0.63344 0.05361,-0.68208 -0.320907,-0.0824 -0.177626,0.28443 -0.215623,0.51714 -0.08444,0.51714 0.131185,0 0.31359,-0.19564 0.405345,-0.43475 z m -142.815799,-0.73938 c 0.0293,-0.50883 -0.03337,-0.57874 -0.297577,-0.33194 -0.184082,0.17196 -0.277343,0.46211 -0.207247,0.64478 0.20715,0.53982 0.464923,0.38008 0.504824,-0.31284 z m 111.506511,0.44652 c 0.01197,-0.10914 0.07885,-0.55562 0.148623,-0.99219 0.08396,-0.52533 0.0382,-0.70427 -0.135326,-0.52916 -0.417511,0.42132 -0.665398,1.71979 -0.32832,1.71979 0.161297,0 0.303057,-0.0893 0.315023,-0.19844 z m 18.499076,-0.21405 c 0,-0.22687 -0.119062,-0.33891 -0.264583,-0.24897 -0.145521,0.0899 -0.264583,0.27556 -0.264583,0.41249 0,0.13693 0.119062,0.24897 0.264583,0.24897 0.145521,0 0.264583,-0.18562 0.264583,-0.41249 z m 13.626042,-0.38126 c -0.09933,-0.31298 -0.240139,-0.50951 -0.3129,-0.43675 -0.07276,0.0728 -0.05102,0.38836 0.04832,0.70133 0.09933,0.31298 0.240139,0.50952 0.3129,0.43676 0.07276,-0.0728 0.05102,-0.38837 -0.04832,-0.70134 z m -19.752791,-0.11618 c 0.134708,-0.69487 -0.286181,-0.95773 -0.857823,-0.53574 -0.420419,0.31036 -0.446289,0.43826 -0.158727,0.78475 0.417769,0.50338 0.893272,0.38691 1.01655,-0.24901 z m -115.846164,0.11618 c 0,-0.14552 -0.0525,-0.26458 -0.116677,-0.26458 -0.06417,0 -0.190261,0.11906 -0.280198,0.26458 -0.08994,0.14552 -0.03743,0.26458 0.116677,0.26458 0.154109,0 0.280198,-0.11906 0.280198,-0.26458 z m 120.557673,-1.29673 c -0.02198,-0.71321 -0.127442,-1.15969 -0.234354,-0.99219 -0.364929,0.57173 -0.205655,2.28892 0.212305,2.28892 0.03411,0 0.04403,-0.58353 0.02205,-1.29673 z m 5.504983,1.05043 c 0.08372,-0.13547 0.03122,-0.32109 -0.116677,-0.41249 -0.147894,-0.0914 -0.268899,0.0194 -0.268899,0.2463 0,0.46475 0.158764,0.53318 0.385576,0.16619 z m -2.472714,-2.98016 c -0.161634,-1.20863 -0.259223,-3.12023 -0.216864,-4.24802 0.06965,-1.85444 0.02968,-2.05052 -0.418014,-2.05052 -0.423403,0 -0.465899,0.12442 -0.293706,0.85989 0.110728,0.47295 0.218061,1.33615 0.238518,1.91823 0.05932,1.688 0.451608,5.53579 0.588489,5.77229 0.33122,0.57229 0.36856,-0.2555 0.101577,-2.25187 z m -10.348278,1.63896 c 0,-0.55803 -0.384938,-0.712 -0.661459,-0.26458 -0.192935,0.31217 0.05733,0.79375 0.41249,0.79375 0.136933,0 0.248969,-0.23813 0.248969,-0.52917 z m 17.227681,-0.34065 c -0.216076,-0.21608 -0.294349,-0.18647 -0.294349,0.11134 0,0.52596 0.355786,0.88174 0.487275,0.48728 0.05578,-0.16735 -0.03103,-0.43673 -0.192926,-0.59862 z m -26.488098,0.34065 c 0,-0.14552 -0.119062,-0.26458 -0.264583,-0.26458 -0.145521,0 -0.264583,0.11906 -0.264583,0.26458 0,0.14552 0.119062,0.26458 0.264583,0.26458 0.145521,0 0.264583,-0.11906 0.264583,-0.26458 z m 8.202083,-0.13229 c 0,-0.21828 -0.112035,-0.39688 -0.248968,-0.39688 -0.333634,0 -0.572583,0.41317 -0.3612,0.62456 0.29797,0.29797 0.610168,0.18147 0.610168,-0.22768 z m 6.795324,-0.1819 c -0.08446,-0.21107 -0.147157,-0.14838 -0.159852,0.15985 -0.01149,0.27891 0.05105,0.43518 0.138964,0.34726 0.08792,-0.0879 0.09732,-0.31612 0.02089,-0.50711 z m -14.022916,-0.26459 c -0.08446,-0.21106 -0.147157,-0.14837 -0.159853,0.15986 -0.01149,0.27891 0.05105,0.43518 0.138965,0.34726 0.08792,-0.0879 0.09732,-0.31612 0.02089,-0.50712 z m 10.867299,-1.47174 c -0.01467,-0.83675 -0.07769,-1.2237 -0.140067,-0.8599 -0.06237,0.3638 -0.209585,0.7213 -0.327139,0.79443 -0.26559,0.16522 -0.01561,1.58682 0.279028,1.58682 0.118162,0 0.202842,-0.68461 0.188178,-1.52135 z m -9.268843,-2.74809 c 0.0043,-1.91162 -0.08638,-3.78686 -0.201493,-4.16718 -0.138728,-0.45834 -0.216972,0.16526 -0.232046,1.84937 -0.0197,2.20149 0.210614,5.7935 0.371477,5.7935 0.02984,0 0.05777,-1.56406 0.06206,-3.47569 z m 14.095803,3.21111 c 0,-0.14552 -0.119063,-0.26458 -0.264584,-0.26458 -0.14552,0 -0.264583,0.11906 -0.264583,0.26458 0,0.14552 0.119063,0.26458 0.264583,0.26458 0.145521,0 0.264584,-0.11906 0.264584,-0.26458 z m -14.816667,-0.80937 c 0,-0.13693 -0.119062,-0.24896 -0.264583,-0.24896 -0.145521,0 -0.264583,0.18562 -0.264583,0.41249 0,0.22686 0.119062,0.3389 0.264583,0.24896 0.145521,-0.0899 0.264583,-0.27555 0.264583,-0.41249 z m -103.541435,-1.90261 c -0.0734,-0.1819 -0.133452,-0.0331 -0.133452,0.33073 0,0.3638 0.06005,0.51263 0.133452,0.33073 0.0734,-0.1819 0.0734,-0.47956 0,-0.66146 z m 1.27587,-0.13229 c 0.08369,-0.54571 0.261337,-1.34938 0.394776,-1.78594 0.437228,-1.43044 0.613334,-4.00982 0.309477,-4.532806 -0.230975,-0.397545 -0.288751,-0.196542 -0.295222,1.027076 -0.0044,0.83675 -0.120102,1.52136 -0.257059,1.52136 -0.136957,0 -0.349956,0.50601 -0.473331,1.12447 -0.138612,0.69485 -0.285159,0.96807 -0.383553,0.71512 -0.08758,-0.22515 -0.02341,-0.82047 0.142603,-1.32292 0.346713,-1.04938 0.267181,-3.956258 -0.108243,-3.956258 -0.138259,0 -0.25138,0.535782 -0.25138,1.190625 0,0.703953 -0.121392,1.190623 -0.29698,1.190623 -0.203971,0 -0.192866,0.12545 0.03546,0.40057 0.220754,0.26599 0.276812,0.80639 0.166862,1.60857 -0.1253,0.91416 -0.06374,1.30984 0.253071,1.62665 0.268946,0.26895 0.381777,0.73447 0.315538,1.30185 -0.142047,1.21673 0.259661,1.119 0.447983,-0.10899 z m 107.557232,0.7276 c 0,-0.14552 -0.119062,-0.26458 -0.264583,-0.26458 -0.145521,0 -0.264584,0.11906 -0.264584,0.26458 0,0.14552 0.119063,0.26459 0.264584,0.26459 0.145521,0 0.264583,-0.11907 0.264583,-0.26459 z m 5.859704,-2.59188 c -0.214964,-0.5877 -0.260348,-0.38478 -0.254231,1.13667 0.0073,1.80351 0.01412,1.82227 0.261678,0.71541 0.165004,-0.73774 0.16239,-1.38776 -0.0074,-1.85208 z m -1.439646,0.40907 c -0.06306,-0.32742 -0.114662,-0.0595 -0.114662,0.59531 0,0.65485 0.0516,0.92274 0.114662,0.59531 0.06307,-0.32742 0.06307,-0.8632 0,-1.19062 z m 5.003669,1.07429 c 0.351785,-0.5692 0.283313,-2.0182 -0.08862,-1.87547 -0.186599,0.0716 -0.340896,0.32581 -0.342883,0.5649 -0.002,0.2391 -0.0754,0.70261 -0.16315,1.03003 -0.168391,0.62835 0.25597,0.82855 0.594657,0.28054 z m -1.438361,-1.33069 c -0.146488,-0.14649 -0.391436,-0.18903 -0.544329,-0.0945 -0.178316,0.1102 -0.115433,0.33707 0.175384,0.63275 0.358923,0.36492 0.472319,0.38461 0.544329,0.0945 0.05003,-0.20153 -0.0289,-0.48627 -0.175384,-0.63275 z m 16.147573,-0.2566 c -0.206197,-0.2062 -0.32044,-0.21903 -0.32044,-0.036 0,0.15644 -0.386953,0.37685 -0.859895,0.48981 -0.741494,0.1771 -0.777926,0.22062 -0.264584,0.31606 0.327422,0.0609 0.595313,0.24791 0.595313,0.41565 0,0.16774 0.26326,0.0417 0.585023,-0.28004 0.458,-0.458 0.515447,-0.6546 0.264583,-0.90547 z m -13.501099,-0.007 c -0.189855,-0.18985 -0.31309,-0.20548 -0.31309,-0.0397 0,0.35316 0.312899,0.66606 0.489479,0.48948 0.07519,-0.0752 -0.0042,-0.27759 -0.176389,-0.44979 z m 3.75134,-0.33955 c -0.08376,-0.21828 -0.18635,-0.39687 -0.227972,-0.39687 -0.04162,0 -0.14421,0.17859 -0.227972,0.39687 -0.09184,0.23933 -0.0013,0.39688 0.227972,0.39688 0.229313,0 0.319811,-0.15755 0.227972,-0.39688 z m -9.877119,-2.99988 c -0.19569,-0.33528 -0.254564,-0.18836 -0.247911,0.61863 0.0076,0.92565 0.03981,0.98078 0.256637,0.43971 0.15629,-0.39 0.153065,-0.78113 -0.0087,-1.05834 z m 148.264543,1.058 c 0.0755,-0.12215 -0.42349,-0.22817 -1.10886,-0.23561 -1.08178,-0.0117 -1.14144,0.0134 -0.45237,0.19079 1.12431,0.28939 1.4051,0.29745 1.56123,0.0448 z M 55.762569,74.015762 c 0,-0.560397 -0.107125,-0.87545 -0.264583,-0.778136 -0.43864,0.271094 -0.290056,1.719796 0.176389,1.719796 0.04851,0 0.08819,-0.42375 0.08819,-0.94166 z m 2.540616,0.27665 c 0.01489,-0.28909 0.112211,-0.79351 0.216267,-1.120932 0.360948,-1.135754 -0.249765,-0.589046 -0.680714,0.609372 -0.401795,1.11735 -0.401644,1.19861 0.0021,1.12094 0.239408,-0.0461 0.447471,-0.32028 0.462362,-0.60938 z M 202.44874,73.60656 c -0.22086,-0.244043 -0.43517,-0.758944 -0.47625,-1.144224 -0.0753,-0.706624 -0.68909,-1.614269 -0.68909,-1.019058 0,0.162723 -0.0708,0.513958 -0.15725,0.780521 -0.11534,0.355473 -0.09,0.390777 0.095,0.132445 0.18321,-0.25578 0.29708,-0.07209 0.41589,0.670908 0.12615,0.78891 0.28374,1.02312 0.68841,1.02312 0.47436,0 0.4862,-0.0426 0.12325,-0.443712 z M 73.019112,72.631651 c 0.158263,-1.348258 -0.392602,-1.551966 -1.229542,-0.45468 -0.821928,1.077603 -0.740735,1.393672 0.347768,1.353797 0.677051,-0.0248 0.793024,-0.143057 0.881774,-0.899117 z M 60.989648,70.611587 c -0.0275,-1.517083 -0.132101,-2.707589 -0.232449,-2.64557 -0.100349,0.06202 -0.123962,0.380533 -0.05247,0.70781 0.126841,0.580686 0.117007,0.579083 -0.407428,-0.06641 -0.405145,-0.498666 -0.612509,-0.586617 -0.842559,-0.357363 -0.315376,0.314284 -0.114882,1.415696 0.257705,1.415696 0.115526,0 0.08674,0.538835 -0.06396,1.197412 -0.202031,0.882875 -0.192389,1.279031 0.03671,1.508125 0.237894,0.237895 0.310712,0.174297 0.310712,-0.27137 0,-0.320146 0.119063,-0.582084 0.264584,-0.582084 0.145521,0 0.264583,0.337344 0.264583,0.749653 0,0.655828 0.175686,1.102431 0.433677,1.102431 0.04449,0 0.0584,-1.241249 0.0309,-2.758331 z m -7.184995,0.791045 c 0,-0.499924 -0.09525,-0.850085 -0.211667,-0.778135 -0.363003,0.224348 -0.21007,1.687087 0.176389,1.687087 0.0194,0 0.03528,-0.409028 0.03528,-0.908952 z m -2.888426,0.06559 c -0.08446,-0.211067 -0.147157,-0.148372 -0.159853,0.159852 -0.01149,0.278915 0.05105,0.435185 0.138964,0.347266 0.08792,-0.08792 0.09732,-0.316122 0.02089,-0.507118 z m 8.080862,-1.405599 c -0.15605,-0.788309 -0.158277,-0.789216 -0.324728,-0.132292 -0.09218,0.363802 -0.112314,0.883392 -0.04474,1.154644 0.207435,0.832689 0.549381,-0.113503 0.369469,-1.022352 z m 39.098812,0.544782 c 0,-0.06417 -0.119062,-0.190262 -0.264583,-0.280199 -0.145521,-0.08994 -0.264583,-0.03743 -0.264583,0.116677 0,0.154109 0.119062,0.280198 0.264583,0.280198 0.145521,0 0.264583,-0.0525 0.264583,-0.116676 z m -39.331614,-2.14369 c -0.08617,-0.224557 -0.213419,-0.351541 -0.282773,-0.282186 -0.06935,0.06935 -0.04762,0.253083 0.0483,0.408286 0.260892,0.422132 0.413379,0.340124 0.234472,-0.1261 z m -128.678798,0.02703 c 0,-0.06417 -0.119062,-0.190262 -0.264583,-0.280198 -0.145521,-0.08994 -0.264583,-0.03743 -0.264583,0.116676 0,0.154109 0.119062,0.280199 0.264583,0.280199 0.145521,0 0.264583,-0.0525 0.264583,-0.116677 z m 1.058334,0 c 0,-0.06417 -0.119063,-0.190262 -0.264584,-0.280198 -0.145521,-0.08994 -0.264583,-0.03743 -0.264583,0.116676 0,0.154109 0.119062,0.280199 0.264583,0.280199 0.145521,0 0.264584,-0.0525 0.264584,-0.116677 z m 6.001573,-0.991266 c -0.08446,-0.211067 -0.147156,-0.148372 -0.159852,0.159852 -0.01149,0.278915 0.05105,0.435185 0.138964,0.347266 0.08792,-0.08792 0.09732,-0.316122 0.02089,-0.507118 z m 114.119257,-0.09664 c 0,-0.241486 -0.211516,-0.347321 -0.581342,-0.290881 -0.732396,0.111772 -0.92781,0.621796 -0.293196,0.765232 0.615697,0.139161 0.874538,-0.0012 0.874538,-0.474351 z M -69.918562,66.938157 c 0.0022,-0.117729 -0.115011,-0.140468 -0.260532,-0.05053 -0.145521,0.08994 -0.26276,0.364854 -0.260532,0.610927 0.0035,0.385571 0.0395,0.392555 0.260532,0.05053 0.141064,-0.218281 0.258304,-0.493198 0.260532,-0.610927 z"
       id="path3" /></g></svg>
