<?xml version="1.0" encoding="UTF-8" standalone="no"?>
<!-- Created with Inkscape (http://www.inkscape.org/) -->

<svg
   width="362.47916mm"
   height="155.04584mm"
   viewBox="0 0 362.47916 155.04584"
   version="1.1"
   id="svg1"
   xml:space="preserve"
   xmlns="http://www.w3.org/2000/svg"
   xmlns:svg="http://www.w3.org/2000/svg"><defs
     id="defs1" /><g
     id="layer1"
     transform="translate(71.761731,-65.600848)"><path
       style="fill:#000000"
       d="m -71.755758,146.41507 c 0.0054,-67.465901 0.0444,-74.290259 0.427566,-74.875045 0.432306,-0.659783 0.314005,-1.605483 -0.163889,-1.310128 -0.170953,0.105655 -0.266452,-0.646968 -0.266452,-2.099897 0,-1.778522 0.08054,-2.264573 0.375235,-2.264573 0.20638,0 0.552986,-0.06821 0.770236,-0.151576 0.329964,-0.126619 0.357982,0.01256 0.17017,0.845291 -0.123656,0.548276 -0.165579,1.092736 -0.09316,1.209909 0.07242,0.117173 0.0056,0.213042 -0.148531,0.213042 -0.154109,0 -0.280198,0.120072 -0.280198,0.266826 0,0.158163 0.215498,0.132244 0.529166,-0.06364 0.315141,-0.196808 0.529167,-0.617016 0.529167,-1.038936 0,-1.293178 0.238599,-1.545495 1.461467,-1.545495 0.664652,0 1.195933,0.137951 1.273721,0.330729 0.106762,0.264584 0.13763,0.264584 0.15434,0 0.01581,-0.250376 1.081543,-0.330729 4.386513,-0.330729 h 4.365625 v 0.79375 c 0,0.436563 0.119063,0.79375 0.264584,0.79375 0.14552,0 0.264583,0.238125 0.264583,0.529167 0,0.291042 -0.10072,0.529167 -0.223821,0.529167 -0.123102,0 -0.189661,0.446484 -0.147909,0.992187 0.04175,0.545703 0.08294,1.148042 0.09153,1.338532 0.0086,0.190489 0.134679,0.272759 0.2802,0.182822 0.145521,-0.08994 0.264583,-0.686415 0.264583,-1.325508 0,-0.639093 0.128929,-1.76316 0.286508,-2.497927 l 0.286508,-1.33594 h 53.9530742 c 29.6741908,0 53.9530738,0.06248 53.9530738,0.138841 0,0.07636 -0.297656,0.252009 -0.661458,0.390326 -0.848545,0.322616 -0.843599,0.69067 0.01217,0.905453 0.903758,0.226829 1.254369,-0.03781 1.062563,-0.802026 -0.08962,-0.357093 -0.04135,-0.632594 0.110854,-0.632594 0.148293,0 0.269624,0.178594 0.269624,0.396875 0,0.218281 0.119062,0.396875 0.264583,0.396875 0.145521,0 0.264584,-0.178594 0.264584,-0.396875 0,-0.241374 0.246209,-0.396875 0.628385,-0.396875 0.743899,0 1.028246,0.936487 0.774879,2.55203 -0.159944,1.019845 -0.159944,1.019845 0.409021,0.515817 0.59847,-0.530166 0.797261,-2.101772 0.304381,-2.406388 -0.66353,-0.410085 -0.127922,-0.661459 1.409385,-0.661459 1.673967,0 1.673967,0 1.557469,0.79375 -0.113502,0.773339 0.308337,1.130578 0.54675,0.463021 0.280552,-0.785547 0.520335,0.194961 0.498854,2.039892 -0.02311,1.985128 0.189201,2.414874 0.756872,1.531983 0.278068,-0.432474 0.287666,-0.431056 0.145494,0.0215 -0.08372,0.266485 0.02635,0.739461 0.244606,1.051059 0.39682,0.56654 0.39682,0.56654 0.39682,-0.0215 0,-0.323421 0.119062,-0.588038 0.264583,-0.588038 0.145521,0 0.264584,0.357188 0.264584,0.79375 0,0.436563 0.106556,0.79375 0.236792,0.79375 0.3321,0 0.517038,-2.121963 0.2494,-2.861594 -0.131416,-0.363175 -0.111325,-0.818845 0.04934,-1.119051 0.371163,-0.693523 0.05174,-1.953208 -0.400173,-1.578151 -0.183079,0.151942 -0.526556,0.201935 -0.763282,0.111095 -0.248935,-0.09553 -0.430411,-0.03238 -0.430411,0.149775 0,0.173217 -0.148828,0.265002 -0.330729,0.203968 -0.181901,-0.06104 -0.332095,-0.304955 -0.333764,-0.542045 -0.0017,-0.237091 -0.239795,-0.610008 -0.529167,-0.828704 -0.473553,-0.357894 0.03574,-0.398471 5.096264,-0.406045 4.201261,-0.0063 5.622396,0.07184 5.622396,0.309085 0,0.246945 0.07056,0.246945 0.3175,0 0.245227,-0.245227 15.162715,-0.3175 65.533469,-0.3175 65.21596,0 65.21596,0 65.80876,0.556906 0.5928,0.556907 0.5928,0.556907 0.9406,0 0.34779,-0.556906 0.34779,-0.556906 44.73414,-0.556906 h 44.38636 v 77.522922 77.52292 H 109.47945 -71.761731 Z M 38.30813,205.18418 c 0,-0.2097 -0.119062,-0.45485 -0.264583,-0.54479 -0.145521,-0.0899 -0.264583,0.0816 -0.264583,0.38126 0,0.29963 0.119062,0.54479 0.264583,0.54479 0.145521,0 0.264583,-0.17157 0.264583,-0.38126 z M 27.989381,204.5071 c 0,-0.14552 -0.152626,-0.26458 -0.339168,-0.26458 -0.527121,0 -0.520957,-1.34834 0.0079,-1.73507 0.621113,-0.45417 0.300855,-0.70803 -0.984723,-0.78057 -1.048596,-0.0592 -1.06529,-0.0459 -1.06529,0.84727 0,1.21325 0.729225,2.17866 1.653645,2.18922 0.400183,0.005 0.727605,-0.11075 0.727605,-0.25627 z m 3.122705,-0.80725 c 1.180037,-0.25307 1.285527,-0.33637 1.172804,-0.92604 -0.149069,-0.77981 -0.850125,-0.85959 -1.043847,-0.11879 -0.07611,0.29104 -0.352881,0.52917 -0.615048,0.52917 -0.663728,0 -1.313698,0.27581 -1.313698,0.55747 0,0.30221 0.219441,0.29711 1.799789,-0.0418 z m 2.924813,-1.54498 c 0.254343,-0.16116 0.272365,-0.28098 0.06183,-0.4111 -0.163431,-0.10101 -0.220791,-0.3072 -0.127467,-0.4582 0.112899,-0.18267 0.234832,-0.16913 0.364371,0.0405 0.140252,0.22693 0.239654,0.19784 0.355498,-0.10405 0.103476,-0.26965 0.01671,-0.41905 -0.243378,-0.41905 -0.222302,0 -0.330601,-0.11907 -0.240664,-0.26459 0.253793,-0.41064 -0.312035,-0.31162 -0.755953,0.13229 -0.218281,0.21828 -0.524442,0.39688 -0.680357,0.39688 -0.319684,0 -0.358973,0.28916 -0.122883,0.9044 0.175225,0.45663 0.822529,0.54189 1.389003,0.18295 z m -5.981187,-1.19741 c 0.282207,0.28221 0.513267,-0.99337 0.343685,-1.89732 -0.157549,-0.83981 -0.121178,-0.90304 0.519437,-0.90304 0.454638,0 1.11092,-0.40273 1.930219,-1.18449 l 1.241369,-1.18449 -1.016059,-0.006 c -1.304496,-0.008 -3.018837,1.15494 -3.018837,2.04762 0,0.81462 -0.229956,1.0051 -0.72121,0.59739 -0.27578,-0.22888 -0.403269,-0.2408 -0.403269,-0.0377 0,0.55122 -0.04416,0.69284 -0.319479,1.02458 -0.189746,0.22863 -0.18929,0.33073 0.0015,0.33073 0.151776,0 0.355658,0.36288 0.453071,0.8064 0.133294,0.60688 0.259075,0.73837 0.508388,0.53146 0.1822,-0.15121 0.398744,-0.20746 0.481208,-0.125 z m 8.929502,-1.5797 c 0,-0.20528 -0.349361,-0.41812 -0.793216,-0.48327 -0.753432,-0.11058 -0.771281,-0.0922 -0.355868,0.36685 0.51714,0.57143 1.149084,0.63546 1.149084,0.11642 z m 3.575631,-2.14366 c 0.592331,-0.005 3.878119,-3.86868 3.695181,-4.34541 -0.08527,-0.2222 -0.08345,-0.33242 0.004,-0.24493 0.316962,0.31696 2.51463,-2.24794 2.518781,-2.93968 0.0028,-0.47058 0.07182,-0.56819 0.227763,-0.32219 0.175983,0.27762 0.268272,0.2494 0.432573,-0.13229 0.114873,-0.26686 0.251937,-0.70785 0.304586,-0.97996 0.05265,-0.27212 0.381623,-0.83453 0.731054,-1.2498 0.381319,-0.45317 0.581941,-0.9592 0.501795,-1.26568 -0.09415,-0.36001 0.03695,-0.56474 0.444457,-0.69408 0.49858,-0.15824 0.554111,-0.31072 0.404188,-1.10988 -0.102964,-0.54884 -0.0735,-0.86445 0.0723,-0.77434 0.697712,0.43121 2.24974,-2.66398 2.124624,-4.23711 -0.07634,-0.95984 -0.01341,-1.15457 0.373101,-1.15457 0.258213,0 0.474482,0.20587 0.486416,0.46303 0.01391,0.29964 0.143395,0.18643 0.366978,-0.32086 0.373453,-0.84732 0.266104,-1.42876 -0.348914,-1.88984 -0.231201,-0.17333 -0.318657,-0.47869 -0.214695,-0.74961 0.217203,-0.56602 0.850901,-0.38837 0.797691,0.22363 -0.0214,0.24613 0.09766,0.40084 0.264584,0.3438 0.16692,-0.057 0.264038,-0.37355 0.215815,-0.70335 -0.04963,-0.33942 0.02392,-0.53067 0.169497,-0.4407 0.280019,0.17306 1.107895,-0.93113 1.110281,-1.48085 8.11e-4,-0.18702 0.123051,-0.77776 0.271643,-1.31275 0.214402,-0.77194 0.433026,-1.00849 1.059167,-1.14601 0.433949,-0.0953 0.721402,-0.28267 0.638783,-0.41635 -0.08262,-0.13368 0.03541,-0.24305 0.262274,-0.24305 0.22687,0 0.660227,-0.24774 0.963016,-0.55053 0.530052,-0.53005 0.532512,-0.56396 0.06615,-0.9118 -0.423474,-0.31585 -0.539998,-0.28914 -0.926707,0.2124 -0.24328,0.31552 -0.385081,0.6663 -0.315114,0.77951 0.06997,0.11321 0.0011,0.20583 -0.152986,0.20583 -0.154109,0 -0.280198,-0.24595 -0.280198,-0.54656 0,-0.3006 -0.108,-0.74836 -0.239999,-0.995 -0.3577,-0.66837 -0.05021,-1.80024 0.690215,-2.54066 0.526013,-0.52601 0.620593,-0.8149 0.478537,-1.46168 -0.09738,-0.44335 -0.07463,-0.8061 0.05055,-0.8061 0.260405,0 0.873521,-1.34172 1.148592,-2.51354 0.57806,-2.46257 1.091277,-4.00051 1.415225,-4.24097 0.443461,-0.32917 1.220622,-2.94318 1.405884,-4.72875 0.074,-0.71324 0.359524,-1.66574 0.634492,-2.11667 0.274968,-0.45092 0.500387,-1.20976 0.500931,-1.6863 0.0014,-1.18404 0.778079,-1.45852 3.264133,-1.15347 1.042927,0.12797 1.985527,0.1813 2.094668,0.11849 0.109141,-0.0628 0.198437,-0.69282 0.198437,-1.40004 0,-0.73445 0.198558,-1.6391 0.463021,-2.10958 0.45715,-0.81327 0.454641,-0.83012 -0.197902,-1.32884 -0.653366,-0.49935 -0.667737,-0.49872 -1.256771,0.0546 -0.327716,0.30788 -0.595848,0.71761 -0.595848,0.91053 0,0.19291 -0.126089,0.35075 -0.280198,0.35075 -0.154109,0 -0.209607,0.11422 -0.123328,0.25382 0.166469,0.26936 -0.3918,1.33368 -0.699553,1.33368 -0.100122,0 -0.364079,-0.18204 -0.586571,-0.40453 -0.412433,-0.41243 -0.300927,-1.29979 0.129875,-1.03354 0.130272,0.0805 0.236859,-0.0392 0.236859,-0.2661 0,-0.51793 -0.256133,-0.52126 -0.982093,-0.0128 -0.313869,0.21984 -0.629462,0.30458 -0.70132,0.18832 -0.238785,-0.38637 0.39193,-11.5519 0.671574,-11.88885 0.185156,-0.2231 0.934531,-0.31113 2.296971,-0.26984 2.022159,0.0613 2.022159,0.0613 2.10631,-0.67078 0.04628,-0.40264 0.254158,-1.05748 0.461944,-1.45521 0.335748,-0.64266 0.328988,-0.75932 -0.06074,-1.04815 -0.504973,-0.37424 -2.981613,-0.39441 -3.438358,-0.028 -0.19196,0.15399 -0.369142,0.14615 -0.472387,-0.0209 -0.110739,-0.17918 -0.394797,-0.18004 -0.861499,-0.003 -0.486243,0.18487 -0.750739,0.17662 -0.876797,-0.0273 -0.23126,-0.37419 -0.57503,-6.58542 -0.526789,-9.51802 0.10452,-6.35382 0.346863,-8.52076 0.927995,-8.29776 0.524665,0.20133 0.702933,-0.31753 0.364383,-1.06057 -0.618951,-1.35845 -1.55292,-1.17156 -1.559075,0.31197 -0.0047,1.13179 -0.335258,1.78659 -0.767164,1.51966 -0.21125,-0.13056 -0.279351,0.15565 -0.228019,0.95829 0.06172,0.96504 6.07e-4,1.13226 -0.389828,1.06671 -0.290811,-0.0488 -0.463021,0.0906 -0.463021,0.37482 0,0.24892 -0.05962,0.39295 -0.132499,0.32007 -0.07288,-0.0729 -0.02872,-0.68803 0.09813,-1.36701 0.130932,-0.70084 0.131022,-1.23451 2.08e-4,-1.23451 -0.126733,0 -0.230424,0.13169 -0.230424,0.29265 0,0.16095 -0.303867,0.53167 -0.675261,0.82381 -0.616626,0.48504 -0.639601,0.57056 -0.264583,0.98495 0.225872,0.24959 0.410677,0.66736 0.410677,0.92838 0,0.35978 0.08333,0.40542 0.344497,0.18868 0.492462,-0.40871 1.433883,-0.0893 1.599115,0.54254 0.232381,0.88863 -0.12026,3.09052 -0.473263,2.95506 -0.410568,-0.15755 -1.294028,0.82724 -1.14135,1.27226 0.06529,0.19032 0.0202,0.69471 -0.100213,1.12087 -0.205752,0.72818 0.16447,4.19882 0.508487,4.7668 0.218293,0.36041 0.789746,-1.48049 0.638929,-2.05827 -0.09858,-0.37767 -0.176371,-0.40703 -0.350525,-0.13229 -0.153515,0.24218 -0.236932,0.10376 -0.265553,-0.44065 -0.02295,-0.43656 -0.07395,-1.18071 -0.113325,-1.65365 -0.03938,-0.47294 -0.02517,-0.85989 0.03158,-0.85989 0.372393,0 0.9316,1.47121 1.062963,2.79654 0.08554,0.863 0.261129,1.97855 0.390202,2.479 0.129073,0.50046 0.169102,1.1712 0.08895,1.49053 -0.08015,0.31934 -0.02709,1.01027 0.117905,1.5354 0.275972,0.99949 -0.013,1.53809 -0.541613,1.00948 -0.150574,-0.15057 -0.435675,-0.21164 -0.633559,-0.1357 -0.426289,0.16358 -0.0159,1.1435 0.478892,1.1435 0.165322,0 0.518321,0.19704 0.784441,0.43788 0.661448,0.5986 0.645211,2.97334 -0.03252,4.75646 -0.28386,0.74684 -0.471587,1.40241 -0.417171,1.45683 0.05442,0.0544 0.168247,0.99118 0.252959,2.0817 0.08471,1.09051 0.227936,2.31587 0.318277,2.72301 0.11295,0.50904 0.03586,0.83961 -0.246813,1.05833 -0.226088,0.17495 -0.546481,0.8359 -0.711985,1.46879 -0.251815,0.96296 -0.23393,1.22474 0.109609,1.60435 0.253044,0.27961 0.316301,0.54866 0.1649,0.70136 -0.135094,0.13626 -0.36754,1.0078 -0.516547,1.93675 -0.149006,0.92895 -0.43547,1.88145 -0.636587,2.11667 -0.617695,0.72242 -0.722816,1.35575 -0.348237,2.09806 0.388986,0.77087 0.306347,1.37231 -0.188557,1.37231 -0.17115,0 -0.459893,0.23812 -0.641652,0.52916 -0.389534,0.62375 -0.855152,0.69578 -0.855152,0.1323 0,-0.21829 -0.105074,-0.39688 -0.233498,-0.39688 -0.128424,0 -0.3193,0.92273 -0.424168,2.05052 -0.104868,1.12779 -0.262892,2.16886 -0.351165,2.31349 -0.243493,0.39896 -2.198672,5.99388 -2.3583,6.74849 -0.278079,1.31457 -1.07656,1.85208 -2.751259,1.85208 -1.03501,0 -1.596519,0.11988 -1.739817,0.37142 -0.116372,0.20429 -0.509241,0.41265 -0.873043,0.46303 -0.829746,0.1149 -1.011117,1.15274 -0.40596,2.32299 0.457989,0.88565 1.319112,1.0717 2.255029,0.48721 0.370503,-0.23138 0.60044,-0.24264 0.803738,-0.0393 0.351091,0.35109 -0.23295,2.47535 -0.734578,2.67179 -0.181901,0.0712 -0.330729,0.49606 -0.330729,0.94405 0,0.448 -0.222209,1.06034 -0.493799,1.36076 -0.271589,0.30042 -0.704483,1.11177 -0.961987,1.80299 -0.257504,0.69122 -0.562429,1.25677 -0.677612,1.25677 -0.264571,0 -1.570769,2.73661 -1.570769,3.29091 0,0.22729 -0.111039,0.41326 -0.246753,0.41326 -0.135715,0 -0.325879,0.2493 -0.422587,0.554 -0.09671,0.3047 -0.522127,1.06711 -0.945377,1.69425 -0.423249,0.62713 -0.844135,1.5132 -0.935301,1.96903 -0.09117,0.45583 -0.366386,0.97334 -0.611599,1.15002 -0.245213,0.17668 -0.671865,0.70819 -0.948117,1.18114 -0.276251,0.47294 -0.568591,0.85989 -0.649644,0.85989 -0.08105,0 -0.381665,0.44649 -0.668026,0.99219 -0.28636,0.5457 -0.640857,1.07966 -0.787771,1.18657 -0.146914,0.10691 -0.164111,0.19621 -0.03822,0.19844 0.125895,0.002 -0.737308,0.95736 -1.918229,2.12252 -1.180921,1.16516 -2.147128,2.17719 -2.147128,2.24896 0,0.0718 0.238125,0.13049 0.529166,0.13049 0.291042,0 0.529167,0.16867 0.529167,0.37482 0,0.56272 0.615029,0.68132 1.001357,0.19309 0.186945,-0.23625 0.511931,-0.43091 0.722191,-0.43258 z m 14.070469,-26.1212 c 0.235169,-0.25985 0.443145,-0.47247 0.462168,-0.47247 0.01902,0 0.03459,0.21262 0.03459,0.47247 0,0.27326 -0.194875,0.47247 -0.462168,0.47247 -0.426921,0 -0.429559,-0.036 -0.03459,-0.47247 z m 12.954281,-41.70215 c -0.537476,-0.59391 -0.55498,-0.83907 -0.05991,-0.83907 0.423728,0 1.209524,0.69985 1.209524,1.07724 0,0.41502 -0.687357,0.27262 -1.149618,-0.23817 z m -42.242048,66.27691 c 0,-0.19403 -0.07834,-0.43112 -0.174093,-0.52687 -0.239271,-0.23928 -0.913482,0.35369 -0.73342,0.64504 0.225453,0.36479 0.907513,0.27598 0.907513,-0.11817 z M 168.74771,191.5712 c 0,-0.32253 -0.25289,-0.56395 -0.71126,-0.679 -0.39119,-0.0982 -0.84826,-0.36587 -1.0157,-0.59485 -0.22854,-0.31256 -0.42441,-0.3492 -0.78573,-0.147 -0.42806,0.23955 -0.37559,0.31951 0.47436,0.72284 0.52561,0.24942 1.09478,0.62112 1.26481,0.82599 0.43202,0.52055 0.77352,0.46405 0.77352,-0.12798 z m 1.53169,-2.87295 c -0.35998,-0.43521 -0.91108,-0.42147 -1.08318,0.027 -0.0966,0.25177 0.084,0.34973 0.60974,0.33073 0.56558,-0.0204 0.68056,-0.10732 0.47344,-0.35772 z m 27.1756,-5.09323 c -0.0899,-0.14552 -0.27555,-0.26459 -0.41249,-0.26459 -0.13693,0 -0.24896,0.11907 -0.24896,0.26459 0,0.14552 0.18562,0.26458 0.41249,0.26458 0.22687,0 0.3389,-0.11906 0.24896,-0.26458 z m 2.59477,-0.62433 c 0.0938,0.0938 0.33695,0.0325 0.54031,-0.13628 0.20335,-0.16877 0.59318,-0.22298 0.86629,-0.12046 0.42214,0.15846 0.44674,0.12504 0.16414,-0.22301 -0.19699,-0.24261 -0.58911,-0.36033 -0.96254,-0.28894 -0.34657,0.0662 -0.85783,-10e-4 -1.13614,-0.15036 -0.4512,-0.24147 -0.51301,-0.16695 -0.57058,0.68794 -0.0621,0.92203 -0.0456,0.94155 0.43169,0.50964 0.27294,-0.24701 0.57301,-0.37235 0.66683,-0.27853 z m -0.73554,-3.33287 c -0.086,-0.13916 -0.33116,-0.18596 -0.54478,-0.10398 -0.54693,0.20987 -0.48248,0.35701 0.15638,0.35701 0.29963,0 0.47441,-0.11386 0.3884,-0.25303 z M 57.749477,177.15754 c -0.103775,-0.45571 -0.178065,-1.45364 -0.165089,-2.21763 0.02594,-1.52726 -0.329348,-1.8658 -0.59006,-0.56224 -0.254846,1.27423 -0.195866,3.14193 0.09922,3.14193 0.145521,0 0.264584,0.18562 0.264584,0.41249 0,0.23173 0.127087,0.33395 0.290014,0.23325 0.1797,-0.11106 0.218245,-0.49441 0.101333,-1.0078 z m -33.338766,-3.59355 c 0.766961,-1.48314 0.53668,-2.00079 -1.18383,-2.66112 -0.987293,-0.37892 -3.183948,-2.24902 -4.167188,-3.5477 -0.3993,-0.5274 -0.595312,-1.15427 -0.595312,-1.90387 0,-1.8401 0.363135,-2.34743 1.130767,-1.5798 0.323365,0.32336 0.358142,0.20128 0.253345,-0.88936 -0.08976,-0.93415 0.0062,-1.46369 0.367539,-2.02846 0.500161,-0.78172 2.935325,-3.20777 4.8836,-4.86533 0.598653,-0.50932 1.312128,-1.13137 1.5855,-1.38233 0.273371,-0.25096 0.800864,-0.53255 1.172206,-0.62575 0.371342,-0.0932 0.795278,-0.39388 0.942081,-0.66819 0.146802,-0.2743 0.441318,-0.49873 0.654479,-0.49873 0.213161,0 0.387566,-0.10098 0.387566,-0.2244 0,-0.42417 3.060807,-1.51124 4.759797,-1.69048 0.381103,-0.0402 0.695977,-0.26479 0.747068,-0.53284 0.06587,-0.34558 -0.06519,-0.44646 -0.515619,-0.39688 -0.396748,0.0437 -0.637,-0.0924 -0.700323,-0.39655 -0.109632,-0.52662 0.885667,-0.67595 1.05807,-0.15875 0.05578,0.16735 0.274064,0.2425 0.485069,0.16699 0.268512,-0.0961 0.159406,-0.24253 -0.363562,-0.48797 -0.585819,-0.27493 -0.856493,-0.28242 -1.253181,-0.0347 -0.278285,0.17379 -0.647041,0.31599 -0.819458,0.31599 -0.172417,0 -0.505845,0.17408 -0.740951,0.38685 -0.433679,0.39247 -1.598577,0.28456 -1.598577,-0.14809 0,-0.30461 1.21823,-0.59928 1.572462,-0.38035 0.153792,0.0951 0.279621,-0.003 0.279621,-0.21762 0,-0.21475 0.148829,-0.4505 0.33073,-0.5239 0.210859,-0.0851 0.174883,-0.14102 -0.09926,-0.15434 -0.622248,-0.0302 -4.464802,1.76772 -4.464802,2.0891 0,0.1492 -0.297656,0.27126 -0.661458,0.27126 -0.363802,0 -0.661458,0.12446 -0.661458,0.27658 0,0.17296 -0.348107,0.21126 -0.92927,0.10224 -0.76807,-0.14409 -0.902273,-0.10399 -0.773645,0.23122 0.189483,0.49378 -0.60121,1.77121 -1.096331,1.77121 -0.368503,0 -0.981809,0.89325 -0.76332,1.11174 0.06764,0.0676 -0.05561,0.12299 -0.273893,0.12299 -0.218281,0 -0.396875,-0.11634 -0.396875,-0.25854 0,-0.14219 -0.422172,0.29437 -0.938161,0.97014 -0.515989,0.67577 -1.034384,1.22867 -1.15199,1.22867 -0.498253,0 -3.466098,3.38876 -3.466098,3.95768 0,0.1632 -0.239798,0.76678 -0.532883,1.34128 -0.866822,1.69911 -0.96624,3.88442 -0.274578,6.03549 0.652595,2.02957 1.014068,2.32709 3.156259,2.59782 0.672692,0.085 1.359311,0.32432 1.52582,0.53178 0.319876,0.39856 0.198476,1.31266 -0.250369,1.88519 -0.185646,0.2368 -0.163727,0.44019 0.07129,0.66146 0.265229,0.24972 0.365302,0.24891 0.458121,-0.004 0.07837,-0.21329 0.341154,-0.10082 0.772704,0.33073 0.875649,0.87565 1.582254,0.83258 2.078302,-0.12667 z m 3.049503,-1.16428 c 0.509323,0.007 1.21255,0.10929 1.562727,0.22691 0.44017,0.14783 0.581223,0.1241 0.456991,-0.0769 -0.112102,-0.18138 0.0465,-0.27835 0.421648,-0.25779 1.275617,0.0699 2.346142,-0.074 2.208367,-0.29697 -0.196723,-0.3183 -1.474733,-0.54317 -1.474733,-0.25948 0,0.12534 -0.20836,0.22607 -0.463021,0.22384 -0.388555,-0.003 -0.400386,-0.0437 -0.07356,-0.25035 0.701864,-0.44387 -0.423064,-0.63267 -1.65231,-0.27732 -0.61512,0.17782 -1.55665,0.38192 -2.092289,0.45356 -0.715242,0.0957 -0.934547,0.23278 -0.825753,0.51629 0.09546,0.24876 0.300647,0.31476 0.577014,0.1856 0.235883,-0.11023 0.845597,-0.19455 1.35492,-0.18737 z m 180.862616,-3.1996 c 0.12801,-0.51005 0.0677,-0.67634 -0.24519,-0.67634 -0.26472,0 -0.52353,0.40709 -0.71491,1.12448 -0.16498,0.61846 -0.40789,1.33122 -0.53979,1.58391 -0.13189,0.25268 -0.23755,0.60987 -0.23478,0.79375 0.007,0.47216 1.52929,-2.0075 1.73467,-2.8258 z m 12.7074,1.75112 c -0.29103,-0.29103 -0.50508,-0.33574 -0.69555,-0.14526 -0.36325,0.36324 -0.0633,1.10405 0.49233,1.21602 0.5955,0.11999 0.72287,-0.55112 0.20322,-1.07076 z m -185.963245,0.49008 c 0.618463,-0.28073 1.124479,-0.62416 1.124479,-0.76317 0,-0.32586 -1.069662,-0.0671 -1.597257,0.38646 -0.223648,0.19224 -0.670132,0.28063 -0.992188,0.19641 -0.557445,-0.14578 -0.786483,0.14864 -0.409166,0.52595 0.275688,0.27569 0.662424,0.20436 1.874132,-0.34565 z m 2.628237,-0.32051 c -0.471777,-0.17195 -0.693251,-0.40699 -0.603616,-0.64057 0.07787,-0.20293 0.02626,-0.36896 -0.114696,-0.36896 -0.289295,0 -0.350341,0.87608 -0.07989,1.14653 0.09701,0.097 0.483967,0.16698 0.859896,0.1555 0.683507,-0.0209 0.683507,-0.0209 -0.06169,-0.2925 z m 129.464988,0.0771 c 0,-0.12995 -0.17859,-0.30481 -0.39687,-0.38857 -0.24175,-0.0928 -0.39688,-4.2e-4 -0.39688,0.23627 0,0.21372 0.1786,0.38857 0.39688,0.38857 0.21828,0 0.39687,-0.10632 0.39687,-0.23627 z m 25.4,-0.007 c 0,-0.54279 -0.34309,-1.07997 -0.68976,-1.07997 -0.4406,0 -0.45639,0.13527 -0.0947,0.81114 0.2822,0.5273 0.78444,0.69942 0.78444,0.26883 z M 41.218547,170.01299 c 0.860168,0.0527 0.889508,0.03 0.412451,-0.31937 -0.59388,-0.4349 -1.047844,-0.49745 -0.809326,-0.11152 0.08994,0.14552 0.03743,0.26458 -0.116677,0.26458 -0.154109,0 -0.280198,-0.2024 -0.280198,-0.44979 0,-0.34984 -0.07056,-0.37923 -0.3175,-0.13229 -0.174625,0.17463 -0.621109,0.32505 -0.992188,0.33427 -0.674687,0.0168 -0.674687,0.0168 -0.04917,0.26723 0.54572,0.21851 0.580493,0.30919 0.27259,0.71083 -0.255265,0.33299 -0.172106,0.31081 0.300528,-0.0801 0.428913,-0.35479 0.971659,-0.52104 1.579494,-0.4838 z m -2.5064,0.37442 c -0.08601,-0.13917 -0.331161,-0.18596 -0.544782,-0.10399 -0.546923,0.20988 -0.482473,0.35701 0.15638,0.35701 0.29963,0 0.474411,-0.11386 0.388402,-0.25302 z m 29.988742,-0.39618 c 0.635966,-0.23565 1.493256,-0.6027 1.90509,-0.81567 0.411834,-0.21296 1.049382,-0.38721 1.416773,-0.38721 0.536582,0 0.776479,-0.23816 1.219515,-1.21068 0.432412,-0.94921 0.483987,-1.29207 0.238799,-1.5875 -0.402807,-0.48536 -2.199562,-0.46905 -3.489082,0.0317 -0.545704,0.21189 -1.421063,0.54673 -1.945243,0.74408 -0.52418,0.19736 -1.050887,0.51712 -1.17046,0.71059 -0.170678,0.27617 -0.29983,0.28337 -0.600909,0.0335 -0.210928,-0.17505 -0.596721,-0.23646 -0.857319,-0.13646 -0.315542,0.12109 -0.41265,0.0828 -0.290708,-0.11445 0.268622,-0.43464 -0.804071,-0.91869 -1.495355,-0.67478 -0.716822,0.25292 -0.842782,0.26398 -3.561881,0.31278 -2.495524,0.0448 -2.685893,0.26686 -1.280016,1.49316 0.902796,0.78748 0.902796,0.78748 0.198437,1.09026 -0.597213,0.25672 -0.635464,0.33144 -0.251454,0.49119 0.253853,0.10561 0.820082,0.005 1.288349,-0.22836 0.567478,-0.28309 0.97383,-0.33718 1.266888,-0.16863 0.348978,0.20071 0.254443,0.28835 -0.4946,0.4585 -0.902479,0.205 -0.889015,0.21372 0.529167,0.34264 2.670061,0.24273 6.174159,0.06 7.374009,-0.38462 z m 2.267706,-1.60817 c 0.282475,-0.21365 0.818256,-0.38323 1.190625,-0.37685 0.56083,0.01 0.495386,0.0771 -0.381299,0.3929 -1.320716,0.4758 -1.456061,0.47312 -0.809326,-0.0161 z m -24.543694,1.08597 c 0.306586,0.0951 0.262367,0.0175 -0.121424,-0.21313 -0.331986,-0.19952 -0.534825,-0.43154 -0.450754,-0.51561 0.08407,-0.0841 -0.20985,-0.2061 -0.653159,-0.27116 -0.44331,-0.0651 -0.806017,-0.0199 -0.806017,0.10046 0,0.12032 0.26789,0.23498 0.595312,0.25479 0.595313,0.036 0.595313,0.036 -0.01544,0.15272 -0.489836,0.0936 -0.549815,0.19012 -0.302946,0.48758 0.220628,0.26584 0.444391,0.29779 0.790028,0.11281 0.265219,-0.14194 0.699201,-0.19075 0.964405,-0.10846 z m -3.221979,-0.15151 c 0.369387,-0.15873 0.409332,-0.23894 0.132291,-0.26565 -0.218281,-0.021 -0.660491,-0.0875 -0.98269,-0.14778 -0.434136,-0.0812 -0.546692,-0.008 -0.434713,0.28425 0.167515,0.43653 0.49358,0.46931 1.285112,0.12918 z m 5.291666,-0.26459 c -0.08994,-0.14552 -0.335088,-0.26458 -0.544781,-0.26458 -0.209693,0 -0.38126,0.11906 -0.38126,0.26458 0,0.14553 0.245151,0.26459 0.544781,0.26459 0.29963,0 0.471197,-0.11906 0.38126,-0.26459 z m 0,-1.05833 c 0.348917,-0.14993 0.393979,-0.23234 0.132292,-0.24193 -0.218281,-0.008 -0.575469,0.10087 -0.79375,0.24193 -0.483649,0.31256 -0.0659,0.31256 0.661458,0 z m 28.87692,-2.37638 c 0.707069,-0.57941 1.473018,-1.38308 1.70211,-1.78594 0.311343,-0.5475 0.652583,-0.75264 1.35128,-0.81234 0.823064,-0.0703 0.974279,0.0156 1.265581,0.71884 0.459381,1.10904 1.033234,1.56179 1.348347,1.06381 0.132202,-0.20893 0.24219,-0.63152 0.244418,-0.9391 0.0022,-0.30758 0.327638,-0.88282 0.723133,-1.27831 0.71908,-0.71908 0.71908,-0.71908 0.165396,-1.16056 -0.304526,-0.24281 -0.648238,-0.79867 -0.763804,-1.23523 -0.209523,-0.7915 -0.210603,-0.79058 -0.380968,0.32582 -0.09397,0.61576 -0.22267,1.1572 -0.286007,1.2032 -0.338521,0.24585 -1.653658,0.72484 -1.743493,0.63501 -0.05761,-0.0576 0.164299,-0.60879 0.49313,-1.22485 0.593395,-1.1117 0.59394,-1.12282 0.07279,-1.48363 -0.288796,-0.19995 -0.676573,-0.49384 -0.861725,-0.6531 -0.185152,-0.15926 -0.58046,-0.21218 -0.878462,-0.1176 -0.408015,0.1295 -0.577529,0.0354 -0.686406,-0.38092 -0.07952,-0.30409 -0.263646,-0.55289 -0.409167,-0.55289 -0.145521,0 -0.202344,0.23801 -0.126272,0.52891 0.07607,0.29089 0.03153,0.59489 -0.09898,0.67555 -0.130509,0.0807 -0.219327,0.60502 -0.197376,1.16524 0.03384,0.86365 -0.155617,1.24746 -1.245457,2.52314 -1.133713,1.32702 -1.323141,1.45288 -1.605499,1.06673 -0.26585,-0.36357 -0.335477,-0.16562 -0.410645,1.16742 -0.08415,1.49241 -0.0507,1.60519 0.475988,1.60475 0.311577,-2.7e-4 1.145014,-0.47455 1.852083,-1.05395 z m -14.642782,-0.26079 c -0.07486,-0.28627 -0.300432,-0.65687 -0.501266,-0.82354 -0.500369,-0.41527 -0.819394,0.40739 -0.368617,0.95054 0.477898,0.57583 1.032503,0.49486 0.869883,-0.127 z m 0.456895,-2.11955 c -1.078899,-0.93573 -1.488243,-0.60297 -0.469679,0.3818 0.327422,0.31656 0.705823,0.48052 0.840892,0.36435 0.14245,-0.12252 -0.01344,-0.43586 -0.371213,-0.74615 z m 25.158045,-0.60109 c 0.01611,-0.1819 0.0067,-0.60541 -0.02091,-0.94113 -0.03788,-0.46058 0.149766,-0.68588 0.764463,-0.91791 0.478305,-0.18054 0.814663,-0.49688 0.814663,-0.76619 0,-0.39649 -0.188362,-0.43783 -1.389063,-0.30484 -2.35458,0.2608 -3.99137,2.42985 -2.315104,3.06794 0.752805,0.28657 2.116125,0.19898 2.145954,-0.13787 z m 35.887904,0.14834 c -0.28053,-0.0733 -0.46302,-0.37405 -0.46302,-0.76305 0,-0.35314 -0.11906,-0.64206 -0.26458,-0.64206 -0.14553,0 -0.26459,0.16885 -0.26459,0.37523 0,0.76349 0.33672,1.21143 0.88821,1.18158 0.44724,-0.0242 0.4692,-0.0563 0.10398,-0.1517 z m -30.625525,-1.52179 c 0,-0.27926 -0.507765,-0.39659 -0.658791,-0.15222 -0.0914,0.14789 0.01943,0.2689 0.246301,0.2689 0.22687,0 0.41249,-0.0525 0.41249,-0.11668 z m 32.808335,-0.16469 c 0,0.17193 0.12101,0.23781 0.2689,0.14641 0.1479,-0.0914 0.19858,-0.27998 0.11263,-0.41905 -0.0859,-0.13907 -0.006,-0.22014 0.1784,-0.18015 0.18408,0.04 0.3831,-0.16543 0.44227,-0.45647 0.0592,-0.29104 0.37701,-0.82682 0.7063,-1.19062 0.32929,-0.3638 0.75786,-1.03569 0.95238,-1.49307 0.19452,-0.45739 0.48976,-0.77939 0.65609,-0.71557 0.42439,0.16286 1.00691,-0.61335 0.82198,-1.09528 -0.0845,-0.22014 -0.0507,-0.40025 0.0751,-0.40025 0.12578,0 0.61071,-0.59531 1.07761,-1.32292 0.4669,-0.7276 0.95556,-1.32291 1.08591,-1.32291 0.13035,0 0.237,-0.22962 0.237,-0.51027 0,-0.51674 0.64716,-1.34182 1.05247,-1.34182 0.1215,0 0.16151,0.22717 0.0889,0.50482 -0.12063,0.46128 0.0125,0.50027 1.54371,0.45202 1.9807,-0.0624 2.31206,0.19359 3.51896,2.71872 0.42483,0.88886 0.85472,1.61611 0.95529,1.61611 0.22352,0 0.51972,-1.39995 0.49682,-2.34818 -0.0158,-0.65576 -0.0296,-0.66281 -0.24604,-0.12629 -0.29257,0.72512 -0.79552,1.04484 -0.79552,0.50571 0,-0.22687 0.12708,-0.41249 0.28241,-0.41249 0.16201,0 0.21081,-0.22561 0.11446,-0.52917 -0.11919,-0.37552 -0.0475,-0.52916 0.24676,-0.52916 0.22808,0 0.4147,-0.19844 0.4147,-0.44098 0,-0.24253 -0.0775,-0.36344 -0.17227,-0.26869 -0.0948,0.0948 -0.31681,-0.0254 -0.49345,-0.26695 -0.17664,-0.24157 -0.57711,-0.45807 -0.88994,-0.48112 -0.43897,-0.0323 -0.53363,0.0688 -0.41477,0.44333 0.18806,0.59252 -0.0464,0.62289 -0.59251,0.0768 -0.36826,-0.36825 -0.36824,-0.45295 1.9e-4,-0.86006 0.29434,-0.32524 0.33621,-0.58108 0.14965,-0.91444 -0.16538,-0.29552 -0.16659,-0.46285 -0.003,-0.46285 0.14062,0 0.31573,0.14883 0.38913,0.33073 0.0847,0.20993 0.14108,0.17288 0.15434,-0.10144 0.0214,-0.44359 -0.69863,-0.74846 -1.78288,-0.75485 -0.49333,-0.003 -0.58032,0.0998 -0.44519,0.52556 0.17694,0.55749 -0.12078,0.64706 -1.78594,0.53726 -0.40018,-0.0264 -0.7276,0.0801 -0.7276,0.23655 0,0.15648 -0.23813,0.28452 -0.52917,0.28452 -0.29104,0 -0.52917,0.15468 -0.52917,0.34372 0,0.18905 -0.41126,0.49244 -0.91391,0.6742 -0.67704,0.24482 -1.12781,0.70434 -1.73921,1.77295 -0.45391,0.79335 -0.93562,1.44246 -1.07046,1.44246 -0.13484,0 -0.24516,0.17049 -0.24516,0.37886 0,0.20837 -0.35719,0.6332 -0.79375,0.94406 -0.4988,0.35517 -0.79375,0.79768 -0.79375,1.19081 0,0.39324 -0.19655,0.688 -0.52917,0.79357 -0.29104,0.0924 -0.53828,0.24922 -0.54941,0.34855 -0.0111,0.0993 -0.0793,0.41874 -0.15136,0.70978 -0.0721,0.29104 -0.13011,0.73518 -0.12888,0.98698 10e-4,0.25179 -0.10926,0.52671 -0.24552,0.61092 -0.13626,0.0842 -0.24775,0.27973 -0.24775,0.43449 0,0.17742 0.14661,0.15969 0.39688,-0.048 0.29575,-0.24545 0.39687,-0.24972 0.39687,-0.0168 z m -33.469793,-0.51238 c 0.08994,-0.14552 0.04446,-0.26459 -0.101062,-0.26459 -0.145521,0 -0.338168,0.11907 -0.428105,0.26459 -0.08994,0.14552 -0.04446,0.26458 0.101062,0.26458 0.145521,0 0.338168,-0.11906 0.428105,-0.26458 z m 14.948963,-0.70537 c 0.80036,-0.21093 1.7231,-0.45005 2.05052,-0.53138 0.73064,-0.18147 0.76193,-0.50755 0.0835,-0.87061 -0.79416,-0.42502 -1.62199,-0.32483 -3.05687,0.36996 -0.93393,0.45222 -1.37442,0.55043 -1.50696,0.33597 -0.35522,-0.57475 -0.47433,-0.0136 -0.14714,0.6932 0.2169,0.46855 0.46234,0.65391 0.72483,0.54741 0.21828,-0.0886 1.05171,-0.33361 1.85208,-0.54455 z m -30.006824,-1.6084 c -0.284557,-0.28455 -0.435623,0.11397 -0.235871,0.62225 0.18738,0.4768 0.201531,0.47762 0.2942,0.0172 0.05354,-0.26605 0.02729,-0.55378 -0.05833,-0.63941 z m 4.871403,0.72627 c 0,-0.14552 -0.126089,-0.26459 -0.280198,-0.26459 -0.154109,0 -0.206614,0.11907 -0.116677,0.26459 0.08994,0.14552 0.216026,0.26458 0.280198,0.26458 0.06417,0 0.116677,-0.11906 0.116677,-0.26458 z m 64.293751,-0.39849 c 0,0.10751 0.45567,-0.20533 1.01259,-0.6952 0.55692,-0.48988 1.3816,-1.18834 1.8326,-1.55215 0.45101,-0.3638 0.85855,-0.95657 0.90565,-1.31727 0.0471,-0.3607 0.29398,-0.86672 0.54864,-1.12448 0.6795,-0.68778 0.58611,-1.63629 -0.20268,-2.05843 -0.57023,-0.30518 -0.79467,-0.29478 -1.56489,0.0725 -0.49455,0.23583 -0.98012,0.68378 -1.07904,0.99544 -0.14014,0.44156 -0.32036,0.53138 -0.81636,0.4069 -0.84567,-0.21225 -0.81552,0.0599 0.0428,0.38628 0.6793,0.25827 0.6793,0.25827 0.11389,1.05232 -1.01561,1.4263 -2.26294,1.75117 -2.53663,0.66068 -0.17286,-0.68871 -0.51415,-0.81546 -1.13572,-0.42179 -0.44499,0.28183 -0.18269,2.11941 0.31145,2.18188 1.53861,0.19454 2.56965,0.53625 2.40786,0.79803 -0.0905,0.14636 -0.38915,0.20735 -0.66377,0.13554 -0.56635,-0.14811 -0.6485,0.094 -0.1881,0.55442 0.22726,0.22726 0.40569,0.23279 0.66146,0.0205 0.19264,-0.15987 0.35025,-0.20272 0.35025,-0.0952 z m -1.90169,-2.1635 c 0.19099,-0.0764 0.4192,-0.067 0.50712,0.0209 0.0879,0.0879 -0.0684,0.15046 -0.34727,0.13897 -0.30822,-0.0127 -0.37092,-0.0754 -0.15985,-0.15985 z m 10.94101,1.5092 c 0.63093,-0.57903 1.3555,-1.12284 1.61016,-1.20845 0.25466,-0.0856 0.47269,-0.29648 0.48452,-0.46857 0.0503,-0.73239 0.18153,-1.70754 0.36889,-2.74141 0.16836,-0.92895 0.13327,-1.09573 -0.21964,-1.04394 -0.23101,0.0339 -0.4996,0.14123 -0.59687,0.2385 -0.25338,0.25338 -0.63221,-0.0377 -0.63221,-0.48583 0,-0.25494 0.28929,-0.38126 0.87312,-0.38126 1.01461,0 1.50813,-0.39767 1.50813,-1.21524 0,-0.31913 0.17859,-0.64876 0.39687,-0.73253 0.21828,-0.0838 0.39688,-0.32393 0.39688,-0.53371 0,-0.20978 0.44798,-0.95766 0.99551,-1.66195 0.99551,-1.28053 0.99551,-1.28053 0.40288,-1.8603 -0.32594,-0.31888 -0.66189,-0.4677 -0.74654,-0.33073 -0.25055,0.40539 -0.6485,0.28358 -0.48295,-0.14783 0.0838,-0.21829 0.0125,-0.39688 -0.15842,-0.39688 -0.19196,0 -0.2455,-0.20551 -0.14008,-0.53767 0.14685,-0.46266 0.0734,-0.44042 -0.5264,0.15939 -0.56445,0.56445 -0.66364,0.84921 -0.52141,1.49681 0.12733,0.5797 0.0899,0.74675 -0.13601,0.60713 -0.22087,-0.1365 -0.28693,0.0658 -0.22673,0.69451 0.0467,0.48792 0.204,0.86782 0.34952,0.84422 0.14552,-0.0236 0.28509,0.3519 0.31015,0.83442 0.0491,0.94611 -0.34187,1.21787 -1.85539,1.28956 -0.70508,0.0334 -0.74287,-0.0175 -0.61194,-0.82431 0.0767,-0.47294 0.0539,-0.85989 -0.0507,-0.85989 -0.10464,0 -0.21488,-0.29766 -0.24499,-0.66146 -0.0301,-0.3638 0.0757,-0.66146 0.23519,-0.66146 0.15946,0 0.22263,-0.17537 0.14038,-0.38971 -0.0822,-0.21434 0.14313,-0.73754 0.50086,-1.16267 0.75702,-0.89967 0.8973,-2.67584 0.25353,-3.21012 -0.22272,-0.18484 -0.39688,-0.76159 -0.39688,-1.31431 0,-1.29649 -0.61165,-1.82861 -1.91292,-1.66417 -1.06678,0.13482 -1.0441,0.0795 -0.99933,2.43587 0.0123,0.64745 -0.1152,1.50931 -0.28334,1.91524 -0.3776,0.91161 -0.0983,3.49777 0.4354,4.03147 0.27267,0.27267 0.30857,0.54662 0.13001,0.99203 -0.24669,0.61533 -0.24669,0.61533 -0.27151,-0.0461 -0.0225,-0.60086 -0.0508,-0.6167 -0.30877,-0.17294 -0.19823,0.34103 -0.20012,0.57235 -0.006,0.76619 0.15272,0.15272 0.20971,0.61749 0.12664,1.03284 -0.1282,0.64096 -0.066,0.75516 0.4112,0.75516 0.38586,0 0.56224,-0.16601 0.56224,-0.52917 0,-0.29104 0.11907,-0.52916 0.26459,-0.52916 0.14552,0 0.26458,0.45886 0.26458,1.0197 0,0.72096 -0.19378,1.22879 -0.66146,1.73342 -0.3638,0.39255 -0.67057,0.91595 -0.6817,1.16311 -0.0111,0.24717 -0.0624,0.68752 -0.11383,0.97856 -0.46645,2.63743 -0.38132,3.83646 0.27239,3.83646 0.19004,0 0.86174,-0.47376 1.49267,-1.05279 z m 0.24199,-5.98072 c 0.0127,-0.30822 0.0754,-0.37092 0.15985,-0.15985 0.0764,0.19099 0.067,0.4192 -0.0209,0.50712 -0.0879,0.0879 -0.15045,-0.0684 -0.13896,-0.34727 z M 154.7248,141.0071 c 0,-0.14552 0.17859,-0.26458 0.39687,-0.26458 0.21828,0 0.39688,0.11906 0.39688,0.26458 0,0.14552 -0.1786,0.26458 -0.39688,0.26458 -0.21828,0 -0.39687,-0.11906 -0.39687,-0.26458 z m -38.86864,17.48362 c -0.29895,-0.18926 -0.69773,-1.60862 -0.45196,-1.60862 0.0364,0 0.69491,0.1867 1.46331,0.41489 1.1279,0.33495 1.37275,0.50796 1.27077,0.89792 -0.12382,0.4735 0.36869,0.59738 0.77192,0.19415 0.10122,-0.10122 0.40232,-0.18404 0.66911,-0.18404 0.26679,0 0.48507,-0.11907 0.48507,-0.26459 0,-0.14552 -0.12325,-0.26458 -0.27389,-0.26458 -0.1857,0 -0.1827,-0.17039 0.009,-0.52917 0.15576,-0.29104 0.46463,-0.52916 0.68638,-0.52916 0.22175,0 0.3296,0.11906 0.23966,0.26458 -0.0899,0.14552 -0.0815,0.39727 0.0187,0.55944 0.10784,0.17449 0.50303,-0.23058 0.968,-0.99218 0.43216,-0.70788 1.19977,-1.67632 1.7058,-2.15209 1.07133,-1.00729 1.03828,-1.40711 -0.14158,-1.71285 -0.6794,-0.17605 -1.01176,-0.10765 -1.63565,0.33659 -0.46972,0.33447 -0.78299,0.43151 -0.78299,0.24254 0,-0.24076 -0.0912,-0.23928 -0.38707,0.006 -0.33948,0.28174 -0.33858,0.39526 0.007,0.92315 0.37798,0.57686 0.36656,0.59658 -0.27438,0.47405 -0.69499,-0.13285 -0.70397,-0.11748 -0.80376,1.37615 -0.0287,0.42947 -0.20212,0.83084 -0.3854,0.89193 -0.25517,0.0851 -0.259,0.15696 -0.0163,0.30692 0.21326,0.13181 0.1354,0.24331 -0.23811,0.34099 -0.37545,0.0982 -0.64145,-0.0164 -0.82224,-0.35422 -0.20982,-0.39206 -0.18641,-0.46832 0.10899,-0.35497 0.46455,0.17826 0.59599,-0.0244 0.83206,-1.28278 0.18576,-0.99017 0.18576,-0.99017 -0.89397,-0.99017 -0.59385,0 -1.47939,0.22447 -1.96786,0.49883 -0.85822,0.48204 -0.90948,0.48272 -1.52259,0.0203 -0.60453,-0.456 -0.61294,-0.50236 -0.17825,-0.98268 0.25091,-0.27726 0.45621,-0.64356 0.45621,-0.814 0,-0.17045 0.1,-0.3099 0.22211,-0.3099 0.36295,0 0.83585,-1.28059 0.65089,-1.76259 -0.13078,-0.34081 -0.065,-0.40523 0.27893,-0.27324 0.324,0.12433 0.59418,-0.0666 0.9646,-0.68167 0.90621,-1.50473 1.42069,-2.15329 2.57517,-3.24634 1.19336,-1.12985 1.42602,-1.97915 0.73225,-2.67292 -0.35277,-0.35277 -0.39687,-0.34901 -0.39687,0.0339 0,0.39428 -0.0639,0.39296 -0.75559,-0.0156 -0.91003,-0.53757 -1.22348,-0.39227 -2.52184,1.16905 -0.7441,0.89481 -0.9559,1.38193 -0.9559,2.19843 0,0.63052 -0.10533,0.98382 -0.26407,0.88572 -0.27537,-0.1702 -2.10715,1.65435 -2.12472,2.11634 -0.0153,0.40118 -0.96213,1.45521 -1.30726,1.45521 -0.16716,0 -0.24149,0.10103 -0.16518,0.22451 0.0763,0.12349 -0.0952,0.4757 -0.38126,0.78269 -0.61585,0.66104 -0.64881,0.84488 -0.15145,0.84488 0.20272,0 0.4371,0.1786 0.52087,0.39688 0.24743,0.64481 0.70506,0.45577 1.00928,-0.41692 0.17009,-0.48792 0.37995,-0.71754 0.52408,-0.57341 0.25927,0.25927 0.0303,1.12262 -0.29775,1.12262 -0.10977,0 -0.14268,0.29766 -0.0731,0.66146 0.12454,0.65153 -0.27506,0.91731 -0.59671,0.39687 -0.0899,-0.14552 -0.38004,-0.26458 -0.64467,-0.26458 -0.26464,0 -0.62938,-0.17859 -0.81053,-0.39687 -0.26381,-0.31788 -0.26148,-0.39688 0.0117,-0.39688 0.18759,0 0.26044,-0.0806 0.16189,-0.17918 -0.28485,-0.28486 -1.3209,0.9873 -1.39875,1.71752 -0.0389,0.36497 0.0479,0.88534 0.19298,1.15637 0.23624,0.44142 0.30574,0.45077 0.66685,0.0897 0.22172,-0.22171 0.54345,-0.4013 0.71495,-0.39907 0.20403,0.003 0.18773,0.0827 -0.0471,0.23151 -0.45648,0.28924 0.0212,0.62043 0.58361,0.40462 0.22257,-0.0854 0.62027,-0.0206 0.88377,0.14406 0.42627,0.26635 0.41371,0.2815 -0.11385,0.13736 -0.85026,-0.23231 -1.26699,0.10529 -0.67966,0.55059 0.30564,0.23174 1.19664,0.36464 2.46323,0.36743 1.25935,0.003 1.84854,-0.0816 1.61261,-0.231 z m 5.28744,-3.35046 c 0.0127,-0.30822 0.0754,-0.37092 0.15986,-0.15985 0.0764,0.19099 0.067,0.4192 -0.0209,0.50712 -0.0879,0.0879 -0.15046,-0.0684 -0.13897,-0.34727 z m -40.766721,2.80017 c 0,-0.14552 -0.119062,-0.26458 -0.264583,-0.26458 -0.145521,0 -0.264584,0.11906 -0.264584,0.26458 0,0.14552 0.119063,0.26459 0.264584,0.26459 0.145521,0 0.264583,-0.11907 0.264583,-0.26459 z m 20.968231,-1.02526 c -0.0364,-0.16371 0.0741,-0.26789 0.24549,-0.23151 0.1714,0.0364 0.42543,-0.29104 0.56451,-0.7276 0.24457,-0.76772 0.45007,-1.32694 0.94795,-2.57969 1.14136,-2.87182 1.28304,-3.67455 0.72961,-4.13386 -0.45303,-0.37597 -0.90048,0.13163 -1.72233,1.95386 -0.50431,1.11817 -0.55841,1.50158 -0.34555,2.44895 0.3041,1.35343 -0.10095,1.80873 -0.52554,0.59075 -0.15984,-0.45851 -0.38485,-0.73533 -0.50003,-0.61516 -0.31955,0.33337 -0.42588,3.51043 -0.12171,3.63655 0.41089,0.17038 0.80077,-0.013 0.7276,-0.34229 z m -17.164909,-0.52765 c 0.601435,-0.62776 0.655798,-0.78661 0.314084,-0.91774 -0.227282,-0.0872 -0.413239,-0.32816 -0.413239,-0.53544 0,-0.47052 0.596653,-0.71882 1.051614,-0.43764 0.188193,0.11631 0.67445,0.11617 1.08057,-3e-4 0.40612,-0.11647 0.803653,-0.14652 0.883407,-0.0668 0.07975,0.0797 0.552294,-0.16565 1.05009,-0.54534 0.497796,-0.37969 1.868046,-1.15256 3.044999,-1.7175 1.176954,-0.56494 2.052828,-1.11425 1.946388,-1.22069 -0.10644,-0.10644 -0.07446,-0.1695 0.07106,-0.14014 0.857158,0.17293 1.783127,-0.0568 1.903793,-0.47231 0.07395,-0.25466 0.628354,-0.82418 1.232001,-1.2656 0.949046,-0.694 1.199464,-0.76641 1.850875,-0.53519 0.610034,0.21653 0.81562,0.18222 1.080769,-0.1804 0.238299,-0.32589 0.406729,-0.36849 0.618719,-0.1565 0.211989,0.21199 0.403949,0.17861 0.705169,-0.1226 0.56557,-0.56558 0.5194,-1.17035 -0.11528,-1.51002 -0.29105,-0.15576 -0.529442,-0.18972 -0.529774,-0.0755 -3.32e-4,0.11426 -0.353871,0.22024 -0.785643,0.2355 -0.431772,0.0153 -0.716443,-0.0832 -0.632602,-0.21888 0.178381,-0.28863 -2.185115,0.006 -2.862712,0.35695 -0.244806,0.12677 -0.51966,0.4654 -0.610787,0.75251 -0.140502,0.44268 -0.243367,0.47351 -0.676793,0.20283 -0.422404,-0.26379 -0.729675,-0.20956 -1.770463,0.31249 -0.692645,0.34743 -1.557011,0.78038 -1.920813,0.96211 -2.139412,1.06872 -3.278531,1.75468 -4.28943,2.58304 -0.62532,0.5124 -1.458939,1.01245 -1.852488,1.11123 -0.393549,0.0988 -0.85298,0.34519 -1.020958,0.54759 -0.167979,0.2024 -0.396491,0.31172 -0.507806,0.24292 -0.111314,-0.0688 -0.274486,0.23539 -0.362602,0.67598 -0.141382,0.70691 -0.222914,0.7675 -0.693673,0.51556 -0.423599,-0.2267 -0.53346,-0.5528 -0.53346,-1.58349 0,-0.7139 -0.105565,-1.36324 -0.234589,-1.44298 -0.129024,-0.0797 -0.317334,-0.58605 -0.418466,-1.12513 -0.131247,-0.6996 -0.565527,-1.34415 -1.517276,-2.25188 -0.73337,-0.69945 -1.467795,-1.28987 -1.632055,-1.31203 -0.16426,-0.0222 -0.477249,-0.0521 -0.69553,-0.0665 -0.218281,-0.0144 -0.39706,-0.1451 -0.397286,-0.29043 -6.93e-4,-0.44639 -1.207092,-1.9853 -1.53896,-1.96313 -0.221495,0.0148 -0.216239,0.0598 0.01802,0.15434 0.181901,0.0734 0.330729,0.39261 0.330729,0.70936 0,0.53324 -0.12254,0.57372 -1.653646,0.54619 -1.626175,-0.0292 -3.112764,-0.42612 -3.104802,-0.82892 0.0022,-0.11274 0.121293,-0.38358 0.26459,-0.60186 0.21734,-0.33107 0.287588,-0.29817 0.423682,0.19843 0.08973,0.32743 0.327851,0.59532 0.52916,0.59532 0.488774,0 0.467564,-0.90927 -0.03086,-1.32292 -0.645144,-0.53542 -0.534806,-0.73901 1.653646,-3.05115 0.327422,-0.34593 0.595312,-0.70654 0.595312,-0.80135 0,-0.0948 0.357188,-0.62338 0.79375,-1.17458 0.436563,-0.55121 0.79375,-1.14092 0.79375,-1.31046 0,-0.16955 0.107959,-0.24155 0.239909,-0.16 0.13195,0.0815 0.172726,-0.10864 0.09061,-0.42263 -0.102303,-0.39122 -0.0529,-0.51133 0.156967,-0.38163 0.433136,0.26769 0.386367,-2.74792 -0.07141,-4.60445 -0.479039,-1.94276 -0.646596,-2.31156 -1.135419,-2.49914 -0.3167,-0.12153 -0.346543,-0.0777 -0.127138,0.18665 0.157687,0.19 0.414626,0.68192 0.570976,1.09315 0.284272,0.74769 0.284272,0.74769 -0.580009,0.19789 -0.535597,-0.34072 -0.875192,-0.77929 -0.89297,-1.15324 -0.05368,-1.12899 -0.103631,-1.21314 -0.881085,-1.48416 -0.608082,-0.21198 -0.847786,-0.18632 -1.100148,0.11776 -0.177466,0.21383 -0.512209,0.35217 -0.743872,0.30742 -0.475452,-0.0918 -1.457508,1.50637 -1.253036,2.03922 0.0702,0.18293 0.464672,0.41156 0.876607,0.50806 2.240641,0.52487 3.057889,1.46646 2.835254,3.2666 -0.115039,0.93017 -0.963004,2.45021 -2.020135,3.62124 -0.254662,0.2821 -0.463021,0.65517 -0.463021,0.82904 0,0.17387 -0.238617,0.37853 -0.530259,0.45479 -0.377502,0.0987 -0.47888,0.27256 -0.351912,0.60343 0.113336,0.29535 0.07606,0.40155 -0.102258,0.29134 -0.154333,-0.0954 -0.475966,0.12473 -0.71474,0.48915 -0.418809,0.63918 -0.411058,0.67135 0.219555,0.9111 0.901067,0.34259 1.280375,1.12588 0.957033,1.97634 -0.141939,0.37333 -0.39466,0.67878 -0.561601,0.67878 -0.212425,0 -0.20133,0.12314 0.03696,0.41026 0.287593,0.34653 0.251521,0.43354 -0.232187,0.56003 -0.325152,0.085 -0.572678,0.35996 -0.572678,0.63608 0,0.54306 1.369068,0.9289 2.517235,0.70941 0.361771,-0.0692 0.657765,-0.0324 0.657765,0.0816 0,0.11405 0.420936,0.34629 0.935414,0.51609 0.514477,0.16979 1.127401,0.60172 1.362053,0.95985 0.243994,0.37238 0.585673,0.59011 0.798121,0.50858 0.204313,-0.0784 0.307623,-0.0392 0.229576,0.0871 -0.178908,0.28947 1.057632,1.54422 1.733092,1.7586 0.811586,0.25759 2.339472,3.73874 2.347214,5.34792 0.0036,0.75765 0.773383,0.7941 1.396681,0.0661 0.614534,-0.71772 1.213281,-0.66549 1.516599,0.1323 0.321771,0.84632 0.531437,0.83191 1.422072,-0.0977 z m -4.857702,-5.84321 c -0.684519,-0.52594 -0.644825,-0.93375 0.0644,-0.66159 0.301721,0.11578 0.893486,1.20949 0.634484,1.17266 -0.02276,-0.003 -0.337253,-0.23321 -0.698881,-0.51107 z m -6.912125,-20.18669 c -0.08608,-0.1963 -0.15963,-1.78594 -0.08263,-1.78594 0.238029,0 1.169971,1.19889 1.169971,1.5051 0,0.27762 -0.977988,0.53021 -1.087339,0.28084 z m 27.231479,25.48268 c 0.06614,-0.19843 -0.03307,-0.29765 -0.231511,-0.23151 -0.190996,0.0637 -0.399355,0.27203 -0.463021,0.46302 -0.06615,0.19844 0.03307,0.29766 0.231511,0.23151 0.190996,-0.0637 0.399355,-0.27202 0.463021,-0.46302 z m -70.594139,-0.97088 c 0,-0.27556 -0.144495,-0.36974 -0.410617,-0.26762 -0.235459,0.0904 -0.341662,0.046 -0.248968,-0.10398 0.08891,-0.14385 0.03556,-0.26155 -0.11855,-0.26155 -0.309888,0 -0.381063,0.60469 -0.10381,0.88194 0.331941,0.33194 0.881945,0.17679 0.881945,-0.24879 z m 116.729096,-1.32051 c 0.80949,-0.28857 0.74237,-0.87811 -0.20472,-1.79791 -0.56644,-0.55012 -0.82018,-0.97332 -0.64754,-1.08002 0.15614,-0.0965 0.20465,-0.30364 0.10781,-0.46033 -0.11903,-0.19259 0.0725,-0.22692 0.591,-0.10598 0.54071,0.12613 0.6523,0.10278 0.37816,-0.0791 -0.40625,-0.26956 -0.46445,-2.6781 -0.0795,-3.29098 0.10484,-0.16693 0.15634,-0.51187 0.11445,-0.76653 -0.0419,-0.25466 0.0504,-0.46302 0.20504,-0.46302 0.15467,0 0.28121,-0.4097 0.28121,-0.91043 0,-1.58588 -0.72297,-1.47188 -1.42977,0.22544 -0.23701,0.56914 -0.36165,1.28351 -0.27699,1.5875 0.12311,0.44203 0.0983,0.47323 -0.12394,0.15582 -0.23952,-0.34212 -0.27842,-0.33299 -0.28191,0.0661 -0.002,0.25466 -0.11938,0.46302 -0.26033,0.46302 -0.14096,0 -0.19077,-0.20836 -0.11069,-0.46302 0.12386,-0.39395 0.083,-0.38615 -0.27413,0.0523 -0.24029,0.295 -0.35051,0.73333 -0.25784,1.02532 0.10827,0.34114 0.0627,0.44874 -0.1376,0.32495 -0.16472,-0.1018 -0.27488,-0.087 -0.24479,0.033 0.0301,0.11996 -0.084,0.69182 -0.25342,1.27082 -0.33659,1.15005 0.0293,2.51916 0.67329,2.51916 0.18276,0 0.33229,0.11906 0.33229,0.26458 0,0.14552 -0.11906,0.26458 -0.26458,0.26458 -0.14552,0 -0.26459,0.11907 -0.26459,0.26459 0,0.14552 0.23011,0.26458 0.51134,0.26458 0.28353,0 0.58822,0.24224 0.68391,0.54373 0.0949,0.29905 0.3113,0.47772 0.48085,0.39705 0.16955,-0.0807 0.5084,-0.21803 0.753,-0.30522 z m -1.63535,-3.53097 c 0,-0.46002 0.51069,-1.33792 0.77829,-1.33792 0.32804,0 0.029,0.98234 -0.41,1.34664 -0.27951,0.23198 -0.36829,0.22987 -0.36829,-0.009 z m -0.11832,-1.84449 c -0.0852,-0.13784 -0.0421,-0.32032 0.0957,-0.40551 0.13784,-0.0852 0.32031,-0.0421 0.4055,0.0957 0.0852,0.13784 0.0421,0.32032 -0.0957,0.40551 -0.13784,0.0852 -0.32032,0.0421 -0.40551,-0.0957 z m 1.08098,-0.41947 c -0.0838,-0.21829 -0.037,-0.39688 0.10398,-0.39688 0.14096,0 0.25628,0.17859 0.25628,0.39688 0,0.21828 -0.0468,0.39687 -0.10398,0.39687 -0.0572,0 -0.17252,-0.17859 -0.25628,-0.39687 z m -125.593533,4.60754 c -0.162431,-0.3035 -0.359923,-0.48723 -0.438871,-0.40828 -0.218085,0.21808 0.131247,0.96011 0.452003,0.96011 0.195675,0 0.191649,-0.16919 -0.01313,-0.55183 z m 149.193343,0.0553 c 0.26846,-0.17017 0.22089,-0.2584 -0.19843,-0.36805 -0.36592,-0.0957 -0.55154,-0.019 -0.55154,0.22787 0,0.42203 0.2358,0.46611 0.74997,0.14018 z m -86.210384,-0.14931 c 0,-0.0642 -0.119063,-0.19026 -0.264584,-0.2802 -0.14552,-0.0899 -0.264583,-0.0374 -0.264583,0.11668 0,0.1541 0.119063,0.28019 0.264583,0.28019 0.145521,0 0.264584,-0.0525 0.264584,-0.11667 z m 64.998144,-0.74322 c -0.0734,-0.1819 -0.13345,-0.0331 -0.13345,0.33073 0,0.3638 0.06,0.51263 0.13345,0.33073 0.0734,-0.1819 0.0734,-0.47956 0,-0.66146 z m -1.23356,-0.51594 c 0,-0.42741 -0.0782,-0.50384 -0.29445,-0.28764 -0.16194,0.16195 -0.21444,0.42389 -0.11667,0.58209 0.27368,0.44282 0.41112,0.34439 0.41112,-0.29445 z m -6.81513,-0.8816 c -0.31588,-0.56444 -0.72446,-0.0538 -0.47568,0.59456 0.11686,0.30452 0.24636,0.3465 0.44774,0.14512 0.18753,-0.18754 0.19697,-0.43763 0.0279,-0.73968 z m -97.936647,0.33079 c 0.231054,-0.17727 0.36996,-0.47114 0.30868,-0.65304 -0.06128,-0.1819 -0.01107,-0.33073 0.111571,-0.33073 0.122643,0 0.379479,-0.25059 0.570748,-0.55686 0.191268,-0.30627 0.219067,-0.47731 0.06178,-0.3801 -0.157292,0.0972 -0.361302,-0.0195 -0.453355,-0.25941 -0.130223,-0.33936 -0.370482,-0.39806 -1.082509,-0.26448 -0.616947,0.11574 -0.858458,0.08 -0.741188,-0.10978 0.197682,-0.31985 0.0075,-0.34432 -0.863349,-0.11106 -0.432629,0.11587 -0.586,0.32571 -0.529167,0.72399 0.04402,0.30845 0.256161,0.56082 0.471435,0.56082 0.215273,0 0.631992,0.38237 0.926042,0.84971 0.603964,0.95989 0.639863,0.97552 1.219316,0.53094 z m -1.176944,-1.16735 c -0.297969,-0.29797 -0.181475,-0.61017 0.22768,-0.61017 0.218281,0 0.396875,0.11203 0.396875,0.24897 0,0.33363 -0.413171,0.57258 -0.624555,0.3612 z m 88.290611,-0.15712 c 0.22984,-0.915 0.54645,-3.25533 0.70358,-5.20076 0.15714,-1.94542 0.34626,-3.63512 0.42027,-3.75487 0.074,-0.11976 0.002,-0.46593 -0.16061,-0.76928 -0.22037,-0.41176 -0.21527,-0.64784 0.0201,-0.93147 0.17341,-0.20895 0.35212,-1.12407 0.39712,-2.03361 0.045,-0.90953 0.14666,-2.94497 0.22589,-4.52319 0.11638,-2.31799 0.069,-2.94457 -0.24647,-3.26005 -0.21479,-0.21479 -0.39054,-0.60558 -0.39054,-0.86841 0,-0.53723 -0.61697,-1.16042 -0.88424,-0.89315 -0.0958,0.0958 -0.17409,0.62348 -0.17409,1.17272 0,0.54924 -0.11906,1.0722 -0.26458,1.16214 -0.44318,0.2739 -0.33042,4.52658 0.13229,4.98929 0.21828,0.21828 0.39687,0.48155 0.39687,0.58504 0,0.10349 0.19319,0.32943 0.4293,0.50208 0.28726,0.21005 0.36968,0.50175 0.24911,0.88164 -0.1538,0.48458 -0.25446,0.52135 -0.68728,0.25105 -0.32919,-0.20558 -0.5969,-0.22618 -0.76309,-0.0587 -0.1408,0.14187 -0.28263,2.34155 -0.31517,4.88816 -0.0325,2.54662 -0.15317,4.75513 -0.26807,4.90781 -0.41491,0.55135 0.0764,4.61719 0.55797,4.61719 0.11205,0 0.39178,-0.74862 0.62162,-1.66361 z m 0.17561,-8.12597 c 0,-0.49389 0.0706,-0.56444 0.3175,-0.3175 0.24695,0.24694 0.24695,0.38806 0,0.635 -0.24694,0.24694 -0.3175,0.17639 -0.3175,-0.3175 z m 0,-1.45521 c 0,-0.21828 0.11906,-0.39687 0.26459,-0.39687 0.14552,0 0.26458,0.17859 0.26458,0.39687 0,0.21828 -0.11906,0.39688 -0.26458,0.39688 -0.14553,0 -0.26459,-0.1786 -0.26459,-0.39688 z m 0.52917,-7.37108 c 0,-0.21496 -0.0728,-0.58053 -0.16175,-0.81236 -0.11839,-0.30852 -0.0475,-0.37766 0.26458,-0.25792 0.47078,0.18066 0.57795,1.04039 0.16175,1.29761 -0.14552,0.0899 -0.26458,-0.0124 -0.26458,-0.22733 z m 17.77504,17.49967 c -0.531,-0.531 -0.86753,-0.0817 -0.38656,0.51611 0.38534,0.47896 0.48742,0.50943 0.56185,0.16771 0.05,-0.22966 -0.0289,-0.53738 -0.17529,-0.68382 z M 43.327551,149.4841 c 0.214067,-0.13538 0.308499,-0.32686 0.209848,-0.42551 -0.242118,-0.24212 -0.995936,0.0658 -0.995936,0.40687 0,0.33605 0.27392,0.34255 0.786088,0.0186 z m 55.570161,-0.0103 c 0,-0.14552 -0.185621,-0.26459 -0.41249,-0.26459 -0.226869,0 -0.338905,0.11907 -0.248968,0.26459 0.08994,0.14552 0.275557,0.26458 0.412489,0.26458 0.136933,0 0.248969,-0.11906 0.248969,-0.26458 z m -60.854165,-0.25631 c 0,-0.14096 -0.178594,-0.18775 -0.396875,-0.10399 -0.218281,0.0838 -0.396875,0.19909 -0.396875,0.25628 0,0.0572 0.178594,0.10399 0.396875,0.10399 0.218281,0 0.396875,-0.11533 0.396875,-0.25628 z m 101.600003,0.1396 c 0,-0.0642 -0.11906,-0.19026 -0.26459,-0.2802 -0.14552,-0.0899 -0.26458,-0.0374 -0.26458,0.11668 0,0.15411 0.11906,0.2802 0.26458,0.2802 0.14553,0 0.26459,-0.0525 0.26459,-0.11668 z m 29.89791,-0.2802 c 0,-0.46936 -0.67928,-0.53155 -0.95383,-0.0873 -0.12863,0.20814 -0.0471,0.2542 0.24897,0.1406 0.24216,-0.0929 0.44028,-0.0536 0.44028,0.0873 0,0.14095 0.0595,0.25628 0.13229,0.25628 0.0728,0 0.13229,-0.1786 0.13229,-0.39688 z M 38.572714,148.95391 c 0,-0.38955 -0.966963,-0.82151 -1.436042,-0.64151 -0.729584,0.27997 -0.44638,0.62504 0.377708,0.46022 0.505648,-0.10113 0.79375,-0.0507 0.79375,0.13891 0,0.16371 0.05953,0.29765 0.132292,0.29765 0.07276,0 0.132292,-0.11487 0.132292,-0.25527 z m 126.999996,-1.06436 c 0,-0.27206 -0.17859,-0.67325 -0.39687,-0.89153 -0.21828,-0.21828 -0.39702,-0.5542 -0.3972,-0.7465 -4.8e-4,-0.52048 -1.18912,-1.80484 -1.67034,-1.80484 -0.35163,0 -0.37352,0.12895 -0.13706,0.80726 0.15477,0.44399 0.21803,0.87063 0.14057,0.94809 -0.0775,0.0775 0.0576,0.34863 0.30014,0.6026 0.24253,0.25397 0.71232,0.78472 1.04398,1.17944 0.64041,0.76219 1.11678,0.72187 1.11678,-0.0945 z M 60.745394,146.49968 c -0.06367,-1.10394 -0.180084,-1.40563 -0.571097,-1.48002 -0.822885,-0.15655 -1.02531,0.33616 -0.442506,1.07707 0.295216,0.37531 0.536755,0.93149 0.536755,1.23596 0,0.30447 0.125285,0.55358 0.278411,0.55358 0.169581,0 0.247149,-0.54201 0.198437,-1.38659 z M -55.52327,145.63731 c -0.08376,-0.21828 -0.199088,-0.39688 -0.25628,-0.39688 -0.05719,0 -0.103984,0.1786 -0.103984,0.39688 0,0.21828 0.115326,0.39687 0.25628,0.39687 0.140953,0 0.187746,-0.17859 0.103984,-0.39687 z m 192.97849,0.23702 c -0.0879,-0.0879 -0.31612,-0.0973 -0.50711,-0.0209 -0.21107,0.0845 -0.14838,0.14716 0.15985,0.15986 0.27891,0.0115 0.43518,-0.0511 0.34726,-0.13897 z m -92.970841,-1.41879 c 0.08755,-0.43774 0.05094,-1.0653 -0.08135,-1.39457 -0.240527,-0.59866 -0.240527,-0.59866 -0.294976,0.0628 -0.02995,0.3638 -0.08669,1.04905 -0.1261,1.52277 -0.08744,1.05115 0.28209,0.91067 0.502423,-0.191 z m 109.104231,-0.60417 c -0.0631,-0.32742 -0.11467,-0.0595 -0.11467,0.59531 0,0.65485 0.0516,0.92274 0.11467,0.59532 0.0631,-0.32743 0.0631,-0.86321 0,-1.19063 z m -79.231002,0.68467 c -0.181901,-0.0734 -0.479557,-0.0734 -0.661458,0 -0.181901,0.0734 -0.03307,0.13345 0.330729,0.13345 0.363802,0 0.51263,-0.06 0.330729,-0.13345 z m 87.717922,-0.31306 c 0.0758,-0.22771 -0.0514,-0.32306 -0.35302,-0.26459 -0.25937,0.0503 -0.52491,0.25162 -0.59011,0.44742 -0.0758,0.2277 0.0514,0.32305 0.35302,0.26458 0.25936,-0.0503 0.52491,-0.25161 0.59011,-0.44741 z m -8.73519,-2.44032 c -0.0814,-0.84679 -0.0128,-1.45718 0.18604,-1.65601 0.17319,-0.17319 0.25963,-0.48072 0.19207,-0.68339 -0.0898,-0.26939 0.0383,-0.32635 0.47637,-0.21179 0.35697,0.0934 0.7533,0.003 0.98037,-0.22446 0.33182,-0.33182 0.31878,-0.38069 -0.10076,-0.37755 -1.60957,0.0121 -2.20172,0.78533 -2.20172,2.87516 0,1.14968 0.13762,1.61915 0.47464,1.61915 0.067,0 0.0639,-0.6035 -0.007,-1.34111 z m 0.77145,0.49775 c -0.0845,-0.21107 -0.14716,-0.14837 -0.15985,0.15985 -0.0115,0.27891 0.051,0.43518 0.13896,0.34727 0.0879,-0.0879 0.0973,-0.31613 0.0209,-0.50712 z m -27.78676,-1.07487 c -0.0734,-0.1819 -0.13346,-0.0331 -0.13346,0.33073 0,0.3638 0.0601,0.51263 0.13346,0.33073 0.0734,-0.18191 0.0734,-0.47956 0,-0.66146 z m -82.394504,-0.37367 c -0.490434,-0.19789 -0.401028,-0.53842 0.18135,-0.69071 0.284429,-0.0744 0.570663,0.0187 0.643858,0.2095 0.08896,0.23183 0.472322,0.0195 1.179877,-0.65362 0.576453,-0.54837 1.566639,-1.24843 2.200412,-1.55568 1.155171,-0.56004 1.808229,-1.49783 1.78149,-2.55822 -0.0073,-0.29104 0.06823,-0.78899 0.167933,-1.10655 0.154752,-0.49291 0.09879,-0.55582 -0.382441,-0.42997 -0.596674,0.15603 -1.17208,0.9555 -0.890427,1.23715 0.09189,0.0919 0.05199,0.16708 -0.08868,0.16708 -0.14067,0 -0.394138,-0.13837 -0.563262,-0.3075 -0.233609,-0.23361 -0.569872,-0.12567 -1.399393,0.44919 -2.819533,1.95394 -4.643162,5.50916 -2.764567,5.38962 0.145521,-0.009 0.115755,-0.0769 -0.06615,-0.15029 z m 87.356664,-5.77789 c 0.1776,-3.39698 0.38371,-6.15741 0.57784,-7.73907 0.0808,-0.65817 0.0295,-1.12448 -0.12373,-1.12448 -0.31473,0 -0.49492,1.62655 -0.6888,6.21771 -0.0799,1.89177 -0.1998,4.39209 -0.26647,5.55625 -0.0938,1.63733 -0.068,1.877 0.11389,1.05834 0.12931,-0.58209 0.30359,-2.36803 0.38727,-3.96875 z m 19.20427,1.13392 c 0,-0.11433 -0.17859,-0.20788 -0.39687,-0.20788 -0.47318,0 -0.47032,0.0251 -0.1138,-0.99764 0.44681,-1.28173 0.95543,-1.26753 0.85328,0.0238 -0.0858,1.08518 0.34959,1.13053 0.45874,0.0478 0.11937,-1.18418 2e-5,-1.51892 -0.49535,-1.38938 -0.29147,0.0762 -0.60971,-0.0677 -0.79079,-0.35769 -0.16668,-0.26689 -0.66156,-0.67064 -1.09975,-0.89724 -0.7454,-0.38546 -0.79671,-0.38089 -0.79671,0.0711 0,0.5052 -0.47265,1.11805 -0.86228,1.11805 -0.125,0 -0.14232,-0.13746 -0.0385,-0.30547 0.11697,-0.18925 0.0726,-0.23364 -0.11668,-0.11667 -0.48252,0.29821 -0.35998,0.80785 0.356,1.48047 0.75636,0.71057 0.8405,1.05833 0.25605,1.05833 -0.22297,0 -0.51308,-0.26789 -0.64468,-0.59531 -0.16193,-0.40286 -0.24471,-0.4561 -0.25606,-0.16469 -0.009,0.23685 0.16806,0.58402 0.39397,0.77151 0.62949,0.52243 3.29342,0.89529 3.29342,0.46096 z m -97.147302,-0.95473 c 0.04789,-0.338 0.0093,-0.81425 -0.0858,-1.05833 -0.151708,-0.38945 -0.235248,-0.36731 -0.682382,0.18084 -0.28023,0.34355 -0.50951,0.85784 -0.50951,1.14288 0,0.78174 1.163581,0.54005 1.277695,-0.26539 z m 5.212539,-2.534 c 0.378044,-1.10237 0.79727,-1.51141 1.336835,-1.30436 0.183937,0.0706 0.460123,-0.10653 0.613746,-0.39357 0.352343,-0.65836 -0.259235,-1.26946 -0.962966,-0.96222 -0.256515,0.11199 -0.624446,0.17751 -0.817626,0.14559 -0.193179,-0.0319 -0.416298,0.19076 -0.495819,0.49485 -0.10685,0.4086 -0.280949,0.50962 -0.667073,0.38706 -0.431737,-0.13702 -0.493052,-0.0731 -0.353019,0.36812 0.178297,0.56177 -0.458086,0.95309 -1.572437,0.96693 -0.350587,0.004 -0.529167,0.18515 -0.529167,0.53574 0,0.42017 0.150774,0.51334 0.731978,0.45232 0.402587,-0.0423 0.938369,0.045 1.190625,0.19395 0.748208,0.44175 1.15006,0.20869 1.524923,-0.88441 z m -96.003241,-1.26668 c -0.08446,-0.21107 -0.147156,-0.14837 -0.159852,0.15985 -0.01149,0.27892 0.05105,0.43519 0.138964,0.34727 0.08792,-0.0879 0.09732,-0.31612 0.02089,-0.50712 z m -2.264575,-0.28553 c -0.261307,-0.25936 -0.291698,-0.22897 -0.148113,0.14811 0.09936,0.26094 0.247304,0.40778 0.328766,0.32632 0.08146,-0.0815 1.68e-4,-0.29495 -0.180653,-0.47443 z m 166.041659,-1.83114 c -0.0845,-0.21106 -0.14716,-0.14837 -0.15985,0.15986 -0.0115,0.27891 0.051,0.43518 0.13896,0.34726 0.0879,-0.0879 0.0973,-0.31612 0.0209,-0.50712 z m -163.131243,-0.81469 c -0.261306,-0.25936 -0.291697,-0.22897 -0.148112,0.14811 0.09936,0.26094 0.247304,0.40778 0.328766,0.32632 0.08146,-0.0815 1.67e-4,-0.29496 -0.180654,-0.47443 z M 130.3019,127.31995 c -0.0671,-0.25743 -0.12638,-0.11087 -0.13177,0.32569 -0.005,0.43656 0.0495,0.64719 0.12197,0.46806 0.0725,-0.17913 0.0769,-0.53632 0.01,-0.79375 z m -4.03111,-0.0529 c 0.0837,-0.13547 0.0312,-0.32109 -0.11668,-0.41249 -0.14789,-0.0914 -0.26889,0.0194 -0.26889,0.2463 0,0.46475 0.15876,0.53318 0.38557,0.16619 z m -20.49391,-0.28287 c 0,-0.14552 -0.0525,-0.26458 -0.11667,-0.26458 -0.0642,0 -0.19027,0.11906 -0.2802,0.26458 -0.0899,0.14552 -0.0374,0.26459 0.11667,0.26459 0.15411,0 0.2802,-0.11907 0.2802,-0.26459 z m 24.34167,-0.52916 c 0,-0.14552 -0.12609,-0.26459 -0.2802,-0.26459 -0.15411,0 -0.20661,0.11907 -0.11668,0.26459 0.0899,0.14552 0.21603,0.26458 0.2802,0.26458 0.0642,0 0.11668,-0.11906 0.11668,-0.26458 z m -24.60625,-0.26459 c 0,-0.14552 -0.12609,-0.26458 -0.2802,-0.26458 -0.15411,0 -0.20661,0.11906 -0.11668,0.26458 0.0899,0.14552 0.21603,0.26459 0.2802,0.26459 0.0642,0 0.11668,-0.11907 0.11668,-0.26459 z m -1.5875,-0.67076 c 0,-0.0779 -0.19437,-0.43824 -0.43192,-0.8008 -0.33561,-0.5122 -0.40204,-1.07684 -0.29792,-2.53206 0.078,-1.09025 0.0391,-1.72303 -0.0932,-1.5143 -0.32,0.50501 -0.29106,3.861 0.0386,4.47698 0.24822,0.46381 0.78444,0.71685 0.78444,0.37018 z m 24.20937,-0.12299 c -0.0899,-0.14552 -0.36485,-0.26276 -0.61092,-0.26053 -0.38557,0.003 -0.39256,0.0395 -0.0505,0.26053 0.51815,0.33486 0.86841,0.33486 0.66145,0 z M 69.369222,117.5676 c 0.0888,-0.23142 0.0982,-0.5231 0.0209,-0.64819 -0.07731,-0.12508 0.100899,-0.35665 0.396017,-0.51459 0.361327,-0.19338 0.536577,-0.19772 0.536577,-0.0133 0,0.15064 0.126089,0.27389 0.280198,0.27389 0.154109,0 0.194109,-0.13929 0.08889,-0.30954 -0.128635,-0.20814 -0.04707,-0.2542 0.248968,-0.1406 0.531619,0.204 0.569033,-0.28412 0.07197,-0.93892 -0.477945,-0.62961 -0.665209,-0.58164 -0.516378,0.13229 0.123829,0.594 0.123284,0.59394 -0.246663,-0.0264 -0.370766,-0.62175 -0.370766,-0.62175 -0.810332,0.30457 -0.241761,0.50947 -0.439565,1.05715 -0.439565,1.21706 0,0.15991 -0.238125,0.29074 -0.529167,0.29074 -0.924716,0 -0.527379,0.70641 0.434714,0.77286 0.166332,0.0115 0.375077,-0.16845 0.463879,-0.39986 z m 80.720298,-0.68884 c -0.37634,-0.29603 -0.76728,-0.44883 -0.86876,-0.33956 -0.10148,0.10927 -0.029,0.25405 0.16099,0.32172 0.19002,0.0677 0.48767,0.277 0.66145,0.46517 0.17379,0.18817 0.40926,0.28561 0.52328,0.21652 0.11401,-0.0691 -0.10062,-0.36782 -0.47696,-0.66385 z M 41.998169,116.04202 c -0.254755,-0.23481 -0.289963,-0.19401 -0.157105,0.18203 0.09418,0.26656 0.185044,0.62375 0.201925,0.79375 0.01688,0.17 0.08758,0.0881 0.157104,-0.18203 0.06953,-0.27012 -0.02134,-0.62731 -0.201924,-0.79375 z m -1.460882,-0.73154 c -0.171467,-0.27744 -0.641657,-0.0547 -0.641657,0.30393 0,0.13237 0.17791,0.17239 0.395356,0.0889 0.217445,-0.0834 0.32828,-0.26024 0.246301,-0.39288 z m -75.783321,-1.15859 c 0,-0.34662 -0.106362,-0.69596 -0.23636,-0.77631 -0.282436,-0.17455 -0.642216,1.08647 -0.414911,1.45425 0.256605,0.4152 0.651271,0.004 0.651271,-0.67794 z m 104.988482,-0.27158 c -0.08146,-0.0815 -0.229407,0.0654 -0.328766,0.32632 -0.143585,0.37708 -0.113194,0.40747 0.148112,0.14811 0.180821,-0.17948 0.262115,-0.39297 0.180654,-0.47443 z m 150.150462,0.12417 c 0.1163,-0.44473 0.0741,-0.48764 -0.23081,-0.23461 -0.20523,0.17033 -0.3079,0.41526 -0.22815,0.54429 0.21587,0.34929 0.3018,0.2913 0.45896,-0.30968 z m -246.491537,-0.82824 c -0.08446,-0.21107 -0.147157,-0.14837 -0.159853,0.15985 -0.01149,0.27892 0.05105,0.43519 0.138965,0.34727 0.08792,-0.0879 0.09732,-0.31612 0.02089,-0.50712 z m 97.869805,-0.27591 c -0.452847,-0.69113 -0.778443,-4.1724 -0.390236,-4.1724 0.540354,0 0.17625,-0.95165 -0.480865,-1.25682 -0.937184,-0.43525 -1.333723,-0.0414 -0.769443,0.76423 0.541469,0.77306 0.551802,1.98423 0.01947,2.28214 -0.516244,0.28891 -0.689468,2.61037 -0.187287,2.50993 0.181901,-0.0364 0.330729,0.0757 0.330729,0.24901 0,0.17333 0.181808,0.084 0.404018,-0.19844 0.397014,-0.50469 0.411416,-0.50315 0.830741,0.0888 0.56228,0.79379 0.780622,0.55423 0.242873,-0.26648 z m 2.964359,-5.16458 c -0.512472,-1.20609 -0.737824,-1.28286 -0.737824,-0.25136 0,0.79903 0.09621,0.97896 0.523494,0.97896 0.469645,0 0.491692,-0.0748 0.21433,-0.7276 z m -21.757951,-0.61837 c 0.272659,-0.44117 -0.340574,-0.94708 -0.705569,-0.58208 -0.305309,0.3053 -0.114226,0.86972 0.294446,0.86972 0.128345,0 0.31335,-0.12944 0.411123,-0.28764 z m 18.058392,-1.95093 c 0.03514,-0.93481 -0.30045,-1.43752 -0.617343,-0.92478 -0.142324,0.23029 0.317507,1.84043 0.525598,1.84043 0.03153,0 0.07281,-0.41204 0.09174,-0.91565 z m 4.158736,-0.69663 c -0.03457,-0.43944 -0.226755,-0.94106 -0.42708,-1.11471 -0.200325,-0.17365 -0.282063,-0.21173 -0.181641,-0.0846 0.100422,0.1271 -0.101464,0.6035 -0.448635,1.05867 -0.474768,0.62245 -0.567296,0.94179 -0.373315,1.28842 0.234941,0.41982 0.312912,0.42481 0.875714,0.056 0.454508,-0.2978 0.601196,-0.61599 0.554957,-1.20379 z m -3.397511,0.50434 c -0.08446,-0.21107 -0.147156,-0.14838 -0.159852,0.15985 -0.01149,0.27891 0.05105,0.43518 0.138964,0.34726 0.08792,-0.0879 0.09732,-0.31612 0.02089,-0.50711 z M 54.18313,104.77163 c 0,-0.4414 -0.605518,-1.59995 -0.83622,-1.59995 -0.337966,0 -0.264979,1.17422 0.09539,1.53459 0.381237,0.38123 0.740833,0.41296 0.740833,0.0654 z m 3.96875,-0.0125 c 0,-0.14552 -0.0525,-0.26458 -0.116677,-0.26458 -0.06417,0 -0.190261,0.11906 -0.280198,0.26458 -0.08994,0.14552 -0.03743,0.26459 0.116676,0.26459 0.15411,0 0.280199,-0.11907 0.280199,-0.26459 z m 17.462499,-0.13229 c 0,-0.21828 -0.115326,-0.39687 -0.256279,-0.39687 -0.140954,0 -0.187747,0.17859 -0.103984,0.39687 0.08376,0.21828 0.199088,0.39688 0.256279,0.39688 0.05719,0 0.103984,-0.1786 0.103984,-0.39688 z m -19.076373,-2.19838 c -0.02369,-0.87719 -0.04793,-0.90926 -0.23821,-0.31511 -0.306051,0.95564 -0.306051,1.64436 0,1.45521 0.145521,-0.0899 0.252716,-0.60298 0.23821,-1.1401 z m -1.727149,0.51136 c 0.457013,-0.17958 0.462142,-0.22797 0.06615,-0.62397 -0.23611,-0.23611 -0.42929,-0.79498 -0.42929,-1.24194 0,-0.96214 -0.08759,-0.98964 -0.81987,-0.25736 -0.540851,0.54085 -0.54147,0.5509 -0.0238,0.3866 0.486581,-0.15444 0.519378,-0.0784 0.388157,0.89992 -0.145995,1.08848 -0.05602,1.18044 0.818655,0.83675 z m 15.889832,-0.93986 c -0.09732,-0.38776 -0.227971,-0.65398 -0.290337,-0.59161 -0.06237,0.0624 -0.03377,0.43064 0.06355,0.81839 0.09732,0.38775 0.227971,0.65398 0.290337,0.59161 0.06237,-0.0624 0.03377,-0.43064 -0.06355,-0.81839 z m -6.912645,-1.54026 c 0.335714,-0.713154 0.353609,-1.108224 0.104862,-2.315104 l -0.299929,-1.45521 -0.187395,1.19062 c -0.207328,1.31727 -0.284132,3.439594 -0.124474,3.439594 0.05618,0 0.2843,-0.38696 0.506936,-0.8599 z m 9.418712,0.3175 c 0.01983,0.48746 0.101623,0.57298 0.32979,0.34481 0.166879,-0.16687 0.360759,-1.196934 0.430844,-2.289014 0.09859,-1.53631 0.224513,-2.011501 0.556479,-2.10006 0.282209,-0.07529 0.225306,-0.124962 -0.166261,-0.14515 -0.426153,-0.02197 -0.595312,0.117312 -0.595312,0.49017 0,0.35926 -0.125837,0.47258 -0.405596,0.36522 -0.324947,-0.12469 -0.397752,0.0479 -0.366149,0.8682 0.0217,0.56311 -0.03223,1.50009 -0.119841,2.082184 -0.1195,0.79397 -0.100718,0.8931 0.07519,0.39687 0.23448,-0.66146 0.23448,-0.66146 0.260854,-0.0132 z m -109.85955,-0.30096 c -0.08446,-0.21107 -0.147156,-0.14837 -0.159852,0.15985 -0.01149,0.27892 0.05105,0.43519 0.138964,0.34727 0.08792,-0.0879 0.09732,-0.31613 0.02089,-0.50712 z M 58.15188,98.938346 c 0,-0.29104 -0.119063,-0.52917 -0.264584,-0.52917 -0.14552,0 -0.264583,0.23813 -0.264583,0.52917 0,0.29104 0.119063,0.52916 0.264583,0.52916 0.145521,0 0.264584,-0.23812 0.264584,-0.52916 z m -5.709299,-1.75806 c 0.254089,-0.843096 -0.869719,-1.852063 -1.295508,-1.163121 -0.08628,0.139601 -0.04246,0.467023 0.09736,0.727604 0.139828,0.260581 0.326358,0.702047 0.414512,0.981047 0.179626,0.56849 0.519121,0.33215 0.783633,-0.54553 z m 8.090549,0.41953 c 0,-0.13694 -0.119063,-0.24897 -0.264584,-0.24897 -0.145521,0 -0.264583,0.18562 -0.264583,0.41249 0,0.22687 0.119062,0.3389 0.264583,0.24897 0.145521,-0.0899 0.264584,-0.27556 0.264584,-0.41249 z m -7.008242,-0.730825 c -0.21024,-0.21024 -0.66515,0.267035 -0.503626,0.528385 0.109865,0.17776 0.24622,0.1507 0.386805,-0.0768 0.119418,-0.19323 0.171988,-0.396452 0.116821,-0.451619 z m 11.770742,0.481855 c 0,-0.14552 -0.119063,-0.26459 -0.264584,-0.26459 -0.145521,0 -0.264583,0.11907 -0.264583,0.26459 0,0.14552 0.119062,0.26458 0.264583,0.26458 0.145521,0 0.264584,-0.11906 0.264584,-0.26458 z m -14.720986,-0.66146 c 0.08376,-0.218282 0.03697,-0.396875 -0.103985,-0.396875 -0.140953,0 -0.256279,0.178593 -0.256279,0.396875 0,0.218281 0.04679,0.39687 0.103984,0.39687 0.05719,0 0.172517,-0.178589 0.25628,-0.39687 z m 18.607536,-1.12448 c -0.06655,-0.254661 -0.121,-0.0463 -0.121,0.463021 0,0.509323 0.05445,0.717683 0.121,0.463021 0.06655,-0.254661 0.06655,-0.67138 0,-0.926042 z M 57.920911,94.897375 c -0.191306,-0.191305 -0.400764,-0.172036 -0.683859,0.06291 -0.554435,0.460139 -0.513951,0.674406 0.187224,0.990911 0.499893,0.225648 0.609505,0.184829 0.683859,-0.254667 0.0487,-0.287862 -0.03555,-0.647483 -0.187224,-0.799157 z m 14.434626,0.81636 c -0.08446,-0.211067 -0.147157,-0.148372 -0.159853,0.159852 -0.01149,0.278915 0.05105,0.435185 0.138964,0.347266 0.08792,-0.08792 0.09732,-0.316122 0.02089,-0.507118 z M 55.237412,94.62325 c 0.0022,-0.117729 -0.115011,-0.140468 -0.260532,-0.05053 -0.145521,0.08994 -0.26276,0.364854 -0.260532,0.610927 0.0035,0.385571 0.0395,0.392555 0.260532,0.05053 0.141064,-0.218281 0.258303,-0.493198 0.260532,-0.610927 z m 14.472291,0.03215 c -0.08446,-0.211067 -0.147156,-0.148372 -0.159852,0.159853 -0.01149,0.278915 0.05105,0.435184 0.138964,0.347265 0.08792,-0.08792 0.09732,-0.316122 0.02089,-0.507118 z M 53.342634,94.352356 c 0.049,-0.252655 -0.08287,-0.441095 -0.30868,-0.441095 -0.216825,0 -0.444166,-0.0893 -0.505203,-0.198438 -0.06104,-0.109141 -0.07096,-0.03987 -0.02205,0.153931 0.04891,0.193803 0.08893,0.531147 0.08893,0.749653 0,0.526112 0.637461,0.300783 0.747003,-0.264051 z m 19.348639,-0.324094 c -0.467219,-0.562964 -0.619253,-0.274392 -0.204951,0.389012 0.191505,0.306648 0.389605,0.433302 0.440222,0.281452 0.05062,-0.15185 -0.05526,-0.453558 -0.235271,-0.670464 z m -9.275497,-1.109189 c -0.04178,-0.982266 -0.124888,-1.934766 -0.184693,-2.116667 -0.199623,-0.607175 -0.50306,-0.340132 -0.450963,0.396875 0.02829,0.400183 0.07007,1.352683 0.09285,2.116667 0.0239,0.801638 0.163493,1.389063 0.330091,1.389063 0.187504,0 0.262056,-0.625917 0.212719,-1.785938 z m -22.080744,0.36195 c -0.09562,-0.380974 -0.339537,-0.692679 -0.542043,-0.692679 -0.480005,0 -0.465046,0.273145 0.05567,1.016572 0.517562,0.738923 0.71939,0.604518 0.486373,-0.323893 z m -3.143045,-0.613712 c -0.264731,-0.68988 -0.454431,-0.201047 -0.239599,0.617417 0.146844,0.559442 0.225627,0.633104 0.299837,0.280348 0.05536,-0.263162 0.02826,-0.667156 -0.06024,-0.897765 z m 26.839059,0.994981 c 0,-0.136932 -0.119062,-0.322553 -0.264583,-0.41249 -0.145521,-0.08994 -0.264583,0.0221 -0.264583,0.248969 0,0.226869 0.119062,0.41249 0.264583,0.41249 0.145521,0 0.264583,-0.112036 0.264583,-0.248969 z M -52.078414,92.44231 c 0.09036,-0.235459 0.046,-0.341662 -0.103984,-0.248968 -0.143854,0.08891 -0.261553,0.273684 -0.261553,0.410617 0,0.380585 0.189645,0.29672 0.365537,-0.161649 z m 125.04696,-0.780008 c 0,-0.363802 0.132942,-0.661458 0.295428,-0.661458 0.17486,0 0.242197,-0.278459 0.164995,-0.682312 -0.08283,-0.433316 0.0025,-0.733309 0.233739,-0.822058 0.376362,-0.144423 0.517725,-0.884243 0.165734,-0.867365 -0.109141,0.0052 -0.526932,0.278451 -0.928424,0.607151 -0.667334,0.546342 -0.715341,0.704484 -0.559349,1.842568 0.178846,1.304826 0.627877,1.722102 0.627877,0.583474 z m -19.486737,-0.53764 c -0.209875,-0.546923 -0.357012,-0.482474 -0.357012,0.15638 0,0.29963 0.113862,0.474411 0.253027,0.388402 0.139166,-0.08601 0.185959,-0.331161 0.103985,-0.544782 z M 37.695121,90.951234 c -0.08446,-0.211066 -0.147157,-0.148372 -0.159853,0.159853 -0.01149,0.278915 0.05105,0.435184 0.138965,0.347266 0.08792,-0.08792 0.09732,-0.316122 0.02089,-0.507119 z m 7.492176,-0.713281 c 0,-0.804959 -0.1146,-1.057443 -0.529167,-1.165855 -0.291042,-0.07611 -0.529167,-0.04501 -0.529167,0.06912 0,0.326981 0.7865,2.124208 0.929593,2.124208 0.07081,0 0.128741,-0.462363 0.128741,-1.027473 z m 10.03557,-0.361588 c -0.01558,-0.7206 -0.05543,-0.774176 -0.245987,-0.33073 -0.314107,0.730966 -0.314107,1.190626 0,1.190626 0.145521,0 0.256215,-0.386954 0.245987,-0.859896 z m 227.295673,0.374826 c 0,-0.372333 -0.29784,-0.543891 -0.6858,-0.395018 -0.20322,0.07798 -0.30362,0.248373 -0.2231,0.378645 0.18467,0.298803 0.9089,0.311849 0.9089,0.01637 z M 64.775769,89.292266 c -0.186276,-0.224449 -0.260384,-0.408089 -0.164686,-0.408089 0.0957,0 0.04656,-0.238125 -0.109203,-0.529167 -0.155761,-0.291041 -0.412654,-0.529166 -0.570873,-0.529166 -0.177359,0 -0.148424,0.171185 0.07545,0.446413 0.317993,0.390928 0.305576,0.424845 -0.0999,0.272887 -0.309558,-0.116013 -0.463021,-0.04474 -0.463021,0.215045 0,0.213714 0.164708,0.388571 0.366017,0.388571 0.201308,0 0.435534,0.265838 0.5205,0.59075 0.119461,0.456817 0.225889,0.519344 0.469437,0.275797 0.243548,-0.243548 0.238168,-0.407473 -0.02373,-0.723041 z m 1.049027,0.798151 c 0,-0.06417 -0.119062,-0.190261 -0.264583,-0.280198 -0.145521,-0.08994 -0.264583,-0.03743 -0.264583,0.116677 0,0.154109 0.119062,0.280198 0.264583,0.280198 0.145521,0 0.264583,-0.05251 0.264583,-0.116677 z m 3.683265,-1.587539 c -0.0115,-0.154087 -0.179722,-1.113597 -0.373837,-2.132243 l -0.352937,-1.852083 0.02686,2.60677 c 0.02286,2.219424 0.07841,2.536258 0.373837,2.132243 0.190841,-0.26099 0.337577,-0.600599 0.326081,-0.754687 z M -51.937432,88.35501 c -0.0096,-0.261687 -0.092,-0.216625 -0.241935,0.132292 -0.312558,0.727362 -0.312558,1.145108 0,0.661458 0.141064,-0.218281 0.249935,-0.575468 0.241935,-0.79375 z m 95.982553,-0.314192 c -0.08446,-0.211067 -0.147157,-0.148372 -0.159853,0.159852 -0.01149,0.278915 0.05105,0.435185 0.138965,0.347266 0.08792,-0.08792 0.09732,-0.316122 0.02089,-0.507118 z m 31.833842,0.329195 c 0,-0.242666 -1.02581,-1.073336 -1.325484,-1.073336 -0.08217,0 -0.1668,0.230885 -0.188056,0.513078 -0.03546,0.470697 0.106818,0.554412 1.315102,0.773807 0.109141,0.01982 0.198438,-0.07628 0.198438,-0.213549 z M 45.006025,84.650844 c -0.459027,-2.241157 -0.747235,-2.857237 -0.495098,-1.058334 0.09178,0.654844 0.217407,1.905 0.279164,2.778125 0.156536,2.213147 0.161005,2.226299 0.404579,1.190625 0.143144,-0.60865 0.07849,-1.606165 -0.188645,-2.910416 z m 8.846217,2.790432 c -0.06136,-0.849639 -0.103106,-0.889181 -0.595154,-0.5637 -0.662446,0.438196 -0.908009,1.364077 -0.299891,1.13072 0.22838,-0.08764 0.485607,-0.04548 0.571616,0.09369 0.28847,0.466753 0.389889,0.259573 0.323429,-0.660707 z m 5.996298,-1.446273 c 0.165571,-1.279482 0.141182,-1.397134 -0.226382,-1.092083 -0.294865,0.244716 -0.407178,0.802666 -0.395174,1.963133 0.01916,1.852732 0.324448,1.424909 0.621556,-0.87105 z m 2.826069,1.220653 c -0.209473,-0.209472 -0.289396,-0.140818 -0.289396,0.248591 0,0.69949 0.370008,1.070778 0.487833,0.489521 0.05003,-0.246794 -0.03927,-0.578944 -0.198437,-0.738112 z m -7.433146,0.0281 c 0,-0.545331 -0.09108,-0.755583 -0.255917,-0.590749 -0.140755,0.140755 -0.1864,0.521755 -0.101433,0.846667 0.217925,0.833347 0.35735,0.733497 0.35735,-0.255918 z m -11.509375,-0.47625 c -0.09933,-0.312974 -0.240139,-0.509513 -0.312899,-0.436753 -0.07276,0.07276 -0.05102,0.388362 0.04832,0.701337 0.09933,0.312974 0.240139,0.509513 0.3129,0.436753 0.07276,-0.07276 0.05102,-0.388362 -0.04832,-0.701337 z M 63.730585,86.47519 c -0.233086,-0.5827 -0.254847,-0.589344 -0.270268,-0.08251 -0.0092,0.303168 0.0626,0.63059 0.159618,0.727604 0.316012,0.316012 0.369759,0.0027 0.11065,-0.645094 z m -6.148749,-0.09081 c 0.05847,-0.30163 -0.03688,-0.428849 -0.264583,-0.353025 -0.195799,0.0652 -0.397135,0.330747 -0.447413,0.590109 -0.05847,0.30163 0.03688,0.428849 0.264584,0.353025 0.195798,-0.0652 0.397134,-0.330747 0.447412,-0.590109 z m 15.295408,-0.818911 c 0.238127,-0.620547 -0.01891,-0.693411 -0.383977,-0.108847 -0.204407,0.327308 -0.221963,0.517133 -0.04783,0.517133 0.151321,0 0.345633,-0.183728 0.431803,-0.408286 z M -69.996418,84.584172 c 0.02328,-0.472653 -0.01641,-0.710542 -0.08819,-0.528641 -0.07179,0.181901 -0.30338,0.330729 -0.514654,0.330729 -0.302147,0 -0.32369,0.112944 -0.100934,0.529167 0.409985,0.766064 0.655429,0.650539 0.703782,-0.331255 z m 1.122536,-0.04729 c -0.06961,-0.06961 -0.284185,0.135918 -0.476839,0.456722 -0.334677,0.557294 -0.329038,0.562932 0.126558,0.126558 0.262262,-0.251197 0.419889,-0.513672 0.350281,-0.58328 z m 110.488187,0.644933 c 0.265324,-0.429302 0.435704,-2.383057 0.207819,-2.383057 -0.202075,0 -0.86816,1.823787 -0.86816,2.377083 0,0.344812 0.448421,0.348869 0.660341,0.006 z m 22.555523,-0.648998 c 0.09176,-1.289139 -0.385075,-1.425542 -0.507186,-0.145085 -0.05836,0.611982 0.01353,1.056636 0.170787,1.056329 0.149367,-2.91e-4 0.300746,-0.410351 0.336399,-0.911244 z m 9.460176,0.118025 c -0.09933,-0.312975 -0.240139,-0.509514 -0.312899,-0.436754 -0.07276,0.07276 -0.05102,0.388362 0.04832,0.701337 0.09933,0.312975 0.240139,0.509514 0.312899,0.436753 0.07276,-0.07276 0.05102,-0.388362 -0.04832,-0.701336 z M -61.812662,84.454355 c -0.183488,-0.183488 -0.685455,0.18932 -0.685455,0.509084 0,0.175443 0.151813,0.155371 0.403269,-0.05332 0.221798,-0.184076 0.348782,-0.389171 0.282186,-0.455766 z m 115.689875,0.08031 c 0.13737,-0.708607 -0.31022,-0.998078 -0.888941,-0.574906 -0.43366,0.317099 -0.454064,0.43056 -0.144507,0.803553 0.432833,0.521532 0.908418,0.41631 1.033448,-0.228647 z m -107.64408,0.116175 c 0,-0.145521 -0.0525,-0.264584 -0.116677,-0.264584 -0.06417,0 -0.190261,0.119063 -0.280198,0.264584 -0.08994,0.145521 -0.03743,0.264583 0.116677,0.264583 0.154109,0 0.280198,-0.119062 0.280198,-0.264583 z M 58.679875,83.853008 c -0.125849,-0.43881 -0.163663,-1.199332 -0.08403,-1.690049 0.07963,-0.490717 0.02794,-1.10101 -0.114877,-1.356206 -0.187939,-0.335829 -0.267366,0.130998 -0.287548,1.690049 -0.02183,1.686376 0.05279,2.154042 0.343693,2.154042 0.287487,0 0.319795,-0.180558 0.142763,-0.797836 z m 13.671239,-0.108931 c -0.166684,-0.353201 -0.344947,-0.600299 -0.39614,-0.549106 -0.164214,0.164214 0.247329,1.191289 0.477342,1.191289 0.122023,0 0.08548,-0.288982 -0.0812,-0.642183 z m -3.548532,-0.879171 c -0.06819,-0.181901 -0.230308,-0.330729 -0.36026,-0.330729 -0.280237,0 -0.307102,0.565901 -0.05772,1.215786 0.165471,0.431211 0.191876,0.427949 0.360261,-0.04451 0.09994,-0.280402 0.125909,-0.65865 0.05772,-0.840551 z m -135.097269,0.05356 c -0.398115,-0.432689 -0.449404,-0.357483 -0.25727,0.37724 0.10845,0.414713 0.222176,0.503104 0.360124,0.279899 0.11089,-0.179424 0.06461,-0.475136 -0.102854,-0.657139 z m 117.653928,-0.01126 c -0.176631,-0.460294 -1.600086,-0.384505 -2.005801,0.106795 -0.283085,0.3428 -0.227077,0.379734 0.396239,0.261301 0.448508,-0.08522 0.844031,0.0044 1.034978,0.234457 0.358729,0.432242 0.795792,-0.0261 0.574584,-0.602553 z m 10.287051,-1.647289 c -0.146033,-1.118165 -0.247484,-2.954295 -0.225447,-4.080288 0.02921,-1.492614 -0.05563,-2.083986 -0.313171,-2.182813 -0.59476,-0.228231 -0.626533,-0.168682 -0.457072,0.856637 0.09019,0.545703 0.224608,1.885156 0.298701,2.976562 0.265174,3.90604 0.327376,4.467222 0.531814,4.79801 0.382786,0.61936 0.442859,-0.241901 0.165175,-2.368108 z m -4.633975,1.345446 c -0.06708,-0.257431 -0.126382,-0.110869 -0.131774,0.325694 -0.0054,0.436562 0.0495,0.647188 0.12197,0.468056 0.07247,-0.179131 0.07689,-0.536319 0.0098,-0.79375 z M 43.106093,82.361239 c -0.248929,-0.428261 -0.284947,-0.392242 -0.292001,0.292 -0.0059,0.569206 0.07101,0.701466 0.283955,0.488521 0.209271,-0.209271 0.211551,-0.430409 0.008,-0.780521 z m 10.781761,-1.348416 c -0.01688,-0.982266 -0.08255,-1.547813 -0.14593,-1.256771 -0.06338,0.291042 -0.234797,0.771859 -0.380924,1.068483 -0.251033,0.509573 0.0596,1.974225 0.418706,1.974225 0.07636,0 0.125029,-0.803672 0.108148,-1.785937 z m -9.238938,-1.196305 c -0.09392,-0.732095 -0.119603,-2.176286 -0.05708,-3.209315 0.06253,-1.033029 -0.01352,-2.175891 -0.168991,-2.539693 -0.215771,-0.504896 -0.272903,0.246601 -0.241378,3.175 0.02271,2.110052 0.09973,4.068208 0.171138,4.351456 0.253191,1.00427 0.479222,-0.351622 0.296306,-1.777448 z m -0.788587,0.651523 c -0.003,-0.727933 -0.06935,-0.875526 -0.260532,-0.579697 -0.341255,0.528053 -0.341255,1.930698 0,1.719791 0.145521,-0.08994 0.26276,-0.602979 0.260532,-1.140094 z m -106.971455,0.164443 c -0.08446,-0.211067 -0.147157,-0.148372 -0.159853,0.159853 -0.01149,0.278915 0.05105,0.435184 0.138965,0.347265 0.08792,-0.08792 0.09732,-0.316122 0.02089,-0.507118 z m 3.635159,-1.611389 c 0.09877,-0.549747 0.276666,-0.939542 0.395319,-0.866211 0.118652,0.07333 0.158288,0.433828 0.08808,0.801103 -0.07223,0.377849 -0.0046,0.667773 0.155785,0.667773 0.155891,0 0.351911,-0.446484 0.435599,-0.992187 0.08369,-0.545703 0.267111,-1.356264 0.407607,-1.801247 0.422482,-1.338097 0.588733,-3.908148 0.298527,-4.614899 -0.271607,-0.661459 -0.271607,-0.661459 -0.32684,0.132291 -0.03038,0.436563 -0.02861,1.180704 0.0039,1.653646 0.03253,0.472943 -0.06383,0.859896 -0.214132,0.859896 -0.399208,0 -0.628946,-1.572968 -0.456253,-3.123867 0.08257,-0.741561 0.04163,-1.415348 -0.09097,-1.497305 -0.301575,-0.186383 -0.627662,0.799334 -0.598914,1.810435 0.01194,0.420026 -0.169714,1.055838 -0.40368,1.412915 -0.331846,0.506461 -0.35252,0.694271 -0.09402,0.854036 0.403453,0.249348 0.423063,2.915495 0.03123,4.246206 -0.339034,1.151406 -0.362293,2.440082 -0.03346,1.85383 0.122436,-0.218281 0.303425,-0.846668 0.402198,-1.396415 z m -0.905483,0.867249 c 0,-0.291042 -0.04565,-0.529167 -0.101433,-0.529167 -0.05579,0 -0.163704,0.238125 -0.239813,0.529167 -0.07611,0.291041 -0.03046,0.529166 0.101433,0.529166 0.131897,0 0.239813,-0.238125 0.239813,-0.529166 z m 115.494394,0.270688 c -0.08786,-0.142164 -0.03511,-0.721354 0.117228,-1.28709 0.288123,-1.070008 0.115761,-2.687765 -0.286365,-2.687765 -0.267861,0 -0.319392,3.792674 -0.05512,4.056944 0.26434,0.26434 0.406258,0.212391 0.224259,-0.08209 z m 8.246759,-0.320298 c -0.08446,-0.211067 -0.147156,-0.148372 -0.159852,0.159853 -0.01149,0.278915 0.05105,0.435184 0.138964,0.347265 0.08792,-0.08792 0.09732,-0.316122 0.02089,-0.507118 z m -5.34141,-0.746236 c -0.289292,-0.468084 -0.589532,-0.277933 -0.525513,0.332825 0.09192,0.876987 0.120379,0.903934 0.416882,0.394779 0.148972,-0.255814 0.197856,-0.583236 0.108631,-0.727604 z M -67.892848,78.413893 c -0.314075,-0.818467 -0.594025,-0.319989 -0.320478,0.570643 0.23222,0.75608 0.308898,0.832618 0.37832,0.377633 0.04789,-0.313854 0.02186,-0.740578 -0.05784,-0.948276 z m 22.592647,1.357774 c 0,-0.06417 -0.119062,-0.190262 -0.264583,-0.280198 -0.145521,-0.08994 -0.264583,-0.03743 -0.264583,0.116676 0,0.154109 0.119062,0.280199 0.264583,0.280199 0.145521,0 0.264583,-0.0525 0.264583,-0.116677 z m 94.456248,-0.41249 c 0,-0.291042 -0.119063,-0.529167 -0.264584,-0.529167 -0.145521,0 -0.264583,0.238125 -0.264583,0.529167 0,0.291042 0.119062,0.529167 0.264583,0.529167 0.145521,0 0.264584,-0.238125 0.264584,-0.529167 z m 4.424731,-2.711979 c -0.05869,-0.472943 -0.106712,-0.08599 -0.106712,0.859896 0,0.945885 0.04802,1.332838 0.106712,0.859895 0.05869,-0.472942 0.05869,-1.246849 0,-1.719791 z m -115.659554,0.57376 c -0.376158,-0.447039 -0.683924,-0.683435 -0.683924,-0.525325 0,0.15811 0.238125,0.491362 0.529166,0.74056 0.291042,0.249197 0.538567,0.634985 0.550055,0.857306 0.01415,0.27384 0.06407,0.29714 0.154758,0.07224 0.07363,-0.18259 -0.173896,-0.69774 -0.550055,-1.144779 z m 120.863807,0.925954 c 0.313825,-0.817815 0.175998,-1.962735 -0.236276,-1.962735 -0.218282,0 -0.396875,0.163711 -0.396875,0.363802 0,0.200091 -0.07441,0.735872 -0.165365,1.190625 -0.12711,0.635548 -0.07245,0.826823 0.236276,0.826823 0.220902,0 0.47391,-0.188332 0.56224,-0.418515 z M 73.497713,76.96423 c 0,-0.368476 -0.577205,-0.601265 -0.759498,-0.306308 -0.09414,0.152326 -0.586846,0.32543 -1.094898,0.384676 l -0.923729,0.10772 0.859896,0.368686 c 0.472942,0.202777 0.863856,0.491411 0.868698,0.641409 0.01022,0.316777 1.049531,-0.867753 1.049531,-1.196183 z M 57.35813,77.374802 c 0,-0.48507 -0.141111,-0.661459 -0.529167,-0.661459 -0.643781,0 -0.665979,0.204033 -0.09128,0.839063 0.568009,0.627643 0.620451,0.612631 0.620451,-0.177604 z m 6.124985,-0.418029 c 0.271746,-0.171641 0.01937,-1.03718 -0.30243,-1.03718 -0.265313,0 -0.518592,1.636312 -0.307154,1.984376 0.0884,0.14552 0.207058,0.02646 0.263686,-0.264584 0.05663,-0.291041 0.212283,-0.598217 0.345898,-0.682612 z m -3.539457,-0.371296 c -0.03293,-0.397885 -0.149976,-0.561436 -0.296752,-0.41466 -0.133306,0.133306 -0.17077,0.428971 -0.08325,0.657034 0.240192,0.625929 0.441255,0.497687 0.380006,-0.242374 z m -127.55481,-1.54765 c 0.171204,-0.751955 0.215933,-1.465418 0.0994,-1.585473 -0.116535,-0.120055 -0.211883,0.101845 -0.211883,0.493111 0,0.391266 -0.121754,0.787149 -0.270566,0.87974 -0.241699,0.150386 -0.432439,1.084493 -0.354033,1.733798 0.06575,0.544518 0.444945,-0.238049 0.737085,-1.521176 z M 53.670933,73.184896 c -0.199015,-0.199015 -0.281553,0.07007 -0.281553,0.917892 0,1.559684 0.372204,1.934038 0.47999,0.482762 0.04571,-0.615505 -0.04358,-1.2458 -0.198437,-1.400654 z m 4.843383,-0.241865 c 0.09424,-0.836745 0.0792,-1.521354 -0.03344,-1.521354 -0.176822,0 -1.122747,2.307791 -1.122747,2.739186 0,0.08504 0.178593,0.08609 0.396875,0.0023 0.224758,-0.08625 0.396875,-0.0061 0.396875,0.184693 0,0.79164 0.204182,2.01e-4 0.362436,-1.404852 z m 143.570894,1.387158 c 0,-0.287429 -0.0918,-0.306776 -1.45521,-0.306776 -1.28687,0 -1.36938,0.02272 -0.97982,0.269842 0.49892,0.316492 2.43503,0.345858 2.43503,0.03693 z m 1.51584,-0.157948 c -0.0879,-0.08792 -0.31612,-0.09732 -0.50711,-0.02089 -0.21107,0.08446 -0.14838,0.147157 0.15985,0.159852 0.27891,0.01149 0.43518,-0.05105 0.34726,-0.138964 z M 55.77063,72.993562 c 0,-0.648591 -0.104793,-1.009183 -0.264584,-0.910427 -0.14552,0.08994 -0.264583,0.573214 -0.264583,1.073948 0,0.500735 0.119063,0.910427 0.264583,0.910427 0.145521,0 0.264584,-0.483277 0.264584,-1.073948 z m -119.278573,-0.04171 c -0.189855,-0.189855 -0.313091,-0.205476 -0.313091,-0.03969 0,0.150371 0.07937,0.352778 0.176389,0.449792 0.09701,0.09701 0.237905,0.114873 0.313091,0.03969 0.07519,-0.07519 -0.0042,-0.277592 -0.176389,-0.449792 z m 266.386903,0.113447 c 0,-0.08071 -0.20836,-0.384668 -0.46302,-0.675463 -0.44097,-0.503542 -0.44097,-0.520678 0,-0.359867 0.30452,0.111051 0.46302,0.03868 0.46302,-0.211415 0,-0.209147 -0.15655,-0.320194 -0.34789,-0.24677 -0.22717,0.08718 -0.43374,-0.206013 -0.59531,-0.844955 -0.24561,-0.971286 -0.9784,-1.422318 -1.34559,-0.828204 -0.10274,0.166245 -0.0489,0.204445 0.13125,0.09311 0.19978,-0.123472 0.30546,0.04006 0.30546,0.472671 0,0.363802 -0.11906,0.735043 -0.26458,0.82498 -0.41688,0.257647 -0.30887,0.606362 0.17529,0.565914 0.28462,-0.02378 0.51846,0.257915 0.66253,0.798098 0.17634,0.661168 0.33252,0.806115 0.75075,0.696745 0.29045,-0.07595 0.52809,-0.204135 0.52809,-0.284844 z M 72.614018,72.658909 c 0.410649,-0.0034 0.594829,-1.721758 0.218056,-2.034452 -0.442612,-0.367335 -2.265373,1.615133 -1.874013,2.03821 0.159882,0.172838 0.528818,0.243263 0.81986,0.156502 0.291042,-0.08676 0.667285,-0.158879 0.836097,-0.16026 z M 201.29146,72.48001 c 0,-0.145521 -0.0525,-0.264583 -0.11667,-0.264583 -0.0642,0 -0.19027,0.119062 -0.2802,0.264583 -0.0899,0.145521 -0.0374,0.264583 0.11667,0.264583 0.15411,0 0.2802,-0.119062 0.2802,-0.264583 z M 49.023755,72.215427 c 0.08994,-0.145521 0.03743,-0.264584 -0.116677,-0.264584 -0.154109,0 -0.280198,0.119063 -0.280198,0.264584 0,0.145521 0.0525,0.264583 0.116677,0.264583 0.06417,0 0.190261,-0.119062 0.280198,-0.264583 z M 50.9269,70.434525 c -0.06708,-0.257431 -0.126381,-0.110869 -0.131773,0.325693 -0.0054,0.436563 0.04949,0.647188 0.12197,0.468057 0.07247,-0.179132 0.07689,-0.536319 0.0098,-0.79375 z m 3.043738,0.04505 c 0.115697,-0.991036 -0.148731,-1.464681 -0.421242,-0.75453 -0.240208,0.625972 -0.192488,1.696633 0.07562,1.696633 0.1296,0 0.28513,-0.423947 0.345622,-0.942103 z m 14.22128,-0.21048 c -0.254754,-0.234805 -0.289963,-0.19401 -0.157105,0.182035 0.09418,0.266563 0.185045,0.623751 0.201925,0.79375 0.01688,0.169999 0.08758,0.08808 0.157104,-0.182035 0.06953,-0.270119 -0.02134,-0.627307 -0.201924,-0.79375 z M -61.521013,69.905358 c -0.06708,-0.257431 -0.126382,-0.110869 -0.131774,0.325694 -0.0054,0.436562 0.0495,0.647188 0.12197,0.468056 0.07247,-0.179131 0.07689,-0.536319 0.0098,-0.79375 z m -6.537405,-0.8144 c -0.0032,-0.556887 -0.05993,-0.625533 -0.260532,-0.315115 -0.337846,0.522779 -0.337846,1.399425 0,1.190625 0.145521,-0.08994 0.26276,-0.483916 0.260532,-0.87551 z m 5.063433,0.300042 c -0.230598,-0.396551 -0.282229,-0.407981 -0.288836,-0.06394 -0.0086,0.445579 0.269661,0.846772 0.457179,0.659254 0.06185,-0.06185 -0.01391,-0.329737 -0.168343,-0.595314 z m 161.098947,0.3265 c 0,-0.06417 -0.119063,-0.190262 -0.264583,-0.280198 -0.145521,-0.08994 -0.264584,-0.03743 -0.264584,0.116676 0,0.154109 0.119063,0.280199 0.264584,0.280199 0.14552,0 0.264583,-0.05251 0.264583,-0.116677 z M -60.910617,68.744613 c 0,-0.14552 -0.119062,-0.190998 -0.264583,-0.101061 -0.145521,0.08994 -0.264584,0.282584 -0.264584,0.428104 0,0.145521 0.119063,0.190999 0.264584,0.101062 0.145521,-0.08994 0.264583,-0.282584 0.264583,-0.428105 z m -4.7625,-0.233353 c 0,-0.145521 -0.126089,-0.264583 -0.280198,-0.264583 -0.154109,0 -0.206614,0.119062 -0.116677,0.264583 0.08994,0.145521 0.216026,0.264583 0.280198,0.264583 0.06417,0 0.116677,-0.119062 0.116677,-0.264583 z m -3.079319,-0.396875 c 0.173086,-0.451055 -0.04911,-1.190625 -0.357713,-1.190625 -0.112979,0 -0.259456,0.208359 -0.325505,0.463021 -0.240135,0.925887 0.36133,1.566429 0.683218,0.727604 z M 66.799287,67.932484 c -0.08446,-0.211067 -0.147157,-0.148372 -0.159853,0.159852 -0.01149,0.278915 0.05105,0.435185 0.138965,0.347266 0.08792,-0.08792 0.09732,-0.316122 0.02089,-0.507118 z M -62.642317,66.725322 c 0.131044,-0.433739 0.07154,-0.595312 -0.21923,-0.595312 -0.546803,0 -0.763426,0.425622 -0.553407,1.087335 0.194281,0.612125 0.497357,0.419123 0.772637,-0.492023 z m -4.486008,-0.06615 c 0.08994,-0.145521 0.03743,-0.264584 -0.116677,-0.264584 -0.154109,0 -0.280198,0.119063 -0.280198,0.264584 0,0.14552 0.0525,0.264583 0.116677,0.264583 0.06417,0 0.190261,-0.119063 0.280198,-0.264583 z m 7.540625,-0.529167 c 0,-0.145521 -0.119063,-0.264583 -0.264584,-0.264583 -0.14552,0 -0.264583,0.119062 -0.264583,0.264583 0,0.145521 0.119063,0.264583 0.264583,0.264583 0.145521,0 0.264584,-0.119062 0.264584,-0.264583 z m 118.797913,2.910417 c 0,-0.291042 0.04565,-0.529167 0.101433,-0.529167 0.05579,0 0.163704,0.238125 0.239813,0.529167 0.07611,0.291041 0.03046,0.529166 -0.101433,0.529166 -0.131897,0 -0.239813,-0.238125 -0.239813,-0.529166 z"
       id="path3" /></g></svg>
