<?xml version="1.0" encoding="UTF-8" standalone="no"?>
<!-- Created with Inkscape (http://www.inkscape.org/) -->

<svg
   width="362.47916mm"
   height="155.04584mm"
   viewBox="0 0 362.47916 155.04584"
   version="1.1"
   id="svg1"
   xml:space="preserve"
   xmlns="http://www.w3.org/2000/svg"
   xmlns:svg="http://www.w3.org/2000/svg"><defs
     id="defs1" /><g
     id="layer1"
     transform="translate(72.219688,-65.87713)"><path
       style="fill:#000000"
       d="m -72.211722,146.7013 c 0.0072,-67.357955 0.04688,-74.293222 0.428098,-74.875035 0.431185,-0.658071 0.311754,-1.602768 -0.165348,-1.307902 -0.170843,0.105587 -0.266452,-0.636831 -0.266452,-2.069053 0,-2.192033 0.01277,-2.236169 0.683842,-2.364453 0.596084,-0.113949 0.66267,-0.05849 0.518869,0.432176 -0.578587,1.974195 -0.443023,2.738633 0.346158,1.951964 0.265588,-0.264743 0.43334,-0.198756 0.840783,0.330729 0.38187,0.496251 0.510468,0.553134 0.514882,0.227749 0.0032,-0.23854 0.240047,-0.71479 0.526247,-1.058333 0.520364,-0.624625 0.520364,-0.624625 0.529167,-0.02931 0.0048,0.327422 -0.09115,0.595313 -0.213311,0.595313 -0.357339,0 -0.837167,1.277169 -0.656606,1.747703 0.138913,0.362001 0.220465,0.330714 0.509066,-0.195303 0.189011,-0.344497 0.422555,-1.132374 0.518988,-1.750838 0.09643,-0.618464 0.280876,-1.124479 0.409874,-1.124479 0.128998,0 0.234541,-0.288734 0.234541,-0.64163 0,-0.64163 0,-0.64163 4.365625,-0.667548 l 4.365625,-0.02592 v 0.916516 c 0,0.504084 0.124844,0.993674 0.277431,1.087978 0.19328,0.119454 0.192732,0.273519 -0.0018,0.507924 -0.153581,0.185055 -0.226929,0.740002 -0.162995,1.233216 0.06393,0.493214 0.124278,1.052608 0.134099,1.243098 0.0098,0.190489 0.136919,0.272759 0.28244,0.182822 0.145521,-0.08994 0.264583,-0.683193 0.264583,-1.318346 0,-0.635154 0.139511,-1.759221 0.310025,-2.497927 l 0.310025,-1.343102 h 53.9736541 c 29.6855099,0 53.8963879,0.07727 53.8019509,0.171703 -0.09444,0.09444 -0.4323,0.302797 -0.750808,0.463021 -0.318507,0.160225 -0.633718,0.456719 -0.700469,0.658876 -0.07248,0.219497 -0.0032,0.294503 0.172076,0.186202 0.161392,-0.09975 0.549167,-0.04449 0.861723,0.12278 0.686373,0.367335 1.100212,-0.07573 0.940815,-1.007269 -0.05602,-0.327422 -0.0132,-0.595313 0.09517,-0.595313 0.108369,0 0.270449,0.267891 0.360178,0.595313 0.132302,0.482772 0.209862,0.522674 0.410276,0.21107 0.135922,-0.211333 0.18843,-0.479224 0.116683,-0.595313 -0.07175,-0.116088 0.154391,-0.21107 0.502527,-0.21107 0.401472,0 0.656953,0.169345 0.698532,0.463021 0.135884,0.95975 -0.01147,3.604639 -0.223412,4.009935 -0.201383,0.385113 0.124424,1.827651 0.357921,1.584728 0.05528,-0.05751 0.159326,-0.740994 0.231221,-1.518859 0.0719,-0.777865 0.262236,-1.545819 0.42298,-1.706563 0.390543,-0.390542 0.373223,-2.116301 -0.02524,-2.514762 -0.246944,-0.246944 0.04704,-0.3175 1.322917,-0.3175 1.640416,0 1.640416,0 1.640416,0.79375 0,0.436563 0.119063,0.79375 0.264584,0.79375 0.145521,0 0.266406,-0.148828 0.268635,-0.330729 0.0027,-0.220486 0.08955,-0.198438 0.260531,0.06615 0.141065,0.218281 0.258304,1.256341 0.260532,2.3068 0.003,1.431414 0.08802,1.877705 0.33919,1.781321 0.184326,-0.07073 0.503479,0.104956 0.709229,0.390418 0.348332,0.483285 0.397549,0.488158 0.71478,0.07076 0.304186,-0.40023 0.341592,-0.370299 0.349105,0.279344 0.0046,0.400182 0.111992,0.727604 0.238588,0.727604 0.32249,0 0.555124,-2.369032 0.29883,-3.043137 -0.118293,-0.311134 -0.09605,-0.763088 0.05044,-1.024849 0.144129,-0.257544 0.187813,-0.764058 0.09708,-1.125587 -0.132627,-0.528426 -0.279989,-0.624319 -0.751477,-0.489007 -0.322574,0.09257 -0.809768,0.231157 -1.082653,0.307961 -0.312186,0.08787 -0.43101,0.03424 -0.320463,-0.144632 0.09663,-0.156351 -0.06705,-0.435872 -0.363741,-0.621157 -0.296689,-0.185285 -0.539434,-0.427304 -0.539434,-0.53782 0,-0.110517 2.43086,-0.200939 5.40191,-0.200939 4.062824,0 5.440169,0.08198 5.55625,0.330729 0.122659,0.262842 0.185879,0.263266 0.307991,0.0021 0.121791,-0.260511 13.68486,-0.329301 65.408928,-0.331745 65.25528,-0.0031 65.25528,-0.0031 65.81877,0.652688 l 0.56349,0.655771 0.35041,-0.654755 c 0.35041,-0.654755 0.35041,-0.654755 44.7557,-0.654755 h 44.40529 v 77.522877 77.52292 H 109.02202 -72.219688 Z M 37.85124,205.47263 c 0,-0.42138 -0.480049,-0.81439 -0.711748,-0.58269 -0.217656,0.21766 0.122111,0.96395 0.438861,0.96395 0.150088,0 0.272887,-0.17157 0.272887,-0.38126 z m -10.054166,-0.43724 c 0,-0.14104 -0.17791,-0.32471 -0.395356,-0.40815 -0.217445,-0.0834 -0.334566,-0.25007 -0.260267,-0.37029 0.0743,-0.12022 0.01408,-0.29336 -0.133812,-0.38477 -0.427107,-0.26396 -0.312346,-0.87919 0.194122,-1.04068 0.481806,-0.15362 0.630528,-0.83212 0.689974,-3.14784 0.02986,-1.16331 0.08381,-1.26568 0.613616,-1.1644 0.425494,0.0813 0.918909,-0.23215 1.844582,-1.17195 l 1.263706,-1.283 H 30.6007 c -0.745549,0 -1.354051,0.2504 -2.305157,0.94857 -0.710721,0.52172 -1.292219,1.005 -1.292219,1.07395 0,0.069 0.119062,0.0518 0.264583,-0.0382 0.145521,-0.0899 0.264583,0.0151 0.264583,0.23336 0,0.21828 -0.119062,0.47045 -0.264583,0.56039 -0.145521,0.0899 -0.264583,0.0374 -0.264583,-0.11668 0,-0.58146 -0.488305,-0.24892 -0.754104,0.51356 -0.152186,0.43656 -0.178717,0.79375 -0.05896,0.79375 0.119761,0 0.293649,0.37951 0.386419,0.84336 0.196063,0.98031 -0.161062,1.5091 -0.710969,1.05272 -0.506685,-0.42051 -0.714474,-0.12447 -0.714474,1.01795 0,0.96553 0.571496,1.91462 1.294915,2.1505 0.690881,0.22526 1.350919,0.19488 1.350919,-0.0622 z m 2.248958,-0.87672 c 0.436562,-0.10454 1.041431,-0.23932 1.344153,-0.29953 0.449024,-0.0893 0.528347,-0.25973 0.430659,-0.92532 -0.08517,-0.58034 -0.231225,-0.7731 -0.505897,-0.66769 -0.212384,0.0815 -0.491741,0.14818 -0.620793,0.14818 -0.129051,0 -0.166492,0.17759 -0.0832,0.39464 0.202224,0.52699 -0.676117,0.85846 -0.984449,0.37152 -0.197418,-0.31179 -0.234459,-0.31232 -0.23788,-0.003 -0.0022,0.20121 -0.263239,0.59064 -0.580024,0.86538 -0.63402,0.54988 -0.590519,0.55397 1.237431,0.11627 z m 3.63722,-2.27353 c -0.04574,-0.4519 0.0055,-0.54965 0.161617,-0.30854 0.181041,0.27953 0.265747,0.25601 0.407398,-0.11313 0.104028,-0.27109 0.01821,-0.62666 -0.205171,-0.85003 -0.335617,-0.33562 -0.486869,-0.31076 -1.200347,0.19728 -1.221475,0.86977 -1.081065,1.96731 0.232089,1.81417 0.540885,-0.0631 0.65835,-0.20684 0.604414,-0.73975 z m 3.032214,-2.37827 c 0.07568,-0.28941 0.243969,-0.46046 0.373973,-0.38011 0.130005,0.0804 0.309771,-0.0452 0.399481,-0.27897 0.255715,-0.66638 -0.01874,-0.71184 -0.66466,-0.11007 -0.413205,0.38496 -0.786369,0.50227 -1.237517,0.38904 -0.757506,-0.19012 -0.836392,0.0419 -0.182899,0.53798 0.666253,0.50576 1.153411,0.44712 1.311622,-0.15787 z m 2.627594,-1.45819 c 0.08376,-0.21828 0.35547,-0.39687 0.603795,-0.39687 0.418736,0 3.992182,-3.84458 4.226668,-4.54736 0.05752,-0.17239 0.563532,-0.77699 1.124479,-1.34358 0.946981,-0.95649 1.142319,-1.30573 1.044681,-1.86779 -0.02084,-0.11996 0.07165,-0.15041 0.205527,-0.0677 0.237717,0.14692 0.688916,-0.5767 0.605451,-0.971 -0.0231,-0.10914 0.08409,-0.19844 0.238194,-0.19844 0.154109,0 0.211019,-0.11193 0.126466,-0.24874 -0.08455,-0.13681 0.206078,-0.65854 0.645844,-1.15941 0.439766,-0.50086 0.799575,-1.16284 0.799575,-1.47105 0,-0.30821 0.134641,-0.56038 0.299202,-0.56038 0.194543,0 0.2463,-0.326 0.147964,-0.93197 -0.08318,-0.51258 -0.05653,-0.87344 0.05921,-0.80191 0.596022,0.36837 2.313249,-2.84363 2.183189,-4.08355 -0.04469,-0.42604 0.109819,-0.85646 0.388711,-1.08286 0.254585,-0.20666 0.378553,-0.23515 0.275485,-0.0633 -0.103068,0.17185 -0.0838,0.37648 0.04281,0.45473 0.321544,0.19872 0.85689,-1.0683 0.663889,-1.57125 -0.08887,-0.2316 0.07521,-0.66941 0.373027,-0.99532 0.751204,-0.82207 1.295799,-1.99485 1.50134,-3.2331 0.250088,-1.50663 0.478347,-1.76104 1.608734,-1.79309 0.549397,-0.0156 0.862784,-0.0737 0.696417,-0.12914 -0.62316,-0.20772 -0.266489,-0.45602 0.755723,-0.52611 0.581589,-0.0399 1.363072,-0.1887 1.736629,-0.33072 0.373557,-0.14203 0.879803,-0.2475 1.124991,-0.23437 0.245188,0.0131 0.04579,0.13897 -0.443113,0.27966 -0.488901,0.1407 -0.831587,0.31313 -0.761525,0.38319 0.07006,0.0701 1.77976,0.139 3.799327,0.15318 3.237088,0.0227 3.844275,-0.0447 5.127149,-0.56976 0.800364,-0.32755 1.975013,-0.73981 2.610331,-0.91613 0.979927,-0.27195 1.233232,-0.49096 1.670126,-1.44397 0.422394,-0.92138 0.454489,-1.19631 0.17848,-1.52888 -0.652868,-0.78665 -3.848003,-0.15951 -6.38326,1.25292 -0.305972,0.17047 -0.636926,0.17154 -0.951655,0.003 -0.332126,-0.17775 -0.589747,-0.15902 -0.826471,0.0601 -0.265861,0.24608 -0.30341,0.24628 -0.165414,8.9e-4 0.366059,-0.65096 -0.764444,-0.79973 -4.003491,-0.52685 -3.241146,0.27306 -3.241146,0.27306 -3.241146,1.03001 0,0.84221 -0.704766,1.3069 -1.080985,0.71274 -0.468956,-0.74062 -0.26126,-1.97872 0.442577,-2.63827 0.547893,-0.51341 0.656825,-0.81305 0.545801,-1.50133 -0.07629,-0.47294 -0.0569,-0.86126 0.0431,-0.86293 0.243678,-0.004 0.966546,-1.70061 1.351515,-3.17196 0.704292,-2.6918 0.923373,-3.28371 1.386961,-3.7473 0.267319,-0.26732 0.486035,-0.70865 0.486035,-0.98073 0,-0.27209 0.229765,-1.21393 0.51059,-2.09299 0.280824,-0.87905 0.447084,-1.84113 0.369465,-2.13794 -0.08289,-0.31698 0.08854,-0.86219 0.415452,-1.3213 0.306117,-0.4299 0.558399,-1.12045 0.560628,-1.53454 0.0078,-1.45864 0.674151,-1.74042 3.33512,-1.41041 2.328945,0.28882 2.468437,0.21469 2.332134,-1.23937 -0.07384,-0.78772 0.02248,-1.38504 0.283419,-1.75758 0.59061,-0.84321 0.491317,-1.64081 -0.246091,-1.9768 -0.503977,-0.22962 -0.709289,-0.21038 -0.958439,0.0898 -0.174389,0.21012 -0.493825,0.38205 -0.709857,0.38205 -0.240441,0 -0.333717,0.15393 -0.240491,0.39687 0.08376,0.21828 0.02308,0.39688 -0.134843,0.39688 -0.157926,0 -0.224867,0.23812 -0.148758,0.52916 0.08883,0.3397 0.0081,0.52917 -0.22542,0.52917 -0.226314,0 -0.301782,0.16162 -0.199695,0.42765 0.139782,0.36427 0.07972,0.3825 -0.405179,0.12299 -0.683269,-0.36568 -0.699336,-0.49756 -0.136395,-1.1196 0.401729,-0.44391 0.399206,-0.49127 -0.03505,-0.65791 -0.257366,-0.0988 -0.701886,-0.0335 -0.987822,0.14511 -0.285936,0.17857 -0.559585,0.28497 -0.60811,0.23645 -0.04852,-0.0485 0.01853,-2.2892 0.149004,-4.97927 0.130477,-2.69008 0.241304,-5.20996 0.246283,-5.59975 0.01507,-1.17949 0.52483,-1.44544 2.609739,-1.36154 1.124643,0.0453 1.942321,-0.0376 2.047313,-0.2075 0.09614,-0.15557 0.327837,-0.86295 0.514871,-1.57197 0.260553,-0.98771 0.267125,-1.34965 0.0281,-1.54802 -0.51638,-0.42856 -3.677146,-0.3744 -5.133924,0.088 -0.720369,0.22864 -0.784889,-0.14773 -1.006096,-5.86887 -0.169431,-4.38205 -0.146412,-4.82865 0.248881,-4.82865 0.239569,0 0.435581,-0.11532 0.435581,-0.25628 0,-0.14095 -0.160545,-0.19467 -0.356765,-0.11937 -0.48147,0.18475 -0.568284,-3.17413 -0.13445,-5.20191 0.261315,-1.22142 0.445323,-1.53382 1.065013,-1.80812 0.726941,-0.32177 1.020503,-0.8164 0.484535,-0.8164 -0.145521,0 -0.51015,-0.24557 -0.810287,-0.54571 -0.700711,-0.70071 -1.155036,-0.54261 -1.246638,0.43382 -0.154602,1.64797 -0.29275,1.90983 -0.986528,1.86996 -0.414084,-0.0238 -0.618177,-0.16341 -0.539424,-0.36901 0.06968,-0.1819 0.01938,-0.33073 -0.111764,-0.33073 -0.131147,0 -0.316265,0.26789 -0.411373,0.59531 -0.09511,0.32743 -0.482965,0.85597 -0.861904,1.17455 -0.688979,0.57923 -0.688979,0.57923 -0.19068,1.50452 0.425828,0.79071 0.602763,0.90439 1.216551,0.78163 0.933149,-0.18663 1.245368,0.41791 1.091341,2.1131 -0.08324,0.91611 -0.214029,1.23662 -0.465279,1.14021 -0.192221,-0.0738 -0.492079,0.0377 -0.666352,0.24768 -0.433835,0.52274 -1.055442,3.6178 -0.793112,3.949 0.11673,0.14738 0.294793,0.95069 0.395694,1.78514 0.173929,1.4384 0.675588,2.40732 0.675588,1.30487 0,-0.28406 0.172499,-0.58267 0.383331,-0.66357 0.479954,-0.18418 0.747881,0.5969 0.717856,2.09274 -0.01231,0.61341 0.08597,1.49313 0.218415,1.95493 0.220138,0.76758 0.19088,0.83564 -0.340962,0.79318 -1.172691,-0.0936 -1.253432,-0.0352 -0.930498,0.67359 0.16576,0.3638 0.516205,0.66145 0.778769,0.66145 0.262563,0 0.600639,0.2303 0.75128,0.51178 0.412912,0.77153 0.328937,2.9968 -0.156694,4.15227 -0.454343,1.08102 -0.64767,4.02366 -0.279306,4.25132 0.119241,0.0737 0.145917,0.31872 0.05928,0.54449 -0.08664,0.22577 -0.02288,0.81846 0.14168,1.31708 0.261269,0.79165 0.232837,0.96842 -0.224267,1.39427 -0.636986,0.59345 -1.055641,2.88667 -0.580594,3.18027 0.23436,0.14484 0.246239,0.42895 0.04546,1.0874 -0.149481,0.49023 -0.344756,1.40593 -0.433944,2.03488 -0.08919,0.62895 -0.419692,1.49187 -0.734451,1.91761 -0.547614,0.74069 -0.553662,0.81313 -0.140252,1.68006 0.349792,0.73352 0.367135,0.95986 0.0911,1.18895 -0.187515,0.15562 -0.41928,0.20461 -0.515031,0.10886 -0.09575,-0.0958 -0.174093,0.01 -0.174093,0.23448 0,0.22472 -0.177185,0.55563 -0.393744,0.73535 -0.318876,0.26465 -0.424877,0.24565 -0.557475,-0.0999 -0.337524,-0.87958 -0.579839,-0.36507 -0.76478,1.62385 -0.104869,1.12778 -0.262893,2.16885 -0.351165,2.31348 -0.243493,0.39896 -2.198672,5.99388 -2.3583,6.7485 -0.268781,1.27061 -1.044041,1.80941 -2.583582,1.79557 -0.885492,-0.008 -1.628669,0.14631 -2.017751,0.41883 -0.33877,0.23729 -0.827579,0.43143 -1.086241,0.43143 -0.361983,0 -0.470295,0.21542 -0.470295,0.93535 0,1.78734 1.234974,2.73013 2.611337,1.99353 0.253702,-0.13578 0.620699,-0.14674 0.818578,-0.0244 0.301682,0.18645 0.301192,0.36224 -0.0031,1.10602 -0.198978,0.48638 -0.515633,1.04166 -0.70368,1.23396 -0.188046,0.19229 -0.341902,0.74326 -0.341902,1.22437 0,0.48111 -0.183201,1.02679 -0.407112,1.21262 -0.223911,0.18583 -0.655292,0.91479 -0.958623,1.6199 -0.303332,0.70511 -0.642516,1.28202 -0.753743,1.28202 -0.111227,0 -0.538716,0.80367 -0.949976,1.78594 -0.411259,0.98227 -1.247512,2.64108 -1.858339,3.68626 -0.610828,1.04517 -1.195795,2.17627 -1.299929,2.51354 -0.104133,0.33727 -0.355915,0.79182 -0.559515,1.0101 -1.081518,1.1595 -3.320946,4.6302 -2.987583,4.6302 0.05322,0 -0.187927,0.32743 -0.535881,0.72761 -0.347954,0.40018 -0.789766,0.7276 -0.981804,0.7276 -0.192039,0 -0.349162,0.10955 -0.349162,0.24345 0,0.1339 -0.533814,0.75897 -1.186255,1.38906 -1.054363,1.01824 -1.660521,2.12602 -0.909267,1.66172 0.157151,-0.0971 0.461558,0.0744 0.676462,0.38126 0.459329,0.65578 0.846342,0.71462 1.058797,0.16097 z m 9.112401,-12.19288 c 0.0127,-0.30823 0.07539,-0.37092 0.159853,-0.15985 0.07643,0.19099 0.06703,0.4192 -0.02089,0.50711 -0.08792,0.0879 -0.150452,-0.0684 -0.138964,-0.34726 z m 3.843878,-9.78918 c -0.216053,-0.56302 -0.216457,-0.56176 0.236276,-0.73549 0.286727,-0.11003 0.396875,0.029 0.396875,0.50085 0,0.73215 -0.38718,0.87564 -0.633151,0.23464 z m 18.360233,-7.35838 c 0,-0.0572 0.184778,-0.17489 0.410617,-0.26155 0.23546,-0.0904 0.341662,-0.046 0.248969,0.10398 -0.155379,0.25141 -0.659586,0.37186 -0.659586,0.15757 z m -3.422307,-39.16583 c -0.256091,-0.30857 -0.214422,-0.35051 0.232186,-0.23372 0.299359,0.0783 0.544288,0.24751 0.544288,0.37606 0,0.35687 -0.427151,0.27857 -0.776474,-0.14234 z m -6.102692,-6.23852 c 0,-0.1627 -0.119063,-0.22223 -0.264584,-0.13229 -0.150873,0.0932 -0.274059,-0.1559 -0.286632,-0.5797 -0.01213,-0.40877 -0.05176,-1.01111 -0.08807,-1.33853 -0.06515,-0.58739 0.214082,-0.80468 0.480369,-0.37382 0.321945,0.52092 0.616593,2.43729 0.395728,2.5738 -0.130244,0.0805 -0.236807,0.0132 -0.236807,-0.14946 z m -0.216305,-9.95714 c -0.399708,-0.43289 -0.327432,-1.19491 0.127707,-1.34644 0.396318,-0.13195 0.716097,0.85872 0.435462,1.34906 -0.184943,0.32314 -0.262709,0.32278 -0.563169,-0.003 z m -36.031611,82.62936 c 0,-0.19403 -0.07834,-0.43112 -0.174093,-0.52687 -0.239271,-0.23927 -0.913482,0.3537 -0.733421,0.64505 0.225454,0.36479 0.907514,0.27597 0.907514,-0.11818 z M 168.42311,191.8153 c 0,-0.20265 -0.35719,-0.48879 -0.79375,-0.63587 -0.43656,-0.14707 -0.88896,-0.41783 -1.00533,-0.60168 -0.24856,-0.39268 -0.88153,-0.44152 -1.10186,-0.085 -0.0847,0.13709 0.25996,0.44571 0.76596,0.68583 0.50601,0.24012 1.06243,0.60817 1.23648,0.81789 0.37318,0.44966 0.8985,0.34375 0.8985,-0.18115 z m 1.39939,-2.8286 c -0.35997,-0.4352 -0.91108,-0.42147 -1.08317,0.027 -0.0966,0.25177 0.084,0.34973 0.60973,0.33073 0.56558,-0.0204 0.68056,-0.10731 0.47344,-0.35772 z m 27.3079,-4.96094 c 0,-0.21828 -0.17859,-0.39687 -0.39687,-0.39687 -0.68857,0 -0.46543,0.52144 0.33073,0.77286 0.0364,0.0115 0.0661,-0.1577 0.0661,-0.37599 z m 2.79765,-0.69305 c 0.0792,-0.12814 0.44921,-0.23299 0.82224,-0.23299 0.54188,0 0.61819,-0.0724 0.37958,-0.35986 -0.16426,-0.19793 -0.58222,-0.30566 -0.92879,-0.23941 -0.34657,0.0662 -0.91136,-0.0261 -1.25509,-0.20514 -0.34373,-0.17908 -0.54327,-0.2377 -0.44342,-0.13026 0.0999,0.10743 0.0777,0.4685 -0.0493,0.80238 -0.12694,0.33388 -0.17607,0.66178 -0.10918,0.72867 0.18486,0.18486 1.42024,-0.0986 1.58391,-0.36339 z m -0.94556,-3.40799 c 0,-0.3315 -0.28079,-0.3315 -0.79375,0 -0.32093,0.2074 -0.28296,0.25726 0.19843,0.26053 0.32742,0.002 0.59532,-0.11501 0.59532,-0.26053 z M 57.29613,177.47733 c -0.112173,-0.61847 -0.188413,-1.69003 -0.169421,-2.38125 0.03589,-1.30646 -0.310555,-1.69627 -0.587873,-0.66146 -0.258983,0.96639 -0.189186,3.37344 0.09782,3.37344 0.145521,0 0.264583,0.17859 0.264583,0.39687 0,0.21828 0.13474,0.39688 0.299421,0.39688 0.207863,0 0.237056,-0.34385 0.09547,-1.12448 z m -33.365944,-3.49642 c 0.509696,-0.7779 0.555889,-1.8265 0.09658,-2.19227 -0.181901,-0.14485 -0.772788,-0.41987 -1.313082,-0.61116 -0.563968,-0.19966 -1.731396,-1.10261 -2.741078,-2.12009 -1.529125,-1.54093 -1.776118,-1.92662 -1.89196,-2.95437 -0.149702,-1.32815 0.34105,-2.66071 0.744987,-2.0229 0.127651,0.20156 0.235739,0.24741 0.240196,0.10189 0.0045,-0.14552 0.124537,-0.086 0.266845,0.1323 0.177658,0.2725 0.207394,0.009 0.09489,-0.84085 -0.130142,-0.98306 -0.05198,-1.41874 0.379883,-2.11751 0.691102,-1.11822 2.817301,-3.35822 4.020884,-4.23608 0.509323,-0.37149 1.395793,-1.10737 1.969933,-1.63529 1.196022,-1.09974 1.464376,-1.16947 1.657571,-0.43069 0.07659,0.29287 0.360895,0.52917 0.636688,0.52917 0.598959,0 0.661832,-0.67595 0.09251,-0.99456 -0.982528,-0.54985 2.721745,-2.72901 5.26532,-3.0975 1.282029,-0.18573 1.490479,-0.3156 1.490479,-0.92859 0,-0.27033 0.148829,-0.54535 0.33073,-0.61116 0.190731,-0.069 0.02273,-0.26431 -0.396875,-0.46139 -0.567161,-0.26639 -0.877835,-0.27329 -1.40889,-0.0313 -0.684419,0.31184 -1.170798,0.21514 -1.170798,-0.23279 0,-0.13236 0.178594,-0.17213 0.396875,-0.0884 0.218281,0.0838 0.396875,0.0205 0.396875,-0.14059 0,-0.16109 -0.271249,-0.29289 -0.602777,-0.29289 -0.685027,0 -4.268386,1.65033 -4.540954,2.09135 -0.09854,0.15945 -0.410263,0.2899 -0.692717,0.2899 -0.282453,0 -0.513552,0.12446 -0.513552,0.27657 0,0.17297 -0.348107,0.21127 -0.929269,0.10224 -0.768071,-0.14409 -0.902274,-0.10398 -0.773645,0.23122 0.190103,0.4954 -0.6019,1.77122 -1.099541,1.77122 -0.19819,0 -0.560032,0.30476 -0.804094,0.67724 -0.334486,0.5105 -0.497858,0.59193 -0.663506,0.33073 -0.123455,-0.19466 -0.221534,-0.22045 -0.22381,-0.0589 -0.0051,0.36307 -2.012992,2.49046 -2.350552,2.49046 -0.33452,0 -2.944893,3.33557 -2.946155,3.76463 -5.44e-4,0.18503 -0.244279,0.73547 -0.541633,1.2232 -0.806989,1.32367 -0.971288,3.90522 -0.37775,5.9354 0.588974,2.01457 1.143532,2.50114 3.109567,2.72835 0.938457,0.10845 1.613985,0.33067 1.75134,0.57611 0.243236,0.43464 0.09856,1.32701 -0.29736,1.83416 -0.318448,0.40791 0.0057,0.94933 0.463201,0.77376 0.191776,-0.0736 0.61467,0.0969 0.939763,0.37884 0.795907,0.69028 1.420704,0.64523 1.93489,-0.13951 z m 10.1215,-23.60852 c -0.29797,-0.29797 -0.181475,-0.61017 0.227679,-0.61017 0.218281,0 0.396875,0.11204 0.396875,0.24897 0,0.33363 -0.41317,0.57258 -0.624554,0.3612 z m -3.079612,-0.32997 c 0,-0.38633 0.435989,-0.56393 0.924349,-0.37653 0.353011,0.13547 0.371287,0.21539 0.09002,0.39368 -0.472856,0.29975 -1.014371,0.29059 -1.014371,-0.0171 z m -3.571875,22.69114 c 0.14552,0.0212 0.668449,0.11609 1.162062,0.21083 0.499894,0.0959 0.833446,0.0686 0.752934,-0.0617 -0.0795,-0.12869 0.469134,-0.23398 1.219187,-0.23398 1.733819,0 1.754111,-0.43005 0.04082,-0.86504 -1.127319,-0.28622 -1.659926,-0.26913 -3.602252,0.1156 -1.801756,0.35689 -2.217533,0.52206 -1.984375,0.78831 0.192222,0.21951 0.617512,0.27947 1.221002,0.17213 0.509323,-0.0906 1.045104,-0.14734 1.190625,-0.12612 z m 180.456731,-3.20914 c 0.10767,-0.42896 0.0348,-0.68881 -0.22065,-0.78683 -0.26942,-0.10339 -0.47749,0.17737 -0.70869,0.95632 -0.18001,0.60648 -0.43396,1.37618 -0.56432,1.71045 -0.13037,0.33427 -0.23477,0.75099 -0.23201,0.92604 0.007,0.44832 1.53069,-2.02909 1.72567,-2.80598 z m 13.08597,2.35882 c 0,-0.62883 -0.62119,-1.09223 -1.08221,-0.8073 -0.35268,0.21797 -0.2952,0.55441 0.17507,1.02468 0.59104,0.59103 0.90714,0.51529 0.90714,-0.21738 z M 35.100524,171.68789 c 0.160596,-0.12668 0.87497,-0.16087 1.5875,-0.076 0.956991,0.11402 1.191804,0.0806 0.898633,-0.128 -0.311068,-0.22131 -0.189361,-0.28323 0.562915,-0.28641 0.553725,-0.002 1.108777,-0.18356 1.311939,-0.42836 0.255475,-0.30783 0.63294,-0.38665 1.374972,-0.28712 0.809203,0.10853 0.992822,0.059 0.879177,-0.23715 -0.09702,-0.25284 0.04687,-0.37565 0.443363,-0.37839 0.322855,-0.002 0.762266,-0.11488 0.976469,-0.25035 0.342891,-0.21684 0.342891,-0.26269 0,-0.38343 -0.801276,-0.28215 -1.975966,-0.28268 -1.92528,-8.7e-4 0.02842,0.15803 -0.274793,0.26791 -0.673817,0.24417 -0.399023,-0.0237 -1.196186,0.10237 -1.771472,0.28024 -0.726894,0.22474 -0.864371,0.33186 -0.450662,0.35114 0.327422,0.0153 0.595312,0.11704 0.595312,0.22618 0,0.10914 -0.803672,0.19843 -1.785937,0.19843 -1.388933,0 -1.997473,0.13156 -2.737535,0.59181 -0.523378,0.32549 -1.024259,0.51914 -1.113068,0.43033 -0.08881,-0.0888 -0.371629,-0.0808 -0.628488,0.0177 -0.398428,0.1529 -0.409819,0.21534 -0.07756,0.42519 0.420632,0.26567 2.058127,0.0658 2.533536,-0.30919 z m 22.510623,-0.0149 c -0.08446,-0.21107 -0.147157,-0.14837 -0.159853,0.15985 -0.01149,0.27892 0.05105,0.43519 0.138965,0.34727 0.08792,-0.0879 0.09732,-0.31612 0.02089,-0.50712 z m 121.792173,0.19752 c 0,-0.0642 -0.11906,-0.19027 -0.26458,-0.2802 -0.14552,-0.0899 -0.26459,-0.0374 -0.26459,0.11667 0,0.15411 0.11907,0.2802 0.26459,0.2802 0.14552,0 0.26458,-0.0525 0.26458,-0.11667 z m -12.7,-0.54479 c -0.18116,-0.21828 -0.43386,-0.39687 -0.56156,-0.39687 -0.12771,0 -0.23219,0.17859 -0.23219,0.39687 0,0.22812 0.23878,0.39688 0.56156,0.39688 0.46917,0 0.50737,-0.0653 0.23219,-0.39688 z m 25.4,0.15394 c 0,-0.54279 -0.34309,-1.07998 -0.68977,-1.07998 -0.4406,0 -0.45639,0.13527 -0.0947,0.81115 0.2822,0.5273 0.78444,0.69941 0.78444,0.26883 z M 46.714781,169.74799 c 0.291042,-0.041 0.822571,-0.0897 1.181176,-0.10825 0.618155,-0.032 0.628236,-0.0575 0.19416,-0.49162 -0.378966,-0.37896 -0.547662,-0.40176 -0.979148,-0.13229 -0.676832,0.42269 -1.01027,0.41073 -1.473859,-0.0529 -0.328165,-0.32816 -0.316872,-0.39379 0.08505,-0.4942 0.254903,-0.0637 0.106272,-0.0684 -0.33029,-0.0105 -0.436563,0.0579 -1.002529,0.10906 -1.257702,0.1137 -0.353586,0.006 -0.426857,0.15623 -0.308014,0.62974 0.115509,0.46022 0.03,0.65551 -0.329798,0.75323 -0.447993,0.12167 2.003942,-0.036 3.21843,-0.20694 z m 139.567709,-1.05244 c 0,-0.0642 -0.11907,-0.19027 -0.26459,-0.2802 -0.14552,-0.0899 -0.26458,-0.0374 -0.26458,0.11667 0,0.15411 0.11906,0.2802 0.26458,0.2802 0.14552,0 0.26459,-0.0525 0.26459,-0.11667 z m -137.847917,-0.41249 0.661458,-0.21184 h -0.661458 c -0.363802,0 -0.959115,0.0953 -1.322917,0.21184 l -0.661458,0.21183 h 0.661458 c 0.363802,0 0.959115,-0.0953 1.322917,-0.21183 z m 1.719792,-0.26459 c 0.08994,-0.14552 -0.08866,-0.26458 -0.396875,-0.26458 -0.308218,0 -0.486812,0.11906 -0.396875,0.26458 0.08994,0.14552 0.26853,0.26459 0.396875,0.26459 0.128344,0 0.306938,-0.11907 0.396875,-0.26459 z m -29.236458,-0.92604 c -0.181157,-0.21828 -0.430124,-0.39687 -0.553259,-0.39687 -0.123136,0 -0.15535,0.17859 -0.07159,0.39687 0.08376,0.21828 0.332729,0.39688 0.55326,0.39688 0.326413,0 0.339724,-0.0738 0.07159,-0.39688 z m 56.193561,-1.35532 c 0.817082,-0.67267 1.485604,-1.38285 1.485604,-1.57819 0,-0.47973 0.867324,-0.91283 1.691444,-0.84462 0.456016,0.0377 0.770001,0.29027 0.974368,0.78366 0.399086,0.96347 1.078163,1.54443 1.24067,1.0614 0.06394,-0.19007 0.372004,-0.59458 0.684577,-0.89892 0.454004,-0.44205 0.475183,-0.52056 0.105295,-0.39034 -0.659738,0.23227 -0.572379,-0.15457 0.198438,-0.87871 0.799777,-0.75135 0.829208,-1.09087 0.132291,-1.5261 -0.291041,-0.18176 -0.529166,-0.54109 -0.529166,-0.79852 0,-0.68206 -0.752246,-1.64635 -1.271774,-1.63025 -0.362919,0.0112 -0.334942,0.0927 0.147295,0.42914 1.06118,0.74025 0.685038,2.73198 -0.515938,2.73198 -0.582592,0 -0.589842,-0.10984 -0.06057,-0.91761 0.474745,-0.72455 0.140128,-1.72822 -0.576179,-1.72822 -0.615696,0 -1.151976,-0.64713 -0.888958,-1.0727 0.131923,-0.21346 0.108524,-0.50564 -0.05641,-0.70437 -0.214347,-0.25827 -0.147359,-0.3396 0.279718,-0.3396 0.316784,0 0.561564,-0.16894 0.561564,-0.38757 0,-0.58785 1.065101,-1.0855 1.352513,-0.63194 0.124786,0.19693 0.228707,0.50688 0.230935,0.68878 0.007,0.56985 0.630397,0.36118 1.580278,-0.52894 0.733294,-0.68716 0.82515,-0.87448 0.463021,-0.94422 -0.248461,-0.0479 -0.451747,-0.23238 -0.451747,-0.41008 0,-0.21079 0.501816,-0.33483 1.443759,-0.35689 1.128962,-0.0264 1.691438,-0.20346 2.579688,-0.8119 1.310095,-0.89741 5.284899,-2.81346 6.372778,-3.07199 0.406413,-0.0966 0.811806,-0.38041 0.900872,-0.63074 0.330928,-0.93009 1.479222,-1.63569 2.39799,-1.4735 0.504045,0.089 1.021792,0.0204 1.245181,-0.16505 0.210311,-0.17454 0.507576,-0.23998 0.660587,-0.14541 0.386937,0.23914 1.067898,-0.50426 1.067898,-1.16582 0,-0.30144 -0.0893,-0.55718 -0.19844,-0.56832 -3.258262,-0.33265 -5.157807,-0.0541 -5.628482,0.82538 -0.20079,0.37517 -0.451215,0.4795 -0.887898,0.3699 -0.361473,-0.0907 -1.08173,0.0769 -1.775353,0.41325 -3.029307,1.4688 -4.45306,2.27667 -5.766636,3.27211 -1.30906,0.99201 -2.851796,1.75633 -3.668715,1.81759 -0.181901,0.0136 -0.332552,0.21332 -0.334781,0.44373 -0.0066,0.68744 -0.405395,1.10971 -0.876997,0.92874 -0.328445,-0.12603 -0.441868,-0.49786 -0.441868,-1.44855 0,-0.70345 -0.103015,-1.34266 -0.228922,-1.42048 -0.125907,-0.0778 -0.29766,-0.56506 -0.381672,-1.08277 -0.228755,-1.40965 -3.162923,-4.14947 -3.933671,-3.67312 -0.165285,0.10215 -0.227788,0.0686 -0.139192,-0.0748 0.197736,-0.31995 -1.320551,-2.21087 -1.751951,-2.18194 -0.218532,0.0147 -0.212785,0.0607 0.01926,0.15434 0.181902,0.0734 0.33073,0.41735 0.33073,0.76434 0,0.53616 -0.08617,0.599 -0.573993,0.41855 -0.315696,-0.11679 -1.02164,-0.13048 -1.568766,-0.0304 -0.995613,0.18206 -2.055165,-0.16297 -1.36297,-0.44384 0.454584,-0.18445 0.415796,-1.01304 -0.06615,-1.41301 -0.218282,-0.18116 -0.396875,-0.41367 -0.396875,-0.51669 0,-0.10302 0.59458,-0.83259 1.32129,-1.62125 0.726709,-0.78867 1.322022,-1.53022 1.322916,-1.64789 8.95e-4,-0.11768 0.346745,-0.65346 0.768556,-1.19063 0.421811,-0.53717 0.846553,-1.24456 0.943871,-1.57198 0.09732,-0.32742 0.287982,-0.59532 0.423696,-0.59532 0.135715,0 0.243843,-0.74414 0.240286,-1.65364 -0.01015,-2.59427 -0.730838,-5.3103 -1.485965,-5.60007 -0.306963,-0.11779 -0.291362,0.0116 0.07646,0.63431 0.589232,0.99749 0.279034,1.33011 -0.530869,0.56925 -0.422309,-0.39674 -0.583139,-0.78661 -0.501236,-1.21507 0.09515,-0.49776 -0.05244,-0.72036 -0.699443,-1.05494 -0.75275,-0.38926 -0.87342,-0.38909 -1.470461,0.002 -0.357729,0.23439 -0.774937,0.34921 -0.92713,0.25515 -0.152193,-0.0941 -0.38821,0.12223 -0.524482,0.48066 -0.136272,0.35842 -0.374496,0.73 -0.529386,0.82573 -0.527221,0.32584 0.19152,1.09929 1.341778,1.44392 0.618208,0.18521 1.447726,0.68329 1.843372,1.10683 0.707624,0.75752 0.713784,0.79406 0.377651,2.24005 -0.1919,0.82553 -0.68439,1.89763 -1.123361,2.44545 -0.42991,0.53651 -0.924232,1.24336 -1.098492,1.57079 -0.174261,0.32742 -0.477356,0.59531 -0.673545,0.59531 -0.196189,0 -0.425745,0.20836 -0.510125,0.46302 -0.08438,0.25466 -0.344135,0.7207 -0.577234,1.03565 -0.402484,0.5438 -0.38765,0.59041 0.294693,0.92604 1.019206,0.50132 1.262975,1.3423 0.596455,2.05773 -0.2931,0.31461 -0.474883,0.72323 -0.403962,0.90804 0.07092,0.18482 -0.0973,0.47733 -0.373819,0.65002 -0.855958,0.53455 -0.598064,1.04251 0.621713,1.22455 3.058847,0.4565 3.587501,0.68549 5.272463,2.28386 0.905298,0.85876 1.862394,1.63008 2.126881,1.71402 1.000621,0.31759 2.324093,4.006 2.324093,6.47706 0,0.94149 -0.103376,1.31001 -0.367477,1.31001 -0.202112,0 -0.35094,-0.19555 -0.330729,-0.43455 0.02021,-0.23899 -0.128931,-0.49266 -0.331427,-0.56369 -0.273627,-0.096 -0.333698,0.0512 -0.23392,0.57315 0.07384,0.38627 0.03226,0.76533 -0.09239,0.84238 -0.124654,0.077 -0.208792,0.59564 -0.186974,1.15244 0.03309,0.84454 -0.153733,1.23695 -1.126936,2.36703 -1.172986,1.36206 -1.682477,1.63622 -1.903283,1.02418 -0.06562,-0.1819 -0.164844,0.41362 -0.220487,1.3234 -0.09445,1.54433 -0.06367,1.65409 0.463749,1.65364 0.310704,-2.6e-4 1.233438,-0.55084 2.05052,-1.22351 z m 1.483186,-15.31634 c -0.357023,-0.43019 -0.07703,-0.52003 0.493687,-0.1584 0.218056,0.13816 0.255791,0.29123 0.09613,0.38991 -0.144569,0.0893 -0.409984,-0.0148 -0.589812,-0.23151 z m -8.199665,-5.15646 c 0,-0.14553 0.126089,-0.26459 0.280198,-0.26459 0.154109,0 0.206614,0.11906 0.116677,0.26459 -0.08994,0.14552 -0.216026,0.26458 -0.280198,0.26458 -0.06417,0 -0.116677,-0.11906 -0.116677,-0.26458 z m 1.769401,-14.72297 c -0.363496,-0.36349 -0.174952,-0.92491 0.28112,-0.83708 0.254661,0.049 0.463021,0.25621 0.463021,0.46037 0,0.41774 -0.466803,0.65405 -0.744141,0.37671 z m -0.446484,-1.43223 c 0,-0.15411 0.119062,-0.20662 0.264583,-0.11668 0.145521,0.0899 0.264583,0.21603 0.264583,0.2802 0,0.0642 -0.119062,0.11667 -0.264583,0.11667 -0.145521,0 -0.264583,-0.12608 -0.264583,-0.28019 z m -9.186025,36.7108 c -0.06425,-0.33608 -0.348094,-0.7555 -0.630773,-0.93203 -0.809393,-0.50548 -1.031549,0.42404 -0.252179,1.05514 0.798711,0.64675 1.024112,0.61533 0.882952,-0.12311 z m 0.562638,-1.40506 c 0.157928,-0.41155 -0.699874,-1.42346 -1.20668,-1.42346 -0.414678,0 -0.228672,0.49596 0.33375,0.88989 0.306817,0.21491 0.478384,0.51931 0.38126,0.67646 -0.09712,0.15715 -0.06324,0.28573 0.0753,0.28573 0.13854,0 0.325906,-0.19288 0.41637,-0.42862 z m 24.974913,-0.50465 c -0.166642,-0.16389 -1.53486,0.21157 -1.53486,0.42119 0,0.12098 0.363265,0.0933 0.807256,-0.0614 0.443991,-0.15478 0.771413,-0.31666 0.727604,-0.35975 z m -0.135552,-1.55859 c -0.05897,-0.81446 0.589531,-1.55365 1.180379,-1.34545 0.208141,0.0733 0.33073,-0.13157 0.33073,-0.55283 0,-0.64554 -0.04473,-0.66343 -1.256771,-0.50272 -1.717326,0.22772 -2.314528,0.56624 -2.885709,1.63576 -0.478534,0.89605 -0.477753,0.92061 0.04144,1.30318 0.314925,0.23205 0.957651,0.35838 1.5875,0.31202 0.990153,-0.0729 1.054732,-0.12763 1.002433,-0.84996 z m 36.43611,0.3752 c 0.29104,-0.29105 0.52916,-0.58971 0.52916,-0.6637 0,-0.18699 -1.14723,0.47235 -1.38501,0.79599 -0.12959,0.17639 -0.19438,0.17639 -0.19438,0 0,-0.39668 0.3396,-0.82798 0.78564,-0.99778 0.21829,-0.0831 -0.0434,-0.16047 -0.58154,-0.17196 -0.97443,-0.0208 -0.9773,-0.0176 -0.70173,0.77286 0.32213,0.92405 0.80573,1.00671 1.54786,0.26459 z M 92.919264,161.3134 c -0.162076,-0.19529 -0.216343,-0.43342 -0.120591,-0.52917 0.09575,-0.0957 -0.08388,-0.17409 -0.399171,-0.17409 -0.657786,0 -0.707149,0.13485 -0.242534,0.66256 0.44224,0.5023 1.177991,0.54158 0.762296,0.0407 z m 33.757416,-0.17258 c 0.17727,-0.21912 0.3261,-0.5883 0.33073,-0.8204 0.005,-0.23211 0.25209,-0.64255 0.54993,-0.91208 0.29783,-0.26954 0.73013,-0.88756 0.96067,-1.37339 0.23054,-0.48582 0.48322,-0.81927 0.5615,-0.74099 0.21454,0.21455 1.11131,-0.68029 1.11131,-1.10893 0,-0.40114 1.29125,-2.38459 2.03953,-3.13287 0.24965,-0.24965 0.47926,-0.62667 0.51025,-0.83783 0.0853,-0.58141 0.31049,-0.70644 0.696,-0.38649 0.19149,0.15892 1.17244,0.32471 2.1799,0.36843 l 1.83175,0.0795 1.06764,2.0466 c 0.5872,1.12563 1.14205,2.04836 1.233,2.05052 0.23989,0.006 0.4961,-1.46223 0.4961,-2.84238 0,-0.8574 -0.14658,-1.31979 -0.52143,-1.6449 -0.31388,-0.27223 -0.55298,-0.86381 -0.6007,-1.48624 -0.0847,-1.10492 -0.11605,-1.1221 -2.24249,-1.22925 -0.96178,-0.0485 -1.42603,0.24767 -0.89895,0.57343 0.51756,0.31987 -0.0442,0.57723 -1.10406,0.50585 -1.05823,-0.0713 -2.56987,0.49815 -2.56987,0.96804 0,0.18297 -0.35343,0.47907 -0.78539,0.658 -0.46015,0.19059 -1.07394,0.81768 -1.48215,1.51425 -0.7642,1.304 -1.19977,1.85898 -2.29653,2.92615 -0.40018,0.38939 -0.7276,0.97685 -0.7276,1.30548 0,0.41667 -0.20018,0.64774 -0.66146,0.76351 -0.44209,0.11096 -0.66531,0.35394 -0.67307,0.73265 -0.006,0.31164 -0.16622,0.99935 -0.35518,1.52823 -0.33931,0.94967 -0.33506,0.96118 0.34234,0.92755 0.37725,-0.0187 0.83095,-0.21332 1.00823,-0.43243 z m 11.08165,-9.12978 c -0.41531,-0.31437 -0.44406,-0.45034 -0.16604,-0.78534 0.49376,-0.59495 0.66494,-0.4993 0.6965,0.38921 0.0155,0.43623 0.0155,0.78936 0,0.78473 -0.0155,-0.005 -0.2542,-0.1795 -0.53046,-0.3886 z m -30.71855,8.2976 c 0.58208,-0.13217 1.35599,-0.34536 1.71979,-0.47377 0.3638,-0.1284 0.89958,-0.31276 1.19063,-0.40969 0.50272,-0.16742 0.49611,-0.19463 -0.1323,-0.54459 -0.88671,-0.49381 -1.99418,-0.47957 -2.78066,0.0358 -0.35496,0.23258 -1.06515,0.43477 -1.57819,0.44932 -0.51305,0.0145 -0.93281,0.0568 -0.93281,0.0938 0,0.0371 0.14027,0.37527 0.31171,0.75154 0.21442,0.4706 0.44152,0.63009 0.7276,0.51101 0.22874,-0.0952 0.89215,-0.28125 1.47423,-0.41341 z m -29.609944,-1.74768 c -0.284557,-0.28456 -0.435624,0.11397 -0.235871,0.62225 0.18738,0.47679 0.201531,0.47762 0.2942,0.0172 0.05354,-0.26605 0.0273,-0.55379 -0.05833,-0.63941 z m 69.165154,0.32778 c 0,0.10751 0.45132,-0.20533 1.00294,-0.69521 0.55161,-0.48988 1.3746,-1.16837 1.82886,-1.50778 0.45426,-0.3394 0.90519,-0.93471 1.00205,-1.32291 0.0969,-0.38821 0.32865,-0.88442 0.51507,-1.1027 0.18642,-0.21828 0.4027,-0.65931 0.48061,-0.98007 0.17776,-0.73178 -0.89287,-1.5169 -1.76876,-1.29707 -0.8533,0.21417 -2.03815,1.21155 -1.83321,1.54316 0.1159,0.18753 -0.0605,0.22306 -0.52664,0.10607 -0.41472,-0.10409 -0.70092,-0.0658 -0.70092,0.0937 0,0.14829 0.20836,0.28344 0.46302,0.30032 0.42096,0.0279 0.41923,0.042 -0.019,0.15535 -0.46634,0.12061 -0.46634,0.13729 0,0.51218 0.44789,0.36005 0.43517,0.37366 -0.17941,0.19204 -0.85417,-0.25242 -2.10678,-0.24643 -2.77812,0.0133 -0.43755,0.16926 -0.46045,0.15108 -0.1323,-0.10498 0.35278,-0.27527 0.35278,-0.29756 0,-0.20053 -0.28249,0.0777 -0.39404,0.4653 -0.38704,1.34485 0.008,0.99154 0.133,1.32197 0.63316,1.67229 0.34282,0.24012 0.86424,0.71368 1.15872,1.05236 0.40804,0.46929 0.61932,0.54612 0.8882,0.32297 0.19404,-0.16104 0.3528,-0.20483 0.3528,-0.0973 z m -1.4359,-0.79782 c -0.28042,-0.21215 -0.45901,-0.43261 -0.39687,-0.48992 0.20141,-0.18574 1.3036,0.33793 1.3036,0.61936 0,0.37276 -0.29942,0.33001 -0.90673,-0.12944 z m -0.0302,-1.9963 c -0.22283,-0.36055 -0.14494,-0.42917 0.73903,-0.65103 0.8501,-0.21337 0.99824,0.2403 0.21528,0.65932 -0.63994,0.34249 -0.73804,0.34164 -0.95431,-0.008 z m 10.22763,2.38779 c 0.49266,-0.44264 1.22317,-0.98148 1.62335,-1.19742 0.77583,-0.41863 0.77994,-0.42543 0.86799,-1.43735 0.0317,-0.3638 0.1456,-1.22701 0.25321,-1.91823 0.1555,-0.99885 0.1189,-1.25677 -0.17834,-1.25677 -0.2057,0 -0.50107,0.12706 -0.65637,0.28237 -0.2001,0.2001 -0.32602,0.16862 -0.43218,-0.10803 -0.1005,-0.26192 0.0724,-0.44616 0.52526,-0.55983 0.37128,-0.0932 0.73854,-0.10596 0.81612,-0.0284 0.23623,0.23624 0.83746,-0.73837 0.84642,-1.37207 0.005,-0.32742 0.11611,-0.59531 0.24774,-0.59531 0.13163,0 0.59432,-0.62901 1.0282,-1.3978 0.43387,-0.76879 0.98402,-1.55977 1.22255,-1.75773 0.39831,-0.33056 0.39905,-0.39821 0.009,-0.82915 -0.33491,-0.37007 -0.36231,-0.58568 -0.12966,-1.02039 0.16224,-0.30315 0.34727,-0.55118 0.41117,-0.55118 0.2513,0 0.93565,1.61842 0.78644,1.85985 -0.0873,0.14125 -0.0423,0.25682 0.0999,0.25682 0.14224,0 0.50886,0.4049 0.81471,0.89978 1.25121,2.02449 2.05063,1.16047 0.96939,-1.04771 -0.76128,-1.55474 -1.42451,-2.12916 -2.76878,-2.39801 -0.69746,-0.13949 -0.93748,-0.0645 -1.25794,0.39303 -0.50928,0.7271 -0.98455,0.7346 -0.75518,0.0119 0.1373,-0.43258 -0.003,-0.36621 -0.64363,0.30382 -0.83992,0.8789 -1.0219,1.30801 -0.55471,1.30801 0.14552,0 0.26458,0.12609 0.26458,0.2802 0,0.15411 -0.10553,0.21498 -0.2345,0.13526 -0.50945,-0.31485 -0.49386,1.01661 0.0235,2.00923 0.40797,0.78271 0.47065,1.12564 0.24667,1.34962 -0.16515,0.16515 -0.30027,0.20842 -0.30027,0.0962 0,-0.11225 -0.182,-0.0221 -0.40445,0.20034 -0.28102,0.28102 -0.58381,0.33805 -0.99219,0.18686 -0.52846,-0.19564 -0.58535,-0.39118 -0.56404,-1.93873 0.0181,-1.31336 0.15912,-1.91134 0.59531,-2.52391 0.63225,-0.88791 0.78842,-2.91198 0.26506,-3.43533 -0.1686,-0.16861 -0.3488,-0.69247 -0.40043,-1.16414 -0.0951,-0.86898 -1.11747,-2.24876 -1.39231,-1.87912 -0.0823,0.1107 -0.41296,0.22882 -0.73478,0.26249 -0.42032,0.044 -0.54292,-0.0488 -0.4353,-0.32921 0.0824,-0.21474 0.24818,-0.32964 0.3684,-0.25534 0.12022,0.0743 0.29336,0.0141 0.38477,-0.13382 0.18224,-0.29487 -0.71146,-0.354 -1.62932,-0.1078 -0.85576,0.22955 -1.24224,1.434 -1.03118,3.21368 0.45138,3.80617 0.47584,3.92473 0.69568,3.3721 0.16415,-0.41266 0.2146,-0.31451 0.2291,0.4458 0.0102,0.53623 0.1373,1.28717 0.28238,1.66876 0.17532,0.46114 0.17532,0.63913 0,0.53078 -0.15613,-0.0965 -0.26379,0.2149 -0.26379,0.76301 0,0.50933 0.0992,0.98736 0.22047,1.0623 0.12126,0.0749 0.16728,0.49869 0.10226,0.94166 -0.0999,0.68071 -0.0316,0.8054 0.44099,0.8054 0.42009,0 0.5592,-0.16455 0.5592,-0.66146 0,-0.3638 0.10773,-0.66146 0.23941,-0.66146 0.4049,0 -0.019,2.22126 -0.51491,2.6985 -0.62794,0.60423 -1.19707,3.95532 -0.90082,5.30413 0.20608,0.93828 0.62726,0.91979 1.73578,-0.0762 z m 4.8645,-12.95352 c 0.0899,-0.14552 0.21602,-0.26458 0.2802,-0.26458 0.0642,0 0.11667,0.11906 0.11667,0.26458 0,0.14552 -0.12609,0.26458 -0.2802,0.26458 -0.1541,0 -0.20661,-0.11906 -0.11667,-0.26458 z m -7.1015,-1.49225 c -0.25571,-1.54786 -0.20727,-3.79942 0.0817,-3.79942 0.14095,0 0.18774,-0.17859 0.10398,-0.39687 -0.0938,-0.24444 6.5e-4,-0.39688 0.24589,-0.39688 0.4297,0 0.44588,1.0292 0.0475,3.0177 -0.16092,0.80316 -0.13259,0.98731 0.12719,0.82676 0.25051,-0.15482 0.28597,-0.0492 0.14158,0.42189 -0.39255,1.2806 -0.57696,1.36119 -0.74784,0.32682 z m -37.6398,14.78351 c -0.16021,-0.10691 -0.35016,-0.51186 -0.4221,-0.89989 -0.12002,-0.6473 -0.0796,-0.68603 0.48973,-0.46956 0.3413,0.12976 0.62054,0.17628 0.62054,0.10339 0,-0.0729 0.35719,0.0522 0.79375,0.27792 0.79504,0.41113 1.06476,0.92605 0.48507,0.92605 -0.16977,0 -0.22989,0.0788 -0.1336,0.17507 0.0963,0.0963 0.64959,0.0185 1.22956,-0.17294 0.89341,-0.29485 1.03206,-0.43737 0.90767,-0.93296 -0.0987,-0.39348 -0.006,-0.639 0.28349,-0.75008 0.23666,-0.0908 0.36589,-0.0609 0.28718,0.0665 -0.0787,0.12736 0.0116,0.35996 0.20066,0.51688 0.26497,0.21991 0.52207,-0.0201 1.12156,-1.04712 0.42779,-0.73285 1.16474,-1.62771 1.63769,-1.98859 0.47294,-0.36089 0.85989,-0.87497 0.85989,-1.14241 0,-0.69349 -1.59065,-0.95851 -2.60492,-0.43401 -0.42216,0.21831 -0.84346,0.32104 -0.9362,0.22829 -0.17629,-0.17628 -1.38992,0.99301 -1.30484,1.25716 0.0269,0.0834 -0.35984,0.16319 -0.85932,0.17734 -0.49948,0.0142 -0.84185,-0.0815 -0.76082,-0.21263 0.081,-0.13111 0.0212,-0.23838 -0.13287,-0.23838 -0.15411,0 -0.2802,0.11906 -0.2802,0.26458 0,0.14552 -0.27384,0.26459 -0.60854,0.26459 -0.3347,0 -0.7663,0.14882 -0.95911,0.33072 -0.28071,0.26483 -0.37547,0.26263 -0.47552,-0.011 -0.0992,-0.27127 -0.20567,-0.27478 -0.51626,-0.017 -0.31101,0.25811 -0.43585,0.2527 -0.60834,-0.0264 -0.14288,-0.2312 0.21516,-0.95684 1.04812,-2.12418 0.69582,-0.97516 1.75843,-2.5541 2.36135,-3.50875 0.60292,-0.95465 1.50956,-2.05101 2.01476,-2.43634 0.74064,-0.56492 0.91854,-0.88038 0.91854,-1.6288 0,-0.55142 -0.1074,-0.86182 -0.26458,-0.76467 -0.14552,0.0899 -0.26458,0.0374 -0.26458,-0.11668 0,-0.15411 0.1389,-0.2802 0.30868,-0.2802 0.16977,0 0.21957,-0.0891 0.11066,-0.19802 -0.10891,-0.10891 -0.35176,0.0122 -0.53965,0.26918 -0.33892,0.4635 -1.20261,0.38719 -1.20261,-0.10626 0,-0.48136 -1.57602,0.585 -2.29992,1.55618 -0.40688,0.54585 -0.8452,1.06857 -0.97405,1.16159 -0.12885,0.093 -0.18084,0.53321 -0.11553,0.97821 0.0653,0.445 0.0332,0.75624 -0.0713,0.69163 -0.2414,-0.14919 -1.69454,1.49556 -2.22128,2.51417 -0.22017,0.42576 -0.60935,0.93069 -0.86485,1.12205 -0.56638,0.42422 -1.65515,1.94376 -1.65515,2.31 0,0.14629 -0.23813,0.39343 -0.52917,0.54919 -0.65199,0.34893 -0.74155,2.14019 -0.13229,2.64583 0.22876,0.18985 0.39687,0.21557 0.39687,0.0607 0,-0.14777 0.17717,-0.33666 0.39371,-0.41975 0.21653,-0.0831 0.36536,-0.0564 0.33072,0.0593 -0.0346,0.11571 0.17365,0.52814 0.46285,0.91652 0.49397,0.66336 0.65425,0.70589 2.64584,0.70209 1.166,-0.002 1.98893,-0.0915 1.82871,-0.19844 z m 2.01109,-1.38501 c 0,-0.14552 0.18243,-0.26458 0.4054,-0.26458 0.22297,0 0.51308,-0.2679 0.64469,-0.59532 0.17337,-0.43132 0.24391,-0.47207 0.25606,-0.1479 0.009,0.24607 -0.10424,0.52219 -0.25213,0.61359 -0.1479,0.0914 -0.2004,0.27703 -0.11668,0.41249 0.0837,0.13547 -0.0929,0.2463 -0.39256,0.2463 -0.29963,0 -0.54478,-0.11906 -0.54478,-0.26458 z m -5.67724,-1.8338 c -0.18073,-0.29243 0.23664,-0.60819 0.48096,-0.36387 0.25156,0.25156 0.20468,0.61017 -0.0798,0.61017 -0.13693,0 -0.31747,-0.11084 -0.40119,-0.2463 z m -1.36252,-0.70138 c 0.0883,-0.23019 0.16059,-0.47534 0.16059,-0.54478 0,-0.0694 0.11907,-0.0527 0.26459,0.0373 0.42158,0.26055 0.30616,0.92604 -0.1606,0.92604 -0.27901,0 -0.36997,-0.14388 -0.26458,-0.41851 z m -32.546784,2.38915 c 0.09035,-0.23546 0.046,-0.34167 -0.103984,-0.24897 -0.143854,0.0889 -0.261553,0.27368 -0.261553,0.41061 0,0.38059 0.189644,0.29672 0.365537,-0.16164 z m 23.427754,-0.28653 c 0.30161,-0.38342 0.54837,-0.86129 0.54837,-1.06192 0,-0.20063 0.1146,-0.57153 0.25465,-0.82422 0.41644,-0.75132 1.59777,-4.29124 1.59339,-4.77467 -0.006,-0.69878 -0.39499,-1.14204 -0.8487,-0.96794 -0.22746,0.0873 -0.73155,0.86727 -1.1202,1.73331 -0.54361,1.2113 -0.67655,1.84825 -0.57622,2.76067 0.14784,1.34439 0.0149,1.51393 -0.37763,0.48154 -0.41228,-1.0844 -0.81689,-0.39871 -0.866601,1.46864 -0.03872,1.45448 0.08228,1.79289 0.665341,1.86084 0.0986,0.0115 0.426,-0.29282 0.7276,-0.67625 z m -2.158092,-0.84075 c 0.0576,-0.1728 -0.08379,-0.31419 -0.314193,-0.31419 -0.230408,0 -0.418923,0.18851 -0.418923,0.41892 0,0.46724 0.569584,0.38587 0.733116,-0.10473 z m 43.187712,-0.84336 c -0.15576,-0.29104 -0.34273,-0.52916 -0.41549,-0.52916 -0.0728,0 -0.005,0.23812 0.15091,0.52916 0.15576,0.29104 0.34273,0.52917 0.41549,0.52917 0.0728,0 0.005,-0.23813 -0.15091,-0.52917 z m 2.38125,-1.05833 c 0,-0.14552 0.23813,-0.26458 0.52917,-0.26458 0.55906,0 0.60721,-0.18109 0.53588,-2.01538 -0.0293,-0.75431 0.0799,-1.13625 0.35525,-1.24191 0.21868,-0.0839 0.45542,-0.0104 0.5261,0.16329 0.0707,0.17373 0.13607,0.0778 0.14533,-0.2133 0.0212,-0.6661 -0.23599,-1.04665 -0.86441,-1.27907 -0.37043,-0.13699 -0.45445,-0.083 -0.33904,0.21774 0.0844,0.21993 0.0381,0.39988 -0.10283,0.39988 -0.34226,0 -0.33052,-2.83331 0.0126,-3.04538 0.14789,-0.0914 0.19983,-0.27794 0.11542,-0.41452 -0.0844,-0.13658 0.0104,-0.41222 0.21072,-0.61252 0.39406,-0.39406 0.31564,-2.27758 -0.0948,-2.27758 -0.1296,0 -0.45144,0.2158 -0.71519,0.47955 -0.26376,0.26376 -0.62095,0.43243 -0.79375,0.37483 -0.17281,-0.0576 -0.3142,0.0143 -0.3142,0.15985 0,0.14552 0.12649,0.30675 0.28109,0.35828 0.41768,0.13923 -0.17674,1.5379 -0.65358,1.5379 -0.43011,0 -0.81102,0.90631 -0.55501,1.32055 0.0907,0.14682 0.0544,0.26695 -0.0808,0.26695 -0.1352,0 -0.3865,0.50602 -0.55845,1.12448 -0.4027,1.44837 0.17961,4.0833 0.87449,3.95707 0.24924,-0.0453 0.55668,0.2037 0.73511,0.59531 0.30533,0.67011 0.75093,0.91255 0.75093,0.40856 z m 0,-3.175 c 0,-0.29937 0.17639,-0.52917 0.40619,-0.52917 0.32419,0 0.34902,0.10681 0.12298,0.52917 -0.15576,0.29104 -0.33854,0.52917 -0.40618,0.52917 -0.0676,0 -0.12299,-0.23813 -0.12299,-0.52917 z m -0.78969,-1.24116 c 0.002,-0.11773 0.11946,-0.39264 0.26053,-0.61092 0.22103,-0.34203 0.25704,-0.33504 0.26053,0.0505 0.002,0.24607 -0.11501,0.52099 -0.26053,0.61092 -0.14552,0.0899 -0.26276,0.0672 -0.26053,-0.0505 z m -124.79095,3.0271 c -0.262437,-0.50562 -0.494439,-0.71733 -0.563113,-0.51386 -0.06424,0.19032 0.09247,0.57727 0.34824,0.8599 0.665104,0.73493 0.725476,0.6377 0.214873,-0.34604 z m 149.23694,-0.15975 c 0.0768,-0.12424 -0.15431,-0.35982 -0.51355,-0.5235 -0.70534,-0.32137 -0.73517,-0.30133 -0.49256,0.33088 0.1721,0.4485 0.77646,0.5642 1.00611,0.19262 z m -86.494836,-0.30327 c -0.08994,-0.14553 -0.282584,-0.26459 -0.428105,-0.26459 -0.145521,0 -0.190999,0.11906 -0.101062,0.26459 0.08994,0.14552 0.282584,0.26458 0.428105,0.26458 0.145521,0 0.190999,-0.11906 0.101062,-0.26458 z m 65.138556,-0.72257 c -0.0671,-0.25743 -0.12638,-0.11087 -0.13177,0.32569 -0.005,0.43656 0.0495,0.64719 0.12197,0.46806 0.0725,-0.17913 0.0769,-0.53632 0.01,-0.79375 z M 37.382564,150.67346 c -0.218653,-0.39071 -0.258928,-0.35044 -0.258928,0.25893 0,0.47056 0.09008,0.63152 0.258928,0.46268 0.168848,-0.16885 0.168848,-0.4199 0,-0.72161 z m 3.978915,-0.2603 c 0.371608,-0.37161 0.715228,-0.54224 0.768731,-0.38174 0.146753,0.44026 1.012697,0.003 1.012697,-0.51152 0,-0.98355 -0.633303,-1.41122 -1.936302,-1.30759 -0.680603,0.0541 -1.268435,0.005 -1.306292,-0.10808 -0.130388,-0.39116 -1.78449,0.12176 -1.78449,0.55336 0,0.32411 -0.07055,0.34616 -0.3175,0.0992 -0.424401,-0.42441 -0.800736,-0.40003 -1.417867,0.0918 -0.483142,0.38507 -0.45869,0.40025 0.412451,0.25595 0.926041,-0.15339 0.926041,-0.15339 0.198437,0.26056 -0.400182,0.22768 -0.727604,0.47196 -0.727604,0.54284 0,0.14707 1.32011,-0.13987 1.719792,-0.3738 0.520736,-0.3048 1.067756,-0.15921 1.653645,0.44009 0.327422,0.33492 0.595313,0.72187 0.595313,0.8599 0,0.43582 0.433973,0.27398 1.128989,-0.42103 z m 86.816001,-1.04877 c 0.37433,-1.49024 0.55065,-3.01941 1.11341,-9.65633 0.50688,-5.97804 0.68284,-10.84792 0.39196,-10.84792 -0.13756,0 -0.33176,-0.26789 -0.43154,-0.59531 -0.0998,-0.32743 -0.37569,-0.821 -0.61314,-1.09683 -0.41111,-0.47756 -0.39698,-0.4951 0.29588,-0.36742 0.40018,0.0737 0.7276,0.0451 0.7276,-0.0638 0,-0.10882 -0.3509,-0.24936 -0.77977,-0.31231 -0.42888,-0.0629 -0.71951,-0.0169 -0.64585,0.10226 0.0737,0.11919 8.2e-4,0.21671 -0.16188,0.21671 -0.16269,0 -0.23273,0.10207 -0.15563,0.22682 0.0771,0.12475 0.0189,0.92842 -0.12935,1.78594 -0.59835,3.46107 -0.21774,6.07955 0.98809,6.79778 0.40587,0.24176 0.47207,0.8756 0.11452,1.09658 -0.39052,0.24136 -1.08036,-0.13877 -1.10495,-0.60886 -0.0125,-0.2391 -0.12446,-0.0954 -0.24878,0.31935 -0.12432,0.41473 -0.26291,2.83707 -0.30799,5.38298 -0.0451,2.5459 -0.17114,4.68409 -0.28016,4.75152 -0.10902,0.0674 -0.14738,0.9193 -0.0853,1.89305 0.203,3.18165 0.6713,3.5297 1.31283,0.97576 z m 0.69042,-17.32925 c 0,-0.29104 0.11907,-0.52917 0.26459,-0.52917 0.14552,0 0.26458,0.23813 0.26458,0.52917 0,0.29104 -0.11906,0.52916 -0.26458,0.52916 -0.14552,0 -0.26459,-0.23812 -0.26459,-0.52916 z m -30.427078,17.72708 c 0,-0.14552 -0.178594,-0.26458 -0.396875,-0.26458 -0.218282,0 -0.396875,0.11906 -0.396875,0.26458 0,0.14552 0.178593,0.26459 0.396875,0.26459 0.218281,0 0.396875,-0.11907 0.396875,-0.26459 z m 70.550428,-0.71068 c -0.0816,-0.0816 -0.36194,-0.0614 -0.62287,0.0449 -0.44245,0.18034 -0.43876,0.2069 0.0547,0.39406 0.49827,0.18898 0.89193,-0.11521 0.56814,-0.439 z M 60.340823,146.74782 c 0,-1.54185 -0.378835,-1.97754 -1.198407,-1.37825 -0.374912,0.27414 -0.401379,0.43573 -0.1487,0.90787 0.169065,0.3159 0.422265,0.57437 0.562666,0.57437 0.140401,0 0.255274,0.29765 0.255274,0.66145 0,0.36381 0.119063,0.66146 0.264583,0.66146 0.145521,0 0.264584,-0.6421 0.264584,-1.4269 z m 64.998147,-0.75591 c -0.0734,-0.1819 -0.13346,-0.0331 -0.13346,0.33073 0,0.3638 0.0601,0.51263 0.13346,0.33073 0.0734,-0.1819 0.0734,-0.47956 0,-0.66146 z m 11.86331,0.33073 c -0.0899,-0.14552 -0.34212,-0.26458 -0.5604,-0.26458 -0.21828,0 -0.32329,0.11906 -0.23335,0.26458 0.0899,0.14552 0.34211,0.26458 0.5604,0.26458 0.21828,0 0.32329,-0.11906 0.23335,-0.26458 z m -193.18244,-0.39688 c -0.08376,-0.21828 -0.199089,-0.39687 -0.25628,-0.39687 -0.05719,0 -0.103984,0.17859 -0.103984,0.39687 0,0.21828 0.115326,0.39688 0.256279,0.39688 0.140954,0 0.187747,-0.1786 0.103985,-0.39688 z m 100.000327,-1.07357 c 0.08401,-0.5177 0.04761,-1.20231 -0.0809,-1.52135 -0.229724,-0.57033 -0.234565,-0.56896 -0.288099,0.0814 -0.02995,0.3638 -0.08667,1.04841 -0.126044,1.52136 -0.09682,1.1629 0.303813,1.09704 0.495045,-0.0814 z m 81.591503,-0.57504 c -0.0671,-0.25743 -0.12638,-0.11087 -0.13177,0.3257 -0.005,0.43656 0.0495,0.64718 0.12197,0.46805 0.0725,-0.17913 0.0769,-0.53632 0.01,-0.79375 z m -51.705916,0.54902 c -0.179132,-0.0725 -0.536319,-0.0769 -0.79375,-0.01 -0.257431,0.0671 -0.110869,0.12638 0.325693,0.13177 0.436563,0.005 0.647188,-0.0495 0.468057,-0.12197 z m 51.969536,-3.46447 c -0.0666,-0.25466 -0.121,-0.0463 -0.121,0.46302 0,0.50932 0.0545,0.71768 0.121,0.46302 0.0665,-0.25466 0.0665,-0.67138 0,-0.92604 z m -82.335508,-0.0661 c 0.08994,-0.14553 0.03743,-0.26459 -0.116677,-0.26459 -0.154109,0 -0.280198,0.11906 -0.280198,0.26459 0,0.14552 0.0525,0.26458 0.116676,0.26458 0.06417,0 0.190262,-0.11906 0.280199,-0.26458 z m 0.357452,-0.84275 c 0.05108,-0.134 0.243764,-0.0373 0.428192,0.21495 0.312983,0.42803 0.355451,0.42097 0.637434,-0.10592 0.309537,-0.57838 2.908788,-2.44129 3.406239,-2.44129 0.326686,0 1.418834,-1.99802 1.207607,-2.20925 -0.07974,-0.0797 -0.01835,-0.50825 0.136429,-0.95224 0.231896,-0.66522 0.211885,-0.80726 -0.113727,-0.80726 -0.217326,0 -0.688593,0.29346 -1.04726,0.65213 -0.358667,0.35866 -0.806706,0.5928 -0.995641,0.5203 -0.188936,-0.0725 -1.090031,0.43771 -2.002434,1.13381 -1.570492,1.19818 -2.235493,2.14817 -2.802635,4.00374 -0.170842,0.55896 -0.127462,0.60199 0.431495,0.42805 0.341787,-0.10637 0.663223,-0.30302 0.714301,-0.43702 z m 86.948076,-4.61401 c 0.0919,-1.87373 0.27719,-4.70923 0.41179,-6.30111 0.1346,-1.59188 0.18787,-2.95118 0.11839,-3.02066 -0.33536,-0.33536 -0.46626,0.51767 -0.67193,4.37865 -0.12252,2.30019 -0.28839,5.37279 -0.3686,6.828 -0.0951,1.72532 -0.0607,2.45032 0.0987,2.08387 0.13451,-0.30908 0.31973,-2.09501 0.41161,-3.96875 z m 19.67149,0.4191 c 0.27656,-0.29685 0.47499,-0.80287 0.44095,-1.12448 -0.034,-0.32161 -0.0771,-0.73357 -0.0957,-0.91547 -0.0186,-0.1819 -0.25732,-0.33073 -0.53054,-0.33073 -0.27322,0 -0.6515,-0.18644 -0.84063,-0.41432 -0.18912,-0.22788 -0.67994,-0.58812 -1.09073,-0.80054 -0.66436,-0.34356 -0.74687,-0.34091 -0.74687,0.024 0,0.22562 -0.28142,0.51721 -0.62538,0.64799 -0.51597,0.19617 -0.62538,0.42603 -0.62538,1.31391 0,1.23846 0.3493,1.62024 1.72765,1.88828 1.59356,0.3099 1.85887,0.27781 2.38659,-0.28863 z m -1.09701,-0.18787 c -0.15184,-0.25788 0.23986,-1.28963 0.56616,-1.4913 0.43107,-0.26642 0.55365,0.88233 0.13846,1.29752 -0.44613,0.44614 -0.54072,0.47215 -0.70462,0.19378 z m -2.63568,-0.59072 c -0.11669,-0.44621 -0.062,-0.48434 0.36601,-0.25527 0.58592,0.31357 0.66794,0.77985 0.13718,0.77985 -0.2013,0 -0.42774,-0.23606 -0.50319,-0.52458 z m -93.794446,-0.01 c 0.161194,-1.09828 -0.403861,-1.53558 -0.959378,-0.74247 -0.628821,0.89777 -0.540846,1.54124 0.210715,1.54124 0.500192,0 0.655795,-0.16602 0.748663,-0.79877 z m 5.049656,-2.24394 c 0.361827,-1.12236 0.68574,-1.45521 1.416162,-1.45521 0.772073,0 1.100774,-0.69171 0.577405,-1.21507 -0.518624,-0.51863 -2.09894,-0.19929 -2.271064,0.45891 -0.099,0.37857 -0.281958,0.44798 -0.824633,0.31286 -0.604211,-0.15043 -0.652776,-0.11943 -0.363417,0.23202 0.431774,0.52442 -0.201029,1.10807 -1.220183,1.1254 -0.532777,0.009 -0.722689,0.16309 -0.790276,0.64097 -0.08203,0.58001 -0.02017,0.61644 0.79375,0.46739 0.485494,-0.0889 1.061311,-0.0447 1.279592,0.0982 0.638386,0.41803 1.128291,0.18559 1.402664,-0.6655 z m -95.948266,-1.52135 c -0.0734,-0.1819 -0.133452,-0.0331 -0.133452,0.33073 0,0.3638 0.06005,0.51263 0.133452,0.33073 0.0734,-0.1819 0.0734,-0.47956 0,-0.66146 z m -2.027312,0.0377 c 0,-0.38465 -0.473376,-0.49853 -0.608508,-0.14638 -0.07413,0.19319 0.03245,0.35125 0.236859,0.35125 0.204407,0 0.371649,-0.0922 0.371649,-0.20487 z m 165.809898,-2.13779 c -0.0845,-0.21107 -0.14715,-0.14837 -0.15985,0.15985 -0.0115,0.27892 0.0511,0.43519 0.13897,0.34727 0.0879,-0.0879 0.0973,-0.31613 0.0209,-0.50712 z m -163.131766,-0.92273 c -0.230598,-0.39656 -0.282229,-0.40799 -0.288836,-0.064 -0.0086,0.44558 0.269661,0.84678 0.457179,0.65926 0.06185,-0.0619 -0.01391,-0.32974 -0.168343,-0.59531 z m 163.215616,-0.74745 c 0,-0.65485 -0.11906,-1.19063 -0.26459,-1.19063 -0.29032,0 -0.35909,1.29794 -0.10398,1.96274 0.2664,0.69423 0.36857,0.4802 0.36857,-0.77211 z m 3.96875,0.0309 c 0,-0.43313 -0.18643,-0.67757 -0.59532,-0.7806 -0.54149,-0.13643 -0.55345,-0.11864 -0.13229,0.19675 0.25466,0.19071 0.46302,0.54197 0.46302,0.78059 0,0.23862 0.0595,0.43385 0.1323,0.43385 0.0728,0 0.13229,-0.28377 0.13229,-0.63059 z m -24.6103,-0.75847 c -0.006,-0.50126 -0.47173,-1.13377 -0.68073,-0.92477 -0.10141,0.10141 -0.0494,0.34704 0.11561,0.54585 0.165,0.1988 0.22165,0.43981 0.1259,0.53556 -0.0958,0.0957 -0.0352,0.17409 0.13459,0.17409 0.16977,0 0.30685,-0.14883 0.30463,-0.33073 z M -36.666,126.21956 c -0.402795,-0.80742 -0.828828,-1.21196 -1.046797,-0.99399 -0.100106,0.1001 1.209049,1.78248 1.387054,1.78248 0.0292,0 -0.123914,-0.35482 -0.340257,-0.78849 z m 164.13919,-0.3423 c 0.28112,0.10787 0.35896,0.0585 0.23188,-0.14716 -0.2941,-0.47585 -0.95642,-0.3669 -0.93294,0.15348 0.0115,0.25466 0.0787,0.32088 0.14938,0.14715 0.0707,-0.17373 0.31893,-0.24279 0.55168,-0.15347 z m -24.00529,-0.0296 c 0,-0.0561 -0.1697,-0.42916 -0.37712,-0.82896 -0.25714,-0.49564 -0.3455,-1.32423 -0.27771,-2.60432 0.0652,-1.23168 0.0143,-1.74283 -0.14798,-1.48614 -0.33563,0.53077 -0.32201,3.87368 0.0184,4.5097 0.23347,0.43623 0.78444,0.72402 0.78444,0.40972 z m 5.55625,-4.66045 c 0.48365,-0.31256 0.0659,-0.31256 -0.66145,0 -0.34892,0.14994 -0.39398,0.23235 -0.1323,0.24194 0.21829,0.008 0.57547,-0.10087 0.79375,-0.24194 z m -42.597911,-0.79375 c 0,-0.14552 -0.0525,-0.26458 -0.116677,-0.26458 -0.06417,0 -0.190261,0.11906 -0.280198,0.26458 -0.08994,0.14552 -0.03743,0.26458 0.116677,0.26458 0.154109,0 0.280198,-0.11906 0.280198,-0.26458 z m 2.990949,-3.61137 c 0.117053,-0.11537 0.319007,-0.0379 0.448787,0.17204 0.198987,0.32196 0.26327,0.31063 0.410213,-0.0723 0.09584,-0.24975 0.280836,-0.38822 0.411109,-0.3077 0.359136,0.22196 0.267166,-0.48421 -0.131453,-1.00932 -0.603813,-0.79543 -1.202267,-0.54637 -1.748355,0.7276 -0.288316,0.67261 -0.687123,1.19062 -0.916639,1.19062 -0.613615,0 -0.48691,0.51595 0.189035,0.76975 0.504804,0.18954 0.635538,0.11068 0.859896,-0.5187 0.145521,-0.40823 0.360354,-0.83663 0.477407,-0.952 z m 80.879902,0.75149 c -0.003,-0.27046 -1.38947,-0.86621 -1.56616,-0.673 -0.0834,0.0912 0.004,0.22111 0.19392,0.28878 0.19002,0.0677 0.48768,0.277 0.66146,0.46517 0.30763,0.33311 0.71493,0.28672 0.71078,-0.081 z M 41.541278,116.33047 c -0.254754,-0.2348 -0.289962,-0.19401 -0.157104,0.18204 0.09418,0.26656 0.185044,0.62375 0.201925,0.79375 0.01688,0.17 0.08758,0.0881 0.157104,-0.18204 0.06953,-0.27012 -0.02134,-0.6273 -0.201925,-0.79375 z m -1.460882,-0.73154 c -0.171466,-0.27744 -0.641656,-0.0547 -0.641656,0.30394 0,0.13236 0.17791,0.17239 0.395355,0.0889 0.217446,-0.0834 0.328281,-0.26024 0.246301,-0.39289 z m 72.780214,0.032 c 0.19612,-0.31733 -0.58444,-0.31733 -1.32291,0 -0.44606,0.19168 -0.39657,0.23031 0.31511,0.24599 0.46435,0.0102 0.91787,-0.10047 1.0078,-0.24599 z m -148.563535,-1.18419 c 0,-0.34309 0.148829,-0.68385 0.33073,-0.75725 0.181901,-0.0734 -0.0037,-0.14285 -0.41249,-0.15434 -0.408771,-0.0115 -0.67592,0.088 -0.593664,0.2211 0.08226,0.13309 0.04423,0.28192 -0.0845,0.33073 -0.134331,0.0509 -0.135987,0.34963 -0.0039,0.70105 0.278443,0.74074 0.763809,0.52386 0.763809,-0.34129 z m 104.970426,-0.29402 c -0.06544,-0.34234 -0.01712,-0.55949 0.107376,-0.48254 0.124499,0.0769 0.228185,-0.016 0.230414,-0.20645 0.0029,-0.25167 0.07416,-0.23785 0.260531,0.0505 0.216037,0.3343 0.25712,0.31924 0.260532,-0.0954 0.0036,-0.43602 0.06358,-0.42089 0.524416,0.13229 0.603084,0.72392 0.710459,0.4816 0.167,-0.37687 -0.401951,-0.63495 -0.714749,-4.15788 -0.369175,-4.15788 0.116038,0 0.210048,-0.20836 0.208913,-0.46302 -0.0022,-0.48261 -1.226566,-1.21398 -1.6226,-0.96922 -0.321777,0.19887 -0.282582,0.84059 0.05828,0.95421 0.380952,0.12698 0.638447,2.06553 0.274362,2.06553 -0.152273,0 -0.408706,0.24636 -0.569852,0.54746 -0.356063,0.66531 -0.06311,4.02674 0.329768,3.78393 0.142462,-0.088 0.205477,-0.44018 0.140035,-0.78252 z m 150.153099,0.28527 c 0.1,-0.52302 0.0538,-0.60307 -0.21801,-0.37753 -0.1897,0.15743 -0.27971,0.45613 -0.20003,0.66377 0.20155,0.52523 0.27216,0.47688 0.41804,-0.28624 z m -246.476118,-0.97334 c -0.08446,-0.21106 -0.147156,-0.14837 -0.159852,0.15986 -0.01149,0.27891 0.05104,0.43518 0.138964,0.34726 0.08792,-0.0879 0.09732,-0.31612 0.02089,-0.50712 z M 121.12333,113.619 c -0.0879,-0.0879 -0.31612,-0.0973 -0.50712,-0.0209 -0.21107,0.0845 -0.14837,0.14715 0.15985,0.15985 0.27892,0.0115 0.43519,-0.0511 0.34727,-0.13896 z m -47.469709,-5.8188 -0.452482,-1.03281 -0.146545,0.92604 c -0.121617,0.76851 -0.05649,0.95247 0.382862,1.08138 0.724732,0.21264 0.728622,0.1951 0.216165,-0.97461 z m -21.647173,-0.63956 c 0,-0.56714 -0.768791,-0.48522 -0.8803,0.0938 -0.06809,0.35359 0.03966,0.46134 0.393251,0.39325 0.267877,-0.0516 0.487049,-0.27076 0.487049,-0.48705 z m 18.311629,-1.84846 c 0.08298,0 0.322541,0.20836 0.532364,0.46302 0.361074,0.43824 0.373258,0.43708 0.227606,-0.0216 -0.08464,-0.26656 -0.155714,-0.68328 -0.157943,-0.92604 -0.0031,-0.33304 -0.0575,-0.35713 -0.221792,-0.0981 -0.173916,0.27417 -0.286128,0.26085 -0.557512,-0.0661 -0.186874,-0.22517 -0.444255,-0.4094 -0.571958,-0.4094 -0.339164,0 -0.283578,1.00171 0.09273,1.67104 0.324914,0.57792 0.324914,0.57792 0.415277,-0.0174 0.0497,-0.32742 0.158254,-0.59531 0.241231,-0.59531 z m 3.524541,0.69521 c 0.0044,0.12696 0.105324,0.0522 0.224221,-0.16604 0.118896,-0.21828 0.190159,-0.75407 0.158363,-1.19063 -0.08399,-1.15317 -0.0973,-1.19062 -0.423027,-1.19062 -0.193521,0 -0.170478,0.15595 0.06615,0.44766 0.19972,0.24622 0.231605,0.36895 0.07086,0.27274 -0.160748,-0.0962 -0.557902,0.10783 -0.882565,0.45341 -0.49509,0.527 -0.54099,0.72047 -0.284591,1.19956 0.245014,0.45781 0.38083,0.50886 0.684127,0.25715 0.208133,-0.17274 0.382044,-0.21019 0.386469,-0.0832 z m -16.147629,-1.22438 c 0,-0.43656 -0.119062,-0.79375 -0.264583,-0.79375 -0.145521,0 -0.264583,0.35719 -0.264583,0.79375 0,0.43657 0.119062,0.79375 0.264583,0.79375 0.145521,0 0.264583,-0.35718 0.264583,-0.79375 z m -31.749999,0.41253 c 0,-0.0642 -0.119062,-0.19026 -0.264583,-0.28019 -0.145521,-0.0899 -0.264583,-0.0374 -0.264583,0.11667 0,0.15411 0.119062,0.2802 0.264583,0.2802 0.145521,0 0.264583,-0.0525 0.264583,-0.11668 z m 27.78125,-0.13545 c 0,-0.44141 -0.605518,-1.59995 -0.83622,-1.59995 -0.337966,0 -0.26498,1.17421 0.09539,1.53458 0.381238,0.38124 0.740834,0.41297 0.740834,0.0654 z m 21.326518,-0.46996 c -0.268953,-0.26895 -0.490868,0.13597 -0.270197,0.49302 0.166697,0.26972 0.229017,0.26993 0.318638,10e-4 0.06128,-0.18382 0.03948,-0.40616 -0.04844,-0.49408 z m -11.808715,-1.81715 c -0.291818,-1.04228 -0.275714,-1.2353 0.141534,-1.69635 0.485209,-0.53615 0.481622,-0.61074 -0.241659,-5.024818 -0.03577,-0.21828 -0.158523,0.98504 -0.272791,2.67405 -0.189715,2.804178 -0.127132,3.896918 0.309022,5.395738 0.100684,0.34599 0.195384,0.40772 0.273584,0.17832 0.06578,-0.19297 -0.02858,-0.88009 -0.20969,-1.52694 z m -7.136554,-0.15069 c 0,-1.63652 -0.1312,-1.59838 -0.379185,0.11024 -0.119653,0.82442 -0.08581,1.25677 0.09839,1.25677 0.161773,0 0.280795,-0.57944 0.280795,-1.36701 z m -1.61821,0.53498 c 0.297966,-0.0957 0.285646,-0.19815 -0.06615,-0.54994 -0.244961,-0.24496 -0.435957,-0.87048 -0.440725,-1.4434 -0.0075,-0.8974 -0.04793,-0.95902 -0.359897,-0.54806 -0.193316,0.25466 -0.487186,0.46302 -0.653044,0.46302 -0.165858,0 -0.301561,0.1318 -0.301561,0.29289 0,0.16109 0.178594,0.22436 0.396875,0.14059 0.309891,-0.11891 0.396875,0.0682 0.396875,0.85364 0,1.02223 0.238381,1.55291 0.511095,1.13778 0.0827,-0.12589 0.315138,-0.28182 0.516528,-0.34652 z m 15.758719,-0.87306 c -0.09961,-0.53098 -0.240644,-0.90588 -0.313404,-0.83312 -0.07276,0.0728 -0.05079,0.56673 0.04882,1.0977 0.09961,0.53098 0.240644,0.90589 0.313405,0.83313 0.07276,-0.0728 0.05079,-0.56673 -0.04882,-1.09771 z m -1.257155,-1.39872 c -0.06708,-0.25744 -0.126382,-0.11087 -0.131774,0.32569 -0.0054,0.43656 0.04949,0.64719 0.12197,0.46806 0.07248,-0.17914 0.07689,-0.53632 0.0098,-0.79375 z m 4.379154,-0.22682 c 0.122358,-0.42372 0.221771,-1.406548 0.220919,-2.184058 -0.0012,-1.13254 0.07544,-1.3841 0.385636,-1.26507 0.420871,0.1615 0.539994,-0.23831 0.143934,-0.48309 -0.348062,-0.21511 -1.11832,0.63069 -0.910988,1.00033 0.113166,0.20177 0.04958,0.19434 -0.182777,-0.0213 -0.575893,-0.53453 -0.652295,-0.40227 -0.557491,0.9651 0.04943,0.71289 -0.02378,1.516628 -0.162685,1.786098 -0.138903,0.26947 -0.202997,0.62734 -0.142431,0.79527 0.2041,0.5659 0.981614,0.18339 1.205883,-0.59325 z m -110.479681,0.10602 c -0.08446,-0.21106 -0.147157,-0.14837 -0.159852,0.15986 -0.01149,0.27891 0.05105,0.43518 0.138964,0.34726 0.08792,-0.0879 0.09732,-0.31612 0.02089,-0.50712 z m 94.917331,-1.625928 c -0.0931,-0.24262 -0.26171,-0.44112 -0.37469,-0.44112 -0.342703,0 -0.497479,1.02485 -0.172901,1.14487 0.451678,0.167008 0.739694,-0.20314 0.547591,-0.70375 z m -7.869417,-0.75531 c -0.08446,-0.21107 -0.147156,-0.14837 -0.159852,0.15985 -0.01149,0.27892 0.05105,0.43519 0.138964,0.34727 0.08792,-0.0879 0.09732,-0.31612 0.02089,-0.50712 z m 2.070598,-0.75498 c 0.186175,-0.84765 -0.189699,-1.57666 -0.812912,-1.57666 -0.586753,0 -0.659614,0.42879 -0.242494,1.4271 0.487035,1.16564 0.821818,1.21308 1.055406,0.14956 z m 8.067411,0.42416 c 0,-0.21733 -0.226869,-0.36334 -0.529166,-0.34057 -0.291042,0.0219 -0.529167,0.19311 -0.529167,0.38043 0,0.18731 0.238125,0.34057 0.529167,0.34057 0.291041,0 0.529166,-0.1712 0.529166,-0.38043 z m 4.901955,-0.16033 c 0.183535,-0.29696 -0.318601,-1.04674 -0.701018,-1.04674 -0.271098,0 -0.314315,0.88801 -0.0558,1.14653 0.256513,0.25651 0.561461,0.2163 0.756816,-0.0998 z M 49.90108,97.657592 c -0.08372,-0.13546 -0.03122,-0.32109 0.116677,-0.41249 0.330551,-0.20429 0.354906,-0.66412 0.03517,-0.66412 -0.2771,0 -0.567698,0.96246 -0.35486,1.1753 0.235699,0.2357 0.369478,0.17066 0.203008,-0.0987 z m 3.295993,-0.29848 c 0,-0.13693 -0.178594,-0.24897 -0.396875,-0.24897 -0.409154,0 -0.525649,0.3122 -0.227679,0.61017 0.211383,0.21138 0.624554,-0.0276 0.624554,-0.3612 z m 15.528217,-1.50574 c -0.06655,-0.25466 -0.121,-0.0463 -0.121,0.46302 0,0.50932 0.05445,0.71768 0.121,0.46302 0.06655,-0.25466 0.06655,-0.67138 0,-0.92604 z m -11.030301,-0.0845 c 0,-0.69089 -0.08888,-0.79953 -0.595312,-0.7276 -0.852866,0.12112 -0.970396,1.19387 -0.148012,1.35097 0.336068,0.0642 0.640798,0.13293 0.677179,0.15275 0.03638,0.0198 0.06614,-0.32944 0.06614,-0.77612 z m 14.203657,0.23338 c -0.08446,-0.21107 -0.147156,-0.14838 -0.159852,0.15985 -0.01149,0.27891 0.05105,0.43518 0.138964,0.34726 0.08792,-0.0879 0.09732,-0.31612 0.02089,-0.50711 z m -2.546953,-0.76681 c -0.250425,-0.60444 -0.259117,-0.5961 -0.161605,0.15496 0.134506,1.036 0.165444,1.11363 0.307304,0.77108 0.06543,-0.15799 -1.36e-4,-0.57471 -0.145699,-0.92604 z m -106.990544,0.23764 c -0.08446,-0.21107 -0.147156,-0.14837 -0.159852,0.15985 -0.01149,0.27892 0.05105,0.43519 0.138964,0.34727 0.08792,-0.0879 0.09732,-0.31612 0.02089,-0.50712 z m 92.419372,-0.56132 c 0.0022,-0.11772 -0.115011,-0.14046 -0.260531,-0.0505 -0.145521,0.0899 -0.262761,0.36486 -0.260532,0.61093 0.0035,0.38557 0.0395,0.39256 0.260532,0.0505 0.141064,-0.21828 0.258303,-0.4932 0.260531,-0.61093 z m 8.180213,-1.63509 c -0.04117,-1.77573 -0.28994,-2.82109 -0.597035,-2.50882 -0.230253,0.23414 0.166808,4.74094 0.404733,4.5939 0.130486,-0.0806 0.217022,-1.01893 0.192302,-2.08508 z m -10.131775,1.60502 c 0.07944,-0.20703 -0.121689,-0.64255 -0.446965,-0.96783 -0.59141,-0.59141 -0.59141,-0.59141 -0.420945,0.0457 0.09376,0.35041 0.172091,0.78593 0.174078,0.96783 0.0049,0.45225 0.51566,0.41862 0.693832,-0.0457 z m 19.447336,-0.75853 c -0.457807,-0.4578 -0.631874,-0.0243 -0.260671,0.64927 0.305654,0.55458 0.351109,0.56759 0.443124,0.12685 0.05639,-0.27012 -0.02571,-0.61937 -0.182453,-0.77612 z m -31.355612,-0.57252 c -0.09301,-0.37058 -0.345433,-0.67378 -0.560942,-0.67378 -0.503394,0 -0.495076,0.26402 0.03203,1.01657 0.513509,0.73314 0.759019,0.57402 0.528914,-0.34279 z m 23.526003,-0.12266 c -0.223946,-1.01962 -0.630049,-1.31473 -0.474309,-0.34468 0.169828,1.05781 0.330321,1.47613 0.500893,1.30556 0.08318,-0.0832 0.07122,-0.51558 -0.02658,-0.96088 z m -26.711589,-0.47215 c -0.264731,-0.68988 -0.454431,-0.20105 -0.239599,0.61741 0.146844,0.55944 0.225626,0.63311 0.299837,0.28035 0.05536,-0.26316 0.02826,-0.66716 -0.06024,-0.89776 z m -90.260713,-0.58569 c -0.164274,-0.16428 -0.2894,0.0344 -0.485685,0.7713 l -0.176197,0.66146 0.386262,-0.66106 c 0.212444,-0.36358 0.336473,-0.71085 0.27562,-0.7717 z m 112.337272,0.7713 c 0,-0.14552 -0.0525,-0.26458 -0.116677,-0.26458 -0.06417,0 -0.190261,0.11906 -0.280198,0.26458 -0.08994,0.14552 -0.03743,0.26458 0.116677,0.26458 0.154109,0 0.280198,-0.11906 0.280198,-0.26458 z m 9.70574,-0.84336 c -0.08446,-0.21106 -0.147156,-0.14837 -0.159852,0.15985 -0.01149,0.27892 0.05105,0.43519 0.138964,0.34727 0.08792,-0.0879 0.09732,-0.31612 0.02089,-0.50712 z m 3.275981,-0.86584 c 0.136095,0.0841 0.247445,-0.27081 0.247445,-0.78873 0,-0.51791 0.119063,-0.94165 0.264584,-0.94165 0.14552,0 0.264583,-0.1786 0.264583,-0.39688 0,-0.52047 -0.108982,-0.50374 -1.145914,0.17599 -0.843115,0.55267 -0.865024,0.61095 -0.621763,1.65365 0.402629,1.7258 0.543359,1.94526 0.647423,1.00961 0.05291,-0.4757 0.207547,-0.7961 0.343642,-0.71199 z m -19.700406,-0.0172 c 0.03133,-0.21349 -0.05149,-0.4552 -0.184047,-0.53712 -0.13256,-0.0819 -0.241018,0.17557 -0.241018,0.57221 0,0.72196 0.317804,0.69573 0.425065,-0.0351 z m -15.85474,-0.17529 c -0.08446,-0.21107 -0.147157,-0.14837 -0.159853,0.15985 -0.01149,0.27892 0.05105,0.43518 0.138964,0.34727 0.08792,-0.0879 0.09732,-0.31613 0.02089,-0.50712 z m 7.55235,-1.16499 c -0.06198,-0.32423 -0.338999,-0.64868 -0.615599,-0.72102 -0.613959,-0.16055 -0.622615,-1.9e-4 -0.07061,1.30799 0.365731,0.86674 0.460528,0.94582 0.615599,0.51352 0.100813,-0.28104 0.132586,-0.77626 0.07061,-1.10049 z m 9.977221,0.22241 c -0.01545,-0.91383 -0.0371,-0.94132 -0.274137,-0.348 -0.141551,0.3543 -0.197272,0.80078 -0.123824,0.99219 0.244198,0.63637 0.414935,0.35999 0.397961,-0.64419 z m 9.004189,-0.16314 c 0.01152,0.41054 1.417533,0.65021 1.645981,0.28057 0.109703,-0.1775 -0.137352,-0.43224 -0.613298,-0.63236 -0.438353,-0.18431 -0.73289,-0.43885 -0.654528,-0.56564 0.07836,-0.1268 -0.02852,-0.45643 -0.237509,-0.73253 -0.208992,-0.2761 -0.383772,-0.8224 -0.3884,-1.21399 -0.0046,-0.3916 -0.129419,-0.78678 -0.277314,-0.87818 -0.147894,-0.0914 -0.199198,-0.27897 -0.114009,-0.41681 0.08519,-0.13784 0.253283,-0.1898 0.373541,-0.11548 0.349204,0.21582 0.460484,-1.97857 0.11488,-2.26539 -0.388098,-0.3221 -0.71326,0.41615 -0.491309,1.11546 0.08545,0.26924 0.06021,0.63942 -0.05609,0.82262 -0.283366,0.44636 -0.27798,1.78831 0.0072,1.78831 0.12471,0 0.159676,0.17478 0.0777,0.3884 -0.08197,0.21362 -0.03427,0.45934 0.106014,0.54603 0.148077,0.0915 0.08391,0.32879 -0.15298,0.56568 -0.293058,0.29305 -0.329621,0.50252 -0.129756,0.74334 0.153055,0.18442 0.200678,0.55876 0.105829,0.83187 -0.157475,0.45343 -0.135624,0.4506 0.251604,-0.0326 0.233231,-0.29105 0.427842,-0.39422 0.43247,-0.22929 z m 218.289659,0.37719 c 0,-0.35728 -0.48232,-0.60496 -0.79807,-0.40982 -0.14789,0.0914 -0.2004,0.27702 -0.11667,0.41249 0.19861,0.32137 0.91474,0.31928 0.91474,-0.003 z M 69.093403,89.847282 c 0.133789,0.0827 0.243253,0.0242 0.243253,-0.12986 0,-0.15411 -0.148828,-0.28959 -0.330729,-0.30108 -0.231978,-0.0147 -0.239474,-0.0582 -0.0251,-0.14598 0.223102,-0.0913 0.232577,-0.38929 0.03509,-1.10359 -0.148795,-0.53818 -0.366844,-1.51428 -0.484554,-2.16913 -0.189922,-1.05657 -0.213729,-0.9523 -0.211443,0.92604 0.0014,1.16417 -0.08606,2.47177 -0.1944,2.90577 -0.187236,0.75009 -0.17419,0.76632 0.26383,0.3283 0.253444,-0.25344 0.57027,-0.39315 0.704059,-0.31047 z M -52.39027,88.665522 c 0.03343,-0.67377 -0.352356,-0.0212 -0.423004,0.71556 -0.05933,0.61874 -0.03621,0.6447 0.167797,0.18844 0.130136,-0.29105 0.244979,-0.69784 0.255207,-0.904 z m 111.602354,-0.83315 c 0.03404,-0.68679 0.178316,-1.55494 0.32062,-1.92923 0.282174,-0.74217 -0.02479,-1.15738 -0.464208,-0.62791 -0.388312,0.46788 -0.56746,3.80968 -0.204115,3.80753 0.157199,-9.3e-4 0.313666,-0.56361 0.347703,-1.25039 z m -15.623854,0.49691 c -0.08446,-0.21106 -0.147156,-0.14837 -0.159852,0.15985 -0.01149,0.27892 0.05104,0.43519 0.138964,0.34727 0.08792,-0.0879 0.09732,-0.31612 0.02089,-0.50712 z m 31.833842,0.3292 c 0,-0.2666 -1.038575,-1.07334 -1.381788,-1.07334 -0.113141,0 -0.205712,0.22985 -0.205712,0.51077 0,0.46157 0.165242,0.5539 1.389063,0.77612 0.10914,0.0198 0.198437,-0.0763 0.198437,-0.21355 z m -30.842465,-3.58614 c -0.231538,-1.16376 -0.477432,-2.17237 -0.54643,-2.24137 -0.069,-0.069 -0.05723,0.7641 0.02614,1.85134 0.08338,1.08723 0.157006,2.15538 0.163623,2.37366 0.0066,0.21829 0.07942,0.69454 0.161781,1.05834 0.149752,0.66146 0.149752,0.66146 0.382807,-0.13229 0.156819,-0.5341 0.09534,-1.48592 -0.187922,-2.90968 z m 8.83626,2.64509 c -0.07111,-1.05593 -0.127529,-1.09065 -0.793273,-0.48816 -0.584114,0.52862 -0.651089,1.27041 -0.09545,1.05719 0.213621,-0.082 0.458773,-0.0352 0.544782,0.10399 0.293441,0.47479 0.406364,0.25383 0.343944,-0.67302 z m 1.255075,-0.86328 c -0.327384,-0.32738 -0.454747,0.20887 -0.247673,1.0428 l 0.218219,0.87882 0.0902,-0.88534 c 0.04961,-0.48693 0.02228,-0.95326 -0.06075,-1.03628 z m 7.547809,0.54087 c -0.240685,-0.41352 -0.275324,-0.38749 -0.282383,0.21217 -0.0044,0.37593 0.08125,0.77356 0.190392,0.88363 0.317854,0.32056 0.393297,-0.57813 0.09199,-1.0958 z m -11.508485,0.0701 c -0.09301,-0.37058 -0.309715,-0.67378 -0.481567,-0.67378 -0.237423,0 -0.236212,0.0763 0.005,0.3175 0.174625,0.17462 0.3175,0.55165 0.3175,0.83784 0,0.2862 0.07383,0.44652 0.164067,0.35628 0.09024,-0.0902 0.08797,-0.46726 -0.005,-0.83784 z m -7.151586,-0.0312 c -0.228675,-0.22868 -0.415773,-0.54618 -0.415773,-0.70556 0,-0.15938 -0.0704,-0.21938 -0.15645,-0.13333 -0.278737,0.27874 0.180229,1.25466 0.590053,1.25466 0.346639,0 0.34434,-0.0536 -0.01783,-0.41577 z m 16.782143,0.0189 c 0.269761,-0.32504 0.251681,-0.39688 -0.0999,-0.39688 -0.2361,0 -0.429272,0.1786 -0.429272,0.39688 0,0.21828 0.04495,0.39687 0.0999,0.39687 0.05494,0 0.248114,-0.17859 0.429272,-0.39687 z m -3.074721,-0.54115 c 0.163275,-0.42549 -0.240718,-0.75743 -0.629446,-0.51719 -0.145521,0.0899 -0.264583,0.39089 -0.264583,0.66877 0,0.56949 0.660287,0.45754 0.894029,-0.15158 z M 42.79448,85.683452 c -0.08446,-0.21107 -0.147156,-0.14837 -0.159852,0.15985 -0.01149,0.27892 0.05105,0.43519 0.138964,0.34727 0.08792,-0.0879 0.09732,-0.31613 0.02089,-0.50712 z m 29.697627,0.20546 c 0.170405,-0.20533 0.208814,-0.43575 0.08535,-0.51206 -0.123461,-0.0763 -0.368376,0.0917 -0.544256,0.37332 -0.36752,0.5885 -0.0053,0.69801 0.458903,0.13874 z m -142.98436,-0.41497 c -0.08808,-0.14251 -0.03138,-0.4997 0.125986,-0.79375 0.193018,-0.36065 0.197,-0.53463 0.01224,-0.53463 -0.150641,0 -0.273893,0.11906 -0.273893,0.26458 0,0.14552 -0.167447,0.26458 -0.372104,0.26458 -0.241843,0 -0.323663,0.18525 -0.233725,0.52917 0.07611,0.29104 0.310114,0.52917 0.520011,0.52917 0.209897,0 0.309568,-0.1166 0.221489,-0.25912 z m 1.161481,-0.64859 c -0.06961,-0.0696 -0.284185,0.13592 -0.47684,0.45672 -0.334676,0.55729 -0.329038,0.56293 0.126559,0.12656 0.262262,-0.2512 0.419888,-0.51367 0.350281,-0.58328 z m 110.525332,0.51235 c 0.08344,-0.21744 0.230724,-0.34652 0.327294,-0.28684 0.09657,0.0597 0.13112,-0.35772 0.07678,-0.92756 -0.05434,-0.56984 -0.176373,-1.03608 -0.271178,-1.03608 -0.173957,0 -0.83038,1.87911 -0.83038,2.37709 0,0.41381 0.526805,0.31818 0.697487,-0.12661 z m 31.978554,-0.39839 c -0.09933,-0.31298 -0.240139,-0.50952 -0.3129,-0.43676 -0.07276,0.0728 -0.05102,0.38837 0.04832,0.70134 0.09933,0.31298 0.240139,0.50952 0.312899,0.43675 0.07276,-0.0728 0.05102,-0.38836 -0.04832,-0.70133 z m -135.334371,-0.32938 c 0,-0.14759 -0.175488,-0.11894 -0.396875,0.0648 -0.218281,0.18116 -0.396875,0.44844 -0.396875,0.59396 0,0.14759 0.175487,0.11894 0.396875,-0.0648 0.218281,-0.18115 0.396875,-0.44844 0.396875,-0.59396 z m 7.665254,0.6043 c 0.214067,-0.13538 0.332942,-0.30242 0.264167,-0.37119 -0.06878,-0.0688 -0.355974,0.0438 -0.63822,0.25019 -0.564472,0.41275 -0.248762,0.51488 0.374053,0.121 z m 107.916326,-0.3911 c 0.14696,-0.75807 -0.414809,-1.12857 -0.930016,-0.61337 -0.366417,0.36642 -0.381308,0.5072 -0.09069,0.85737 0.421472,0.50785 0.896992,0.39417 1.020706,-0.244 z m 4.900922,-0.21455 c -0.111735,-0.32742 -0.179914,-1.23871 -0.151508,-2.02508 0.02985,-0.8264 -0.08734,-1.59719 -0.277696,-1.82648 -0.403488,-0.486023 -0.457581,-1.637773 -0.07705,-1.64061 0.44285,-0.0033 0.830228,-1.120545 0.679752,-1.960483 -0.173892,-0.970639 -0.79975,-1.242927 -0.79975,-0.347942 0,0.817844 -0.513505,2.310489 -0.794862,2.310489 -0.325528,0 0.04187,1.152683 0.468401,1.469576 0.267977,0.19909 0.370263,0.83414 0.357304,2.21834 -0.01868,1.99476 0.07065,2.3975 0.531769,2.3975 0.160484,0 0.185845,-0.23722 0.06364,-0.59531 z m 13.572979,-0.57604 c -0.166684,-0.3532 -0.344947,-0.6003 -0.39614,-0.5491 -0.164214,0.16421 0.247328,1.19128 0.477341,1.19128 0.122024,0 0.08548,-0.28898 -0.0812,-0.64218 z m -10.699915,-2.49925 c -0.140908,-1.109867 -0.239818,-2.91091 -0.2198,-4.002316 0.03334,-1.817515 -0.131882,-2.366166 -0.715853,-2.377198 -0.193127,-0.0036 -0.09266,2.024957 0.242213,4.89074 0.06802,0.582084 0.171946,1.683534 0.230952,2.447674 0.05901,0.76414 0.200736,1.53804 0.314956,1.71979 0.360805,0.57412 0.421226,-0.52292 0.147532,-2.67869 z m 7.132707,1.4968 c -0.449576,-0.44958 -0.668642,-0.0713 -0.447367,0.77242 0.194045,0.73992 0.194045,0.73992 0.472935,0.13598 0.200918,-0.4351 0.19377,-0.68907 -0.02557,-0.9084 z m -135.133915,0.14029 c -0.467628,-0.46367 -0.477867,-0.46352 -0.300491,0.005 0.100998,0.26656 0.183633,0.6178 0.183633,0.78052 0,0.21537 0.08175,0.21411 0.300491,-0.005 0.224266,-0.22427 0.177684,-0.42226 -0.183633,-0.78052 z m 109.685222,0.0491 c 0,-0.34663 -0.119062,-0.70381 -0.264583,-0.79375 -0.157767,-0.0975 -0.264583,0.22294 -0.264583,0.79375 0,0.57081 0.106816,0.89125 0.264583,0.79375 0.145521,-0.0899 0.264583,-0.44712 0.264583,-0.79375 z m 8.202083,0.28136 c 0,-0.49463 -0.703945,-1.03759 -0.910959,-0.70264 -0.09038,0.14623 -0.333579,0.20093 -0.540451,0.12154 -0.206871,-0.0794 -0.646269,0.0449 -0.976439,0.27614 -0.598039,0.41888 -0.596834,0.42049 0.318457,0.42453 0.505322,0.002 1.091676,0.11343 1.30301,0.24712 0.451776,0.2858 0.806382,0.12455 0.806382,-0.36669 z m 5.474051,-0.61209 c -0.06655,-0.25466 -0.121,-0.0463 -0.121,0.46302 0,0.50932 0.05445,0.71768 0.121,0.46302 0.06655,-0.25466 0.06655,-0.67138 0,-0.92604 z m -118.540486,0.13229 c -0.0734,-0.1819 -0.133452,-0.0331 -0.133452,0.33073 0,0.3638 0.06005,0.51263 0.133452,0.33073 0.0734,-0.1819 0.0734,-0.47956 0,-0.66146 z m 115.489386,-1.6953 c -0.05631,-1.095515 -0.174864,-1.626198 -0.313271,-1.402251 -0.122474,0.198167 -0.169063,0.447059 -0.103531,0.553091 0.06553,0.10604 -0.0019,0.26758 -0.14975,0.35898 -0.347054,0.21449 -0.344551,1.08672 0.005,1.73985 0.489151,0.91399 0.653919,0.54732 0.561558,-1.24967 z m -122.139904,0.75421 c -0.08146,-0.0815 -0.294957,-1.7e-4 -0.474432,0.18065 -0.259363,0.26131 -0.228972,0.2917 0.148112,0.14812 0.260938,-0.0994 0.407781,-0.24731 0.32632,-0.32877 z m 61.2440383,0.21348 c 0,-0.14552 -0.1190625,-0.26458 -0.2645834,-0.26458 -0.1455208,0 -0.2645833,0.11906 -0.2645833,0.26458 0,0.14553 0.1190625,0.26459 0.2645833,0.26459 0.1455209,0 0.2645834,-0.11906 0.2645834,-0.26459 z M 44.188223,80.075343 c -0.09183,-0.715792 -0.1158,-2.146646 -0.05327,-3.179674 0.06253,-1.033029 -0.01202,-2.175891 -0.165659,-2.539693 -0.212793,-0.503869 -0.275504,0.252562 -0.26322,3.175 0.0089,2.110052 0.08677,4.134116 0.173121,4.497916 l 0.156996,0.66146 0.159496,-0.65678 c 0.08772,-0.36124 0.08437,-1.24244 -0.0075,-1.958229 z m 18.957183,1.530219 c -0.09416,-0.24539 -0.230737,-0.38663 -0.303498,-0.31387 -0.07276,0.0728 -0.05525,0.33307 0.03892,0.57845 0.09416,0.24539 0.230737,0.38663 0.303497,0.31386 0.07276,-0.0728 0.05525,-0.33306 -0.03891,-0.57844 z m -66.2121527,0.0349 c 0.081974,-0.21362 0.059897,-0.4435 -0.04906,-0.51084 -0.1089573,-0.0673 -0.2154203,0.10744 -0.2365844,0.3884 -0.045772,0.60764 0.078944,0.66109 0.2856444,0.12244 z m 46.4555937,-0.86837 -0.01864,-1.256772 -0.374961,1.022742 c -0.371129,1.0123 -0.318721,1.4908 0.163278,1.4908 0.136933,0 0.240579,-0.56555 0.230326,-1.25677 z m -106.608438,0.18282 c 0,-0.13693 -0.119062,-0.24897 -0.264583,-0.24897 -0.145521,0 -0.264583,0.18562 -0.264583,0.41249 0,0.22687 0.119062,0.33891 0.264583,0.24897 0.145521,-0.0899 0.264583,-0.27556 0.264583,-0.41249 z m 2.214487,-0.0505 c 0.08775,-0.32742 0.156503,-0.833436 0.152794,-1.124478 -0.0047,-0.371114 -0.122189,-0.263258 -0.393262,0.361106 -0.444761,1.024422 -0.482351,1.358682 -0.152794,1.358682 0.128549,0 0.305517,-0.26789 0.393262,-0.59531 z m 125.623829,-0.2597 c -0.196339,-0.196339 -0.230773,-0.093 -0.115686,0.34706 0.09356,0.35777 0.213493,0.4777 0.279546,0.27954 0.06363,-0.19088 -0.01011,-0.47285 -0.16386,-0.6266 z m -9.590599,-1.790819 c 0.232192,0 -0.06953,-2.030837 -0.342236,-2.303544 -0.36374,-0.36374 -0.511593,0.266455 -0.462308,1.97049 0.06668,2.305603 0.397213,3.337283 0.509342,1.589825 0.04435,-0.691224 0.177194,-1.256771 0.295202,-1.256771 z m -115.05412,1.108864 c 0.01023,-0.391594 0.120922,-0.950114 0.245987,-1.241156 0.179706,-0.418198 0.23129,-0.310004 0.245987,0.515938 0.01402,0.788202 0.09346,0.970237 0.323162,0.740537 0.559598,-0.559597 1.450855,-6.269488 1.150326,-7.369626 -0.209255,-0.766016 -0.209255,-0.766016 -0.419432,0.160026 -0.115597,0.509323 -0.144833,1.193932 -0.06497,1.521354 0.168948,0.69264 -0.301413,0.812379 -0.558586,0.142198 -0.09563,-0.249213 -0.093,-1.380307 0.0059,-2.513542 0.123346,-1.414009 0.08977,-2.060427 -0.107025,-2.060427 -0.264971,0 -0.620318,1.258069 -0.709959,2.513542 -0.02078,0.291042 -0.182196,0.876476 -0.358701,1.300965 -0.229218,0.551263 -0.238466,0.822756 -0.03236,0.950134 0.450867,0.278651 0.225769,3.590373 -0.237336,3.491777 -0.277518,-0.05908 -0.325558,0.125071 -0.198437,0.760677 0.09225,0.461249 0.167727,1.128435 0.167727,1.482635 0,0.879583 0.524348,0.501443 0.547763,-0.395032 z m 123.01265,0.346344 c 0,-0.218281 -0.115326,-0.396875 -0.256279,-0.396875 -0.140954,0 -0.187747,0.178594 -0.103985,0.396875 0.08376,0.218281 0.199088,0.396871 0.25628,0.396871 0.05719,0 0.103984,-0.17859 0.103984,-0.396871 z M -68.10735,78.655455 c -0.06749,-0.181901 -0.288505,-0.330729 -0.491136,-0.330729 -0.301597,0 -0.316265,0.1954 -0.08087,1.077308 0.287351,1.076568 0.287691,1.076788 0.491136,0.330729 0.111972,-0.410618 0.148363,-0.895407 0.08087,-1.077308 z m 116.806506,1.124479 c 0,-0.363802 -0.119062,-0.661458 -0.264583,-0.661458 -0.295584,0 -0.362665,0.872057 -0.08819,1.146528 0.291661,0.291658 0.352777,0.207628 0.352777,-0.48507 z m -94.456247,0.280199 c 0,-0.06417 -0.119062,-0.190262 -0.264583,-0.280199 -0.145521,-0.08994 -0.264584,-0.03743 -0.264584,0.116677 0,0.154109 0.119063,0.280198 0.264584,0.280198 0.145521,0 0.264583,-0.0525 0.264583,-0.116676 z M 59.414781,79.383059 c 0.08994,-0.14552 0.03743,-0.264583 -0.116677,-0.264583 -0.154109,0 -0.280198,0.119063 -0.280198,0.264583 0,0.145521 0.0525,0.264584 0.116677,0.264584 0.06417,0 0.190261,-0.119063 0.280198,-0.264584 z M 53.43688,75.68776 c 0.01013,-1.299546 -0.09921,-2.435513 -0.242981,-2.524371 -0.167198,-0.103334 -0.253213,1.01217 -0.238668,3.095201 0.0152,2.176286 0.09581,3.013781 0.242981,2.524371 0.121132,-0.402814 0.228533,-1.795655 0.238668,-3.095201 z m -118.512605,2.835404 c -0.0032,-0.464795 -0.05734,-0.511071 -0.247126,-0.211071 -0.13369,0.211334 -0.184372,0.479224 -0.112625,0.595313 0.229491,0.371324 0.363916,0.227748 0.359751,-0.384242 z m 3.301595,0.08192 c 0.08458,-0.136846 -0.07966,-0.466282 -0.364957,-0.732081 -0.285301,-0.265799 -0.703927,-0.838443 -0.930278,-1.272544 -0.25143,-0.482194 -0.412183,-0.615829 -0.413179,-0.343476 -0.0027,0.733183 0.508299,1.846281 0.772576,1.682949 0.135316,-0.08363 0.322156,0.0878 0.4152,0.380954 0.188243,0.593103 0.294034,0.650851 0.520638,0.284198 z M 56.901239,77.795559 c 0,-0.617361 -0.117592,-0.79375 -0.529166,-0.79375 -0.652077,0 -0.675616,0.368771 -0.06615,1.036285 0.608981,0.666979 0.595312,0.672548 0.595312,-0.242535 z m 16.139583,-0.542863 c 0,-0.374038 -0.624207,-0.627222 -0.734038,-0.297731 -0.05709,0.171285 -0.510606,0.311428 -1.007802,0.311428 -1.129976,0 -1.143018,0.275534 -0.03837,0.810668 0.799212,0.38717 0.883961,0.381028 1.317191,-0.09546 0.254661,-0.280088 0.46302,-0.608097 0.46302,-0.728908 z m -9.995245,-0.01942 c 0.291264,-0.183677 0.02823,-1.289803 -0.306715,-1.289803 -0.28576,0 -0.573253,1.859887 -0.343798,2.224141 0.10936,0.173607 0.223499,0.07767 0.285263,-0.239766 0.05663,-0.291042 0.220991,-0.603599 0.36525,-0.694572 z m -3.498504,-0.416678 c 0,-0.532075 -0.07648,-0.637891 -0.299716,-0.41466 -0.164843,0.164844 -0.228111,0.486313 -0.140595,0.714375 0.242208,0.631184 0.440311,0.496338 0.440311,-0.299715 z m 6.085416,0.449792 c 0,-0.145521 -0.0525,-0.264584 -0.116677,-0.264584 -0.06417,0 -0.190261,0.119063 -0.280198,0.264584 -0.08994,0.145521 -0.03743,0.264583 0.116677,0.264583 0.154109,0 0.280198,-0.119062 0.280198,-0.264583 z M -68.036998,75.481376 c 0.304245,-1.450496 0.291726,-1.540942 -0.272157,-1.96628 -0.325089,-0.245215 -0.648933,-0.387983 -0.719653,-0.317263 -0.07072,0.07072 0.02083,0.220924 0.203446,0.333787 0.196998,0.121751 0.256297,0.402556 0.145812,0.690475 -0.128673,0.335317 -0.09056,0.426154 0.12333,0.293961 0.17025,-0.10522 0.309546,-0.07225 0.309546,0.07327 0,0.14552 -0.119062,0.338168 -0.264583,0.428104 -0.145521,0.08994 -0.264583,0.461178 -0.264583,0.82498 0,0.458749 -0.101355,0.600567 -0.33073,0.462763 -0.224725,-0.135011 -0.214341,-0.05521 0.0324,0.248968 0.563739,0.694981 0.694825,0.559396 1.037175,-1.072769 z m 136.206417,0.265002 c -0.284557,-0.284557 -0.435623,0.11397 -0.235871,0.62225 0.18738,0.476796 0.201532,0.477621 0.2942,0.01716 0.05354,-0.266051 0.02729,-0.553786 -0.05833,-0.63941 z M -65.639643,74.548057 c -0.186834,-0.349104 -0.361214,-0.427065 -0.544738,-0.24354 -0.336161,0.33616 -0.09971,0.757015 0.425319,0.757015 0.308219,0 0.334271,-0.112021 0.119419,-0.513475 z m 3.015365,0.146523 c -0.181901,-0.06497 -0.330729,-0.243371 -0.330729,-0.396459 0,-0.153087 -0.297656,-0.554199 -0.661458,-0.891359 -0.558087,-0.517217 -0.660826,-0.542633 -0.657407,-0.162632 0.0022,0.247713 0.105206,0.609983 0.22884,0.805045 0.269572,0.425312 1.43249,1.06283 1.619191,0.88765 0.07276,-0.06827 -0.01654,-0.177281 -0.198437,-0.242245 z M 58.050776,73.363788 c 0.0909,-0.909505 0.0778,-1.653199 -0.02911,-1.652654 -0.223105,0.0011 -1.120423,2.081081 -1.120423,2.597091 0,0.18896 0.119904,0.26946 0.266452,0.178888 0.146549,-0.09057 0.339852,0.0266 0.429562,0.260379 0.229115,0.597066 0.267165,0.480975 0.453523,-1.383704 z M 201.7909,74.5793 c -0.44107,-0.256176 -1.63374,-0.353133 -2.80841,-0.228306 -0.87269,0.09274 0.70932,0.497338 1.98437,0.507507 1.08293,0.0086 1.23242,-0.04201 0.82404,-0.279201 z m 1.42492,-0.21502 c 0,-0.140954 -0.1786,-0.187747 -0.39688,-0.103984 -0.21828,0.08376 -0.39687,0.199088 -0.39687,0.256279 0,0.05719 0.17859,0.103984 0.39687,0.103984 0.21828,0 0.39688,-0.115325 0.39688,-0.256279 z M 55.31374,73.282028 c 0,-0.648591 -0.104794,-1.009183 -0.264584,-0.910427 -0.145521,0.08994 -0.264583,0.573213 -0.264583,1.073948 0,0.500735 0.119062,0.910427 0.264583,0.910427 0.145521,0 0.264584,-0.483277 0.264584,-1.073948 z m 147.10833,-0.694236 c 0,-0.90513 -0.0799,-1.094979 -0.4077,-0.969178 -0.22423,0.08605 -0.3836,0.05254 -0.35415,-0.07445 0.0294,-0.126993 -0.0851,-0.566982 -0.25453,-0.977753 -0.47464,-1.150637 -1.21255,-0.846924 -1.31344,0.540593 -0.083,1.141486 0.32962,2.313409 0.72787,2.067277 0.12297,-0.076 0.28206,0.01421 0.35354,0.200477 0.0715,0.186262 0.38161,0.338658 0.68918,0.338658 0.48162,0 0.55923,-0.15622 0.55923,-1.125624 z M 72.595331,72.115157 c 0.06969,-0.441039 -0.01562,-0.952157 -0.189569,-1.135816 -0.252014,-0.266079 -0.483439,-0.170494 -1.139002,0.470441 -0.558892,0.54642 -0.864367,0.695928 -0.952574,0.466218 -0.07142,-0.185982 -0.115964,-0.04049 -0.099,0.323309 0.04739,1.016136 0.402374,1.257109 1.394439,0.946598 0.669438,-0.209531 0.886954,-0.445815 0.985702,-1.07075 z m -23.896175,0.373121 c 0,-0.136933 -0.119062,-0.248969 -0.264583,-0.248969 -0.145521,0 -0.264583,0.185621 -0.264583,0.41249 0,0.22687 0.119062,0.338905 0.264583,0.248969 0.145521,-0.08994 0.264583,-0.275558 0.264583,-0.41249 z m 1.848032,-1.682128 c 0.0054,-1.023434 -0.147378,-0.80076 -0.347875,0.507118 -0.110486,0.720717 -0.08152,0.931727 0.09079,0.661458 0.139169,-0.218281 0.254857,-0.744141 0.257085,-1.168576 z m 17.185428,-0.251002 c -0.251594,-0.231746 -0.286874,-0.189681 -0.154693,0.184447 0.09418,0.266563 0.187447,0.683282 0.207264,0.926041 0.01982,0.24276 0.08943,0.159759 0.154693,-0.184447 0.06526,-0.344205 -0.02801,-0.760924 -0.207264,-0.926041 z m -138.019198,0.360879 c 0.07616,-0.291242 0.03052,-0.462809 -0.101433,-0.38126 -0.13195,0.08155 -0.239909,0.319839 -0.239909,0.529532 0,0.547621 0.179784,0.469527 0.341342,-0.148272 z m 1.246158,0.264949 c 0,-0.145521 -0.0525,-0.264583 -0.116676,-0.264583 -0.06417,0 -0.190262,0.119062 -0.280199,0.264583 -0.08994,0.145521 -0.03743,0.264583 0.116677,0.264583 0.154109,0 0.280198,-0.119062 0.280198,-0.264583 z m 7.21112,-1.256771 c -0.06819,-0.181901 0.0078,-0.330729 0.168906,-0.330729 0.16109,0 0.288672,-0.267891 0.283515,-0.595313 -0.0093,-0.587805 -0.01414,-0.586971 -0.387499,0.06615 -0.207968,0.363802 -0.373975,1.018646 -0.368903,1.455209 0.0077,0.662884 0.04374,0.706506 0.218593,0.264583 0.115155,-0.291042 0.153579,-0.677995 0.08539,-0.859896 z m -1.501679,-0.239384 c -0.154435,-0.402449 -0.217904,-0.415027 -0.423529,-0.08393 -0.149499,0.240723 -0.143434,0.423352 0.01588,0.478204 0.141764,0.04881 0.180013,0.227403 0.085,0.396875 -0.126891,0.226327 -0.08288,0.225049 0.165776,-0.0048 0.191953,-0.177445 0.259876,-0.517914 0.156874,-0.786335 z m 160.978055,0.321145 c 0,-0.06417 -0.119063,-0.190262 -0.264584,-0.280198 -0.145521,-0.08994 -0.264583,-0.03743 -0.264583,0.116676 0,0.154109 0.119062,0.280199 0.264583,0.280199 0.145521,0 0.264584,-0.05251 0.264584,-0.116677 z M -66.211902,68.604438 c -0.407098,-0.407098 -0.447272,-0.408513 -0.447272,-0.01575 0,0.237338 0.148828,0.484676 0.330729,0.549641 0.540597,0.19307 0.594871,-0.05556 0.116543,-0.533891 z M 66.426239,68.402851 c 0,-0.218281 -0.04679,-0.396875 -0.103984,-0.396875 -0.05719,0 -0.172517,0.178594 -0.256279,0.396875 -0.08376,0.218281 -0.03697,0.396875 0.103984,0.396875 0.140953,0 0.256279,-0.178594 0.256279,-0.396875 z M -63.086339,67.18194 c 0.121171,-0.491039 0.05377,-0.736614 -0.232316,-0.846394 -0.489993,-0.188028 -0.807595,0.633285 -0.553941,1.43248 0.205833,0.64852 0.54376,0.396625 0.786257,-0.586086 z M 67.40073,67.691783 c -0.08446,-0.211067 -0.147157,-0.148372 -0.159853,0.159853 -0.01149,0.278914 0.05105,0.435184 0.138965,0.347265 0.08792,-0.08792 0.09732,-0.316122 0.02089,-0.507118 z M -66.21385,67.162616 c -0.08446,-0.211066 -0.147157,-0.148372 -0.159852,0.159853 -0.01149,0.278915 0.05104,0.435184 0.138964,0.347265 0.08792,-0.08792 0.09732,-0.316121 0.02089,-0.507118 z m 6.169259,-0.726682 c 0,-0.118743 -0.297656,-0.215896 -0.661458,-0.215896 -0.755033,0 -0.894242,0.37136 -0.198437,0.529363 0.529722,0.120289 0.859895,-7.3e-5 0.859895,-0.313467 z m 118.818802,2.738618 c 0.0127,-0.308224 0.07539,-0.370919 0.159852,-0.159852 0.07643,0.190996 0.06703,0.419199 -0.02089,0.507118 -0.08792,0.08792 -0.150453,-0.06835 -0.138964,-0.347266 z M -70.350874,67.344517 c -0.0065,-1.190374 0.287202,-1.460392 1.535513,-1.411478 0.867163,0.03398 1.100894,0.138452 1.036055,0.463095 -0.05578,0.279295 -0.368526,0.418363 -0.937006,0.416659 -0.469303,-0.0014 -0.853278,0.06513 -0.853278,0.147868 0,0.08273 -0.174807,0.381541 -0.388461,0.664016 -0.369474,0.488489 -0.388673,0.474796 -0.392823,-0.28016 z"
       id="path3" /></g></svg>
