<?xml version="1.0" encoding="UTF-8" standalone="no"?>
<!-- Created with Inkscape (http://www.inkscape.org/) -->

<svg
   width="362.47916mm"
   height="155.04584mm"
   viewBox="0 0 362.47916 155.04584"
   version="1.1"
   id="svg1"
   xml:space="preserve"
   xmlns="http://www.w3.org/2000/svg"
   xmlns:svg="http://www.w3.org/2000/svg"><defs
     id="defs1" /><g
     id="layer1"
     transform="translate(72.087017,-65.19171)"><path
       style="fill:#000000"
       d="M -72.087017,142.71463 V 65.19171 H 109.15256 290.39213 v 77.52292 77.52292 H 109.15256 -72.087017 Z M 40.360897,195.6313 c 0,-0.14552 -0.05251,-0.26459 -0.116677,-0.26459 -0.06417,0 -0.190262,0.11907 -0.280198,0.26459 -0.08994,0.14552 -0.03743,0.26458 0.116676,0.26458 0.154109,0 0.280199,-0.11906 0.280199,-0.26458 z m -15.698611,-0.38524 c 0,-0.21188 -0.09922,-0.32391 -0.220486,-0.24897 -0.121268,0.075 -0.220486,0.24831 -0.220486,0.38524 0,0.13693 0.09922,0.24897 0.220486,0.24897 0.121267,0 0.220486,-0.17336 0.220486,-0.38524 z m 16.119483,-0.86958 c -0.183488,-0.18349 -0.685456,0.18932 -0.685456,0.50908 0,0.17544 0.151813,0.15537 0.403269,-0.0533 0.221798,-0.18407 0.348782,-0.38917 0.282187,-0.45576 z m 2.68247,-2.87378 c -0.08792,-0.0879 -0.316122,-0.0973 -0.507118,-0.0209 -0.211067,0.0845 -0.148373,0.14715 0.159852,0.15985 0.278915,0.0115 0.435184,-0.0511 0.347266,-0.13896 z m 1.262282,-1.95682 c 0.08994,-0.14552 0.03743,-0.26458 -0.116676,-0.26458 -0.154109,0 -0.280198,0.11906 -0.280198,0.26458 0,0.14552 0.0525,0.26458 0.116676,0.26458 0.06417,0 0.190262,-0.11906 0.280198,-0.26458 z m 6.779174,-13.40776 c -0.311903,-0.53637 -0.387221,-0.36469 -0.131904,0.30066 0.09074,0.23646 0.220714,0.37419 0.288836,0.30606 0.06812,-0.0681 -0.0025,-0.34114 -0.156932,-0.60672 z m -28.439712,-2.79797 c -0.0276,-0.1819 -0.14315,-0.47956 -0.256787,-0.66146 -0.140184,-0.22439 -0.03146,-0.33073 0.33817,-0.33073 0.299629,0 0.544781,-0.11906 0.544781,-0.26458 0,-0.34971 -0.274841,-0.3337 -1.135812,0.0661 -0.756571,0.35136 -1.011764,0.89761 -0.289937,0.62062 0.295665,-0.11346 0.382345,-0.049 0.282813,0.2104 -0.146823,0.38262 0.01805,0.69033 0.369872,0.69033 0.108391,0 0.174496,-0.14883 0.1469,-0.33073 z m 1.051213,-1.3672 c -0.06528,-0.15755 -0.128089,-0.0781 -0.139577,0.17658 -0.01149,0.25466 -0.139951,0.46302 -0.285472,0.46302 -0.145521,0 -0.26385,0.26789 -0.262953,0.59531 0.0015,0.5406 0.03862,0.52437 0.404161,-0.17658 0.221392,-0.42454 0.349121,-0.90079 0.283841,-1.05833 z m -2.277132,-0.44997 c 0,-0.14552 -0.119063,-0.19099 -0.264584,-0.10106 -0.14552,0.0899 -0.264583,0.28259 -0.264583,0.42811 0,0.14552 0.119063,0.191 0.264583,0.10106 0.145521,-0.0899 0.264584,-0.28259 0.264584,-0.42811 z m 1.852083,-0.0728 c 0,-0.0572 -0.184777,-0.17489 -0.410617,-0.26155 -0.235459,-0.0904 -0.341662,-0.046 -0.248968,0.10398 0.155378,0.25141 0.659585,0.37186 0.659585,0.15757 z m -2.910416,-2.00859 c 0,-0.11214 -0.20836,-0.36729 -0.463021,-0.56701 -0.408409,-0.3203 -0.424755,-0.31401 -0.138587,0.0533 0.256189,0.32881 0.256189,0.48515 0,0.74327 -0.256825,0.25877 -0.227945,0.29015 0.138587,0.15061 0.254661,-0.0969 0.463021,-0.26802 0.463021,-0.38015 z m -1.521355,0.0853 c -0.181901,-0.0734 -0.479557,-0.0734 -0.661458,0 -0.181901,0.0734 -0.03307,0.13345 0.330729,0.13345 0.363802,0 0.51263,-0.06 0.330729,-0.13345 z m -0.783233,-0.8831 c -0.07611,-0.29104 -0.184025,-0.52917 -0.239813,-0.52917 -0.05579,0 -0.101433,0.23813 -0.101433,0.52917 0,0.29104 0.107916,0.52916 0.239813,0.52916 0.131898,0 0.177542,-0.23812 0.101433,-0.52916 z m 53.990765,-2.76965 c 0.154973,-0.40386 -0.273057,-0.84209 -0.551004,-0.56414 -0.08733,0.0873 -0.0053,0.15879 0.182291,0.15879 0.273181,0 0.27551,0.079 0.0117,0.39687 -0.189852,0.22876 -0.215566,0.39688 -0.0607,0.39688 0.14777,0 0.335743,-0.17478 0.417717,-0.3884 z m -15.934597,-2.59258 c -0.261307,-0.25936 -0.291698,-0.22897 -0.148112,0.14812 0.09936,0.26093 0.247304,0.40778 0.328765,0.32632 0.08146,-0.0815 1.68e-4,-0.29496 -0.180653,-0.47444 z m 21.69675,-0.12788 c 0.329108,-0.41964 0.319749,-0.429 -0.0999,-0.0999 -0.254661,0.19972 -0.46302,0.40808 -0.46302,0.46302 0,0.21776 0.217272,0.0776 0.562915,-0.36313 z m 4.035955,-0.47676 c 0.09035,-0.23546 0.046,-0.34166 -0.103985,-0.24897 -0.143854,0.0889 -0.261552,0.27369 -0.261552,0.41062 0,0.38058 0.189644,0.29672 0.365537,-0.16165 z m -65.524693,-0.2784 c -0.08792,-0.0879 -0.316122,-0.0973 -0.507118,-0.0209 -0.211067,0.0845 -0.148372,0.14716 0.159852,0.15985 0.278915,0.0115 0.435184,-0.051 0.347266,-0.13896 z m 1.78742,-0.85842 c -0.199877,-0.19987 -0.657429,0.27866 -0.657429,0.68758 0,0.36115 0.06142,0.34783 0.375242,-0.0813 0.206384,-0.28225 0.333367,-0.55505 0.282187,-0.60624 z m -0.922012,-0.30465 c 0,-0.14552 -0.119063,-0.26458 -0.264584,-0.26458 -0.145521,0 -0.264583,0.11906 -0.264583,0.26458 0,0.14552 0.119062,0.26459 0.264583,0.26459 0.145521,0 0.264584,-0.11907 0.264584,-0.26459 z m 39.862727,-1.38906 c -0.0734,-0.1819 -0.133452,-0.0331 -0.133452,0.33073 0,0.3638 0.06005,0.51263 0.133452,0.33073 0.0734,-0.1819 0.0734,-0.47956 0,-0.66146 z m 30.781024,0.46302 c 0.22757,-0.2742 0.23758,-0.39687 0.0324,-0.39687 -0.16334,0 -0.29698,0.11033 -0.29698,0.24518 0,0.13485 -0.20836,0.29963 -0.46302,0.36618 -0.390651,0.10209 -0.395715,0.1258 -0.0324,0.15169 0.23684,0.0169 0.57884,-0.1479 0.76,-0.36618 z m 16.717248,-1.51253 c -0.18986,-0.18986 -0.31309,-0.20548 -0.31309,-0.0397 0,0.35316 0.3129,0.66606 0.48948,0.48948 0.0752,-0.0752 -0.004,-0.27759 -0.17639,-0.44979 z m 9.21191,-1.00101 c 0,-0.14552 -0.0525,-0.26458 -0.11668,-0.26458 -0.0642,0 -0.19026,0.11906 -0.2802,0.26458 -0.0899,0.14552 -0.0374,0.26458 0.11668,0.26458 0.15411,0 0.2802,-0.11906 0.2802,-0.26458 z m 13.90773,-0.99712 c -0.098,-0.098 -0.28894,-0.003 -0.42432,0.21103 -0.3953,0.62507 -0.29141,0.86105 0.17413,0.39551 0.2356,-0.2356 0.34819,-0.50855 0.25019,-0.60654 z m 27.63185,0.35128 c 0,-0.0642 -0.11906,-0.19026 -0.26458,-0.2802 -0.14552,-0.0899 -0.26459,-0.0374 -0.26459,0.11668 0,0.1541 0.11907,0.28019 0.26459,0.28019 0.14552,0 0.26458,-0.0525 0.26458,-0.11667 z m -75.903109,-2.17858 c -0.311903,-0.53636 -0.387221,-0.36469 -0.131904,0.30066 0.09074,0.23646 0.220714,0.37419 0.288836,0.30607 0.06812,-0.0681 -0.0025,-0.34115 -0.156932,-0.60673 z m 50.575429,-1.0729 c -0.10225,-0.26647 -0.22107,-0.27735 -0.50009,-0.0458 -0.48545,0.40289 -0.46222,0.47789 0.13412,0.43297 0.29738,-0.0224 0.44573,-0.17935 0.36597,-0.38719 z m 0.63759,-0.38561 c -0.0845,-0.21107 -0.14716,-0.14837 -0.15985,0.15985 -0.0115,0.27891 0.051,0.43518 0.13896,0.34727 0.0879,-0.0879 0.0973,-0.31613 0.0209,-0.50712 z m -51.855714,-0.67296 c -0.06708,-0.25743 -0.126381,-0.11087 -0.131774,0.32569 -0.0054,0.43656 0.04949,0.64719 0.12197,0.46806 0.07248,-0.17913 0.07689,-0.53632 0.0098,-0.79375 z m 0.526553,0.40837 c -0.08446,-0.21106 -0.147156,-0.14837 -0.159852,0.15986 -0.01149,0.27891 0.05105,0.43518 0.138964,0.34726 0.08792,-0.0879 0.09732,-0.31612 0.02089,-0.50712 z m 70.193111,-0.35366 c -0.18407,-0.22179 -0.40356,-0.33438 -0.48775,-0.25019 -0.0842,0.0842 0.0221,0.26383 0.23614,0.39921 0.56011,0.35423 0.6333,0.31089 0.25161,-0.14902 z m 1.19593,-0.12589 c 0.0899,-0.14552 -0.0221,-0.26459 -0.24897,-0.26459 -0.22687,0 -0.41249,0.11907 -0.41249,0.26459 0,0.14552 0.11204,0.26458 0.24897,0.26458 0.13694,0 0.32256,-0.11906 0.41249,-0.26458 z m -19.71146,-0.11668 c 0,-0.0642 -0.11906,-0.19026 -0.26458,-0.2802 -0.14552,-0.0899 -0.26458,-0.0374 -0.26458,0.11668 0,0.15411 0.11906,0.2802 0.26458,0.2802 0.14552,0 0.26458,-0.0525 0.26458,-0.11668 z m -69.993578,-0.65879 c 0.08372,-0.13547 0.05106,-0.30882 -0.07258,-0.38524 -0.123641,-0.0764 -0.224802,0.0344 -0.224802,0.2463 0,0.44614 0.08343,0.48511 0.297382,0.13894 z m 56.345288,-4.15675 c 0.13935,-0.36313 0.10063,-0.3795 -0.23627,-0.0999 -0.45912,0.38103 -0.5069,0.53419 -0.16666,0.53419 0.12995,0 0.31127,-0.19543 0.40293,-0.4343 z m -1.16837,-0.61573 c 0,-0.14095 -0.1786,-0.18775 -0.39688,-0.10398 -0.21828,0.0838 -0.39687,0.19908 -0.39687,0.25628 0,0.0572 0.17859,0.10398 0.39687,0.10398 0.21828,0 0.39688,-0.11533 0.39688,-0.25628 z m -53.710411,-0.83328 c 0,-0.14552 -0.119062,-0.191 -0.264583,-0.10107 -0.145521,0.0899 -0.264583,0.28259 -0.264583,0.42811 0,0.14552 0.119062,0.191 0.264583,0.10106 0.145521,-0.0899 0.264583,-0.28258 0.264583,-0.4281 z m 4.531666,-1.20272 c 0.32927,-0.39915 0.307622,-0.41061 -0.232187,-0.12298 -0.615674,0.32806 -0.767272,0.56318 -0.363126,0.56318 0.127703,0 0.395594,-0.19809 0.595313,-0.4402 z m 50.648195,-0.37661 c 0.0978,-0.1582 0.0612,-0.40419 -0.0812,-0.54665 -0.16897,-0.16896 -0.30872,-0.069 -0.40197,0.28764 -0.15023,0.57448 0.17913,0.75103 0.48321,0.25901 z M 62.502053,136.5796 c -0.08446,-0.21106 -0.147156,-0.14837 -0.159852,0.15986 -0.01149,0.27891 0.05105,0.43518 0.138964,0.34726 0.08792,-0.0879 0.09732,-0.31612 0.02089,-0.50712 z m 65.881247,0 c -0.0845,-0.21106 -0.14716,-0.14837 -0.15986,0.15986 -0.0115,0.27891 0.051,0.43518 0.13897,0.34726 0.0879,-0.0879 0.0973,-0.31612 0.0209,-0.50712 z m -65.245782,-0.77187 c -0.233086,-0.5827 -0.254847,-0.58934 -0.270268,-0.0825 -0.0092,0.30317 0.0626,0.63059 0.159618,0.7276 0.316012,0.31602 0.369759,0.003 0.11065,-0.64509 z m -13.968613,-1.29555 c 0.07616,-0.29124 0.03052,-0.46281 -0.101433,-0.38126 -0.13195,0.0815 -0.239909,0.31984 -0.239909,0.52953 0,0.54762 0.179784,0.46953 0.341342,-0.14827 z m 79.972855,-1.81156 c -0.35478,-0.34832 -0.42815,-0.35857 -0.36144,-0.0505 0.12303,0.5682 0.59421,1.06747 0.70972,0.75204 0.0533,-0.14548 -0.10346,-0.46117 -0.34828,-0.70154 z m -69.995447,-2.42141 c 0.155761,-0.29104 0.245941,-0.52916 0.200402,-0.52916 -0.04554,0 -0.286689,0.23812 -0.535886,0.52916 -0.249198,0.29104 -0.339379,0.52917 -0.200402,0.52917 0.138976,0 0.380125,-0.23813 0.535886,-0.52917 z m 71.882817,-1.37252 c -0.0845,-0.21107 -0.14716,-0.14838 -0.15985,0.15985 -0.0115,0.27891 0.051,0.43518 0.13896,0.34726 0.0879,-0.0879 0.0973,-0.31612 0.0209,-0.50711 z m -68.233855,-4.5806 c 0.0224,-0.85159 -0.07535,-1.45521 -0.235667,-1.45521 -0.155936,0 -0.20384,-0.25646 -0.1112,-0.59531 0.144043,-0.52687 0.12848,-0.54049 -0.135361,-0.11844 -0.221898,0.35495 -0.220251,0.57069 0.0064,0.84384 0.167507,0.20184 0.27802,0.70162 0.245584,1.11063 -0.06838,0.86232 -0.01695,1.6697 0.10637,1.6697 0.04705,0 0.102775,-0.65485 0.123833,-1.45521 z m -0.525061,-6.62159 c -0.08146,-0.0815 -0.229406,0.0654 -0.328765,0.32632 -0.143586,0.37709 -0.113195,0.40748 0.148112,0.14811 0.180821,-0.17947 0.262115,-0.39297 0.180653,-0.47443 z m -0.03274,-0.96865 c -0.08446,-0.21106 -0.147157,-0.14837 -0.159852,0.15986 -0.01149,0.27891 0.05104,0.43518 0.138964,0.34726 0.08792,-0.0879 0.09732,-0.31612 0.02089,-0.50712 z M 51.91872,96.09836 c -0.08446,-0.21107 -0.147156,-0.14838 -0.159852,0.15985 -0.01149,0.27891 0.05105,0.43518 0.138964,0.34726 0.08792,-0.0879 0.09732,-0.31612 0.02089,-0.50711 z M 72.588964,70.34409 c -0.08146,-0.0815 -0.229406,0.0654 -0.328766,0.32632 -0.143585,0.37708 -0.113194,0.40747 0.148113,0.14811 0.180821,-0.17948 0.262115,-0.39297 0.180653,-0.47443 z"
       id="path3" /></g></svg>
