<?xml version="1.0" encoding="UTF-8" standalone="no"?>
<!-- Created with Inkscape (http://www.inkscape.org/) -->

<svg
   width="362.47916mm"
   height="155.04584mm"
   viewBox="0 0 362.47916 155.04584"
   version="1.1"
   id="svg1"
   xml:space="preserve"
   xmlns="http://www.w3.org/2000/svg"
   xmlns:svg="http://www.w3.org/2000/svg"><defs
     id="defs1" /><g
     id="layer1"
     transform="translate(71.678866,-65.879212)"><path
       style="fill:#000000"
       d="m -71.67639,143.43611 0.0025,-77.522908 h 7.120017 c 5.437311,0 7.156494,0.0782 7.274358,0.33072 0.123473,0.26459 0.185209,0.26459 0.308681,0 0.226931,-0.48628 110.59921,-0.48628 110.795428,0 0.10671,0.26446 0.137638,0.26448 0.15434,8e-5 0.01667,-0.26395 23.903622,-0.33056 118.421926,-0.33022 l 118.40104,4.3e-4 v 77.522408 77.52241 H 109.56151 -71.678866 Z m 98.839264,61.08917 c 0.09999,-0.16179 0.01772,-0.39557 -0.182822,-0.51952 -0.412165,-0.25473 -0.373807,-0.44353 0.224401,-1.10454 0.485261,-0.53621 0.135649,-0.60104 -0.841162,-0.15597 -0.778465,0.35469 -0.85959,0.90131 -0.236025,1.59034 0.503318,0.55616 0.77802,0.60648 1.035608,0.18969 z m 4.97219,-1.16104 c -0.08376,-0.21829 -0.199088,-0.39688 -0.25628,-0.39688 -0.05719,0 -0.103984,0.17859 -0.103984,0.39688 0,0.21828 0.115326,0.39687 0.25628,0.39687 0.140953,0 0.187746,-0.17859 0.103984,-0.39687 z m -2.47693,-5.6665 c 0,-0.27891 0.142963,-0.55477 0.317697,-0.61301 0.197133,-0.0657 0.217441,-0.16787 0.05351,-0.26918 -0.374825,-0.23165 -0.798108,0.0995 -1.014838,0.794 -0.138303,0.44317 -0.0798,0.59531 0.228923,0.59531 0.232305,0 0.414705,-0.22304 0.414705,-0.50712 z m 9.921874,-0.022 c 0.08994,-0.14552 0.03743,-0.26458 -0.116676,-0.26458 -0.154109,0 -0.280199,0.11906 -0.280199,0.26458 0,0.14553 0.05251,0.26459 0.116677,0.26459 0.06417,0 0.190261,-0.11906 0.280198,-0.26459 z m 1.849526,-1.52576 c -0.0016,-0.52041 0.130206,-0.85549 0.336402,-0.85549 0.186427,0 0.47458,-0.29765 0.640339,-0.66145 0.165759,-0.36381 0.458118,-0.66146 0.649687,-0.66146 0.191568,0 0.548631,-0.32742 0.793474,-0.72761 0.244842,-0.40018 0.753603,-0.99713 1.130578,-1.32656 0.586761,-0.51275 0.628289,-0.6401 0.288536,-0.88485 -0.33606,-0.24209 -0.326542,-0.26331 0.06211,-0.1385 0.511866,0.16438 0.996223,-0.51775 0.996223,-1.40301 0,-0.3006 0.106155,-0.54656 0.2359,-0.54656 0.414273,0 0.620913,-1.38448 0.242464,-1.62449 -0.520429,-0.33007 -0.668098,-0.2778 -0.816293,0.28889 -0.07428,0.28407 0.0011,0.56236 0.167579,0.61843 0.487602,0.16426 -0.33595,0.98176 -0.989027,0.98176 -0.310979,0 -0.695058,0.20836 -0.853508,0.46302 -0.272651,0.4382 -0.284513,0.73675 -0.06545,1.64736 0.05773,0.24 -0.135794,0.42565 -0.50193,0.4815 -0.53139,0.0811 -1.417655,1.11228 -0.955936,1.11228 0.154778,0 -1.348282,1.50102 -2.844906,2.84104 -0.201171,0.18012 -0.593532,0.56572 -0.871914,0.85689 -0.503721,0.52686 -0.49928,0.52907 0.926042,0.46184 1.424567,-0.0672 1.432176,-0.0721 1.429632,-0.92303 z m -10.845359,0.20285 c 0.08994,-0.14552 0.03743,-0.26459 -0.116677,-0.26459 -0.154109,0 -0.280198,0.11907 -0.280198,0.26459 0,0.14552 0.05251,0.26458 0.116677,0.26458 0.06417,0 0.190261,-0.11906 0.280198,-0.26458 z m -5.423958,-0.41249 c 0,-0.22687 -0.119062,-0.33891 -0.264583,-0.24897 -0.145521,0.0899 -0.264584,0.27556 -0.264584,0.41249 0,0.13693 0.119063,0.24897 0.264584,0.24897 0.145521,0 0.264583,-0.18562 0.264583,-0.41249 z m 142.136843,-4.92942 c -0.38102,-0.38102 -1.11393,-0.51875 -1.11393,-0.20933 0,0.12252 0.26789,0.27436 0.59532,0.33743 0.32742,0.0631 0.64889,0.13088 0.71437,0.15069 0.0655,0.0198 -0.0226,-0.10564 -0.19576,-0.27879 z M 48.254724,187.14746 c 0.08722,0.23433 0.192006,0.18418 0.333303,-0.15951 0.139954,-0.34042 0.06819,-0.60211 -0.223638,-0.8155 -0.387881,-0.28362 -0.390304,-0.3705 -0.02489,-0.89221 0.22266,-0.31789 0.515753,-0.50943 0.651317,-0.42565 0.135564,0.0838 0.248303,-0.0631 0.250531,-0.3263 0.0028,-0.33347 0.06702,-0.3795 0.211667,-0.15177 0.123686,0.19473 0.207615,-0.0388 0.207615,-0.57767 0,-0.4975 -0.110133,-0.88272 -0.24474,-0.85604 -0.134606,0.0267 -0.30055,-0.10404 -0.368763,-0.29049 -0.06821,-0.18645 -0.02356,-0.31935 0.09922,-0.29533 0.122783,0.024 0.624741,-0.0496 1.115462,-0.16356 0.892219,-0.20723 0.892219,-0.20723 0.264583,-0.55519 -0.747471,-0.4144 -1.818261,-0.47454 -1.818261,-0.10213 0,0.14552 0.148828,0.26641 0.330729,0.26864 0.232426,0.003 0.243025,0.0618 0.03566,0.19843 -0.401926,0.26479 -0.717114,1.27139 -0.873508,2.78969 -0.01213,0.11773 -0.143053,0.13927 -0.290948,0.0479 -0.147894,-0.0914 -0.200399,-0.27702 -0.116677,-0.41249 0.08372,-0.13546 0.02613,-0.2463 -0.127975,-0.2463 -0.154109,0 -0.280199,0.30469 -0.280199,0.67708 0,0.37239 -0.106586,0.6112 -0.236859,0.53068 -0.130272,-0.0805 -0.305129,0.0315 -0.388571,0.24897 -0.08344,0.21745 -0.02365,0.39536 0.132875,0.39536 0.156523,0 0.214997,0.18135 0.129942,0.40299 -0.129696,0.33799 -0.05957,0.35411 0.434714,0.0999 0.486183,-0.25003 0.531459,-0.24184 0.258629,0.0468 -0.452555,0.47877 -0.419539,0.91172 0.04042,0.52999 0.285052,-0.23657 0.400655,-0.22874 0.498362,0.0337 z m 0.602712,-3.68171 c -0.143586,-0.37708 -0.113195,-0.40747 0.148112,-0.14811 0.180821,0.17947 0.262115,0.39297 0.180653,0.47443 -0.08146,0.0815 -0.229406,-0.0654 -0.328765,-0.32632 z m 150.659144,-0.68848 c 0.002,-0.11773 -0.11501,-0.14047 -0.26053,-0.0505 -0.14552,0.0899 -0.26276,0.36485 -0.26053,0.61092 0.003,0.38557 0.0395,0.39256 0.26053,0.0505 0.14106,-0.21828 0.2583,-0.49319 0.26053,-0.61092 z M 51.504336,180.85248 c -0.125015,-0.4981 -0.08463,-0.62989 0.148812,-0.48561 0.176216,0.10891 0.09169,-0.10742 -0.187832,-0.48072 -0.435281,-0.58131 -0.534037,-0.61604 -0.688066,-0.24199 -0.14984,0.36389 -0.18154,0.34847 -0.190023,-0.0924 -0.01096,-0.5698 0.669541,-1.62993 0.976566,-1.52136 0.102877,0.0364 0.226736,-0.0529 0.275243,-0.19844 0.04851,-0.14552 -0.131766,-0.26458 -0.400606,-0.26458 -0.319802,0 -0.652014,0.37674 -0.960871,1.08965 -0.259639,0.59931 -0.408639,1.15308 -0.331111,1.23061 0.07753,0.0775 -0.06555,0.3104 -0.317948,0.51749 -0.424946,0.34866 -0.416317,0.3675 0.116608,0.25454 0.436356,-0.0925 0.537524,-0.023 0.418394,0.28748 -0.12085,0.31493 -0.02466,0.37481 0.41667,0.2594 0.315587,-0.0825 0.573794,-0.0421 0.573794,0.0898 0,0.13189 0.07244,0.23981 0.160975,0.23981 0.08854,0 0.08376,-0.30763 -0.01061,-0.68363 z m 1.046337,-3.73506 c 0.243753,-0.33335 0.253675,-0.57055 0.03829,-0.91544 -0.266134,-0.42615 -0.32991,-0.43003 -0.75434,-0.0459 -0.351275,0.3179 -0.399318,0.53975 -0.19825,0.91545 0.327627,0.61217 0.494134,0.62054 0.914301,0.0459 z m -28.417457,-2.79121 c 0.01723,-0.1819 0.01723,-0.42002 0,-0.52916 -0.01723,-0.10914 0.08773,-0.19844 0.233251,-0.19844 0.145521,0 0.264583,-0.30616 0.264583,-0.68036 0,-0.74475 -0.643215,-1.56057 -1.038021,-1.31657 -0.136582,0.0844 -0.327519,0.0254 -0.424305,-0.13125 -0.113518,-0.18368 -0.308046,-0.11478 -0.548098,0.19412 -0.293337,0.37747 -0.340758,0.38805 -0.223977,0.05 0.08643,-0.25022 -0.02351,-0.49474 -0.263934,-0.58701 -0.226645,-0.087 -0.412081,-0.3344 -0.412081,-0.54984 0,-0.21544 -0.426237,-0.71682 -0.947194,-1.11417 -0.761292,-0.58067 -0.991544,-0.6507 -1.173167,-0.35683 -0.124285,0.2011 -0.172356,0.45239 -0.106824,0.55842 0.06553,0.10603 0.02286,0.2523 -0.09483,0.32503 -0.117686,0.0727 -0.231123,-0.0954 -0.252081,-0.37362 -0.02096,-0.27823 -0.221305,-0.83553 -0.445216,-1.23844 -0.22391,-0.40292 -0.483489,-0.94093 -0.576843,-1.1956 -0.324553,-0.88535 -0.848603,-0.31908 -0.653586,0.70625 0.02544,0.13377 -0.13905,0.0894 -0.365543,-0.0985 -0.226492,-0.18798 -0.428018,-0.59508 -0.447835,-0.90469 -0.03285,-0.51318 -0.04646,-0.50803 -0.154087,0.0583 -0.126747,0.66695 0.797228,1.89234 1.426864,1.89234 0.192915,0 0.350755,0.11906 0.350755,0.26458 0,0.14552 -0.252704,0.26459 -0.561564,0.26459 -0.476518,0 -0.510168,0.0619 -0.222193,0.40891 0.186653,0.22491 0.491196,0.35066 0.676761,0.27945 0.185565,-0.0712 0.377043,-0.0105 0.425506,0.13488 0.04846,0.14539 0.699299,0.28753 1.4463,0.31586 0.747001,0.0283 1.310094,0.10139 1.251317,0.16234 -0.05878,0.0609 0.06784,0.30387 0.281366,0.53981 0.341356,0.3772 0.340546,0.52091 -0.0067,1.19024 -0.217217,0.41869 -0.34153,0.89015 -0.27625,1.04769 0.06528,0.15754 0.128089,0.0781 0.139577,-0.17658 0.01149,-0.25466 0.143688,-0.46302 0.293776,-0.46302 0.150088,0 0.350183,0.20836 0.444656,0.46302 0.377602,1.01787 1.886266,1.83265 1.959622,1.05833 z m 29.417163,-0.57886 c 0.535905,0.20565 1.149993,-0.61233 0.755707,-1.00662 -0.430105,-0.43011 -0.381145,-1.39645 0.09059,-1.78795 0.218281,-0.18116 0.396875,-0.61246 0.396875,-0.95844 0,-0.34599 0.115325,-0.62906 0.256279,-0.62906 0.140954,0 0.187747,-0.1786 0.103984,-0.39688 -0.09703,-0.25287 0.0044,-0.39687 0.279502,-0.39687 0.268769,0 0.49215,-0.30177 0.591648,-0.79926 0.08792,-0.43959 0.265478,-0.86454 0.394576,-0.94432 0.129099,-0.0798 0.16232,-0.26223 0.07382,-0.40541 -0.0885,-0.14319 0.102012,-0.48837 0.423351,-0.76707 0.44214,-0.38346 0.542005,-0.67504 0.410564,-1.19875 -0.112873,-0.44972 -0.07733,-0.63248 0.101499,-0.52196 0.151353,0.0936 0.288922,-0.0453 0.305708,-0.30856 0.05586,-0.87606 0.09989,-1.0072 0.366355,-1.09134 0.453867,-0.1433 0.840281,-1.11867 0.788438,-1.99012 -0.02732,-0.45922 0.09951,-0.95442 0.281833,-1.10043 0.182328,-0.14602 0.410858,-0.56315 0.507845,-0.92695 0.135062,-0.50663 0.111298,-0.56856 -0.101524,-0.26458 -0.232334,0.33184 -0.278528,0.30655 -0.281915,-0.15434 -0.0023,-0.31178 -0.176446,-0.55122 -0.400927,-0.55122 -0.453924,0 -0.526818,0.32943 -0.127502,0.57623 0.168734,0.10428 0.09048,0.43138 -0.209451,0.87551 -0.816681,1.20931 -2.72455,6.35133 -2.709588,7.30277 0.0021,0.13407 -0.204527,0.48196 -0.459188,0.77309 -0.254661,0.29113 -0.314193,0.44231 -0.132292,0.33595 0.392641,-0.22959 0.424722,0.0767 0.06615,0.63159 -0.170987,0.26458 -0.257831,0.28663 -0.260532,0.0661 -0.0022,-0.18191 -0.123114,-0.33073 -0.268634,-0.33073 -0.145521,0 -0.264584,0.29765 -0.264584,0.66146 0,0.48506 -0.141111,0.66145 -0.529166,0.66145 -0.473922,0 -0.529167,0.17639 -0.529167,1.68955 0,0.98413 -0.165024,2.00597 -0.395245,2.4474 -0.217385,0.41681 -0.388432,0.93644 -0.380104,1.15472 0.0086,0.22626 0.117307,0.14285 0.252797,-0.19403 0.139355,-0.34649 0.388482,-0.53303 0.602298,-0.45098 z m 167.588601,-2.45628 c -0.30565,-0.30566 -0.45168,-0.34277 -0.45168,-0.11479 0,0.18529 -0.11906,0.26331 -0.26458,0.17337 -0.40837,-0.25238 -0.31323,0.0459 0.16819,0.52728 0.30776,0.30776 0.51468,0.35089 0.71627,0.1493 0.20159,-0.20159 0.153,-0.41397 -0.1682,-0.73516 z m -0.31939,0.45546 c -0.0899,-0.14552 -0.0374,-0.26459 0.11668,-0.26459 0.15411,0 0.2802,0.11907 0.2802,0.26459 0,0.14552 -0.0525,0.26458 -0.11668,0.26458 -0.0642,0 -0.19026,-0.11906 -0.2802,-0.26458 z m -169.277493,-0.4929 c 0.26033,-0.27109 0.642554,-0.54578 0.849387,-0.61042 0.522951,-0.16343 0.555778,-1.24218 0.04247,-1.39565 -0.230192,-0.0688 -0.929901,-0.18358 -1.554911,-0.25501 -1.13638,-0.12988 -1.13638,-0.12988 -1.024807,0.84903 0.219912,1.92944 0.7584,2.37994 1.687861,1.41205 z m 115.567083,0.22831 c -0.0899,-0.14552 -0.30533,-0.26276 -0.47864,-0.26053 -0.18934,0.002 -0.15671,0.10642 0.0818,0.26053 0.5083,0.32849 0.59989,0.32849 0.39688,0 z m 25.18386,-0.57877 c -0.0845,-0.21107 -0.14716,-0.14837 -0.15985,0.15985 -0.0115,0.27891 0.051,0.43518 0.13896,0.34727 0.0879,-0.0879 0.0973,-0.31613 0.0209,-0.50712 z m 15.52522,-0.57418 c -0.0202,-0.239 0.0691,-0.43455 0.19844,-0.43455 0.12935,0 0.23518,-0.18562 0.23518,-0.41249 0,-0.62482 -0.44095,-0.22124 -0.76082,0.69635 -0.21818,0.62587 -0.20891,0.78756 0.0401,0.69961 0.17812,-0.0629 0.30732,-0.30992 0.28711,-0.54892 z m -143.499711,0.0946 c 0,-0.14552 0.20836,-0.27398 0.463021,-0.28547 0.254662,-0.0115 0.33498,-0.074 0.178486,-0.13894 -0.156495,-0.0649 -0.692276,0.0589 -1.190625,0.27511 -0.893286,0.38761 -0.895808,0.39332 -0.178486,0.40353 0.400182,0.006 0.727604,-0.10871 0.727604,-0.25423 z m 2.762549,-0.14071 c 0.585972,-0.4432 1.051715,-0.51607 0.811199,-0.1269 -0.08891,0.14385 0.0027,0.19847 0.203638,0.12138 0.222454,-0.0854 0.353413,-0.498 0.334921,-1.05531 -0.01798,-0.54178 0.09647,-0.91513 0.280516,-0.91513 0.170985,0 0.294344,0.19555 0.274133,0.43455 -0.02021,0.239 0.112081,0.48704 0.293982,0.55121 0.181901,0.0642 0.330729,-0.0454 0.330729,-0.24345 0,-0.67364 0.901978,-1.15268 2.157558,-1.14586 0.677335,0.004 1.176324,-0.0826 1.108865,-0.19176 -0.06746,-0.10914 -0.0093,-0.19844 0.129238,-0.19844 0.413901,0 0.60498,-0.83339 0.280673,-1.22416 -0.165849,-0.19983 -0.73345,-0.35957 -1.261335,-0.35498 l -0.959791,0.008 0.727604,0.6404 c 0.400182,0.35223 0.727604,0.6945 0.727604,0.76062 0,0.28052 -1.034218,-0.17952 -1.164018,-0.51778 -0.07826,-0.20394 -0.331648,-0.3708 -0.563084,-0.3708 -0.231437,0 -0.35492,0.10659 -0.274407,0.23686 0.08051,0.13027 -0.04478,0.31022 -0.278427,0.39987 -0.303524,0.11648 -0.381003,0.0488 -0.271368,-0.23685 0.171734,-0.44754 -0.04552,-0.50661 -0.591447,-0.16083 -0.203651,0.12899 -0.27663,0.37334 -0.165304,0.55346 0.142387,0.23039 0.0444,0.27334 -0.343029,0.15038 -0.419145,-0.13303 -0.622016,-0.006 -0.89303,0.55922 -0.192872,0.40225 -0.590088,0.85391 -0.882701,1.00369 -0.292613,0.14978 -0.523433,0.45092 -0.512934,0.6692 0.0105,0.21828 -0.09209,0.5457 -0.227977,0.7276 -0.33445,0.44771 0.09597,0.40364 0.728192,-0.0746 z m -3.291715,-0.76369 c 0,-0.20638 0.07418,-0.59333 0.164846,-0.8599 0.102716,-0.30199 -0.0138,-0.23535 -0.30914,0.1768 -0.260694,0.3638 -0.510591,0.70819 -0.555328,0.76531 -0.04474,0.0571 -0.262812,-0.0468 -0.484609,-0.23084 -0.24063,-0.1997 -0.403269,-0.2238 -0.403269,-0.0598 0,0.3112 0.441009,0.53189 1.124479,0.56273 0.254661,0.0115 0.463021,-0.14797 0.463021,-0.35435 z m -10.390408,-1.6367 c -0.08792,-0.0879 -0.316122,-0.0973 -0.507118,-0.0209 -0.211067,0.0845 -0.148372,0.14716 0.159852,0.15985 0.278915,0.0115 0.435185,-0.051 0.347266,-0.13896 z m 22.974371,-1.37474 c 0.282101,-0.26195 0.89613,-0.70213 1.364509,-0.97818 0.944263,-0.55653 1.391513,-1.25401 0.656282,-1.02346 -0.308883,0.0969 -0.254101,-0.0315 0.175078,-0.41035 0.366501,-0.32349 0.478845,-0.55132 0.271857,-0.55132 -0.194021,0 -0.08815,-0.18534 0.235272,-0.41187 0.726061,-0.50856 0.746314,-0.80794 0.06668,-0.98566 -0.379896,-0.0993 -0.898052,0.25123 -1.909668,1.29205 -0.763571,0.78562 -1.47273,1.4284 -1.575909,1.4284 -0.103179,0 -0.241384,-0.20836 -0.307121,-0.46302 -0.06574,-0.25466 -0.108486,0.0938 -0.09499,0.77432 0.0154,0.77684 0.126516,1.17644 0.29856,1.07369 0.150718,-0.09 0.110625,0.0378 -0.08909,0.28401 -0.309206,0.38119 -0.306793,0.44767 0.01626,0.44767 0.208659,0 0.610191,-0.21433 0.892292,-0.47628 z m -0.148547,-0.99455 c 0,-0.22687 0.121005,-0.3377 0.268899,-0.2463 0.147895,0.0914 0.200399,0.27703 0.116677,0.41249 -0.226812,0.36699 -0.385576,0.29856 -0.385576,-0.16619 z m -58.353412,0.41249 c 0.199811,0 0.402024,-0.46251 0.49045,-1.12177 0.09173,-0.68392 0.367063,-1.29717 0.705389,-1.57113 0.431366,-0.3493 0.53192,-0.67362 0.451599,-1.45657 -0.0725,-0.70676 0.02344,-1.10377 0.321636,-1.33088 0.373389,-0.28437 0.350163,-0.32467 -0.191371,-0.33207 -0.546125,-0.007 -0.596475,-0.0988 -0.441998,-0.80216 0.224191,-1.02074 0.01563,-1.01257 -0.499263,0.0196 -0.250298,0.50174 -0.345678,1.13523 -0.248974,1.65365 0.173161,0.9283 -0.299386,0.72554 -0.508051,-0.21799 -0.117027,-0.52917 -0.117027,-0.52917 -0.311019,0 -0.106696,0.29104 -0.388963,0.88635 -0.62726,1.32291 -0.456124,0.83563 -0.890305,3.62917 -0.529388,3.40611 0.115728,-0.0715 0.210414,-0.4277 0.210414,-0.7915 0,-0.3638 0.108893,-0.59416 0.241985,-0.5119 0.133092,0.0823 0.301127,-2e-5 0.373412,-0.18283 0.07228,-0.18281 0.08141,0.32247 0.02027,1.12283 -0.06113,0.80037 -0.04065,1.30638 0.04551,1.12448 0.08616,-0.1819 0.309659,-0.33073 0.496653,-0.33073 z m 65.232578,-0.80936 c 0,-0.15411 -0.139295,-0.19411 -0.309546,-0.0889 -0.207133,0.12802 -0.254537,0.048 -0.143281,-0.24197 0.09145,-0.23831 0.01008,-0.52573 -0.180823,-0.63872 -0.190899,-0.11299 -0.41468,-0.38403 -0.49729,-0.60231 -0.107649,-0.28444 -0.156117,-0.2449 -0.171088,0.13957 -0.02319,0.59548 0.663298,1.71252 1.052448,1.71252 0.137269,0 0.24958,-0.12609 0.24958,-0.2802 z m 0.008,-1.67043 c 0.0044,0.12696 0.129932,0.0215 0.278903,-0.23428 0.148972,-0.25582 0.197856,-0.58324 0.108631,-0.72761 -0.08922,-0.14436 0.103757,-0.26248 0.428848,-0.26248 0.582475,0 0.583665,-0.007 0.08176,-0.4933 -0.498503,-0.48282 -0.514338,-0.47721 -0.746026,0.26458 -0.130192,0.41684 -0.398082,0.75788 -0.595312,0.75788 -0.19723,0 -0.358601,0.25271 -0.358601,0.56157 0,0.46917 0.0653,0.50737 0.396875,0.23218 0.218282,-0.18115 0.400496,-0.2255 0.404921,-0.0985 z m 4.357579,-0.69521 c 0.08994,-0.14552 0.03743,-0.26458 -0.116676,-0.26458 -0.15411,0 -0.280199,0.11906 -0.280199,0.26458 0,0.14552 0.0525,0.26459 0.116677,0.26459 0.06417,0 0.190261,-0.11907 0.280198,-0.26459 z m -0.05295,-0.62646 c 0.232782,-0.0342 0.67111,-0.37724 0.974063,-0.76238 0.544955,-0.6928 0.545282,-0.70322 0.03069,-0.97862 -0.816676,-0.43707 -1.294434,-0.32409 -0.687213,0.16251 0.415138,0.33268 0.431217,0.39037 0.07462,0.26773 -0.250001,-0.086 -0.526119,-0.0405 -0.613595,0.10101 -0.08748,0.14154 -0.269883,0.18884 -0.405348,0.10512 -0.135466,-0.0837 -0.246301,0.0334 -0.246301,0.26027 0,0.22687 -0.119063,0.41249 -0.264584,0.41249 -0.381881,0 -0.326145,0.72831 0.06615,0.86432 0.181901,0.0631 0.402179,0.006 0.489507,-0.12783 0.08733,-0.13338 0.349237,-0.27046 0.582018,-0.30462 z m 18.176916,-2.28395 c -0.1691,-0.31597 -0.36559,-0.51636 -0.43664,-0.4453 -0.0711,0.071 0.0234,0.37349 0.20986,0.67208 0.44094,0.70606 0.62664,0.52036 0.22678,-0.22678 z m 3.70417,-0.0791 c 1.27154,-0.403 1.39206,-0.54417 0.78714,-0.92195 -0.37271,-0.23276 -0.52256,-0.24054 -0.52256,-0.0271 0,0.21031 -0.11693,0.20218 -0.3935,-0.0274 -0.4422,-0.36699 -1.31795,-0.15283 -1.06286,0.25992 0.0906,0.14655 0.0316,0.26645 -0.13114,0.26645 -0.1627,0 -0.21928,0.12383 -0.12574,0.27519 0.11137,0.18019 -0.0795,0.21254 -0.55301,0.0937 -0.48137,-0.12081 -0.66512,-0.0877 -0.54969,0.0991 0.0954,0.15432 0.0238,0.34639 -0.15897,0.42683 -0.55128,0.24257 1.71514,-0.12934 2.71033,-0.44475 z m -29.63334,0.0985 c 0,-0.13485 0.20836,-0.29964 0.463021,-0.36619 0.29852,-0.078 0.216029,-0.1319 -0.232187,-0.15169 -0.382364,-0.0169 -0.843426,0.1479 -1.024584,0.36618 -0.275184,0.33158 -0.236982,0.39688 0.232187,0.39688 0.30886,0 0.561563,-0.11033 0.561563,-0.24518 z m 48.40995,-0.99269 c 0.0176,0.43412 0.78103,-0.56864 0.95222,-1.25069 0.19745,-0.78671 1.0629,-1.41437 1.23564,-0.89614 0.0638,0.1915 0.17488,0.13335 0.2829,-0.14815 0.10632,-0.27707 0.0727,-0.39839 -0.0837,-0.30174 -0.29552,0.18265 -0.33954,-0.15222 -0.10153,-0.77246 0.088,-0.22935 0.24491,-0.36452 0.34868,-0.30039 0.10376,0.0641 0.35918,-0.13171 0.56759,-0.4352 0.2084,-0.3035 0.64671,-0.87973 0.97401,-1.28053 0.51393,-0.62935 0.53804,-0.75061 0.17679,-0.88923 -0.68136,-0.26147 -1.16876,-0.18434 -1.16876,0.18495 0,0.19001 -0.2937,0.74357 -0.65266,1.23012 -0.35897,0.48655 -0.59007,0.98593 -0.51356,1.10973 0.0765,0.12381 -0.0592,0.2251 -0.30168,0.2251 -0.26662,0 -0.38529,0.14464 -0.30033,0.36605 0.087,0.22669 -0.20368,0.55139 -0.76346,0.85286 -0.49717,0.26774 -0.89072,0.60903 -0.87457,0.75842 0.0752,0.6957 -0.0828,0.96502 -0.70542,1.20172 -0.57735,0.2195 -0.63118,0.332 -0.38183,0.79793 0.28927,0.54051 0.29203,0.54029 0.7956,-0.0636 0.27792,-0.33332 0.50927,-0.50824 0.51411,-0.3887 z m -106.882865,0.0472 c 0,-0.21828 0.121615,-0.39687 0.270256,-0.39687 0.14864,0 0.392937,-0.26926 0.542881,-0.59835 0.149945,-0.32909 0.623642,-0.7998 1.052661,-1.04603 0.733585,-0.42102 0.780268,-0.42084 0.783936,0.003 0.0041,0.46964 0.427744,-0.13638 1.072211,-1.53366 0.284792,-0.61746 0.317787,-0.62721 0.496077,-0.14646 0.182815,0.49295 0.19739,0.49053 0.340421,-0.0564 0.161805,-0.61874 -0.122014,-0.95245 -1.052714,-1.23778 -0.475863,-0.14588 -0.595312,-0.0793 -0.595312,0.3321 0,0.56781 -0.608628,1.20549 -0.885918,0.9282 -0.09667,-0.0967 -0.532203,0.22346 -0.967843,0.71141 -0.43564,0.48794 -0.792073,0.80586 -0.792073,0.70647 0,-0.0994 -0.429789,0.29501 -0.955088,0.87646 -0.572474,0.63366 -0.893782,1.21693 -0.802054,1.45597 0.202816,0.52853 1.492559,0.53019 1.492559,0.002 z m 94.087415,-0.2768 c -0.33074,-0.24184 -0.46901,-0.70011 -0.46901,-1.55442 0,-0.66632 -0.10914,-1.21148 -0.24253,-1.21148 -0.23386,0 -0.2644,0.14255 -0.34015,1.5875 -0.0191,0.3638 -0.20799,0.77037 -0.41982,0.90349 -0.32013,0.20118 -0.2978,0.27324 0.13229,0.42693 0.28459,0.10169 0.80786,0.18625 1.16283,0.18791 0.59326,0.003 0.60751,-0.0247 0.17639,-0.33993 z m 40.5855,-0.65329 c 0.35278,-0.23158 0.35278,-0.28948 0,-0.52106 -0.26539,-0.17422 -0.2873,-0.26188 -0.0661,-0.26459 0.1819,-0.002 0.33073,-0.2502 0.33073,-0.55104 0,-0.43731 -0.11274,-0.51122 -0.5622,-0.36856 -0.3494,0.11089 -0.65929,0.0425 -0.81871,-0.18061 -0.19542,-0.27354 -0.22104,-0.24877 -0.10756,0.10398 0.0819,0.25466 0.0336,0.46302 -0.10734,0.46302 -0.42921,0 -0.28588,0.84523 0.20674,1.21918 0.55985,0.42499 0.62072,0.43038 1.12448,0.0997 z m -8.46666,-0.50306 c 0,-0.1334 -0.14883,-0.29445 -0.33073,-0.3579 -0.46266,-0.16139 -1.0189,0.0786 -0.84276,0.36357 0.19248,0.31144 1.17349,0.3067 1.17349,-0.006 z m 9.525,-0.0221 c 0,-0.14552 -0.12609,-0.26459 -0.2802,-0.26459 -0.15411,0 -0.20661,0.11907 -0.11668,0.26459 0.0899,0.14552 0.21603,0.26458 0.2802,0.26458 0.0642,0 0.11668,-0.11906 0.11668,-0.26458 z m -55.55144,-0.54984 c 0.30913,-0.57761 0.17647,-1.30225 -0.2384,-1.30225 -0.13417,0 -0.29259,0.41672 -0.35205,0.92604 -0.12106,1.03697 0.14581,1.20701 0.59045,0.37621 z m -17.562305,-0.95001 c -0.207724,-0.20773 -0.969595,0.24807 -0.969595,0.58006 0,0.57585 0.647048,0.61088 0.86558,0.0469 0.112267,-0.28976 0.159074,-0.57187 0.104015,-0.62693 z m -2.732815,-0.023 c 0.07367,0.18271 0.139124,0.0345 0.145456,-0.32926 0.0063,-0.3638 -0.154205,-0.95911 -0.356749,-1.32291 -0.329563,-0.59195 -0.312585,-0.72109 0.161566,-1.22886 0.34352,-0.36788 0.429792,-0.62923 0.245345,-0.74322 -0.156465,-0.0967 -0.286304,-0.49622 -0.288533,-0.88781 -0.0029,-0.50164 -0.07144,-0.60563 -0.232154,-0.35197 -0.125456,0.19801 -0.16618,0.61473 -0.0905,0.92604 0.12308,0.50628 0.04984,0.484 -0.693888,-0.21108 -0.45732,-0.42741 -0.831491,-0.63577 -0.831491,-0.46302 0,0.17274 -0.119063,0.31408 -0.264584,0.31408 -0.145521,0 -0.264583,-0.13945 -0.264583,-0.30989 0,-0.36931 -0.781561,-1.27761 -1.099341,-1.27761 -0.122966,0 -0.223576,0.1786 -0.223576,0.39688 0,0.22048 0.235185,0.39687 0.529167,0.39687 0.294548,0 0.529167,0.17639 0.529167,0.39784 0,0.21881 0.238125,0.84212 0.529166,1.38514 0.291042,0.54302 0.529167,1.26399 0.529167,1.60216 0,0.33816 0.09355,0.55703 0.207887,0.48636 0.114338,-0.0707 0.2334,0.1009 0.264583,0.38126 0.03118,0.28036 0.08221,0.75912 0.113393,1.06391 0.0567,0.55416 0.0567,0.55416 0.506626,-0.001 0.313743,-0.38745 0.490473,-0.45508 0.583874,-0.22343 z m 39.59864,0.3322 c 0,-0.21838 -0.23426,-0.39687 -0.52086,-0.39687 -0.35429,0 -0.47216,0.12692 -0.36857,0.39687 0.0838,0.21828 0.31815,0.39688 0.52086,0.39688 0.20272,0 0.36857,-0.1786 0.36857,-0.39688 z m -59.795794,-0.82195 c 0,-0.79976 -0.47445,-0.82304 -0.77121,-0.0378 -0.273753,0.72433 -0.136119,1.01916 0.382808,0.82003 0.213621,-0.082 0.388402,-0.43396 0.388402,-0.7822 z m 57.943754,0.52917 c 0,-0.0572 -0.1786,-0.10398 -0.39688,-0.10398 -0.21828,0 -0.39687,0.11532 -0.39687,0.25628 0,0.14095 0.17859,0.18774 0.39687,0.10398 0.21828,-0.0838 0.39688,-0.19909 0.39688,-0.25628 z m 21.69583,-0.66555 c 0,-0.66112 -0.0709,-0.76728 -0.35507,-0.53146 -0.19529,0.16208 -0.43971,0.21005 -0.54315,0.10661 -0.10345,-0.10344 -0.10569,0.0266 -0.005,0.28906 0.14404,0.37537 0.23081,0.40187 0.4068,0.12423 0.16046,-0.25312 0.22486,-0.18458 0.22777,0.2424 0.002,0.32742 0.0636,0.59531 0.13634,0.59531 0.0728,0 0.13229,-0.37177 0.13229,-0.82615 z m -17.74215,-1.05727 c 0.22657,-0.0172 0.52009,-0.0109 0.65228,0.014 0.28404,0.0535 0.6759,-0.50603 0.68165,-0.97338 0.003,-0.23236 -0.28802,-0.28307 -0.98813,-0.17227 -0.54571,0.0864 -1.06727,0.20301 -1.15904,0.25923 -0.26562,0.16273 -0.44437,1.43295 -0.20164,1.43295 0.12078,0 0.18731,0.14883 0.14786,0.33073 -0.0395,0.1819 0.0468,0.0628 0.19167,-0.26458 0.14487,-0.32742 0.44878,-0.60941 0.67535,-0.62665 z m 34.96983,0.48444 c -0.21607,-0.21608 -0.29435,-0.18647 -0.29435,0.11134 0,0.52595 0.35579,0.88174 0.48728,0.48728 0.0558,-0.16735 -0.031,-0.43673 -0.19293,-0.59862 z m -18.40946,-0.68981 c -0.0934,-0.29443 0.019,-0.67936 0.27246,-0.93284 0.44359,-0.44359 0.35024,-1.2117 -0.14726,-1.2117 -0.47161,0 -0.80773,1.25629 -0.53092,1.98437 0.2917,0.76722 0.64233,0.90565 0.40572,0.16017 z m 17.28829,0.10441 c 0.0801,-0.32031 -0.33203,-0.22759 -0.44097,0.0992 -0.0667,0.20009 -0.002,0.28939 0.14331,0.19844 0.14553,-0.0909 0.27947,-0.22489 0.29766,-0.29766 z m -72.065886,-0.39687 c 0.402801,-0.44509 0.414219,-0.52917 0.07187,-0.52917 -0.223863,0 -0.469295,0.23813 -0.545404,0.52917 -0.07611,0.29104 -0.108449,0.52917 -0.07187,0.52917 0.03658,0 0.282015,-0.23813 0.545404,-0.52917 z m 3.670159,0.13229 c -0.0187,-0.14552 0.255527,-0.60867 0.609403,-1.02923 0.353877,-0.42056 0.577539,-0.93631 0.497029,-1.14612 -0.08051,-0.20981 -0.146383,-0.48026 -0.146383,-0.601 0,-0.12074 -0.208359,-0.18895 -0.463021,-0.15158 -0.254661,0.0374 -0.463021,0.19552 -0.463021,0.35142 0,0.51521 -0.421375,0.71586 -0.671793,0.31989 -0.193207,-0.30551 -0.247017,-0.25735 -0.250197,0.22393 -0.0033,0.50417 -0.103991,0.58142 -0.566352,0.43468 -0.37839,-0.1201 -0.503088,-0.0827 -0.38126,0.11446 0.09957,0.16111 0.02519,0.30233 -0.165304,0.31381 -0.284823,0.0172 -0.284723,0.0456 5.6e-4,0.15974 0.269563,0.10789 0.245673,0.2507 -0.107153,0.64057 -0.431068,0.47632 -0.427868,0.50172 0.0632,0.50172 0.284491,0 0.667186,-0.14883 0.850432,-0.33073 0.267211,-0.26525 0.296507,-0.23444 0.147967,0.15558 -0.152186,0.39959 -0.07242,0.47036 0.447345,0.39687 0.347905,-0.0492 0.617251,-0.20849 0.598547,-0.35401 z m -1.022453,-0.92301 c -0.09269,-0.14998 0.01351,-0.19434 0.248968,-0.10398 0.458369,0.17589 0.542234,0.36553 0.161649,0.36553 -0.136933,0 -0.32171,-0.1177 -0.410617,-0.26155 z m 63.95184,1.09298 c 0.10402,-0.0207 0.32265,-0.28715 0.48583,-0.59207 0.5251,-0.98115 -1.11889,-2.06511 -1.83089,-1.2072 -0.16208,0.19529 -0.21511,0.43465 -0.11786,0.5319 0.0973,0.0973 -0.041,0.33613 -0.3073,0.53083 -0.9012,0.65898 0.0898,1.07131 1.77022,0.73654 z M 28.79406,152.34323 c -0.01626,-0.46053 0.03293,-1.01592 0.109308,-1.2342 0.07638,-0.21828 0.08893,-0.30758 0.0279,-0.19844 -0.06104,0.10914 -0.385973,0.19844 -0.722079,0.19844 -0.662726,0 -1.134983,0.76954 -0.654494,1.0665 0.198123,0.12245 0.157417,0.23585 -0.123331,0.34358 -0.557429,0.21391 -0.53316,0.88102 0.0438,1.2039 0.670857,0.37543 1.355582,-0.3409 1.318905,-1.37978 z m 73.79494,1.01457 c 0.021,-0.3637 -0.0683,-0.66127 -0.19844,-0.66127 -0.13012,0 -0.23659,0.29765 -0.23659,0.66145 0,0.86198 0.38529,0.86182 0.43503,-1.8e-4 z m -41.005405,0.0173 c -0.08015,-0.20888 -0.02303,-0.42068 0.126947,-0.47068 0.167913,-0.056 0.201126,-0.47231 0.08644,-1.08362 -0.169261,-0.90224 -0.218823,-0.94978 -0.543714,-0.52151 -0.373585,0.49245 -0.502307,1.97481 -0.197917,2.2792 0.320437,0.32044 0.676625,0.18329 0.52824,-0.20339 z m 83.697455,-0.67855 c 0,-0.14552 -0.11906,-0.26459 -0.26458,-0.26459 -0.14552,0 -0.26459,0.11907 -0.26459,0.26459 0,0.14552 0.11907,0.26458 0.26459,0.26458 0.14552,0 0.26458,-0.11906 0.26458,-0.26458 z m -31.98175,-0.59973 c -0.26131,-0.25936 -0.2917,-0.22897 -0.14811,0.14812 0.0994,0.26093 0.2473,0.40778 0.32876,0.32632 0.0815,-0.0815 1.7e-4,-0.29496 -0.18065,-0.47444 z m -21.042254,-0.38957 c -0.08396,-0.084 -0.0049,-0.33474 0.175777,-0.55727 0.272854,-0.33614 0.255534,-0.37734 -0.102346,-0.24346 -0.236929,0.0886 -0.581875,0.0216 -0.766545,-0.1489 -0.264941,-0.24465 -0.298369,-0.20449 -0.158476,0.19039 0.150345,0.42439 0.116052,0.44962 -0.225642,0.16604 -0.287919,-0.23895 -0.402932,-0.2472 -0.402932,-0.0289 0,0.16802 0.26789,0.41318 0.595312,0.54479 0.479415,0.1927 0.50213,0.24255 0.116677,0.25606 -0.26325,0.009 -0.404852,0.13615 -0.314672,0.28207 0.108352,0.17531 0.345681,0.16804 0.699734,-0.0214 0.294673,-0.15771 0.467074,-0.35543 0.383113,-0.43939 z m -66.011032,-0.14743 c -0.339589,-0.33959 -0.683962,-0.0771 -0.432551,0.32967 0.09739,0.15758 0.298278,0.21159 0.446423,0.12003 0.180712,-0.11168 0.176146,-0.25968 -0.01387,-0.4497 z m 77.207746,-0.4882 c 0.15614,0.25263 0.25781,0.18033 0.37463,-0.26639 0.0882,-0.33722 0.0739,-0.69951 -0.0316,-0.8051 -0.35365,-0.35365 -0.83967,0.20035 -0.98439,1.12205 -0.13041,0.8306 -0.11762,0.85384 0.1419,0.2578 0.21043,-0.48331 0.34142,-0.56417 0.49951,-0.30836 z m -69.848925,-0.39669 c 0.265506,-0.22897 -0.943583,-0.0602 -1.300868,0.1816 -0.28984,0.19614 -0.182805,0.22069 0.396875,0.091 0.436562,-0.0976 0.843359,-0.22033 0.903993,-0.27262 z m 60.879775,-0.218 c -0.156456,-0.4115 -0.15404,-0.71011 0.0065,-0.80936 0.590984,-0.36525 -0.185244,-1.83349 -0.836389,-1.58204 -0.505295,0.19513 -0.503004,1.97168 0.0033,2.563 0.625911,0.73102 1.129924,0.62638 0.826536,-0.1716 z m 20.36936,0.53542 c 0,-0.0642 -0.11906,-0.19026 -0.26458,-0.2802 -0.14553,-0.0899 -0.26459,-0.0374 -0.26459,0.11668 0,0.15411 0.11906,0.2802 0.26459,0.2802 0.14552,0 0.26458,-0.0525 0.26458,-0.11668 z m 22.71627,-0.11889 c 0.22519,-0.14268 0.25874,-0.2894 0.09,-0.39368 -0.33164,-0.20496 -1.11046,0.0706 -1.11046,0.39297 0,0.29832 0.55014,0.29871 1.02044,7.1e-4 z m -20.5534,-0.62433 c 0.18117,-0.32742 0.29646,-0.75609 0.25619,-0.95259 -0.0403,-0.19651 0.0408,-0.28683 0.18013,-0.20071 0.13934,0.0861 0.44496,-0.13588 0.67916,-0.49331 0.59492,-0.90797 0.51613,-1.19496 -0.11877,-0.43257 -0.61933,0.74369 -0.86653,0.59794 -0.86653,-0.51092 0,-0.51847 -0.0769,-0.68296 -0.21643,-0.46302 -0.16789,0.26463 -0.21822,0.25213 -0.22439,-0.0557 -0.005,-0.22684 -0.15785,-0.11347 -0.35782,0.26458 -0.23549,0.4452 -0.26463,0.77229 -0.0891,1.00046 0.18314,0.23811 0.11815,0.44326 -0.21839,0.68934 -0.45656,0.33385 -0.40751,1.2689 0.0625,1.19174 0.52715,-0.0865 0.69742,0.0612 0.33809,0.29346 -0.24931,0.16112 -0.27737,0.25799 -0.0755,0.26053 0.17678,0.002 0.46966,-0.26384 0.65083,-0.59126 z m 11.59141,-0.44744 c -0.0227,-0.82947 -1.05428,-0.9436 -1.05428,-0.11664 0,0.21828 0.10796,0.33015 0.23991,0.2486 0.13195,-0.0816 0.18264,0.11978 0.11265,0.44741 -0.12406,0.58073 -0.11681,0.58279 0.28926,0.0821 0.22908,-0.28247 0.41469,-0.58013 0.41246,-0.66145 z m -66.197857,0.18286 c 0.150317,-0.1819 0.360382,-0.80698 0.466812,-1.38907 0.106429,-0.58208 0.355209,-1.29318 0.552843,-1.58022 0.471436,-0.68471 0.456093,-1.02706 -0.03754,-0.83764 -0.286728,0.11003 -0.396875,-0.029 -0.396875,-0.50086 0,-0.47676 -0.142905,-0.65315 -0.529167,-0.65315 -0.366346,0 -0.529167,0.17639 -0.529167,0.57326 0,0.3153 0.07753,0.49574 0.172277,0.40099 0.09475,-0.0948 0.320786,0.0308 0.502298,0.27906 0.272241,0.37231 0.241129,0.56434 -0.177697,1.09679 -0.298958,0.38007 -0.48481,0.98565 -0.452001,1.47281 0.03065,0.45505 -0.03347,0.97167 -0.142485,1.14805 -0.261524,0.42316 0.219723,0.4147 0.570702,-0.01 z m 28.805146,-0.0527 c -0.09466,-0.24669 -0.01996,-0.33461 0.209513,-0.24655 0.196151,0.0753 0.436439,0.008 0.533974,-0.15008 0.09753,-0.15782 0.279945,-0.22352 0.405356,-0.14602 0.24073,0.14878 0.664731,-0.3495 0.466273,-0.54796 -0.152124,-0.15212 -1.821415,0.41386 -2.277862,0.77233 -0.29009,0.22782 -0.265482,0.31565 0.132292,0.47218 0.69075,0.27182 0.693514,0.27102 0.530454,-0.1539 z m 68.798331,-0.45996 c -0.0845,-0.21107 -0.14715,-0.14838 -0.15985,0.15985 -0.0115,0.27891 0.0511,0.43518 0.13897,0.34726 0.0879,-0.0879 0.0973,-0.31612 0.0209,-0.50711 z m -63.659099,-0.21495 c 0.133619,0 0.242944,-0.16867 0.242944,-0.37482 0,-0.20616 0.148828,-0.43488 0.330729,-0.50828 0.20931,-0.0845 0.171535,-0.14112 -0.102893,-0.15434 -0.240385,-0.0116 -0.417247,-0.22271 -0.396875,-0.47377 0.02021,-0.24909 -0.185713,-0.49866 -0.457608,-0.55461 -0.308356,-0.0634 -0.426917,0.007 -0.315114,0.1883 0.09858,0.15951 0.06494,0.29002 -0.07477,0.29002 -0.139705,0 -0.242095,0.42037 -0.227531,0.93414 0.01927,0.67982 0.126081,0.89592 0.392327,0.79375 0.201216,-0.0772 0.475172,-0.14039 0.608791,-0.14039 z m 64.286659,-1.81876 c -0.17219,-0.52765 -0.3456,-1.19103 -0.38536,-1.47419 -0.0398,-0.28315 -0.22646,-0.56621 -0.41489,-0.62902 -0.25791,-0.086 -0.29724,0.10667 -0.15914,0.77941 0.10089,0.49148 0.20593,1.25079 0.23341,1.68735 0.0648,1.02849 0.49116,1.55456 0.8091,0.99821 0.13751,-0.24063 0.10409,-0.78807 -0.0831,-1.36176 z m -85.276527,1.22345 c -0.03769,-0.18843 0.259017,-0.36792 0.689614,-0.41717 0.489226,-0.056 0.693668,0.014 0.579698,0.19844 -0.09684,0.15668 -0.057,0.28488 0.08852,0.28488 0.599606,0 0.543034,-0.54843 -0.08614,-0.8351 -0.372007,-0.1695 -0.676377,-0.40813 -0.676377,-0.53029 0,-0.33057 -1.262818,-0.26882 -1.473491,0.072 -0.09999,0.16179 -0.01772,0.39557 0.182823,0.51952 0.200544,0.12394 0.379509,0.34875 0.397699,0.49958 0.05423,0.44965 0.09254,0.53882 0.23151,0.53882 0.07276,0 0.102526,-0.14883 0.06615,-0.33073 z m 53.270607,-1.20494 c -0.15828,-0.0528 -0.28779,-0.33264 -0.28779,-0.62194 0,-0.46758 -0.0441,-0.48192 -0.39688,-0.12915 -0.47611,0.47612 -0.52695,1.25523 -0.0758,1.16228 0.17658,-0.0364 0.44447,0.21027 0.59532,0.54812 0.27398,0.61362 0.27436,0.61349 0.36362,-0.12456 0.0491,-0.40635 -0.0401,-0.78198 -0.19844,-0.83475 z m -49.500294,1.17119 c 0,-0.0549 -0.20836,-0.2633 -0.463021,-0.46302 -0.419644,-0.32911 -0.429003,-0.31975 -0.09989,0.0999 0.345644,0.44072 0.562916,0.58088 0.562916,0.36312 z m 20.204013,-0.29698 c 0.181149,-0.47207 -0.129876,-0.52143 -0.562099,-0.0892 -0.233835,0.23384 -0.373402,0.13478 -0.581587,-0.41279 -0.282309,-0.74253 -0.804546,-0.74625 -0.695747,-0.005 0.123555,0.84184 1.559105,1.23748 1.839433,0.50696 z m 66.108661,-0.0969 c -0.10437,-0.272 -0.19064,-0.3005 -0.26195,-0.0865 -0.0585,0.17545 -0.23363,0.24033 -0.3892,0.14418 -0.15558,-0.0961 -0.21018,-0.0572 -0.12133,0.0866 0.26796,0.43358 0.94565,0.30709 0.77248,-0.14418 z m -9.60852,-0.7906 c -0.39103,-0.13439 -0.58967,0.13817 -0.36528,0.50123 0.14225,0.23017 0.24952,0.21762 0.41489,-0.0485 0.131,-0.21085 0.11053,-0.39764 -0.0496,-0.45269 z m 8.34887,-0.0717 c -0.13224,-0.41666 -0.0909,-0.50821 0.15943,-0.35348 0.24342,0.15045 0.28833,0.0797 0.16064,-0.25308 -0.0975,-0.25406 -0.17726,-0.55851 -0.17726,-0.67656 0,-0.11805 -0.16402,-0.27757 -0.36448,-0.3545 -0.3892,-0.14935 -0.40944,0.83633 -0.0357,1.7369 0.27154,0.65424 0.47195,0.57693 0.25733,-0.0993 z m -93.255108,-0.65664 c 0,-0.0572 -0.245151,-0.10398 -0.544781,-0.10398 -0.29963,0 -0.474411,0.11386 -0.388402,0.25303 0.141185,0.22844 0.933183,0.10195 0.933183,-0.14905 z m -10.27812,-0.84009 c -0.16968,-0.0566 -0.24121,-0.21173 -0.158955,-0.34482 0.08226,-0.13309 -0.03607,-0.24199 -0.262934,-0.24199 -0.488301,0 -0.548193,0.8168 -0.09325,1.27174 0.249263,0.24926 0.374521,0.22046 0.571445,-0.13143 0.171833,-0.30705 0.15389,-0.48344 -0.0563,-0.5535 z m 5.746688,0.20694 c 0.105746,0 0.330095,0.13783 0.498552,0.30629 0.230785,0.23078 0.396579,0.23135 0.672574,0.002 0.201457,-0.16719 0.428393,-0.24188 0.5043,-0.16597 0.07591,0.0759 0.158889,-0.34185 0.184402,-0.92834 0.07899,-1.8158 0.131714,-2.12468 0.362666,-2.12468 0.122926,0 0.149917,-0.11907 0.05998,-0.26459 -0.323802,-0.52392 -0.859896,-0.25773 -0.859896,0.42697 0,0.38035 -0.122576,0.7673 -0.27239,0.85989 -0.149815,0.0926 -0.310412,0.28741 -0.356882,0.43293 -0.24898,0.77969 -0.942461,1.19063 -2.009216,1.19063 -1.396778,0 -1.473806,0.39442 -0.139637,0.71501 0.750832,0.18042 1.012998,0.15464 1.077734,-0.106 0.04705,-0.18944 0.172066,-0.34443 0.277813,-0.34443 z m 53.33612,0.51147 c -0.10472,-0.16944 0.0212,-0.24876 0.31512,-0.19843 0.36661,0.0628 0.51119,-0.10501 0.57563,-0.66806 0.0742,-0.64815 0.0223,-0.71619 -0.3763,-0.49314 -0.33592,0.18798 -0.71324,0.11785 -1.37962,-0.25643 -0.64665,-0.3632 -1.00006,-0.43237 -1.19796,-0.23446 -0.19791,0.1979 -0.17145,0.28072 0.0897,0.28072 0.26614,0 0.28965,0.0808 0.0835,0.28689 -0.1578,0.1578 -0.228,0.51214 -0.15601,0.78743 0.10462,0.40004 0.23128,0.44681 0.63086,0.23297 0.27498,-0.14717 0.50178,-0.17409 0.50401,-0.0598 0.002,0.11426 0.13252,0.0292 0.28954,-0.18913 0.2456,-0.34141 0.26606,-0.33578 0.14647,0.0403 -0.14591,0.45884 0.0157,0.75347 0.4134,0.75347 0.12986,0 0.1576,-0.12702 0.0616,-0.28228 z m 9.07431,-1.70209 c -0.0695,-0.3638 -0.0239,-0.66146 0.10145,-0.66146 0.12534,0 0.24573,0.32742 0.26753,0.7276 0.0394,0.72279 0.0403,0.72315 0.14465,0.0541 0.0577,-0.37045 -0.0616,-0.99458 -0.26512,-1.38697 -0.37013,-0.71342 -0.37013,-0.71342 -0.87225,-0.14769 -0.36145,0.40722 -0.40947,0.59813 -0.1714,0.6814 0.1819,0.0636 0.33073,0.40342 0.33073,0.7551 0,0.35167 0.13294,0.63941 0.29543,0.63941 0.17245,0 0.24279,-0.27534 0.16898,-0.66146 z m 17.62821,0.25084 c 0.0904,-0.23546 0.046,-0.34166 -0.10399,-0.24897 -0.14385,0.0889 -0.26155,0.27369 -0.26155,0.41062 0,0.38058 0.18965,0.29672 0.36554,-0.16165 z m -82.919592,-0.63788 c -0.01147,-0.40235 -0.503142,-0.8484 -0.760117,-0.68958 -0.493015,0.3047 -0.328719,0.91404 0.235002,0.87158 0.291041,-0.0219 0.527343,-0.10382 0.525115,-0.182 z m 92.343632,-1.20046 c 0,-0.21828 -0.11906,-0.39688 -0.26458,-0.39688 -0.14552,0 -0.26458,0.1786 -0.26458,0.39688 0,0.21828 0.11906,0.39687 0.26458,0.39687 0.14552,0 0.26458,-0.17859 0.26458,-0.39687 z m -84.014914,-1.45467 c -0.09108,-0.3635 -0.203858,-0.69918 -0.250623,-0.74594 -0.159746,-0.15975 -2.253211,0.564 -2.253211,0.77898 0,0.11792 0.163717,0.15157 0.363815,0.0748 0.203523,-0.0781 0.640667,0.20596 0.992187,0.64473 0.569387,0.71071 0.660527,0.74322 0.970901,0.34635 0.198822,-0.25424 0.273052,-0.71528 0.176931,-1.09891 z m -7.920994,-4.0819 c 0.0693,-2.86815 0.24483,-5.43683 0.390055,-5.70818 0.145224,-0.27136 0.505212,-0.56992 0.799973,-0.66347 0.511893,-0.16247 0.499233,-0.21643 -0.282281,-1.20317 -0.81821,-1.03308 -0.81821,-1.03308 -1.574883,-0.47365 -0.416169,0.30769 -0.94386,0.4876 -1.172646,0.39981 -0.228786,-0.0878 -0.415974,-0.0592 -0.415974,0.0636 0,0.12277 0.351002,0.29341 0.780004,0.37921 0.640794,0.12816 0.811637,0.32462 0.957243,1.10077 0.09748,0.51962 0.106644,1.29774 0.02036,1.72915 -0.09363,0.46814 -0.04568,0.78439 0.11892,0.78439 0.346703,0 0.03807,1.03362 -0.456227,1.52792 -0.338907,0.3389 -0.508093,1.17675 -0.359307,1.77937 0.03593,0.14553 0.09692,1.03849 0.135534,1.98438 0.08738,2.14045 0.497109,3.95081 0.820881,3.62704 0.06178,-0.0618 0.169041,-2.45901 0.238347,-5.32715 z m 92.321488,3.00474 c -0.24881,-0.40257 -0.64633,-0.2796 -0.48184,0.14906 0.0834,0.21744 0.26024,0.32828 0.39289,0.2463 0.13264,-0.082 0.17267,-0.25989 0.0889,-0.39536 z m -27.4899,-0.43369 c -0.0841,-0.21914 -0.0265,-0.86779 0.12796,-1.44145 0.31834,-1.18224 0.13509,-2.07532 -0.42584,-2.07532 -0.29455,0 -0.37905,0.43253 -0.37905,1.94027 0,1.06716 0.0761,2.01642 0.1692,2.10948 0.28793,0.28792 0.66917,-0.11227 0.50773,-0.53298 z m 28.42724,0.20301 c 0,-0.13694 -0.11906,-0.32256 -0.26458,-0.41249 -0.14552,-0.0899 -0.26459,0.0221 -0.26459,0.24897 0,0.22687 0.11907,0.41249 0.26459,0.41249 0.14552,0 0.26458,-0.11204 0.26458,-0.24897 z M 45.533133,139.58404 c 0,-0.2097 0.148828,-0.37709 0.330729,-0.37199 0.633617,0.0178 3.352297,-1.46671 3.247663,-1.77331 -0.05797,-0.16986 0.05831,-0.37166 0.25839,-0.44844 0.40305,-0.15466 0.497008,-2.28544 0.100778,-2.28544 -0.128366,0 -0.233393,0.30139 -0.233393,0.66976 0,0.8288 -0.743726,1.17678 -1.195269,0.55926 -0.458743,-0.62737 -1.250272,-0.28175 -1.044243,0.45596 0.118755,0.42522 0.09311,0.47052 -0.104241,0.18412 -0.21605,-0.31354 -0.334054,-0.31986 -0.675877,-0.0362 -0.22777,0.18903 -0.350401,0.44681 -0.272513,0.57283 0.181304,0.29336 -0.349638,1.29841 -0.685916,1.29841 -0.37395,0 -0.311848,-0.72683 0.07546,-0.88311 0.239536,-0.0966 0.243672,-0.13921 0.015,-0.15434 -0.40305,-0.0267 -1.233324,1.13846 -0.892282,1.25214 0.159103,0.053 0.164947,0.32322 0.01549,0.71631 -0.191892,0.50472 -0.162734,0.60153 0.145544,0.48323 0.212031,-0.0814 0.385511,-0.009 0.385511,0.16057 0,0.16968 0.119063,0.23492 0.264584,0.14499 0.145521,-0.0899 0.264583,-0.33509 0.264583,-0.54478 z m 28.529148,-0.24578 c 0.596616,-0.62909 0.619678,-1.72298 0.03633,-1.72298 -0.131148,0 -0.169917,0.17859 -0.08615,0.39687 0.249408,0.64995 -0.110397,1.30398 -0.527107,0.95814 -0.418309,-0.34717 -0.700129,-0.12933 -0.700129,0.54117 0,0.67241 0.545239,0.59847 1.277065,-0.1732 z m 56.841919,-0.46621 c -0.0734,-0.1819 -0.13346,-0.0331 -0.13346,0.33073 0,0.3638 0.0601,0.51263 0.13346,0.33073 0.0734,-0.18191 0.0734,-0.47956 0,-0.66146 z m -56.120192,-1.54747 c -0.214819,-0.49496 -0.39524,-0.75885 -0.400936,-0.58642 -0.01555,0.47088 0.51457,1.7633 0.662566,1.6153 0.07092,-0.0709 -0.04681,-0.53391 -0.26163,-1.02888 z m 56.396672,-1.62445 c -0.0633,-0.32912 -0.11747,-0.12215 -0.12041,0.45994 -0.003,0.58208 0.0488,0.85136 0.11507,0.59839 0.0662,-0.25296 0.0686,-0.72921 0.005,-1.05833 z m -77.97463,0.21699 c 0,-0.20638 0.07758,-0.57741 0.17241,-0.82453 0.148858,-0.38791 0.09464,-0.40767 -0.396875,-0.14462 -0.646657,0.34608 -0.774685,1.34439 -0.17241,1.34439 0.218281,0 0.396875,-0.16886 0.396875,-0.37524 z m 96.93124,-1.15821 c 0.15379,-0.9477 -0.15352,-1.64521 -0.72145,-1.6375 -0.16408,0.002 -0.11974,0.13092 0.0985,0.28598 0.30384,0.21584 0.2211,0.24342 -0.35289,0.11764 -0.48288,-0.10581 -0.6899,-0.0674 -0.58157,0.10786 0.10366,0.16773 -0.007,0.20494 -0.28835,0.097 -0.33951,-0.13028 -0.41617,-0.0699 -0.299,0.23538 0.0866,0.22581 0.0528,0.51529 -0.0752,0.64328 -0.13389,0.13389 0.0107,0.5277 0.34056,0.92741 0.7774,0.94206 1.65955,0.57733 1.87933,-0.77701 z m -73.760415,-0.43852 c -0.09835,-0.52423 -0.27466,-0.89392 -0.391807,-0.82152 -0.117147,0.0724 -0.161754,-0.1364 -0.09913,-0.46401 0.08832,-0.462 -0.01557,-0.60541 -0.462987,-0.63911 -0.540555,-0.0407 -0.565295,0.0347 -0.393159,1.19897 0.199297,1.34795 0.858633,2.34609 1.274822,1.9299 0.13809,-0.13809 0.170606,-0.67999 0.07226,-1.20423 z m 53.735495,-0.478 c 0.0307,-0.39877 -0.0647,-0.72503 -0.2119,-0.72503 -0.34615,0 -1.02359,-0.6776 -1.02359,-1.02382 0,-0.14733 -0.12885,-0.34751 -0.28635,-0.44484 -0.46947,-0.29016 -0.20553,2.34041 0.273,2.7208 0.63615,0.5057 1.18734,0.27305 1.24884,-0.52711 z m -71.988782,-0.12902 c -0.272179,-0.27218 0.926374,-2.18362 1.371693,-2.18756 0.251704,-0.002 0.628581,-0.11222 0.837505,-0.24442 0.319316,-0.20205 0.323212,-0.30863 0.02444,-0.66862 -0.24658,-0.29711 -0.439876,-0.3438 -0.631216,-0.15246 -0.151688,0.15169 -0.47688,0.2758 -0.722649,0.2758 -0.263183,0 -0.431747,0.19031 -0.410104,0.46302 0.02093,0.26367 -0.118444,0.43028 -0.323712,0.38696 -0.435469,-0.0919 -1.074695,0.69239 -1.086334,1.33283 -0.0046,0.25466 -0.134504,0.46302 -0.288613,0.46302 -0.154109,0 -0.206613,-0.11906 -0.116677,-0.26458 0.08994,-0.14552 0.03743,-0.26458 -0.116676,-0.26458 -0.51147,0 -0.28977,0.66384 0.315114,0.94355 0.56491,0.26123 1.428935,0.19875 1.147226,-0.083 z m 73.516632,-3.33096 c 0.11623,-1.23049 0.0825,-1.75426 -0.10561,-1.63803 -0.15206,0.094 -0.27648,0.9576 -0.27648,1.91915 0,2.19191 0.15957,2.07452 0.38209,-0.28112 z m -63.617504,1.14745 c -0.363802,-0.11651 -0.51263,-0.22371 -0.330729,-0.23821 0.376167,-0.03 0.460742,-0.82012 0.08778,-0.82012 -0.133619,0 -0.415628,-0.0663 -0.626686,-0.14726 -0.488777,-0.18756 -0.834984,0.9673 -0.377193,1.25822 0.17643,0.11212 0.677969,0.1938 1.114531,0.18153 0.777834,-0.0219 0.780487,-0.0266 0.132292,-0.23416 z m 4.233333,-0.26458 c -0.363802,-0.28457 -0.899583,-0.50624 -1.190625,-0.4926 -0.470623,0.0221 -0.475791,0.0386 -0.04672,0.14955 0.283669,0.0734 0.423358,0.27873 0.339033,0.49848 -0.105467,0.27484 0.08192,0.37218 0.708177,0.36785 0.851592,-0.006 0.851592,-0.006 0.190135,-0.52328 z m 57.675121,-0.52917 c 0.22304,0.33976 0.26111,0.33024 0.26458,-0.0661 0.002,-0.25466 -0.16462,-0.46302 -0.37077,-0.46302 -0.20616,0 -0.42705,-0.14883 -0.49088,-0.33073 -0.0638,-0.1819 -0.11839,0.009 -0.12126,0.42513 -0.004,0.52787 0.0646,0.64757 0.22628,0.39687 0.19196,-0.29765 0.27602,-0.29118 0.49205,0.0379 z m -66.419683,-2.84427 c -0.0073,-0.5457 -0.157103,-2.37429 -0.332847,-4.06353 -0.175744,-1.68924 -0.258572,-3.99092 -0.184061,-5.11485 0.09661,-1.45727 0.04029,-2.1225 -0.19632,-2.31886 -0.257758,-0.21392 -0.331793,-0.006 -0.331793,0.93204 0,0.66407 -0.104846,1.2722 -0.232992,1.3514 -0.382449,0.23637 -0.526055,1.53174 -0.250002,2.25509 0.14165,0.37117 0.300147,1.24193 0.352216,1.93502 0.05207,0.69309 0.233522,1.92901 0.40323,2.74649 0.232221,1.1186 0.233338,1.53281 0.0045,1.67423 -0.227767,0.14077 -0.223616,0.36443 0.01655,0.89153 0.452771,0.99373 0.767092,0.87303 0.751507,-0.28856 z m 5.762487,0.83233 c -0.08792,-0.0879 -0.316121,-0.0973 -0.507118,-0.0209 -0.211066,0.0845 -0.148372,0.14715 0.159853,0.15985 0.278915,0.0115 0.435184,-0.0511 0.347265,-0.13897 z m 62.429486,-0.94809 c -0.0845,-0.21106 -0.14716,-0.14837 -0.15985,0.15986 -0.0115,0.27891 0.051,0.43518 0.13896,0.34726 0.0879,-0.0879 0.0973,-0.31612 0.0209,-0.50712 z M 103.423,125.19189 c -0.17763,-0.28442 -0.3742,-0.46589 -0.43682,-0.40327 -0.1134,0.1134 0.46321,0.92041 0.65764,0.92041 0.0562,0 -0.0432,-0.23271 -0.22082,-0.51714 z M 62.995633,114.18404 c 0,-1.56204 -0.379706,-1.76375 -0.599275,-0.31836 -0.1174,0.77283 0.15316,1.78918 0.476292,1.78918 0.06764,0 0.122983,-0.66187 0.122983,-1.47082 z m 0.403203,-2.25329 c 0.09585,-0.30201 0.0974,-0.62598 0.0034,-0.71994 -0.198295,-0.19829 -0.661231,0.45278 -0.667179,0.93832 -0.0066,0.53623 0.474464,0.37796 0.663735,-0.21838 z m 0.731793,-2.09672 c -0.07611,-0.29105 -0.184025,-0.52917 -0.239813,-0.52917 -0.05579,0 -0.101433,0.23812 -0.101433,0.52917 0,0.29104 0.107916,0.52916 0.239813,0.52916 0.131897,0 0.177542,-0.23812 0.101433,-0.52916 z m 6.983244,-1.63711 c -0.08446,-0.21107 -0.147157,-0.14838 -0.159852,0.15985 -0.01149,0.27891 0.05104,0.43518 0.138964,0.34726 0.08792,-0.0879 0.09732,-0.31612 0.02089,-0.50711 z m -0.709907,-0.0827 c 0,-0.21828 -0.193173,-0.39687 -0.429272,-0.39687 -0.351576,0 -0.369656,0.0718 -0.09989,0.39687 0.181157,0.21828 0.37433,0.39688 0.429272,0.39688 0.05494,0 0.0999,-0.1786 0.0999,-0.39688 z m -18.123958,-0.92604 c 0.08994,-0.14552 0.03743,-0.26458 -0.116677,-0.26458 -0.154109,0 -0.280198,0.11906 -0.280198,0.26458 0,0.14552 0.0525,0.26459 0.116677,0.26459 0.06417,0 0.190261,-0.11907 0.280198,-0.26459 z m 21.828124,-1.5875 c 0,-0.14552 -0.119062,-0.26458 -0.264583,-0.26458 -0.145521,0 -0.264583,0.11906 -0.264583,0.26458 0,0.14552 0.119062,0.26459 0.264583,0.26459 0.145521,0 0.264583,-0.11907 0.264583,-0.26459 z m -20.456759,-1.63711 c -0.08446,-0.21106 -0.147156,-0.14837 -0.159852,0.15985 -0.01149,0.27892 0.05105,0.43519 0.138964,0.34727 0.08792,-0.0879 0.09732,-0.31612 0.02089,-0.50712 z m 1.142177,-1.28892 c 0,-0.13693 -0.119063,-0.24897 -0.264584,-0.24897 -0.145521,0 -0.264583,0.18562 -0.264583,0.41249 0,0.22687 0.119062,0.33891 0.264583,0.24897 0.145521,-0.0899 0.264584,-0.27556 0.264584,-0.41249 z m -0.264584,-1.71979 c 0,-0.22687 -0.121004,-0.33771 -0.268899,-0.2463 -0.147895,0.0914 -0.200399,0.27702 -0.116677,0.41249 0.226812,0.36699 0.385576,0.29856 0.385576,-0.16619 z m 19.248437,-1.302468 c 0,-0.36646 -0.10418,-0.66629 -0.23151,-0.66629 -0.127331,0 -0.231511,0.36422 -0.231511,0.80937 0,0.445148 0.10418,0.744968 0.231511,0.666278 0.12733,-0.0787 0.23151,-0.44291 0.23151,-0.809358 z M 52.4123,97.190732 c 0,-0.56067 -0.126639,-0.73706 -0.529167,-0.73706 -0.637934,0 -0.638331,0.003 -0.101862,0.82196 0.544461,0.83095 0.631029,0.8193 0.631029,-0.0849 z m 2.56199,-1.95839 c -0.08446,-0.21107 -0.147157,-0.14838 -0.159852,0.15985 -0.01149,0.27891 0.05105,0.43518 0.138964,0.34726 0.08792,-0.0879 0.09732,-0.31612 0.02089,-0.50711 z m -1.76824,-0.75976 c 0,-0.13693 -0.119063,-0.24897 -0.264584,-0.24897 -0.145521,0 -0.264583,0.18562 -0.264583,0.41249 0,0.22687 0.119062,0.33891 0.264583,0.24897 0.145521,-0.0899 0.264584,-0.27556 0.264584,-0.41249 z m -11.814533,-0.72057 c -0.08353,-0.31943 -0.257726,-0.51536 -0.387096,-0.43541 -0.132368,0.0818 -0.109842,0.37965 0.05152,0.68115 0.3556,0.66444 0.538561,0.53047 0.335579,-0.24574 z m 3.597139,-3.86011 c -0.248112,-0.23053 -0.283767,-0.14788 -0.156589,0.36296 0.09057,0.3638 0.184139,0.84005 0.20793,1.05834 0.02379,0.21828 0.09426,0.0549 0.156589,-0.36297 0.06233,-0.41791 -0.03123,-0.89416 -0.20793,-1.05833 z m 28.306914,0.42856 c 0.190817,-0.66534 0.164354,-0.79706 -0.136909,-0.68145 -0.205395,0.0788 -0.373445,0.37571 -0.373445,0.65977 0,0.28407 -0.107959,0.44976 -0.239909,0.36821 -0.13195,-0.0816 -0.175537,0.0979 -0.09686,0.39874 0.176387,0.67451 0.528872,0.3644 0.847123,-0.74527 z m -18.056697,-0.11521 c -0.08446,-0.21106 -0.147156,-0.14837 -0.159852,0.15986 -0.01149,0.27891 0.05105,0.43518 0.138964,0.34726 0.08792,-0.0879 0.09732,-0.31612 0.02089,-0.50712 z m 18.869259,-1.00872 c 0,-0.14552 -0.126089,-0.26458 -0.280198,-0.26458 -0.154109,0 -0.206613,0.11906 -0.116677,0.26458 0.08994,0.14552 0.216026,0.26458 0.280199,0.26458 0.06417,0 0.116676,-0.11906 0.116676,-0.26458 z m 1.322917,-0.92604 c 0,-0.21828 -0.178594,-0.39688 -0.396875,-0.39688 -0.688567,0 -0.465427,0.52145 0.330729,0.77286 0.03638,0.0115 0.06615,-0.1577 0.06615,-0.37598 z M 59.47482,86.886462 c -0.06708,-0.25743 -0.126382,-0.11087 -0.131774,0.32569 -0.0054,0.43657 0.0495,0.64719 0.12197,0.46806 0.07247,-0.17913 0.07689,-0.53632 0.0098,-0.79375 z m -17.842045,-2.12667 c -0.124052,-0.32327 -0.184939,-0.31631 -0.386716,0.0442 -0.295913,0.52877 0.01743,1.17518 0.326918,0.67442 0.113867,-0.18424 0.140776,-0.50764 0.0598,-0.71867 z m 12.172406,0.30983 c 0.08699,-0.087 0.09293,-0.32815 0.0132,-0.53592 -0.111225,-0.28985 -0.230132,-0.30707 -0.510937,-0.074 -0.201286,0.16705 -0.365976,0.40822 -0.365976,0.53592 0,0.26226 0.622158,0.31558 0.863715,0.074 z m -2.451215,-1.69392 c 0,-0.14553 -0.0525,-0.26459 -0.116676,-0.26459 -0.06417,0 -0.190262,0.11906 -0.280199,0.26459 -0.08994,0.14552 -0.03743,0.26458 0.116677,0.26458 0.154109,0 0.280198,-0.11906 0.280198,-0.26458 z m 10.579282,-0.19844 c -0.0022,-0.10914 -0.119468,-0.37703 -0.260532,-0.59531 -0.2074,-0.32093 -0.257256,-0.28296 -0.260532,0.19843 -0.0022,0.32743 0.115011,0.59532 0.260532,0.59532 0.145521,0 0.26276,-0.0893 0.260532,-0.19844 z m -0.61447,-3.30729 c -0.0734,-0.1819 -0.133452,-0.0331 -0.133452,0.33073 0,0.3638 0.06005,0.51263 0.133452,0.33072 0.0734,-0.1819 0.0734,-0.47955 0,-0.66145 z M -58.37152,79.142632 c 0.07607,-0.2909 0.05568,-0.57997 -0.0453,-0.64239 -0.100988,-0.0624 -0.20754,0.17559 -0.236781,0.52891 -0.06437,0.77779 0.09192,0.84066 0.282085,0.11348 z m 102.762477,-0.57904 c -0.08446,-0.21107 -0.147157,-0.14838 -0.159852,0.15985 -0.01149,0.27891 0.05105,0.43518 0.138964,0.34726 0.08792,-0.0879 0.09732,-0.31612 0.02089,-0.50711 z m 17.017176,-1.4056 c 0,-0.94589 -0.09847,-1.71979 -0.218819,-1.71979 -0.120351,0 -0.209648,0.77385 -0.198438,1.71967 0.01121,0.94583 0.109679,1.71973 0.218819,1.7198 0.109141,6e-5 0.198438,-0.7738 0.198438,-1.71968 z m -2.885604,0.0513 c -0.34553,-0.34553 -0.393593,0.0374 -0.09878,0.78698 0.183854,0.46746 0.194127,0.46723 0.289396,-0.006 0.05433,-0.27012 -0.03145,-0.62135 -0.19062,-0.78052 z m 14.855731,-0.28869 c -0.115539,-0.18344 -0.217817,-0.11986 -0.275508,0.17127 -0.05047,0.25466 -0.209113,0.46302 -0.352552,0.46302 -0.143438,0 -0.176065,0.1371 -0.0725,0.30467 0.130938,0.21186 0.294301,0.15969 0.536306,-0.17127 0.191407,-0.26177 0.265323,-0.60723 0.164258,-0.76769 z m -28.765678,-1.14794 c -0.193519,-2.09145 -0.418035,-2.0862 -0.372609,0.009 0.02102,0.96951 0.144275,1.69719 0.273893,1.61708 0.129619,-0.0801 0.174041,-0.81171 0.09872,-1.62579 z m -102.113975,-2.21993 c -0.178093,-1.47752 -0.39051,-1.61098 -0.296723,-0.18643 0.08369,1.27123 0.08525,1.27818 0.286034,1.27818 0.07825,0 0.08306,-0.49129 0.01069,-1.09175 z m -1.295147,-0.0162 c -0.08446,-0.21106 -0.147157,-0.14837 -0.159852,0.15986 -0.01149,0.27891 0.05105,0.43518 0.138964,0.34726 0.08792,-0.0879 0.09732,-0.31612 0.02089,-0.50712 z m 114.648423,0.0496 c 0,-0.29104 -0.107916,-0.52916 -0.239813,-0.52916 -0.131898,0 -0.177542,0.23812 -0.101433,0.52916 0.07611,0.29104 0.184025,0.52917 0.239813,0.52917 0.05579,0 0.101433,-0.23813 0.101433,-0.52917 z m 2.722591,-1.0587 c 0.07616,-0.29124 0.03052,-0.4628 -0.101433,-0.38126 -0.131949,0.0815 -0.239908,0.31984 -0.239908,0.52954 0,0.54762 0.179783,0.46952 0.341341,-0.14828 z m 14.37342,-0.53283 c -0.0063,-1.07834 -0.298293,-1.24476 -0.796952,-0.45423 -0.244981,0.38838 -0.02903,0.80134 0.784861,1.50087 0.01006,0.009 0.0155,-0.46234 0.01209,-1.04664 z m -0.956428,0.5332 c 0,-0.14552 -0.119063,-0.26458 -0.264584,-0.26458 -0.14552,0 -0.264583,0.11906 -0.264583,0.26458 0,0.14552 0.119063,0.26458 0.264583,0.26458 0.145521,0 0.264584,-0.11906 0.264584,-0.26458 z m -11.004838,-2.03668 c -0.153286,-0.0511 -0.226704,-0.44719 -0.163152,-0.8802 0.07439,-0.50683 3.82e-4,-0.78729 -0.207746,-0.78729 -0.217271,0 -0.267869,0.23862 -0.154285,0.72761 0.110126,0.47409 0.08555,0.60253 -0.07054,0.36862 -0.168389,-0.25234 -0.293651,-0.27143 -0.421682,-0.0643 -0.100173,0.16209 0.004,0.36613 0.231511,0.45343 0.227505,0.0873 0.421703,0.47342 0.431552,0.85803 0.01791,0.6993 0.01791,0.6993 0.325474,0.0581 0.210395,-0.43859 0.219514,-0.67051 0.02886,-0.73406 z m -118.460251,-0.65876 c -0.08446,-0.21107 -0.147157,-0.14838 -0.159853,0.15985 -0.01149,0.27891 0.05105,0.43518 0.138964,0.34726 0.08792,-0.0879 0.09732,-0.31612 0.02089,-0.50711 z m 117.823422,-1.53791 c 0,-0.14553 -0.119062,-0.26459 -0.264583,-0.26459 -0.145521,0 -0.264583,0.11906 -0.264583,0.26459 0,0.14552 0.119062,0.26458 0.264583,0.26458 0.145521,0 0.264583,-0.11906 0.264583,-0.26458 z m -5.904676,-1.37253 c -0.08446,-0.21107 -0.147156,-0.14837 -0.159852,0.15985 -0.01149,0.27892 0.05104,0.43519 0.138964,0.34727 0.08792,-0.0879 0.09732,-0.31612 0.02089,-0.50712 z"
       id="path3" /></g></svg>
