<?xml version="1.0" encoding="UTF-8" standalone="no"?>
<!-- Created with Inkscape (http://www.inkscape.org/) -->

<svg
   width="362.47916mm"
   height="155.04584mm"
   viewBox="0 0 362.47916 155.04584"
   version="1.1"
   id="svg1"
   xml:space="preserve"
   xmlns="http://www.w3.org/2000/svg"
   xmlns:svg="http://www.w3.org/2000/svg"><defs
     id="defs1" /><g
     id="layer1"
     transform="translate(72.45154,-66.354224)"><path
       style="fill:#000000"
       d="m -72.438909,147.11833 c 0.01099,-64.658196 0.06262,-74.348304 0.398459,-74.795356 0.50287,-0.66939 0.496875,-1.232207 -0.01105,-1.037299 -0.335532,0.128756 -0.396875,-0.23436 -0.396875,-2.349289 0,-2.501585 0,-2.501585 0.754784,-2.523045 0.734739,-0.02089 0.749803,0.0058 0.567201,1.004356 -0.141694,0.774867 -0.09494,1.061369 0.191127,1.171142 0.279065,0.107087 0.363491,-0.04594 0.32087,-0.5816 -0.131054,-1.647092 -0.220445,-1.622605 5.994036,-1.641964 5.665731,-0.01765 5.665731,-0.01765 5.665731,0.647132 0,0.36563 0.119894,0.664782 0.266431,0.664782 0.169871,0 0.204046,0.671229 0.0943,1.852083 -0.122098,1.313721 -0.08418,1.852084 0.130444,1.852084 0.18716,0 0.302577,-0.510394 0.302577,-1.338046 0,-0.735925 0.133197,-1.867019 0.295994,-2.513542 l 0.295993,-1.175496 h 54.4883696 c 33.5618574,0 54.4299084,0.09459 54.3361484,0.246301 -0.08372,0.135466 -0.03122,0.321086 0.116676,0.41249 0.147895,0.0914 0.2689,-0.01943 0.2689,-0.246301 0,-0.26157 0.237625,-0.41249 0.649469,-0.41249 0.52962,0 0.680731,0.166642 0.81888,0.903039 0.09318,0.496672 0.08483,1.169526 -0.01854,1.495233 -0.153935,0.485004 -0.106677,0.561003 0.261092,0.419877 0.246976,-0.09477 0.498841,-0.172315 0.559699,-0.172315 0.237337,0 0.09536,-1.830307 -0.153931,-1.984375 -0.668976,-0.41345 -0.121467,-0.661459 1.460249,-0.661459 1.724833,0 1.724833,0 1.551472,0.690723 -0.151421,0.603313 -0.106195,0.669406 0.357383,0.522272 0.431809,-0.137051 0.559906,-0.02263 0.687196,0.613819 0.08605,0.430248 0.09308,1.415617 0.01562,2.189707 -0.140838,1.407438 -0.140838,1.407438 0.403324,0.787556 0.412797,-0.470237 0.481217,-0.737497 0.283419,-1.107085 -0.324346,-0.606045 -0.334865,-1.051158 -0.02484,-1.051158 0.379857,0 0.564981,1.169255 0.320236,2.02263 -0.158928,0.554148 -0.118013,0.934488 0.138223,1.284912 0.342053,0.467786 0.363974,0.454881 0.363974,-0.214264 0,-0.391616 0.119063,-0.712028 0.264583,-0.712028 0.145521,0 0.264584,0.416718 0.264584,0.926041 0,0.518842 0.133135,0.926042 0.302773,0.926042 0.213133,0 0.259313,-0.57464 0.155979,-1.940942 -0.08074,-1.067519 -0.05298,-2.09273 0.06167,-2.278248 0.257878,-0.417255 0.04092,-1.33706 -0.315384,-1.33706 -0.147193,0 -0.194816,0.319467 -0.108465,0.727604 0.14531,0.686805 0.137233,0.694223 -0.144041,0.132292 -0.333081,-0.665432 -0.549512,-0.71924 -1.292846,-0.32142 -0.446688,0.23906 -0.511773,0.183885 -0.511773,-0.433853 0,-0.389259 -0.208359,-0.865215 -0.46302,-1.057678 -0.384352,-0.290478 11.635208,-0.351813 70.742728,-0.360996 60.94302,-0.0095 71.25035,0.04268 71.5152,0.361803 0.1702,0.205076 0.51261,0.333742 0.76092,0.285925 0.2483,-0.04782 0.51099,-0.09787 0.58375,-0.111235 0.0728,-0.01336 -0.0463,-0.139711 -0.26458,-0.280775 -0.2571,-0.166147 15.37514,-0.257908 44.38385,-0.260532 l 44.78073,-0.0041 v 77.522966 77.52292 H 108.78961 -72.45154 Z M 37.386006,205.6111 c -0.230598,-0.39655 -0.282228,-0.40798 -0.288836,-0.064 -0.0086,0.44558 0.269662,0.84678 0.45718,0.65926 0.06185,-0.0618 -0.01391,-0.32974 -0.168344,-0.59531 z m -10.607969,-0.34024 c -0.214066,-0.13538 -0.307552,-0.32781 -0.207746,-0.42761 0.09981,-0.0998 0.06508,-0.39894 -0.07717,-0.66474 -0.201666,-0.37682 -0.139702,-0.54692 0.281303,-0.77224 0.778988,-0.4169 0.393974,-0.79158 -0.813412,-0.79158 -0.995684,0 -1.042718,0.038 -1.042718,0.84284 0,0.98688 0.891762,2.06949 1.699766,2.06352 0.441711,-0.003 0.47302,-0.0522 0.159979,-0.25019 z m 2.902755,-0.80409 c 0.320928,-0.2074 0.282955,-0.25725 -0.198438,-0.26053 -0.327422,-0.002 -0.595312,0.11501 -0.595312,0.26053 0,0.33151 0.280786,0.33151 0.79375,0 z m 1.861702,-0.64987 c -0.175867,-0.2119 -0.235609,-0.52144 -0.13276,-0.68785 0.138094,-0.22344 0.0484,-0.22839 -0.342969,-0.0189 -0.291482,0.156 -0.59977,0.46553 -0.685083,0.68785 -0.118518,0.30886 0.03785,0.40423 0.662727,0.40423 0.686038,0 0.76631,-0.0621 0.498085,-0.38529 z m 1.804566,-0.90861 c 0.250245,-0.15856 0.27028,-0.28227 0.06615,-0.40843 -0.475008,-0.29358 -0.335905,-0.75181 0.17019,-0.56064 0.414429,0.15654 0.411099,0.12481 -0.03172,-0.30242 -0.359561,-0.3469 -0.528248,-0.38695 -0.617361,-0.14659 -0.06744,0.1819 -0.29129,0.33073 -0.497444,0.33073 -0.223426,0 -0.374826,0.26718 -0.374826,0.66146 0,0.69008 0.569958,0.87898 1.285018,0.42589 z m -6.043524,-1.35193 c 0.0088,0.28851 0.09369,0.25623 0.310912,-0.1182 0.22324,-0.38481 0.22174,-0.54077 -0.0059,-0.61666 -0.191688,-0.0639 -0.222784,-0.26544 -0.08382,-0.54326 0.121511,-0.24292 0.132428,-0.73933 0.02426,-1.10313 -0.194802,-0.65518 -0.19692,-0.6542 -0.223044,0.10312 -0.0145,0.42052 -0.219558,0.90584 -0.455673,1.07849 -0.300279,0.21957 -0.371104,0.49728 -0.235658,0.92403 0.150355,0.47372 0.245414,0.52836 0.425248,0.24442 0.192245,-0.30354 0.233663,-0.29824 0.243704,0.0312 z m 8.942229,-1.57097 c 0.06615,-0.19843 -0.03307,-0.29765 -0.23151,-0.23151 -0.190996,0.0637 -0.399356,0.27203 -0.463021,0.46302 -0.06615,0.19844 0.03307,0.29766 0.231511,0.23151 0.190996,-0.0637 0.399355,-0.27202 0.46302,-0.46302 z m -9.438524,-0.54878 c -0.09304,-0.0745 -0.258455,-0.24312 -0.367595,-0.37483 -0.109141,-0.1317 -0.198438,0.0827 -0.198438,0.47654 0,0.5984 0.06037,0.65995 0.367595,0.37482 0.202178,-0.18764 0.291474,-0.40208 0.198438,-0.47653 z m 3.351973,-1.71058 1.241369,-1.18449 -1.009841,-0.006 c -1.289825,-0.008 -2.838297,1.08267 -2.635969,1.85638 0.21962,0.83982 1.074688,0.60307 2.404441,-0.66576 z m 9.708118,0.18528 c 0.424112,0.0869 3.567622,-3.45457 3.575251,-4.02787 0.0029,-0.21828 0.539096,-0.9124 1.191537,-1.54249 0.65244,-0.63009 1.186254,-1.29194 1.186254,-1.47079 0,-0.17884 0.187424,-0.55628 0.416496,-0.83876 0.229073,-0.28247 0.329739,-0.34636 0.223703,-0.14198 -0.121121,0.23347 -0.0868,0.30611 0.09231,0.19541 0.156809,-0.0969 0.360548,-0.51969 0.452752,-0.93949 0.0922,-0.4198 0.399021,-0.97267 0.681814,-1.2286 0.282794,-0.25592 0.51417,-0.79986 0.51417,-1.20875 0,-0.48035 0.19327,-0.84687 0.546149,-1.03572 0.426431,-0.22822 0.510474,-0.45472 0.383404,-1.03326 -0.132003,-0.60101 -0.05953,-0.76796 0.383639,-0.88386 0.816939,-0.21363 1.887528,-2.72559 1.753719,-4.1148 -0.09048,-0.93935 -0.03276,-1.10274 0.389508,-1.10274 0.361834,0 0.448856,-0.12506 0.322198,-0.46303 -0.151959,-0.40547 -0.118041,-0.41788 0.272887,-0.0999 0.391066,0.31811 0.446413,0.29752 0.446413,-0.16604 0,-0.29104 -0.178594,-0.67739 -0.396875,-0.85854 -0.218281,-0.18116 -0.396875,-0.48021 -0.396875,-0.66455 0,-0.44214 1.038126,-1.6822 1.049531,-1.25368 0.0048,0.1819 -0.134073,0.33073 -0.308698,0.33073 -0.243152,0 -0.244717,0.0728 -0.0067,0.31081 0.399453,0.39946 1.911682,-1.10702 1.911682,-1.9044 0,-0.81108 0.746325,-2.4357 1.036527,-2.25635 0.53673,0.33172 0.727722,-0.69445 0.3454,-1.85577 -0.449657,-1.36585 -0.315026,-2.08538 0.583568,-3.11883 0.505248,-0.58107 0.619741,-0.9373 0.497575,-1.54813 -0.08727,-0.43637 -0.05209,-0.87064 0.07819,-0.96505 0.446163,-0.32334 0.971801,-1.473 1.343644,-2.93879 0.204571,-0.80641 0.475143,-1.86186 0.601271,-2.34544 0.126129,-0.48359 0.420514,-1.09051 0.65419,-1.34872 0.499511,-0.55195 1.169213,-2.78278 1.393909,-4.64321 0.08734,-0.72321 0.378828,-1.67571 0.647738,-2.11667 0.26891,-0.44096 0.489373,-1.17412 0.489917,-1.62925 0.0015,-1.27784 0.463244,-1.48674 2.829762,-1.2803 1.13631,0.0991 2.185081,0.19721 2.330602,0.21797 0.147847,0.0211 0.286303,-0.69273 0.313812,-1.61788 0.03256,-1.0949 0.18937,-1.79577 0.463021,-2.06942 0.227585,-0.22758 0.413791,-0.52016 0.413791,-0.65017 0,-0.36137 -1.050958,-0.8436 -1.479853,-0.67902 -0.344052,0.13203 -0.874229,1.1438 -1.005411,1.91869 -0.09261,0.54705 -0.744393,1.15117 -1.24199,1.15117 -0.577283,0 -1.180166,-0.93753 -0.767062,-1.19285 0.148288,-0.0916 0.194703,-0.28784 0.103145,-0.43598 -0.111311,-0.18011 -0.261779,-0.17405 -0.454108,0.0183 -0.1582,0.1582 -0.37226,0.28764 -0.475688,0.28764 -0.210382,0 -0.0933,-6.36275 0.17879,-9.71654 0.10984,-1.35387 0.316452,-2.29203 0.546893,-2.48328 0.238083,-0.19759 0.975677,-0.25878 2.065167,-0.17133 1.778831,0.14279 2.265534,-0.0559 2.265534,-0.9247 0,-0.30359 -0.293907,-0.59247 -0.772537,-0.75932 -0.696111,-0.24267 -1.259441,-0.93438 -0.984703,-1.20912 0.250705,-0.25071 1.492657,0.27402 1.492657,0.63064 0,0.58698 0.649185,0.25544 0.743028,-0.37946 0.103604,-0.70093 -0.476293,-0.8863 -2.198236,-0.70269 -0.727605,0.0776 -1.620573,0.14355 -1.984375,0.14658 -0.363802,0.003 -0.819361,0.13618 -1.012353,0.29588 -0.541826,0.44834 -0.828092,-0.23949 -0.856043,-2.05687 -0.01343,-0.87313 -0.06495,-2.00422 -0.114496,-2.51354 -0.211417,-2.17341 -0.105502,-11.72929 0.134985,-12.17864 0.143224,-0.26762 0.260407,-0.74527 0.260407,-1.06144 0,-0.40229 0.119142,-0.52915 0.396875,-0.42258 0.422033,0.16195 0.486481,-0.1315 0.234898,-1.06956 -0.186645,-0.69593 -0.902947,-1.02755 -1.201881,-0.55643 -0.118547,0.18683 -0.217363,0.79732 -0.219591,1.35665 -0.0031,0.78449 -0.122233,1.04786 -0.521067,1.15216 -0.411009,0.10748 -0.485936,0.2906 -0.365435,0.8931 0.08337,0.41685 0.0715,0.96661 -0.02638,1.22168 -0.152013,0.39614 -0.213882,0.40698 -0.424264,0.0743 -0.186249,-0.29451 -0.247286,-0.20826 -0.25035,0.35376 -0.0022,0.40877 0.109037,0.67332 0.247257,0.5879 0.494324,-0.30551 0.815392,0.88598 0.640265,2.37603 -0.126355,1.07509 -0.270033,1.44276 -0.525497,1.34472 -0.193378,-0.0742 -0.533447,0.12472 -0.755711,0.44204 -0.589139,0.84112 -0.494067,1.14867 0.175074,0.56637 0.579189,-0.50403 0.579189,-0.50403 -4.65e-4,0.33122 -0.53374,0.76908 -0.540474,0.825 -0.08502,0.70589 0.373225,-0.0976 0.537963,0.0546 0.671144,0.61996 0.279072,1.18473 0.716185,4.5689 0.814452,6.30557 0.04941,0.87312 0.130289,1.76609 0.179741,1.98437 0.06538,0.28856 -0.113214,0.38266 -0.654385,0.34478 -0.570492,-0.0399 -0.724245,0.052 -0.65842,0.39384 0.04723,0.24526 0.322637,0.48711 0.612007,0.53743 0.289371,0.0503 0.674957,0.28281 0.856858,0.51663 0.473889,0.60915 0.407903,3.41151 -0.112409,4.77393 -0.391925,1.02624 -0.407277,1.50121 -0.132836,4.10989 0.265691,2.5255 0.254981,2.99056 -0.07449,3.23486 -0.62232,0.46143 -0.963302,2.42874 -0.501075,2.89097 0.264475,0.26447 0.308137,0.5284 0.141008,0.85236 -0.133148,0.2581 -0.388909,1.26479 -0.568358,2.23708 -0.188434,1.02099 -0.482724,1.82785 -0.696607,1.90993 -0.410067,0.15736 -0.500153,1.66083 -0.13413,2.23853 0.306833,0.48428 0.05682,1.35408 -0.344908,1.19992 -0.176629,-0.0678 -0.482672,0.17859 -0.680096,0.54748 -0.442689,0.82717 -0.679315,0.8463 -0.932498,0.0754 -0.141258,-0.43011 -0.280853,0.0288 -0.503036,1.65365 -0.169138,1.23693 -0.435851,2.54661 -0.592696,2.91042 -0.156845,0.3638 -0.437352,1.1377 -0.623348,1.71979 -0.185996,0.58208 -0.579407,1.69823 -0.874246,2.48033 -0.29484,0.7821 -0.53141,1.61553 -0.525712,1.85208 0.0057,0.23655 -0.294391,0.75751 -0.666863,1.15769 -0.570844,0.61331 -0.892939,0.72761 -2.050531,0.72761 -0.872792,0 -1.488605,0.13892 -1.689653,0.38116 -0.173988,0.20965 -0.635051,0.41801 -1.024584,0.46303 -0.878757,0.10155 -1.075808,1.10836 -0.452743,2.31324 0.468005,0.90502 1.410329,1.09206 2.087953,0.41444 0.49268,-0.49268 0.565846,-0.49249 1.061121,0.003 0.356495,0.35649 0.34023,0.5351 -0.150586,1.65364 -0.302637,0.68969 -0.652575,1.29367 -0.777639,1.34218 -0.125065,0.0485 -0.22739,0.37755 -0.22739,0.7312 0,0.57985 -0.42825,1.61701 -0.808771,1.95873 -0.08102,0.0728 -0.30246,0.51595 -0.492084,0.98486 -0.189624,0.46891 -0.629388,1.18329 -0.977252,1.5875 -0.347865,0.40421 -0.826334,1.33025 -1.063264,2.05785 -0.23693,0.7276 -0.594078,1.51089 -0.793664,1.74063 -0.199585,0.22974 -0.362882,0.50594 -0.362882,0.61378 0,0.10785 -0.345969,0.69893 -0.76882,1.31352 -0.422851,0.6146 -0.90369,1.61831 -1.068531,2.23049 -0.164841,0.61217 -0.416589,1.11304 -0.559438,1.11304 -0.286484,0 -2.894877,3.87724 -2.894877,4.30309 0,0.32762 -1.255507,1.51774 -1.601132,1.51774 -0.138023,0 -0.250951,0.11732 -0.250951,0.26071 0,0.14339 -0.565547,0.81794 -1.256771,1.49899 -0.691224,0.68105 -1.043905,1.16105 -0.783735,1.06666 0.3155,-0.11445 0.52936,-0.0189 0.64216,0.28696 0.273539,0.74167 0.685699,0.85738 1.074871,0.30176 0.199826,-0.28529 0.52402,-0.48578 0.720432,-0.44554 z m 2.153196,-2.83725 c 0.08376,-0.21828 0.199088,-0.39687 0.256279,-0.39687 0.05719,0 0.103984,0.17859 0.103984,0.39687 0,0.21829 -0.115326,0.39688 -0.256279,0.39688 -0.140954,0 -0.187747,-0.17859 -0.103984,-0.39688 z m 11.472763,-22.86189 c 0,-0.11392 0.223414,-0.40932 0.496476,-0.65644 0.439382,-0.39763 0.514494,-0.40235 0.653154,-0.041 0.08617,0.22457 0.03433,0.4083 -0.115216,0.4083 -0.149541,0 -0.213584,0.0944 -0.142317,0.20966 0.07127,0.11531 -0.1003,0.22698 -0.38126,0.24814 -0.280961,0.0212 -0.510837,-0.0547 -0.510837,-0.16865 z M 24.653708,196.6832 c 0,-0.0609 -0.07343,-0.30202 -0.16319,-0.53592 -0.125648,-0.32743 -0.246714,-0.35594 -0.526254,-0.12395 -0.418646,0.34745 -0.249428,0.77053 0.308184,0.77053 0.209693,0 0.38126,-0.0498 0.38126,-0.11066 z m 143.404152,-4.51955 c 0,-0.24152 -0.2463,-0.39688 -0.62918,-0.39688 -0.35088,0 -0.79675,-0.25235 -1.00798,-0.57049 -0.3017,-0.45438 -0.47833,-0.51479 -0.86781,-0.29683 -0.43831,0.24529 -0.38821,0.32151 0.48308,0.73496 0.53465,0.25371 1.03673,0.56588 1.11574,0.6937 0.23703,0.38354 0.90615,0.2621 0.90615,-0.16446 z m 1.43662,-2.80821 c -0.23102,-0.3738 -0.90745,-0.27123 -0.90745,0.1376 0,0.24115 0.18519,0.32368 0.52619,0.23451 0.28941,-0.0757 0.46097,-0.24313 0.38126,-0.37211 z m 27.40297,-4.8364 c 0,-0.0572 -0.1786,-0.17252 -0.39688,-0.25628 -0.21828,-0.0838 -0.39687,-0.037 -0.39687,0.10398 0,0.14096 0.17859,0.25628 0.39687,0.25628 0.21828,0 0.39688,-0.0468 0.39688,-0.10398 z m 2.05408,-1.27438 c -0.18122,-0.54368 -0.60655,-0.25697 -0.67101,0.45232 -0.069,0.75909 -0.0544,0.77111 0.33429,0.27528 0.22354,-0.28515 0.37506,-0.61258 0.33672,-0.7276 z m 0.99977,0.30199 c 0.0961,-0.15544 0.34122,-0.21871 0.54478,-0.14059 0.20356,0.0781 0.37012,0.0267 0.37012,-0.11426 0,-0.14095 -0.35719,-0.25628 -0.79375,-0.25628 -0.52917,0 -0.79375,0.13229 -0.79375,0.39688 0,0.4585 0.41615,0.52919 0.6726,0.11425 z m -1.32692,-3.14541 c -0.086,-0.13916 -0.33116,-0.18595 -0.54478,-0.10398 -0.54693,0.20987 -0.48248,0.35701 0.15638,0.35701 0.29963,0 0.47441,-0.11386 0.3884,-0.25303 z M 57.067129,177.94229 c -0.104714,-0.47294 -0.2214,-1.39567 -0.259304,-2.05052 -0.09634,-1.66438 -0.172077,-1.83794 -0.404118,-0.92604 -0.321019,1.26159 -0.292591,2.74046 0.06365,3.31088 0.50045,0.80135 0.812689,0.62731 0.599777,-0.33432 z m -33.346257,-3.62488 c 0.715503,-1.38363 0.543316,-1.82882 -0.985393,-2.54775 -0.763984,-0.35929 -2.145436,-1.34352 -3.069893,-2.18716 -1.505119,-1.37355 -1.69523,-1.66165 -1.818572,-2.75594 -0.187254,-1.66131 0.07073,-2.57645 0.726319,-2.57645 0.425269,0 0.524126,-0.17944 0.524126,-0.95137 0,-0.96499 0.656532,-2.44784 1.252966,-2.82997 0.179809,-0.1152 0.911562,-0.77004 1.626117,-1.4552 0.714556,-0.68517 1.838086,-1.7412 2.496734,-2.34675 0.658648,-0.60555 1.121149,-1.17739 1.027781,-1.27076 -0.09337,-0.0934 0.03497,-0.0912 0.285195,0.005 0.313905,0.12045 0.454956,0.0428 0.454956,-0.2506 0,-0.25436 0.22129,-0.42519 0.550784,-0.42519 0.302931,0 1.047072,-0.40172 1.653646,-0.89272 1.101796,-0.89187 3.81867,-2.01769 4.86915,-2.01769 0.851274,0 1.393087,-0.27928 1.393087,-0.71808 0,-0.25781 -0.150806,-0.339 -0.430411,-0.23171 -0.482769,0.18526 -1.229254,-0.30689 -1.008142,-0.66466 0.178741,-0.28921 -0.635739,-0.003 -1.332298,0.46779 -0.951173,0.64319 -2.287373,0.36658 -1.692373,-0.35035 0.37953,-0.45731 0.206212,-0.44718 -1.067253,0.0624 -0.573798,0.22959 -1.108252,0.58677 -1.187676,0.79375 -0.07942,0.20697 -0.433061,0.37631 -0.785861,0.37631 -0.3547,0 -0.717126,0.1972 -0.810727,0.44112 -0.129016,0.33621 -0.24272,0.36767 -0.478099,0.13229 -0.379912,-0.37991 -1.356912,-0.41295 -1.125211,-0.038 0.277824,0.44953 -0.482889,1.8194 -1.055929,1.90149 -0.32311,0.0463 -0.568918,0.31274 -0.619943,0.67201 -0.08756,0.61655 -0.835312,0.84943 -0.849539,0.26458 -0.0044,-0.1819 -0.141901,-0.0926 -0.305502,0.19844 -0.1636,0.29104 -1.269572,1.48167 -2.457715,2.64583 -3.453107,3.38343 -4.72653,6.86471 -3.745481,10.2394 0.626236,2.15418 1.100886,2.61284 3.073008,2.96949 2.019454,0.36522 2.377218,0.77463 1.759295,2.01329 -0.327933,0.65736 -0.36334,0.95477 -0.138653,1.16468 0.215131,0.20098 0.337588,0.18384 0.426633,-0.0597 0.09167,-0.25073 0.241238,-0.20896 0.56224,0.15703 0.917303,1.04585 1.763101,1.0701 2.282634,0.0654 z m 0.932836,-20.13709 c 0,-0.15411 0.119063,-0.20661 0.264584,-0.11667 0.145521,0.0899 0.264583,0.21602 0.264583,0.28019 0,0.0642 -0.119062,0.11668 -0.264583,0.11668 -0.145521,0 -0.264584,-0.12609 -0.264584,-0.2802 z m 1.058334,-1.3073 c 0,-0.14552 0.126089,-0.26458 0.280198,-0.26458 0.154109,0 0.206613,0.11906 0.116677,0.26458 -0.08994,0.14552 -0.216026,0.26458 -0.280199,0.26458 -0.06417,0 -0.116676,-0.11906 -0.116676,-0.26458 z m -0.264584,20.25624 c 0,-0.0642 -0.119062,-0.19026 -0.264583,-0.2802 -0.145521,-0.0899 -0.264583,-0.0374 -0.264583,0.11668 0,0.15411 0.119062,0.2802 0.264583,0.2802 0.145521,0 0.264583,-0.0525 0.264583,-0.11668 z m 3.021069,-0.0439 c 0.230183,-0.0883 0.418515,-0.32645 0.418515,-0.52917 0,-0.45846 -1.143131,-0.48729 -1.935624,-0.0488 -0.566618,0.3135 -0.562398,0.32324 0.215832,0.49786 0.436562,0.098 0.813778,0.1922 0.838256,0.20941 0.02448,0.0172 0.232838,-0.041 0.463021,-0.12929 z m 2.535181,-0.36857 c 0,-0.14552 -0.112036,-0.26458 -0.248968,-0.26458 -0.136933,0 -0.322553,0.11906 -0.41249,0.26458 -0.08994,0.14552 0.0221,0.26459 0.248968,0.26459 0.22687,0 0.41249,-0.11907 0.41249,-0.26459 z m 176.494742,-2.3373 c 0.13788,-0.33964 0.17971,-0.73237 0.093,-0.87275 -0.28755,-0.46526 -0.90421,0.3377 -1.07379,1.39819 -0.0906,0.56641 -0.26811,1.09376 -0.39451,1.17188 -0.12641,0.0781 -0.22612,0.34338 -0.22157,0.58945 0.009,0.46351 1.13552,-1.15031 1.59691,-2.28677 z m 12.90619,1.38956 c -0.24707,-0.24699 -0.47771,-0.27628 -0.75303,-0.0957 -0.33654,0.22081 -0.29632,0.3447 0.26458,0.81499 0.60252,0.50518 0.66962,0.5137 0.75303,0.0956 0.0504,-0.25242 -0.0687,-0.61917 -0.26458,-0.81498 z m -187.284265,0.56648 c 0,-0.27926 -0.507766,-0.39659 -0.658791,-0.15222 -0.0914,0.14789 0.01943,0.2689 0.246301,0.2689 0.226869,0 0.41249,-0.0525 0.41249,-0.11668 z m 1.5875,-0.54478 c 0.183735,-0.22139 0.212385,-0.39687 0.06479,-0.39687 -0.14552,0 -0.412803,0.17859 -0.59396,0.39687 -0.183735,0.22139 -0.212385,0.39688 -0.06479,0.39688 0.145521,0 0.412803,-0.1786 0.59396,-0.39688 z m 131.762485,0.1606 c 0,-0.12995 -0.17859,-0.30481 -0.39687,-0.38857 -0.24175,-0.0928 -0.39688,-4.2e-4 -0.39688,0.23627 0,0.21372 0.1786,0.38858 0.39688,0.38858 0.21828,0 0.39687,-0.10633 0.39687,-0.23628 z m 25.21201,-0.55774 c -0.13939,-0.53304 -0.38186,-0.6646 -0.67838,-0.36808 -0.20905,0.20905 0.38497,1.16381 0.62991,1.01243 0.10273,-0.0635 0.12454,-0.35345 0.0485,-0.64435 z M 67.321584,170.91642 c 0.188843,-0.15673 0.655161,-0.3415 1.036262,-0.41061 0.878341,-0.15927 2.343325,-0.93918 1.790965,-0.95344 -0.225557,-0.006 -0.570446,0.13823 -0.766419,0.32013 -0.285215,0.26474 -0.318825,0.26436 -0.168431,-0.002 0.260268,-0.46075 1.506094,-1.0734 2.428082,-1.19403 0.952074,-0.12457 1.663992,-1.3127 1.154446,-1.92666 -0.488935,-0.58913 -2.219752,-0.45905 -4.176822,0.31391 -2.043636,0.80716 -2.498761,1.11392 -2.324889,1.56702 0.07411,0.19313 -0.164911,0.38528 -0.583272,0.46889 -0.519528,0.10383 -0.825177,-0.008 -1.144437,-0.41944 -0.239579,-0.30861 -0.381673,-0.70163 -0.315765,-0.87338 0.06591,-0.17176 -0.125027,-0.37631 -0.424299,-0.45457 -0.299272,-0.0783 -0.544131,-0.0542 -0.544131,0.0534 0,0.2268 -0.02162,0.22914 -2.663383,0.28771 -1.710889,0.0379 -2.051688,0.12408 -2.344226,0.5925 -0.300174,0.48066 -0.265453,0.6077 0.282133,1.03229 0.626972,0.48615 0.525703,0.74498 -0.433899,1.10901 -0.539245,0.20456 0.02588,0.3857 0.762168,0.24429 0.420827,-0.0808 0.816892,-0.35564 0.884358,-0.61363 0.114789,-0.43895 0.152758,-0.43669 0.626894,0.0375 0.666076,0.66608 0.639826,0.76157 -0.222899,0.81086 -0.400182,0.0229 -0.132292,0.11215 0.595312,0.19843 2.067296,0.24514 6.172143,0.12719 6.552252,-0.18827 z m -6.684543,-2.40175 c 0,-0.14552 0.119062,-0.33817 0.264583,-0.42811 0.145521,-0.0899 0.264583,-0.0445 0.264583,0.10107 0,0.14552 -0.119062,0.33816 -0.264583,0.4281 -0.145521,0.0899 -0.264583,0.0445 -0.264583,-0.10106 z m -3.295519,2.10448 c -0.08346,-0.13504 0.09632,-0.32426 0.39952,-0.4205 0.518262,-0.16449 0.523349,-0.19538 0.08496,-0.51594 -0.380951,-0.27855 -0.529452,-0.27783 -0.811251,0.004 -0.362158,0.36216 -0.205203,1.17801 0.226629,1.17801 0.13854,0 0.183604,-0.11049 0.100142,-0.24554 z m -18.069585,-0.19427 c -0.181901,-0.0734 -0.479557,-0.0734 -0.661458,0 -0.181901,0.0734 -0.03307,0.13345 0.330729,0.13345 0.363802,0 0.51263,-0.06 0.330729,-0.13345 z m 2.710106,-0.35091 c 0.09269,-0.14998 -0.01351,-0.19434 -0.248968,-0.10398 -0.458369,0.17589 -0.542234,0.36553 -0.161649,0.36553 0.136933,0 0.321711,-0.1177 0.410617,-0.26155 z m 3.180371,-0.009 c 0.102145,-0.16527 -0.141605,-0.24673 -0.627538,-0.2097 -0.437007,0.0333 -0.736237,0.15491 -0.664956,0.27024 0.186166,0.30123 1.095227,0.25864 1.292494,-0.0605 z m 26.989574,-0.79711 c 0.107006,-0.17314 -0.09348,-0.22598 -0.546015,-0.14392 -0.975316,0.17685 -1.155744,0.41752 -0.31302,0.41752 0.379468,0 0.766033,-0.12312 0.859035,-0.2736 z m -6.548498,-0.83434 c -0.163532,-0.4906 -0.733116,-0.57197 -0.733116,-0.10473 0,0.23041 0.188516,0.41892 0.418924,0.41892 0.230408,0 0.371794,-0.14138 0.314192,-0.31419 z m -7.612283,-0.47956 c 0.320929,-0.2074 0.282956,-0.25725 -0.198437,-0.26053 -0.327422,-0.002 -0.595313,0.11501 -0.595313,0.26053 0,0.3315 0.280787,0.3315 0.79375,0 z m 18.647969,-1.55639 c 0.683697,-0.56498 1.468817,-1.39841 1.744711,-1.85208 0.397063,-0.65292 0.681679,-0.82471 1.36541,-0.82415 0.722642,6e-4 0.950251,0.15981 1.392951,0.97433 0.739697,1.36097 1.143564,1.39682 1.347793,0.11964 0.09339,-0.58402 0.393888,-1.30239 0.667774,-1.59638 0.60137,-0.64549 0.629872,-0.97857 0.1011,-1.18148 -0.218281,-0.0838 -0.396875,-0.38713 -0.396875,-0.67415 0,-0.28702 -0.118884,-0.59533 -0.264187,-0.68514 -0.145303,-0.0898 -0.245501,0.052 -0.222662,0.31512 0.09589,1.10469 -0.0918,1.41174 -1.163163,1.90289 -1.253894,0.57483 -1.77203,0.47765 -1.145349,-0.21483 0.495667,-0.54771 0.54734,-1.76909 0.08338,-1.97087 -0.181901,-0.0791 0.01445,-0.0717 0.436338,0.0165 0.540025,0.11291 0.711609,0.0706 0.579698,-0.14279 -0.103054,-0.16675 -0.353021,-0.30317 -0.555483,-0.30317 -0.202462,0 -0.469734,-0.18159 -0.593937,-0.40353 -0.177699,-0.31753 -0.448329,-0.35735 -1.269918,-0.18687 -1.005452,0.20864 -1.045505,0.25752 -1.082232,1.32073 -0.03136,0.90792 -0.263953,1.36839 -1.309147,2.59181 -1.163696,1.36212 -1.300094,1.44795 -1.615507,1.0166 -0.296579,-0.4056 -0.344499,-0.24328 -0.344499,1.16694 0,1.43024 0.06348,1.63807 0.500357,1.63807 0.275197,0 1.059747,-0.46226 1.743445,-1.02723 z m 1.410755,-5.50352 c 0.190996,-0.0764 0.419199,-0.067 0.507118,0.0209 0.08792,0.0879 -0.06835,0.15046 -0.347266,0.13897 -0.308224,-0.0127 -0.370919,-0.0754 -0.159852,-0.15986 z m -16.012833,5.27397 c -0.288786,-0.78271 -1.135474,-1.16743 -1.135474,-0.51593 0,0.43905 0.535329,0.97896 0.970654,0.97896 0.208362,0 0.270868,-0.1756 0.16482,-0.46303 z m 0.972878,-1.5875 c -0.0046,-0.10914 -0.302229,-0.41235 -0.661458,-0.67381 -0.750984,-0.54658 -0.934217,-0.0609 -0.190123,0.50394 0.522304,0.39648 0.863931,0.46463 0.851581,0.16987 z m 24.573232,-1.23091 c 0.258162,-0.15955 0.261561,-0.28935 0.01535,-0.58602 -0.252776,-0.30458 -0.196587,-0.50847 0.279901,-1.01567 0.327892,-0.34903 0.762086,-0.57092 0.964876,-0.4931 0.20279,0.0778 0.366886,0.0394 0.364657,-0.0853 -0.0104,-0.58192 -0.485008,-0.77705 -1.648413,-0.67772 -0.995299,0.085 -1.392958,0.27045 -1.918229,0.8947 -0.622962,0.74034 -0.95184,2.27978 -0.416338,1.94882 0.135465,-0.0837 0.32006,-0.0329 0.410211,0.11299 0.179441,0.29034 1.420201,0.22745 1.947989,-0.0987 z m 35.953002,0.21148 c -0.0879,-0.0879 -0.31613,-0.0973 -0.50712,-0.0209 -0.21107,0.0845 -0.14837,0.14715 0.15985,0.15985 0.27892,0.0115 0.43519,-0.051 0.34727,-0.13896 z m -0.45751,-0.78181 c 0,-0.22687 -0.11906,-0.3389 -0.26459,-0.24897 -0.14552,0.0899 -0.26458,0.27556 -0.26458,0.41249 0,0.13694 0.11906,0.24897 0.26458,0.24897 0.14553,0 0.26459,-0.18562 0.26459,-0.41249 z m -30.162494,-0.76252 c 0,-0.0642 -0.119062,-0.19026 -0.264583,-0.2802 -0.145521,-0.0899 -0.264583,-0.0374 -0.264583,0.11668 0,0.15411 0.119062,0.2802 0.264583,0.2802 0.145521,0 0.264583,-0.0525 0.264583,-0.11668 z m 33.602074,-0.67707 c 0.15576,-0.29104 0.19613,-0.52917 0.0897,-0.52917 -0.10643,0 0.15727,-0.38695 0.586,-0.85989 0.9535,-1.05183 1.44097,-1.89646 1.44097,-2.49673 0,-0.34753 0.0727,-0.38072 0.3112,-0.14217 0.22726,0.22725 0.40569,0.23279 0.66146,0.0205 0.45023,-0.37366 0.46703,-1.11684 0.0195,-0.86406 -0.1819,0.10275 -0.0594,-0.0767 0.27233,-0.39877 0.33167,-0.32208 0.89872,-1.05397 1.26009,-1.62641 0.36137,-0.57245 0.7746,-1.04082 0.9183,-1.04082 0.1437,0 0.26126,-0.3104 0.26126,-0.68977 0,-0.55314 -0.0917,-0.65201 -0.46302,-0.49915 -0.25466,0.10484 -0.64561,0.24379 -0.86877,0.30878 -0.22317,0.065 -0.68462,0.64381 -1.02545,1.28629 -0.34083,0.64247 -1.20004,1.77342 -1.90935,2.51322 -0.70931,0.73979 -1.28966,1.58735 -1.28966,1.88346 0,0.30642 -0.21659,0.59502 -0.50271,0.66984 -0.35931,0.094 -0.55259,0.46406 -0.67755,1.29737 -0.24489,1.633 0.29687,2.32372 0.91568,1.16746 z m -0.66146,0 c 0.0899,-0.14552 0.21603,-0.26458 0.2802,-0.26458 0.0642,0 0.11668,0.11906 0.11668,0.26458 0,0.14552 -0.12609,0.26458 -0.2802,0.26458 -0.15411,0 -0.20661,-0.11906 -0.11668,-0.26458 z m -17.52864,-0.99908 c 0.83674,-0.24262 1.52135,-0.5296 1.52135,-0.63775 0,-0.29304 -0.9471,-0.74442 -1.56196,-0.74442 -0.69714,0 -2.70956,1.04708 -2.53992,1.32155 0.0716,0.11578 -0.0417,0.27644 -0.25179,0.35704 -0.26764,0.10271 -0.33289,0.0189 -0.2181,-0.28026 0.10315,-0.2688 0.0575,-0.36115 -0.12317,-0.24946 -0.15782,0.0975 -0.34035,0.0278 -0.40561,-0.15504 -0.0653,-0.1828 -0.20275,-0.25467 -0.30552,-0.1597 -0.10276,0.095 -0.0298,0.42874 0.16222,0.74171 0.39152,0.63824 0.95432,0.60896 3.7225,-0.19367 z M 77.201059,159.0301 c -0.268953,-0.26896 -0.490867,0.13596 -0.270197,0.49302 0.166697,0.26972 0.229018,0.26993 0.318639,0.001 0.06128,-0.18383 0.03948,-0.40616 -0.04844,-0.49408 z m 68.631801,0.35352 c 0,-0.20271 -0.18135,-0.43816 -0.40299,-0.52321 -0.32879,-0.12617 -0.35144,-0.0583 -0.12299,0.36857 0.32824,0.61332 0.52598,0.67146 0.52598,0.15464 z m 8.77278,-0.0944 c 0.23305,-0.25466 0.80775,-0.75424 1.27713,-1.11017 0.46938,-0.35593 0.95246,-0.89171 1.07352,-1.19063 0.21651,-0.53458 0.22086,-0.53482 0.26544,-0.0143 0.0249,0.29104 0.18572,-0.24474 0.35731,-1.19062 0.33692,-1.85727 0.17434,-2.40463 -0.65021,-2.18901 -0.33942,0.0888 -0.70974,-0.074 -1.04311,-0.45834 -0.55647,-0.64161 -0.45205,-1.27828 0.13037,-0.79492 0.19059,0.15818 0.80506,0.24101 1.3655,0.18407 0.84519,-0.0859 1.06404,-0.23426 1.28314,-0.87006 0.14529,-0.42159 0.35511,-0.8856 0.46628,-1.03112 0.11117,-0.14552 0.66474,-0.96205 1.23015,-1.81451 0.93531,-1.41015 0.99189,-1.59211 0.62748,-2.01771 -0.22964,-0.2682 -0.6149,-0.41174 -0.90292,-0.33642 -0.3644,0.0953 -0.46086,0.0232 -0.3512,-0.26261 0.19656,-0.51224 -0.81568,-0.79632 -1.19762,-0.33612 -0.19329,0.23291 -0.1963,0.55751 -0.01,1.04825 0.14864,0.39097 0.26605,0.971 0.26089,1.28895 -0.009,0.55719 -0.023,0.55418 -0.3875,-0.0834 -0.37747,-0.66031 -0.37814,-0.66041 -0.3875,-0.0578 -0.005,0.33199 0.15013,0.66482 0.34508,0.73963 0.41616,0.1597 0.52929,1.65894 0.16827,2.22999 -0.19664,0.31105 -0.2509,0.31797 -0.25409,0.0324 -0.003,-0.28741 -0.0842,-0.29664 -0.38823,-0.0443 -0.2113,0.17536 -0.61547,0.24543 -0.89816,0.15571 -0.28739,-0.0912 -0.67312,-0.004 -0.87496,0.19784 -0.19853,0.19853 -0.50873,0.31171 -0.68933,0.25151 -0.21548,-0.0718 -0.32837,0.17941 -0.32837,0.73076 0,0.46212 -0.23147,1.13448 -0.51438,1.49414 -0.28291,0.35967 -0.44877,0.82493 -0.36857,1.03392 0.0802,0.209 0.0305,0.37999 -0.11055,0.37999 -0.36318,0 -0.87425,2.76592 -0.68548,3.70978 0.17873,0.89368 0.57267,1.00119 1.19134,0.32512 z m -0.0415,-4.01928 c 0,-0.13694 0.11907,-0.32256 0.26459,-0.41249 0.14552,-0.0899 0.26458,0.0221 0.26458,0.24897 0,0.22686 -0.11906,0.41248 -0.26458,0.41248 -0.14552,0 -0.26459,-0.11203 -0.26459,-0.24896 z m -39.54506,3.86098 c -0.26832,-0.19621 -0.4082,-0.48564 -0.31083,-0.64318 0.0974,-0.15754 0.0612,-0.35801 -0.0803,-0.44548 -0.30459,-0.18825 -0.0708,-0.93586 0.29264,-0.93586 0.13854,0 0.18174,0.11351 0.096,0.25224 -0.0857,0.13873 0.29418,0.37682 0.84428,0.5291 1.34696,0.37286 1.76799,0.67652 1.58807,1.14538 -0.12791,0.33333 -0.004,0.34984 0.82135,0.10938 1.22069,-0.3557 1.30581,-0.42511 0.85964,-0.70086 -0.48905,-0.30225 -0.19665,-0.96272 0.50774,-1.14692 0.39534,-0.10339 0.53264,-0.0459 0.44375,0.18571 -0.0708,0.18448 -0.042,0.47572 0.064,0.6472 0.12653,0.20473 0.31862,0.0602 0.55942,-0.42086 0.2017,-0.40296 0.53236,-0.93351 0.73479,-1.17901 0.20243,-0.24549 0.28984,-0.57291 0.19423,-0.7276 -0.0956,-0.15469 -0.006,-0.28126 0.20003,-0.28126 0.525,0 1.83621,-1.2687 1.70818,-1.6528 -0.19739,-0.59216 -1.83465,-0.72917 -2.56994,-0.21506 -0.36932,0.25822 -0.82032,0.41702 -1.00222,0.35288 -0.48275,-0.17022 -0.40446,0.29155 0.17414,1.02712 0.64339,0.81794 0.78755,1.58813 0.32727,1.74849 -0.25655,0.0894 -0.30992,-0.0282 -0.18768,-0.4133 0.22141,-0.69761 -0.1612,-0.91737 -1.02523,-0.58886 -0.55958,0.21275 -0.65944,0.38305 -0.52911,0.90233 0.11494,0.45795 0.0226,0.72036 -0.32463,0.92222 -0.27588,0.1604 -0.33806,0.28562 -0.14412,0.29019 0.2785,0.007 0.2785,0.0764 0,0.38019 -0.29252,0.31909 -0.40717,0.31324 -0.80418,-0.041 -0.55527,-0.49546 -0.60878,-0.89963 -0.0929,-0.70167 0.45809,0.17579 0.59046,-0.0299 0.82551,-1.28284 0.18533,-0.98788 0.18533,-0.98788 -0.83587,-0.91734 -0.56167,0.0388 -1.1998,0.18597 -1.41808,0.32705 -1.1322,0.73175 -1.55046,0.86973 -1.67249,0.55175 -0.0672,-0.17509 -0.54625,-0.4485 -1.06459,-0.60758 -0.94244,-0.28924 -0.94244,-0.28924 -0.79251,0.46039 0.14992,0.74963 0.14992,0.74963 -0.87222,0.45314 -0.56218,-0.16307 -1.20346,-0.44769 -1.42507,-0.6325 -0.53408,-0.4454 -0.93393,-0.14691 -1.12562,0.8403 -0.19413,0.99974 0.0713,1.50857 0.60948,1.16825 0.51973,-0.32868 1.12429,-0.32215 0.91906,0.01 -0.0899,0.14552 0.0221,0.26458 0.24897,0.26458 0.49266,0 0.53166,-0.30416 0.095,-0.74084 -0.70596,-0.70595 0.082,-0.25928 0.89648,0.50818 l 0.87623,0.82567 -0.82866,-0.15135 c -0.45577,-0.0832 -0.91297,-0.0678 -1.01601,0.0342 -0.29998,0.29716 1.71577,0.80455 3.2843,0.8267 1.27003,0.0179 1.38215,-0.0217 0.95176,-0.3364 z m -36.654926,-0.17243 c 0,-0.14552 -0.119063,-0.26458 -0.264584,-0.26458 -0.145521,0 -0.264583,0.11906 -0.264583,0.26458 0,0.14552 0.119062,0.26458 0.264583,0.26458 0.145521,0 0.264584,-0.11906 0.264584,-0.26458 z m 69.168076,-0.46302 c 0.46373,-0.40018 1.22359,-1.01331 1.68857,-1.36249 0.57535,-0.43207 0.84543,-0.85703 0.84543,-1.33026 0,-0.38246 0.23812,-0.89927 0.52916,-1.14847 0.74408,-0.6371 0.67912,-1.61151 -0.13653,-2.04803 -0.57023,-0.30518 -0.79467,-0.29478 -1.56489,0.0725 -0.49455,0.23583 -0.97692,0.67369 -1.07192,0.97302 -0.095,0.29933 -0.29835,0.54423 -0.45188,0.54423 -0.17857,0 -0.16513,0.13738 0.0373,0.38128 0.4643,0.55945 -0.73572,2.11457 -1.83914,2.38337 -0.0728,0.0177 -0.39779,0.17974 -0.72228,0.36004 -0.56017,0.31124 -0.58223,0.28899 -0.43637,-0.44031 0.16469,-0.82346 -0.13758,-1.19204 -0.77651,-0.94686 -0.4649,0.17839 -0.4141,1.23529 0.0885,1.84086 0.18918,0.22795 0.4948,0.35657 0.67916,0.28582 0.4914,-0.18857 1.96127,0.42898 1.96127,0.82401 0,0.4983 0.23133,0.42145 1.17017,-0.38873 z m 1.21108,-2.71198 c 0,-0.14552 0.17859,-0.26459 0.39688,-0.26459 0.21828,0 0.39687,0.11907 0.39687,0.26459 0,0.14552 -0.17859,0.26458 -0.39687,0.26458 -0.21829,0 -0.39688,-0.11906 -0.39688,-0.26458 z m -47.96408,1.84566 c -0.0318,-0.12145 0.17292,-0.39279 0.45489,-0.60298 0.49969,-0.37248 0.49466,-0.39886 -0.19843,-1.0412 -0.39112,-0.36247 -0.71112,-0.86077 -0.71112,-1.10733 0,-0.24657 -0.0975,-0.38804 -0.21666,-0.31439 -0.119162,0.0736 -0.245142,0.75807 -0.279952,1.52095 -0.0348,0.76288 -0.11665,1.47338 -0.18186,1.5789 -0.15291,0.24742 0.449572,0.45917 0.868542,0.30527 0.1773,-0.0651 0.29637,-0.21777 0.26459,-0.33922 z M 80.348528,157.1064 c 0.26339,-0.29104 0.632004,-0.52916 0.819143,-0.52916 0.621705,0 0.701439,-0.56585 0.135582,-0.96219 -0.42552,-0.29805 -0.55785,-0.67046 -0.55785,-1.56995 0,-0.64856 -0.110371,-1.38595 -0.245269,-1.63864 -0.40311,-0.75509 -0.635306,-1.49689 -0.578612,-1.84849 0.07303,-0.4529 -0.408372,-0.41946 -0.584923,0.0406 -0.07838,0.20425 -0.07037,0.64721 0.0178,0.98435 0.160302,0.613 0.160302,0.613 -0.645163,-0.0406 -0.847361,-0.68762 -0.894918,-1.17669 -0.08956,-0.92108 0.301193,0.0956 0.537846,-0.0114 0.64542,-0.29169 0.227258,-0.59223 -0.06553,-0.84807 -0.411115,-0.35923 -0.235386,0.33295 -0.256027,0.32854 -0.14281,-0.0306 0.139827,-0.44349 -1.20097,-2.07155 -1.749485,-2.1243 -0.174525,-0.0168 -0.495604,-0.0465 -0.713509,-0.0661 -0.217905,-0.0196 -0.396684,-0.15469 -0.397286,-0.30021 -0.0018,-0.43846 -1.203949,-1.98467 -1.539644,-1.98032 -0.220072,0.003 -0.226803,0.0616 -0.02272,0.19844 0.159495,0.10691 0.372507,0.5313 0.473361,0.9431 0.157517,0.64316 0.11549,0.72717 -0.298095,0.5959 -0.264805,-0.084 -1.351017,-0.19879 -2.413805,-0.25499 -1.062788,-0.0562 -2.059647,-0.22949 -2.215242,-0.38508 -0.352172,-0.35218 -1.260168,0.0785 -1.260168,0.59764 0,0.46586 2.32928,0.83999 2.730669,0.4386 0.397393,-0.39739 0.708915,-0.35632 0.708915,0.0935 0,0.20847 0.238767,0.45482 0.530594,0.54745 0.291827,0.0926 0.884702,0.46636 1.3175,0.83054 0.432799,0.36417 0.921718,0.57882 1.086487,0.47698 0.298771,-0.18465 0.761482,0.30675 0.761482,0.80869 0,0.14552 -0.115416,0.086 -0.25648,-0.13229 -0.29017,-0.44901 -0.344728,-0.25213 -0.103984,0.37523 0.08833,0.23019 0.271744,0.41852 0.407588,0.41852 0.135845,0 0.609758,0.26789 1.053142,0.59531 0.877307,0.64786 1.555272,1.96959 2.069648,4.0349 0.477787,1.91839 0.502979,1.98437 0.757628,1.98437 0.127534,0 0.44738,-0.23812 0.710769,-0.52917 z m 3.107295,-0.0661 c 0.296793,-0.45301 0.319879,-0.7078 0.09658,-1.06587 -0.427249,-0.68509 0.211102,-1.00634 1.872801,-0.94248 1.099335,0.0422 1.573274,-0.0846 2.38125,-0.63715 0.55481,-0.37945 1.93148,-1.12447 3.059267,-1.65561 1.884663,-0.88761 2.703736,-1.40678 1.5875,-1.00624 -0.27124,0.0973 -0.371524,0.0665 -0.242117,-0.0745 0.121497,-0.13233 0.657278,-0.2406 1.190625,-0.2406 0.761154,0 0.961817,-0.0996 0.932973,-0.46302 -0.02021,-0.25466 0.119458,-0.46302 0.310377,-0.46302 0.190918,0 0.699313,-0.35219 1.129766,-0.78264 0.727041,-0.72704 0.842786,-0.75994 1.629232,-0.46309 0.730689,0.2758 0.892522,0.25673 1.182101,-0.13929 0.184531,-0.25236 0.402838,-0.39151 0.485126,-0.30922 0.252279,0.25228 1.253266,-0.41616 1.253266,-0.83691 0,-0.5369 -0.793547,-0.8077 -1.067577,-0.36431 -0.121229,0.19616 -0.150348,0.47003 -0.0647,0.6086 0.0856,0.13858 0.0163,0.1658 -0.154071,0.0605 -0.170378,-0.1053 -0.241279,-0.30229 -0.157557,-0.43775 0.08372,-0.13547 -0.241757,-0.24813 -0.723288,-0.25036 -0.685852,-0.003 -0.789537,-0.0639 -0.478636,-0.2802 0.28837,-0.20066 0.07136,-0.23043 -0.79375,-0.10891 -1.784918,0.25071 -2.001883,0.34577 -2.373295,1.03976 -0.276191,0.51607 -0.428147,0.58363 -0.796001,0.3539 -0.43411,-0.27111 -1.539974,0.1 -3.577578,1.20043 -0.291042,0.15718 -1.184011,0.64054 -1.984375,1.07412 -0.800365,0.43359 -1.931459,1.16389 -2.513542,1.62288 -0.582083,0.459 -1.450901,0.99026 -1.930706,1.18058 -1.029923,0.40852 -1.534539,1.30287 -1.608726,2.85118 -0.04563,0.95224 0.02415,1.12448 0.455576,1.12448 0.2802,0 0.684968,-0.26789 0.899484,-0.59531 z m 15.399572,-0.48562 c -0.08519,-0.13784 -0.267667,-0.18092 -0.405507,-0.0957 -0.137839,0.0852 -0.180916,0.26767 -0.09573,0.40551 0.08519,0.13784 0.267667,0.18092 0.405507,0.0957 0.137839,-0.0852 0.180916,-0.26767 0.09573,-0.40551 z m 40.991305,-0.80422 c 0.28925,-1.44629 0.21008,-1.66674 -0.355,-0.98843 -0.43654,0.524 -0.52179,0.55004 -0.52917,0.1616 -0.005,-0.25466 0.0867,-0.46302 0.20334,-0.46302 0.30842,0 0.31635,-1.92798 0.009,-2.29938 -0.37338,-0.45186 -1.01535,-0.122 -1.01535,0.52173 0,0.53307 -0.0168,0.53117 -0.66146,-0.0744 -0.67382,-0.63302 -0.91378,-1.24551 -0.35191,-0.89825 0.20562,0.12708 0.25503,0.0492 0.14715,-0.23188 -0.0893,-0.23275 -0.0531,-0.46064 0.0806,-0.50642 0.13363,-0.0458 0.17259,-0.35113 0.0866,-0.67856 -0.11839,-0.45063 -0.34967,-0.59531 -0.95169,-0.59531 -0.65969,0 -0.74174,0.0645 -0.48122,0.37842 0.46506,0.56037 -0.53403,1.01433 -1.73605,0.78883 -0.88656,-0.16632 -0.93145,-0.14321 -0.67014,0.34505 0.20345,0.38015 0.19298,0.61044 -0.0383,0.84184 -0.24815,0.24831 -0.10122,0.29463 0.66641,0.21012 0.54161,-0.0596 0.92154,-0.006 0.84428,0.11887 -0.0773,0.12501 0.10468,0.22729 0.40431,0.22729 0.33938,0 0.54781,-0.17457 0.55283,-0.46302 0.008,-0.44097 0.0209,-0.44097 0.27773,0 0.14832,0.25466 0.44236,0.46302 0.65341,0.46302 0.21105,0 0.38373,0.0932 0.38373,0.20709 0,0.38557 1.88591,3.76166 2.10129,3.76166 0.1176,0 0.28823,-0.37207 0.37918,-0.82682 z m -111.576989,-0.0425 c 0,-0.1871 -0.218282,-0.34018 -0.48507,-0.34018 -0.499294,0 -0.61832,0.19433 -0.30868,0.50397 0.297946,0.29795 0.79375,0.19564 0.79375,-0.16379 z m 73.898529,-1.16556 c 0.005,-0.31883 0.13063,-0.65523 0.28002,-0.74755 0.14938,-0.0923 0.25016,-0.30771 0.22396,-0.47864 -0.0262,-0.17093 0.15572,-0.76895 0.40425,-1.32893 0.54027,-1.21729 0.46424,-1.89226 -0.21314,-1.89226 -0.52703,0 -0.61118,0.11555 -1.44511,1.98437 -0.41814,0.93703 -0.48605,1.43013 -0.31884,2.31511 0.11686,0.61846 0.1619,1.12447 0.10009,1.12447 -0.0618,0 -0.0344,0.12619 0.0609,0.28042 0.23954,0.38758 0.89719,-0.52299 0.90784,-1.25699 z m 9.79799,-0.21629 c 0,-0.86205 0.0377,-0.90471 0.52916,-0.59782 0.29105,0.18176 0.52917,0.53996 0.52917,0.796 0,0.25603 0.068,0.46552 0.15119,0.46552 0.25964,0 0.90714,-0.74193 0.90714,-1.03944 0,-0.15591 0.11104,-0.28348 0.24676,-0.28348 0.26671,0 0.69342,-1.03976 0.58626,-1.42854 -0.0361,-0.13085 0.006,-0.42517 0.0941,-0.65404 0.13526,-0.35247 0.19524,-0.3586 0.39208,-0.0401 0.18059,0.29219 0.33965,0.18142 0.71338,-0.49676 0.26453,-0.48003 0.92429,-1.43957 1.46614,-2.1323 0.54184,-0.69273 0.89903,-1.35482 0.79375,-1.47131 -0.10528,-0.11648 -0.0351,-0.1215 0.15598,-0.0112 0.53117,0.30676 1.37239,-0.61782 1.37239,-1.5084 0,-0.69519 -0.0709,-0.76363 -0.64232,-0.62021 -0.40361,0.1013 -0.78991,0.0136 -1.03944,-0.2359 -0.57991,-0.57991 -0.9017,-0.49671 -1.78998,0.46278 -0.94642,1.02228 -1.63212,2.52213 -1.45781,3.18868 0.0848,0.32427 -0.0731,0.55373 -0.48998,0.71224 -0.8128,0.30903 -1.67973,1.2536 -2.12978,2.32051 -0.20037,0.47499 -0.54758,0.93395 -0.7716,1.01991 -0.22402,0.086 -0.34977,0.2494 -0.27944,0.36318 0.0703,0.11378 -0.0494,0.35401 -0.26611,0.53384 -0.47639,0.39537 -0.50325,0.84079 -0.0765,1.26758 0.59915,0.59915 1.00542,0.35234 1.00542,-0.61078 z m 4.49791,-7.02483 c 0,-0.15411 0.11907,-0.20662 0.26459,-0.11668 0.14552,0.0899 0.26458,0.21603 0.26458,0.2802 0,0.0642 -0.11906,0.11667 -0.26458,0.11667 -0.14552,0 -0.26459,-0.12608 -0.26459,-0.28019 z m 28.62792,6.89478 c 0.26446,0 0.47625,-0.19242 0.47625,-0.43268 0,-0.65161 -1.25473,-1.68241 -2.06415,-1.69577 -0.71113,-0.0117 -0.71178,-0.0136 -0.16316,-0.45664 0.55082,-0.44486 0.55082,-0.44486 0,-0.90546 -0.48622,-0.40658 -0.49652,-0.46163 -0.0878,-0.4694 0.49661,-0.009 0.63568,-0.66461 0.19843,-0.93484 -0.45887,-0.2836 -0.30052,-0.97271 0.19844,-0.86359 0.25466,0.0557 0.43015,0.25235 0.38997,0.43701 -0.0426,0.19567 0.12218,0.29815 0.3949,0.24563 0.33974,-0.0654 0.5284,-0.46985 0.68855,-1.47594 0.12132,-0.7622 0.33057,-1.38582 0.46499,-1.38582 0.2985,0 0.32872,-1.76875 0.0333,-1.9513 -0.11609,-0.0717 -0.38398,-0.0102 -0.59531,0.13682 -0.29199,0.2031 -0.30484,0.29948 -0.0535,0.40146 0.47483,0.19267 0.40994,0.70628 -0.0661,0.52359 -0.26739,-0.10261 -0.39687,0.0125 -0.39687,0.35295 0,0.27789 -0.12485,0.58241 -0.27743,0.67671 -0.19192,0.11861 -0.18803,0.27919 0.0126,0.52094 0.22024,0.26537 0.14406,0.45174 -0.31651,0.77433 -0.35853,0.25113 -0.64339,0.31429 -0.69666,0.15448 -0.0496,-0.1487 -0.19382,-0.20628 -0.32056,-0.12795 -0.12673,0.0783 -0.16277,0.31871 -0.0801,0.53419 0.0827,0.21547 0.006,0.56547 -0.17002,0.77777 -0.86395,1.041 -0.7081,3.67861 0.19949,3.37608 0.42852,-0.14284 0.42436,0.63834 -0.004,0.84227 -0.1819,0.0865 -0.0695,0.1093 0.24985,0.0507 0.46575,-0.0855 0.61495,0.0499 0.75437,0.68468 0.12628,0.57497 0.25327,0.7118 0.46453,0.50054 0.1599,-0.1599 0.50504,-0.29073 0.76698,-0.29073 z m -0.65374,-5.45152 c -0.10611,-0.10611 -0.19293,-0.37549 -0.19293,-0.59862 0,-0.29781 0.0783,-0.32742 0.29435,-0.11135 0.16189,0.1619 0.24871,0.43127 0.19293,0.59862 -0.0558,0.16735 -0.18824,0.21746 -0.29435,0.11135 z m -125.509734,4.52548 c -0.161025,-0.41963 -0.624847,-0.55056 -0.624847,-0.17639 0,0.2798 0.289212,0.57326 0.56496,0.57326 0.1167,0 0.143649,-0.17859 0.05989,-0.39687 z m 120.999634,-0.44649 c -0.0845,-0.21106 -0.14716,-0.14837 -0.15985,0.15985 -0.0115,0.27892 0.051,0.43519 0.13896,0.34727 0.0879,-0.0879 0.0973,-0.31612 0.0209,-0.50712 z m 27.99738,0.31419 c 0.0899,-0.14552 -0.0291,-0.26458 -0.26458,-0.26458 -0.23546,0 -0.35452,0.11906 -0.26459,0.26458 0.0899,0.14553 0.209,0.26459 0.26459,0.26459 0.0556,0 0.17464,-0.11906 0.26458,-0.26459 z m -21.11822,-0.84335 c -0.0845,-0.21107 -0.14715,-0.14838 -0.15985,0.15985 -0.0115,0.27891 0.0511,0.43518 0.13897,0.34726 0.0879,-0.0879 0.0973,-0.31612 0.0209,-0.50711 z m 7.30025,-0.72882 c 0.14881,-0.56903 -0.0237,-0.87056 -0.37414,-0.65398 -0.29978,0.18528 -0.29469,1.16782 0.006,1.16782 0.12855,0 0.2942,-0.23123 0.3681,-0.51384 z m -21.10703,-0.0153 c 0.0899,-0.14552 -0.0221,-0.26458 -0.24897,-0.26458 -0.22687,0 -0.41249,0.11906 -0.41249,0.26458 0,0.14553 0.11204,0.26459 0.24897,0.26459 0.13694,0 0.32256,-0.11906 0.41249,-0.26459 z m -5.04038,-1.87294 c 0.2343,-1.03012 0.54428,-3.42724 0.68885,-5.32693 0.14457,-1.89969 0.32154,-3.54895 0.39328,-3.66502 0.0717,-0.11607 0.0219,-0.27812 -0.11075,-0.3601 -0.30985,-0.19149 -0.58922,0.52537 -0.39847,1.02247 0.0804,0.20944 0.0207,0.59639 -0.13255,0.85989 -0.21903,0.37656 -0.2804,0.15569 -0.28672,-1.03195 -0.006,-1.20217 0.10583,-1.61715 0.54905,-2.03007 0.43171,-0.4022 0.57434,-0.89584 0.63368,-2.19312 0.0421,-0.92076 0.14536,-2.95402 0.22945,-4.51837 0.0841,-1.5654 0.0488,-2.84427 -0.0786,-2.84427 -0.12733,0 -0.35603,-0.35719 -0.50821,-0.79375 -0.39821,-1.14231 -1.16219,-1.06839 -1.06129,0.10269 0.0425,0.49304 -0.0757,1.08073 -0.26264,1.30597 -0.54683,0.65888 -0.32005,4.11014 0.32906,5.00805 0.38054,0.5264 0.5847,0.63638 0.73676,0.39688 0.12687,-0.19981 0.21197,0.045 0.21441,0.61679 0.005,1.10754 -0.20565,1.41121 -0.69584,1.00439 -0.19344,-0.16054 -0.53716,-0.22072 -0.76384,-0.13374 -0.34235,0.13137 -0.41434,0.72999 -0.42518,3.53533 -0.007,1.85745 -0.057,4.03202 -0.11078,4.83239 -0.23963,3.56811 -0.24126,4.41837 -0.01,5.22552 0.13551,0.47294 0.33592,0.85989 0.44537,0.85989 0.10944,0 0.39068,-0.84282 0.62497,-1.87294 z m -0.91274,-0.7885 c 0,-0.15411 0.11906,-0.20662 0.26458,-0.11668 0.14552,0.0899 0.26458,0.21603 0.26458,0.2802 0,0.0642 -0.11906,0.11667 -0.26458,0.11667 -0.14552,0 -0.26458,-0.12608 -0.26458,-0.28019 z m 1.39183,-16.3052 c -0.36943,-0.7956 -0.28101,-1.01511 0.31655,-0.7858 0.40396,0.15501 0.59259,1.49811 0.20985,1.49413 -0.10914,-0.001 -0.34602,-0.31988 -0.5264,-0.70833 z m 10.33375,18.27453 c -0.12307,-0.32072 -0.20359,-0.33611 -0.36786,-0.0703 -0.24803,0.40133 -0.0468,0.83458 0.29067,0.62598 0.12911,-0.0798 0.16385,-0.32985 0.0772,-0.55567 z m -98.13519,0.26752 c 0.229348,-0.088 0.342894,-0.27992 0.252326,-0.42646 -0.09057,-0.14654 -0.004,-0.36572 0.192295,-0.48706 0.19633,-0.12134 0.2657,-0.31188 0.154156,-0.42342 -0.111545,-0.11155 -0.433903,-0.0585 -0.716352,0.1179 -0.803781,0.50197 -1.12499,0.39087 -0.985133,-0.34074 0.07331,-0.38349 0.0029,-0.66316 -0.167593,-0.66551 -0.161722,-0.002 -0.115446,-0.12491 0.102836,-0.27262 0.289839,-0.19614 0.182804,-0.22069 -0.396875,-0.091 -1.012337,0.22644 -1.175736,0.36769 -0.425358,0.36769 0.345192,0 0.517583,0.11536 0.416589,0.27877 -0.129847,0.2101 0.86529,2.09067 1.111608,2.10067 0.02448,10e-4 0.232154,-0.0702 0.461501,-0.1582 z m 105.98877,-0.25248 c 0,-0.22687 -0.10889,-0.34519 -0.24198,-0.26293 -0.13309,0.0822 -0.30229,-2e-5 -0.37599,-0.18283 -0.0844,-0.20923 -0.14174,-0.169 -0.15489,0.1086 -0.0173,0.36618 0.16987,0.55923 0.70672,0.72876 0.0364,0.0115 0.0661,-0.16473 0.0661,-0.3916 z m -8.55051,-0.69545 c -0.0845,-0.21107 -0.14715,-0.14837 -0.15985,0.15985 -0.0115,0.27892 0.0511,0.43519 0.13897,0.34727 0.0879,-0.0879 0.0973,-0.31613 0.0209,-0.50712 z m -40.13281,0.0496 c 0,-0.14552 -0.12609,-0.26459 -0.280199,-0.26459 -0.154109,0 -0.206613,0.11907 -0.116676,0.26459 0.08994,0.14552 0.216026,0.26458 0.280198,0.26458 0.06417,0 0.116677,-0.11906 0.116677,-0.26458 z m 46.83124,-0.14791 c 0,-0.22687 -0.11906,-0.3389 -0.26458,-0.24897 -0.14552,0.0899 -0.26459,0.27556 -0.26459,0.41249 0,0.13694 0.11907,0.24897 0.26459,0.24897 0.14552,0 0.26458,-0.18562 0.26458,-0.41249 z m 11.33606,0.0125 c 0.0869,-0.0869 0.0133,-0.24739 -0.16348,-0.35667 -0.45759,-0.2828 0.19325,-2.6736 0.94852,-3.48428 0.69674,-0.74787 0.75385,-2.00617 0.13138,-2.89487 -0.24614,-0.35141 -0.42239,-1.01217 -0.39167,-1.46836 0.0782,-1.16092 -0.6817,-1.82744 -1.65955,-1.45566 -0.39637,0.1507 -0.84118,0.19951 -0.98848,0.10847 -0.15543,-0.0961 -0.22279,0.0419 -0.16052,0.32884 0.059,0.2719 0.25236,0.46349 0.42967,0.42576 0.35173,-0.0748 0.73537,0.65511 0.47903,0.91146 -0.0872,0.0872 -0.34006,0.008 -0.56186,-0.1761 -0.46208,-0.38349 -0.48048,-0.31433 -0.40696,1.52997 0.025,0.62613 -0.0666,1.28097 -0.20353,1.45521 -0.39959,0.5086 0.0343,3.37398 0.55499,3.66539 0.48146,0.26944 0.6148,1.01704 0.1814,1.01704 -0.14552,0 -0.26458,0.19417 -0.26458,0.4315 0,0.34818 0.18513,0.40145 0.95882,0.27589 0.52735,-0.0856 1.02992,-0.22669 1.11682,-0.31359 z m -1.66948,-4.5178 c -0.52876,-0.80699 -0.31218,-1.22947 0.24961,-0.48689 0.35718,0.47211 0.53667,1.17131 0.3007,1.17131 -0.056,0 -0.30366,-0.30799 -0.55031,-0.68442 z m 14.4105,4.25629 c 0,-0.21828 -0.17859,-0.39687 -0.39687,-0.39687 -0.21828,0 -0.39688,0.12609 -0.39688,0.2802 0,0.15411 0.11907,0.20661 0.26459,0.11667 0.14552,-0.0899 0.26458,-0.0374 0.26458,0.11668 0,0.15411 0.0595,0.2802 0.13229,0.2802 0.0728,0 0.13229,-0.1786 0.13229,-0.39688 z M 31.98908,149.5204 c 0.06564,-0.19714 -0.09487,-0.25812 -0.441096,-0.16758 -0.299352,0.0783 -0.544276,0.25624 -0.544276,0.39546 0,0.35126 0.85867,0.15268 0.985372,-0.22788 z m 5.100045,-0.50245 c 0,-0.0728 -0.238125,-0.005 -0.529167,0.1509 -0.291042,0.15577 -0.529167,0.34274 -0.529167,0.4155 0,0.0728 0.238125,0.005 0.529167,-0.15091 0.291042,-0.15576 0.529167,-0.34273 0.529167,-0.41549 z m 1.5875,0.41549 c 0,-0.14552 -0.119063,-0.26459 -0.264584,-0.26459 -0.14552,0 -0.264583,0.11907 -0.264583,0.26459 0,0.14552 0.119063,0.26458 0.264583,0.26458 0.145521,0 0.264584,-0.11906 0.264584,-0.26458 z m 2.309592,-0.42444 c -0.08792,-0.0879 -0.316122,-0.0973 -0.507118,-0.0209 -0.211067,0.0845 -0.148372,0.14716 0.159852,0.15986 0.278915,0.0115 0.435184,-0.0511 0.347266,-0.13897 z m 123.896643,-0.35041 c 0,-0.28065 -0.17859,-0.68886 -0.39687,-0.90715 -0.21828,-0.21828 -0.39688,-0.56321 -0.39688,-0.76652 0,-0.34584 -0.82201,-1.23521 -1.48416,-1.60579 -0.60949,-0.34111 -0.13587,1.36557 0.81361,2.93183 0.57769,0.95296 1.4643,1.16344 1.4643,0.34763 z M 60.000578,146.09588 c -0.181952,-0.47416 -1.215621,-0.47876 -1.215621,-0.005 0,0.19865 0.234226,0.65896 0.520501,1.0229 0.286275,0.36394 0.452946,0.72926 0.37038,0.81183 -0.08257,0.0826 -0.0489,0.30686 0.07481,0.49845 0.255568,0.39577 0.482826,-1.72085 0.249927,-2.32777 z m -116.213687,0.29485 c -0.08376,-0.21828 -0.199088,-0.39688 -0.256279,-0.39688 -0.05719,0 -0.103985,0.1786 -0.103985,0.39688 0,0.21828 0.115326,0.39687 0.25628,0.39687 0.140953,0 0.187746,-0.17859 0.103984,-0.39687 z m 99.912765,-1.12448 c 0.0081,-0.65722 -0.393838,-0.31284 -0.433505,0.37148 -0.02911,0.50218 0.02619,0.59621 0.194386,0.33054 0.129287,-0.20421 0.236891,-0.52012 0.239119,-0.70202 z m 109.187604,0.13229 c -0.0734,-0.1819 -0.13345,-0.0331 -0.13345,0.33073 0,0.3638 0.06,0.51263 0.13345,0.33073 0.0734,-0.1819 0.0734,-0.47956 0,-0.66146 z m -81.452087,0.13533 c -0.04872,-0.25299 -0.286243,-0.49805 -0.527825,-0.54457 -0.32752,-0.0631 -0.40302,0.0539 -0.296832,0.45998 0.173376,0.66299 0.951417,0.7428 0.824657,0.0846 z m -1.537716,-0.0609 c 0,-0.14095 -0.178594,-0.18774 -0.396875,-0.10398 -0.218281,0.0838 -0.396875,0.19909 -0.396875,0.25628 0,0.0572 0.178594,0.10398 0.396875,0.10398 0.218281,0 0.396875,-0.11532 0.396875,-0.25628 z m 91.306563,-0.43569 c 0.30688,-0.36977 0.28745,-0.41436 -0.14411,-0.33073 -0.27435,0.0532 -0.54838,0.24549 -0.60894,0.42739 -0.15715,0.47199 0.33337,0.40902 0.75305,-0.0967 z M 43.780371,144.14177 c -0.07611,-0.29104 -0.184025,-0.52917 -0.239814,-0.52917 -0.05579,0 -0.101432,0.23813 -0.101432,0.52917 0,0.29104 0.107915,0.52917 0.239813,0.52917 0.131897,0 0.177542,-0.23813 0.101433,-0.52917 z m 27.467004,-0.7276 c 0.377708,-0.40019 0.713201,-0.84667 0.745539,-0.99219 0.03234,-0.14552 0.228259,-0.35942 0.435378,-0.47533 0.539248,-0.30178 2.436431,-3.16297 2.642988,-3.98596 0.09586,-0.38193 0.280653,-0.62869 0.410651,-0.54835 0.365008,0.22559 0.261525,-2.74354 -0.156654,-4.49472 -0.20579,-0.86178 -0.627692,-1.81428 -0.937559,-2.11667 -0.563395,-0.5498 -0.563395,-0.5498 0.01024,0.43796 0.695491,1.1976 0.595798,1.86194 -0.157992,1.05284 -0.287572,-0.30867 -0.995326,-0.71559 -1.572786,-0.90426 -0.755671,-0.24689 -1.073624,-0.50981 -1.134476,-0.93812 -0.06705,-0.47193 -0.255497,-0.5951 -0.910466,-0.5951 -0.783015,0 -0.799239,0.0202 -0.312327,0.38846 0.503517,0.38084 0.502549,0.38863 -0.04933,0.39688 -0.685104,0.0102 -1.219262,0.59631 -1.019042,1.11807 0.08083,0.21064 0.737745,0.5344 1.45981,0.71946 0.809467,0.20746 1.51402,0.59222 1.837521,1.00348 0.31742,0.40354 0.683205,0.60618 0.926005,0.51301 0.220731,-0.0847 0.40133,-0.0514 0.40133,0.074 0,0.12539 -0.186803,0.29966 -0.415118,0.38727 -0.268435,0.10301 -0.358123,0.33887 -0.253821,0.6675 0.08871,0.27951 0.03739,0.58478 -0.114048,0.67837 -0.151441,0.0936 -0.278519,0.37151 -0.282396,0.61758 -0.006,0.3807 -1.57935,2.72104 -2.69769,4.01278 -0.185883,0.21471 -0.337969,0.51236 -0.337969,0.66146 0,0.1491 -0.146535,0.27109 -0.325634,0.27109 -0.179098,0 -0.515433,0.27097 -0.747411,0.60217 -0.405691,0.5792 -0.391761,0.61263 0.365274,0.87654 0.432877,0.1509 0.847363,0.505 0.921078,0.78689 0.181073,0.69242 0.456412,0.64575 1.268903,-0.21508 z m 1.428207,-11.17865 c -0.08994,-0.14552 -0.03743,-0.26458 0.116677,-0.26458 0.154109,0 0.280198,0.11906 0.280198,0.26458 0,0.14552 -0.0525,0.26458 -0.116677,0.26458 -0.06417,0 -0.190261,-0.11906 -0.280198,-0.26458 z m 80.032398,10.23699 c -0.003,-0.47128 -0.052,-0.50548 -0.26053,-0.18282 -0.33687,0.52126 -0.33687,1.13423 0,0.92604 0.14552,-0.0899 0.26276,-0.42439 0.26053,-0.74322 z m 0.11469,-2.27704 c -0.16427,-0.16428 -0.2894,0.0344 -0.48568,0.7713 l -0.1762,0.66146 0.38626,-0.66106 c 0.21245,-0.36358 0.33647,-0.71085 0.27562,-0.7717 z m -109.550693,0.78455 c 0.468255,-0.17803 0.704777,-0.15874 0.810975,0.0661 0.113674,0.24072 0.187871,0.23562 0.306876,-0.0211 0.180764,-0.38994 3.010205,-2.31744 3.743461,-2.55016 0.56124,-0.17813 1.213773,-1.7358 0.981128,-2.34206 -0.08532,-0.22233 -0.02794,-0.48283 0.127503,-0.5789 0.461298,-0.2851 0.32216,-0.67261 -0.241505,-0.67261 -0.338408,0 -0.582951,0.23438 -0.690141,0.66146 -0.187874,0.74855 -0.219548,0.76233 -0.906917,0.39446 -0.40629,-0.21744 -0.754466,-0.0578 -1.875734,0.8599 -1.571621,1.28631 -2.168068,2.03382 -2.746427,3.442 -0.450107,1.09591 -0.448694,1.09804 0.490781,0.74085 z m 87.339523,-5.5695 c 0.0821,-1.52797 0.25806,-4.02656 0.39105,-5.55242 0.22684,-2.60278 0.2023,-3.19109 -0.11971,-2.86909 -0.0733,0.0733 -0.25087,2.26608 -0.3945,4.87275 -0.14363,2.60666 -0.31673,5.69189 -0.38466,6.85605 -0.10745,1.84121 -0.0922,1.94451 0.11753,0.79375 0.13257,-0.7276 0.30821,-2.57307 0.39029,-4.10104 z m 23.55574,4.23333 c 0.0899,-0.14552 0.0374,-0.26458 -0.11668,-0.26458 -0.15411,0 -0.2802,0.11906 -0.2802,0.26458 0,0.14553 0.0525,0.26459 0.11668,0.26459 0.0642,0 0.19026,-0.11906 0.2802,-0.26459 z m -5.02232,-2.90271 c -0.0584,-0.0946 0.0252,-0.69001 0.18597,-1.32322 0.27876,-1.09826 0.25802,-1.18072 -0.45039,-1.79006 -0.54173,-0.46598 -0.79663,-0.55138 -0.94229,-0.31569 -0.14027,0.22696 -0.23787,0.17391 -0.32807,-0.17835 -0.11134,-0.43484 -0.13247,-0.42444 -0.15908,0.0783 -0.0169,0.31884 -0.14456,0.65007 -0.28372,0.73608 -0.13917,0.086 -0.17641,0.36093 -0.0828,0.61093 0.14879,0.39718 0.11394,0.40872 -0.27614,0.0914 -0.6775,-0.5511 -0.53826,0.0811 0.21505,0.97633 0.3638,0.43236 0.66146,0.85447 0.66146,0.93804 0,0.2678 -0.91354,-0.15523 -1.28714,-0.59603 -0.29515,-0.34826 -0.33965,-0.35358 -0.24368,-0.0292 0.0646,0.21828 0.40416,0.54101 0.75465,0.71718 0.65191,0.32767 2.42793,0.39461 2.23614,0.0843 z m -96.490601,-0.75455 c 0.04789,-0.338 0.01074,-0.81348 -0.08256,-1.05661 -0.146542,-0.38188 -0.238626,-0.35225 -0.676499,0.21768 -0.714624,0.93015 -0.678967,1.64535 0.07668,1.53803 0.389095,-0.0553 0.625473,-0.29743 0.682382,-0.6991 z m 97.832691,0.14388 c 0.029,-0.17769 0.0793,-0.44214 0.11187,-0.58766 0.15302,-0.6845 -0.0458,-1.19025 -0.46654,-1.18657 -0.29871,0.003 -0.35462,0.073 -0.15755,0.19844 0.16801,0.10691 0.27544,0.64258 0.23873,1.19038 -0.0601,0.89711 0.14323,1.18366 0.27349,0.38541 z m -92.746424,-2.50589 c 0.424575,-1.31814 0.756918,-1.69656 1.330195,-1.51461 0.666645,0.21159 1.178565,-0.75058 0.638028,-1.19918 -0.225889,-0.18747 -0.582772,-0.23739 -0.854336,-0.1195 -0.256515,0.11135 -0.644677,0.21397 -0.862582,0.22803 -0.217905,0.0141 -0.399683,0.20417 -0.403952,0.42245 -0.005,0.25486 -0.224631,0.37319 -0.61384,0.33069 -0.483805,-0.0528 -0.574426,0.0335 -0.449189,0.42812 0.11793,0.37157 -0.03793,0.57501 -0.627646,0.81928 -0.431494,0.17873 -0.898307,0.25465 -1.037363,0.16871 -0.287827,-0.17789 -0.646448,0.56591 -0.436579,0.90549 0.0759,0.12281 0.537399,0.15847 1.025555,0.0793 0.51824,-0.0841 0.963098,-0.0218 1.0691,0.14972 0.361855,0.58549 0.909897,0.27241 1.222609,-0.69845 z m -95.876969,-1.43867 c -0.08446,-0.21107 -0.147156,-0.14837 -0.159852,0.15985 -0.01149,0.27892 0.05105,0.43519 0.138964,0.34727 0.08792,-0.0879 0.09732,-0.31612 0.02089,-0.50712 z M 72.767761,129.5593 c -0.658835,-0.41752 -0.769278,-0.23945 -0.297784,0.48014 0.401244,0.61238 0.481361,0.64523 0.561299,0.23014 0.05129,-0.2663 -0.0673,-0.58593 -0.263515,-0.71028 z m -110.258303,-0.30475 c -0.261306,-0.25936 -0.291697,-0.22897 -0.148112,0.14811 0.09936,0.26094 0.247304,0.40778 0.328766,0.32632 0.08146,-0.0815 1.67e-4,-0.29496 -0.180654,-0.47443 z m 167.094472,-1.05392 c -0.0734,-0.18191 -0.13346,-0.0331 -0.13346,0.33072 0,0.36381 0.0601,0.51263 0.13346,0.33073 0.0734,-0.1819 0.0734,-0.47955 0,-0.66145 z m -4.22783,-0.51264 c -0.0845,-0.21106 -0.14715,-0.14837 -0.15985,0.15986 -0.0115,0.27891 0.0511,0.43518 0.13897,0.34726 0.0879,-0.0879 0.0973,-0.31612 0.0209,-0.50712 z m -20.28907,0.0496 c 0,-0.14552 -0.0525,-0.26458 -0.11668,-0.26458 -0.0642,0 -0.19026,0.11906 -0.28019,0.26458 -0.0899,0.14553 -0.0374,0.26459 0.11667,0.26459 0.15411,0 0.2802,-0.11906 0.2802,-0.26459 z m 24.34167,-0.52916 c 0,-0.14552 -0.12609,-0.26459 -0.2802,-0.26459 -0.15411,0 -0.20661,0.11907 -0.11668,0.26459 0.0899,0.14552 0.21603,0.26458 0.2802,0.26458 0.0642,0 0.11668,-0.11906 0.11668,-0.26458 z m -26.55664,-1.37268 c -0.32744,-0.18325 -0.44309,-0.69835 -0.48183,-2.1462 l -0.051,-1.90508 -0.0954,1.71082 c -0.0959,1.71973 0.2938,3.05455 0.80039,2.74145 0.14566,-0.09 0.0704,-0.26522 -0.17216,-0.40099 z m -41.989032,-1.18496 c 0.01023,-0.3153 -0.116125,-0.61817 -0.280784,-0.67306 -0.16466,-0.0549 -0.330261,-0.49235 -0.368004,-0.97213 -0.08114,-1.03144 -0.655533,-1.80003 -0.655533,-0.87717 0,0.32014 0.107157,0.58208 0.238125,0.58208 0.130969,0 0.238125,0.40558 0.238125,0.90129 0,0.49571 0.08829,1.29939 0.196198,1.78594 0.170344,0.76807 0.223679,0.81491 0.404737,0.35548 0.114697,-0.29104 0.216908,-0.78714 0.227136,-1.10243 z m 7.691512,-6.3059 c 0,-0.21829 -0.171567,-0.39688 -0.38126,-0.39688 -0.442024,0 -0.740411,0.37763 -0.493491,0.62455 0.316218,0.31622 0.874751,0.17085 0.874751,-0.22767 z m 80.82513,-0.71272 c -0.37634,-0.29603 -0.76728,-0.44883 -0.86876,-0.33956 -0.10148,0.10927 -0.029,0.25405 0.16099,0.32172 0.19002,0.0677 0.48767,0.277 0.66145,0.46517 0.17379,0.18817 0.40926,0.28561 0.52327,0.21652 0.11402,-0.0691 -0.10061,-0.36782 -0.47695,-0.66385 z M 41.367027,116.82842 c -0.196339,-0.19634 -0.230773,-0.093 -0.115686,0.34706 0.09356,0.35777 0.213493,0.4777 0.279546,0.27955 0.06363,-0.19089 -0.01011,-0.47286 -0.16386,-0.62661 z m 27.727806,0.33693 c 0.25138,-0.15898 0.521978,-0.13427 0.76849,0.0702 0.288838,0.23958 0.273406,0.10847 -0.06407,-0.5443 -0.244506,-0.47294 -0.497972,-0.8599 -0.563258,-0.8599 -0.06529,0 -0.303412,0.35719 -0.529167,0.79375 -0.419527,0.81128 -0.301145,0.97611 0.388001,0.54025 z m 1.219276,-1.12147 c -0.398508,-0.56895 -0.416652,-0.57155 -0.416652,-0.0597 0,0.29432 0.14734,0.68246 0.327422,0.86254 0.502092,0.50209 0.570723,-0.11538 0.08923,-0.80281 z m -30.466661,0.02 c -0.171467,-0.27744 -0.641657,-0.0547 -0.641657,0.30393 0,0.13237 0.17791,0.1724 0.395356,0.089 0.217445,-0.0834 0.328281,-0.26024 0.246301,-0.39288 z m -75.879002,-0.894 c 0.08376,-0.21829 0.06725,-0.60524 -0.0367,-0.8599 -0.173498,-0.42505 -0.206843,-0.41962 -0.406586,0.0661 -0.119673,0.29104 -0.225956,0.67799 -0.236184,0.85989 -0.0261,0.46423 0.495433,0.41346 0.679473,-0.0661 z m 96.018228,-0.36193 c -0.08627,-0.27182 -0.03771,-0.80761 0.107913,-1.19063 0.297067,-0.78134 0.0955,-0.87771 -0.663747,-0.31734 -0.411644,0.30382 -0.447942,0.44562 -0.182862,0.71438 0.181901,0.18442 0.330729,0.54962 0.330729,0.81156 0,0.26193 0.127086,0.47625 0.282413,0.47625 0.155352,0 0.21184,-0.22236 0.125554,-0.49422 z m 159.135766,0.0817 c 0,-0.22687 -0.121,-0.33771 -0.26889,-0.2463 -0.1479,0.0914 -0.2004,0.27702 -0.11668,0.41249 0.22681,0.36698 0.38557,0.29855 0.38557,-0.16619 z M 70.60202,113.76232 c -0.503869,-0.55677 -0.856529,-4.15582 -0.432873,-4.41765 0.37848,-0.23391 0.314095,-0.98482 -0.07325,-0.85433 -0.181901,0.0613 -0.471542,-0.0776 -0.643647,-0.30868 -0.241655,-0.32443 -0.385405,-0.34865 -0.63122,-0.10638 -0.247677,0.24411 -0.222276,0.40975 0.11448,0.74651 0.548758,0.54875 0.559138,1.93348 0.01897,2.53037 -0.523533,0.57849 -0.580252,2.07483 -0.09019,2.37925 0.220378,0.1369 0.407616,0.12664 0.459904,-0.0252 0.149479,-0.43407 0.816221,-0.28355 1.156319,0.26103 0.177625,0.28442 0.376342,0.46375 0.441592,0.39849 0.06525,-0.0652 -0.07879,-0.33678 -0.320085,-0.60341 z m 2.943679,-5.27315 c -0.512473,-1.20609 -0.737825,-1.28286 -0.737825,-0.25136 0,0.79904 0.09621,0.97896 0.523494,0.97896 0.469645,0 0.491692,-0.0748 0.214331,-0.7276 z m -21.706054,-0.92605 c -0.06063,-0.1819 -0.268993,-0.33072 -0.463021,-0.33072 -0.194027,0 -0.402387,0.14882 -0.463021,0.33072 -0.06558,0.19675 0.122003,0.33073 0.463021,0.33073 0.341019,0 0.528602,-0.13398 0.463021,-0.33073 z m 21.694076,-1.32291 c 0.395639,-0.50043 0.56192,-1.77643 0.256123,-1.96543 -0.154609,-0.0956 -0.189306,-0.0363 -0.08119,0.13861 0.10941,0.17703 0.02815,0.30546 -0.193273,0.30546 -0.586763,0 -1.272998,1.18076 -0.901908,1.55185 0.385764,0.38576 0.596686,0.37877 0.920252,-0.0305 z m -3.640315,-0.92604 c 0.0081,-0.65723 -0.393839,-0.31284 -0.433505,0.37147 -0.02911,0.50218 0.02619,0.59621 0.194386,0.33054 0.129287,-0.20421 0.23689,-0.52011 0.239119,-0.70201 z m 5.031134,0.0661 c 0,-0.21828 -0.115325,-0.39687 -0.256279,-0.39687 -0.140954,0 -0.187747,0.17859 -0.103984,0.39687 0.08376,0.21828 0.199088,0.39688 0.256279,0.39688 0.05719,0 0.103984,-0.1786 0.103984,-0.39688 z m -21.634964,-0.19844 c -0.14768,-0.1819 -0.322426,-0.56885 -0.388326,-0.85989 -0.109847,-0.48514 -0.136693,-0.49036 -0.322655,-0.0628 -0.209443,0.48158 0.230785,1.2534 0.714906,1.2534 0.174296,0 0.172956,-0.11286 -0.0039,-0.33073 z m 2.566369,-1.86769 c -0.01793,-0.5589 -0.02676,-0.56071 -0.245987,-0.0505 -0.312945,0.72826 -0.312945,0.98716 0,0.79375 0.14552,-0.0899 0.256215,-0.42439 0.245987,-0.74322 z m -1.890074,-0.3833 c -0.180232,-0.21717 -0.291789,-0.73715 -0.247905,-1.15552 0.04388,-0.41837 -0.03769,-0.76067 -0.181269,-0.76067 -0.143582,0 -0.227456,0.50601 -0.186388,1.12448 0.131026,1.97317 0.1,1.8864 0.54312,1.51864 0.322061,-0.26728 0.336196,-0.40913 0.07244,-0.72693 z m -91.308504,-1.70122 c -0.08446,-0.21107 -0.147156,-0.14837 -0.159852,0.15985 -0.01149,0.27892 0.05105,0.43519 0.138964,0.34727 0.08792,-0.0879 0.09732,-0.31612 0.02089,-0.50712 z m 110.35622,0.11576 c 0.02999,-0.25467 0.122965,-0.93928 0.206615,-1.521355 0.124811,-0.86851 0.0585,-1.11525 -0.369681,-1.37568 -0.498436,-0.30315 -0.518137,-0.2499 -0.440489,1.19063 0.118115,2.191295 0.114676,2.169425 0.341145,2.169425 0.114338,0 0.232423,-0.20836 0.26241,-0.46302 z m -9.890988,-2.086555 -0.205878,-1.55147 -0.205805,1.32292 c -0.229933,1.478015 -0.05903,2.456615 0.356459,2.041125 0.16066,-0.16066 0.181904,-0.85793 0.05522,-1.812575 z m -5.660558,0.5652 c 0,-0.21828 -0.04679,-0.39688 -0.103984,-0.39688 -0.05719,0 -0.172517,0.1786 -0.25628,0.39688 -0.08376,0.218275 -0.03697,0.396865 0.103984,0.396865 0.140954,0 0.25628,-0.17859 0.25628,-0.396865 z m -5.737497,-1.74531 c 0.216476,-0.82781 -0.06335,-1.2974 -0.773102,-1.2974 -0.750526,0 -0.742761,-0.0364 -0.216897,1.01768 0.484586,0.97138 0.786796,1.05677 0.989999,0.27972 z m 0.891154,-0.28868 c -0.08446,-0.21106 -0.147156,-0.14837 -0.159852,0.15986 -0.01149,0.27891 0.05105,0.43518 0.138964,0.34726 0.08792,-0.0879 0.09732,-0.31612 0.02089,-0.50712 z m 15.869488,-1.60403 c -0.0734,-0.1819 -0.133453,-0.0331 -0.133453,0.33073 0,0.3638 0.06005,0.51263 0.133453,0.33073 0.0734,-0.1819 0.0734,-0.47956 0,-0.66146 z m -11.023145,0.21405 c 0,-0.50305 -0.379423,-0.71793 -0.908918,-0.51474 -0.331011,0.12702 -0.358948,0.24665 -0.123772,0.53002 0.397646,0.47914 1.03269,0.46974 1.03269,-0.0153 z m -3.07932,-0.54478 c 0.08376,-0.21828 0.03697,-0.39688 -0.103984,-0.39688 -0.140954,0 -0.256279,0.1786 -0.256279,0.39688 0,0.21828 0.04679,0.39687 0.103984,0.39687 0.05719,0 0.172517,-0.17859 0.256279,-0.39687 z m -1.815472,-0.66146 c 0,-0.19403 -0.148828,-0.40239 -0.330729,-0.46302 -0.196741,-0.0656 -0.330729,0.122 -0.330729,0.46302 0,0.34102 0.133988,0.5286 0.330729,0.46302 0.181901,-0.0606 0.330729,-0.26899 0.330729,-0.46302 z m 10.085667,-1.25677 c -0.07099,-0.83674 -0.136888,-1.78924 -0.146435,-2.11667 -0.0095,-0.32742 -0.118075,-0.59531 -0.241174,-0.59531 -0.212334,0 -0.131335,3.20098 0.09875,3.90261 0.263008,0.80201 0.407418,0.20677 0.288857,-1.19063 z m 9.361208,0.8599 c -0.186995,-0.22532 -0.399521,-0.35014 -0.472282,-0.27738 -0.07276,0.0728 0.0207,0.31664 0.207698,0.54196 0.186995,0.22531 0.399522,0.35013 0.472282,0.27737 0.07276,-0.0728 -0.0207,-0.31664 -0.207698,-0.54195 z m -31.368931,-0.76249 c -0.173427,-0.69099 -0.491983,-0.89079 -0.751295,-0.47122 -0.151746,0.24553 0.618992,1.47005 0.806966,1.28208 0.065,-0.065 0.03995,-0.42989 -0.05567,-0.81086 z m -3.143044,-0.61372 c -0.264732,-0.68987 -0.454432,-0.20104 -0.2396,0.61742 0.146844,0.55944 0.225627,0.63311 0.299837,0.28035 0.05536,-0.26316 0.02826,-0.66716 -0.06024,-0.89777 z m -90.270402,-0.225 c 0.09035,-0.23546 0.046,-0.34166 -0.103984,-0.24896 -0.143854,0.0889 -0.261552,0.27368 -0.261552,0.41061 0,0.38059 0.189644,0.29672 0.365536,-0.16165 z m 125.359976,-1.44146 c 0.156526,0 0.210999,-0.25571 0.124742,-0.58556 -0.09279,-0.35485 0.01603,-0.77247 0.2762,-1.05995 0.664846,-0.73465 0.214993,-0.85154 -0.693159,-0.18012 -0.918021,0.67873 -0.934938,0.75506 -0.492527,2.2225 0.29918,0.99236 0.324925,1.01298 0.412974,0.33073 0.05165,-0.40018 0.218943,-0.7276 0.37177,-0.7276 z m -19.771189,0.54745 c 0.08372,-0.13547 0.03122,-0.32109 -0.116677,-0.41249 -0.147895,-0.0914 -0.268899,0.0194 -0.268899,0.2463 0,0.46475 0.158764,0.53317 0.385576,0.16619 z m -8.323076,-1.3412 c 0,-0.88195 -0.08819,-1.05834 -0.529167,-1.05834 -0.291041,0 -0.529166,0.045 -0.529166,0.1 0,0.24912 0.814762,2.01669 0.929592,2.01669 0.07081,0 0.128741,-0.47625 0.128741,-1.05833 z m 10.03557,-0.19844 c -0.01624,-0.6352 -0.04563,-0.6604 -0.231476,-0.19844 -0.117083,0.29104 -0.161219,0.61847 -0.09808,0.72761 0.224119,0.3874 0.347902,0.18865 0.329556,-0.52917 z m 227.295662,0.24253 c 0,-0.37233 -0.29785,-0.54389 -0.6858,-0.39501 -0.20322,0.078 -0.30362,0.24837 -0.2231,0.37864 0.18467,0.2988 0.9089,0.31185 0.9089,0.0164 z M 64.208916,90.431355 c -0.08994,-0.14552 -0.282584,-0.26458 -0.428105,-0.26458 -0.145521,0 -0.190999,0.11906 -0.101062,0.26458 0.08994,0.14552 0.282584,0.26458 0.428105,0.26458 0.145521,0 0.190998,-0.11906 0.101062,-0.26458 z m 4.456847,-0.84943 c 0.08412,-0.32166 0.04145,-1.0658 -0.09481,-1.653642 -0.136263,-0.587841 -0.295927,-1.366458 -0.354809,-1.73026 -0.05888,-0.363802 -0.096,0.380338 -0.08249,1.653646 0.02397,2.258986 0.223867,2.908996 0.532113,1.730256 z m -121.32654,-0.50966 c -0.06605,-0.19816 -0.185987,-0.0782 -0.279546,0.27955 -0.115087,0.44009 -0.08065,0.54339 0.115686,0.34706 0.15375,-0.15376 0.227487,-0.43573 0.16386,-0.62661 z m 116.208234,0.56534 c -0.218281,-0.14106 -0.515937,-0.25648 -0.661458,-0.25648 -0.145521,0 -0.08599,0.11542 0.132292,0.25648 0.218281,0.14106 0.515937,0.25648 0.661458,0.25648 0.145521,0 0.08599,-0.11542 -0.132292,-0.25648 z m 11.641667,-0.51416 c 0,-0.13727 -0.261998,-0.43309 -0.582218,-0.65738 -0.450834,-0.31578 -0.629037,-0.33409 -0.789698,-0.0811 -0.399339,0.6287 -0.339337,0.67738 1.173478,0.95207 0.109141,0.0198 0.198438,-0.0763 0.198438,-0.21354 z m -30.653033,-1.89801 c -0.04467,-1.982694 -0.303216,-1.956328 -0.303216,0.03092 0,0.92163 0.07518,1.60051 0.167068,1.50863 0.09189,-0.0919 0.153154,-0.784688 0.136148,-1.53955 z m 8.009519,1.45782 c 0.230183,-0.0883 0.418514,-0.33919 0.418514,-0.55747 0,-0.253198 -0.151513,-0.338736 -0.418514,-0.236278 -0.230183,0.08833 -0.468308,0.160599 -0.529167,0.160599 -0.06086,0 -0.110652,0.178589 -0.110652,0.396879 0,0.4453 0.04846,0.4632 0.639819,0.23627 z m 2.006014,-0.648764 c 0,-0.44515 -0.103095,-0.745648 -0.2291,-0.667773 -0.213139,0.131727 -0.09687,1.477137 0.127653,1.477137 0.0558,0 0.101447,-0.36421 0.101447,-0.809364 z m 4.353529,-0.291072 c 0.04405,-0.486166 0.162196,-1.241125 0.262554,-1.677688 0.17327,-0.753736 0.161553,-0.767859 -0.232432,-0.280159 -0.252405,0.312442 -0.414901,1.029176 -0.414901,1.830034 0,1.445559 0.257637,1.531139 0.384779,0.127813 z m 3.087103,0.392676 c -0.311903,-0.536366 -0.387221,-0.364689 -0.131904,0.30066 0.09074,0.23646 0.220714,0.37419 0.288836,0.30606 0.06812,-0.0681 -0.0025,-0.34114 -0.156932,-0.60672 z M 43.04225,87.520939 c -0.09933,-0.312974 -0.24014,-0.509513 -0.3129,-0.436753 -0.07276,0.07276 -0.05102,0.388362 0.04832,0.701337 0.09933,0.312975 0.240139,0.509512 0.3129,0.436752 0.07276,-0.0728 0.05102,-0.388361 -0.04832,-0.701336 z m 13.711795,-0.106424 c 0.165397,-0.431017 -0.05682,-0.736436 -0.387242,-0.532226 -0.300548,0.185749 -0.293719,0.903234 0.0086,0.903234 0.129952,0 0.300342,-0.166954 0.378645,-0.371008 z m 15.433361,-1.095612 c 0.238126,-0.620547 -0.01891,-0.693411 -0.383978,-0.108847 -0.204407,0.327308 -0.221963,0.517133 -0.04783,0.517133 0.151321,0 0.345633,-0.183728 0.431804,-0.408286 z M -70.669922,85.363416 c 0.05369,-0.76299 0.02819,-0.791882 -0.301296,-0.341287 -0.197975,0.270747 -0.30093,0.646084 -0.228789,0.834081 0.228174,0.594611 0.46934,0.370411 0.530085,-0.492794 z m 111.583194,0.503878 c 0.272207,-0.870889 0.410079,-2.315105 0.221012,-2.315105 -0.20357,0 -0.870159,1.820975 -0.870159,2.377084 0,0.383461 0.525605,0.333278 0.649147,-0.06198 z m 32.026893,-0.463021 c -0.09933,-0.312975 -0.240139,-0.509514 -0.312899,-0.436754 -0.07276,0.07276 -0.05102,0.388362 0.04832,0.701337 0.09933,0.312975 0.240139,0.509514 0.3129,0.436753 0.07276,-0.07276 0.05102,-0.388362 -0.04832,-0.701336 z M -62.502501,85.207784 c -0.183487,-0.183488 -0.685455,0.18932 -0.685455,0.509084 0,0.175443 0.151813,0.155371 0.403269,-0.05332 0.221798,-0.184076 0.348782,-0.389171 0.282186,-0.455766 z m 115.689875,0.08031 c 0.13737,-0.708607 -0.31022,-0.998078 -0.888941,-0.574906 -0.43366,0.317099 -0.454064,0.43056 -0.144507,0.803553 0.432833,0.521532 0.908418,0.41631 1.033448,-0.228647 z M 44.14352,84.544373 c -0.0734,-0.181901 -0.133453,-0.03307 -0.133453,0.330729 0,0.363802 0.06005,0.51263 0.133453,0.330729 0.0734,-0.181901 0.0734,-0.479557 0,-0.661458 z m 13.770348,-0.992184 c 0.0157,-1.018645 -0.0541,-1.852083 -0.155099,-1.852083 -0.214573,0 -0.339178,3.156846 -0.137486,3.48319 0.239895,0.388158 0.263497,0.256578 0.292585,-1.631107 z m 5.633589,1.322917 c 0,-0.291042 -0.119062,-0.529167 -0.264583,-0.529167 -0.145521,0 -0.264583,0.238125 -0.264583,0.529167 0,0.291042 0.119062,0.529167 0.264583,0.529167 0.145521,0 0.264583,-0.238125 0.264583,-0.529167 z m 7.969798,-0.443176 c -0.311902,-0.536368 -0.387221,-0.36469 -0.131903,0.300656 0.09074,0.236459 0.220714,0.374189 0.288836,0.306067 0.06812,-0.06812 -0.0025,-0.341147 -0.156933,-0.606723 z M 60.952347,82.134315 c -0.152441,-1.03918 -0.253326,-2.869348 -0.224189,-4.06704 0.03723,-1.530217 -0.04458,-2.215061 -0.27518,-2.303549 -0.435315,-0.167046 -0.681115,0.267432 -0.490702,0.86737 0.08423,0.265378 0.206995,1.246578 0.272818,2.180445 0.280761,3.983343 0.424632,5.357051 0.588889,5.622825 0.348662,0.564147 0.403744,-0.422809 0.128364,-2.300051 z m 6.853256,1.336854 c -0.34553,-0.34553 -0.393592,0.0374 -0.09878,0.786985 0.183853,0.467455 0.194127,0.467226 0.289396,-0.0065 0.05433,-0.270119 -0.03145,-0.621353 -0.190621,-0.780521 z m -134.565434,0.610187 c 0.08994,-0.145521 0.03743,-0.264583 -0.116676,-0.264583 -0.154109,0 -0.280199,0.119062 -0.280199,0.264583 0,0.145521 0.0525,0.264583 0.116677,0.264583 0.06417,0 0.190261,-0.119062 0.280198,-0.264583 z M 50.582874,83.816773 c 0,-0.558029 -0.384937,-0.712004 -0.661458,-0.264584 -0.192935,0.312175 0.05733,0.79375 0.41249,0.79375 0.136933,0 0.248968,-0.238125 0.248968,-0.529166 z m -8.283312,-0.722569 c -0.06708,-0.257431 -0.126382,-0.110869 -0.131774,0.325694 -0.0054,0.436562 0.04949,0.647188 0.12197,0.468056 0.07247,-0.179131 0.07689,-0.536319 0.0098,-0.79375 z m 7.224979,0.590277 c 0,-0.218281 -0.112036,-0.396875 -0.248968,-0.396875 -0.333634,0 -0.572584,0.413171 -0.3612,0.624554 0.29797,0.29797 0.610168,0.181475 0.610168,-0.227679 z m 6.795324,-0.181901 c -0.08446,-0.211067 -0.147157,-0.148372 -0.159853,0.159852 -0.01149,0.278915 0.05105,0.435185 0.138965,0.347266 0.08792,-0.08792 0.09732,-0.316122 0.02089,-0.507118 z m -3.112046,-1.604036 c -0.01149,-0.909506 -0.07972,-1.475053 -0.151638,-1.256771 -0.07191,0.218281 -0.24774,0.639567 -0.390728,0.936191 -0.245262,0.50879 0.06977,1.974225 0.424414,1.974225 0.07636,0 0.129441,-0.74414 0.117952,-1.653645 z m -9.299272,-2.901976 c 0,-2.069029 -0.09807,-4.003795 -0.217941,-4.299479 -0.136568,-0.336882 -0.224201,0.460468 -0.234711,2.135559 -0.01496,2.384649 0.216855,5.925791 0.387924,5.925791 0.0356,0 0.06473,-1.692842 0.06473,-3.761871 z m -0.734006,2.407725 c 0,-0.291042 -0.119062,-0.455582 -0.264583,-0.365645 -0.145521,0.08994 -0.264583,0.401646 -0.264583,0.692688 0,0.291042 0.119062,0.455582 0.264583,0.365645 0.145521,-0.08994 0.264583,-0.401646 0.264583,-0.692688 z m -103.395643,-1.55627 c 0.133727,-0.911139 -0.184227,-1.080843 -0.409691,-0.218668 -0.133996,0.512402 -0.03199,1.012418 0.206547,1.012418 0.04766,0 0.139071,-0.357188 0.203144,-0.79375 z M 48.357305,79.650925 c -0.289031,-0.289031 -0.487224,0.170618 -0.279712,0.648708 0.196764,0.453328 0.211028,0.452914 0.320658,-0.0093 0.0631,-0.266052 0.04468,-0.553786 -0.04095,-0.63941 z m 8.935833,0.593973 c 0.08376,-0.218282 0.04971,-0.396875 -0.07568,-0.396875 -0.125385,0 -0.296505,0.178593 -0.380267,0.396875 -0.08376,0.218281 -0.04971,0.396875 0.07568,0.396875 0.125384,0 0.296504,-0.178594 0.380267,-0.396875 z M -59.091024,79.385002 c 0.08369,-0.545703 0.267111,-1.356264 0.407607,-1.801247 0.441559,-1.398516 0.612659,-3.973152 0.299836,-4.511797 -0.259334,-0.446542 -0.294223,-0.415144 -0.326449,0.293773 -0.01984,0.436562 -0.01449,1.121172 0.0119,1.521354 0.02639,0.400182 -0.07467,0.727604 -0.224559,0.727604 -0.394484,0 -0.650223,-1.683474 -0.496043,-3.265353 0.07316,-0.75067 0.07945,-1.155038 0.01396,-0.898595 -0.06549,0.256443 -0.229116,0.398244 -0.363624,0.315114 -0.137114,-0.08474 -0.244559,0.42449 -0.244559,1.159078 0,0.920568 -0.118029,1.355517 -0.396875,1.46252 -0.218281,0.08376 -0.396875,0.282121 -0.396875,0.440797 0,0.158676 0.106587,0.222628 0.236859,0.142115 0.391422,-0.241912 0.540201,0.538031 0.391511,2.052408 -0.116246,1.183937 -0.06303,1.459597 0.309333,1.602488 0.33949,0.130275 0.411016,0.366146 0.291795,0.962253 -0.08686,0.434321 -0.04724,0.789675 0.08804,0.789675 0.135289,0 0.314452,-0.446484 0.39814,-0.992187 z m -0.608697,-2.845389 c 0.166039,-0.364417 0.337358,-0.627109 0.380708,-0.583758 0.160985,0.160984 -0.234849,1.246334 -0.454546,1.246334 -0.125429,0 -0.0922,-0.298159 0.07384,-0.662576 z m 114.287884,2.341779 c 0.161371,-0.196655 0.112988,-0.620036 -0.13606,-1.190626 -0.385494,-0.883194 -0.386442,-0.880729 -0.372031,0.966632 0.0079,1.018645 0.06917,1.554427 0.136061,1.190625 0.06689,-0.363802 0.2343,-0.798786 0.37203,-0.966631 z m -123.151628,0.387855 c -0.08446,-0.211067 -0.147157,-0.148373 -0.159853,0.159852 -0.01149,0.278915 0.05105,0.435184 0.138965,0.347266 0.08792,-0.08792 0.09732,-0.316122 0.02089,-0.507118 z M 52.88905,77.797502 c -0.06062,-0.400183 -0.110223,-0.07276 -0.110223,0.727604 0,0.800365 0.0496,1.127786 0.110223,0.727604 0.06062,-0.400182 0.06062,-1.055026 0,-1.455208 z m 5.203789,0.926041 c 0.187568,-0.999539 0.142452,-1.785937 -0.10246,-1.785937 -0.32876,0 -0.45426,0.262109 -0.666055,1.391077 -0.151401,0.807035 -0.10784,0.990173 0.235522,0.990173 0.231704,0 0.471551,-0.267891 0.532993,-0.595313 z M 72.80199,77.680825 c 0.0111,-0.344829 -0.624291,-0.572488 -0.728154,-0.260897 -0.0571,0.171285 -0.324986,0.311428 -0.595313,0.311428 -0.707453,0 -0.890312,0.460818 -0.261991,0.660239 0.293155,0.09304 0.535656,0.309975 0.538892,0.48207 0.006,0.317308 1.03574,-0.856392 1.046566,-1.19284 z M 56.568789,77.54366 c -0.07824,-0.07824 -0.342195,-0.06554 -0.58656,0.02823 -0.408038,0.156579 -0.403571,0.215761 0.05473,0.725112 0.499036,0.554618 0.499036,0.554618 0.586561,-0.02823 0.04814,-0.320569 0.02351,-0.646869 -0.05474,-0.725112 z m 2.640604,-0.269813 c -0.268953,-0.268953 -0.490868,0.135967 -0.270197,0.49302 0.166697,0.269721 0.229017,0.269929 0.318638,0.0011 0.06128,-0.183828 0.03948,-0.406167 -0.04844,-0.494086 z m 3.614279,0.29935 c 0.238504,-0.238504 -0.08991,-0.91908 -0.362272,-0.750748 -0.130273,0.08051 -0.236859,0.317954 -0.236859,0.527647 0,0.389622 0.315227,0.507005 0.599131,0.223101 z M -68.479622,76.937606 c 0,-0.145521 -0.05251,-0.264583 -0.116677,-0.264583 -0.06417,0 -0.190262,0.119062 -0.280198,0.264583 -0.08994,0.145521 -0.03743,0.264583 0.116676,0.264583 0.154109,0 0.280199,-0.119062 0.280199,-0.264583 z m 121.46813,-2.838569 c -0.219948,-0.377807 -0.274436,-0.259167 -0.280921,0.611659 -0.0044,0.59421 0.08125,1.171136 0.190391,1.282057 0.313197,0.318306 0.394022,-1.372404 0.09053,-1.893716 z m 148.296012,0.92034 c 0.10947,-0.109141 -0.44589,-0.196615 -1.23412,-0.194386 -0.78824,0.0022 -1.29556,0.09153 -1.12738,0.198437 0.39955,0.253994 2.10561,0.251067 2.3615,-0.0041 z M 55.080791,73.894897 c 0,-0.509322 -0.119063,-0.926041 -0.264583,-0.926041 -0.145521,0 -0.264584,0.416719 -0.264584,0.926041 0,0.509323 0.119063,0.926042 0.264584,0.926042 0.14552,0 0.264583,-0.416719 0.264583,-0.926042 z m 2.743026,-0.307816 c 0.227948,-1.663066 0.0249,-1.740674 -0.61971,-0.236863 -0.651001,1.518725 -0.649611,1.470721 -0.04261,1.470721 0.386532,0 0.529781,-0.266862 0.662323,-1.233858 z m -121.805523,0.440108 c 0,-0.145521 -0.126089,-0.264583 -0.280198,-0.264583 -0.154109,0 -0.206614,0.119062 -0.116677,0.264583 0.08994,0.145521 0.216026,0.264583 0.280198,0.264583 0.06417,0 0.116677,-0.119062 0.116677,-0.264583 z M 202.18911,73.754302 c 0,-0.150088 -0.17859,-0.34142 -0.39687,-0.425183 -0.21828,-0.08376 -0.39688,-0.423543 -0.39688,-0.755069 0,-0.562492 -0.71925,-2.54225 -0.8178,-2.251028 -0.0246,0.07276 -0.0631,0.429948 -0.0854,0.79375 -0.0223,0.363802 -0.13294,0.810287 -0.24579,0.992188 -0.1174,0.189245 -0.0794,0.330729 0.0888,0.330729 0.16168,0 0.41848,0.357188 0.57066,0.79375 0.26342,0.755643 1.28327,1.169588 1.28327,0.520863 z M 71.078031,73.514286 c 0.08441,-0.136576 0.377132,-0.205247 0.650497,-0.152602 0.394507,0.07597 0.519094,-0.0933 0.604011,-0.820676 0.166353,-1.424934 -0.382523,-1.62071 -1.328003,-0.473678 -0.439777,0.533525 -0.736977,1.133223 -0.660446,1.332661 0.160807,0.419055 0.511806,0.473716 0.733941,0.114295 z M 50.228936,71.31521 c -0.0734,-0.181901 -0.133452,-0.03307 -0.133452,0.330729 0,0.363802 0.06005,0.51263 0.133452,0.330729 0.0734,-0.181901 0.0734,-0.479557 0,-0.661458 z m 3.050515,-0.07066 c 0.06717,-0.575402 0.0025,-0.895811 -0.169491,-0.83952 -0.352301,0.115316 -0.531369,1.770077 -0.191546,1.770077 0.13882,0 0.301286,-0.418751 0.361037,-0.930557 z m 14.395506,-0.02194 c -0.09416,-0.245386 -0.230737,-0.386624 -0.303497,-0.313864 -0.07276,0.07276 -0.05525,0.333062 0.03891,0.578447 0.09416,0.245385 0.230737,0.386624 0.303497,0.313864 0.07276,-0.07276 0.05525,-0.333062 -0.03891,-0.578447 z m -136.44181,-1.561042 c 0.008,-0.145521 -0.100872,-0.08599 -0.241936,0.132292 -0.141064,0.218281 -0.249935,0.575468 -0.241936,0.79375 0.01536,0.41906 0.45632,-0.424862 0.483872,-0.926042 z m 5.314314,0.809365 c 0,-0.06417 -0.119063,-0.190261 -0.264583,-0.280198 -0.145521,-0.08994 -0.264584,-0.03743 -0.264584,0.116676 0,0.15411 0.119063,0.280199 0.264584,0.280199 0.14552,0 0.264583,-0.0525 0.264583,-0.116677 z m 160.866662,0 c 0,-0.06417 -0.119062,-0.190261 -0.264583,-0.280198 -0.145521,-0.08994 -0.264584,-0.03743 -0.264584,0.116676 0,0.15411 0.119063,0.280199 0.264584,0.280199 0.145521,0 0.264583,-0.0525 0.264583,-0.116677 z m -166.952079,-1.99999 c 0,-0.291042 -0.119062,-0.529167 -0.264583,-0.529167 -0.145521,0 -0.264583,0.238125 -0.264583,0.529167 0,0.291042 0.119062,0.529167 0.264583,0.529167 0.145521,0 0.264583,-0.238125 0.264583,-0.529167 z m 6.085417,-0.926042 c 0,-0.675521 -0.361125,-0.882824 -0.669289,-0.384205 -0.220098,0.356126 0.0413,1.045664 0.396402,1.045664 0.150088,0 0.272887,-0.297657 0.272887,-0.661459 z m 114.100422,0.06615 c 0.218417,-0.593936 -0.07643,-0.939537 -0.673007,-0.78887 -0.859288,0.217012 -1.060061,0.694478 -0.376256,0.894788 0.876083,0.256635 0.917473,0.252457 1.049263,-0.105918 z M -58.38368,66.883439 c 0,-0.363802 0.06005,-0.51263 0.133452,-0.330729 0.0734,0.181901 0.0734,0.479557 0,0.661458 -0.0734,0.181901 -0.133452,0.03307 -0.133452,-0.330729 z"
       id="path3" /></g></svg>
