<?xml version="1.0" encoding="UTF-8" standalone="no"?>
<!-- Created with Inkscape (http://www.inkscape.org/) -->

<svg
   width="210mm"
   height="297mm"
   viewBox="0 0 210 297"
   version="1.1"
   id="svg1"
   xml:space="preserve"
   xmlns="http://www.w3.org/2000/svg"
   xmlns:svg="http://www.w3.org/2000/svg"><defs
     id="defs1" /><g
     id="layer1"><path
       style="fill:#000000"
       d="M 0.6252979,35.607373 V 0.81450792 H 58.187694 115.75007 V 35.607373 70.400242 H 58.187694 0.6252979 Z M 77.501354,69.732612 c 0.91388,-0.27494 1.91259,-1.14707 4.32586,-3.77757 1.7664,-1.9254 2.53887,-2.64566 3.66638,-3.41856 2.59371,-1.77797 5.56019,-4.13604 9.41376,-7.48306 0.7582,-0.65853 2.22646,-1.9333 3.26278,-2.83281 1.03633,-0.89951 2.687916,-2.3584 3.670206,-3.24199 3.011,-2.70843 5.39377,-4.79666 8.54863,-7.49189 0.77269,-0.66011 2.07879,-1.7969 2.90246,-2.52619 l 1.49757,-1.32599 -0.13935,-0.17241 c -0.78863,-0.97564 -9.73404,-9.78499 -13.0536,-12.855037 -1.41729,-1.310766 -4.161256,-3.703241 -6.663876,-5.810251 -1.36555,-1.149694 -3.99188,-3.682798 -7.07016,-6.819216 -7.98156,-8.1322881 -11.18826,-10.4574291 -13.91491,-10.0895241 -2.86165,0.386119 -3.72326,4.436793 -1.80431,8.4825881 l 0.26824,0.56553 -0.57252,0.55714 -0.57252,0.55714 -0.4429,-0.510304 c -1.73486,-1.9988891 -2.9092,-2.0843491 -4.33795,-0.315686 -0.95825,1.18623 -1.43607,1.678819 -1.71978,1.772955 -0.0512,0.017 0.16536,0.293978 0.53176,0.68 2.13,2.244057 3.63237,4.328855 4.67595,6.488685 l 0.29068,0.601605 3.50991,3.407558 c 1.93044,1.874157 3.5099,3.410831 3.5099,3.414832 0,0.004 -2.10965,0.02742 -4.68811,0.05204 -5.26028,0.05023 -9.683,0.173763 -12.34706,0.344879 -5.148773,0.33071 -7.900183,0.609295 -12.158166,1.231037 -3.381827,0.4938 -6.596422,0.56082 -16.176543,0.33722 -4.460672,-0.10411 -7.600964,0.004 -10.269185,0.355 -1.290579,0.16956 -3.340966,0.19623 -4.293138,0.0559 -2.309501,-0.34049 -4.195778,-0.11552 -5.142192,0.6133 l -0.279257,0.21505 1.26823,0.0334 1.268231,0.0334 -0.274761,0.12142 c -0.946389,0.41821 -2.004476,0.494 -4.3133921,0.30896 -1.304071,-0.10451 -2.047626,-0.13502 -2.460796,-0.10097 l -0.59207,0.0488 -0.03515,0.42615 c -0.04177,0.50635 -0.203029,0.80651 -0.552479,1.02836 -0.35066,0.22261 -0.408885,0.21886 1.537306,0.099 1.699,-0.10465 3.3652711,-0.0936 3.9093911,0.026 l 0.240415,0.0528 0.01966,0.60944 0.01966,0.60944 -0.294426,0.0495 c -0.472583,0.0795 -1.570738,0.0533 -2.9733431,-0.0711 -1.209588,-0.10724 -2.535382,-0.10627 -2.715382,0.002 -0.03737,0.0225 -0.06657,0.41594 -0.06657,0.8969 0,0.92471 -0.01379,0.96259 -0.390578,1.07265 -0.12459,0.0364 0.215642,0.0585 0.957272,0.0622 l 1.150561,0.006 v 0.858629 c 0,1.10484 0.0044,1.09987 -1.001528,1.1361 -0.684756,0.0247 -0.715727,0.0322 -0.715727,0.17361 0,0.0813 -0.07728,0.36892 -0.171726,0.63915 -0.394461,1.12862 -0.253974,1.26807 1.284819,1.27538 l 1.119338,0.005 -0.4393,0.0927 c -2.218574,0.46834 -4.131513,1.90107 -4.314917,3.23172 l -0.03706,0.26887 0.238412,-0.0376 c 0.196279,-0.031 0.279749,-0.003 0.472313,0.158 0.368353,0.3081 0.55122,0.41282 0.653927,0.37447 0.291978,-0.10903 0.0093,0.0782 -0.57458,0.38047 -3.389258,1.75491 -3.243639,2.71713 0.429314,2.83681 6.3592161,0.20721 7.2413181,0.23018 11.7460241,0.30577 9.88885,0.16594 26.791626,0.006 39.016035,-0.36959 0.642253,-0.0197 2.713268,-0.0805 4.602248,-0.13507 1.88898,-0.0546 4.36183,-0.12858 5.49521,-0.16448 1.13339,-0.0359 2.57073,-0.0811 3.1941,-0.10046 0.62336,-0.0194 1.58159,-0.0513 2.12939,-0.0711 6.77898,-0.2442 7.51282,-0.25867 7.44376,-0.1468 -0.035,0.0568 -0.0143,0.0541 0.0646,-0.008 0.0639,-0.0505 0.11622,-0.0625 0.11622,-0.0268 0,0.22884 -3.00696,2.80166 -8.58721,7.3474 -1.26614,1.03141 -2.40024,1.9841 -2.52023,2.1171 -0.82139,0.91038 -1.43341,2.2805 -1.70003,3.80582 -0.0582,0.33276 -0.13002,0.36386 1.3379,-0.57904 4.48887,-2.88339 9.66958,-6.90766 15.26742,-11.85944 1.08451,-0.95933 1.24872,-1.08094 1.45967,-1.08094 0.32105,0 0.33108,-0.0132 -0.46638,0.61428 -1.78519,1.40467 -3.78456,3.12681 -7.40137,6.37511 -4.68827,4.2106 -7.53376,6.52818 -9.6767,7.88145 l -0.69552,0.43921 v 0.92719 c 0,3.29363 1.63655,5.34673 4.26659,5.35257 1.0808,0.002 1.15651,-0.0318 2.10091,-0.94824 0.80359,-0.77984 0.84522,-0.80992 1.01584,-0.73427 0.27838,0.12343 0.84624,0.67211 1.18908,1.14891 0.17182,0.23897 0.33505,0.46022 0.36272,0.49168 0.0537,0.0611 2.00849,-1.54028 6.75366,-5.53254 4.32884,-3.64199 4.47641,-3.75899 2.82321,-2.23838 -0.6685,0.61488 -6.25984,5.82464 -8.33128,7.76271 l -0.77536,0.72544 0.134,0.18097 c 0.13118,0.17716 0.46973,0.49865 0.71648,0.68037 0.37121,0.27338 1.07926,0.30009 1.84535,0.0696 z"
       id="path4" /></g></svg>
