<?xml version="1.0" encoding="UTF-8" standalone="no"?>
<svg
   width="2250"
   height="2250"
   viewBox="0 0 2250 2250"
   version="1.1"
   id="svg6"
   xmlns="http://www.w3.org/2000/svg"
   xmlns:svg="http://www.w3.org/2000/svg">
  <defs
     id="defs6" />
  <path
     fill-rule="nonzero"
     fill="rgb(63.867188%, 36.083984%, 4.704285%)"
     fill-opacity="1"
     d="M 1079.910156 1513.269531 C 1079.910156 1513.269531 1052.800781 306.621094 1067.449219 295.910156 C 1082.101562 285.191406 1133.039062 274.921875 1147.328125 293.238281 C 1161.628906 311.558594 1174.179688 1521.667969 1174.179688 1521.667969 Z M 1079.910156 1513.269531 "
     id="path1" />
  <path
     fill-rule="nonzero"
     fill="rgb(95.701599%, 87.5%, 52.146912%)"
     fill-opacity="1"
     d="M 894.648438 478.929688 C 855.027344 499.101562 862.230469 1059.269531 898.167969 1088.75 C 934.109375 1118.210938 1307.988281 1115.46875 1337.378906 1086.789062 C 1366.761719 1058.109375 1369.800781 516.839844 1322.960938 476.839844 C 1279.859375 440.03125 962.3125 444.46875 894.648438 478.929688 Z M 894.648438 478.929688 "
     id="path2" />
  <path
     fill-rule="nonzero"
     fill="rgb(63.867188%, 36.083984%, 4.704285%)"
     fill-opacity="1"
     d="M 856.476562 1084.609375 C 840.625 1092.890625 840.828125 1164.929688 853.097656 1173.398438 C 870.511719 1185.429688 1383.28125 1192.609375 1398.109375 1167.371094 C 1412.929688 1142.148438 1409.820312 1098.558594 1391.898438 1080.191406 C 1373.96875 1061.820312 882.695312 1070.910156 856.476562 1084.609375 Z M 856.476562 1084.609375 "
     id="path3" />
  <path
     fill-rule="nonzero"
     fill="rgb(63.867188%, 36.083984%, 4.704285%)"
     fill-opacity="1"
     d="M 1052.671875 1132.480469 C 1049.601562 1115.679688 994.429688 1104.589844 985.414062 1115.269531 C 972.621094 1130.421875 786.355469 1931.789062 802.601562 1950.246094 C 818.847656 1968.699219 852.851562 1972.492188 870.605469 1957.828125 C 888.359375 1943.167969 1057.738281 1160.28125 1052.671875 1132.480469 Z M 1052.671875 1132.480469 "
     id="path4" />
  <path
     fill-rule="nonzero"
     fill="rgb(63.867188%, 36.083984%, 4.704285%)"
     fill-opacity="1"
     d="M 1186.21875 1131.179688 C 1189.058594 1114.328125 1244.070312 1102.480469 1253.230469 1113.039062 C 1266.230469 1128.019531 1463.46875 1926.757812 1447.480469 1945.433594 C 1431.488281 1964.109375 1397.539062 1968.367188 1379.589844 1953.949219 C 1361.628906 1939.53125 1181.519531 1159.039062 1186.21875 1131.179688 Z M 1186.21875 1131.179688 "
     id="path5" />
  <path
     fill-rule="nonzero"
     fill="rgb(63.867188%, 36.083984%, 4.704285%)"
     fill-opacity="1"
     d="M 850.953125 1541.949219 C 835.277344 1535.53125 836.988281 1482.628906 849.433594 1476.664062 C 867.097656 1468.199219 1379.878906 1473.671875 1394.179688 1492.511719 C 1408.46875 1511.351562 1404.449219 1543.300781 1386.140625 1556.414062 C 1367.839844 1569.527344 876.878906 1552.558594 850.953125 1541.949219 Z M 850.953125 1541.949219 "
     id="path6" />
</svg>
