<?xml version="1.0" encoding="UTF-8" standalone="no"?>
<!-- Uploaded to: SVG Repo, www.svgrepo.com, Transformed by: SVG Repo Mixer Tools -->

<svg
   width="54.166634"
   height="16.279932"
   viewBox="0 0 19.999988 6.0110518"
   fill="none"
   stroke="#f0c146"
   version="1.1"
   id="svg1"
   sodipodi:docname="bracket-curly-svgrepo-com (2).svg"
   xmlns:inkscape="http://www.inkscape.org/namespaces/inkscape"
   xmlns:sodipodi="http://sodipodi.sourceforge.net/DTD/sodipodi-0.dtd"
   xmlns="http://www.w3.org/2000/svg"
   xmlns:svg="http://www.w3.org/2000/svg">
  <defs
     id="defs1" />
  <sodipodi:namedview
     id="namedview1"
     pagecolor="#ffffff"
     bordercolor="#000000"
     borderopacity="0.25"
     inkscape:showpageshadow="2"
     inkscape:pageopacity="0.0"
     inkscape:pagecheckerboard="0"
     inkscape:deskcolor="#d1d1d1">
    <inkscape:page
       x="0"
       y="0"
       width="19.999989"
       height="6.0110517"
       id="page2"
       margin="0"
       bleed="0" />
  </sodipodi:namedview>
  <g
     id="SVGRepo_iconCarrier"
     transform="rotate(-89.929361,6.4987671,8.5080179)">
    <path
       d="m 14,21 c -1.1046,0 -2,-0.8954 -2,-2 v -3.6745 c 0,-0.4892 0,-0.7338 -0.0553,-0.964 -0.049,-0.204 -0.1298,-0.3991 -0.2394,-0.5781 -0.1237,-0.2018 -0.2967,-0.3748 -0.6426,-0.7207 L 10,12 11.0627,10.9373 c 0.3459,-0.3459 0.5189,-0.5189 0.6426,-0.7207 0.1096,-0.179 0.1904,-0.37406 0.2394,-0.57814 C 12,9.40829 12,9.1637 12,8.67452 V 5 c 0,-1.10457 0.8954,-2 2,-2"
       stroke="#f0c146"
       stroke-width="2"
       stroke-linecap="round"
       stroke-linejoin="round"
       id="path1" />
  </g>
</svg>
